%TF.GenerationSoftware,KiCad,Pcbnew,8.0.4*%
%TF.CreationDate,2024-11-04T17:03:22+09:00*%
%TF.ProjectId,balsun,62616c73-756e-42e6-9b69-6361645f7063,rev?*%
%TF.SameCoordinates,Original*%
%TF.FileFunction,Copper,L2,Inr*%
%TF.FilePolarity,Positive*%
%FSLAX46Y46*%
G04 Gerber Fmt 4.6, Leading zero omitted, Abs format (unit mm)*
G04 Created by KiCad (PCBNEW 8.0.4) date 2024-11-04 17:03:22*
%MOMM*%
%LPD*%
G01*
G04 APERTURE LIST*
%TA.AperFunction,ComponentPad*%
%ADD10R,1.050000X1.050000*%
%TD*%
%TA.AperFunction,ComponentPad*%
%ADD11C,1.050000*%
%TD*%
%TA.AperFunction,ComponentPad*%
%ADD12C,1.524000*%
%TD*%
%TA.AperFunction,ComponentPad*%
%ADD13C,5.000000*%
%TD*%
%TA.AperFunction,ComponentPad*%
%ADD14R,2.000000X2.540000*%
%TD*%
%TA.AperFunction,ComponentPad*%
%ADD15C,3.400000*%
%TD*%
%TA.AperFunction,ComponentPad*%
%ADD16R,2.540000X2.000000*%
%TD*%
%TA.AperFunction,ComponentPad*%
%ADD17O,2.200000X1.200000*%
%TD*%
%TA.AperFunction,ComponentPad*%
%ADD18C,1.530000*%
%TD*%
%TA.AperFunction,ViaPad*%
%ADD19C,0.600000*%
%TD*%
%TA.AperFunction,Conductor*%
%ADD20C,0.400000*%
%TD*%
%TA.AperFunction,Conductor*%
%ADD21C,0.200000*%
%TD*%
%ADD22C,0.300000*%
%ADD23C,0.350000*%
%ADD24O,1.600000X0.600000*%
G04 APERTURE END LIST*
D10*
%TO.N,P402*%
%TO.C,J4*%
X196800000Y-115580000D03*
D11*
%TO.N,P401*%
X195530000Y-115580000D03*
%TO.N,P215*%
X196800000Y-114310000D03*
%TO.N,P400*%
X195530000Y-114310000D03*
%TO.N,P214*%
X196800000Y-113040000D03*
%TO.N,P011*%
X195530000Y-113040000D03*
%TO.N,P411*%
X196800000Y-111770000D03*
%TO.N,P003*%
X195530000Y-111770000D03*
%TO.N,P410*%
X196800000Y-110500000D03*
%TO.N,P004*%
X195530000Y-110500000D03*
%TO.N,P409*%
X196800000Y-109230000D03*
%TO.N,P015*%
X195530000Y-109230000D03*
%TO.N,P408*%
X196800000Y-107960000D03*
%TO.N,P113*%
X195530000Y-107960000D03*
%TO.N,P206*%
X196800000Y-106690000D03*
%TO.N,P205*%
X195530000Y-106690000D03*
%TD*%
D12*
%TO.N,VEXTIN*%
%TO.C,IC3*%
X212700000Y-97240000D03*
%TO.N,GND*%
X212700000Y-94700000D03*
%TO.N,Net-(IC3-OUT)*%
X212700000Y-92160000D03*
%TD*%
D11*
%TO.N,RESET*%
%TO.C,J1*%
X204935000Y-104905000D03*
%TO.N,GND*%
X204935000Y-106175000D03*
%TO.N,P501_SCI1_TXD*%
X203665000Y-104905000D03*
%TO.N,P502_SCI1_RXD*%
X203665000Y-106175000D03*
%TO.N,unconnected-(J1-Pad6)*%
X202395000Y-104905000D03*
%TO.N,GND*%
X202395000Y-106175000D03*
%TO.N,P300_SWCLK*%
X201125000Y-104905000D03*
%TO.N,GND*%
X201125000Y-106175000D03*
%TO.N,P108_SWDIO*%
X199855000Y-104905000D03*
D10*
%TO.N,+5V*%
X199855000Y-106175000D03*
%TD*%
D13*
%TO.N,GND*%
%TO.C,H3*%
X218450000Y-91412500D03*
%TD*%
D14*
%TO.N,WISUN_TX_Serial1_D0*%
%TO.C,P1*%
X215920000Y-76140000D03*
X215920000Y-73600000D03*
%TO.N,WISUN_RX_Serial1_D1*%
X213380000Y-76140000D03*
X213380000Y-73600000D03*
%TO.N,P105_IRQ00_GPT1_A*%
X210840000Y-76140000D03*
X210840000Y-73600000D03*
%TO.N,P104_IRQ01_GPT1_B*%
X208300000Y-76140000D03*
X208300000Y-73600000D03*
%TO.N,P103_SPI0_SSL_GPT2_A_CAN0_TX*%
X205760000Y-76140000D03*
X205760000Y-73600000D03*
%TO.N,P102_SPI0_RSPCK_GPT2_B_CAN0_RX*%
X203220000Y-76140000D03*
X203220000Y-73600000D03*
%TO.N,P106_GPT0_B*%
X200680000Y-76140000D03*
X200680000Y-73600000D03*
%TO.N,P107_GPT0_A*%
X198140000Y-76140000D03*
X198140000Y-73600000D03*
%TO.N,P304_GPT7_A*%
X193060000Y-76140000D03*
X193060000Y-73600000D03*
%TO.N,P303_GPT7_B*%
X190520000Y-76140000D03*
X190520000Y-73600000D03*
%TO.N,P112_GPT3_B*%
X187980000Y-76140000D03*
X187980000Y-73600000D03*
%TO.N,P109_SCI9_TXD*%
X185440000Y-76140000D03*
X185440000Y-73600000D03*
%TO.N,P110_SCI9_RXD*%
X182900000Y-76140000D03*
X182900000Y-73600000D03*
%TO.N,P111_GPT3_A*%
X180360000Y-76140000D03*
X180360000Y-73600000D03*
%TO.N,GND*%
X177820000Y-76140000D03*
X177820000Y-73600000D03*
%TO.N,AREF*%
X175280000Y-76140000D03*
X175280000Y-73600000D03*
%TO.N,P101_AN21_SDA*%
X172740000Y-76140000D03*
X172740000Y-73600000D03*
%TO.N,P100_AN22_SCL*%
X170200000Y-76140000D03*
X170200000Y-73600000D03*
%TO.N,+5V*%
X195600000Y-76140000D03*
X195600000Y-73600000D03*
%TD*%
D15*
%TO.N,GND*%
%TO.C,H4*%
X159400000Y-76500000D03*
%TD*%
%TO.N,GND*%
%TO.C,H5*%
X167375000Y-124175000D03*
%TD*%
D16*
%TO.N,VEXTIN*%
%TO.C,H1*%
X218450000Y-101600000D03*
X220990000Y-101600000D03*
%TO.N,GND*%
X218450000Y-99060000D03*
X220990000Y-99060000D03*
%TO.N,VBAT*%
X218450000Y-96520000D03*
X220990000Y-96520000D03*
%TD*%
D14*
%TO.N,+5V*%
%TO.C,J2*%
X177800000Y-124460000D03*
X177800000Y-127000000D03*
%TO.N,MD*%
X180340000Y-124460000D03*
X180340000Y-127000000D03*
%TO.N,+5V*%
X182880000Y-124460000D03*
X182880000Y-127000000D03*
%TO.N,RESET*%
X185420000Y-124460000D03*
X185420000Y-127000000D03*
%TO.N,+3V3*%
X187960000Y-124460000D03*
X187960000Y-127000000D03*
%TO.N,+5V*%
X190500000Y-124460000D03*
X190500000Y-127000000D03*
%TO.N,GND*%
X193040000Y-124460000D03*
X193040000Y-127000000D03*
X195580000Y-124460000D03*
X195580000Y-127000000D03*
%TO.N,VUSB*%
X198120000Y-124460000D03*
X198120000Y-127000000D03*
%TO.N,unconnected-(J2-Pad10)*%
X200660000Y-124460000D03*
%TO.N,unconnected-(J2-Pad10)_1*%
X200660000Y-127000000D03*
%TO.N,P014_AN09_DAC*%
X203200000Y-124460000D03*
X203200000Y-127000000D03*
%TO.N,P000_AN00_AMP+*%
X205740000Y-124460000D03*
X205740000Y-127000000D03*
%TO.N,P001_AN01_AMP-*%
X208280000Y-124460000D03*
X208280000Y-127000000D03*
%TO.N,P002_AN02_AMPO*%
X210820000Y-124460000D03*
X210820000Y-127000000D03*
%TO.N,P101_AN21_SDA*%
X213360000Y-124460000D03*
X213360000Y-127000000D03*
%TO.N,P100_AN22_SCL*%
X215900000Y-124460000D03*
X215900000Y-127000000D03*
%TD*%
D17*
%TO.N,GND*%
%TO.C,J5*%
X213375000Y-113895000D03*
X213375000Y-105255000D03*
X218475000Y-113895000D03*
X218475000Y-105255000D03*
%TD*%
D13*
%TO.N,GND*%
%TO.C,H2*%
X218425000Y-119350000D03*
%TD*%
D18*
%TO.N,VBAT*%
%TO.C,U1*%
X211425000Y-88950000D03*
%TO.N,GND*%
X211425000Y-101650000D03*
%TD*%
D19*
%TO.N,VBAT*%
X203200000Y-81160000D03*
%TO.N,GND*%
X194540000Y-96460000D03*
%TO.N,P103_SPI0_SSL_GPT2_A_CAN0_TX*%
X192600000Y-90880000D03*
%TO.N,+5V*%
X190500000Y-88900000D03*
%TO.N,+3V3*%
X194600000Y-94000000D03*
%TO.N,GND*%
X169500000Y-121500000D03*
X163600000Y-124100000D03*
X202900000Y-83400000D03*
X159200000Y-122300000D03*
X178000000Y-87700000D03*
X196600000Y-100300000D03*
X199800000Y-99700000D03*
X160300000Y-113500000D03*
X202700000Y-119300000D03*
X190000000Y-78500000D03*
X167700000Y-75600000D03*
X161500000Y-115100000D03*
X183700000Y-120100000D03*
X200400000Y-110800000D03*
X163600000Y-122300000D03*
X202500000Y-108100000D03*
X158200000Y-116900000D03*
X178800000Y-89900000D03*
X158200000Y-126100000D03*
X175600000Y-88100000D03*
X194900000Y-82700000D03*
X179100000Y-91500000D03*
X166500000Y-114600000D03*
X158200000Y-119000000D03*
X188900000Y-86200000D03*
X207800000Y-119500000D03*
X164600000Y-113500000D03*
X209100000Y-83500000D03*
X163600000Y-126100000D03*
X158200000Y-122300000D03*
X165000000Y-116200000D03*
X218700000Y-83700000D03*
X177800000Y-85400000D03*
X161500000Y-113600000D03*
X163300000Y-117800000D03*
X161400000Y-120600000D03*
X182200000Y-81900000D03*
X159200000Y-119000000D03*
X201000000Y-115800000D03*
X163800000Y-114300000D03*
X210200000Y-92200000D03*
X165830000Y-118955000D03*
X162200000Y-115900000D03*
X165700000Y-115400000D03*
X161500000Y-116700000D03*
X161400000Y-119000000D03*
X166300000Y-112000000D03*
X209000000Y-88500000D03*
X158200000Y-113500000D03*
X188200000Y-98900000D03*
X192700000Y-80900000D03*
X165900000Y-117300000D03*
X180900000Y-98100000D03*
X161400000Y-126100000D03*
X163000000Y-115100000D03*
X179000000Y-87800000D03*
X167700000Y-120600000D03*
X201700000Y-92400000D03*
X167400000Y-113800000D03*
X159200000Y-113500000D03*
X214500000Y-120600000D03*
X163600000Y-120600000D03*
X180400000Y-80600000D03*
X161400000Y-122300000D03*
X174300000Y-122600000D03*
X162500000Y-118700000D03*
X167700000Y-119000000D03*
X206700000Y-97800000D03*
X211600000Y-80000000D03*
X217800000Y-88100000D03*
X158200000Y-124100000D03*
X207200000Y-90900000D03*
X160300000Y-119000000D03*
X164100000Y-117000000D03*
X202700000Y-113300000D03*
X161400000Y-124100000D03*
X160300000Y-116900000D03*
X209300000Y-96200000D03*
X206900000Y-94500000D03*
X203600000Y-116500000D03*
X165400000Y-112700000D03*
X190600000Y-111600000D03*
X167300000Y-111400000D03*
X162300000Y-74800000D03*
X159200000Y-116900000D03*
X214300000Y-103500000D03*
X160300000Y-122300000D03*
X165800000Y-120600000D03*
X167700000Y-117300000D03*
%TO.N,+5V*%
X187400000Y-101600000D03*
X197935600Y-105173300D03*
X197100000Y-94400000D03*
X190089700Y-81135100D03*
X198694900Y-86207000D03*
%TO.N,MD*%
X184754100Y-88668600D03*
X191076800Y-91514800D03*
%TO.N,P101_AN21_SDA*%
X205349200Y-97975000D03*
X184298100Y-90310200D03*
%TO.N,P111_GPT3_A*%
X192422900Y-88001000D03*
X174300000Y-94000000D03*
%TO.N,P304_GPT7_A*%
X197423900Y-83414300D03*
%TO.N,P409*%
X200020200Y-95397200D03*
%TO.N,P401*%
X194372000Y-101767600D03*
%TO.N,P001_AN01_AMP-*%
X193551200Y-99685700D03*
X192700000Y-97300000D03*
%TO.N,P214*%
X198738100Y-97828600D03*
%TO.N,P003*%
X191832700Y-95555300D03*
%TO.N,P206*%
X194500000Y-92900000D03*
%TO.N,P400*%
X194705700Y-100796000D03*
%TO.N,P107_GPT0_A*%
X194277700Y-88028100D03*
%TO.N,P000_AN00_AMP+*%
X193502700Y-98733300D03*
X199595150Y-122295150D03*
%TO.N,P408*%
X198000000Y-92880000D03*
%TO.N,P100_AN22_SCL*%
X191800000Y-93200000D03*
X208200000Y-96200000D03*
X175700000Y-82700000D03*
X186043100Y-88895900D03*
%TO.N,P110_SCI9_RXD*%
X190240000Y-85000000D03*
%TO.N,P106_GPT0_B*%
X189180000Y-89990000D03*
%TO.N,Net-(IC1-P200)*%
X188800000Y-84600000D03*
X198635900Y-84808400D03*
%TO.N,P410*%
X197700000Y-93691200D03*
%TO.N,P411*%
X199348700Y-96594300D03*
%TO.N,P004*%
X190700000Y-102900000D03*
%TO.N,P205*%
X196591400Y-89700400D03*
%TO.N,P109_SCI9_TXD*%
X192493600Y-84990700D03*
%TO.N,P014_AN09_DAC*%
X187400000Y-98400000D03*
X189402100Y-93687600D03*
X196300000Y-103100000D03*
X191900000Y-102500000D03*
X207200000Y-117900000D03*
%TO.N,P002_AN02_AMPO*%
X198282200Y-121642600D03*
X191442500Y-100855600D03*
%TO.N,P105_IRQ00_GPT1_A*%
X186893300Y-87743700D03*
%TO.N,P113*%
X204300000Y-103100000D03*
X191713600Y-89200000D03*
%TO.N,P215*%
X195860900Y-116887700D03*
X195271500Y-96015800D03*
%TO.N,P104_IRQ01_GPT1_B*%
X193800000Y-81831400D03*
X183825100Y-89441700D03*
%TO.N,P102_SPI0_RSPCK_GPT2_B_CAN0_RX*%
X199200000Y-79300000D03*
X189669100Y-91704200D03*
%TO.N,P015*%
X186400000Y-95500000D03*
%TO.N,P112_GPT3_B*%
X192917100Y-89208800D03*
%TO.N,USB_D_P*%
X199267100Y-92325400D03*
X201319300Y-103872600D03*
%TO.N,USB_D_N*%
X211900000Y-108400000D03*
X215240000Y-110000000D03*
X201016700Y-90809600D03*
%TO.N,VUSB*%
X215500000Y-107900000D03*
X215400000Y-111000000D03*
X214700000Y-85700000D03*
%TO.N,CC1*%
X211600000Y-110200000D03*
X214600000Y-115100000D03*
%TO.N,VBAT*%
X216000000Y-94400000D03*
%TO.N,VREFH0*%
X183765400Y-86798600D03*
X190965600Y-96000000D03*
%TO.N,P013*%
X187504900Y-92181000D03*
X183100000Y-95200000D03*
%TO.N,P501_SCI1_TXD*%
X190578700Y-92886800D03*
%TO.N,P502_SCI1_RXD*%
X188340100Y-93047700D03*
X204145600Y-99393600D03*
%TO.N,WISUN_RESETN*%
X195516300Y-89951100D03*
X187300000Y-121600000D03*
%TO.N,WISUN_RX*%
X191927800Y-106056900D03*
X204265800Y-100716000D03*
%TO.N,Net-(IC1-P500)*%
X183912300Y-92791500D03*
X175249600Y-89294800D03*
%TO.N,WISUN_TX*%
X206714200Y-101717100D03*
X206321000Y-114987400D03*
%TO.N,RESET*%
X178914800Y-93351600D03*
X199080050Y-87589950D03*
%TO.N,+3V3*%
X193800000Y-96900000D03*
X189385800Y-83066000D03*
%TO.N,P300_SWCLK*%
X200993500Y-91795200D03*
X193484100Y-88641800D03*
%TO.N,P108_SWDIO*%
X197335100Y-84883700D03*
X194347900Y-84628100D03*
X191920000Y-84150300D03*
%TO.N,WISUN_TX_Serial1*%
X195528400Y-88125300D03*
X206143800Y-91218500D03*
%TO.N,WISUN_RX_Serial1*%
X204345800Y-90660800D03*
X195354700Y-84073800D03*
%TO.N,WISUN_TX_Serial1_D0*%
X215404150Y-90004150D03*
%TO.N,WISUN_RX_Serial1_D1*%
X202552600Y-97978700D03*
%TO.N,Net-(IC3-OUT)*%
X209700000Y-82800000D03*
%TO.N,Net-(IC5-ILIM)*%
X215800000Y-87100000D03*
X207200000Y-83450000D03*
%TD*%
D20*
%TO.N,+5V*%
X192554800Y-78670000D02*
X190089700Y-81135100D01*
X195140000Y-78670000D02*
X192554800Y-78670000D01*
X195600000Y-76140000D02*
X195600000Y-78210000D01*
X195600000Y-78210000D02*
X195140000Y-78670000D01*
D21*
%TO.N,P109_SCI9_TXD*%
X192493600Y-84521400D02*
X192493600Y-84990700D01*
X192580000Y-82450000D02*
X192580000Y-84435000D01*
X192580000Y-84435000D02*
X192493600Y-84521400D01*
X191900000Y-81770000D02*
X192580000Y-82450000D01*
X185440000Y-76140000D02*
X185440000Y-78540000D01*
X185440000Y-78540000D02*
X188670000Y-81770000D01*
X188670000Y-81770000D02*
X191900000Y-81770000D01*
%TO.N,P110_SCI9_RXD*%
X182900000Y-77711700D02*
X182900000Y-76140000D01*
X182911700Y-77711700D02*
X182900000Y-77711700D01*
X190200000Y-85000000D02*
X182911700Y-77711700D01*
X190240000Y-85000000D02*
X190200000Y-85000000D01*
X190140000Y-84900000D02*
X190088300Y-84900000D01*
X190240000Y-85000000D02*
X190140000Y-84900000D01*
D20*
%TO.N,VBAT*%
X203200000Y-81200000D02*
X203240000Y-81160000D01*
X203200000Y-81160000D02*
X203200000Y-81200000D01*
X203240000Y-81160000D02*
X203200000Y-81160000D01*
X203260000Y-81140000D02*
X203240000Y-81160000D01*
X203590000Y-81140000D02*
X203260000Y-81140000D01*
X203750000Y-81300000D02*
X203590000Y-81140000D01*
X203775000Y-81300000D02*
X203750000Y-81300000D01*
%TO.N,+5V*%
X197560000Y-104797700D02*
X197935600Y-105173300D01*
X197560000Y-94860000D02*
X197560000Y-104797700D01*
X197241300Y-94541300D02*
X197560000Y-94860000D01*
D21*
%TO.N,RESET*%
X204935000Y-98413200D02*
X204935000Y-104905000D01*
X204745900Y-93119900D02*
X204745900Y-98224100D01*
X204745900Y-98224100D02*
X204935000Y-98413200D01*
X199215950Y-87589950D02*
X204745900Y-93119900D01*
X199080050Y-87589950D02*
X199215950Y-87589950D01*
%TO.N,WISUN_RX_Serial1_D1*%
X213380000Y-77920000D02*
X213380000Y-76140000D01*
X204170050Y-79200000D02*
X212100000Y-79200000D01*
X199296600Y-86456200D02*
X199296600Y-84073450D01*
X198460000Y-89690000D02*
X198460000Y-87292800D01*
X212100000Y-79200000D02*
X213380000Y-77920000D01*
X198977900Y-90207900D02*
X198460000Y-89690000D01*
X199296600Y-84073450D02*
X204170050Y-79200000D01*
X201265900Y-90207900D02*
X198977900Y-90207900D01*
X202552600Y-91494600D02*
X201265900Y-90207900D01*
X202552600Y-97978700D02*
X202552600Y-91494600D01*
X198460000Y-87292800D02*
X199296600Y-86456200D01*
%TO.N,P108_SWDIO*%
X197680000Y-86043300D02*
X197335100Y-85698400D01*
X197680000Y-89850000D02*
X197680000Y-86043300D01*
X198376700Y-90546700D02*
X197680000Y-89850000D01*
X198376700Y-92386100D02*
X198376700Y-90546700D01*
%TO.N,P103_SPI0_SSL_GPT2_A_CAN0_TX*%
X205600000Y-78300000D02*
X205760000Y-78140000D01*
X204000000Y-78300000D02*
X205600000Y-78300000D01*
X194903900Y-86464100D02*
X197268000Y-84100000D01*
X205760000Y-78140000D02*
X205760000Y-76140000D01*
X194903900Y-88576100D02*
X194903900Y-86464100D01*
X198200000Y-84100000D02*
X204000000Y-78300000D01*
X192600000Y-90880000D02*
X194903900Y-88576100D01*
X197268000Y-84100000D02*
X198200000Y-84100000D01*
%TO.N,P106_GPT0_B*%
X196822000Y-83165400D02*
X200680000Y-79307400D01*
X196822000Y-83457400D02*
X196822000Y-83165400D01*
X193391100Y-86888300D02*
X196822000Y-83457400D01*
X192668100Y-88607000D02*
X193391100Y-87884000D01*
X192668100Y-88607100D02*
X192668100Y-88607000D01*
X200680000Y-79307400D02*
X200680000Y-76140000D01*
X192668000Y-88607100D02*
X192668100Y-88607100D01*
X193391100Y-87884000D02*
X193391100Y-86888300D01*
X192315400Y-89522000D02*
X192315400Y-88959700D01*
X189190000Y-90000000D02*
X191837400Y-90000000D01*
X189180000Y-89990000D02*
X189190000Y-90000000D01*
X191837400Y-90000000D02*
X192315400Y-89522000D01*
X192315400Y-88959700D02*
X192668000Y-88607100D01*
%TO.N,Net-(IC5-ILIM)*%
X215400000Y-87500000D02*
X215800000Y-87100000D01*
X210800000Y-87500000D02*
X215400000Y-87500000D01*
X207200000Y-83450000D02*
X207200000Y-83900000D01*
X207200000Y-83900000D02*
X210800000Y-87500000D01*
D20*
%TO.N,+5V*%
X182880000Y-122620000D02*
X182880000Y-124460000D01*
X183100000Y-122400000D02*
X182880000Y-122620000D01*
X185300000Y-122400000D02*
X183100000Y-122400000D01*
X188800000Y-103100000D02*
X188800000Y-118900000D01*
X188800000Y-118900000D02*
X185300000Y-122400000D01*
D21*
%TO.N,MD*%
X180340000Y-122560000D02*
X180340000Y-124460000D01*
X184900000Y-121900000D02*
X181000000Y-121900000D01*
X188100000Y-118700000D02*
X184900000Y-121900000D01*
X181000000Y-121900000D02*
X180340000Y-122560000D01*
X187400000Y-102800000D02*
X188100000Y-103500000D01*
X185600000Y-102800000D02*
X187400000Y-102800000D01*
X188100000Y-103500000D02*
X188100000Y-118700000D01*
X184700000Y-101900000D02*
X185600000Y-102800000D01*
X184700000Y-98400000D02*
X184700000Y-101900000D01*
X182400000Y-96100000D02*
X184700000Y-98400000D01*
X184899800Y-90710300D02*
X182400000Y-93210100D01*
X184899800Y-88814300D02*
X184899800Y-90710300D01*
X184754100Y-88668600D02*
X184899800Y-88814300D01*
X182400000Y-93210100D02*
X182400000Y-96100000D01*
%TO.N,WISUN_RESETN*%
X193400000Y-95400000D02*
X193400000Y-92067400D01*
X188100000Y-100700000D02*
X193400000Y-95400000D01*
X188100000Y-101500000D02*
X188100000Y-100700000D01*
X193400000Y-92067400D02*
X195516300Y-89951100D01*
X189300000Y-102700000D02*
X188100000Y-101500000D01*
X189300000Y-119600000D02*
X189300000Y-102700000D01*
X187300000Y-121600000D02*
X189300000Y-119600000D01*
%TO.N,P408*%
X198537300Y-106222700D02*
X196800000Y-107960000D01*
X198537300Y-104924100D02*
X198537300Y-106222700D01*
X198136400Y-97579500D02*
X198136400Y-104523200D01*
X198000000Y-92880000D02*
X198353300Y-93233300D01*
X198136400Y-104523200D02*
X198537300Y-104924100D01*
X198353300Y-93233300D02*
X198353300Y-97362600D01*
X198353300Y-97362600D02*
X198136400Y-97579500D01*
%TO.N,WISUN_TX_Serial1_D0*%
X215920000Y-77711700D02*
X215920000Y-76140000D01*
X216613300Y-78405000D02*
X215920000Y-77711700D01*
X215404150Y-90004150D02*
X216613300Y-88795000D01*
X216613300Y-88795000D02*
X216613300Y-78405000D01*
D20*
%TO.N,+5V*%
X187300000Y-101600000D02*
X188800000Y-103100000D01*
D21*
X187400000Y-101700000D02*
X187400000Y-101700000D01*
X187400000Y-101600000D02*
X187300000Y-101600000D01*
X187400000Y-101700000D02*
X187400000Y-101600000D01*
X197100000Y-94400000D02*
X197241300Y-94541300D01*
%TO.N,P101_AN21_SDA*%
X184298100Y-90310200D02*
X184426800Y-90181500D01*
X172740000Y-77740000D02*
X173600000Y-78600000D01*
X207317500Y-116336400D02*
X207317500Y-99943300D01*
X213360000Y-122378900D02*
X207317500Y-116336400D01*
X183610200Y-90310200D02*
X184298100Y-90310200D01*
X172740000Y-76140000D02*
X172740000Y-77740000D01*
X183000000Y-87800000D02*
X183000000Y-89700000D01*
X213360000Y-124460000D02*
X213360000Y-122378900D01*
X175600000Y-80400000D02*
X183000000Y-87800000D01*
X207317500Y-99943300D02*
X205349200Y-97975000D01*
X175600000Y-79600000D02*
X175600000Y-80400000D01*
X174600000Y-78600000D02*
X175600000Y-79600000D01*
X183000000Y-89700000D02*
X183610200Y-90310200D01*
X173600000Y-78600000D02*
X174600000Y-78600000D01*
%TO.N,P409*%
X199028300Y-107001700D02*
X199028300Y-98389300D01*
X199028300Y-98389300D02*
X200020200Y-97397400D01*
X200020200Y-97397400D02*
X200020200Y-95397200D01*
X196800000Y-109230000D02*
X199028300Y-107001700D01*
%TO.N,P401*%
X194291400Y-114341400D02*
X194291400Y-101848200D01*
X195530000Y-115580000D02*
X194291400Y-114341400D01*
X194291400Y-101848200D02*
X194372000Y-101767600D01*
%TO.N,P001_AN01_AMP-*%
X193343400Y-99893500D02*
X193551200Y-99685700D01*
X193343400Y-115221800D02*
X193343400Y-99893500D01*
X208280000Y-124460000D02*
X208280000Y-121680000D01*
X207500000Y-120900000D02*
X199021600Y-120900000D01*
X208280000Y-121680000D02*
X207500000Y-120900000D01*
X199021600Y-120900000D02*
X193343400Y-115221800D01*
%TO.N,P400*%
X194693100Y-102299000D02*
X194973700Y-102018400D01*
X194973700Y-101064000D02*
X194705700Y-100796000D01*
X194973700Y-102018400D02*
X194973700Y-101064000D01*
X194693100Y-113473100D02*
X194693100Y-102299000D01*
X195530000Y-114310000D02*
X194693100Y-113473100D01*
%TO.N,P000_AN00_AMP+*%
X192941700Y-115451200D02*
X192941700Y-99294300D01*
X192941700Y-99294300D02*
X193502700Y-98733300D01*
X199595150Y-122295150D02*
X199595150Y-122104650D01*
X199595150Y-122104650D02*
X192941700Y-115451200D01*
%TO.N,P100_AN22_SCL*%
X191800000Y-93200000D02*
X191900000Y-93200000D01*
X215900000Y-123100000D02*
X215900000Y-124460000D01*
X191900000Y-93200000D02*
X191800000Y-93100000D01*
X186043100Y-88895900D02*
X186043100Y-89043100D01*
X189400000Y-92400000D02*
X190200000Y-92400000D01*
X190500000Y-92100000D02*
X190800000Y-92100000D01*
X190800000Y-92100000D02*
X191000000Y-92300000D01*
X208200000Y-96200000D02*
X208600000Y-96600000D01*
X215400000Y-122600000D02*
X215900000Y-123100000D01*
X191800000Y-93100000D02*
X191800000Y-93200000D01*
X208600000Y-116200000D02*
X215000000Y-122600000D01*
X208600000Y-96600000D02*
X208600000Y-116200000D01*
X190300000Y-92300000D02*
X190500000Y-92100000D01*
X191000000Y-92300000D02*
X191800000Y-93100000D01*
X186043100Y-89043100D02*
X189400000Y-92400000D01*
X215000000Y-122600000D02*
X215400000Y-122600000D01*
X190200000Y-92400000D02*
X190300000Y-92300000D01*
%TO.N,P205*%
X195770700Y-95470700D02*
X196000000Y-95700000D01*
X195671500Y-96628500D02*
X195671500Y-99628500D01*
X196591300Y-89818900D02*
X195770700Y-90639500D01*
X196000000Y-96300000D02*
X195671500Y-96628500D01*
X195400000Y-106560000D02*
X195530000Y-106690000D01*
X195770700Y-90639500D02*
X195770700Y-95470700D01*
X195530000Y-106690000D02*
X195899400Y-106320600D01*
X196591400Y-89700400D02*
X196591300Y-89700400D01*
X196591300Y-89700400D02*
X196591300Y-89818900D01*
X195400000Y-99900000D02*
X195400000Y-106560000D01*
X196000000Y-95700000D02*
X196000000Y-96300000D01*
X195671500Y-99628500D02*
X195400000Y-99900000D01*
%TO.N,P014_AN09_DAC*%
X187400000Y-95689700D02*
X189402100Y-93687600D01*
X187400000Y-98400000D02*
X187400000Y-95689700D01*
%TO.N,P002_AN02_AMPO*%
X198282200Y-121642600D02*
X192540000Y-115900400D01*
X192540000Y-115900400D02*
X192540000Y-101953100D01*
X192540000Y-101953100D02*
X191442500Y-100855600D01*
%TO.N,P215*%
X195271500Y-98985500D02*
X195271500Y-96015800D01*
X195633900Y-116887700D02*
X193763500Y-115017300D01*
X195860900Y-116887700D02*
X195633900Y-116887700D01*
X193763500Y-115017300D02*
X193763500Y-100493500D01*
X193763500Y-100493500D02*
X195271500Y-98985500D01*
%TO.N,P102_SPI0_RSPCK_GPT2_B_CAN0_RX*%
X193746200Y-84293600D02*
X193746200Y-84590000D01*
X188563300Y-90598400D02*
X189669100Y-91704200D01*
X188563300Y-89634700D02*
X188563300Y-90598400D01*
X199200000Y-79600000D02*
X195400000Y-83400000D01*
X199200000Y-79300000D02*
X199200000Y-79600000D01*
X194639800Y-83400000D02*
X193746200Y-84293600D01*
X191240800Y-87095400D02*
X191102600Y-87095400D01*
X193746200Y-84590000D02*
X191240800Y-87095400D01*
X195400000Y-83400000D02*
X194639800Y-83400000D01*
X191102600Y-87095400D02*
X188563300Y-89634700D01*
%TO.N,USB_D_P*%
X201319300Y-94377600D02*
X201319300Y-103872600D01*
X199267100Y-92325400D02*
X201319300Y-94377600D01*
D20*
%TO.N,VBAT*%
X215000000Y-93500000D02*
X215000000Y-91900000D01*
X211425000Y-89725000D02*
X211425000Y-88950000D01*
X216000000Y-94400000D02*
X215100000Y-93600000D01*
X212000000Y-90300000D02*
X211425000Y-89725000D01*
X214000000Y-90800000D02*
X213600000Y-90300000D01*
X211425000Y-88950000D02*
X203775000Y-81300000D01*
D21*
X215100000Y-93600000D02*
X215000000Y-93500000D01*
D20*
X215000000Y-91900000D02*
X214000000Y-90800000D01*
X213600000Y-90300000D02*
X212000000Y-90300000D01*
D21*
%TO.N,VREFH0*%
X189651300Y-93085900D02*
X189260700Y-93085900D01*
X190965600Y-96000000D02*
X190965600Y-94790700D01*
X185355800Y-88389000D02*
X183765400Y-86798600D01*
X190176400Y-93611000D02*
X189651300Y-93085900D01*
X185355800Y-89181000D02*
X185355800Y-88389000D01*
X190965600Y-94790700D02*
X191294400Y-94461900D01*
X191294400Y-94461900D02*
X191294400Y-93963500D01*
X190941900Y-93611000D02*
X190176400Y-93611000D01*
X191294400Y-93963500D02*
X190941900Y-93611000D01*
X189260700Y-93085900D02*
X185355800Y-89181000D01*
%TO.N,P013*%
X183100000Y-95200000D02*
X183100000Y-94517200D01*
X183100000Y-94517200D02*
X185436100Y-92181100D01*
X187504900Y-92181100D02*
X187504900Y-92181000D01*
X185436100Y-92181100D02*
X187504900Y-92181100D01*
%TO.N,P501_SCI1_TXD*%
X203665000Y-104865000D02*
X203500000Y-104700000D01*
%TO.N,P502_SCI1_RXD*%
X203665000Y-106175000D02*
X203665000Y-106235000D01*
X203665000Y-106235000D02*
X203600000Y-106300000D01*
%TO.N,WISUN_TX*%
X206321000Y-114987400D02*
X206714200Y-114594200D01*
X206714200Y-114594200D02*
X206714200Y-101717100D01*
D20*
%TO.N,+3V3*%
X193800000Y-97388400D02*
X189900000Y-101288400D01*
D21*
X188000000Y-124420000D02*
X187960000Y-124460000D01*
D20*
X193800000Y-96900000D02*
X193800000Y-97388400D01*
X189900000Y-101288400D02*
X189900000Y-121100000D01*
X188000000Y-123000000D02*
X188000000Y-124420000D01*
X189900000Y-121100000D02*
X188000000Y-123000000D01*
D21*
%TO.N,P300_SWCLK*%
X201978100Y-104066100D02*
X201139200Y-104905000D01*
X200993500Y-93393500D02*
X201920000Y-94320000D01*
X200993500Y-91795200D02*
X200993500Y-93393500D01*
X201978100Y-102369700D02*
X201978100Y-104066100D01*
X201920000Y-102311600D02*
X201978100Y-102369700D01*
X201139200Y-104905000D02*
X201125000Y-104905000D01*
X201920000Y-94320000D02*
X201920000Y-102311600D01*
%TO.N,P108_SWDIO*%
X197335100Y-85698400D02*
X197335100Y-84883700D01*
X200644800Y-104115200D02*
X200644800Y-94654200D01*
X200644800Y-94654200D02*
X198376700Y-92386100D01*
X199855000Y-104905000D02*
X200644800Y-104115200D01*
%TD*%
%TA.AperFunction,Conductor*%
%TO.N,GND*%
G36*
X202649880Y-81247653D02*
G01*
X202705813Y-81289525D01*
X202719340Y-81312323D01*
X202742551Y-81363146D01*
X202774623Y-81433373D01*
X202868872Y-81542143D01*
X202989947Y-81619953D01*
X202989950Y-81619954D01*
X202989949Y-81619954D01*
X203128036Y-81660499D01*
X203128038Y-81660500D01*
X203128039Y-81660500D01*
X203271962Y-81660500D01*
X203271962Y-81660499D01*
X203324797Y-81644985D01*
X203418563Y-81617455D01*
X203419466Y-81620532D01*
X203473013Y-81612814D01*
X203517406Y-81628170D01*
X203549102Y-81646469D01*
X203574781Y-81666174D01*
X207040153Y-85131546D01*
X210466502Y-88557894D01*
X210499987Y-88619217D01*
X210497482Y-88681569D01*
X210473469Y-88760729D01*
X210454828Y-88950000D01*
X210473469Y-89139269D01*
X210485903Y-89180258D01*
X210528678Y-89321269D01*
X210618331Y-89488999D01*
X210618332Y-89489000D01*
X210738984Y-89636015D01*
X210885999Y-89756668D01*
X210886002Y-89756670D01*
X210931169Y-89780811D01*
X210994415Y-89814617D01*
X211044259Y-89863578D01*
X211050524Y-89876525D01*
X211051791Y-89879585D01*
X211061342Y-89896127D01*
X211104520Y-89970913D01*
X211754087Y-90620480D01*
X211807401Y-90651261D01*
X211841885Y-90671171D01*
X211845412Y-90673207D01*
X211947273Y-90700500D01*
X213347912Y-90700500D01*
X213414951Y-90720185D01*
X213444740Y-90747038D01*
X213654597Y-91009360D01*
X213667978Y-91029989D01*
X213668182Y-91030384D01*
X213668189Y-91030395D01*
X213692523Y-91057163D01*
X213697598Y-91063111D01*
X213720199Y-91091362D01*
X213720549Y-91091620D01*
X213738826Y-91108095D01*
X214114946Y-91521826D01*
X214523575Y-91971318D01*
X214567252Y-92019362D01*
X214597783Y-92082209D01*
X214599500Y-92102774D01*
X214599500Y-93552727D01*
X214626793Y-93654587D01*
X214679520Y-93745913D01*
X214754087Y-93820480D01*
X214754089Y-93820481D01*
X214760538Y-93825430D01*
X214758936Y-93827517D01*
X214788884Y-93855761D01*
X214794508Y-93864301D01*
X214794512Y-93864305D01*
X214794514Y-93864308D01*
X215397168Y-94400000D01*
X215474691Y-94468909D01*
X215511719Y-94528160D01*
X215514480Y-94541247D01*
X215514835Y-94542458D01*
X215547799Y-94614638D01*
X215574623Y-94673373D01*
X215668872Y-94782143D01*
X215789947Y-94859953D01*
X215789950Y-94859954D01*
X215789949Y-94859954D01*
X215928036Y-94900499D01*
X215928038Y-94900500D01*
X215928039Y-94900500D01*
X216071962Y-94900500D01*
X216071962Y-94900499D01*
X216210053Y-94859953D01*
X216331128Y-94782143D01*
X216425377Y-94673373D01*
X216485165Y-94542457D01*
X216505647Y-94400000D01*
X216485165Y-94257543D01*
X216425377Y-94126627D01*
X216331128Y-94017857D01*
X216210053Y-93940047D01*
X216210051Y-93940046D01*
X216210049Y-93940045D01*
X216210050Y-93940045D01*
X216071959Y-93899498D01*
X216070437Y-93899280D01*
X216069038Y-93898641D01*
X216063452Y-93897001D01*
X216063687Y-93896197D01*
X216006882Y-93870253D01*
X216005707Y-93869222D01*
X216000175Y-93864305D01*
X215842955Y-93724553D01*
X215442119Y-93368254D01*
X215405091Y-93309003D01*
X215400500Y-93275575D01*
X215400500Y-92517728D01*
X215420185Y-92450689D01*
X215472989Y-92404934D01*
X215542147Y-92394990D01*
X215605703Y-92424015D01*
X215638359Y-92468614D01*
X215764555Y-92761170D01*
X215764561Y-92761183D01*
X215939289Y-93063822D01*
X216147967Y-93344125D01*
X216156148Y-93352796D01*
X217155747Y-92353197D01*
X217229588Y-92454830D01*
X217407670Y-92632912D01*
X217509300Y-92706750D01*
X216512818Y-93703233D01*
X216512819Y-93703234D01*
X216655484Y-93822945D01*
X216947461Y-94014980D01*
X217259739Y-94171814D01*
X217259745Y-94171816D01*
X217588130Y-94291338D01*
X217588133Y-94291339D01*
X217928171Y-94371929D01*
X218275276Y-94412499D01*
X218275277Y-94412500D01*
X218624723Y-94412500D01*
X218624723Y-94412499D01*
X218971827Y-94371929D01*
X218971829Y-94371929D01*
X219311866Y-94291339D01*
X219311869Y-94291338D01*
X219640254Y-94171816D01*
X219640260Y-94171814D01*
X219952538Y-94014980D01*
X220244520Y-93822941D01*
X220275793Y-93796700D01*
X220339800Y-93768686D01*
X220408793Y-93779724D01*
X220460865Y-93826310D01*
X220479500Y-93891688D01*
X220479500Y-95195500D01*
X220459815Y-95262539D01*
X220407011Y-95308294D01*
X220355500Y-95319500D01*
X217160247Y-95319500D01*
X217101770Y-95331131D01*
X217101769Y-95331132D01*
X217035447Y-95375447D01*
X216991132Y-95441769D01*
X216991131Y-95441770D01*
X216979500Y-95500247D01*
X216979500Y-97523444D01*
X216959815Y-97590483D01*
X216929811Y-97622710D01*
X216822812Y-97702809D01*
X216822809Y-97702812D01*
X216736649Y-97817906D01*
X216736645Y-97817913D01*
X216686403Y-97952620D01*
X216686401Y-97952627D01*
X216680000Y-98012155D01*
X216680000Y-98810000D01*
X218016988Y-98810000D01*
X217984075Y-98867007D01*
X217950000Y-98994174D01*
X217950000Y-99125826D01*
X217984075Y-99252993D01*
X218016988Y-99310000D01*
X216680000Y-99310000D01*
X216680000Y-100107844D01*
X216686401Y-100167372D01*
X216686403Y-100167379D01*
X216736645Y-100302086D01*
X216736649Y-100302093D01*
X216822809Y-100417187D01*
X216822812Y-100417190D01*
X216929811Y-100497290D01*
X216971682Y-100553223D01*
X216979500Y-100596556D01*
X216979500Y-102619752D01*
X216991131Y-102678229D01*
X216991132Y-102678230D01*
X217035447Y-102744552D01*
X217101769Y-102788867D01*
X217101770Y-102788868D01*
X217160247Y-102800499D01*
X217160250Y-102800500D01*
X217160252Y-102800500D01*
X219700252Y-102800500D01*
X220355500Y-102800500D01*
X220422539Y-102820185D01*
X220468294Y-102872989D01*
X220479500Y-102924500D01*
X220479500Y-116891788D01*
X220459815Y-116958827D01*
X220407011Y-117004582D01*
X220337853Y-117014526D01*
X220275795Y-116986778D01*
X220219518Y-116939557D01*
X219927538Y-116747519D01*
X219615260Y-116590685D01*
X219615254Y-116590683D01*
X219286869Y-116471161D01*
X219286866Y-116471160D01*
X218946828Y-116390570D01*
X218599723Y-116350000D01*
X218250277Y-116350000D01*
X217903172Y-116390570D01*
X217903170Y-116390570D01*
X217563133Y-116471160D01*
X217563130Y-116471161D01*
X217234745Y-116590683D01*
X217234739Y-116590685D01*
X216922461Y-116747519D01*
X216630480Y-116939557D01*
X216487819Y-117059264D01*
X216487818Y-117059265D01*
X217484301Y-118055748D01*
X217382670Y-118129588D01*
X217204588Y-118307670D01*
X217130748Y-118409301D01*
X216131148Y-117409701D01*
X216131147Y-117409702D01*
X216122976Y-117418363D01*
X216122972Y-117418368D01*
X215914289Y-117698677D01*
X215739561Y-118001316D01*
X215739555Y-118001329D01*
X215601145Y-118322199D01*
X215500916Y-118656988D01*
X215500914Y-118656997D01*
X215440236Y-119001119D01*
X215440235Y-119001130D01*
X215419916Y-119349996D01*
X215419916Y-119350003D01*
X215440235Y-119698869D01*
X215440236Y-119698880D01*
X215500914Y-120043002D01*
X215500916Y-120043011D01*
X215601145Y-120377800D01*
X215739555Y-120698670D01*
X215739561Y-120698683D01*
X215914289Y-121001322D01*
X216122967Y-121281625D01*
X216131148Y-121290296D01*
X217130747Y-120290697D01*
X217204588Y-120392330D01*
X217382670Y-120570412D01*
X217484300Y-120644250D01*
X216487818Y-121640733D01*
X216487819Y-121640734D01*
X216630484Y-121760445D01*
X216922461Y-121952480D01*
X217234739Y-122109314D01*
X217234745Y-122109316D01*
X217563130Y-122228838D01*
X217563133Y-122228839D01*
X217903171Y-122309429D01*
X218250276Y-122349999D01*
X218250277Y-122350000D01*
X218599723Y-122350000D01*
X218599723Y-122349999D01*
X218946827Y-122309429D01*
X218946829Y-122309429D01*
X219286866Y-122228839D01*
X219286869Y-122228838D01*
X219615254Y-122109316D01*
X219615260Y-122109314D01*
X219927538Y-121952480D01*
X220219515Y-121760445D01*
X220275794Y-121713222D01*
X220339802Y-121685209D01*
X220408794Y-121696248D01*
X220460866Y-121742834D01*
X220479500Y-121808211D01*
X220479500Y-124455933D01*
X220479235Y-124464043D01*
X220462583Y-124718104D01*
X220460465Y-124734186D01*
X220411591Y-124979888D01*
X220407393Y-124995554D01*
X220326864Y-125232786D01*
X220320657Y-125247772D01*
X220209853Y-125472460D01*
X220201743Y-125486507D01*
X220062559Y-125694811D01*
X220052685Y-125707679D01*
X219887502Y-125896033D01*
X219876033Y-125907502D01*
X219687679Y-126072685D01*
X219674811Y-126082559D01*
X219466507Y-126221743D01*
X219452460Y-126229853D01*
X219227772Y-126340657D01*
X219212786Y-126346864D01*
X218975554Y-126427393D01*
X218959888Y-126431591D01*
X218753168Y-126472711D01*
X218714185Y-126480465D01*
X218698104Y-126482583D01*
X218444063Y-126499232D01*
X218435920Y-126499497D01*
X217224466Y-126499161D01*
X217157432Y-126479458D01*
X217111691Y-126426641D01*
X217100500Y-126375161D01*
X217100500Y-123170249D01*
X217100499Y-123170247D01*
X217088868Y-123111770D01*
X217088867Y-123111769D01*
X217044552Y-123045447D01*
X216978230Y-123001132D01*
X216978229Y-123001131D01*
X216919752Y-122989500D01*
X216919748Y-122989500D01*
X216254782Y-122989500D01*
X216187743Y-122969815D01*
X216147396Y-122927502D01*
X216145623Y-122924432D01*
X216140460Y-122915489D01*
X215584511Y-122359540D01*
X215559517Y-122345110D01*
X215559517Y-122345108D01*
X215559514Y-122345108D01*
X215515994Y-122319981D01*
X215515991Y-122319979D01*
X215476617Y-122309429D01*
X215439562Y-122299500D01*
X215439560Y-122299500D01*
X215175833Y-122299500D01*
X215108794Y-122279815D01*
X215088152Y-122263181D01*
X208936819Y-116111848D01*
X208903334Y-116050525D01*
X208900500Y-116024167D01*
X208900500Y-113644999D01*
X211800884Y-113644999D01*
X211800885Y-113645000D01*
X212708012Y-113645000D01*
X212690795Y-113654940D01*
X212634940Y-113710795D01*
X212595444Y-113779204D01*
X212575000Y-113855504D01*
X212575000Y-113934496D01*
X212595444Y-114010796D01*
X212634940Y-114079205D01*
X212690795Y-114135060D01*
X212708012Y-114145000D01*
X211800885Y-114145000D01*
X211802085Y-114152584D01*
X211855591Y-114317255D01*
X211934195Y-114471524D01*
X212035967Y-114611602D01*
X212158397Y-114734032D01*
X212298475Y-114835804D01*
X212452742Y-114914408D01*
X212617415Y-114967914D01*
X212788429Y-114995000D01*
X213125000Y-114995000D01*
X213125000Y-114195000D01*
X213625000Y-114195000D01*
X213625000Y-114995000D01*
X213961565Y-114995000D01*
X213962009Y-114994965D01*
X213962176Y-114995000D01*
X213966444Y-114995000D01*
X213966444Y-114995896D01*
X214030387Y-115009323D01*
X214080149Y-115058370D01*
X214094487Y-115100935D01*
X214114834Y-115242456D01*
X214152723Y-115325419D01*
X214174623Y-115373373D01*
X214268872Y-115482143D01*
X214389947Y-115559953D01*
X214389950Y-115559954D01*
X214389949Y-115559954D01*
X214528036Y-115600499D01*
X214528038Y-115600500D01*
X214528039Y-115600500D01*
X214671962Y-115600500D01*
X214671962Y-115600499D01*
X214810053Y-115559953D01*
X214931128Y-115482143D01*
X215025377Y-115373373D01*
X215085165Y-115242457D01*
X215105647Y-115100000D01*
X215085165Y-114957543D01*
X215025377Y-114826627D01*
X214931128Y-114717857D01*
X214840956Y-114659907D01*
X214795203Y-114607105D01*
X214785259Y-114537947D01*
X214807681Y-114482704D01*
X214815804Y-114471523D01*
X214894408Y-114317255D01*
X214947914Y-114152584D01*
X214949115Y-114145000D01*
X214041988Y-114145000D01*
X214059205Y-114135060D01*
X214115060Y-114079205D01*
X214154556Y-114010796D01*
X214175000Y-113934496D01*
X214175000Y-113855504D01*
X214154556Y-113779204D01*
X214115060Y-113710795D01*
X214059205Y-113654940D01*
X214041988Y-113645000D01*
X214949115Y-113645000D01*
X214949115Y-113644999D01*
X216900884Y-113644999D01*
X216900885Y-113645000D01*
X217808012Y-113645000D01*
X217790795Y-113654940D01*
X217734940Y-113710795D01*
X217695444Y-113779204D01*
X217675000Y-113855504D01*
X217675000Y-113934496D01*
X217695444Y-114010796D01*
X217734940Y-114079205D01*
X217790795Y-114135060D01*
X217808012Y-114145000D01*
X216900885Y-114145000D01*
X216902085Y-114152584D01*
X216955591Y-114317255D01*
X217034195Y-114471524D01*
X217135967Y-114611602D01*
X217258397Y-114734032D01*
X217398475Y-114835804D01*
X217552742Y-114914408D01*
X217717415Y-114967914D01*
X217888429Y-114995000D01*
X218225000Y-114995000D01*
X218225000Y-114195000D01*
X218725000Y-114195000D01*
X218725000Y-114995000D01*
X219061571Y-114995000D01*
X219232584Y-114967914D01*
X219397257Y-114914408D01*
X219551524Y-114835804D01*
X219691602Y-114734032D01*
X219814032Y-114611602D01*
X219915804Y-114471524D01*
X219994408Y-114317255D01*
X220047914Y-114152584D01*
X220049115Y-114145000D01*
X219141988Y-114145000D01*
X219159205Y-114135060D01*
X219215060Y-114079205D01*
X219254556Y-114010796D01*
X219275000Y-113934496D01*
X219275000Y-113855504D01*
X219254556Y-113779204D01*
X219215060Y-113710795D01*
X219159205Y-113654940D01*
X219141988Y-113645000D01*
X220049115Y-113645000D01*
X220049115Y-113644999D01*
X220047914Y-113637415D01*
X219994408Y-113472744D01*
X219915804Y-113318475D01*
X219814032Y-113178397D01*
X219691602Y-113055967D01*
X219551524Y-112954195D01*
X219397257Y-112875591D01*
X219232584Y-112822085D01*
X219061571Y-112795000D01*
X218725000Y-112795000D01*
X218725000Y-113595000D01*
X218225000Y-113595000D01*
X218225000Y-112795000D01*
X217888429Y-112795000D01*
X217717415Y-112822085D01*
X217552742Y-112875591D01*
X217398475Y-112954195D01*
X217258397Y-113055967D01*
X217135967Y-113178397D01*
X217034195Y-113318475D01*
X216955591Y-113472744D01*
X216902085Y-113637415D01*
X216900884Y-113644999D01*
X214949115Y-113644999D01*
X214947914Y-113637415D01*
X214894408Y-113472744D01*
X214815804Y-113318475D01*
X214714032Y-113178397D01*
X214591602Y-113055967D01*
X214451524Y-112954195D01*
X214297257Y-112875591D01*
X214132584Y-112822085D01*
X213961571Y-112795000D01*
X213625000Y-112795000D01*
X213625000Y-113595000D01*
X213125000Y-113595000D01*
X213125000Y-112795000D01*
X212788429Y-112795000D01*
X212617415Y-112822085D01*
X212452742Y-112875591D01*
X212298475Y-112954195D01*
X212158397Y-113055967D01*
X212035967Y-113178397D01*
X211934195Y-113318475D01*
X211855591Y-113472744D01*
X211802085Y-113637415D01*
X211800884Y-113644999D01*
X208900500Y-113644999D01*
X208900500Y-110200000D01*
X211094353Y-110200000D01*
X211114834Y-110342456D01*
X211168494Y-110459953D01*
X211174623Y-110473373D01*
X211268872Y-110582143D01*
X211389947Y-110659953D01*
X211389950Y-110659954D01*
X211389949Y-110659954D01*
X211528036Y-110700499D01*
X211528038Y-110700500D01*
X211528039Y-110700500D01*
X211671962Y-110700500D01*
X211671962Y-110700499D01*
X211779121Y-110669035D01*
X211810050Y-110659954D01*
X211810050Y-110659953D01*
X211810053Y-110659953D01*
X211931128Y-110582143D01*
X212025377Y-110473373D01*
X212085165Y-110342457D01*
X212105647Y-110200000D01*
X212085165Y-110057543D01*
X212058886Y-110000000D01*
X214734353Y-110000000D01*
X214754834Y-110142456D01*
X214773453Y-110183225D01*
X214814623Y-110273373D01*
X214908872Y-110382143D01*
X215022446Y-110455132D01*
X215068201Y-110507936D01*
X215078145Y-110577095D01*
X215049121Y-110640650D01*
X214974623Y-110726627D01*
X214974622Y-110726628D01*
X214914834Y-110857543D01*
X214894353Y-111000000D01*
X214914834Y-111142456D01*
X214940745Y-111199192D01*
X214974623Y-111273373D01*
X215068872Y-111382143D01*
X215189947Y-111459953D01*
X215189950Y-111459954D01*
X215189949Y-111459954D01*
X215328036Y-111500499D01*
X215328038Y-111500500D01*
X215328039Y-111500500D01*
X215471962Y-111500500D01*
X215471962Y-111500499D01*
X215610053Y-111459953D01*
X215731128Y-111382143D01*
X215825377Y-111273373D01*
X215885165Y-111142457D01*
X215905647Y-111000000D01*
X215885165Y-110857543D01*
X215825377Y-110726627D01*
X215731128Y-110617857D01*
X215731125Y-110617855D01*
X215731123Y-110617853D01*
X215617553Y-110544866D01*
X215571798Y-110492063D01*
X215561854Y-110422904D01*
X215590878Y-110359350D01*
X215665377Y-110273373D01*
X215725165Y-110142457D01*
X215745647Y-110000000D01*
X215725165Y-109857543D01*
X215665377Y-109726627D01*
X215571128Y-109617857D01*
X215450053Y-109540047D01*
X215450051Y-109540046D01*
X215450049Y-109540045D01*
X215450050Y-109540045D01*
X215311963Y-109499500D01*
X215311961Y-109499500D01*
X215168039Y-109499500D01*
X215168036Y-109499500D01*
X215029949Y-109540045D01*
X214908873Y-109617856D01*
X214814623Y-109726626D01*
X214814622Y-109726628D01*
X214754834Y-109857543D01*
X214734353Y-110000000D01*
X212058886Y-110000000D01*
X212025377Y-109926627D01*
X211931128Y-109817857D01*
X211810053Y-109740047D01*
X211810051Y-109740046D01*
X211810049Y-109740045D01*
X211810050Y-109740045D01*
X211671963Y-109699500D01*
X211671961Y-109699500D01*
X211528039Y-109699500D01*
X211528036Y-109699500D01*
X211389949Y-109740045D01*
X211268873Y-109817856D01*
X211174623Y-109926626D01*
X211174622Y-109926628D01*
X211114834Y-110057543D01*
X211094353Y-110200000D01*
X208900500Y-110200000D01*
X208900500Y-108400000D01*
X211394353Y-108400000D01*
X211414834Y-108542456D01*
X211468147Y-108659192D01*
X211474623Y-108673373D01*
X211568872Y-108782143D01*
X211689947Y-108859953D01*
X211689950Y-108859954D01*
X211689949Y-108859954D01*
X211828036Y-108900499D01*
X211828038Y-108900500D01*
X211828039Y-108900500D01*
X211971962Y-108900500D01*
X211971962Y-108900499D01*
X212110053Y-108859953D01*
X212231128Y-108782143D01*
X212325377Y-108673373D01*
X212385165Y-108542457D01*
X212405647Y-108400000D01*
X212385165Y-108257543D01*
X212325377Y-108126627D01*
X212231128Y-108017857D01*
X212110053Y-107940047D01*
X212110051Y-107940046D01*
X212110049Y-107940045D01*
X212110050Y-107940045D01*
X211973666Y-107900000D01*
X214994353Y-107900000D01*
X215014834Y-108042456D01*
X215053275Y-108126628D01*
X215074623Y-108173373D01*
X215168872Y-108282143D01*
X215289947Y-108359953D01*
X215289950Y-108359954D01*
X215289949Y-108359954D01*
X215397107Y-108391417D01*
X215426336Y-108400000D01*
X215428036Y-108400499D01*
X215428038Y-108400500D01*
X215428039Y-108400500D01*
X215571962Y-108400500D01*
X215571962Y-108400499D01*
X215710053Y-108359953D01*
X215831128Y-108282143D01*
X215925377Y-108173373D01*
X215985165Y-108042457D01*
X216005647Y-107900000D01*
X215985165Y-107757543D01*
X215925377Y-107626627D01*
X215831128Y-107517857D01*
X215710053Y-107440047D01*
X215710051Y-107440046D01*
X215710049Y-107440045D01*
X215710050Y-107440045D01*
X215571963Y-107399500D01*
X215571961Y-107399500D01*
X215428039Y-107399500D01*
X215428036Y-107399500D01*
X215289949Y-107440045D01*
X215168873Y-107517856D01*
X215074623Y-107626626D01*
X215074622Y-107626628D01*
X215014834Y-107757543D01*
X214994353Y-107900000D01*
X211973666Y-107900000D01*
X211971963Y-107899500D01*
X211971961Y-107899500D01*
X211828039Y-107899500D01*
X211828036Y-107899500D01*
X211689949Y-107940045D01*
X211568873Y-108017856D01*
X211474623Y-108126626D01*
X211474622Y-108126628D01*
X211414834Y-108257543D01*
X211394353Y-108400000D01*
X208900500Y-108400000D01*
X208900500Y-105004999D01*
X211800884Y-105004999D01*
X211800885Y-105005000D01*
X212708012Y-105005000D01*
X212690795Y-105014940D01*
X212634940Y-105070795D01*
X212595444Y-105139204D01*
X212575000Y-105215504D01*
X212575000Y-105294496D01*
X212595444Y-105370796D01*
X212634940Y-105439205D01*
X212690795Y-105495060D01*
X212708012Y-105505000D01*
X211800885Y-105505000D01*
X211802085Y-105512584D01*
X211855591Y-105677255D01*
X211934195Y-105831524D01*
X212035967Y-105971602D01*
X212158397Y-106094032D01*
X212298475Y-106195804D01*
X212452742Y-106274408D01*
X212617415Y-106327914D01*
X212788429Y-106355000D01*
X213125000Y-106355000D01*
X213125000Y-105555000D01*
X213625000Y-105555000D01*
X213625000Y-106355000D01*
X213961571Y-106355000D01*
X214132584Y-106327914D01*
X214297257Y-106274408D01*
X214451524Y-106195804D01*
X214591602Y-106094032D01*
X214714032Y-105971602D01*
X214815804Y-105831524D01*
X214894408Y-105677255D01*
X214947914Y-105512584D01*
X214949115Y-105505000D01*
X214041988Y-105505000D01*
X214059205Y-105495060D01*
X214115060Y-105439205D01*
X214154556Y-105370796D01*
X214175000Y-105294496D01*
X214175000Y-105215504D01*
X214154556Y-105139204D01*
X214115060Y-105070795D01*
X214059205Y-105014940D01*
X214041988Y-105005000D01*
X214949115Y-105005000D01*
X214949115Y-105004999D01*
X216900884Y-105004999D01*
X216900885Y-105005000D01*
X217808012Y-105005000D01*
X217790795Y-105014940D01*
X217734940Y-105070795D01*
X217695444Y-105139204D01*
X217675000Y-105215504D01*
X217675000Y-105294496D01*
X217695444Y-105370796D01*
X217734940Y-105439205D01*
X217790795Y-105495060D01*
X217808012Y-105505000D01*
X216900885Y-105505000D01*
X216902085Y-105512584D01*
X216955591Y-105677255D01*
X217034195Y-105831524D01*
X217135967Y-105971602D01*
X217258397Y-106094032D01*
X217398475Y-106195804D01*
X217552742Y-106274408D01*
X217717415Y-106327914D01*
X217888429Y-106355000D01*
X218225000Y-106355000D01*
X218225000Y-105555000D01*
X218725000Y-105555000D01*
X218725000Y-106355000D01*
X219061571Y-106355000D01*
X219232584Y-106327914D01*
X219397257Y-106274408D01*
X219551524Y-106195804D01*
X219691602Y-106094032D01*
X219814032Y-105971602D01*
X219915804Y-105831524D01*
X219994408Y-105677255D01*
X220047914Y-105512584D01*
X220049115Y-105505000D01*
X219141988Y-105505000D01*
X219159205Y-105495060D01*
X219215060Y-105439205D01*
X219254556Y-105370796D01*
X219275000Y-105294496D01*
X219275000Y-105215504D01*
X219254556Y-105139204D01*
X219215060Y-105070795D01*
X219159205Y-105014940D01*
X219141988Y-105005000D01*
X220049115Y-105005000D01*
X220049115Y-105004999D01*
X220047914Y-104997415D01*
X219994408Y-104832744D01*
X219915804Y-104678475D01*
X219814032Y-104538397D01*
X219691602Y-104415967D01*
X219551524Y-104314195D01*
X219397257Y-104235591D01*
X219232584Y-104182085D01*
X219061571Y-104155000D01*
X218725000Y-104155000D01*
X218725000Y-104955000D01*
X218225000Y-104955000D01*
X218225000Y-104155000D01*
X217888429Y-104155000D01*
X217717415Y-104182085D01*
X217552742Y-104235591D01*
X217398475Y-104314195D01*
X217258397Y-104415967D01*
X217135967Y-104538397D01*
X217034195Y-104678475D01*
X216955591Y-104832744D01*
X216902085Y-104997415D01*
X216900884Y-105004999D01*
X214949115Y-105004999D01*
X214947914Y-104997415D01*
X214894408Y-104832744D01*
X214815804Y-104678475D01*
X214714032Y-104538397D01*
X214591602Y-104415967D01*
X214451524Y-104314195D01*
X214297257Y-104235591D01*
X214132584Y-104182085D01*
X213961571Y-104155000D01*
X213625000Y-104155000D01*
X213625000Y-104955000D01*
X213125000Y-104955000D01*
X213125000Y-104155000D01*
X212788429Y-104155000D01*
X212617415Y-104182085D01*
X212452742Y-104235591D01*
X212298475Y-104314195D01*
X212158397Y-104415967D01*
X212035967Y-104538397D01*
X211934195Y-104678475D01*
X211855591Y-104832744D01*
X211802085Y-104997415D01*
X211800884Y-105004999D01*
X208900500Y-105004999D01*
X208900500Y-101649999D01*
X210155168Y-101649999D01*
X210155168Y-101650000D01*
X210174459Y-101870499D01*
X210174461Y-101870509D01*
X210231745Y-102084300D01*
X210231749Y-102084309D01*
X210325295Y-102284919D01*
X210371103Y-102350341D01*
X210371105Y-102350342D01*
X210933871Y-101787575D01*
X210949755Y-101846853D01*
X211016898Y-101963147D01*
X211111853Y-102058102D01*
X211228147Y-102125245D01*
X211287424Y-102141128D01*
X210724656Y-102703894D01*
X210790083Y-102749706D01*
X210790085Y-102749707D01*
X210990690Y-102843250D01*
X210990699Y-102843254D01*
X211204490Y-102900538D01*
X211204500Y-102900540D01*
X211424999Y-102919832D01*
X211425001Y-102919832D01*
X211645499Y-102900540D01*
X211645509Y-102900538D01*
X211859300Y-102843254D01*
X211859309Y-102843250D01*
X212059915Y-102749706D01*
X212125342Y-102703894D01*
X211562575Y-102141127D01*
X211621853Y-102125245D01*
X211738147Y-102058102D01*
X211833102Y-101963147D01*
X211900245Y-101846853D01*
X211916128Y-101787575D01*
X212478894Y-102350342D01*
X212524706Y-102284915D01*
X212618250Y-102084309D01*
X212618254Y-102084300D01*
X212675538Y-101870509D01*
X212675540Y-101870499D01*
X212694832Y-101650000D01*
X212694832Y-101649999D01*
X212675540Y-101429500D01*
X212675538Y-101429490D01*
X212618254Y-101215699D01*
X212618250Y-101215690D01*
X212524707Y-101015085D01*
X212524706Y-101015083D01*
X212478894Y-100949657D01*
X212478894Y-100949656D01*
X211916127Y-101512423D01*
X211900245Y-101453147D01*
X211833102Y-101336853D01*
X211738147Y-101241898D01*
X211621853Y-101174755D01*
X211562575Y-101158872D01*
X212125342Y-100596105D01*
X212125341Y-100596103D01*
X212059919Y-100550295D01*
X211859309Y-100456749D01*
X211859300Y-100456745D01*
X211645509Y-100399461D01*
X211645499Y-100399459D01*
X211425001Y-100380168D01*
X211424999Y-100380168D01*
X211204500Y-100399459D01*
X211204490Y-100399461D01*
X210990699Y-100456745D01*
X210990690Y-100456749D01*
X210790084Y-100550293D01*
X210724657Y-100596104D01*
X211287424Y-101158871D01*
X211228147Y-101174755D01*
X211111853Y-101241898D01*
X211016898Y-101336853D01*
X210949755Y-101453147D01*
X210933871Y-101512424D01*
X210371104Y-100949657D01*
X210325293Y-101015084D01*
X210231749Y-101215690D01*
X210231745Y-101215699D01*
X210174461Y-101429490D01*
X210174459Y-101429500D01*
X210155168Y-101649999D01*
X208900500Y-101649999D01*
X208900500Y-97240000D01*
X211732843Y-97240000D01*
X211751426Y-97428681D01*
X211765325Y-97474500D01*
X211806463Y-97610115D01*
X211806464Y-97610118D01*
X211806465Y-97610119D01*
X211806466Y-97610122D01*
X211895834Y-97777318D01*
X211895838Y-97777325D01*
X212016116Y-97923883D01*
X212162674Y-98044161D01*
X212162681Y-98044165D01*
X212329877Y-98133533D01*
X212329878Y-98133533D01*
X212329885Y-98133537D01*
X212511317Y-98188573D01*
X212511316Y-98188573D01*
X212528233Y-98190239D01*
X212700000Y-98207157D01*
X212888683Y-98188573D01*
X213070115Y-98133537D01*
X213237324Y-98044162D01*
X213383883Y-97923883D01*
X213504162Y-97777324D01*
X213593537Y-97610115D01*
X213648573Y-97428683D01*
X213667157Y-97240000D01*
X213648573Y-97051317D01*
X213593537Y-96869885D01*
X213581582Y-96847519D01*
X213504165Y-96702681D01*
X213504161Y-96702674D01*
X213383883Y-96556116D01*
X213237325Y-96435838D01*
X213237318Y-96435834D01*
X213070122Y-96346466D01*
X213070119Y-96346465D01*
X213070118Y-96346464D01*
X213070115Y-96346463D01*
X212888683Y-96291427D01*
X212888681Y-96291426D01*
X212888683Y-96291426D01*
X212700000Y-96272843D01*
X212511318Y-96291426D01*
X212414070Y-96320926D01*
X212329885Y-96346463D01*
X212329882Y-96346464D01*
X212329880Y-96346465D01*
X212329877Y-96346466D01*
X212162681Y-96435834D01*
X212162674Y-96435838D01*
X212016116Y-96556116D01*
X211895838Y-96702674D01*
X211895834Y-96702681D01*
X211806466Y-96869877D01*
X211806465Y-96869880D01*
X211751426Y-97051318D01*
X211732843Y-97240000D01*
X208900500Y-97240000D01*
X208900500Y-96560439D01*
X208884439Y-96500499D01*
X208880021Y-96484011D01*
X208857726Y-96445395D01*
X208840464Y-96415495D01*
X208840458Y-96415487D01*
X208739395Y-96314424D01*
X208705910Y-96253101D01*
X208704339Y-96209094D01*
X208705647Y-96200000D01*
X208685165Y-96057543D01*
X208625377Y-95926627D01*
X208531128Y-95817857D01*
X208410053Y-95740047D01*
X208410051Y-95740046D01*
X208410049Y-95740045D01*
X208410050Y-95740045D01*
X208271963Y-95699500D01*
X208271961Y-95699500D01*
X208128039Y-95699500D01*
X208128036Y-95699500D01*
X207989949Y-95740045D01*
X207868873Y-95817856D01*
X207774623Y-95926626D01*
X207774622Y-95926628D01*
X207714834Y-96057543D01*
X207694353Y-96200000D01*
X207714834Y-96342456D01*
X207749164Y-96417626D01*
X207774623Y-96473373D01*
X207868872Y-96582143D01*
X207989947Y-96659953D01*
X207989950Y-96659954D01*
X207989949Y-96659954D01*
X208097107Y-96691417D01*
X208125280Y-96699690D01*
X208128036Y-96700499D01*
X208128038Y-96700500D01*
X208175500Y-96700500D01*
X208242539Y-96720185D01*
X208288294Y-96772989D01*
X208299500Y-96824500D01*
X208299500Y-116239562D01*
X208302177Y-116249552D01*
X208319979Y-116315989D01*
X208354600Y-116375956D01*
X208359541Y-116384512D01*
X208359541Y-116384513D01*
X214759540Y-122784511D01*
X214807481Y-122832452D01*
X214840966Y-122893775D01*
X214835982Y-122963467D01*
X214794110Y-123019400D01*
X214788691Y-123023235D01*
X214755447Y-123045447D01*
X214733102Y-123078890D01*
X214679489Y-123123695D01*
X214610164Y-123132402D01*
X214547137Y-123102247D01*
X214526898Y-123078890D01*
X214504552Y-123045447D01*
X214438230Y-123001132D01*
X214438229Y-123001131D01*
X214379752Y-122989500D01*
X214379748Y-122989500D01*
X213784500Y-122989500D01*
X213717461Y-122969815D01*
X213671706Y-122917011D01*
X213660500Y-122865500D01*
X213660500Y-122339339D01*
X213655313Y-122319981D01*
X213640021Y-122262911D01*
X213620349Y-122228838D01*
X213600464Y-122194395D01*
X213600458Y-122194387D01*
X207654319Y-116248248D01*
X207620834Y-116186925D01*
X207618000Y-116160567D01*
X207618000Y-99903740D01*
X207618000Y-99903738D01*
X207597522Y-99827312D01*
X207557960Y-99758789D01*
X205888595Y-98089424D01*
X205855110Y-98028101D01*
X205853539Y-97984094D01*
X205854847Y-97975000D01*
X205834365Y-97832543D01*
X205774577Y-97701627D01*
X205680328Y-97592857D01*
X205559253Y-97515047D01*
X205559251Y-97515046D01*
X205559249Y-97515045D01*
X205559250Y-97515045D01*
X205421163Y-97474500D01*
X205421161Y-97474500D01*
X205277239Y-97474500D01*
X205277235Y-97474500D01*
X205205334Y-97495612D01*
X205135464Y-97495612D01*
X205076686Y-97457837D01*
X205047662Y-97394281D01*
X205046400Y-97376635D01*
X205046400Y-94699999D01*
X211433179Y-94699999D01*
X211433179Y-94700000D01*
X211452424Y-94919976D01*
X211452426Y-94919986D01*
X211509575Y-95133270D01*
X211509580Y-95133284D01*
X211602898Y-95333405D01*
X211602901Y-95333411D01*
X211648258Y-95398187D01*
X211648259Y-95398188D01*
X212217037Y-94829409D01*
X212234075Y-94892993D01*
X212299901Y-95007007D01*
X212392993Y-95100099D01*
X212507007Y-95165925D01*
X212570590Y-95182962D01*
X212001810Y-95751740D01*
X212066590Y-95797099D01*
X212066592Y-95797100D01*
X212266715Y-95890419D01*
X212266729Y-95890424D01*
X212480013Y-95947573D01*
X212480023Y-95947575D01*
X212699999Y-95966821D01*
X212700001Y-95966821D01*
X212919976Y-95947575D01*
X212919986Y-95947573D01*
X213133270Y-95890424D01*
X213133284Y-95890419D01*
X213333407Y-95797100D01*
X213333417Y-95797094D01*
X213398188Y-95751741D01*
X212829410Y-95182962D01*
X212892993Y-95165925D01*
X213007007Y-95100099D01*
X213100099Y-95007007D01*
X213165925Y-94892993D01*
X213182962Y-94829409D01*
X213751741Y-95398188D01*
X213797094Y-95333417D01*
X213797100Y-95333407D01*
X213890419Y-95133284D01*
X213890424Y-95133270D01*
X213947573Y-94919986D01*
X213947575Y-94919976D01*
X213966821Y-94700000D01*
X213966821Y-94699999D01*
X213947575Y-94480023D01*
X213947573Y-94480013D01*
X213890424Y-94266729D01*
X213890420Y-94266720D01*
X213797096Y-94066586D01*
X213751741Y-94001811D01*
X213751740Y-94001810D01*
X213182962Y-94570589D01*
X213165925Y-94507007D01*
X213100099Y-94392993D01*
X213007007Y-94299901D01*
X212892993Y-94234075D01*
X212829410Y-94217037D01*
X213398188Y-93648259D01*
X213398187Y-93648258D01*
X213333411Y-93602901D01*
X213333405Y-93602898D01*
X213133284Y-93509580D01*
X213133270Y-93509575D01*
X212919986Y-93452426D01*
X212919976Y-93452424D01*
X212700001Y-93433179D01*
X212699999Y-93433179D01*
X212480023Y-93452424D01*
X212480013Y-93452426D01*
X212266729Y-93509575D01*
X212266720Y-93509579D01*
X212066590Y-93602901D01*
X212001811Y-93648258D01*
X212570590Y-94217037D01*
X212507007Y-94234075D01*
X212392993Y-94299901D01*
X212299901Y-94392993D01*
X212234075Y-94507007D01*
X212217037Y-94570589D01*
X211648258Y-94001811D01*
X211602901Y-94066590D01*
X211509579Y-94266720D01*
X211509575Y-94266729D01*
X211452426Y-94480013D01*
X211452424Y-94480023D01*
X211433179Y-94699999D01*
X205046400Y-94699999D01*
X205046400Y-93080339D01*
X205046400Y-93080338D01*
X205025921Y-93003911D01*
X205006029Y-92969457D01*
X204986364Y-92935395D01*
X204986358Y-92935387D01*
X204210971Y-92160000D01*
X211732843Y-92160000D01*
X211751426Y-92348681D01*
X211757376Y-92368294D01*
X211806463Y-92530115D01*
X211806464Y-92530118D01*
X211806465Y-92530119D01*
X211806466Y-92530122D01*
X211895834Y-92697318D01*
X211895838Y-92697325D01*
X212016116Y-92843883D01*
X212162674Y-92964161D01*
X212162681Y-92964165D01*
X212329877Y-93053533D01*
X212329878Y-93053533D01*
X212329885Y-93053537D01*
X212511317Y-93108573D01*
X212511316Y-93108573D01*
X212528233Y-93110239D01*
X212700000Y-93127157D01*
X212888683Y-93108573D01*
X213070115Y-93053537D01*
X213237324Y-92964162D01*
X213383883Y-92843883D01*
X213504162Y-92697324D01*
X213593537Y-92530115D01*
X213648573Y-92348683D01*
X213667157Y-92160000D01*
X213648573Y-91971317D01*
X213593537Y-91789885D01*
X213592085Y-91787168D01*
X213504165Y-91622681D01*
X213504161Y-91622674D01*
X213383883Y-91476116D01*
X213237325Y-91355838D01*
X213237318Y-91355834D01*
X213070122Y-91266466D01*
X213070119Y-91266465D01*
X213070118Y-91266464D01*
X213070115Y-91266463D01*
X212888683Y-91211427D01*
X212888681Y-91211426D01*
X212888683Y-91211426D01*
X212700000Y-91192843D01*
X212511318Y-91211426D01*
X212405812Y-91243431D01*
X212329885Y-91266463D01*
X212329882Y-91266464D01*
X212329880Y-91266465D01*
X212329877Y-91266466D01*
X212162681Y-91355834D01*
X212162674Y-91355838D01*
X212016116Y-91476116D01*
X211895838Y-91622674D01*
X211895834Y-91622681D01*
X211806466Y-91789877D01*
X211806465Y-91789880D01*
X211806464Y-91789882D01*
X211806463Y-91789885D01*
X211792904Y-91834583D01*
X211751426Y-91971318D01*
X211732843Y-92160000D01*
X204210971Y-92160000D01*
X203269471Y-91218500D01*
X205638153Y-91218500D01*
X205658634Y-91360956D01*
X205690543Y-91430826D01*
X205718423Y-91491873D01*
X205812672Y-91600643D01*
X205933747Y-91678453D01*
X205933750Y-91678454D01*
X205933749Y-91678454D01*
X206071836Y-91718999D01*
X206071838Y-91719000D01*
X206071839Y-91719000D01*
X206215762Y-91719000D01*
X206215762Y-91718999D01*
X206322921Y-91687535D01*
X206353850Y-91678454D01*
X206353850Y-91678453D01*
X206353853Y-91678453D01*
X206474928Y-91600643D01*
X206569177Y-91491873D01*
X206628965Y-91360957D01*
X206649447Y-91218500D01*
X206628965Y-91076043D01*
X206569177Y-90945127D01*
X206474928Y-90836357D01*
X206353853Y-90758547D01*
X206353851Y-90758546D01*
X206353849Y-90758545D01*
X206353850Y-90758545D01*
X206215763Y-90718000D01*
X206215761Y-90718000D01*
X206071839Y-90718000D01*
X206071836Y-90718000D01*
X205933749Y-90758545D01*
X205812673Y-90836356D01*
X205718423Y-90945126D01*
X205718422Y-90945128D01*
X205658634Y-91076043D01*
X205638153Y-91218500D01*
X203269471Y-91218500D01*
X202711771Y-90660800D01*
X203840153Y-90660800D01*
X203860634Y-90803256D01*
X203898791Y-90886807D01*
X203920423Y-90934173D01*
X204014672Y-91042943D01*
X204135747Y-91120753D01*
X204135750Y-91120754D01*
X204135749Y-91120754D01*
X204273836Y-91161299D01*
X204273838Y-91161300D01*
X204273839Y-91161300D01*
X204417762Y-91161300D01*
X204417762Y-91161299D01*
X204555853Y-91120753D01*
X204676928Y-91042943D01*
X204771177Y-90934173D01*
X204830965Y-90803257D01*
X204851447Y-90660800D01*
X204830965Y-90518343D01*
X204771177Y-90387427D01*
X204676928Y-90278657D01*
X204555853Y-90200847D01*
X204555851Y-90200846D01*
X204555849Y-90200845D01*
X204555850Y-90200845D01*
X204417763Y-90160300D01*
X204417761Y-90160300D01*
X204273839Y-90160300D01*
X204273836Y-90160300D01*
X204135749Y-90200845D01*
X204014673Y-90278656D01*
X203920423Y-90387426D01*
X203920422Y-90387428D01*
X203860634Y-90518343D01*
X203840153Y-90660800D01*
X202711771Y-90660800D01*
X199605607Y-87554636D01*
X199572122Y-87493313D01*
X199570550Y-87484601D01*
X199565215Y-87447494D01*
X199565214Y-87447490D01*
X199505427Y-87316578D01*
X199505426Y-87316576D01*
X199489581Y-87298290D01*
X199411178Y-87207807D01*
X199290103Y-87129997D01*
X199290102Y-87129996D01*
X199290101Y-87129996D01*
X199286197Y-87128213D01*
X199282954Y-87125403D01*
X199282643Y-87125203D01*
X199282671Y-87125158D01*
X199233394Y-87082456D01*
X199213712Y-87015416D01*
X199233399Y-86948377D01*
X199250026Y-86927744D01*
X199537060Y-86640711D01*
X199553352Y-86612492D01*
X199576621Y-86572189D01*
X199597100Y-86495762D01*
X199597100Y-84249282D01*
X199616785Y-84182243D01*
X199633414Y-84161606D01*
X202518867Y-81276152D01*
X202580188Y-81242669D01*
X202649880Y-81247653D01*
G37*
%TD.AperFunction*%
%TA.AperFunction,Conductor*%
G36*
X195830000Y-126369189D02*
G01*
X195810315Y-126436228D01*
X195757511Y-126481983D01*
X195705966Y-126493189D01*
X195453966Y-126493119D01*
X195386932Y-126473416D01*
X195341191Y-126420599D01*
X195330000Y-126369119D01*
X195330000Y-124893012D01*
X195387007Y-124925925D01*
X195514174Y-124960000D01*
X195645826Y-124960000D01*
X195772993Y-124925925D01*
X195830000Y-124893012D01*
X195830000Y-126369189D01*
G37*
%TD.AperFunction*%
%TA.AperFunction,Conductor*%
G36*
X193290000Y-126368484D02*
G01*
X193270315Y-126435523D01*
X193217511Y-126481278D01*
X193165966Y-126492484D01*
X192913966Y-126492414D01*
X192846932Y-126472711D01*
X192801191Y-126419894D01*
X192790000Y-126368414D01*
X192790000Y-124893012D01*
X192847007Y-124925925D01*
X192974174Y-124960000D01*
X193105826Y-124960000D01*
X193232993Y-124925925D01*
X193290000Y-124893012D01*
X193290000Y-126368484D01*
G37*
%TD.AperFunction*%
%TA.AperFunction,Conductor*%
G36*
X174491206Y-78920185D02*
G01*
X174511848Y-78936819D01*
X175263181Y-79688152D01*
X175296666Y-79749475D01*
X175299500Y-79775833D01*
X175299500Y-80439562D01*
X175310537Y-80480751D01*
X175319979Y-80515990D01*
X175319982Y-80515995D01*
X175359535Y-80584504D01*
X175359541Y-80584512D01*
X182663181Y-87888152D01*
X182696666Y-87949475D01*
X182699500Y-87975833D01*
X182699500Y-89739562D01*
X182719979Y-89815989D01*
X182753767Y-89874511D01*
X182759540Y-89884511D01*
X183369740Y-90494711D01*
X183425689Y-90550660D01*
X183425691Y-90550661D01*
X183425695Y-90550664D01*
X183471552Y-90577139D01*
X183494211Y-90590221D01*
X183570638Y-90610700D01*
X183649762Y-90610700D01*
X183839599Y-90610700D01*
X183906638Y-90630385D01*
X183933311Y-90653496D01*
X183966972Y-90692343D01*
X184088047Y-90770153D01*
X184140243Y-90785479D01*
X184199021Y-90823252D01*
X184228047Y-90886807D01*
X184218104Y-90955966D01*
X184192990Y-90992137D01*
X182215489Y-92969640D01*
X182159541Y-93025587D01*
X182159535Y-93025595D01*
X182119982Y-93094104D01*
X182119979Y-93094109D01*
X182111124Y-93127156D01*
X182099500Y-93170538D01*
X182099500Y-96139562D01*
X182110474Y-96180518D01*
X182119978Y-96215987D01*
X182142007Y-96254143D01*
X182159538Y-96284508D01*
X182159542Y-96284513D01*
X184363181Y-98488152D01*
X184396666Y-98549475D01*
X184399500Y-98575833D01*
X184399500Y-101939562D01*
X184410910Y-101982143D01*
X184419979Y-102015990D01*
X184419980Y-102015991D01*
X184436815Y-102045150D01*
X184459540Y-102084511D01*
X185359540Y-102984511D01*
X185415489Y-103040460D01*
X185415491Y-103040461D01*
X185415495Y-103040464D01*
X185466552Y-103069941D01*
X185484011Y-103080021D01*
X185560438Y-103100500D01*
X185639562Y-103100500D01*
X187224167Y-103100500D01*
X187291206Y-103120185D01*
X187311848Y-103136819D01*
X187763181Y-103588152D01*
X187796666Y-103649475D01*
X187799500Y-103675833D01*
X187799500Y-118524167D01*
X187779815Y-118591206D01*
X187763181Y-118611848D01*
X184811848Y-121563181D01*
X184750525Y-121596666D01*
X184724167Y-121599500D01*
X180960438Y-121599500D01*
X180922224Y-121609739D01*
X180884009Y-121619979D01*
X180884004Y-121619982D01*
X180815495Y-121659535D01*
X180815487Y-121659541D01*
X180099541Y-122375487D01*
X180099535Y-122375495D01*
X180059982Y-122444004D01*
X180059979Y-122444009D01*
X180039500Y-122520439D01*
X180039500Y-122865500D01*
X180019815Y-122932539D01*
X179967011Y-122978294D01*
X179915500Y-122989500D01*
X179320247Y-122989500D01*
X179261770Y-123001131D01*
X179261769Y-123001132D01*
X179195447Y-123045447D01*
X179173102Y-123078890D01*
X179119489Y-123123695D01*
X179050164Y-123132402D01*
X178987137Y-123102247D01*
X178966898Y-123078890D01*
X178944552Y-123045447D01*
X178878230Y-123001132D01*
X178878229Y-123001131D01*
X178819752Y-122989500D01*
X178819748Y-122989500D01*
X176780252Y-122989500D01*
X176780247Y-122989500D01*
X176721770Y-123001131D01*
X176721769Y-123001132D01*
X176655447Y-123045447D01*
X176611132Y-123111769D01*
X176611131Y-123111770D01*
X176599500Y-123170247D01*
X176599500Y-126363853D01*
X176579815Y-126430892D01*
X176527011Y-126476647D01*
X176475466Y-126487853D01*
X168163584Y-126485546D01*
X168096550Y-126465843D01*
X168050809Y-126413026D01*
X168040885Y-126343865D01*
X168069928Y-126280317D01*
X168123761Y-126244126D01*
X168218711Y-126211895D01*
X168218712Y-126211895D01*
X168477356Y-126084346D01*
X168717141Y-125924126D01*
X168717147Y-125924121D01*
X168745608Y-125899162D01*
X168745608Y-125899161D01*
X168315698Y-125469251D01*
X168417330Y-125395412D01*
X168595412Y-125217330D01*
X168669251Y-125115698D01*
X169099161Y-125545608D01*
X169099162Y-125545608D01*
X169124121Y-125517147D01*
X169124126Y-125517141D01*
X169284346Y-125277356D01*
X169411895Y-125018712D01*
X169411899Y-125018702D01*
X169504592Y-124745635D01*
X169504597Y-124745615D01*
X169560855Y-124462784D01*
X169560859Y-124462757D01*
X169579720Y-124175007D01*
X169579720Y-124174992D01*
X169560859Y-123887242D01*
X169560855Y-123887215D01*
X169504597Y-123604384D01*
X169504592Y-123604364D01*
X169411899Y-123331297D01*
X169411895Y-123331287D01*
X169284346Y-123072643D01*
X169124124Y-122832854D01*
X169099161Y-122804390D01*
X169099160Y-122804390D01*
X168669250Y-123234300D01*
X168595412Y-123132670D01*
X168417330Y-122954588D01*
X168315698Y-122880748D01*
X168745608Y-122450838D01*
X168745608Y-122450835D01*
X168717152Y-122425881D01*
X168717146Y-122425876D01*
X168477356Y-122265653D01*
X168218712Y-122138104D01*
X168218702Y-122138100D01*
X167945635Y-122045407D01*
X167945615Y-122045402D01*
X167662784Y-121989144D01*
X167662757Y-121989140D01*
X167375007Y-121970280D01*
X167374993Y-121970280D01*
X167087242Y-121989140D01*
X167087215Y-121989144D01*
X166804384Y-122045402D01*
X166804364Y-122045407D01*
X166531297Y-122138100D01*
X166531287Y-122138104D01*
X166272643Y-122265653D01*
X166032851Y-122425878D01*
X166004390Y-122450837D01*
X166434301Y-122880748D01*
X166332670Y-122954588D01*
X166154588Y-123132670D01*
X166080748Y-123234301D01*
X165650837Y-122804390D01*
X165625878Y-122832851D01*
X165465653Y-123072643D01*
X165338104Y-123331287D01*
X165338100Y-123331297D01*
X165245407Y-123604364D01*
X165245402Y-123604384D01*
X165189144Y-123887215D01*
X165189140Y-123887242D01*
X165170280Y-124174992D01*
X165170280Y-124175007D01*
X165189140Y-124462757D01*
X165189144Y-124462784D01*
X165245402Y-124745615D01*
X165245407Y-124745635D01*
X165338100Y-125018702D01*
X165338104Y-125018712D01*
X165465653Y-125277356D01*
X165625876Y-125517146D01*
X165625881Y-125517152D01*
X165650835Y-125545608D01*
X165650838Y-125545608D01*
X166080748Y-125115698D01*
X166154588Y-125217330D01*
X166332670Y-125395412D01*
X166434300Y-125469250D01*
X166004390Y-125899160D01*
X166004390Y-125899161D01*
X166032854Y-125924124D01*
X166272643Y-126084346D01*
X166531285Y-126211894D01*
X166624948Y-126243688D01*
X166682102Y-126283877D01*
X166708456Y-126348586D01*
X166695642Y-126417271D01*
X166647728Y-126468124D01*
X166585056Y-126485108D01*
X159173022Y-126483051D01*
X159172723Y-126483031D01*
X159103125Y-126483031D01*
X159095015Y-126482765D01*
X158840977Y-126466111D01*
X158824896Y-126463994D01*
X158579185Y-126415116D01*
X158563519Y-126410918D01*
X158326286Y-126330386D01*
X158311301Y-126324179D01*
X158086616Y-126213376D01*
X158072569Y-126205266D01*
X157864265Y-126066080D01*
X157851397Y-126056206D01*
X157663043Y-125891023D01*
X157651574Y-125879554D01*
X157525332Y-125735603D01*
X157486388Y-125691196D01*
X157476517Y-125678332D01*
X157387833Y-125545608D01*
X157337333Y-125470029D01*
X157329223Y-125455982D01*
X157279281Y-125354710D01*
X157218417Y-125231293D01*
X157212211Y-125216309D01*
X157131679Y-124979074D01*
X157127483Y-124963414D01*
X157118812Y-124919826D01*
X157078605Y-124717700D01*
X157076488Y-124701619D01*
X157059832Y-124447532D01*
X157059566Y-124439421D01*
X157059566Y-98524000D01*
X157079251Y-98456961D01*
X157132055Y-98411206D01*
X157183566Y-98400000D01*
X173500000Y-98400000D01*
X173500000Y-94000000D01*
X173794353Y-94000000D01*
X173814834Y-94142456D01*
X173871565Y-94266677D01*
X173874623Y-94273373D01*
X173968872Y-94382143D01*
X174089947Y-94459953D01*
X174089950Y-94459954D01*
X174089949Y-94459954D01*
X174197107Y-94491417D01*
X174223080Y-94499044D01*
X174228036Y-94500499D01*
X174228038Y-94500500D01*
X174228039Y-94500500D01*
X174371962Y-94500500D01*
X174371962Y-94500499D01*
X174510053Y-94459953D01*
X174631128Y-94382143D01*
X174725377Y-94273373D01*
X174785165Y-94142457D01*
X174805647Y-94000000D01*
X174785165Y-93857543D01*
X174725377Y-93726627D01*
X174631128Y-93617857D01*
X174510053Y-93540047D01*
X174510051Y-93540046D01*
X174510049Y-93540045D01*
X174510050Y-93540045D01*
X174371963Y-93499500D01*
X174371961Y-93499500D01*
X174228039Y-93499500D01*
X174228036Y-93499500D01*
X174089949Y-93540045D01*
X173968873Y-93617856D01*
X173874623Y-93726626D01*
X173874622Y-93726628D01*
X173814834Y-93857543D01*
X173794353Y-94000000D01*
X173500000Y-94000000D01*
X173500000Y-93351600D01*
X178409153Y-93351600D01*
X178429634Y-93494056D01*
X178479343Y-93602901D01*
X178489423Y-93624973D01*
X178583672Y-93733743D01*
X178704747Y-93811553D01*
X178704750Y-93811554D01*
X178704749Y-93811554D01*
X178771836Y-93831252D01*
X178840659Y-93851460D01*
X178842836Y-93852099D01*
X178842838Y-93852100D01*
X178842839Y-93852100D01*
X178986762Y-93852100D01*
X178986762Y-93852099D01*
X179124853Y-93811553D01*
X179245928Y-93733743D01*
X179340177Y-93624973D01*
X179399965Y-93494057D01*
X179420447Y-93351600D01*
X179399965Y-93209143D01*
X179340177Y-93078227D01*
X179245928Y-92969457D01*
X179124853Y-92891647D01*
X179124851Y-92891646D01*
X179124849Y-92891645D01*
X179124850Y-92891645D01*
X178986763Y-92851100D01*
X178986761Y-92851100D01*
X178842839Y-92851100D01*
X178842836Y-92851100D01*
X178704749Y-92891645D01*
X178583673Y-92969456D01*
X178583672Y-92969456D01*
X178583672Y-92969457D01*
X178580513Y-92973103D01*
X178489423Y-93078226D01*
X178489422Y-93078228D01*
X178429634Y-93209143D01*
X178409153Y-93351600D01*
X173500000Y-93351600D01*
X173500000Y-89294800D01*
X174743953Y-89294800D01*
X174764434Y-89437256D01*
X174823158Y-89565842D01*
X174824223Y-89568173D01*
X174918472Y-89676943D01*
X175039547Y-89754753D01*
X175039550Y-89754754D01*
X175039549Y-89754754D01*
X175177636Y-89795299D01*
X175177638Y-89795300D01*
X175177639Y-89795300D01*
X175321562Y-89795300D01*
X175321562Y-89795299D01*
X175428721Y-89763835D01*
X175459650Y-89754754D01*
X175459650Y-89754753D01*
X175459653Y-89754753D01*
X175580728Y-89676943D01*
X175674977Y-89568173D01*
X175734765Y-89437257D01*
X175755247Y-89294800D01*
X175734765Y-89152343D01*
X175674977Y-89021427D01*
X175580728Y-88912657D01*
X175459653Y-88834847D01*
X175459651Y-88834846D01*
X175459649Y-88834845D01*
X175459650Y-88834845D01*
X175321563Y-88794300D01*
X175321561Y-88794300D01*
X175177639Y-88794300D01*
X175177636Y-88794300D01*
X175039549Y-88834845D01*
X174918473Y-88912656D01*
X174824223Y-89021426D01*
X174824222Y-89021428D01*
X174764434Y-89152343D01*
X174743953Y-89294800D01*
X173500000Y-89294800D01*
X173500000Y-82700000D01*
X175194353Y-82700000D01*
X175214834Y-82842456D01*
X175260504Y-82942457D01*
X175274623Y-82973373D01*
X175368872Y-83082143D01*
X175489947Y-83159953D01*
X175489950Y-83159954D01*
X175489949Y-83159954D01*
X175628036Y-83200499D01*
X175628038Y-83200500D01*
X175628039Y-83200500D01*
X175771962Y-83200500D01*
X175771962Y-83200499D01*
X175910053Y-83159953D01*
X176031128Y-83082143D01*
X176125377Y-82973373D01*
X176185165Y-82842457D01*
X176205647Y-82700000D01*
X176185165Y-82557543D01*
X176125377Y-82426627D01*
X176031128Y-82317857D01*
X175910053Y-82240047D01*
X175910051Y-82240046D01*
X175910049Y-82240045D01*
X175910050Y-82240045D01*
X175771963Y-82199500D01*
X175771961Y-82199500D01*
X175628039Y-82199500D01*
X175628036Y-82199500D01*
X175489949Y-82240045D01*
X175368873Y-82317856D01*
X175274623Y-82426626D01*
X175274622Y-82426628D01*
X175214834Y-82557543D01*
X175194353Y-82700000D01*
X173500000Y-82700000D01*
X173500000Y-79024500D01*
X173519685Y-78957461D01*
X173572489Y-78911706D01*
X173624000Y-78900500D01*
X174424167Y-78900500D01*
X174491206Y-78920185D01*
G37*
%TD.AperFunction*%
%TA.AperFunction,Conductor*%
G36*
X195114075Y-124267007D02*
G01*
X195080000Y-124394174D01*
X195080000Y-124525826D01*
X195114075Y-124652993D01*
X195146988Y-124710000D01*
X193473012Y-124710000D01*
X193505925Y-124652993D01*
X193540000Y-124525826D01*
X193540000Y-124394174D01*
X193505925Y-124267007D01*
X193473012Y-124210000D01*
X195146988Y-124210000D01*
X195114075Y-124267007D01*
G37*
%TD.AperFunction*%
%TA.AperFunction,Conductor*%
G36*
X190899174Y-100958130D02*
G01*
X190955108Y-101000001D01*
X190968634Y-101022799D01*
X191017123Y-101128973D01*
X191111372Y-101237743D01*
X191232447Y-101315553D01*
X191232450Y-101315554D01*
X191232449Y-101315554D01*
X191304989Y-101336853D01*
X191367780Y-101355290D01*
X191370536Y-101356099D01*
X191370538Y-101356100D01*
X191466667Y-101356100D01*
X191533706Y-101375785D01*
X191554348Y-101392419D01*
X191949748Y-101787819D01*
X191983233Y-101849142D01*
X191978249Y-101918834D01*
X191936377Y-101974767D01*
X191870913Y-101999184D01*
X191862067Y-101999500D01*
X191828036Y-101999500D01*
X191689949Y-102040045D01*
X191568873Y-102117856D01*
X191474623Y-102226626D01*
X191474622Y-102226628D01*
X191414834Y-102357543D01*
X191394353Y-102500000D01*
X191414834Y-102642456D01*
X191474622Y-102773371D01*
X191474623Y-102773373D01*
X191568872Y-102882143D01*
X191689947Y-102959953D01*
X191689950Y-102959954D01*
X191689949Y-102959954D01*
X191828036Y-103000499D01*
X191828038Y-103000500D01*
X191828039Y-103000500D01*
X191971961Y-103000500D01*
X192080566Y-102968611D01*
X192150435Y-102968611D01*
X192209213Y-103006385D01*
X192238238Y-103069941D01*
X192239500Y-103087588D01*
X192239500Y-105461148D01*
X192219815Y-105528187D01*
X192167011Y-105573942D01*
X192097853Y-105583886D01*
X192080566Y-105580125D01*
X191999764Y-105556400D01*
X191999761Y-105556400D01*
X191855839Y-105556400D01*
X191855836Y-105556400D01*
X191717749Y-105596945D01*
X191596673Y-105674756D01*
X191596672Y-105674756D01*
X191596672Y-105674757D01*
X191584090Y-105689277D01*
X191502423Y-105783526D01*
X191502422Y-105783528D01*
X191442634Y-105914443D01*
X191422153Y-106056900D01*
X191442634Y-106199356D01*
X191476910Y-106274408D01*
X191502423Y-106330273D01*
X191596672Y-106439043D01*
X191717747Y-106516853D01*
X191717750Y-106516854D01*
X191717749Y-106516854D01*
X191855836Y-106557399D01*
X191855838Y-106557400D01*
X191855839Y-106557400D01*
X191999761Y-106557400D01*
X192080565Y-106533674D01*
X192150435Y-106533674D01*
X192209213Y-106571448D01*
X192238238Y-106635004D01*
X192239500Y-106652651D01*
X192239500Y-115939962D01*
X192259979Y-116016389D01*
X192270842Y-116035204D01*
X192285191Y-116060057D01*
X192299539Y-116084910D01*
X197742804Y-121528175D01*
X197776289Y-121589498D01*
X197777861Y-121633502D01*
X197776553Y-121642599D01*
X197797034Y-121785056D01*
X197837367Y-121873371D01*
X197856823Y-121915973D01*
X197951072Y-122024743D01*
X198072147Y-122102553D01*
X198072150Y-122102554D01*
X198072149Y-122102554D01*
X198179307Y-122134017D01*
X198194368Y-122138440D01*
X198210236Y-122143099D01*
X198210238Y-122143100D01*
X198210239Y-122143100D01*
X198354162Y-122143100D01*
X198354162Y-122143099D01*
X198492253Y-122102553D01*
X198613328Y-122024743D01*
X198707577Y-121915973D01*
X198719265Y-121890381D01*
X198765020Y-121837577D01*
X198832059Y-121817892D01*
X198899098Y-121837577D01*
X198919740Y-121854211D01*
X199083039Y-122017510D01*
X199116524Y-122078833D01*
X199111863Y-122143999D01*
X199112484Y-122144182D01*
X199111646Y-122147033D01*
X199111540Y-122148525D01*
X199110402Y-122151272D01*
X199109984Y-122152693D01*
X199089503Y-122295150D01*
X199109984Y-122437606D01*
X199151438Y-122528375D01*
X199169773Y-122568523D01*
X199264022Y-122677293D01*
X199385097Y-122755103D01*
X199385100Y-122755104D01*
X199385099Y-122755104D01*
X199523039Y-122795606D01*
X199581817Y-122833380D01*
X199610843Y-122896935D01*
X199600900Y-122966094D01*
X199556997Y-123017684D01*
X199515448Y-123045446D01*
X199493102Y-123078890D01*
X199439489Y-123123695D01*
X199370164Y-123132402D01*
X199307137Y-123102247D01*
X199286898Y-123078890D01*
X199264552Y-123045447D01*
X199198230Y-123001132D01*
X199198229Y-123001131D01*
X199139752Y-122989500D01*
X199139748Y-122989500D01*
X197116556Y-122989500D01*
X197049517Y-122969815D01*
X197017290Y-122939811D01*
X196937190Y-122832812D01*
X196937187Y-122832809D01*
X196822093Y-122746649D01*
X196822086Y-122746645D01*
X196687379Y-122696403D01*
X196687372Y-122696401D01*
X196627844Y-122690000D01*
X195830000Y-122690000D01*
X195830000Y-124026988D01*
X195772993Y-123994075D01*
X195645826Y-123960000D01*
X195514174Y-123960000D01*
X195387007Y-123994075D01*
X195330000Y-124026988D01*
X195330000Y-122690000D01*
X194532155Y-122690000D01*
X194472627Y-122696401D01*
X194472619Y-122696403D01*
X194353333Y-122740894D01*
X194283641Y-122745878D01*
X194266667Y-122740894D01*
X194147380Y-122696403D01*
X194147372Y-122696401D01*
X194087844Y-122690000D01*
X193290000Y-122690000D01*
X193290000Y-124026988D01*
X193232993Y-123994075D01*
X193105826Y-123960000D01*
X192974174Y-123960000D01*
X192847007Y-123994075D01*
X192790000Y-124026988D01*
X192790000Y-122690000D01*
X191992155Y-122690000D01*
X191932627Y-122696401D01*
X191932620Y-122696403D01*
X191797913Y-122746645D01*
X191797906Y-122746649D01*
X191682813Y-122832808D01*
X191602712Y-122939811D01*
X191546778Y-122981682D01*
X191503445Y-122989500D01*
X189480247Y-122989500D01*
X189421770Y-123001131D01*
X189421769Y-123001132D01*
X189355447Y-123045447D01*
X189333102Y-123078890D01*
X189279489Y-123123695D01*
X189210164Y-123132402D01*
X189147137Y-123102247D01*
X189126898Y-123078890D01*
X189104552Y-123045447D01*
X189038230Y-123001132D01*
X189038229Y-123001131D01*
X188979752Y-122989500D01*
X188979748Y-122989500D01*
X188876255Y-122989500D01*
X188809216Y-122969815D01*
X188763461Y-122917011D01*
X188753517Y-122847853D01*
X188782542Y-122784297D01*
X188788574Y-122777819D01*
X189457078Y-122109314D01*
X190135703Y-121430687D01*
X190135708Y-121430684D01*
X190145911Y-121420480D01*
X190145913Y-121420480D01*
X190220480Y-121345913D01*
X190246843Y-121300250D01*
X190273207Y-121254588D01*
X190300500Y-121152727D01*
X190300500Y-121047273D01*
X190300500Y-103465291D01*
X190320185Y-103398252D01*
X190372989Y-103352497D01*
X190442147Y-103342553D01*
X190481450Y-103357215D01*
X190481882Y-103356270D01*
X190489949Y-103359954D01*
X190628036Y-103400499D01*
X190628038Y-103400500D01*
X190628039Y-103400500D01*
X190771962Y-103400500D01*
X190771962Y-103400499D01*
X190910053Y-103359953D01*
X191031128Y-103282143D01*
X191125377Y-103173373D01*
X191185165Y-103042457D01*
X191205647Y-102900000D01*
X191185165Y-102757543D01*
X191125377Y-102626627D01*
X191031128Y-102517857D01*
X190910053Y-102440047D01*
X190910051Y-102440046D01*
X190910049Y-102440045D01*
X190910050Y-102440045D01*
X190771963Y-102399500D01*
X190771961Y-102399500D01*
X190628039Y-102399500D01*
X190628036Y-102399500D01*
X190489949Y-102440045D01*
X190481882Y-102443730D01*
X190481128Y-102442081D01*
X190424498Y-102458708D01*
X190357459Y-102439022D01*
X190311705Y-102386218D01*
X190300500Y-102334708D01*
X190300500Y-101505654D01*
X190320185Y-101438615D01*
X190336815Y-101417977D01*
X190768162Y-100986629D01*
X190829483Y-100953146D01*
X190899174Y-100958130D01*
G37*
%TD.AperFunction*%
%TA.AperFunction,Conductor*%
G36*
X205440406Y-98495185D02*
G01*
X205461048Y-98511819D01*
X206980681Y-100031452D01*
X207014166Y-100092775D01*
X207017000Y-100119133D01*
X207017000Y-101118735D01*
X206997315Y-101185774D01*
X206944511Y-101231529D01*
X206875353Y-101241473D01*
X206858066Y-101237712D01*
X206786164Y-101216600D01*
X206786161Y-101216600D01*
X206642239Y-101216600D01*
X206642236Y-101216600D01*
X206504149Y-101257145D01*
X206383073Y-101334956D01*
X206288823Y-101443726D01*
X206288822Y-101443728D01*
X206229034Y-101574643D01*
X206208553Y-101717100D01*
X206229034Y-101859556D01*
X206265572Y-101939562D01*
X206288823Y-101990473D01*
X206383072Y-102099243D01*
X206383075Y-102099244D01*
X206383413Y-102099635D01*
X206412438Y-102163191D01*
X206413700Y-102180838D01*
X206413700Y-114362900D01*
X206394015Y-114429939D01*
X206341211Y-114475694D01*
X206289700Y-114486900D01*
X206249036Y-114486900D01*
X206110949Y-114527445D01*
X205989873Y-114605256D01*
X205895623Y-114714026D01*
X205895622Y-114714028D01*
X205835834Y-114844943D01*
X205815353Y-114987400D01*
X205835834Y-115129856D01*
X205837679Y-115133895D01*
X205895623Y-115260773D01*
X205989872Y-115369543D01*
X206110947Y-115447353D01*
X206110950Y-115447354D01*
X206110949Y-115447354D01*
X206249036Y-115487899D01*
X206249038Y-115487900D01*
X206249039Y-115487900D01*
X206392962Y-115487900D01*
X206392962Y-115487899D01*
X206500121Y-115456435D01*
X206531050Y-115447354D01*
X206531050Y-115447353D01*
X206531053Y-115447353D01*
X206652128Y-115369543D01*
X206746377Y-115260773D01*
X206780206Y-115186699D01*
X206825961Y-115133895D01*
X206893000Y-115114210D01*
X206960039Y-115133895D01*
X207005794Y-115186699D01*
X207017000Y-115238210D01*
X207017000Y-116375962D01*
X207030652Y-116426913D01*
X207037479Y-116452390D01*
X207037482Y-116452395D01*
X207077035Y-116520904D01*
X207077041Y-116520912D01*
X213023181Y-122467052D01*
X213056666Y-122528375D01*
X213059500Y-122554733D01*
X213059500Y-122865500D01*
X213039815Y-122932539D01*
X212987011Y-122978294D01*
X212935500Y-122989500D01*
X212340247Y-122989500D01*
X212281770Y-123001131D01*
X212281769Y-123001132D01*
X212215447Y-123045447D01*
X212193102Y-123078890D01*
X212139489Y-123123695D01*
X212070164Y-123132402D01*
X212007137Y-123102247D01*
X211986898Y-123078890D01*
X211964552Y-123045447D01*
X211898230Y-123001132D01*
X211898229Y-123001131D01*
X211839752Y-122989500D01*
X211839748Y-122989500D01*
X209800252Y-122989500D01*
X209800247Y-122989500D01*
X209741770Y-123001131D01*
X209741769Y-123001132D01*
X209675447Y-123045447D01*
X209653102Y-123078890D01*
X209599489Y-123123695D01*
X209530164Y-123132402D01*
X209467137Y-123102247D01*
X209446898Y-123078890D01*
X209424552Y-123045447D01*
X209358230Y-123001132D01*
X209358229Y-123001131D01*
X209299752Y-122989500D01*
X209299748Y-122989500D01*
X208704500Y-122989500D01*
X208637461Y-122969815D01*
X208591706Y-122917011D01*
X208580500Y-122865500D01*
X208580500Y-121640440D01*
X208580499Y-121640433D01*
X208575018Y-121619978D01*
X208575018Y-121619979D01*
X208560022Y-121564012D01*
X208520460Y-121495489D01*
X207684511Y-120659540D01*
X207684509Y-120659539D01*
X207684504Y-120659535D01*
X207615995Y-120619982D01*
X207615990Y-120619979D01*
X207590513Y-120613152D01*
X207539562Y-120599500D01*
X207539560Y-120599500D01*
X199197433Y-120599500D01*
X199130394Y-120579815D01*
X199109752Y-120563181D01*
X196446571Y-117900000D01*
X206694353Y-117900000D01*
X206714834Y-118042456D01*
X206754627Y-118129588D01*
X206774623Y-118173373D01*
X206868872Y-118282143D01*
X206989947Y-118359953D01*
X206989950Y-118359954D01*
X206989949Y-118359954D01*
X207128036Y-118400499D01*
X207128038Y-118400500D01*
X207128039Y-118400500D01*
X207271962Y-118400500D01*
X207271962Y-118400499D01*
X207410053Y-118359953D01*
X207531128Y-118282143D01*
X207625377Y-118173373D01*
X207685165Y-118042457D01*
X207705647Y-117900000D01*
X207685165Y-117757543D01*
X207625377Y-117626627D01*
X207531128Y-117517857D01*
X207410053Y-117440047D01*
X207410051Y-117440046D01*
X207410049Y-117440045D01*
X207410050Y-117440045D01*
X207271963Y-117399500D01*
X207271961Y-117399500D01*
X207128039Y-117399500D01*
X207128036Y-117399500D01*
X206989949Y-117440045D01*
X206868873Y-117517856D01*
X206774623Y-117626626D01*
X206774622Y-117626628D01*
X206714834Y-117757543D01*
X206694353Y-117900000D01*
X196446571Y-117900000D01*
X196072171Y-117525600D01*
X196038686Y-117464277D01*
X196043670Y-117394585D01*
X196085542Y-117338652D01*
X196092798Y-117333614D01*
X196192028Y-117269843D01*
X196286277Y-117161073D01*
X196346065Y-117030157D01*
X196366547Y-116887700D01*
X196346065Y-116745243D01*
X196286277Y-116614327D01*
X196196484Y-116510700D01*
X196167461Y-116447147D01*
X196177405Y-116377989D01*
X196223159Y-116325185D01*
X196290199Y-116305500D01*
X197344750Y-116305500D01*
X197344751Y-116305499D01*
X197359568Y-116302552D01*
X197403229Y-116293868D01*
X197403229Y-116293867D01*
X197403231Y-116293867D01*
X197469552Y-116249552D01*
X197513867Y-116183231D01*
X197513867Y-116183229D01*
X197513868Y-116183229D01*
X197525499Y-116124752D01*
X197525500Y-116124750D01*
X197525500Y-115035249D01*
X197525499Y-115035247D01*
X197513868Y-114976770D01*
X197513867Y-114976769D01*
X197469552Y-114910447D01*
X197435979Y-114888015D01*
X197391174Y-114834403D01*
X197382467Y-114765078D01*
X197399875Y-114718942D01*
X197457789Y-114626775D01*
X197511786Y-114472461D01*
X197512094Y-114469729D01*
X197530091Y-114310003D01*
X197530091Y-114309996D01*
X197511787Y-114147544D01*
X197511786Y-114147542D01*
X197511786Y-114147539D01*
X197457789Y-113993225D01*
X197370808Y-113854796D01*
X197278693Y-113762681D01*
X197245208Y-113701358D01*
X197250192Y-113631666D01*
X197278693Y-113587319D01*
X197370808Y-113495204D01*
X197457789Y-113356775D01*
X197511786Y-113202461D01*
X197511787Y-113202455D01*
X197530091Y-113040003D01*
X197530091Y-113039996D01*
X197511787Y-112877544D01*
X197511786Y-112877542D01*
X197511786Y-112877539D01*
X197457789Y-112723225D01*
X197370808Y-112584796D01*
X197278693Y-112492681D01*
X197245208Y-112431358D01*
X197250192Y-112361666D01*
X197278693Y-112317319D01*
X197370808Y-112225204D01*
X197457789Y-112086775D01*
X197511786Y-111932461D01*
X197530091Y-111770000D01*
X197511786Y-111607539D01*
X197457789Y-111453225D01*
X197370808Y-111314796D01*
X197278693Y-111222681D01*
X197245208Y-111161358D01*
X197250192Y-111091666D01*
X197278693Y-111047319D01*
X197370808Y-110955204D01*
X197457789Y-110816775D01*
X197511786Y-110662461D01*
X197511787Y-110662455D01*
X197530091Y-110500003D01*
X197530091Y-110499996D01*
X197511787Y-110337544D01*
X197511786Y-110337542D01*
X197511786Y-110337539D01*
X197457789Y-110183225D01*
X197370808Y-110044796D01*
X197278693Y-109952681D01*
X197245208Y-109891358D01*
X197250192Y-109821666D01*
X197278693Y-109777319D01*
X197315967Y-109740045D01*
X197370808Y-109685204D01*
X197457789Y-109546775D01*
X197511786Y-109392461D01*
X197530091Y-109230000D01*
X197511786Y-109067539D01*
X197505283Y-109048957D01*
X197501723Y-108979180D01*
X197534643Y-108920326D01*
X199268760Y-107186211D01*
X199277021Y-107171901D01*
X199292435Y-107145205D01*
X199292435Y-107145204D01*
X199308321Y-107117689D01*
X199328800Y-107041262D01*
X199328800Y-107024500D01*
X199348485Y-106957461D01*
X199401289Y-106911706D01*
X199452800Y-106900500D01*
X200399750Y-106900500D01*
X200399751Y-106900499D01*
X200410934Y-106898275D01*
X200442242Y-106892048D01*
X200511833Y-106898275D01*
X200567011Y-106941138D01*
X200589091Y-106995471D01*
X200598002Y-107055550D01*
X200730845Y-107126556D01*
X200924067Y-107185170D01*
X201125000Y-107204959D01*
X201325932Y-107185170D01*
X201519152Y-107126557D01*
X201651995Y-107055549D01*
X201868002Y-107055549D01*
X202000847Y-107126557D01*
X202194067Y-107185170D01*
X202395000Y-107204959D01*
X202595932Y-107185170D01*
X202789152Y-107126557D01*
X202921994Y-107055550D01*
X204408002Y-107055550D01*
X204540845Y-107126556D01*
X204734067Y-107185170D01*
X204935000Y-107204959D01*
X205135932Y-107185170D01*
X205329152Y-107126557D01*
X205461996Y-107055549D01*
X204935001Y-106528553D01*
X204935000Y-106528553D01*
X204408002Y-107055550D01*
X202921994Y-107055550D01*
X202921996Y-107055549D01*
X202395001Y-106528553D01*
X202395000Y-106528553D01*
X201868002Y-107055549D01*
X201651995Y-107055549D01*
X201125001Y-106528553D01*
X201125000Y-106528553D01*
X200781819Y-106871733D01*
X200720496Y-106905218D01*
X200650804Y-106900234D01*
X200594871Y-106858362D01*
X200570454Y-106792898D01*
X200572521Y-106759859D01*
X200575317Y-106745807D01*
X200580500Y-106719748D01*
X200580500Y-106417308D01*
X200600185Y-106350269D01*
X200616819Y-106329627D01*
X200800000Y-106146446D01*
X200800000Y-106217787D01*
X200822149Y-106300445D01*
X200864936Y-106374554D01*
X200925446Y-106435064D01*
X200999555Y-106477851D01*
X201082213Y-106500000D01*
X201167787Y-106500000D01*
X201250445Y-106477851D01*
X201324554Y-106435064D01*
X201385064Y-106374554D01*
X201427851Y-106300445D01*
X201450000Y-106217787D01*
X201450000Y-106175000D01*
X201478553Y-106175000D01*
X201760000Y-106456446D01*
X201760001Y-106456446D01*
X202041446Y-106175001D01*
X202041446Y-106174999D01*
X201760001Y-105893553D01*
X201760000Y-105893553D01*
X201478553Y-106175000D01*
X201450000Y-106175000D01*
X201450000Y-106132213D01*
X201427851Y-106049555D01*
X201385064Y-105975446D01*
X201324554Y-105914936D01*
X201250445Y-105872149D01*
X201167787Y-105850000D01*
X201096446Y-105850000D01*
X201124999Y-105821447D01*
X201332360Y-105614084D01*
X201379085Y-105584724D01*
X201441775Y-105562789D01*
X201580204Y-105475808D01*
X201672319Y-105383693D01*
X201733642Y-105350208D01*
X201803334Y-105355192D01*
X201847681Y-105383693D01*
X201939796Y-105475808D01*
X202078225Y-105562789D01*
X202140911Y-105584724D01*
X202187638Y-105614084D01*
X202395000Y-105821447D01*
X202423553Y-105850000D01*
X202352213Y-105850000D01*
X202269555Y-105872149D01*
X202195446Y-105914936D01*
X202134936Y-105975446D01*
X202092149Y-106049555D01*
X202070000Y-106132213D01*
X202070000Y-106217787D01*
X202092149Y-106300445D01*
X202134936Y-106374554D01*
X202195446Y-106435064D01*
X202269555Y-106477851D01*
X202352213Y-106500000D01*
X202437787Y-106500000D01*
X202520445Y-106477851D01*
X202594554Y-106435064D01*
X202655064Y-106374554D01*
X202697851Y-106300445D01*
X202720000Y-106217787D01*
X202720000Y-106146446D01*
X202955915Y-106382361D01*
X202985275Y-106429087D01*
X203007210Y-106491773D01*
X203007212Y-106491777D01*
X203022969Y-106516854D01*
X203094192Y-106630204D01*
X203209796Y-106745808D01*
X203348225Y-106832789D01*
X203502539Y-106886786D01*
X203502542Y-106886786D01*
X203502544Y-106886787D01*
X203664996Y-106905091D01*
X203665000Y-106905091D01*
X203665004Y-106905091D01*
X203827455Y-106886787D01*
X203827456Y-106886786D01*
X203827461Y-106886786D01*
X203981775Y-106832789D01*
X204120204Y-106745808D01*
X204235808Y-106630204D01*
X204322789Y-106491775D01*
X204344724Y-106429085D01*
X204374084Y-106382360D01*
X204610000Y-106146444D01*
X204610000Y-106217787D01*
X204632149Y-106300445D01*
X204674936Y-106374554D01*
X204735446Y-106435064D01*
X204809555Y-106477851D01*
X204892213Y-106500000D01*
X204977787Y-106500000D01*
X205060445Y-106477851D01*
X205134554Y-106435064D01*
X205195064Y-106374554D01*
X205237851Y-106300445D01*
X205260000Y-106217787D01*
X205260000Y-106175000D01*
X205288553Y-106175000D01*
X205815549Y-106701996D01*
X205886557Y-106569152D01*
X205945170Y-106375932D01*
X205964959Y-106175000D01*
X205945170Y-105974067D01*
X205886556Y-105780845D01*
X205815550Y-105648002D01*
X205288553Y-106175000D01*
X205260000Y-106175000D01*
X205260000Y-106132213D01*
X205237851Y-106049555D01*
X205195064Y-105975446D01*
X205134554Y-105914936D01*
X205060445Y-105872149D01*
X204977787Y-105850000D01*
X204906446Y-105850000D01*
X204934999Y-105821447D01*
X205142360Y-105614084D01*
X205189085Y-105584724D01*
X205251775Y-105562789D01*
X205390204Y-105475808D01*
X205505808Y-105360204D01*
X205592789Y-105221775D01*
X205646786Y-105067461D01*
X205653824Y-105004999D01*
X205665091Y-104905003D01*
X205665091Y-104904996D01*
X205646787Y-104742544D01*
X205646786Y-104742542D01*
X205646786Y-104742539D01*
X205592789Y-104588225D01*
X205505808Y-104449796D01*
X205390204Y-104334192D01*
X205390202Y-104334190D01*
X205293527Y-104273445D01*
X205247237Y-104221111D01*
X205235500Y-104168452D01*
X205235500Y-98599500D01*
X205255185Y-98532461D01*
X205307989Y-98486706D01*
X205359500Y-98475500D01*
X205373367Y-98475500D01*
X205440406Y-98495185D01*
G37*
%TD.AperFunction*%
%TA.AperFunction,Conductor*%
G36*
X196828605Y-85066878D02*
G01*
X196884538Y-85108750D01*
X196898064Y-85131546D01*
X196909721Y-85157069D01*
X196909723Y-85157073D01*
X197003972Y-85265843D01*
X197003975Y-85265844D01*
X197004313Y-85266235D01*
X197033338Y-85329791D01*
X197034600Y-85347438D01*
X197034600Y-85737962D01*
X197048252Y-85788913D01*
X197055079Y-85814390D01*
X197061120Y-85824852D01*
X197061121Y-85824857D01*
X197061122Y-85824857D01*
X197094635Y-85882904D01*
X197094641Y-85882912D01*
X197343181Y-86131452D01*
X197376666Y-86192775D01*
X197379500Y-86219133D01*
X197379500Y-89889562D01*
X197389476Y-89926793D01*
X197399979Y-89965990D01*
X197413103Y-89988720D01*
X197422011Y-90004150D01*
X197431275Y-90020194D01*
X197431277Y-90020201D01*
X197431278Y-90020201D01*
X197439537Y-90034508D01*
X197439541Y-90034513D01*
X198039881Y-90634852D01*
X198073366Y-90696175D01*
X198076200Y-90722533D01*
X198076200Y-92255500D01*
X198056515Y-92322539D01*
X198003711Y-92368294D01*
X197952200Y-92379500D01*
X197928036Y-92379500D01*
X197789949Y-92420045D01*
X197668873Y-92497856D01*
X197574623Y-92606626D01*
X197574622Y-92606628D01*
X197514834Y-92737543D01*
X197494353Y-92880000D01*
X197514834Y-93022455D01*
X197538269Y-93073770D01*
X197548212Y-93142929D01*
X197519186Y-93206484D01*
X197492514Y-93229596D01*
X197368874Y-93309055D01*
X197368872Y-93309056D01*
X197368872Y-93309057D01*
X197360349Y-93318893D01*
X197274623Y-93417826D01*
X197274622Y-93417828D01*
X197214834Y-93548743D01*
X197194353Y-93691200D01*
X197203936Y-93757854D01*
X197193992Y-93827012D01*
X197148237Y-93879816D01*
X197081198Y-93899500D01*
X197028036Y-93899500D01*
X196889949Y-93940045D01*
X196768873Y-94017856D01*
X196674623Y-94126626D01*
X196674622Y-94126628D01*
X196614834Y-94257543D01*
X196594353Y-94400000D01*
X196614834Y-94542456D01*
X196647799Y-94614638D01*
X196674623Y-94673373D01*
X196768872Y-94782143D01*
X196889947Y-94859953D01*
X196889950Y-94859954D01*
X196889949Y-94859954D01*
X197006262Y-94894106D01*
X197059009Y-94925402D01*
X197123181Y-94989574D01*
X197156666Y-95050897D01*
X197159500Y-95077255D01*
X197159500Y-104850426D01*
X197186793Y-104952289D01*
X197200162Y-104975444D01*
X197239520Y-105043613D01*
X197410970Y-105215062D01*
X197444454Y-105276383D01*
X197446026Y-105285094D01*
X197450434Y-105315753D01*
X197450435Y-105315758D01*
X197506812Y-105439205D01*
X197510223Y-105446673D01*
X197604472Y-105555443D01*
X197725547Y-105633253D01*
X197725550Y-105633254D01*
X197725549Y-105633254D01*
X197863636Y-105673799D01*
X197863638Y-105673800D01*
X197863639Y-105673800D01*
X198007561Y-105673800D01*
X198077865Y-105653157D01*
X198147735Y-105653157D01*
X198206513Y-105690931D01*
X198235538Y-105754487D01*
X198236800Y-105772134D01*
X198236800Y-106046866D01*
X198217115Y-106113905D01*
X198200481Y-106134547D01*
X197723802Y-106611226D01*
X197662479Y-106644711D01*
X197592787Y-106639727D01*
X197536854Y-106597855D01*
X197512901Y-106537428D01*
X197511787Y-106527544D01*
X197511786Y-106527542D01*
X197511786Y-106527539D01*
X197457789Y-106373225D01*
X197370808Y-106234796D01*
X197255204Y-106119192D01*
X197215162Y-106094032D01*
X197116774Y-106032210D01*
X196962455Y-105978212D01*
X196800004Y-105959909D01*
X196799996Y-105959909D01*
X196637544Y-105978212D01*
X196483225Y-106032210D01*
X196344797Y-106119191D01*
X196321481Y-106142507D01*
X196260157Y-106175991D01*
X196190465Y-106171005D01*
X196147911Y-106139531D01*
X196145607Y-106141836D01*
X196083910Y-106080139D01*
X196030935Y-106049555D01*
X196015388Y-106040579D01*
X195938962Y-106020100D01*
X195859838Y-106020100D01*
X195859834Y-106020100D01*
X195854461Y-106020807D01*
X195797328Y-106014908D01*
X195783543Y-106010084D01*
X195726769Y-105969363D01*
X195701022Y-105904410D01*
X195700500Y-105893044D01*
X195700500Y-103504881D01*
X195720185Y-103437842D01*
X195772989Y-103392087D01*
X195842147Y-103382143D01*
X195905703Y-103411168D01*
X195918213Y-103423679D01*
X195965499Y-103478251D01*
X195968872Y-103482143D01*
X196089947Y-103559953D01*
X196089950Y-103559954D01*
X196089949Y-103559954D01*
X196228036Y-103600499D01*
X196228038Y-103600500D01*
X196228039Y-103600500D01*
X196371962Y-103600500D01*
X196371962Y-103600499D01*
X196510053Y-103559953D01*
X196631128Y-103482143D01*
X196725377Y-103373373D01*
X196785165Y-103242457D01*
X196805647Y-103100000D01*
X196785165Y-102957543D01*
X196725377Y-102826627D01*
X196631128Y-102717857D01*
X196510053Y-102640047D01*
X196510051Y-102640046D01*
X196510049Y-102640045D01*
X196510050Y-102640045D01*
X196371963Y-102599500D01*
X196371961Y-102599500D01*
X196228039Y-102599500D01*
X196228036Y-102599500D01*
X196089949Y-102640045D01*
X195968873Y-102717856D01*
X195968872Y-102717856D01*
X195968872Y-102717857D01*
X195945741Y-102744552D01*
X195918213Y-102776321D01*
X195859434Y-102814095D01*
X195789565Y-102814095D01*
X195730787Y-102776320D01*
X195701762Y-102712765D01*
X195700500Y-102695118D01*
X195700500Y-100075833D01*
X195720185Y-100008794D01*
X195736819Y-99988152D01*
X195823533Y-99901438D01*
X195911960Y-99813011D01*
X195932456Y-99777511D01*
X195951521Y-99744489D01*
X195972000Y-99668062D01*
X195972000Y-96804333D01*
X195991685Y-96737294D01*
X196008319Y-96716652D01*
X196240457Y-96484514D01*
X196240460Y-96484511D01*
X196246890Y-96473373D01*
X196246892Y-96473371D01*
X196280018Y-96415994D01*
X196280020Y-96415991D01*
X196280155Y-96415489D01*
X196300500Y-96339562D01*
X196300500Y-95660438D01*
X196280021Y-95584011D01*
X196263761Y-95555847D01*
X196240464Y-95515495D01*
X196240458Y-95515487D01*
X196107519Y-95382548D01*
X196074034Y-95321225D01*
X196071200Y-95294867D01*
X196071200Y-90815333D01*
X196090885Y-90748294D01*
X196107519Y-90727652D01*
X196351913Y-90483258D01*
X196600204Y-90234966D01*
X196655289Y-90204888D01*
X196654852Y-90203399D01*
X196801450Y-90160354D01*
X196801450Y-90160353D01*
X196801453Y-90160353D01*
X196922528Y-90082543D01*
X197016777Y-89973773D01*
X197076565Y-89842857D01*
X197097047Y-89700400D01*
X197076565Y-89557943D01*
X197016777Y-89427027D01*
X196922528Y-89318257D01*
X196801453Y-89240447D01*
X196801451Y-89240446D01*
X196801449Y-89240445D01*
X196801450Y-89240445D01*
X196663363Y-89199900D01*
X196663361Y-89199900D01*
X196519439Y-89199900D01*
X196519436Y-89199900D01*
X196381349Y-89240445D01*
X196260273Y-89318256D01*
X196166023Y-89427026D01*
X196166022Y-89427028D01*
X196106234Y-89557944D01*
X196103735Y-89566456D01*
X196101645Y-89565842D01*
X196077658Y-89618364D01*
X196018878Y-89656136D01*
X195949008Y-89656133D01*
X195890235Y-89618359D01*
X195847429Y-89568958D01*
X195847428Y-89568957D01*
X195726353Y-89491147D01*
X195726351Y-89491146D01*
X195726349Y-89491145D01*
X195726350Y-89491145D01*
X195588263Y-89450600D01*
X195588261Y-89450600D01*
X195444339Y-89450600D01*
X195444336Y-89450600D01*
X195306249Y-89491145D01*
X195185173Y-89568956D01*
X195090923Y-89677726D01*
X195090922Y-89677728D01*
X195031134Y-89808643D01*
X195010653Y-89951100D01*
X195010653Y-89951101D01*
X195011961Y-89960203D01*
X195002013Y-90029361D01*
X194976903Y-90065524D01*
X193215489Y-91826940D01*
X193159541Y-91882887D01*
X193159535Y-91882895D01*
X193119982Y-91951404D01*
X193119979Y-91951409D01*
X193109467Y-91990641D01*
X193099809Y-92026687D01*
X193099500Y-92027839D01*
X193099500Y-95224167D01*
X193079815Y-95291206D01*
X193063181Y-95311848D01*
X192501747Y-95873281D01*
X192440424Y-95906766D01*
X192370732Y-95901782D01*
X192314799Y-95859910D01*
X192290382Y-95794446D01*
X192301272Y-95734089D01*
X192317865Y-95697757D01*
X192338347Y-95555300D01*
X192317865Y-95412843D01*
X192258077Y-95281927D01*
X192163828Y-95173157D01*
X192042753Y-95095347D01*
X192042751Y-95095346D01*
X192042749Y-95095345D01*
X192042750Y-95095345D01*
X191904663Y-95054800D01*
X191904661Y-95054800D01*
X191760739Y-95054800D01*
X191760736Y-95054800D01*
X191622649Y-95095345D01*
X191501572Y-95173156D01*
X191483812Y-95193653D01*
X191425033Y-95231427D01*
X191355164Y-95231426D01*
X191296386Y-95193650D01*
X191267362Y-95130094D01*
X191266100Y-95112449D01*
X191266100Y-94966533D01*
X191285785Y-94899494D01*
X191302419Y-94878852D01*
X191415445Y-94765826D01*
X191534860Y-94646411D01*
X191546258Y-94626669D01*
X191574421Y-94577889D01*
X191594900Y-94501462D01*
X191594900Y-93923938D01*
X191575695Y-93852265D01*
X191577357Y-93782416D01*
X191616518Y-93724553D01*
X191680747Y-93697048D01*
X191719114Y-93700252D01*
X191719260Y-93699238D01*
X191728038Y-93700500D01*
X191728039Y-93700500D01*
X191871962Y-93700500D01*
X191871962Y-93700499D01*
X192010053Y-93659953D01*
X192131128Y-93582143D01*
X192225377Y-93473373D01*
X192285165Y-93342457D01*
X192305647Y-93200000D01*
X192285165Y-93057543D01*
X192225377Y-92926627D01*
X192131128Y-92817857D01*
X192010053Y-92740047D01*
X192010051Y-92740046D01*
X192010049Y-92740045D01*
X192010050Y-92740045D01*
X191871963Y-92699500D01*
X191863184Y-92698238D01*
X191863522Y-92695885D01*
X191808794Y-92679815D01*
X191788152Y-92663181D01*
X191281740Y-92156769D01*
X191248255Y-92095446D01*
X191253239Y-92025754D01*
X191295111Y-91969821D01*
X191302359Y-91964787D01*
X191407928Y-91896943D01*
X191502177Y-91788173D01*
X191561965Y-91657257D01*
X191582447Y-91514800D01*
X191561965Y-91372343D01*
X191502177Y-91241427D01*
X191407928Y-91132657D01*
X191286853Y-91054847D01*
X191286851Y-91054846D01*
X191286849Y-91054845D01*
X191286850Y-91054845D01*
X191148763Y-91014300D01*
X191148761Y-91014300D01*
X191004839Y-91014300D01*
X191004836Y-91014300D01*
X190866749Y-91054845D01*
X190745673Y-91132656D01*
X190651423Y-91241426D01*
X190651422Y-91241428D01*
X190591634Y-91372343D01*
X190574449Y-91491873D01*
X190571153Y-91514800D01*
X190591179Y-91654087D01*
X190591721Y-91657853D01*
X190581777Y-91727011D01*
X190536022Y-91779815D01*
X190468983Y-91799500D01*
X190460438Y-91799500D01*
X190384012Y-91819978D01*
X190384011Y-91819978D01*
X190384009Y-91819979D01*
X190384006Y-91819980D01*
X190358713Y-91834583D01*
X190290813Y-91851054D01*
X190224786Y-91828201D01*
X190181597Y-91773279D01*
X190173978Y-91709544D01*
X190174747Y-91704200D01*
X190154265Y-91561743D01*
X190094477Y-91430827D01*
X190000228Y-91322057D01*
X189879153Y-91244247D01*
X189879151Y-91244246D01*
X189879149Y-91244245D01*
X189879150Y-91244245D01*
X189741063Y-91203700D01*
X189741061Y-91203700D01*
X189644933Y-91203700D01*
X189577894Y-91184015D01*
X189557252Y-91167381D01*
X189092052Y-90702181D01*
X189058567Y-90640858D01*
X189063551Y-90571166D01*
X189105423Y-90515233D01*
X189170887Y-90490816D01*
X189179733Y-90490500D01*
X189251962Y-90490500D01*
X189251962Y-90490499D01*
X189384444Y-90451600D01*
X189390050Y-90449954D01*
X189390050Y-90449953D01*
X189390053Y-90449953D01*
X189511128Y-90372143D01*
X189521806Y-90359818D01*
X189536124Y-90343297D01*
X189594902Y-90305523D01*
X189629836Y-90300500D01*
X191876960Y-90300500D01*
X191876962Y-90300500D01*
X191953389Y-90280021D01*
X192021911Y-90240460D01*
X192077860Y-90184511D01*
X192555860Y-89706511D01*
X192555864Y-89706502D01*
X192556447Y-89705745D01*
X192557114Y-89705257D01*
X192561608Y-89700764D01*
X192562308Y-89701464D01*
X192612872Y-89664538D01*
X192682618Y-89660378D01*
X192706352Y-89668435D01*
X192707040Y-89668748D01*
X192707047Y-89668753D01*
X192835664Y-89706518D01*
X192845136Y-89709299D01*
X192845138Y-89709300D01*
X192845139Y-89709300D01*
X192989060Y-89709300D01*
X192989061Y-89709300D01*
X193027842Y-89697912D01*
X193097708Y-89697912D01*
X193156487Y-89735686D01*
X193185513Y-89799241D01*
X193175570Y-89868400D01*
X193150456Y-89904571D01*
X192711847Y-90343181D01*
X192650524Y-90376666D01*
X192624166Y-90379500D01*
X192528036Y-90379500D01*
X192389949Y-90420045D01*
X192268873Y-90497856D01*
X192174623Y-90606626D01*
X192174622Y-90606628D01*
X192114834Y-90737543D01*
X192094353Y-90880000D01*
X192114834Y-91022456D01*
X192146421Y-91091620D01*
X192174623Y-91153373D01*
X192268872Y-91262143D01*
X192389947Y-91339953D01*
X192389950Y-91339954D01*
X192389949Y-91339954D01*
X192497107Y-91371417D01*
X192513210Y-91376146D01*
X192528036Y-91380499D01*
X192528038Y-91380500D01*
X192528039Y-91380500D01*
X192671962Y-91380500D01*
X192671962Y-91380499D01*
X192810053Y-91339953D01*
X192931128Y-91262143D01*
X193025377Y-91153373D01*
X193085165Y-91022457D01*
X193105647Y-90880000D01*
X193104339Y-90870905D01*
X193114279Y-90801749D01*
X193139392Y-90765577D01*
X195144360Y-88760611D01*
X195183922Y-88692088D01*
X195187397Y-88679116D01*
X195223758Y-88619457D01*
X195286603Y-88588925D01*
X195342106Y-88592230D01*
X195433845Y-88619166D01*
X195445295Y-88622528D01*
X195456436Y-88625799D01*
X195456438Y-88625800D01*
X195456439Y-88625800D01*
X195600362Y-88625800D01*
X195600362Y-88625799D01*
X195738453Y-88585253D01*
X195859528Y-88507443D01*
X195953777Y-88398673D01*
X196013565Y-88267757D01*
X196034047Y-88125300D01*
X196013565Y-87982843D01*
X195953777Y-87851927D01*
X195859528Y-87743157D01*
X195738453Y-87665347D01*
X195738451Y-87665346D01*
X195738449Y-87665345D01*
X195738450Y-87665345D01*
X195600363Y-87624800D01*
X195600361Y-87624800D01*
X195456439Y-87624800D01*
X195456436Y-87624800D01*
X195363334Y-87652137D01*
X195293465Y-87652137D01*
X195234687Y-87614362D01*
X195205662Y-87550806D01*
X195204400Y-87533160D01*
X195204400Y-86639932D01*
X195224085Y-86572893D01*
X195240714Y-86552256D01*
X196697592Y-85095377D01*
X196758913Y-85061894D01*
X196828605Y-85066878D01*
G37*
%TD.AperFunction*%
%TA.AperFunction,Conductor*%
G36*
X200263634Y-97681451D02*
G01*
X200319567Y-97723323D01*
X200343984Y-97788787D01*
X200344300Y-97797633D01*
X200344300Y-103939366D01*
X200324615Y-104006405D01*
X200307981Y-104027048D01*
X200164673Y-104170355D01*
X200103350Y-104203839D01*
X200036040Y-104199715D01*
X200017461Y-104193214D01*
X200017457Y-104193213D01*
X200017453Y-104193212D01*
X199855004Y-104174909D01*
X199854996Y-104174909D01*
X199692544Y-104193212D01*
X199538223Y-104247211D01*
X199518770Y-104259434D01*
X199451532Y-104278433D01*
X199384698Y-104258064D01*
X199339485Y-104204795D01*
X199328800Y-104154439D01*
X199328800Y-98565133D01*
X199348485Y-98498094D01*
X199365119Y-98477452D01*
X200132619Y-97709952D01*
X200193942Y-97676467D01*
X200263634Y-97681451D01*
G37*
%TD.AperFunction*%
%TA.AperFunction,Conductor*%
G36*
X187113525Y-92501285D02*
G01*
X187140197Y-92524395D01*
X187173772Y-92563143D01*
X187294847Y-92640953D01*
X187294850Y-92640954D01*
X187294849Y-92640954D01*
X187370549Y-92663181D01*
X187427905Y-92680022D01*
X187432936Y-92681499D01*
X187432938Y-92681500D01*
X187432939Y-92681500D01*
X187576862Y-92681500D01*
X187576862Y-92681499D01*
X187714953Y-92640953D01*
X187728656Y-92632146D01*
X187795693Y-92612461D01*
X187862733Y-92632144D01*
X187908489Y-92684947D01*
X187918434Y-92754105D01*
X187908491Y-92787972D01*
X187854934Y-92905245D01*
X187834453Y-93047700D01*
X187854934Y-93190156D01*
X187914722Y-93321071D01*
X187914723Y-93321073D01*
X188008972Y-93429843D01*
X188130047Y-93507653D01*
X188130050Y-93507654D01*
X188130049Y-93507654D01*
X188268136Y-93548199D01*
X188268138Y-93548200D01*
X188268139Y-93548200D01*
X188412062Y-93548200D01*
X188412062Y-93548199D01*
X188543594Y-93509579D01*
X188550150Y-93507654D01*
X188550150Y-93507653D01*
X188550153Y-93507653D01*
X188671228Y-93429843D01*
X188737298Y-93353592D01*
X188796073Y-93315820D01*
X188865943Y-93315820D01*
X188924721Y-93353593D01*
X188953747Y-93417149D01*
X188943804Y-93486307D01*
X188943804Y-93486308D01*
X188916934Y-93545144D01*
X188896453Y-93687600D01*
X188896453Y-93687601D01*
X188897761Y-93696703D01*
X188887813Y-93765861D01*
X188862703Y-93802024D01*
X187215489Y-95449240D01*
X187159541Y-95505187D01*
X187159535Y-95505195D01*
X187136001Y-95545957D01*
X187085434Y-95594172D01*
X187016827Y-95607394D01*
X186951962Y-95581426D01*
X186911434Y-95524511D01*
X186905877Y-95501602D01*
X186901818Y-95473373D01*
X186885165Y-95357543D01*
X186825377Y-95226627D01*
X186731128Y-95117857D01*
X186610053Y-95040047D01*
X186610051Y-95040046D01*
X186610049Y-95040045D01*
X186610050Y-95040045D01*
X186471963Y-94999500D01*
X186471961Y-94999500D01*
X186328039Y-94999500D01*
X186328036Y-94999500D01*
X186189949Y-95040045D01*
X186068873Y-95117856D01*
X185974623Y-95226626D01*
X185974622Y-95226628D01*
X185914834Y-95357543D01*
X185894353Y-95500000D01*
X185914834Y-95642456D01*
X185964743Y-95751740D01*
X185974623Y-95773373D01*
X186068872Y-95882143D01*
X186189947Y-95959953D01*
X186189950Y-95959954D01*
X186189949Y-95959954D01*
X186297107Y-95991417D01*
X186326336Y-96000000D01*
X186328036Y-96000499D01*
X186328038Y-96000500D01*
X186328039Y-96000500D01*
X186471962Y-96000500D01*
X186471962Y-96000499D01*
X186579121Y-95969035D01*
X186610050Y-95959954D01*
X186610050Y-95959953D01*
X186610053Y-95959953D01*
X186731128Y-95882143D01*
X186825377Y-95773373D01*
X186839182Y-95743146D01*
X186862706Y-95691635D01*
X186908461Y-95638831D01*
X186975500Y-95619146D01*
X187042539Y-95638831D01*
X187088294Y-95691635D01*
X187099500Y-95743146D01*
X187099500Y-97936260D01*
X187079815Y-98003299D01*
X187069213Y-98017462D01*
X186974625Y-98126622D01*
X186974622Y-98126628D01*
X186914834Y-98257543D01*
X186894353Y-98400000D01*
X186914834Y-98542456D01*
X186936932Y-98590843D01*
X186974623Y-98673373D01*
X187068872Y-98782143D01*
X187189947Y-98859953D01*
X187189950Y-98859954D01*
X187189949Y-98859954D01*
X187328036Y-98900499D01*
X187328038Y-98900500D01*
X187328039Y-98900500D01*
X187471962Y-98900500D01*
X187471962Y-98900499D01*
X187586029Y-98867007D01*
X187610050Y-98859954D01*
X187610050Y-98859953D01*
X187610053Y-98859953D01*
X187731128Y-98782143D01*
X187825377Y-98673373D01*
X187885165Y-98542457D01*
X187905647Y-98400000D01*
X187885165Y-98257543D01*
X187825377Y-98126627D01*
X187825375Y-98126625D01*
X187825374Y-98126622D01*
X187730787Y-98017462D01*
X187701762Y-97953906D01*
X187700500Y-97936260D01*
X187700500Y-95865532D01*
X187720185Y-95798493D01*
X187736814Y-95777856D01*
X189290251Y-94224418D01*
X189351574Y-94190934D01*
X189377932Y-94188100D01*
X189474062Y-94188100D01*
X189474062Y-94188099D01*
X189581221Y-94156635D01*
X189612150Y-94147554D01*
X189612150Y-94147553D01*
X189612153Y-94147553D01*
X189733228Y-94069743D01*
X189827477Y-93960973D01*
X189844696Y-93923268D01*
X189890449Y-93870467D01*
X189957488Y-93850782D01*
X190019490Y-93867396D01*
X190060406Y-93891019D01*
X190060407Y-93891019D01*
X190060412Y-93891022D01*
X190136838Y-93911500D01*
X190766067Y-93911500D01*
X190833106Y-93931185D01*
X190853748Y-93947819D01*
X190957581Y-94051652D01*
X190991066Y-94112975D01*
X190993900Y-94139333D01*
X190993900Y-94286067D01*
X190974215Y-94353106D01*
X190957581Y-94373748D01*
X190725141Y-94606187D01*
X190725135Y-94606195D01*
X190685582Y-94674704D01*
X190685579Y-94674709D01*
X190665100Y-94751139D01*
X190665100Y-95536260D01*
X190645415Y-95603299D01*
X190634813Y-95617462D01*
X190540225Y-95726622D01*
X190540222Y-95726628D01*
X190480434Y-95857543D01*
X190459953Y-96000000D01*
X190480434Y-96142456D01*
X190512266Y-96212156D01*
X190540223Y-96273373D01*
X190634472Y-96382143D01*
X190755547Y-96459953D01*
X190755550Y-96459954D01*
X190755549Y-96459954D01*
X190893636Y-96500499D01*
X190893638Y-96500500D01*
X190893639Y-96500500D01*
X191037562Y-96500500D01*
X191037562Y-96500499D01*
X191175653Y-96459953D01*
X191296728Y-96382143D01*
X191390977Y-96273373D01*
X191450765Y-96142457D01*
X191454944Y-96113390D01*
X191483968Y-96049835D01*
X191542746Y-96012060D01*
X191612616Y-96012060D01*
X191615743Y-96013226D01*
X191760736Y-96055799D01*
X191760738Y-96055800D01*
X191760739Y-96055800D01*
X191904661Y-96055800D01*
X192025408Y-96020346D01*
X192095278Y-96020346D01*
X192154056Y-96058120D01*
X192183081Y-96121676D01*
X192173137Y-96190835D01*
X192148024Y-96227004D01*
X187915489Y-100459540D01*
X187859541Y-100515487D01*
X187859535Y-100515495D01*
X187819982Y-100584004D01*
X187819979Y-100584009D01*
X187799500Y-100660439D01*
X187799500Y-101034708D01*
X187779815Y-101101747D01*
X187727011Y-101147502D01*
X187657853Y-101157446D01*
X187618548Y-101142786D01*
X187618118Y-101143730D01*
X187610050Y-101140045D01*
X187471963Y-101099500D01*
X187471961Y-101099500D01*
X187328039Y-101099500D01*
X187328036Y-101099500D01*
X187189949Y-101140045D01*
X187068873Y-101217856D01*
X186974623Y-101326626D01*
X186974622Y-101326628D01*
X186914835Y-101457541D01*
X186914834Y-101457545D01*
X186905802Y-101520363D01*
X186902840Y-101534802D01*
X186899501Y-101547265D01*
X186899500Y-101547273D01*
X186899500Y-101555331D01*
X186898238Y-101572977D01*
X186894353Y-101599999D01*
X186898238Y-101627020D01*
X186899500Y-101644667D01*
X186899500Y-101652725D01*
X186899501Y-101652733D01*
X186902840Y-101665197D01*
X186905802Y-101679636D01*
X186914834Y-101742453D01*
X186914835Y-101742458D01*
X186963557Y-101849142D01*
X186974623Y-101873373D01*
X187068872Y-101982143D01*
X187188846Y-102059245D01*
X187209485Y-102075878D01*
X187421426Y-102287819D01*
X187454911Y-102349142D01*
X187449927Y-102418834D01*
X187408055Y-102474767D01*
X187342591Y-102499184D01*
X187333745Y-102499500D01*
X185775833Y-102499500D01*
X185708794Y-102479815D01*
X185688152Y-102463181D01*
X185036819Y-101811848D01*
X185003334Y-101750525D01*
X185000500Y-101724167D01*
X185000500Y-98360439D01*
X184995047Y-98340089D01*
X184980021Y-98284011D01*
X184973864Y-98273347D01*
X184940464Y-98215495D01*
X184940458Y-98215487D01*
X182736819Y-96011848D01*
X182703334Y-95950525D01*
X182700500Y-95924167D01*
X182700500Y-95765291D01*
X182720185Y-95698252D01*
X182772989Y-95652497D01*
X182842147Y-95642553D01*
X182881450Y-95657215D01*
X182881882Y-95656270D01*
X182889949Y-95659954D01*
X182997107Y-95691417D01*
X183024633Y-95699500D01*
X183028036Y-95700499D01*
X183028038Y-95700500D01*
X183028039Y-95700500D01*
X183171962Y-95700500D01*
X183171962Y-95700499D01*
X183308398Y-95660439D01*
X183310050Y-95659954D01*
X183310050Y-95659953D01*
X183310053Y-95659953D01*
X183431128Y-95582143D01*
X183525377Y-95473373D01*
X183585165Y-95342457D01*
X183605647Y-95200000D01*
X183585165Y-95057543D01*
X183525377Y-94926627D01*
X183525375Y-94926625D01*
X183525374Y-94926622D01*
X183430787Y-94817462D01*
X183401762Y-94753906D01*
X183400500Y-94736260D01*
X183400500Y-94693033D01*
X183420185Y-94625994D01*
X183436819Y-94605352D01*
X185524252Y-92517919D01*
X185585575Y-92484434D01*
X185611933Y-92481600D01*
X187046486Y-92481600D01*
X187113525Y-92501285D01*
G37*
%TD.AperFunction*%
%TA.AperFunction,Conductor*%
G36*
X195389534Y-90605350D02*
G01*
X195445467Y-90647222D01*
X195469884Y-90712686D01*
X195470200Y-90721532D01*
X195470200Y-95391300D01*
X195450515Y-95458339D01*
X195397711Y-95504094D01*
X195346200Y-95515300D01*
X195199536Y-95515300D01*
X195061449Y-95555845D01*
X194940373Y-95633656D01*
X194846123Y-95742426D01*
X194846122Y-95742428D01*
X194786334Y-95873343D01*
X194765853Y-96015800D01*
X194786334Y-96158256D01*
X194843994Y-96284511D01*
X194846123Y-96289173D01*
X194940372Y-96397943D01*
X194940375Y-96397944D01*
X194940713Y-96398335D01*
X194969738Y-96461891D01*
X194971000Y-96479538D01*
X194971000Y-98809666D01*
X194951315Y-98876705D01*
X194934681Y-98897347D01*
X194241437Y-99590590D01*
X194180114Y-99624075D01*
X194110422Y-99619091D01*
X194054489Y-99577219D01*
X194041247Y-99550762D01*
X194040049Y-99551310D01*
X193976577Y-99412328D01*
X193976576Y-99412326D01*
X193937307Y-99367007D01*
X193882328Y-99303557D01*
X193866864Y-99293618D01*
X193821109Y-99240817D01*
X193811164Y-99171658D01*
X193840184Y-99108106D01*
X193928077Y-99006673D01*
X193987865Y-98875757D01*
X194008347Y-98733300D01*
X193987865Y-98590843D01*
X193928077Y-98459927D01*
X193833828Y-98351157D01*
X193712753Y-98273347D01*
X193712752Y-98273346D01*
X193705293Y-98268553D01*
X193706602Y-98266515D01*
X193663616Y-98229270D01*
X193643928Y-98162232D01*
X193663610Y-98095191D01*
X193680242Y-98074550D01*
X194120480Y-97634313D01*
X194173207Y-97542988D01*
X194200500Y-97441127D01*
X194200500Y-97335673D01*
X194200500Y-97248332D01*
X194220185Y-97181293D01*
X194220901Y-97180336D01*
X194225368Y-97173382D01*
X194225377Y-97173373D01*
X194285165Y-97042457D01*
X194305647Y-96900000D01*
X194285165Y-96757543D01*
X194225377Y-96626627D01*
X194131128Y-96517857D01*
X194010053Y-96440047D01*
X194010051Y-96440046D01*
X194010049Y-96440045D01*
X194010050Y-96440045D01*
X193871963Y-96399500D01*
X193871961Y-96399500D01*
X193728039Y-96399500D01*
X193728036Y-96399500D01*
X193589949Y-96440045D01*
X193468873Y-96517856D01*
X193374623Y-96626626D01*
X193374622Y-96626628D01*
X193314834Y-96757543D01*
X193293331Y-96907103D01*
X193264306Y-96970659D01*
X193205528Y-97008433D01*
X193135658Y-97008433D01*
X193076880Y-96970658D01*
X193031129Y-96917858D01*
X193031128Y-96917857D01*
X192910053Y-96840047D01*
X192910051Y-96840046D01*
X192910049Y-96840045D01*
X192910050Y-96840045D01*
X192771963Y-96799500D01*
X192771961Y-96799500D01*
X192724833Y-96799500D01*
X192657794Y-96779815D01*
X192612039Y-96727011D01*
X192602095Y-96657853D01*
X192631120Y-96594297D01*
X192637152Y-96587819D01*
X193131171Y-96093800D01*
X193640460Y-95584511D01*
X193662719Y-95545957D01*
X193666356Y-95539658D01*
X193670300Y-95532825D01*
X193680021Y-95515989D01*
X193700500Y-95439562D01*
X193700500Y-92900000D01*
X193994353Y-92900000D01*
X194014834Y-93042456D01*
X194063814Y-93149705D01*
X194074623Y-93173373D01*
X194168872Y-93282143D01*
X194289947Y-93359953D01*
X194290403Y-93360087D01*
X194290806Y-93360345D01*
X194298017Y-93363639D01*
X194297543Y-93364675D01*
X194349183Y-93397856D01*
X194378213Y-93461410D01*
X194368274Y-93530569D01*
X194322523Y-93583377D01*
X194322516Y-93583381D01*
X194268874Y-93617855D01*
X194174623Y-93726626D01*
X194174622Y-93726628D01*
X194114834Y-93857543D01*
X194094353Y-94000000D01*
X194114834Y-94142456D01*
X194171565Y-94266677D01*
X194174623Y-94273373D01*
X194268872Y-94382143D01*
X194389947Y-94459953D01*
X194389950Y-94459954D01*
X194389949Y-94459954D01*
X194497107Y-94491417D01*
X194523080Y-94499044D01*
X194528036Y-94500499D01*
X194528038Y-94500500D01*
X194528039Y-94500500D01*
X194671962Y-94500500D01*
X194671962Y-94500499D01*
X194810053Y-94459953D01*
X194931128Y-94382143D01*
X195025377Y-94273373D01*
X195085165Y-94142457D01*
X195105647Y-94000000D01*
X195085165Y-93857543D01*
X195025377Y-93726627D01*
X194931128Y-93617857D01*
X194829784Y-93552727D01*
X194810051Y-93540045D01*
X194809588Y-93539910D01*
X194809180Y-93539648D01*
X194801983Y-93536361D01*
X194802455Y-93535326D01*
X194750810Y-93502136D01*
X194721785Y-93438580D01*
X194731729Y-93369422D01*
X194777482Y-93316619D01*
X194831128Y-93282143D01*
X194925377Y-93173373D01*
X194985165Y-93042457D01*
X195005647Y-92900000D01*
X194985165Y-92757543D01*
X194925377Y-92626627D01*
X194831128Y-92517857D01*
X194710053Y-92440047D01*
X194710051Y-92440046D01*
X194710049Y-92440045D01*
X194710050Y-92440045D01*
X194571963Y-92399500D01*
X194571961Y-92399500D01*
X194428039Y-92399500D01*
X194428036Y-92399500D01*
X194289949Y-92440045D01*
X194168873Y-92517856D01*
X194168872Y-92517856D01*
X194168872Y-92517857D01*
X194163205Y-92524397D01*
X194074623Y-92626626D01*
X194074622Y-92626628D01*
X194014834Y-92757543D01*
X193994353Y-92900000D01*
X193700500Y-92900000D01*
X193700500Y-92243232D01*
X193720185Y-92176193D01*
X193736814Y-92155556D01*
X195258519Y-90633850D01*
X195319842Y-90600366D01*
X195389534Y-90605350D01*
G37*
%TD.AperFunction*%
%TA.AperFunction,Conductor*%
G36*
X220422539Y-98829685D02*
G01*
X220468294Y-98882489D01*
X220479500Y-98934000D01*
X220479500Y-99186000D01*
X220459815Y-99253039D01*
X220407011Y-99298794D01*
X220355500Y-99310000D01*
X218883012Y-99310000D01*
X218915925Y-99252993D01*
X218950000Y-99125826D01*
X218950000Y-98994174D01*
X218915925Y-98867007D01*
X218883012Y-98810000D01*
X220355500Y-98810000D01*
X220422539Y-98829685D01*
G37*
%TD.AperFunction*%
%TA.AperFunction,Conductor*%
G36*
X201633598Y-91004577D02*
G01*
X201654240Y-91021211D01*
X202215781Y-91582752D01*
X202249266Y-91644075D01*
X202252100Y-91670433D01*
X202252100Y-93927767D01*
X202232415Y-93994806D01*
X202179611Y-94040561D01*
X202110453Y-94050505D01*
X202046897Y-94021480D01*
X202040419Y-94015448D01*
X201330319Y-93305348D01*
X201296834Y-93244025D01*
X201294000Y-93217667D01*
X201294000Y-92258938D01*
X201313685Y-92191899D01*
X201324287Y-92177735D01*
X201324624Y-92177344D01*
X201324628Y-92177343D01*
X201418877Y-92068573D01*
X201478665Y-91937657D01*
X201499147Y-91795200D01*
X201478665Y-91652743D01*
X201418877Y-91521827D01*
X201324628Y-91413057D01*
X201324625Y-91413055D01*
X201317923Y-91407247D01*
X201319141Y-91405840D01*
X201280603Y-91361363D01*
X201270662Y-91292204D01*
X201299688Y-91228649D01*
X201326355Y-91205542D01*
X201347828Y-91191743D01*
X201442077Y-91082973D01*
X201453765Y-91057381D01*
X201499520Y-91004577D01*
X201566559Y-90984892D01*
X201633598Y-91004577D01*
G37*
%TD.AperFunction*%
%TA.AperFunction,Conductor*%
G36*
X178070000Y-77910000D02*
G01*
X178867828Y-77910000D01*
X178867844Y-77909999D01*
X178927372Y-77903598D01*
X178927379Y-77903596D01*
X179062086Y-77853354D01*
X179062093Y-77853350D01*
X179177187Y-77767190D01*
X179177190Y-77767187D01*
X179257290Y-77660189D01*
X179313223Y-77618318D01*
X179356556Y-77610500D01*
X181379750Y-77610500D01*
X181379751Y-77610499D01*
X181394568Y-77607552D01*
X181438229Y-77598868D01*
X181438229Y-77598867D01*
X181438231Y-77598867D01*
X181504552Y-77554552D01*
X181526898Y-77521108D01*
X181580510Y-77476304D01*
X181649834Y-77467597D01*
X181712862Y-77497751D01*
X181733100Y-77521106D01*
X181755448Y-77554552D01*
X181821769Y-77598867D01*
X181821770Y-77598868D01*
X181880247Y-77610499D01*
X181880250Y-77610500D01*
X181880252Y-77610500D01*
X182475500Y-77610500D01*
X182542539Y-77630185D01*
X182588294Y-77682989D01*
X182599500Y-77734500D01*
X182599500Y-77751262D01*
X182603768Y-77767190D01*
X182619979Y-77827690D01*
X182619982Y-77827695D01*
X182659535Y-77896204D01*
X182659539Y-77896209D01*
X182659540Y-77896211D01*
X182715489Y-77952160D01*
X182728310Y-77959562D01*
X182729034Y-77959980D01*
X182754716Y-77979687D01*
X188693499Y-83918470D01*
X188726984Y-83979793D01*
X188722000Y-84049485D01*
X188680128Y-84105418D01*
X188640754Y-84125128D01*
X188589948Y-84140046D01*
X188468873Y-84217856D01*
X188374623Y-84326626D01*
X188374622Y-84326628D01*
X188314834Y-84457543D01*
X188294353Y-84600000D01*
X188314834Y-84742456D01*
X188367759Y-84858344D01*
X188374623Y-84873373D01*
X188468872Y-84982143D01*
X188589947Y-85059953D01*
X188589950Y-85059954D01*
X188589949Y-85059954D01*
X188728036Y-85100499D01*
X188728038Y-85100500D01*
X188728039Y-85100500D01*
X188871962Y-85100500D01*
X188871962Y-85100499D01*
X188986468Y-85066878D01*
X189010050Y-85059954D01*
X189010050Y-85059953D01*
X189010053Y-85059953D01*
X189131128Y-84982143D01*
X189225377Y-84873373D01*
X189283811Y-84745421D01*
X189329563Y-84692621D01*
X189396603Y-84672936D01*
X189463642Y-84692620D01*
X189484284Y-84709255D01*
X189698339Y-84923310D01*
X189731824Y-84984633D01*
X189733396Y-84993344D01*
X189754834Y-85142456D01*
X189799402Y-85240045D01*
X189814623Y-85273373D01*
X189908872Y-85382143D01*
X190029947Y-85459953D01*
X190029950Y-85459954D01*
X190029949Y-85459954D01*
X190168036Y-85500499D01*
X190168038Y-85500500D01*
X190168039Y-85500500D01*
X190311962Y-85500500D01*
X190311962Y-85500499D01*
X190450053Y-85459953D01*
X190571128Y-85382143D01*
X190665377Y-85273373D01*
X190725165Y-85142457D01*
X190745647Y-85000000D01*
X190725165Y-84857543D01*
X190665377Y-84726627D01*
X190571128Y-84617857D01*
X190450053Y-84540047D01*
X190450051Y-84540046D01*
X190450049Y-84540045D01*
X190450050Y-84540045D01*
X190311963Y-84499500D01*
X190311961Y-84499500D01*
X190175833Y-84499500D01*
X190108794Y-84479815D01*
X190088152Y-84463181D01*
X189399692Y-83774721D01*
X189366207Y-83713398D01*
X189371191Y-83643706D01*
X189413063Y-83587773D01*
X189452439Y-83568063D01*
X189595850Y-83525954D01*
X189595850Y-83525953D01*
X189595853Y-83525953D01*
X189716928Y-83448143D01*
X189811177Y-83339373D01*
X189870965Y-83208457D01*
X189891447Y-83066000D01*
X189870965Y-82923543D01*
X189811177Y-82792627D01*
X189716928Y-82683857D01*
X189595853Y-82606047D01*
X189595851Y-82606046D01*
X189595849Y-82606045D01*
X189595850Y-82606045D01*
X189457763Y-82565500D01*
X189457761Y-82565500D01*
X189313839Y-82565500D01*
X189313836Y-82565500D01*
X189175749Y-82606045D01*
X189054673Y-82683856D01*
X188960423Y-82792626D01*
X188960422Y-82792628D01*
X188900634Y-82923543D01*
X188891626Y-82986202D01*
X188862601Y-83049758D01*
X188803823Y-83087532D01*
X188733953Y-83087532D01*
X188681207Y-83056236D01*
X183447152Y-77822181D01*
X183413667Y-77760858D01*
X183418651Y-77691166D01*
X183460523Y-77635233D01*
X183525987Y-77610816D01*
X183534833Y-77610500D01*
X183919750Y-77610500D01*
X183919751Y-77610499D01*
X183934568Y-77607552D01*
X183978229Y-77598868D01*
X183978229Y-77598867D01*
X183978231Y-77598867D01*
X184044552Y-77554552D01*
X184066898Y-77521108D01*
X184120510Y-77476304D01*
X184189834Y-77467597D01*
X184252862Y-77497751D01*
X184273100Y-77521106D01*
X184295448Y-77554552D01*
X184361769Y-77598867D01*
X184361770Y-77598868D01*
X184420247Y-77610499D01*
X184420250Y-77610500D01*
X184420252Y-77610500D01*
X185015500Y-77610500D01*
X185082539Y-77630185D01*
X185128294Y-77682989D01*
X185139500Y-77734500D01*
X185139500Y-78579562D01*
X185159979Y-78655989D01*
X185176741Y-78685021D01*
X185199540Y-78724511D01*
X188429540Y-81954511D01*
X188485489Y-82010460D01*
X188485491Y-82010461D01*
X188485495Y-82010464D01*
X188554004Y-82050017D01*
X188554011Y-82050021D01*
X188630438Y-82070500D01*
X191724167Y-82070500D01*
X191791206Y-82090185D01*
X191811848Y-82106819D01*
X192243181Y-82538152D01*
X192276666Y-82599475D01*
X192279500Y-82625833D01*
X192279500Y-83568583D01*
X192259815Y-83635622D01*
X192207011Y-83681377D01*
X192137853Y-83691321D01*
X192120566Y-83687560D01*
X191991964Y-83649800D01*
X191991961Y-83649800D01*
X191848039Y-83649800D01*
X191848036Y-83649800D01*
X191709949Y-83690345D01*
X191588873Y-83768156D01*
X191494623Y-83876926D01*
X191494622Y-83876928D01*
X191434834Y-84007843D01*
X191414353Y-84150300D01*
X191434834Y-84292756D01*
X191484040Y-84400500D01*
X191494623Y-84423673D01*
X191588872Y-84532443D01*
X191709947Y-84610253D01*
X191709950Y-84610254D01*
X191709949Y-84610254D01*
X191848036Y-84650799D01*
X191848038Y-84650800D01*
X191905657Y-84650800D01*
X191972696Y-84670485D01*
X192018451Y-84723289D01*
X192028395Y-84792447D01*
X192018452Y-84826308D01*
X192009420Y-84846085D01*
X192008434Y-84848245D01*
X191987953Y-84990700D01*
X192008434Y-85133156D01*
X192068222Y-85264071D01*
X192068223Y-85264073D01*
X192162472Y-85372843D01*
X192261869Y-85436721D01*
X192307623Y-85489524D01*
X192317567Y-85558682D01*
X192288542Y-85622238D01*
X192282510Y-85628717D01*
X191152648Y-86758581D01*
X191091325Y-86792066D01*
X191064967Y-86794900D01*
X191063038Y-86794900D01*
X191024824Y-86805139D01*
X190986609Y-86815379D01*
X190986608Y-86815380D01*
X190928831Y-86848737D01*
X190928831Y-86848738D01*
X190918089Y-86854940D01*
X190918086Y-86854942D01*
X188322841Y-89450187D01*
X188322835Y-89450195D01*
X188283282Y-89518704D01*
X188283279Y-89518709D01*
X188272766Y-89557944D01*
X188265743Y-89584157D01*
X188262800Y-89595139D01*
X188262800Y-90538467D01*
X188243115Y-90605506D01*
X188190311Y-90651261D01*
X188121153Y-90661205D01*
X188057597Y-90632180D01*
X188051119Y-90626148D01*
X186563992Y-89139021D01*
X186530507Y-89077698D01*
X186528935Y-89033696D01*
X186548747Y-88895900D01*
X186528265Y-88753443D01*
X186468477Y-88622527D01*
X186374228Y-88513757D01*
X186253153Y-88435947D01*
X186253151Y-88435946D01*
X186253149Y-88435945D01*
X186253150Y-88435945D01*
X186115063Y-88395400D01*
X186115061Y-88395400D01*
X185971139Y-88395400D01*
X185971136Y-88395400D01*
X185833050Y-88435945D01*
X185829565Y-88437537D01*
X185825773Y-88438082D01*
X185824537Y-88438445D01*
X185824484Y-88438267D01*
X185760406Y-88447478D01*
X185696851Y-88418452D01*
X185659078Y-88359673D01*
X185658281Y-88356835D01*
X185656300Y-88349441D01*
X185656300Y-88349438D01*
X185635821Y-88273011D01*
X185619187Y-88244200D01*
X185596264Y-88204495D01*
X185596258Y-88204487D01*
X185135471Y-87743700D01*
X186387653Y-87743700D01*
X186408134Y-87886156D01*
X186462347Y-88004863D01*
X186467923Y-88017073D01*
X186562172Y-88125843D01*
X186683247Y-88203653D01*
X186683250Y-88203654D01*
X186683249Y-88203654D01*
X186821336Y-88244199D01*
X186821338Y-88244200D01*
X186821339Y-88244200D01*
X186965262Y-88244200D01*
X186965262Y-88244199D01*
X187095268Y-88206027D01*
X187103350Y-88203654D01*
X187103350Y-88203653D01*
X187103353Y-88203653D01*
X187224428Y-88125843D01*
X187318677Y-88017073D01*
X187378465Y-87886157D01*
X187398947Y-87743700D01*
X187378465Y-87601243D01*
X187318677Y-87470327D01*
X187224428Y-87361557D01*
X187103353Y-87283747D01*
X187103351Y-87283746D01*
X187103349Y-87283745D01*
X187103350Y-87283745D01*
X186965263Y-87243200D01*
X186965261Y-87243200D01*
X186821339Y-87243200D01*
X186821336Y-87243200D01*
X186683249Y-87283745D01*
X186562173Y-87361556D01*
X186467923Y-87470326D01*
X186467922Y-87470328D01*
X186408134Y-87601243D01*
X186387653Y-87743700D01*
X185135471Y-87743700D01*
X184304795Y-86913024D01*
X184271310Y-86851701D01*
X184269739Y-86807694D01*
X184271047Y-86798600D01*
X184250565Y-86656143D01*
X184190777Y-86525227D01*
X184096528Y-86416457D01*
X183975453Y-86338647D01*
X183975451Y-86338646D01*
X183975449Y-86338645D01*
X183975450Y-86338645D01*
X183837363Y-86298100D01*
X183837361Y-86298100D01*
X183693439Y-86298100D01*
X183693436Y-86298100D01*
X183555349Y-86338645D01*
X183434273Y-86416456D01*
X183340023Y-86525226D01*
X183340022Y-86525228D01*
X183280234Y-86656143D01*
X183259753Y-86798600D01*
X183280234Y-86941056D01*
X183287764Y-86957543D01*
X183340023Y-87071973D01*
X183434272Y-87180743D01*
X183555347Y-87258553D01*
X183555350Y-87258554D01*
X183555349Y-87258554D01*
X183641144Y-87283745D01*
X183690680Y-87298290D01*
X183693436Y-87299099D01*
X183693438Y-87299100D01*
X183789567Y-87299100D01*
X183856606Y-87318785D01*
X183877248Y-87335419D01*
X184560908Y-88019079D01*
X184594393Y-88080402D01*
X184589409Y-88150094D01*
X184547537Y-88206027D01*
X184540267Y-88211075D01*
X184422974Y-88286455D01*
X184328723Y-88395226D01*
X184328722Y-88395228D01*
X184268934Y-88526143D01*
X184248453Y-88668600D01*
X184268934Y-88811056D01*
X184300953Y-88881166D01*
X184310897Y-88950325D01*
X184281872Y-89013881D01*
X184223094Y-89051655D01*
X184153224Y-89051655D01*
X184121120Y-89036994D01*
X184035150Y-88981745D01*
X183897063Y-88941200D01*
X183897061Y-88941200D01*
X183753139Y-88941200D01*
X183753136Y-88941200D01*
X183615049Y-88981745D01*
X183491539Y-89061120D01*
X183424499Y-89080804D01*
X183357460Y-89061119D01*
X183311705Y-89008315D01*
X183300500Y-88956804D01*
X183300500Y-87760439D01*
X183300256Y-87759529D01*
X183280021Y-87684011D01*
X183280017Y-87684004D01*
X183240464Y-87615495D01*
X183240458Y-87615487D01*
X175936819Y-80311848D01*
X175903334Y-80250525D01*
X175900500Y-80224167D01*
X175900500Y-79560437D01*
X175894579Y-79538342D01*
X175894578Y-79538337D01*
X175880023Y-79484015D01*
X175880022Y-79484013D01*
X175880022Y-79484012D01*
X175840460Y-79415489D01*
X174784511Y-78359540D01*
X174767156Y-78349520D01*
X174715991Y-78319980D01*
X174715990Y-78319979D01*
X174690513Y-78313152D01*
X174639562Y-78299500D01*
X174639560Y-78299500D01*
X173775833Y-78299500D01*
X173708794Y-78279815D01*
X173688152Y-78263181D01*
X173247152Y-77822181D01*
X173213667Y-77760858D01*
X173218651Y-77691166D01*
X173260523Y-77635233D01*
X173325987Y-77610816D01*
X173334833Y-77610500D01*
X173759750Y-77610500D01*
X173759751Y-77610499D01*
X173774568Y-77607552D01*
X173818229Y-77598868D01*
X173818229Y-77598867D01*
X173818231Y-77598867D01*
X173884552Y-77554552D01*
X173906898Y-77521108D01*
X173960510Y-77476304D01*
X174029834Y-77467597D01*
X174092862Y-77497751D01*
X174113100Y-77521106D01*
X174135448Y-77554552D01*
X174201769Y-77598867D01*
X174201770Y-77598868D01*
X174260247Y-77610499D01*
X174260250Y-77610500D01*
X176283444Y-77610500D01*
X176350483Y-77630185D01*
X176382710Y-77660189D01*
X176462809Y-77767187D01*
X176462812Y-77767190D01*
X176577906Y-77853350D01*
X176577913Y-77853354D01*
X176712620Y-77903596D01*
X176712627Y-77903598D01*
X176772155Y-77909999D01*
X176772172Y-77910000D01*
X177570000Y-77910000D01*
X177570000Y-76573012D01*
X177627007Y-76605925D01*
X177754174Y-76640000D01*
X177885826Y-76640000D01*
X178012993Y-76605925D01*
X178070000Y-76573012D01*
X178070000Y-77910000D01*
G37*
%TD.AperFunction*%
%TA.AperFunction,Conductor*%
G36*
X218441065Y-74160819D02*
G01*
X218694498Y-74179073D01*
X218710412Y-74181263D01*
X218955966Y-74231455D01*
X218971460Y-74235685D01*
X219208470Y-74317225D01*
X219223283Y-74323422D01*
X219447750Y-74434936D01*
X219461643Y-74443001D01*
X219491615Y-74463104D01*
X219669788Y-74582609D01*
X219682530Y-74592410D01*
X219870863Y-74757770D01*
X219882229Y-74769136D01*
X220047589Y-74957469D01*
X220057390Y-74970211D01*
X220196997Y-75178354D01*
X220205066Y-75192254D01*
X220296493Y-75376289D01*
X220316572Y-75416705D01*
X220322776Y-75431535D01*
X220404312Y-75668531D01*
X220408545Y-75684038D01*
X220458735Y-75929582D01*
X220460927Y-75945507D01*
X220479180Y-76198926D01*
X220479500Y-76207834D01*
X220479500Y-88933310D01*
X220459815Y-89000349D01*
X220407011Y-89046104D01*
X220337853Y-89056048D01*
X220275796Y-89028301D01*
X220244518Y-89002056D01*
X219952538Y-88810019D01*
X219640260Y-88653185D01*
X219640254Y-88653183D01*
X219311869Y-88533661D01*
X219311866Y-88533660D01*
X218971828Y-88453070D01*
X218624723Y-88412500D01*
X218275277Y-88412500D01*
X217928172Y-88453070D01*
X217928170Y-88453070D01*
X217588133Y-88533660D01*
X217588130Y-88533661D01*
X217259745Y-88653183D01*
X217259739Y-88653186D01*
X217093451Y-88736699D01*
X217024708Y-88749196D01*
X216960122Y-88722543D01*
X216920197Y-88665204D01*
X216913800Y-88625889D01*
X216913800Y-78365439D01*
X216913800Y-78365438D01*
X216893321Y-78289011D01*
X216882057Y-78269501D01*
X216853764Y-78220495D01*
X216853758Y-78220487D01*
X216455452Y-77822181D01*
X216421967Y-77760858D01*
X216426951Y-77691166D01*
X216468823Y-77635233D01*
X216534287Y-77610816D01*
X216543133Y-77610500D01*
X216939750Y-77610500D01*
X216939751Y-77610499D01*
X216954568Y-77607552D01*
X216998229Y-77598868D01*
X216998229Y-77598867D01*
X216998231Y-77598867D01*
X217064552Y-77554552D01*
X217108867Y-77488231D01*
X217108867Y-77488229D01*
X217108868Y-77488229D01*
X217120499Y-77429752D01*
X217120500Y-77429750D01*
X217120500Y-74284746D01*
X217140185Y-74217707D01*
X217192989Y-74171952D01*
X217244472Y-74160746D01*
X218432181Y-74160500D01*
X218441065Y-74160819D01*
G37*
%TD.AperFunction*%
%TA.AperFunction,Conductor*%
G36*
X214732862Y-77497751D02*
G01*
X214753100Y-77521106D01*
X214775448Y-77554552D01*
X214841769Y-77598867D01*
X214841770Y-77598868D01*
X214900247Y-77610499D01*
X214900250Y-77610500D01*
X214900252Y-77610500D01*
X215495500Y-77610500D01*
X215562539Y-77630185D01*
X215608294Y-77682989D01*
X215619500Y-77734500D01*
X215619500Y-77751262D01*
X215623768Y-77767190D01*
X215639979Y-77827690D01*
X215639980Y-77827691D01*
X215675676Y-77889518D01*
X215675676Y-77889519D01*
X215679537Y-77896207D01*
X215679541Y-77896212D01*
X216276481Y-78493152D01*
X216309966Y-78554475D01*
X216312800Y-78580833D01*
X216312800Y-86607521D01*
X216293115Y-86674560D01*
X216240311Y-86720315D01*
X216171153Y-86730259D01*
X216121761Y-86711837D01*
X216063756Y-86674560D01*
X216010053Y-86640047D01*
X216010051Y-86640046D01*
X216010049Y-86640045D01*
X216010050Y-86640045D01*
X215871963Y-86599500D01*
X215871961Y-86599500D01*
X215728039Y-86599500D01*
X215728036Y-86599500D01*
X215589949Y-86640045D01*
X215468873Y-86717856D01*
X215374623Y-86826626D01*
X215374622Y-86826628D01*
X215314834Y-86957543D01*
X215295338Y-87093147D01*
X215266313Y-87156703D01*
X215207535Y-87194477D01*
X215172600Y-87199500D01*
X210975833Y-87199500D01*
X210908794Y-87179815D01*
X210888152Y-87163181D01*
X209424971Y-85700000D01*
X214194353Y-85700000D01*
X214214834Y-85842456D01*
X214233310Y-85882911D01*
X214274623Y-85973373D01*
X214368872Y-86082143D01*
X214489947Y-86159953D01*
X214489950Y-86159954D01*
X214489949Y-86159954D01*
X214628036Y-86200499D01*
X214628038Y-86200500D01*
X214628039Y-86200500D01*
X214771962Y-86200500D01*
X214771962Y-86200499D01*
X214910053Y-86159953D01*
X215031128Y-86082143D01*
X215125377Y-85973373D01*
X215185165Y-85842457D01*
X215205647Y-85700000D01*
X215185165Y-85557543D01*
X215125377Y-85426627D01*
X215031128Y-85317857D01*
X214910053Y-85240047D01*
X214910051Y-85240046D01*
X214910049Y-85240045D01*
X214910050Y-85240045D01*
X214771963Y-85199500D01*
X214771961Y-85199500D01*
X214628039Y-85199500D01*
X214628036Y-85199500D01*
X214489949Y-85240045D01*
X214368873Y-85317856D01*
X214274623Y-85426626D01*
X214274622Y-85426628D01*
X214214834Y-85557543D01*
X214194353Y-85700000D01*
X209424971Y-85700000D01*
X207624825Y-83899854D01*
X207591340Y-83838531D01*
X207596324Y-83768839D01*
X207618794Y-83730969D01*
X207625377Y-83723373D01*
X207685165Y-83592457D01*
X207705647Y-83450000D01*
X207685165Y-83307543D01*
X207625377Y-83176627D01*
X207531128Y-83067857D01*
X207410053Y-82990047D01*
X207410051Y-82990046D01*
X207410049Y-82990045D01*
X207410050Y-82990045D01*
X207271963Y-82949500D01*
X207271961Y-82949500D01*
X207128039Y-82949500D01*
X207128036Y-82949500D01*
X206989949Y-82990045D01*
X206868873Y-83067856D01*
X206774623Y-83176626D01*
X206774622Y-83176628D01*
X206714834Y-83307543D01*
X206704094Y-83382248D01*
X206675069Y-83445804D01*
X206616291Y-83483578D01*
X206546421Y-83483578D01*
X206493675Y-83452282D01*
X205841393Y-82800000D01*
X209194353Y-82800000D01*
X209214834Y-82942456D01*
X209263679Y-83049409D01*
X209274623Y-83073373D01*
X209368872Y-83182143D01*
X209489947Y-83259953D01*
X209489950Y-83259954D01*
X209489949Y-83259954D01*
X209628036Y-83300499D01*
X209628038Y-83300500D01*
X209628039Y-83300500D01*
X209771962Y-83300500D01*
X209771962Y-83300499D01*
X209910053Y-83259953D01*
X210031128Y-83182143D01*
X210125377Y-83073373D01*
X210185165Y-82942457D01*
X210205647Y-82800000D01*
X210185165Y-82657543D01*
X210125377Y-82526627D01*
X210031128Y-82417857D01*
X209910053Y-82340047D01*
X209910051Y-82340046D01*
X209910049Y-82340045D01*
X209910050Y-82340045D01*
X209771963Y-82299500D01*
X209771961Y-82299500D01*
X209628039Y-82299500D01*
X209628036Y-82299500D01*
X209489949Y-82340045D01*
X209368873Y-82417856D01*
X209274623Y-82526626D01*
X209274622Y-82526628D01*
X209214834Y-82657543D01*
X209194353Y-82800000D01*
X205841393Y-82800000D01*
X204020915Y-80979522D01*
X204020913Y-80979520D01*
X204001454Y-80968285D01*
X203975895Y-80953528D01*
X203950216Y-80933823D01*
X203835915Y-80819522D01*
X203835913Y-80819520D01*
X203790250Y-80793156D01*
X203744589Y-80766793D01*
X203692947Y-80752956D01*
X203642727Y-80739500D01*
X203642726Y-80739500D01*
X203507853Y-80739500D01*
X203440814Y-80719816D01*
X203410051Y-80700046D01*
X203367014Y-80687409D01*
X203308236Y-80649634D01*
X203279212Y-80586078D01*
X203289156Y-80516920D01*
X203314266Y-80480754D01*
X204258202Y-79536819D01*
X204319525Y-79503334D01*
X204345883Y-79500500D01*
X212139560Y-79500500D01*
X212139562Y-79500500D01*
X212215989Y-79480021D01*
X212284511Y-79440460D01*
X212340460Y-79384511D01*
X213620460Y-78104511D01*
X213648807Y-78055412D01*
X213660021Y-78035989D01*
X213680500Y-77959562D01*
X213680500Y-77734500D01*
X213700185Y-77667461D01*
X213752989Y-77621706D01*
X213804500Y-77610500D01*
X214399750Y-77610500D01*
X214399751Y-77610499D01*
X214414568Y-77607552D01*
X214458229Y-77598868D01*
X214458229Y-77598867D01*
X214458231Y-77598867D01*
X214524552Y-77554552D01*
X214546898Y-77521108D01*
X214600510Y-77476304D01*
X214669834Y-77467597D01*
X214732862Y-77497751D01*
G37*
%TD.AperFunction*%
%TA.AperFunction,Conductor*%
G36*
X199492862Y-77497751D02*
G01*
X199513100Y-77521106D01*
X199535448Y-77554552D01*
X199601769Y-77598867D01*
X199601770Y-77598868D01*
X199660247Y-77610499D01*
X199660250Y-77610500D01*
X199660252Y-77610500D01*
X200255500Y-77610500D01*
X200322539Y-77630185D01*
X200368294Y-77682989D01*
X200379500Y-77734500D01*
X200379500Y-79131567D01*
X200359815Y-79198606D01*
X200343181Y-79219248D01*
X199719786Y-79842642D01*
X199658463Y-79876127D01*
X199588771Y-79871143D01*
X199532838Y-79829271D01*
X199508421Y-79763807D01*
X199523273Y-79695534D01*
X199538385Y-79673767D01*
X199625377Y-79573373D01*
X199685165Y-79442457D01*
X199705647Y-79300000D01*
X199685165Y-79157543D01*
X199625377Y-79026627D01*
X199531128Y-78917857D01*
X199410053Y-78840047D01*
X199410051Y-78840046D01*
X199410049Y-78840045D01*
X199410050Y-78840045D01*
X199271963Y-78799500D01*
X199271961Y-78799500D01*
X199128039Y-78799500D01*
X199128036Y-78799500D01*
X198989949Y-78840045D01*
X198868873Y-78917856D01*
X198774623Y-79026626D01*
X198774622Y-79026628D01*
X198714834Y-79157543D01*
X198694353Y-79300000D01*
X198714834Y-79442456D01*
X198747332Y-79513615D01*
X198757276Y-79582774D01*
X198728251Y-79646330D01*
X198722219Y-79652808D01*
X195311848Y-83063181D01*
X195250525Y-83096666D01*
X195224167Y-83099500D01*
X194600238Y-83099500D01*
X194562024Y-83109739D01*
X194523809Y-83119979D01*
X194509833Y-83128049D01*
X194509832Y-83128049D01*
X194455295Y-83159535D01*
X194455287Y-83159541D01*
X193505741Y-84109087D01*
X193505735Y-84109095D01*
X193466182Y-84177604D01*
X193466179Y-84177609D01*
X193455395Y-84217856D01*
X193446975Y-84249282D01*
X193445700Y-84254039D01*
X193445700Y-84414166D01*
X193426015Y-84481205D01*
X193409381Y-84501847D01*
X193131453Y-84779774D01*
X193070130Y-84813259D01*
X193000438Y-84808275D01*
X192944505Y-84766403D01*
X192930978Y-84743605D01*
X192928720Y-84738662D01*
X192918977Y-84717327D01*
X192882632Y-84675383D01*
X192853608Y-84611828D01*
X192860191Y-84559448D01*
X192857917Y-84558839D01*
X192860019Y-84550990D01*
X192860021Y-84550989D01*
X192880500Y-84474562D01*
X192880500Y-82410438D01*
X192860021Y-82334011D01*
X192835393Y-82291353D01*
X192820464Y-82265495D01*
X192820458Y-82265487D01*
X192386371Y-81831400D01*
X193294353Y-81831400D01*
X193314834Y-81973856D01*
X193331550Y-82010458D01*
X193374623Y-82104773D01*
X193468872Y-82213543D01*
X193589947Y-82291353D01*
X193589950Y-82291354D01*
X193589949Y-82291354D01*
X193728036Y-82331899D01*
X193728038Y-82331900D01*
X193728039Y-82331900D01*
X193871962Y-82331900D01*
X193871962Y-82331899D01*
X194010053Y-82291353D01*
X194131128Y-82213543D01*
X194225377Y-82104773D01*
X194285165Y-81973857D01*
X194305647Y-81831400D01*
X194285165Y-81688943D01*
X194225377Y-81558027D01*
X194131128Y-81449257D01*
X194010053Y-81371447D01*
X194010051Y-81371446D01*
X194010049Y-81371445D01*
X194010050Y-81371445D01*
X193871963Y-81330900D01*
X193871961Y-81330900D01*
X193728039Y-81330900D01*
X193728036Y-81330900D01*
X193589949Y-81371445D01*
X193468873Y-81449256D01*
X193468872Y-81449256D01*
X193468872Y-81449257D01*
X193456290Y-81463777D01*
X193374623Y-81558026D01*
X193374622Y-81558028D01*
X193314834Y-81688943D01*
X193294353Y-81831400D01*
X192386371Y-81831400D01*
X192084512Y-81529541D01*
X192084511Y-81529540D01*
X192069279Y-81520746D01*
X192069279Y-81520745D01*
X192069277Y-81520745D01*
X192039485Y-81503544D01*
X192015990Y-81489979D01*
X191990513Y-81483152D01*
X191939562Y-81469500D01*
X191939560Y-81469500D01*
X190680156Y-81469500D01*
X190613117Y-81449815D01*
X190567362Y-81397011D01*
X190557418Y-81327853D01*
X190567361Y-81293990D01*
X190571518Y-81284883D01*
X190574865Y-81277557D01*
X190579273Y-81246895D01*
X190608294Y-81183344D01*
X190614315Y-81176876D01*
X192684374Y-79106819D01*
X192745697Y-79073334D01*
X192772055Y-79070500D01*
X195192725Y-79070500D01*
X195192727Y-79070500D01*
X195294588Y-79043207D01*
X195385913Y-78990480D01*
X195920480Y-78455913D01*
X195973207Y-78364588D01*
X196000500Y-78262727D01*
X196000500Y-78157273D01*
X196000500Y-77734500D01*
X196020185Y-77667461D01*
X196072989Y-77621706D01*
X196124500Y-77610500D01*
X196619750Y-77610500D01*
X196619751Y-77610499D01*
X196634568Y-77607552D01*
X196678229Y-77598868D01*
X196678229Y-77598867D01*
X196678231Y-77598867D01*
X196744552Y-77554552D01*
X196766898Y-77521108D01*
X196820510Y-77476304D01*
X196889834Y-77467597D01*
X196952862Y-77497751D01*
X196973100Y-77521106D01*
X196995448Y-77554552D01*
X197061769Y-77598867D01*
X197061770Y-77598868D01*
X197120247Y-77610499D01*
X197120250Y-77610500D01*
X197120252Y-77610500D01*
X199159750Y-77610500D01*
X199159751Y-77610499D01*
X199174568Y-77607552D01*
X199218229Y-77598868D01*
X199218229Y-77598867D01*
X199218231Y-77598867D01*
X199284552Y-77554552D01*
X199306898Y-77521108D01*
X199360510Y-77476304D01*
X199429834Y-77467597D01*
X199492862Y-77497751D01*
G37*
%TD.AperFunction*%
%TA.AperFunction,Conductor*%
G36*
X194412862Y-77497751D02*
G01*
X194433100Y-77521106D01*
X194455448Y-77554552D01*
X194521769Y-77598867D01*
X194521770Y-77598868D01*
X194580247Y-77610499D01*
X194580250Y-77610500D01*
X194580252Y-77610500D01*
X195075500Y-77610500D01*
X195142539Y-77630185D01*
X195188294Y-77682989D01*
X195199500Y-77734500D01*
X195199500Y-77992745D01*
X195179815Y-78059784D01*
X195163181Y-78080426D01*
X195010426Y-78233181D01*
X194949103Y-78266666D01*
X194922745Y-78269500D01*
X192502073Y-78269500D01*
X192400210Y-78296793D01*
X192308887Y-78349520D01*
X192308884Y-78349522D01*
X190048709Y-80609697D01*
X189995963Y-80640993D01*
X189879649Y-80675145D01*
X189758573Y-80752956D01*
X189664323Y-80861726D01*
X189664322Y-80861728D01*
X189604534Y-80992643D01*
X189584053Y-81135100D01*
X189604534Y-81277556D01*
X189612039Y-81293988D01*
X189621983Y-81363146D01*
X189592958Y-81426702D01*
X189534180Y-81464477D01*
X189499245Y-81469500D01*
X188845833Y-81469500D01*
X188778794Y-81449815D01*
X188758152Y-81433181D01*
X185776819Y-78451848D01*
X185743334Y-78390525D01*
X185740500Y-78364167D01*
X185740500Y-77734500D01*
X185760185Y-77667461D01*
X185812989Y-77621706D01*
X185864500Y-77610500D01*
X186459750Y-77610500D01*
X186459751Y-77610499D01*
X186474568Y-77607552D01*
X186518229Y-77598868D01*
X186518229Y-77598867D01*
X186518231Y-77598867D01*
X186584552Y-77554552D01*
X186606898Y-77521108D01*
X186660510Y-77476304D01*
X186729834Y-77467597D01*
X186792862Y-77497751D01*
X186813100Y-77521106D01*
X186835448Y-77554552D01*
X186901769Y-77598867D01*
X186901770Y-77598868D01*
X186960247Y-77610499D01*
X186960250Y-77610500D01*
X186960252Y-77610500D01*
X188999750Y-77610500D01*
X188999751Y-77610499D01*
X189014568Y-77607552D01*
X189058229Y-77598868D01*
X189058229Y-77598867D01*
X189058231Y-77598867D01*
X189124552Y-77554552D01*
X189146898Y-77521108D01*
X189200510Y-77476304D01*
X189269834Y-77467597D01*
X189332862Y-77497751D01*
X189353100Y-77521106D01*
X189375448Y-77554552D01*
X189441769Y-77598867D01*
X189441770Y-77598868D01*
X189500247Y-77610499D01*
X189500250Y-77610500D01*
X189500252Y-77610500D01*
X191539750Y-77610500D01*
X191539751Y-77610499D01*
X191554568Y-77607552D01*
X191598229Y-77598868D01*
X191598229Y-77598867D01*
X191598231Y-77598867D01*
X191664552Y-77554552D01*
X191686898Y-77521108D01*
X191740510Y-77476304D01*
X191809834Y-77467597D01*
X191872862Y-77497751D01*
X191893100Y-77521106D01*
X191915448Y-77554552D01*
X191981769Y-77598867D01*
X191981770Y-77598868D01*
X192040247Y-77610499D01*
X192040250Y-77610500D01*
X192040252Y-77610500D01*
X194079750Y-77610500D01*
X194079751Y-77610499D01*
X194094568Y-77607552D01*
X194138229Y-77598868D01*
X194138229Y-77598867D01*
X194138231Y-77598867D01*
X194204552Y-77554552D01*
X194226898Y-77521108D01*
X194280510Y-77476304D01*
X194349834Y-77467597D01*
X194412862Y-77497751D01*
G37*
%TD.AperFunction*%
%TA.AperFunction,Conductor*%
G36*
X168942518Y-74190433D02*
G01*
X168988284Y-74243227D01*
X168999500Y-74294762D01*
X168999500Y-77429752D01*
X169011131Y-77488229D01*
X169011132Y-77488230D01*
X169055447Y-77554552D01*
X169121769Y-77598867D01*
X169121770Y-77598868D01*
X169180247Y-77610499D01*
X169180250Y-77610500D01*
X169180252Y-77610500D01*
X171219750Y-77610500D01*
X171219751Y-77610499D01*
X171234568Y-77607552D01*
X171278229Y-77598868D01*
X171278229Y-77598867D01*
X171278231Y-77598867D01*
X171344552Y-77554552D01*
X171366898Y-77521108D01*
X171420510Y-77476304D01*
X171489834Y-77467597D01*
X171552862Y-77497751D01*
X171573100Y-77521106D01*
X171595448Y-77554552D01*
X171661769Y-77598867D01*
X171661770Y-77598868D01*
X171720247Y-77610499D01*
X171720250Y-77610500D01*
X171720252Y-77610500D01*
X172315500Y-77610500D01*
X172382539Y-77630185D01*
X172428294Y-77682989D01*
X172439500Y-77734500D01*
X172439500Y-77779562D01*
X172459978Y-77855987D01*
X172462284Y-77859981D01*
X172462287Y-77859987D01*
X172499537Y-77924507D01*
X172499541Y-77924512D01*
X173363348Y-78788319D01*
X173396833Y-78849642D01*
X173391849Y-78919334D01*
X173349977Y-78975267D01*
X173284513Y-78999684D01*
X173275667Y-79000000D01*
X157183566Y-79000000D01*
X157116527Y-78980315D01*
X157070772Y-78927511D01*
X157059566Y-78876000D01*
X157059566Y-77200572D01*
X157079251Y-77133533D01*
X157132055Y-77087778D01*
X157201213Y-77077834D01*
X157264769Y-77106859D01*
X157300985Y-77160714D01*
X157363100Y-77343702D01*
X157363104Y-77343712D01*
X157490653Y-77602356D01*
X157650876Y-77842146D01*
X157650881Y-77842152D01*
X157675835Y-77870608D01*
X157675838Y-77870608D01*
X158105748Y-77440698D01*
X158179588Y-77542330D01*
X158357670Y-77720412D01*
X158459300Y-77794250D01*
X158029390Y-78224160D01*
X158029390Y-78224161D01*
X158057854Y-78249124D01*
X158297643Y-78409346D01*
X158556287Y-78536895D01*
X158556297Y-78536899D01*
X158829364Y-78629592D01*
X158829384Y-78629597D01*
X159112215Y-78685855D01*
X159112242Y-78685859D01*
X159399993Y-78704720D01*
X159400007Y-78704720D01*
X159687757Y-78685859D01*
X159687784Y-78685855D01*
X159970615Y-78629597D01*
X159970635Y-78629592D01*
X160243702Y-78536899D01*
X160243712Y-78536895D01*
X160502356Y-78409346D01*
X160742141Y-78249126D01*
X160742147Y-78249121D01*
X160770608Y-78224162D01*
X160770608Y-78224161D01*
X160340698Y-77794251D01*
X160442330Y-77720412D01*
X160620412Y-77542330D01*
X160694251Y-77440698D01*
X161124161Y-77870608D01*
X161124162Y-77870608D01*
X161149121Y-77842147D01*
X161149126Y-77842141D01*
X161309346Y-77602356D01*
X161436895Y-77343712D01*
X161436899Y-77343702D01*
X161529592Y-77070635D01*
X161529597Y-77070615D01*
X161585855Y-76787784D01*
X161585859Y-76787757D01*
X161604720Y-76500007D01*
X161604720Y-76499992D01*
X161585859Y-76212242D01*
X161585855Y-76212215D01*
X161529597Y-75929384D01*
X161529592Y-75929364D01*
X161436899Y-75656297D01*
X161436895Y-75656287D01*
X161309346Y-75397643D01*
X161149124Y-75157854D01*
X161124161Y-75129390D01*
X161124160Y-75129390D01*
X160694250Y-75559300D01*
X160620412Y-75457670D01*
X160442330Y-75279588D01*
X160340698Y-75205748D01*
X160770608Y-74775838D01*
X160770608Y-74775835D01*
X160742152Y-74750881D01*
X160742146Y-74750876D01*
X160502356Y-74590653D01*
X160243712Y-74463104D01*
X160243702Y-74463100D01*
X160099027Y-74413990D01*
X160041872Y-74373801D01*
X160015519Y-74309092D01*
X160028333Y-74240408D01*
X160076247Y-74189555D01*
X160138857Y-74172571D01*
X168875476Y-74170762D01*
X168942518Y-74190433D01*
G37*
%TD.AperFunction*%
%TA.AperFunction,Conductor*%
G36*
X178013018Y-74188553D02*
G01*
X178058784Y-74241348D01*
X178070000Y-74292883D01*
X178070000Y-75706988D01*
X178012993Y-75674075D01*
X177885826Y-75640000D01*
X177754174Y-75640000D01*
X177627007Y-75674075D01*
X177570000Y-75706988D01*
X177570000Y-74292936D01*
X177589685Y-74225897D01*
X177642489Y-74180142D01*
X177693971Y-74168936D01*
X177945978Y-74168884D01*
X178013018Y-74188553D01*
G37*
%TD.AperFunction*%
%TA.AperFunction,Conductor*%
G36*
X158248231Y-74430962D02*
G01*
X158287680Y-74488629D01*
X158289690Y-74558470D01*
X158253621Y-74618310D01*
X158238648Y-74630073D01*
X158057851Y-74750878D01*
X158029390Y-74775837D01*
X158459301Y-75205748D01*
X158357670Y-75279588D01*
X158179588Y-75457670D01*
X158105748Y-75559301D01*
X157675837Y-75129390D01*
X157650878Y-75157851D01*
X157505806Y-75374965D01*
X157452193Y-75419770D01*
X157382868Y-75428477D01*
X157319841Y-75398322D01*
X157283122Y-75338879D01*
X157284370Y-75269020D01*
X157291845Y-75250520D01*
X157330708Y-75172993D01*
X157338818Y-75159138D01*
X157475593Y-74956821D01*
X157485423Y-74944139D01*
X157647225Y-74761234D01*
X157658631Y-74749913D01*
X157842743Y-74589492D01*
X157855519Y-74579743D01*
X158058838Y-74444504D01*
X158072768Y-74436491D01*
X158115024Y-74415704D01*
X158183867Y-74403776D01*
X158248231Y-74430962D01*
G37*
%TD.AperFunction*%
%TD*%
D22*
X203200000Y-81160000D03*
X194540000Y-96460000D03*
X192600000Y-90880000D03*
X190500000Y-88900000D03*
X194600000Y-94000000D03*
X169500000Y-121500000D03*
X163600000Y-124100000D03*
X202900000Y-83400000D03*
X159200000Y-122300000D03*
X178000000Y-87700000D03*
X196600000Y-100300000D03*
X199800000Y-99700000D03*
X160300000Y-113500000D03*
X202700000Y-119300000D03*
X190000000Y-78500000D03*
X167700000Y-75600000D03*
X161500000Y-115100000D03*
X183700000Y-120100000D03*
X200400000Y-110800000D03*
X163600000Y-122300000D03*
X202500000Y-108100000D03*
X158200000Y-116900000D03*
X178800000Y-89900000D03*
X158200000Y-126100000D03*
X175600000Y-88100000D03*
X194900000Y-82700000D03*
X179100000Y-91500000D03*
X166500000Y-114600000D03*
X158200000Y-119000000D03*
X188900000Y-86200000D03*
X207800000Y-119500000D03*
X164600000Y-113500000D03*
X209100000Y-83500000D03*
X163600000Y-126100000D03*
X158200000Y-122300000D03*
X165000000Y-116200000D03*
X218700000Y-83700000D03*
X177800000Y-85400000D03*
X161500000Y-113600000D03*
X163300000Y-117800000D03*
X161400000Y-120600000D03*
X182200000Y-81900000D03*
X159200000Y-119000000D03*
X201000000Y-115800000D03*
X163800000Y-114300000D03*
X210200000Y-92200000D03*
X165830000Y-118955000D03*
X162200000Y-115900000D03*
X165700000Y-115400000D03*
X161500000Y-116700000D03*
X161400000Y-119000000D03*
X166300000Y-112000000D03*
X209000000Y-88500000D03*
X158200000Y-113500000D03*
X188200000Y-98900000D03*
X192700000Y-80900000D03*
X165900000Y-117300000D03*
X180900000Y-98100000D03*
X161400000Y-126100000D03*
X163000000Y-115100000D03*
X179000000Y-87800000D03*
X167700000Y-120600000D03*
X201700000Y-92400000D03*
X167400000Y-113800000D03*
X159200000Y-113500000D03*
X214500000Y-120600000D03*
X163600000Y-120600000D03*
X180400000Y-80600000D03*
X161400000Y-122300000D03*
X174300000Y-122600000D03*
X162500000Y-118700000D03*
X167700000Y-119000000D03*
X206700000Y-97800000D03*
X211600000Y-80000000D03*
X217800000Y-88100000D03*
X158200000Y-124100000D03*
X207200000Y-90900000D03*
X160300000Y-119000000D03*
X164100000Y-117000000D03*
X202700000Y-113300000D03*
X161400000Y-124100000D03*
X160300000Y-116900000D03*
X209300000Y-96200000D03*
X206900000Y-94500000D03*
X203600000Y-116500000D03*
X165400000Y-112700000D03*
X190600000Y-111600000D03*
X167300000Y-111400000D03*
X162300000Y-74800000D03*
X159200000Y-116900000D03*
X214300000Y-103500000D03*
X160300000Y-122300000D03*
X165800000Y-120600000D03*
X167700000Y-117300000D03*
X187400000Y-101600000D03*
X197935600Y-105173300D03*
X197100000Y-94400000D03*
X190089700Y-81135100D03*
X198694900Y-86207000D03*
X184754100Y-88668600D03*
X191076800Y-91514800D03*
X205349200Y-97975000D03*
X184298100Y-90310200D03*
X192422900Y-88001000D03*
X174300000Y-94000000D03*
X197423900Y-83414300D03*
X200020200Y-95397200D03*
X194372000Y-101767600D03*
X193551200Y-99685700D03*
X192700000Y-97300000D03*
X198738100Y-97828600D03*
X191832700Y-95555300D03*
X194500000Y-92900000D03*
X194705700Y-100796000D03*
X194277700Y-88028100D03*
X193502700Y-98733300D03*
X199595150Y-122295150D03*
X198000000Y-92880000D03*
X191800000Y-93200000D03*
X208200000Y-96200000D03*
X175700000Y-82700000D03*
X186043100Y-88895900D03*
X190240000Y-85000000D03*
X189180000Y-89990000D03*
X188800000Y-84600000D03*
X198635900Y-84808400D03*
X197700000Y-93691200D03*
X199348700Y-96594300D03*
X190700000Y-102900000D03*
X196591400Y-89700400D03*
X192493600Y-84990700D03*
X187400000Y-98400000D03*
X189402100Y-93687600D03*
X196300000Y-103100000D03*
X191900000Y-102500000D03*
X207200000Y-117900000D03*
X198282200Y-121642600D03*
X191442500Y-100855600D03*
X186893300Y-87743700D03*
X204300000Y-103100000D03*
X191713600Y-89200000D03*
X195860900Y-116887700D03*
X195271500Y-96015800D03*
X193800000Y-81831400D03*
X183825100Y-89441700D03*
X199200000Y-79300000D03*
X189669100Y-91704200D03*
X186400000Y-95500000D03*
X192917100Y-89208800D03*
X199267100Y-92325400D03*
X201319300Y-103872600D03*
X211900000Y-108400000D03*
X215240000Y-110000000D03*
X201016700Y-90809600D03*
X215500000Y-107900000D03*
X215400000Y-111000000D03*
X214700000Y-85700000D03*
X211600000Y-110200000D03*
X214600000Y-115100000D03*
X216000000Y-94400000D03*
X183765400Y-86798600D03*
X190965600Y-96000000D03*
X187504900Y-92181000D03*
X183100000Y-95200000D03*
X190578700Y-92886800D03*
X188340100Y-93047700D03*
X204145600Y-99393600D03*
X195516300Y-89951100D03*
X187300000Y-121600000D03*
X191927800Y-106056900D03*
X204265800Y-100716000D03*
X183912300Y-92791500D03*
X175249600Y-89294800D03*
X206714200Y-101717100D03*
X206321000Y-114987400D03*
X178914800Y-93351600D03*
X199080050Y-87589950D03*
X193800000Y-96900000D03*
X189385800Y-83066000D03*
X200993500Y-91795200D03*
X193484100Y-88641800D03*
X197335100Y-84883700D03*
X194347900Y-84628100D03*
X191920000Y-84150300D03*
X195528400Y-88125300D03*
X206143800Y-91218500D03*
X204345800Y-90660800D03*
X195354700Y-84073800D03*
X215404150Y-90004150D03*
X202552600Y-97978700D03*
X209700000Y-82800000D03*
X215800000Y-87100000D03*
X207200000Y-83450000D03*
D23*
X196800000Y-115580000D03*
X195530000Y-115580000D03*
X196800000Y-114310000D03*
X195530000Y-114310000D03*
X196800000Y-113040000D03*
X195530000Y-113040000D03*
X196800000Y-111770000D03*
X195530000Y-111770000D03*
X196800000Y-110500000D03*
X195530000Y-110500000D03*
X196800000Y-109230000D03*
X195530000Y-109230000D03*
X196800000Y-107960000D03*
X195530000Y-107960000D03*
X196800000Y-106690000D03*
X195530000Y-106690000D03*
X212700000Y-97240000D03*
X212700000Y-94700000D03*
X212700000Y-92160000D03*
X204935000Y-104905000D03*
X204935000Y-106175000D03*
X203665000Y-104905000D03*
X203665000Y-106175000D03*
X202395000Y-104905000D03*
X202395000Y-106175000D03*
X201125000Y-104905000D03*
X201125000Y-106175000D03*
X199855000Y-104905000D03*
X199855000Y-106175000D03*
X218450000Y-91412500D03*
X215920000Y-76140000D03*
X215920000Y-73600000D03*
X213380000Y-76140000D03*
X213380000Y-73600000D03*
X210840000Y-76140000D03*
X210840000Y-73600000D03*
X208300000Y-76140000D03*
X208300000Y-73600000D03*
X205760000Y-76140000D03*
X205760000Y-73600000D03*
X203220000Y-76140000D03*
X203220000Y-73600000D03*
X200680000Y-76140000D03*
X200680000Y-73600000D03*
X198140000Y-76140000D03*
X198140000Y-73600000D03*
X193060000Y-76140000D03*
X193060000Y-73600000D03*
X190520000Y-76140000D03*
X190520000Y-73600000D03*
X187980000Y-76140000D03*
X187980000Y-73600000D03*
X185440000Y-76140000D03*
X185440000Y-73600000D03*
X182900000Y-76140000D03*
X182900000Y-73600000D03*
X180360000Y-76140000D03*
X180360000Y-73600000D03*
X177820000Y-76140000D03*
X177820000Y-73600000D03*
X175280000Y-76140000D03*
X175280000Y-73600000D03*
X172740000Y-76140000D03*
X172740000Y-73600000D03*
X170200000Y-76140000D03*
X170200000Y-73600000D03*
X195600000Y-76140000D03*
X195600000Y-73600000D03*
X159400000Y-76500000D03*
X167375000Y-124175000D03*
X218450000Y-101600000D03*
X220990000Y-101600000D03*
X218450000Y-99060000D03*
X220990000Y-99060000D03*
X218450000Y-96520000D03*
X220990000Y-96520000D03*
X177800000Y-124460000D03*
X177800000Y-127000000D03*
X180340000Y-124460000D03*
X180340000Y-127000000D03*
X182880000Y-124460000D03*
X182880000Y-127000000D03*
X185420000Y-124460000D03*
X185420000Y-127000000D03*
X187960000Y-124460000D03*
X187960000Y-127000000D03*
X190500000Y-124460000D03*
X190500000Y-127000000D03*
X193040000Y-124460000D03*
X193040000Y-127000000D03*
X195580000Y-124460000D03*
X195580000Y-127000000D03*
X198120000Y-124460000D03*
X198120000Y-127000000D03*
X200660000Y-124460000D03*
X200660000Y-127000000D03*
X203200000Y-124460000D03*
X203200000Y-127000000D03*
X205740000Y-124460000D03*
X205740000Y-127000000D03*
X208280000Y-124460000D03*
X208280000Y-127000000D03*
X210820000Y-124460000D03*
X210820000Y-127000000D03*
X213360000Y-124460000D03*
X213360000Y-127000000D03*
X215900000Y-124460000D03*
X215900000Y-127000000D03*
D24*
X213375000Y-113895000D03*
X213375000Y-105255000D03*
X218475000Y-113895000D03*
X218475000Y-105255000D03*
D23*
X218425000Y-119350000D03*
X211425000Y-88950000D03*
X211425000Y-101650000D03*
M02*
