%TF.GenerationSoftware,KiCad,Pcbnew,8.0.4*%
%TF.CreationDate,2024-10-23T22:06:27+09:00*%
%TF.ProjectId,balsun,62616c73-756e-42e6-9b69-6361645f7063,rev?*%
%TF.SameCoordinates,Original*%
%TF.FileFunction,Legend,Bot*%
%TF.FilePolarity,Positive*%
%FSLAX46Y46*%
G04 Gerber Fmt 4.6, Leading zero omitted, Abs format (unit mm)*
G04 Created by KiCad (PCBNEW 8.0.4) date 2024-10-23 22:06:27*
%MOMM*%
%LPD*%
G01*
G04 APERTURE LIST*
%ADD10C,0.200000*%
%ADD11C,0.254000*%
%ADD12C,0.100000*%
%ADD13C,0.350000*%
%ADD14O,1.600000X0.600000*%
G04 APERTURE END LIST*
D10*
X219773183Y-81683647D02*
X219773183Y-79183647D01*
X218701755Y-81683647D02*
X218701755Y-80374123D01*
X218701755Y-80374123D02*
X218820802Y-80136028D01*
X218820802Y-80136028D02*
X219058898Y-80016980D01*
X219058898Y-80016980D02*
X219416041Y-80016980D01*
X219416041Y-80016980D02*
X219654136Y-80136028D01*
X219654136Y-80136028D02*
X219773183Y-80255076D01*
X217868421Y-80016980D02*
X216916040Y-80016980D01*
X217511278Y-79183647D02*
X217511278Y-81326504D01*
X217511278Y-81326504D02*
X217392231Y-81564600D01*
X217392231Y-81564600D02*
X217154136Y-81683647D01*
X217154136Y-81683647D02*
X216916040Y-81683647D01*
X216439850Y-80016980D02*
X215487469Y-80016980D01*
X216082707Y-79183647D02*
X216082707Y-81326504D01*
X216082707Y-81326504D02*
X215963660Y-81564600D01*
X215963660Y-81564600D02*
X215725565Y-81683647D01*
X215725565Y-81683647D02*
X215487469Y-81683647D01*
X214654136Y-80016980D02*
X214654136Y-82516980D01*
X214654136Y-80136028D02*
X214416041Y-80016980D01*
X214416041Y-80016980D02*
X213939851Y-80016980D01*
X213939851Y-80016980D02*
X213701755Y-80136028D01*
X213701755Y-80136028D02*
X213582708Y-80255076D01*
X213582708Y-80255076D02*
X213463660Y-80493171D01*
X213463660Y-80493171D02*
X213463660Y-81207457D01*
X213463660Y-81207457D02*
X213582708Y-81445552D01*
X213582708Y-81445552D02*
X213701755Y-81564600D01*
X213701755Y-81564600D02*
X213939851Y-81683647D01*
X213939851Y-81683647D02*
X214416041Y-81683647D01*
X214416041Y-81683647D02*
X214654136Y-81564600D01*
X212511279Y-81564600D02*
X212273184Y-81683647D01*
X212273184Y-81683647D02*
X211796993Y-81683647D01*
X211796993Y-81683647D02*
X211558898Y-81564600D01*
X211558898Y-81564600D02*
X211439850Y-81326504D01*
X211439850Y-81326504D02*
X211439850Y-81207457D01*
X211439850Y-81207457D02*
X211558898Y-80969361D01*
X211558898Y-80969361D02*
X211796993Y-80850314D01*
X211796993Y-80850314D02*
X212154136Y-80850314D01*
X212154136Y-80850314D02*
X212392231Y-80731266D01*
X212392231Y-80731266D02*
X212511279Y-80493171D01*
X212511279Y-80493171D02*
X212511279Y-80374123D01*
X212511279Y-80374123D02*
X212392231Y-80136028D01*
X212392231Y-80136028D02*
X212154136Y-80016980D01*
X212154136Y-80016980D02*
X211796993Y-80016980D01*
X211796993Y-80016980D02*
X211558898Y-80136028D01*
X210368421Y-81445552D02*
X210249374Y-81564600D01*
X210249374Y-81564600D02*
X210368421Y-81683647D01*
X210368421Y-81683647D02*
X210487469Y-81564600D01*
X210487469Y-81564600D02*
X210368421Y-81445552D01*
X210368421Y-81445552D02*
X210368421Y-81683647D01*
X210368421Y-80136028D02*
X210249374Y-80255076D01*
X210249374Y-80255076D02*
X210368421Y-80374123D01*
X210368421Y-80374123D02*
X210487469Y-80255076D01*
X210487469Y-80255076D02*
X210368421Y-80136028D01*
X210368421Y-80136028D02*
X210368421Y-80374123D01*
X207392231Y-79064600D02*
X209535088Y-82278885D01*
X204773183Y-79064600D02*
X206916040Y-82278885D01*
X202868421Y-80016980D02*
X202868421Y-82040790D01*
X202868421Y-82040790D02*
X202987468Y-82278885D01*
X202987468Y-82278885D02*
X203106516Y-82397933D01*
X203106516Y-82397933D02*
X203344611Y-82516980D01*
X203344611Y-82516980D02*
X203701754Y-82516980D01*
X203701754Y-82516980D02*
X203939849Y-82397933D01*
X202868421Y-81564600D02*
X203106516Y-81683647D01*
X203106516Y-81683647D02*
X203582707Y-81683647D01*
X203582707Y-81683647D02*
X203820802Y-81564600D01*
X203820802Y-81564600D02*
X203939849Y-81445552D01*
X203939849Y-81445552D02*
X204058897Y-81207457D01*
X204058897Y-81207457D02*
X204058897Y-80493171D01*
X204058897Y-80493171D02*
X203939849Y-80255076D01*
X203939849Y-80255076D02*
X203820802Y-80136028D01*
X203820802Y-80136028D02*
X203582707Y-80016980D01*
X203582707Y-80016980D02*
X203106516Y-80016980D01*
X203106516Y-80016980D02*
X202868421Y-80136028D01*
X201677944Y-81683647D02*
X201677944Y-80016980D01*
X201677944Y-79183647D02*
X201796992Y-79302695D01*
X201796992Y-79302695D02*
X201677944Y-79421742D01*
X201677944Y-79421742D02*
X201558897Y-79302695D01*
X201558897Y-79302695D02*
X201677944Y-79183647D01*
X201677944Y-79183647D02*
X201677944Y-79421742D01*
X200844611Y-80016980D02*
X199892230Y-80016980D01*
X200487468Y-79183647D02*
X200487468Y-81326504D01*
X200487468Y-81326504D02*
X200368421Y-81564600D01*
X200368421Y-81564600D02*
X200130326Y-81683647D01*
X200130326Y-81683647D02*
X199892230Y-81683647D01*
X199058897Y-81683647D02*
X199058897Y-79183647D01*
X197987469Y-81683647D02*
X197987469Y-80374123D01*
X197987469Y-80374123D02*
X198106516Y-80136028D01*
X198106516Y-80136028D02*
X198344612Y-80016980D01*
X198344612Y-80016980D02*
X198701755Y-80016980D01*
X198701755Y-80016980D02*
X198939850Y-80136028D01*
X198939850Y-80136028D02*
X199058897Y-80255076D01*
X195725564Y-80016980D02*
X195725564Y-81683647D01*
X196796992Y-80016980D02*
X196796992Y-81326504D01*
X196796992Y-81326504D02*
X196677945Y-81564600D01*
X196677945Y-81564600D02*
X196439850Y-81683647D01*
X196439850Y-81683647D02*
X196082707Y-81683647D01*
X196082707Y-81683647D02*
X195844611Y-81564600D01*
X195844611Y-81564600D02*
X195725564Y-81445552D01*
X194535087Y-81683647D02*
X194535087Y-79183647D01*
X194535087Y-80136028D02*
X194296992Y-80016980D01*
X194296992Y-80016980D02*
X193820802Y-80016980D01*
X193820802Y-80016980D02*
X193582706Y-80136028D01*
X193582706Y-80136028D02*
X193463659Y-80255076D01*
X193463659Y-80255076D02*
X193344611Y-80493171D01*
X193344611Y-80493171D02*
X193344611Y-81207457D01*
X193344611Y-81207457D02*
X193463659Y-81445552D01*
X193463659Y-81445552D02*
X193582706Y-81564600D01*
X193582706Y-81564600D02*
X193820802Y-81683647D01*
X193820802Y-81683647D02*
X194296992Y-81683647D01*
X194296992Y-81683647D02*
X194535087Y-81564600D01*
X192273182Y-81445552D02*
X192154135Y-81564600D01*
X192154135Y-81564600D02*
X192273182Y-81683647D01*
X192273182Y-81683647D02*
X192392230Y-81564600D01*
X192392230Y-81564600D02*
X192273182Y-81445552D01*
X192273182Y-81445552D02*
X192273182Y-81683647D01*
X190011278Y-81564600D02*
X190249373Y-81683647D01*
X190249373Y-81683647D02*
X190725564Y-81683647D01*
X190725564Y-81683647D02*
X190963659Y-81564600D01*
X190963659Y-81564600D02*
X191082706Y-81445552D01*
X191082706Y-81445552D02*
X191201754Y-81207457D01*
X191201754Y-81207457D02*
X191201754Y-80493171D01*
X191201754Y-80493171D02*
X191082706Y-80255076D01*
X191082706Y-80255076D02*
X190963659Y-80136028D01*
X190963659Y-80136028D02*
X190725564Y-80016980D01*
X190725564Y-80016980D02*
X190249373Y-80016980D01*
X190249373Y-80016980D02*
X190011278Y-80136028D01*
X188582707Y-81683647D02*
X188820802Y-81564600D01*
X188820802Y-81564600D02*
X188939849Y-81445552D01*
X188939849Y-81445552D02*
X189058897Y-81207457D01*
X189058897Y-81207457D02*
X189058897Y-80493171D01*
X189058897Y-80493171D02*
X188939849Y-80255076D01*
X188939849Y-80255076D02*
X188820802Y-80136028D01*
X188820802Y-80136028D02*
X188582707Y-80016980D01*
X188582707Y-80016980D02*
X188225564Y-80016980D01*
X188225564Y-80016980D02*
X187987468Y-80136028D01*
X187987468Y-80136028D02*
X187868421Y-80255076D01*
X187868421Y-80255076D02*
X187749373Y-80493171D01*
X187749373Y-80493171D02*
X187749373Y-81207457D01*
X187749373Y-81207457D02*
X187868421Y-81445552D01*
X187868421Y-81445552D02*
X187987468Y-81564600D01*
X187987468Y-81564600D02*
X188225564Y-81683647D01*
X188225564Y-81683647D02*
X188582707Y-81683647D01*
X186677944Y-81683647D02*
X186677944Y-80016980D01*
X186677944Y-80255076D02*
X186558897Y-80136028D01*
X186558897Y-80136028D02*
X186320802Y-80016980D01*
X186320802Y-80016980D02*
X185963659Y-80016980D01*
X185963659Y-80016980D02*
X185725563Y-80136028D01*
X185725563Y-80136028D02*
X185606516Y-80374123D01*
X185606516Y-80374123D02*
X185606516Y-81683647D01*
X185606516Y-80374123D02*
X185487468Y-80136028D01*
X185487468Y-80136028D02*
X185249373Y-80016980D01*
X185249373Y-80016980D02*
X184892230Y-80016980D01*
X184892230Y-80016980D02*
X184654135Y-80136028D01*
X184654135Y-80136028D02*
X184535087Y-80374123D01*
X184535087Y-80374123D02*
X184535087Y-81683647D01*
X181558897Y-79064600D02*
X183701754Y-82278885D01*
X180725563Y-81683647D02*
X180725563Y-80016980D01*
X180725563Y-80255076D02*
X180606516Y-80136028D01*
X180606516Y-80136028D02*
X180368421Y-80016980D01*
X180368421Y-80016980D02*
X180011278Y-80016980D01*
X180011278Y-80016980D02*
X179773182Y-80136028D01*
X179773182Y-80136028D02*
X179654135Y-80374123D01*
X179654135Y-80374123D02*
X179654135Y-81683647D01*
X179654135Y-80374123D02*
X179535087Y-80136028D01*
X179535087Y-80136028D02*
X179296992Y-80016980D01*
X179296992Y-80016980D02*
X178939849Y-80016980D01*
X178939849Y-80016980D02*
X178701754Y-80136028D01*
X178701754Y-80136028D02*
X178582706Y-80374123D01*
X178582706Y-80374123D02*
X178582706Y-81683647D01*
X177630326Y-80016980D02*
X176320802Y-80016980D01*
X176320802Y-80016980D02*
X177630326Y-81683647D01*
X177630326Y-81683647D02*
X176320802Y-81683647D01*
X175368420Y-81683647D02*
X175368420Y-79183647D01*
X175130325Y-80731266D02*
X174416039Y-81683647D01*
X174416039Y-80016980D02*
X175368420Y-80969361D01*
X173463658Y-81564600D02*
X173225563Y-81683647D01*
X173225563Y-81683647D02*
X172749372Y-81683647D01*
X172749372Y-81683647D02*
X172511277Y-81564600D01*
X172511277Y-81564600D02*
X172392229Y-81326504D01*
X172392229Y-81326504D02*
X172392229Y-81207457D01*
X172392229Y-81207457D02*
X172511277Y-80969361D01*
X172511277Y-80969361D02*
X172749372Y-80850314D01*
X172749372Y-80850314D02*
X173106515Y-80850314D01*
X173106515Y-80850314D02*
X173344610Y-80731266D01*
X173344610Y-80731266D02*
X173463658Y-80493171D01*
X173463658Y-80493171D02*
X173463658Y-80374123D01*
X173463658Y-80374123D02*
X173344610Y-80136028D01*
X173344610Y-80136028D02*
X173106515Y-80016980D01*
X173106515Y-80016980D02*
X172749372Y-80016980D01*
X172749372Y-80016980D02*
X172511277Y-80136028D01*
X169535086Y-79064600D02*
X171677943Y-82278885D01*
X168701752Y-81683647D02*
X168701752Y-79183647D01*
X168701752Y-80136028D02*
X168463657Y-80016980D01*
X168463657Y-80016980D02*
X167987467Y-80016980D01*
X167987467Y-80016980D02*
X167749371Y-80136028D01*
X167749371Y-80136028D02*
X167630324Y-80255076D01*
X167630324Y-80255076D02*
X167511276Y-80493171D01*
X167511276Y-80493171D02*
X167511276Y-81207457D01*
X167511276Y-81207457D02*
X167630324Y-81445552D01*
X167630324Y-81445552D02*
X167749371Y-81564600D01*
X167749371Y-81564600D02*
X167987467Y-81683647D01*
X167987467Y-81683647D02*
X168463657Y-81683647D01*
X168463657Y-81683647D02*
X168701752Y-81564600D01*
X165368419Y-81683647D02*
X165368419Y-80374123D01*
X165368419Y-80374123D02*
X165487466Y-80136028D01*
X165487466Y-80136028D02*
X165725562Y-80016980D01*
X165725562Y-80016980D02*
X166201752Y-80016980D01*
X166201752Y-80016980D02*
X166439847Y-80136028D01*
X165368419Y-81564600D02*
X165606514Y-81683647D01*
X165606514Y-81683647D02*
X166201752Y-81683647D01*
X166201752Y-81683647D02*
X166439847Y-81564600D01*
X166439847Y-81564600D02*
X166558895Y-81326504D01*
X166558895Y-81326504D02*
X166558895Y-81088409D01*
X166558895Y-81088409D02*
X166439847Y-80850314D01*
X166439847Y-80850314D02*
X166201752Y-80731266D01*
X166201752Y-80731266D02*
X165606514Y-80731266D01*
X165606514Y-80731266D02*
X165368419Y-80612219D01*
X163820800Y-81683647D02*
X164058895Y-81564600D01*
X164058895Y-81564600D02*
X164177942Y-81326504D01*
X164177942Y-81326504D02*
X164177942Y-79183647D01*
X162987466Y-81564600D02*
X162749371Y-81683647D01*
X162749371Y-81683647D02*
X162273180Y-81683647D01*
X162273180Y-81683647D02*
X162035085Y-81564600D01*
X162035085Y-81564600D02*
X161916037Y-81326504D01*
X161916037Y-81326504D02*
X161916037Y-81207457D01*
X161916037Y-81207457D02*
X162035085Y-80969361D01*
X162035085Y-80969361D02*
X162273180Y-80850314D01*
X162273180Y-80850314D02*
X162630323Y-80850314D01*
X162630323Y-80850314D02*
X162868418Y-80731266D01*
X162868418Y-80731266D02*
X162987466Y-80493171D01*
X162987466Y-80493171D02*
X162987466Y-80374123D01*
X162987466Y-80374123D02*
X162868418Y-80136028D01*
X162868418Y-80136028D02*
X162630323Y-80016980D01*
X162630323Y-80016980D02*
X162273180Y-80016980D01*
X162273180Y-80016980D02*
X162035085Y-80136028D01*
X159773180Y-80016980D02*
X159773180Y-81683647D01*
X160844608Y-80016980D02*
X160844608Y-81326504D01*
X160844608Y-81326504D02*
X160725561Y-81564600D01*
X160725561Y-81564600D02*
X160487466Y-81683647D01*
X160487466Y-81683647D02*
X160130323Y-81683647D01*
X160130323Y-81683647D02*
X159892227Y-81564600D01*
X159892227Y-81564600D02*
X159773180Y-81445552D01*
X158582703Y-80016980D02*
X158582703Y-81683647D01*
X158582703Y-80255076D02*
X158463656Y-80136028D01*
X158463656Y-80136028D02*
X158225561Y-80016980D01*
X158225561Y-80016980D02*
X157868418Y-80016980D01*
X157868418Y-80016980D02*
X157630322Y-80136028D01*
X157630322Y-80136028D02*
X157511275Y-80374123D01*
X157511275Y-80374123D02*
X157511275Y-81683647D01*
D11*
X188667619Y-100004318D02*
X188667619Y-101032413D01*
X188667619Y-101032413D02*
X188607142Y-101153365D01*
X188607142Y-101153365D02*
X188546666Y-101213842D01*
X188546666Y-101213842D02*
X188425714Y-101274318D01*
X188425714Y-101274318D02*
X188183809Y-101274318D01*
X188183809Y-101274318D02*
X188062857Y-101213842D01*
X188062857Y-101213842D02*
X188002380Y-101153365D01*
X188002380Y-101153365D02*
X187941904Y-101032413D01*
X187941904Y-101032413D02*
X187941904Y-100004318D01*
X186671904Y-101274318D02*
X187397619Y-101274318D01*
X187034762Y-101274318D02*
X187034762Y-100004318D01*
X187034762Y-100004318D02*
X187155714Y-100185746D01*
X187155714Y-100185746D02*
X187276666Y-100306699D01*
X187276666Y-100306699D02*
X187397619Y-100367175D01*
D12*
%TO.C,U1*%
X213100000Y-81955000D02*
X214015000Y-81955000D01*
X214015000Y-81955000D02*
X214015000Y-82920000D01*
X161385000Y-119445000D02*
X161385000Y-118480000D01*
X162300000Y-119445000D02*
X161385000Y-119445000D01*
%TD*%
D13*
X211425000Y-101650000D03*
X211425000Y-88950000D03*
D14*
X213375000Y-113895000D03*
X213375000Y-105255000D03*
X218475000Y-113895000D03*
X218475000Y-105255000D03*
D13*
X199855000Y-106175000D03*
X199855000Y-104905000D03*
X201125000Y-106175000D03*
X201125000Y-104905000D03*
X202395000Y-106175000D03*
X202395000Y-104905000D03*
X203665000Y-106175000D03*
X203665000Y-104905000D03*
X204935000Y-106175000D03*
X204935000Y-104905000D03*
X196800000Y-115580000D03*
X195530000Y-115580000D03*
X196800000Y-114310000D03*
X195530000Y-114310000D03*
X196800000Y-113040000D03*
X195530000Y-113040000D03*
X196800000Y-111770000D03*
X195530000Y-111770000D03*
X196800000Y-110500000D03*
X195530000Y-110500000D03*
X196800000Y-109230000D03*
X195530000Y-109230000D03*
X196800000Y-107960000D03*
X195530000Y-107960000D03*
X196800000Y-106690000D03*
X195530000Y-106690000D03*
X212700000Y-97240000D03*
X212700000Y-94700000D03*
X212700000Y-92160000D03*
X218450000Y-91412500D03*
X215920000Y-76140000D03*
X215920000Y-73600000D03*
X213380000Y-76140000D03*
X213380000Y-73600000D03*
X210840000Y-76140000D03*
X210840000Y-73600000D03*
X208300000Y-76140000D03*
X208300000Y-73600000D03*
X205760000Y-76140000D03*
X205760000Y-73600000D03*
X203220000Y-76140000D03*
X203220000Y-73600000D03*
X200680000Y-76140000D03*
X200680000Y-73600000D03*
X198140000Y-76140000D03*
X198140000Y-73600000D03*
X193060000Y-76140000D03*
X193060000Y-73600000D03*
X190520000Y-76140000D03*
X190520000Y-73600000D03*
X187980000Y-76140000D03*
X187980000Y-73600000D03*
X185440000Y-76140000D03*
X185440000Y-73600000D03*
X182900000Y-76140000D03*
X182900000Y-73600000D03*
X180360000Y-76140000D03*
X180360000Y-73600000D03*
X177820000Y-76140000D03*
X177820000Y-73600000D03*
X175280000Y-76140000D03*
X175280000Y-73600000D03*
X172740000Y-76140000D03*
X172740000Y-73600000D03*
X170200000Y-76140000D03*
X170200000Y-73600000D03*
X195600000Y-76140000D03*
X195600000Y-73600000D03*
X159400000Y-76500000D03*
X167375000Y-124175000D03*
X218450000Y-101600000D03*
X220990000Y-101600000D03*
X218450000Y-99060000D03*
X220990000Y-99060000D03*
X218450000Y-96520000D03*
X220990000Y-96520000D03*
X177800000Y-124460000D03*
X177800000Y-127000000D03*
X180340000Y-124460000D03*
X180340000Y-127000000D03*
X182880000Y-124460000D03*
X182880000Y-127000000D03*
X185420000Y-124460000D03*
X185420000Y-127000000D03*
X187960000Y-124460000D03*
X187960000Y-127000000D03*
X190500000Y-124460000D03*
X190500000Y-127000000D03*
X193040000Y-124460000D03*
X193040000Y-127000000D03*
X195580000Y-124460000D03*
X195580000Y-127000000D03*
X198120000Y-124460000D03*
X198120000Y-127000000D03*
X200660000Y-124460000D03*
X200660000Y-127000000D03*
X203200000Y-124460000D03*
X203200000Y-127000000D03*
X205740000Y-124460000D03*
X205740000Y-127000000D03*
X208280000Y-124460000D03*
X208280000Y-127000000D03*
X210820000Y-124460000D03*
X210820000Y-127000000D03*
X213360000Y-124460000D03*
X213360000Y-127000000D03*
X215900000Y-124460000D03*
X215900000Y-127000000D03*
X218425000Y-119350000D03*
M02*
