%TF.GenerationSoftware,KiCad,Pcbnew,8.0.4*%
%TF.CreationDate,2024-11-04T17:03:22+09:00*%
%TF.ProjectId,balsun,62616c73-756e-42e6-9b69-6361645f7063,rev?*%
%TF.SameCoordinates,Original*%
%TF.FileFunction,Copper,L4,Bot*%
%TF.FilePolarity,Positive*%
%FSLAX46Y46*%
G04 Gerber Fmt 4.6, Leading zero omitted, Abs format (unit mm)*
G04 Created by KiCad (PCBNEW 8.0.4) date 2024-11-04 17:03:22*
%MOMM*%
%LPD*%
G01*
G04 APERTURE LIST*
%TA.AperFunction,SMDPad,CuDef*%
%ADD10R,4.000000X1.810000*%
%TD*%
%TA.AperFunction,ComponentPad*%
%ADD11R,1.050000X1.050000*%
%TD*%
%TA.AperFunction,ComponentPad*%
%ADD12C,1.050000*%
%TD*%
%TA.AperFunction,ComponentPad*%
%ADD13C,1.524000*%
%TD*%
%TA.AperFunction,ComponentPad*%
%ADD14C,5.000000*%
%TD*%
%TA.AperFunction,ComponentPad*%
%ADD15R,2.000000X2.540000*%
%TD*%
%TA.AperFunction,ComponentPad*%
%ADD16C,3.400000*%
%TD*%
%TA.AperFunction,ComponentPad*%
%ADD17R,2.540000X2.000000*%
%TD*%
%TA.AperFunction,ComponentPad*%
%ADD18O,2.200000X1.200000*%
%TD*%
%TA.AperFunction,ComponentPad*%
%ADD19C,1.530000*%
%TD*%
%TA.AperFunction,SMDPad,CuDef*%
%ADD20C,0.517500*%
%TD*%
%TA.AperFunction,ViaPad*%
%ADD21C,0.600000*%
%TD*%
%TA.AperFunction,Conductor*%
%ADD22C,0.400000*%
%TD*%
%TA.AperFunction,Conductor*%
%ADD23C,0.200000*%
%TD*%
%ADD24C,0.300000*%
%ADD25C,0.350000*%
%ADD26O,1.600000X0.600000*%
G04 APERTURE END LIST*
D10*
%TO.P,J6,2,2*%
%TO.N,GND*%
X158600000Y-115260000D03*
X158600000Y-120790000D03*
%TD*%
D11*
%TO.P,J4,1,1*%
%TO.N,P402*%
X196800000Y-115580000D03*
D12*
%TO.P,J4,2,2*%
%TO.N,P401*%
X195530000Y-115580000D03*
%TO.P,J4,3,3*%
%TO.N,P215*%
X196800000Y-114310000D03*
%TO.P,J4,4,4*%
%TO.N,P400*%
X195530000Y-114310000D03*
%TO.P,J4,5,5*%
%TO.N,P214*%
X196800000Y-113040000D03*
%TO.P,J4,6,6*%
%TO.N,P011*%
X195530000Y-113040000D03*
%TO.P,J4,7,7*%
%TO.N,P411*%
X196800000Y-111770000D03*
%TO.P,J4,8,8*%
%TO.N,P003*%
X195530000Y-111770000D03*
%TO.P,J4,9,9*%
%TO.N,P410*%
X196800000Y-110500000D03*
%TO.P,J4,10,10*%
%TO.N,P004*%
X195530000Y-110500000D03*
%TO.P,J4,11,11*%
%TO.N,P409*%
X196800000Y-109230000D03*
%TO.P,J4,12,12*%
%TO.N,P015*%
X195530000Y-109230000D03*
%TO.P,J4,13,13*%
%TO.N,P408*%
X196800000Y-107960000D03*
%TO.P,J4,14,14*%
%TO.N,P113*%
X195530000Y-107960000D03*
%TO.P,J4,15,15*%
%TO.N,P206*%
X196800000Y-106690000D03*
%TO.P,J4,16,16*%
%TO.N,P205*%
X195530000Y-106690000D03*
%TD*%
D13*
%TO.P,IC3,1,IN*%
%TO.N,VEXTIN*%
X212700000Y-97240000D03*
%TO.P,IC3,2,GND*%
%TO.N,GND*%
X212700000Y-94700000D03*
%TO.P,IC3,3,OUT*%
%TO.N,Net-(IC3-OUT)*%
X212700000Y-92160000D03*
%TD*%
D12*
%TO.P,J1,10,10*%
%TO.N,RESET*%
X204935000Y-104905000D03*
%TO.P,J1,9,9*%
%TO.N,GND*%
X204935000Y-106175000D03*
%TO.P,J1,8,8*%
%TO.N,P501_SCI1_TXD*%
X203665000Y-104905000D03*
%TO.P,J1,7,7*%
%TO.N,P502_SCI1_RXD*%
X203665000Y-106175000D03*
%TO.P,J1,6,6*%
%TO.N,unconnected-(J1-Pad6)*%
X202395000Y-104905000D03*
%TO.P,J1,5,5*%
%TO.N,GND*%
X202395000Y-106175000D03*
%TO.P,J1,4,4*%
%TO.N,P300_SWCLK*%
X201125000Y-104905000D03*
%TO.P,J1,3,3*%
%TO.N,GND*%
X201125000Y-106175000D03*
%TO.P,J1,2,2*%
%TO.N,P108_SWDIO*%
X199855000Y-104905000D03*
D11*
%TO.P,J1,1,1*%
%TO.N,+5V*%
X199855000Y-106175000D03*
%TD*%
D14*
%TO.P,H3,1,Hole*%
%TO.N,GND*%
X218450000Y-91412500D03*
%TD*%
D15*
%TO.P,P1,0,Rx*%
%TO.N,WISUN_TX_Serial1_D0*%
X215920000Y-76140000D03*
X215920000Y-73600000D03*
%TO.P,P1,1,Tx*%
%TO.N,WISUN_RX_Serial1_D1*%
X213380000Y-76140000D03*
X213380000Y-73600000D03*
%TO.P,P1,2,2*%
%TO.N,P105_IRQ00_GPT1_A*%
X210840000Y-76140000D03*
X210840000Y-73600000D03*
%TO.P,P1,3,~3*%
%TO.N,P104_IRQ01_GPT1_B*%
X208300000Y-76140000D03*
X208300000Y-73600000D03*
%TO.P,P1,4,4*%
%TO.N,P103_SPI0_SSL_GPT2_A_CAN0_TX*%
X205760000Y-76140000D03*
X205760000Y-73600000D03*
%TO.P,P1,5,~5*%
%TO.N,P102_SPI0_RSPCK_GPT2_B_CAN0_RX*%
X203220000Y-76140000D03*
X203220000Y-73600000D03*
%TO.P,P1,6,~6*%
%TO.N,P106_GPT0_B*%
X200680000Y-76140000D03*
X200680000Y-73600000D03*
%TO.P,P1,7,7*%
%TO.N,P107_GPT0_A*%
X198140000Y-76140000D03*
X198140000Y-73600000D03*
%TO.P,P1,8,8*%
%TO.N,P304_GPT7_A*%
X193060000Y-76140000D03*
X193060000Y-73600000D03*
%TO.P,P1,9,~9*%
%TO.N,P303_GPT7_B*%
X190520000Y-76140000D03*
X190520000Y-73600000D03*
%TO.P,P1,10,~10*%
%TO.N,P112_GPT3_B*%
X187980000Y-76140000D03*
X187980000Y-73600000D03*
%TO.P,P1,11,~11*%
%TO.N,P109_SCI9_TXD*%
X185440000Y-76140000D03*
X185440000Y-73600000D03*
%TO.P,P1,12,12*%
%TO.N,P110_SCI9_RXD*%
X182900000Y-76140000D03*
X182900000Y-73600000D03*
%TO.P,P1,13,13*%
%TO.N,P111_GPT3_A*%
X180360000Y-76140000D03*
X180360000Y-73600000D03*
%TO.P,P1,14,GND*%
%TO.N,GND*%
X177820000Y-76140000D03*
X177820000Y-73600000D03*
%TO.P,P1,15,AREF*%
%TO.N,AREF*%
X175280000Y-76140000D03*
X175280000Y-73600000D03*
%TO.P,P1,16,SDA*%
%TO.N,P101_AN21_SDA*%
X172740000Y-76140000D03*
X172740000Y-73600000D03*
%TO.P,P1,17,SCL*%
%TO.N,P100_AN22_SCL*%
X170200000Y-76140000D03*
X170200000Y-73600000D03*
%TO.P,P1,18,extra*%
%TO.N,+5V*%
X195600000Y-76140000D03*
X195600000Y-73600000D03*
%TD*%
D16*
%TO.P,H4,1,Hole*%
%TO.N,GND*%
X159400000Y-76500000D03*
%TD*%
%TO.P,H5,1,Hole*%
%TO.N,GND*%
X167375000Y-124175000D03*
%TD*%
D17*
%TO.P,H1,1,plus>5V*%
%TO.N,VEXTIN*%
X218450000Y-101600000D03*
X220990000Y-101600000D03*
%TO.P,H1,2,GND*%
%TO.N,GND*%
X218450000Y-99060000D03*
X220990000Y-99060000D03*
%TO.P,H1,4,plus<5V*%
%TO.N,VBAT*%
X218450000Y-96520000D03*
X220990000Y-96520000D03*
%TD*%
D15*
%TO.P,J2,1,1*%
%TO.N,+5V*%
X177800000Y-124460000D03*
X177800000Y-127000000D03*
%TO.P,J2,2,2*%
%TO.N,MD*%
X180340000Y-124460000D03*
X180340000Y-127000000D03*
%TO.P,J2,3,3*%
%TO.N,+5V*%
X182880000Y-124460000D03*
X182880000Y-127000000D03*
%TO.P,J2,4,4*%
%TO.N,RESET*%
X185420000Y-124460000D03*
X185420000Y-127000000D03*
%TO.P,J2,5,5*%
%TO.N,+3V3*%
X187960000Y-124460000D03*
X187960000Y-127000000D03*
%TO.P,J2,6,6*%
%TO.N,+5V*%
X190500000Y-124460000D03*
X190500000Y-127000000D03*
%TO.P,J2,7,7*%
%TO.N,GND*%
X193040000Y-124460000D03*
X193040000Y-127000000D03*
%TO.P,J2,8,8*%
X195580000Y-124460000D03*
X195580000Y-127000000D03*
%TO.P,J2,9,9*%
%TO.N,VUSB*%
X198120000Y-124460000D03*
X198120000Y-127000000D03*
%TO.P,J2,10,10*%
%TO.N,unconnected-(J2-Pad10)*%
X200660000Y-124460000D03*
%TO.N,unconnected-(J2-Pad10)_1*%
X200660000Y-127000000D03*
%TO.P,J2,11,11*%
%TO.N,P014_AN09_DAC*%
X203200000Y-124460000D03*
X203200000Y-127000000D03*
%TO.P,J2,12,12*%
%TO.N,P000_AN00_AMP+*%
X205740000Y-124460000D03*
X205740000Y-127000000D03*
%TO.P,J2,13,13*%
%TO.N,P001_AN01_AMP-*%
X208280000Y-124460000D03*
X208280000Y-127000000D03*
%TO.P,J2,14,14*%
%TO.N,P002_AN02_AMPO*%
X210820000Y-124460000D03*
X210820000Y-127000000D03*
%TO.P,J2,15,15*%
%TO.N,P101_AN21_SDA*%
X213360000Y-124460000D03*
X213360000Y-127000000D03*
%TO.P,J2,16,16*%
%TO.N,P100_AN22_SCL*%
X215900000Y-124460000D03*
X215900000Y-127000000D03*
%TD*%
D18*
%TO.P,J5,MH1,MH1*%
%TO.N,GND*%
X213375000Y-113895000D03*
%TO.P,J5,MH2,MH2*%
X213375000Y-105255000D03*
%TO.P,J5,MH3,MH3*%
X218475000Y-113895000D03*
%TO.P,J5,MH4,MH4*%
X218475000Y-105255000D03*
%TD*%
D14*
%TO.P,H2,1,Hole*%
%TO.N,GND*%
X218425000Y-119350000D03*
%TD*%
D19*
%TO.P,U1,1,+*%
%TO.N,VBAT*%
X211425000Y-88950000D03*
%TO.P,U1,2,-*%
%TO.N,GND*%
X211425000Y-101650000D03*
D20*
%TO.P,U1,3,3*%
%TO.N,unconnected-(U1-Pad3)*%
X187705000Y-88950000D03*
%TO.P,U1,4,4*%
%TO.N,unconnected-(U1-Pad4)*%
X187705000Y-112450000D03*
%TD*%
D21*
%TO.N,VBAT*%
X203200000Y-81160000D03*
%TO.N,GND*%
X194540000Y-96460000D03*
%TO.N,P103_SPI0_SSL_GPT2_A_CAN0_TX*%
X192600000Y-90880000D03*
%TO.N,+5V*%
X190500000Y-88900000D03*
%TO.N,+3V3*%
X194600000Y-94000000D03*
%TO.N,GND*%
X169500000Y-121500000D03*
X163600000Y-124100000D03*
X202900000Y-83400000D03*
X159200000Y-122300000D03*
X178000000Y-87700000D03*
X196600000Y-100300000D03*
X199800000Y-99700000D03*
X160300000Y-113500000D03*
X202700000Y-119300000D03*
X190000000Y-78500000D03*
X167700000Y-75600000D03*
X161500000Y-115100000D03*
X183700000Y-120100000D03*
X200400000Y-110800000D03*
X163600000Y-122300000D03*
X202500000Y-108100000D03*
X158200000Y-116900000D03*
X178800000Y-89900000D03*
X158200000Y-126100000D03*
X175600000Y-88100000D03*
X194900000Y-82700000D03*
X179100000Y-91500000D03*
X166500000Y-114600000D03*
X158200000Y-119000000D03*
X188900000Y-86200000D03*
X207800000Y-119500000D03*
X164600000Y-113500000D03*
X209100000Y-83500000D03*
X163600000Y-126100000D03*
X158200000Y-122300000D03*
X165000000Y-116200000D03*
X218700000Y-83700000D03*
X177800000Y-85400000D03*
X161500000Y-113600000D03*
X163300000Y-117800000D03*
X161400000Y-120600000D03*
X182200000Y-81900000D03*
X159200000Y-119000000D03*
X201000000Y-115800000D03*
X163800000Y-114300000D03*
X210200000Y-92200000D03*
X165830000Y-118955000D03*
X162200000Y-115900000D03*
X165700000Y-115400000D03*
X161500000Y-116700000D03*
X161400000Y-119000000D03*
X166300000Y-112000000D03*
X209000000Y-88500000D03*
X158200000Y-113500000D03*
X188200000Y-98900000D03*
X192700000Y-80900000D03*
X165900000Y-117300000D03*
X180900000Y-98100000D03*
X161400000Y-126100000D03*
X163000000Y-115100000D03*
X179000000Y-87800000D03*
X167700000Y-120600000D03*
X201700000Y-92400000D03*
X167400000Y-113800000D03*
X159200000Y-113500000D03*
X214500000Y-120600000D03*
X163600000Y-120600000D03*
X180400000Y-80600000D03*
X161400000Y-122300000D03*
X174300000Y-122600000D03*
X162500000Y-118700000D03*
X167700000Y-119000000D03*
X206700000Y-97800000D03*
X211600000Y-80000000D03*
X217800000Y-88100000D03*
X158200000Y-124100000D03*
X207200000Y-90900000D03*
X160300000Y-119000000D03*
X164100000Y-117000000D03*
X202700000Y-113300000D03*
X161400000Y-124100000D03*
X160300000Y-116900000D03*
X209300000Y-96200000D03*
X206900000Y-94500000D03*
X203600000Y-116500000D03*
X165400000Y-112700000D03*
X190600000Y-111600000D03*
X167300000Y-111400000D03*
X162300000Y-74800000D03*
X159200000Y-116900000D03*
X214300000Y-103500000D03*
X160300000Y-122300000D03*
X165800000Y-120600000D03*
X167700000Y-117300000D03*
%TO.N,+5V*%
X187400000Y-101600000D03*
X197935600Y-105173300D03*
X197100000Y-94400000D03*
X190089700Y-81135100D03*
X198694900Y-86207000D03*
%TO.N,MD*%
X184754100Y-88668600D03*
X191076800Y-91514800D03*
%TO.N,P101_AN21_SDA*%
X205349200Y-97975000D03*
X184298100Y-90310200D03*
%TO.N,P111_GPT3_A*%
X192422900Y-88001000D03*
X174300000Y-94000000D03*
%TO.N,P304_GPT7_A*%
X197423900Y-83414300D03*
%TO.N,P409*%
X200020200Y-95397200D03*
%TO.N,P401*%
X194372000Y-101767600D03*
%TO.N,P001_AN01_AMP-*%
X193551200Y-99685700D03*
X192700000Y-97300000D03*
%TO.N,P214*%
X198738100Y-97828600D03*
%TO.N,P003*%
X191832700Y-95555300D03*
%TO.N,P206*%
X194500000Y-92900000D03*
%TO.N,P400*%
X194705700Y-100796000D03*
%TO.N,P107_GPT0_A*%
X194277700Y-88028100D03*
%TO.N,P000_AN00_AMP+*%
X193502700Y-98733300D03*
X199595150Y-122295150D03*
%TO.N,P408*%
X198000000Y-92880000D03*
%TO.N,P100_AN22_SCL*%
X191800000Y-93200000D03*
X208200000Y-96200000D03*
X175700000Y-82700000D03*
X186043100Y-88895900D03*
%TO.N,P110_SCI9_RXD*%
X190240000Y-85000000D03*
%TO.N,P106_GPT0_B*%
X189180000Y-89990000D03*
%TO.N,Net-(IC1-P200)*%
X188800000Y-84600000D03*
X198635900Y-84808400D03*
%TO.N,P410*%
X197700000Y-93691200D03*
%TO.N,P411*%
X199348700Y-96594300D03*
%TO.N,P004*%
X190700000Y-102900000D03*
%TO.N,P205*%
X196591400Y-89700400D03*
%TO.N,P109_SCI9_TXD*%
X192493600Y-84990700D03*
%TO.N,P014_AN09_DAC*%
X187400000Y-98400000D03*
X189402100Y-93687600D03*
X196300000Y-103100000D03*
X191900000Y-102500000D03*
X207200000Y-117900000D03*
%TO.N,P002_AN02_AMPO*%
X198282200Y-121642600D03*
X191442500Y-100855600D03*
%TO.N,P105_IRQ00_GPT1_A*%
X186893300Y-87743700D03*
%TO.N,P113*%
X204300000Y-103100000D03*
X191713600Y-89200000D03*
%TO.N,P215*%
X195860900Y-116887700D03*
X195271500Y-96015800D03*
%TO.N,P104_IRQ01_GPT1_B*%
X193800000Y-81831400D03*
X183825100Y-89441700D03*
%TO.N,P102_SPI0_RSPCK_GPT2_B_CAN0_RX*%
X199200000Y-79300000D03*
X189669100Y-91704200D03*
%TO.N,P015*%
X186400000Y-95500000D03*
%TO.N,P112_GPT3_B*%
X192917100Y-89208800D03*
%TO.N,USB_D_P*%
X199267100Y-92325400D03*
X201319300Y-103872600D03*
%TO.N,USB_D_N*%
X211900000Y-108400000D03*
X215240000Y-110000000D03*
X201016700Y-90809600D03*
%TO.N,VUSB*%
X215500000Y-107900000D03*
X215400000Y-111000000D03*
X214700000Y-85700000D03*
%TO.N,CC1*%
X211600000Y-110200000D03*
X214600000Y-115100000D03*
%TO.N,VBAT*%
X216000000Y-94400000D03*
%TO.N,VREFH0*%
X183765400Y-86798600D03*
X190965600Y-96000000D03*
%TO.N,P013*%
X187504900Y-92181000D03*
X183100000Y-95200000D03*
%TO.N,P501_SCI1_TXD*%
X190578700Y-92886800D03*
%TO.N,P502_SCI1_RXD*%
X188340100Y-93047700D03*
X204145600Y-99393600D03*
%TO.N,WISUN_RESETN*%
X195516300Y-89951100D03*
X187300000Y-121600000D03*
%TO.N,WISUN_RX*%
X191927800Y-106056900D03*
X204265800Y-100716000D03*
%TO.N,Net-(IC1-P500)*%
X183912300Y-92791500D03*
X175249600Y-89294800D03*
%TO.N,WISUN_TX*%
X206714200Y-101717100D03*
X206321000Y-114987400D03*
%TO.N,RESET*%
X178914800Y-93351600D03*
X199080050Y-87589950D03*
%TO.N,+3V3*%
X193800000Y-96900000D03*
X189385800Y-83066000D03*
%TO.N,P300_SWCLK*%
X200993500Y-91795200D03*
X193484100Y-88641800D03*
%TO.N,P108_SWDIO*%
X197335100Y-84883700D03*
X194347900Y-84628100D03*
X191920000Y-84150300D03*
%TO.N,WISUN_TX_Serial1*%
X195528400Y-88125300D03*
X206143800Y-91218500D03*
%TO.N,WISUN_RX_Serial1*%
X204345800Y-90660800D03*
X195354700Y-84073800D03*
%TO.N,WISUN_TX_Serial1_D0*%
X215404150Y-90004150D03*
%TO.N,WISUN_RX_Serial1_D1*%
X202552600Y-97978700D03*
%TO.N,Net-(IC3-OUT)*%
X209700000Y-82800000D03*
%TO.N,Net-(IC5-ILIM)*%
X215800000Y-87100000D03*
X207200000Y-83450000D03*
%TD*%
D22*
%TO.N,VUSB*%
X214800000Y-85800000D02*
X214700000Y-85700000D01*
X214800000Y-87000000D02*
X214800000Y-85800000D01*
X214700000Y-87100000D02*
X214800000Y-87000000D01*
X214700000Y-94400000D02*
X214700000Y-87100000D01*
X215310000Y-95010000D02*
X214700000Y-94400000D01*
X215310000Y-107710000D02*
X215310000Y-95010000D01*
X215500000Y-107900000D02*
X215310000Y-107710000D01*
%TO.N,+3V3*%
X189050000Y-83401800D02*
X189385800Y-83066000D01*
X189520000Y-84240000D02*
X189050000Y-83770000D01*
X189520000Y-85820000D02*
X189520000Y-84240000D01*
X190070000Y-86370000D02*
X189520000Y-85820000D01*
X189510000Y-86930000D02*
X190070000Y-86370000D01*
X189510000Y-88910000D02*
X189510000Y-86930000D01*
X189050000Y-83770000D02*
X189050000Y-83401800D01*
X194600000Y-94000000D02*
X189510000Y-88910000D01*
%TO.N,+5V*%
X190590000Y-81635400D02*
X190089700Y-81135100D01*
X191294500Y-88005500D02*
X191294500Y-84564500D01*
X190590000Y-83860000D02*
X190590000Y-81635400D01*
X190500000Y-88800000D02*
X191294500Y-88005500D01*
X190500000Y-88900000D02*
X190500000Y-88800000D01*
X191294500Y-84564500D02*
X190590000Y-83860000D01*
%TO.N,VUSB*%
X215950000Y-110450000D02*
X215400000Y-111000000D01*
X215950000Y-108350000D02*
X215950000Y-110450000D01*
X215500000Y-107900000D02*
X215950000Y-108350000D01*
D23*
%TO.N,USB_D_N*%
X212400000Y-108400000D02*
X211900000Y-108400000D01*
X214000000Y-110000000D02*
X212400000Y-108400000D01*
X215240000Y-110000000D02*
X214000000Y-110000000D01*
D22*
%TO.N,+5V*%
X194270000Y-90000000D02*
X195270000Y-89000000D01*
X194100000Y-90000000D02*
X194270000Y-90000000D01*
X196700000Y-94000000D02*
X197100000Y-94400000D01*
X196700000Y-92600000D02*
X196700000Y-94000000D01*
X194100000Y-90000000D02*
X196700000Y-92600000D01*
X191448528Y-90000000D02*
X194100000Y-90000000D01*
X191060000Y-89611472D02*
X191448528Y-90000000D01*
X190500000Y-88900000D02*
X191060000Y-89460000D01*
X191060000Y-89460000D02*
X191060000Y-89611472D01*
X198694900Y-86705100D02*
X198694900Y-86207000D01*
X195270000Y-89000000D02*
X196400000Y-89000000D01*
X196400000Y-89000000D02*
X198694900Y-86705100D01*
X190500000Y-89000000D02*
X190500000Y-88900000D01*
D23*
%TO.N,MD*%
X188820000Y-91020000D02*
X187600000Y-89800000D01*
X184868600Y-88668600D02*
X184754100Y-88668600D01*
X190328229Y-91514800D02*
X189833429Y-91020000D01*
X189833429Y-91020000D02*
X188820000Y-91020000D01*
X191076800Y-91514800D02*
X190328229Y-91514800D01*
X187600000Y-89800000D02*
X186000000Y-89800000D01*
X186000000Y-89800000D02*
X184868600Y-88668600D01*
D22*
%TO.N,Net-(IC3-OUT)*%
X210000000Y-89460000D02*
X212700000Y-92160000D01*
X210000000Y-87800000D02*
X210000000Y-89460000D01*
X210400000Y-83500000D02*
X210400000Y-84000000D01*
X210400000Y-84000000D02*
X209200000Y-85200000D01*
X209200000Y-85200000D02*
X209200000Y-87000000D01*
X209200000Y-87000000D02*
X210000000Y-87800000D01*
X209700000Y-82800000D02*
X210400000Y-83500000D01*
%TO.N,+5V*%
X189600000Y-122400000D02*
X190500000Y-123300000D01*
X182880000Y-122620000D02*
X183100000Y-122400000D01*
X190500000Y-123300000D02*
X190500000Y-124460000D01*
X182880000Y-124460000D02*
X182880000Y-122620000D01*
X183100000Y-122400000D02*
X189600000Y-122400000D01*
D23*
%TO.N,+3V3*%
X194600000Y-94000000D02*
X194539900Y-94000000D01*
X194600000Y-94060100D02*
X194600000Y-94000000D01*
%TO.N,P003*%
X191832700Y-96523200D02*
X190800000Y-97555900D01*
X191300000Y-101900000D02*
X191300000Y-107540000D01*
X191300000Y-107540000D02*
X195530000Y-111770000D01*
X190800000Y-97555900D02*
X190800000Y-101400000D01*
X191832700Y-95555300D02*
X191832700Y-96523200D01*
X190800000Y-101400000D02*
X191300000Y-101900000D01*
D22*
%TO.N,+5V*%
X199855000Y-106175000D02*
X199028300Y-106175000D01*
X199028300Y-106175000D02*
X198026600Y-105173300D01*
D23*
X198026600Y-105173300D02*
X197935600Y-105173300D01*
%TO.N,P101_AN21_SDA*%
X198642700Y-94757300D02*
X198000000Y-95400000D01*
X190176300Y-93610900D02*
X189651300Y-93085900D01*
X187658700Y-93670800D02*
X184298100Y-90310200D01*
X189651300Y-93085900D02*
X189153000Y-93085900D01*
X190176300Y-93611000D02*
X190176300Y-93610900D01*
X205349200Y-97975000D02*
X202131500Y-94757300D01*
X202131500Y-94757300D02*
X198642700Y-94757300D01*
X198000000Y-95400000D02*
X192730900Y-95400000D01*
X188568100Y-93670800D02*
X187658700Y-93670800D01*
X190941900Y-93611000D02*
X190176300Y-93611000D01*
X189153000Y-93085900D02*
X188568100Y-93670800D01*
X192730900Y-95400000D02*
X190941900Y-93611000D01*
%TO.N,P107_GPT0_A*%
X193100000Y-82200000D02*
X193700000Y-82800000D01*
X196300000Y-78400000D02*
X193100000Y-81600000D01*
X193700000Y-82800000D02*
X193700000Y-87450400D01*
X198140000Y-76140000D02*
X198140000Y-78060000D01*
X198140000Y-78060000D02*
X197800000Y-78400000D01*
X197800000Y-78400000D02*
X196300000Y-78400000D01*
X193100000Y-81600000D02*
X193100000Y-82200000D01*
X193700000Y-87450400D02*
X194277700Y-88028100D01*
%TO.N,P100_AN22_SCL*%
X202200000Y-94200000D02*
X198600000Y-94200000D01*
X195300000Y-94900000D02*
X195000000Y-94600000D01*
X170200000Y-76140000D02*
X170200000Y-77400000D01*
X208200000Y-96200000D02*
X204200000Y-96200000D01*
X196400000Y-95000000D02*
X196300000Y-94900000D01*
X193200000Y-94600000D02*
X191800000Y-93200000D01*
X174100000Y-78000000D02*
X175700000Y-79600000D01*
X170200000Y-77400000D02*
X170800000Y-78000000D01*
X195000000Y-94600000D02*
X193200000Y-94600000D01*
X197800000Y-95000000D02*
X196400000Y-95000000D01*
X198600000Y-94200000D02*
X197800000Y-95000000D01*
X170800000Y-78000000D02*
X174100000Y-78000000D01*
X196300000Y-94900000D02*
X195300000Y-94900000D01*
X175700000Y-79600000D02*
X175700000Y-82700000D01*
X215900000Y-124460000D02*
X215900000Y-123300000D01*
X204200000Y-96200000D02*
X202200000Y-94200000D01*
%TO.N,P014_AN09_DAC*%
X205200000Y-102200000D02*
X197500000Y-102200000D01*
X197500000Y-102200000D02*
X196600000Y-103100000D01*
X206500000Y-103500000D02*
X205200000Y-102200000D01*
X206500000Y-109400000D02*
X206500000Y-103500000D01*
X207200000Y-114400000D02*
X206400000Y-113600000D01*
X206400000Y-113600000D02*
X206400000Y-109500000D01*
X196600000Y-103100000D02*
X196300000Y-103100000D01*
X207200000Y-117900000D02*
X207200000Y-114400000D01*
X206400000Y-109500000D02*
X206500000Y-109400000D01*
%TO.N,P002_AN02_AMPO*%
X210820000Y-124460000D02*
X210820000Y-122888300D01*
X210820000Y-122888300D02*
X209574300Y-121642600D01*
X209574300Y-121642600D02*
X198282200Y-121642600D01*
%TO.N,P113*%
X195530000Y-107960000D02*
X194656500Y-107086500D01*
X194656500Y-107086500D02*
X194656500Y-106394400D01*
X194656500Y-106394400D02*
X197850900Y-103200000D01*
X197850900Y-103200000D02*
X204200000Y-103200000D01*
X204200000Y-103200000D02*
X204300000Y-103100000D01*
%TO.N,P215*%
X197626700Y-114930000D02*
X197626700Y-116230000D01*
X197006700Y-114310000D02*
X197626700Y-114930000D01*
X196800000Y-114310000D02*
X197006700Y-114310000D01*
X196969000Y-116887700D02*
X195860900Y-116887700D01*
X197626700Y-116230000D02*
X196969000Y-116887700D01*
%TO.N,P104_IRQ01_GPT1_B*%
X207400000Y-78600000D02*
X208300000Y-77700000D01*
X203059800Y-78600000D02*
X207400000Y-78600000D01*
X193800000Y-81831400D02*
X199828400Y-81831400D01*
X208300000Y-77700000D02*
X208300000Y-76140000D01*
X199828400Y-81831400D02*
X203059800Y-78600000D01*
%TO.N,P102_SPI0_RSPCK_GPT2_B_CAN0_RX*%
X202100000Y-78500000D02*
X203220000Y-77380000D01*
X203220000Y-77380000D02*
X203220000Y-76140000D01*
X199200000Y-79300000D02*
X200000000Y-78500000D01*
X200000000Y-78500000D02*
X202100000Y-78500000D01*
%TO.N,P112_GPT3_B*%
X192882400Y-89174100D02*
X192917100Y-89208800D01*
X192882400Y-88392700D02*
X192882400Y-89174100D01*
X187980000Y-77711700D02*
X193235000Y-82966700D01*
X193235000Y-88040100D02*
X192882400Y-88392700D01*
X193235000Y-82966700D02*
X193235000Y-88040100D01*
X187980000Y-76140000D02*
X187980000Y-77711700D01*
%TO.N,USB_D_N*%
X212000000Y-108400000D02*
X211900000Y-108400000D01*
%TO.N,CC1*%
X215200000Y-113200000D02*
X215200000Y-114500000D01*
X215200000Y-114500000D02*
X214600000Y-115100000D01*
X213700000Y-111700000D02*
X215200000Y-113200000D01*
X213100000Y-111700000D02*
X213700000Y-111700000D01*
X211600000Y-110200000D02*
X213100000Y-111700000D01*
%TO.N,WISUN_RX*%
X204265800Y-100716000D02*
X197268700Y-100716000D01*
X197268700Y-100716000D02*
X191927800Y-106056900D01*
%TO.N,+3V3*%
X194575200Y-94035300D02*
X194600000Y-94060100D01*
%TO.N,P108_SWDIO*%
X194347900Y-84628100D02*
X194603500Y-84883700D01*
X194603500Y-84883700D02*
X197335100Y-84883700D01*
%TO.N,WISUN_RX_Serial1*%
X204345800Y-90660800D02*
X204345800Y-89667400D01*
X198752200Y-84073800D02*
X195354700Y-84073800D01*
X204345800Y-89667400D02*
X198752200Y-84073800D01*
%TD*%
%TA.AperFunction,Conductor*%
%TO.N,GND*%
G36*
X218441065Y-74160819D02*
G01*
X218694498Y-74179073D01*
X218710412Y-74181263D01*
X218955966Y-74231455D01*
X218971460Y-74235685D01*
X219208470Y-74317225D01*
X219223283Y-74323422D01*
X219447750Y-74434936D01*
X219461643Y-74443001D01*
X219491615Y-74463104D01*
X219669788Y-74582609D01*
X219682530Y-74592410D01*
X219870863Y-74757770D01*
X219882229Y-74769136D01*
X220047589Y-74957469D01*
X220057390Y-74970211D01*
X220196997Y-75178354D01*
X220205066Y-75192254D01*
X220296493Y-75376289D01*
X220316572Y-75416705D01*
X220322776Y-75431535D01*
X220404312Y-75668531D01*
X220408545Y-75684038D01*
X220458735Y-75929582D01*
X220460927Y-75945507D01*
X220479180Y-76198926D01*
X220479500Y-76207834D01*
X220479500Y-88933310D01*
X220459815Y-89000349D01*
X220407011Y-89046104D01*
X220337853Y-89056048D01*
X220275796Y-89028301D01*
X220244518Y-89002056D01*
X219952538Y-88810019D01*
X219640260Y-88653185D01*
X219640254Y-88653183D01*
X219311869Y-88533661D01*
X219311866Y-88533660D01*
X218971828Y-88453070D01*
X218624723Y-88412500D01*
X218275277Y-88412500D01*
X217928172Y-88453070D01*
X217928170Y-88453070D01*
X217588133Y-88533660D01*
X217588130Y-88533661D01*
X217259745Y-88653183D01*
X217259739Y-88653185D01*
X216947461Y-88810019D01*
X216655480Y-89002057D01*
X216512819Y-89121764D01*
X216512818Y-89121765D01*
X217509301Y-90118248D01*
X217407670Y-90192088D01*
X217229588Y-90370170D01*
X217155748Y-90471801D01*
X216156148Y-89472201D01*
X216156147Y-89472202D01*
X216147976Y-89480863D01*
X216147972Y-89480868D01*
X215992875Y-89689199D01*
X215937052Y-89731218D01*
X215867374Y-89736386D01*
X215805963Y-89703064D01*
X215799699Y-89696353D01*
X215735279Y-89622008D01*
X215735278Y-89622007D01*
X215614203Y-89544197D01*
X215614201Y-89544196D01*
X215614199Y-89544195D01*
X215614200Y-89544195D01*
X215476113Y-89503650D01*
X215476111Y-89503650D01*
X215332189Y-89503650D01*
X215259433Y-89525012D01*
X215189563Y-89525011D01*
X215130786Y-89487235D01*
X215101762Y-89423679D01*
X215100500Y-89406034D01*
X215100500Y-87343146D01*
X215120185Y-87276107D01*
X215172989Y-87230352D01*
X215242147Y-87220408D01*
X215305703Y-87249433D01*
X215337294Y-87291635D01*
X215374620Y-87373369D01*
X215374623Y-87373373D01*
X215468872Y-87482143D01*
X215589947Y-87559953D01*
X215589950Y-87559954D01*
X215589949Y-87559954D01*
X215728036Y-87600499D01*
X215728038Y-87600500D01*
X215728039Y-87600500D01*
X215871962Y-87600500D01*
X215871962Y-87600499D01*
X215979121Y-87569035D01*
X216010050Y-87559954D01*
X216010050Y-87559953D01*
X216010053Y-87559953D01*
X216131128Y-87482143D01*
X216225377Y-87373373D01*
X216285165Y-87242457D01*
X216305647Y-87100000D01*
X216285165Y-86957543D01*
X216225377Y-86826627D01*
X216131128Y-86717857D01*
X216010053Y-86640047D01*
X216010051Y-86640046D01*
X216010049Y-86640045D01*
X216010050Y-86640045D01*
X215871963Y-86599500D01*
X215871961Y-86599500D01*
X215728039Y-86599500D01*
X215728036Y-86599500D01*
X215589949Y-86640045D01*
X215468873Y-86717856D01*
X215418213Y-86776321D01*
X215359434Y-86814095D01*
X215289565Y-86814095D01*
X215230787Y-86776320D01*
X215201762Y-86712765D01*
X215200500Y-86695118D01*
X215200500Y-85744666D01*
X215201762Y-85727018D01*
X215205647Y-85700000D01*
X215185165Y-85557543D01*
X215125377Y-85426627D01*
X215031128Y-85317857D01*
X214910053Y-85240047D01*
X214910051Y-85240046D01*
X214910049Y-85240045D01*
X214910050Y-85240045D01*
X214771963Y-85199500D01*
X214771961Y-85199500D01*
X214628039Y-85199500D01*
X214628036Y-85199500D01*
X214489949Y-85240045D01*
X214368873Y-85317856D01*
X214274623Y-85426626D01*
X214274622Y-85426628D01*
X214214834Y-85557543D01*
X214194353Y-85700000D01*
X214214834Y-85842456D01*
X214228659Y-85872727D01*
X214274623Y-85973373D01*
X214368872Y-86082143D01*
X214368875Y-86082144D01*
X214369213Y-86082535D01*
X214398238Y-86146091D01*
X214399500Y-86163738D01*
X214399500Y-86786255D01*
X214382887Y-86848256D01*
X214326793Y-86945410D01*
X214310443Y-87006432D01*
X214305313Y-87025580D01*
X214302268Y-87036943D01*
X214302267Y-87036946D01*
X214299500Y-87047270D01*
X214299500Y-87047273D01*
X214299500Y-94347273D01*
X214299500Y-94452727D01*
X214304382Y-94470946D01*
X214326793Y-94554589D01*
X214331754Y-94563181D01*
X214379520Y-94645913D01*
X214379522Y-94645915D01*
X214873181Y-95139574D01*
X214906666Y-95200897D01*
X214909500Y-95227255D01*
X214909500Y-104434503D01*
X214889815Y-104501542D01*
X214837011Y-104547297D01*
X214767853Y-104557241D01*
X214704297Y-104528216D01*
X214697819Y-104522184D01*
X214591602Y-104415967D01*
X214451524Y-104314195D01*
X214297257Y-104235591D01*
X214132584Y-104182085D01*
X213961571Y-104155000D01*
X213625000Y-104155000D01*
X213625000Y-104955000D01*
X213125000Y-104955000D01*
X213125000Y-104155000D01*
X212788429Y-104155000D01*
X212617415Y-104182085D01*
X212452742Y-104235591D01*
X212298475Y-104314195D01*
X212158397Y-104415967D01*
X212035967Y-104538397D01*
X211934195Y-104678475D01*
X211855591Y-104832744D01*
X211802085Y-104997415D01*
X211800884Y-105004999D01*
X211800885Y-105005000D01*
X212708012Y-105005000D01*
X212690795Y-105014940D01*
X212634940Y-105070795D01*
X212595444Y-105139204D01*
X212575000Y-105215504D01*
X212575000Y-105294496D01*
X212595444Y-105370796D01*
X212634940Y-105439205D01*
X212690795Y-105495060D01*
X212708012Y-105505000D01*
X211800885Y-105505000D01*
X211802085Y-105512584D01*
X211855591Y-105677255D01*
X211934195Y-105831524D01*
X212035967Y-105971602D01*
X212158397Y-106094032D01*
X212298475Y-106195804D01*
X212452742Y-106274408D01*
X212617415Y-106327914D01*
X212788429Y-106355000D01*
X213125000Y-106355000D01*
X213125000Y-105555000D01*
X213625000Y-105555000D01*
X213625000Y-106355000D01*
X213961571Y-106355000D01*
X214132584Y-106327914D01*
X214297257Y-106274408D01*
X214451524Y-106195804D01*
X214591602Y-106094032D01*
X214697819Y-105987816D01*
X214759142Y-105954331D01*
X214828834Y-105959315D01*
X214884767Y-106001187D01*
X214909184Y-106066651D01*
X214909500Y-106075497D01*
X214909500Y-107762726D01*
X214936793Y-107864589D01*
X214993584Y-107962951D01*
X214991286Y-107964277D01*
X215009975Y-108008659D01*
X215014834Y-108042454D01*
X215014835Y-108042458D01*
X215074622Y-108173371D01*
X215074623Y-108173373D01*
X215168872Y-108282143D01*
X215289947Y-108359953D01*
X215289950Y-108359954D01*
X215289949Y-108359954D01*
X215406262Y-108394106D01*
X215459009Y-108425402D01*
X215513181Y-108479574D01*
X215546666Y-108540897D01*
X215549500Y-108567255D01*
X215549500Y-109403602D01*
X215529815Y-109470641D01*
X215477011Y-109516396D01*
X215407853Y-109526340D01*
X215390566Y-109522579D01*
X215311964Y-109499500D01*
X215311961Y-109499500D01*
X215168039Y-109499500D01*
X215168036Y-109499500D01*
X215029949Y-109540045D01*
X214908873Y-109617856D01*
X214875212Y-109656703D01*
X214816433Y-109694477D01*
X214781499Y-109699500D01*
X214175833Y-109699500D01*
X214108794Y-109679815D01*
X214088152Y-109663181D01*
X212584513Y-108159542D01*
X212584511Y-108159540D01*
X212558480Y-108144511D01*
X212515991Y-108119980D01*
X212515990Y-108119979D01*
X212490513Y-108113152D01*
X212439562Y-108099500D01*
X212439560Y-108099500D01*
X212358501Y-108099500D01*
X212291462Y-108079815D01*
X212264788Y-108056703D01*
X212231128Y-108017857D01*
X212110053Y-107940047D01*
X212110051Y-107940046D01*
X212110049Y-107940045D01*
X212110050Y-107940045D01*
X211971963Y-107899500D01*
X211971961Y-107899500D01*
X211828039Y-107899500D01*
X211828036Y-107899500D01*
X211689949Y-107940045D01*
X211568873Y-108017856D01*
X211474623Y-108126626D01*
X211474622Y-108126628D01*
X211414834Y-108257543D01*
X211394353Y-108400000D01*
X211414834Y-108542456D01*
X211450868Y-108621358D01*
X211474623Y-108673373D01*
X211568872Y-108782143D01*
X211689947Y-108859953D01*
X211689950Y-108859954D01*
X211689949Y-108859954D01*
X211828036Y-108900499D01*
X211828038Y-108900500D01*
X211828039Y-108900500D01*
X211971962Y-108900500D01*
X211971962Y-108900499D01*
X212110050Y-108859954D01*
X212110051Y-108859954D01*
X212110053Y-108859953D01*
X212223798Y-108786853D01*
X212290835Y-108767169D01*
X212357875Y-108786853D01*
X212378517Y-108803488D01*
X213815489Y-110240460D01*
X213884012Y-110280022D01*
X213960438Y-110300500D01*
X214781499Y-110300500D01*
X214848538Y-110320185D01*
X214875211Y-110343296D01*
X214908872Y-110382143D01*
X215022446Y-110455132D01*
X215068201Y-110507936D01*
X215078145Y-110577095D01*
X215049121Y-110640650D01*
X214974623Y-110726627D01*
X214974622Y-110726628D01*
X214914834Y-110857543D01*
X214894353Y-111000000D01*
X214914834Y-111142456D01*
X214940745Y-111199192D01*
X214974623Y-111273373D01*
X215068872Y-111382143D01*
X215189947Y-111459953D01*
X215189950Y-111459954D01*
X215189949Y-111459954D01*
X215328036Y-111500499D01*
X215328038Y-111500500D01*
X215328039Y-111500500D01*
X215471962Y-111500500D01*
X215471962Y-111500499D01*
X215579121Y-111469035D01*
X215610050Y-111459954D01*
X215610050Y-111459953D01*
X215610053Y-111459953D01*
X215731128Y-111382143D01*
X215825377Y-111273373D01*
X215885165Y-111142457D01*
X215889573Y-111111795D01*
X215918594Y-111048244D01*
X215924614Y-111041777D01*
X216270480Y-110695913D01*
X216291241Y-110659953D01*
X216323207Y-110604587D01*
X216350500Y-110502727D01*
X216350500Y-108297273D01*
X216346947Y-108284012D01*
X216323207Y-108195412D01*
X216270480Y-108104087D01*
X216024629Y-107858236D01*
X215991144Y-107796913D01*
X215989572Y-107788198D01*
X215985165Y-107757546D01*
X215985164Y-107757540D01*
X215958402Y-107698941D01*
X215925377Y-107626627D01*
X215831128Y-107517857D01*
X215810805Y-107504796D01*
X215767460Y-107476939D01*
X215721705Y-107424135D01*
X215710500Y-107372624D01*
X215710500Y-105004999D01*
X216900884Y-105004999D01*
X216900885Y-105005000D01*
X217808012Y-105005000D01*
X217790795Y-105014940D01*
X217734940Y-105070795D01*
X217695444Y-105139204D01*
X217675000Y-105215504D01*
X217675000Y-105294496D01*
X217695444Y-105370796D01*
X217734940Y-105439205D01*
X217790795Y-105495060D01*
X217808012Y-105505000D01*
X216900885Y-105505000D01*
X216902085Y-105512584D01*
X216955591Y-105677255D01*
X217034195Y-105831524D01*
X217135967Y-105971602D01*
X217258397Y-106094032D01*
X217398475Y-106195804D01*
X217552742Y-106274408D01*
X217717415Y-106327914D01*
X217888429Y-106355000D01*
X218225000Y-106355000D01*
X218225000Y-105555000D01*
X218725000Y-105555000D01*
X218725000Y-106355000D01*
X219061571Y-106355000D01*
X219232584Y-106327914D01*
X219397257Y-106274408D01*
X219551524Y-106195804D01*
X219691602Y-106094032D01*
X219814032Y-105971602D01*
X219915804Y-105831524D01*
X219994408Y-105677255D01*
X220047914Y-105512584D01*
X220049115Y-105505000D01*
X219141988Y-105505000D01*
X219159205Y-105495060D01*
X219215060Y-105439205D01*
X219254556Y-105370796D01*
X219275000Y-105294496D01*
X219275000Y-105215504D01*
X219254556Y-105139204D01*
X219215060Y-105070795D01*
X219159205Y-105014940D01*
X219141988Y-105005000D01*
X220049115Y-105005000D01*
X220049115Y-105004999D01*
X220047914Y-104997415D01*
X219994408Y-104832744D01*
X219915804Y-104678475D01*
X219814032Y-104538397D01*
X219691602Y-104415967D01*
X219551524Y-104314195D01*
X219397257Y-104235591D01*
X219232584Y-104182085D01*
X219061571Y-104155000D01*
X218725000Y-104155000D01*
X218725000Y-104955000D01*
X218225000Y-104955000D01*
X218225000Y-104155000D01*
X217888429Y-104155000D01*
X217717415Y-104182085D01*
X217552742Y-104235591D01*
X217398475Y-104314195D01*
X217258397Y-104415967D01*
X217135967Y-104538397D01*
X217034195Y-104678475D01*
X216955591Y-104832744D01*
X216902085Y-104997415D01*
X216900884Y-105004999D01*
X215710500Y-105004999D01*
X215710500Y-95002269D01*
X215730185Y-94935230D01*
X215782989Y-94889475D01*
X215852147Y-94879531D01*
X215869425Y-94883289D01*
X215928039Y-94900500D01*
X216071962Y-94900500D01*
X216071962Y-94900499D01*
X216210053Y-94859953D01*
X216331128Y-94782143D01*
X216425377Y-94673373D01*
X216485165Y-94542457D01*
X216505647Y-94400000D01*
X216485165Y-94257543D01*
X216425377Y-94126627D01*
X216331128Y-94017857D01*
X216210053Y-93940047D01*
X216210051Y-93940046D01*
X216210049Y-93940045D01*
X216210050Y-93940045D01*
X216071963Y-93899500D01*
X216071961Y-93899500D01*
X215928039Y-93899500D01*
X215928036Y-93899500D01*
X215789949Y-93940045D01*
X215668873Y-94017856D01*
X215574623Y-94126626D01*
X215574622Y-94126628D01*
X215514834Y-94257543D01*
X215500951Y-94354105D01*
X215471926Y-94417661D01*
X215413147Y-94455435D01*
X215343278Y-94455435D01*
X215290532Y-94424139D01*
X215136819Y-94270426D01*
X215103334Y-94209103D01*
X215100500Y-94182745D01*
X215100500Y-90602265D01*
X215120185Y-90535226D01*
X215172989Y-90489471D01*
X215242147Y-90479527D01*
X215259434Y-90483288D01*
X215332186Y-90504649D01*
X215332188Y-90504650D01*
X215423673Y-90504650D01*
X215490712Y-90524335D01*
X215536467Y-90577139D01*
X215546411Y-90646297D01*
X215542464Y-90664213D01*
X215525917Y-90719483D01*
X215525914Y-90719497D01*
X215465236Y-91063619D01*
X215465235Y-91063630D01*
X215444916Y-91412496D01*
X215444916Y-91412503D01*
X215465235Y-91761369D01*
X215465236Y-91761380D01*
X215525914Y-92105502D01*
X215525916Y-92105511D01*
X215626145Y-92440300D01*
X215764555Y-92761170D01*
X215764561Y-92761183D01*
X215939289Y-93063822D01*
X216147967Y-93344125D01*
X216156148Y-93352796D01*
X217155747Y-92353197D01*
X217229588Y-92454830D01*
X217407670Y-92632912D01*
X217509300Y-92706750D01*
X216512818Y-93703233D01*
X216512819Y-93703234D01*
X216655484Y-93822945D01*
X216947461Y-94014980D01*
X217259739Y-94171814D01*
X217259745Y-94171816D01*
X217588130Y-94291338D01*
X217588133Y-94291339D01*
X217928171Y-94371929D01*
X218275276Y-94412499D01*
X218275277Y-94412500D01*
X218624723Y-94412500D01*
X218624723Y-94412499D01*
X218971827Y-94371929D01*
X218971829Y-94371929D01*
X219311866Y-94291339D01*
X219311869Y-94291338D01*
X219640254Y-94171816D01*
X219640260Y-94171814D01*
X219952538Y-94014980D01*
X220244520Y-93822941D01*
X220275793Y-93796700D01*
X220339800Y-93768686D01*
X220408793Y-93779724D01*
X220460865Y-93826310D01*
X220479500Y-93891688D01*
X220479500Y-95195500D01*
X220459815Y-95262539D01*
X220407011Y-95308294D01*
X220355500Y-95319500D01*
X217160247Y-95319500D01*
X217101770Y-95331131D01*
X217101769Y-95331132D01*
X217035447Y-95375447D01*
X216991132Y-95441769D01*
X216991131Y-95441770D01*
X216979500Y-95500247D01*
X216979500Y-97523444D01*
X216959815Y-97590483D01*
X216929811Y-97622710D01*
X216822812Y-97702809D01*
X216822809Y-97702812D01*
X216736649Y-97817906D01*
X216736645Y-97817913D01*
X216686403Y-97952620D01*
X216686401Y-97952627D01*
X216680000Y-98012155D01*
X216680000Y-98810000D01*
X218016988Y-98810000D01*
X217984075Y-98867007D01*
X217950000Y-98994174D01*
X217950000Y-99125826D01*
X217984075Y-99252993D01*
X218016988Y-99310000D01*
X216680000Y-99310000D01*
X216680000Y-100107844D01*
X216686401Y-100167372D01*
X216686403Y-100167379D01*
X216736645Y-100302086D01*
X216736649Y-100302093D01*
X216822809Y-100417187D01*
X216822812Y-100417190D01*
X216929811Y-100497290D01*
X216971682Y-100553223D01*
X216979500Y-100596556D01*
X216979500Y-102619752D01*
X216991131Y-102678229D01*
X216991132Y-102678230D01*
X217035447Y-102744552D01*
X217101769Y-102788867D01*
X217101770Y-102788868D01*
X217160247Y-102800499D01*
X217160250Y-102800500D01*
X217160252Y-102800500D01*
X219700252Y-102800500D01*
X220355500Y-102800500D01*
X220422539Y-102820185D01*
X220468294Y-102872989D01*
X220479500Y-102924500D01*
X220479500Y-116891788D01*
X220459815Y-116958827D01*
X220407011Y-117004582D01*
X220337853Y-117014526D01*
X220275795Y-116986778D01*
X220219518Y-116939557D01*
X219927538Y-116747519D01*
X219615260Y-116590685D01*
X219615254Y-116590683D01*
X219286869Y-116471161D01*
X219286866Y-116471160D01*
X218946828Y-116390570D01*
X218599723Y-116350000D01*
X218250277Y-116350000D01*
X217903172Y-116390570D01*
X217903170Y-116390570D01*
X217563133Y-116471160D01*
X217563130Y-116471161D01*
X217234745Y-116590683D01*
X217234739Y-116590685D01*
X216922461Y-116747519D01*
X216630480Y-116939557D01*
X216487819Y-117059264D01*
X216487818Y-117059265D01*
X217484301Y-118055748D01*
X217382670Y-118129588D01*
X217204588Y-118307670D01*
X217130748Y-118409301D01*
X216131148Y-117409701D01*
X216131147Y-117409702D01*
X216122976Y-117418363D01*
X216122972Y-117418368D01*
X215914289Y-117698677D01*
X215739561Y-118001316D01*
X215739555Y-118001329D01*
X215601145Y-118322199D01*
X215500916Y-118656988D01*
X215500914Y-118656997D01*
X215440236Y-119001119D01*
X215440235Y-119001130D01*
X215419916Y-119349996D01*
X215419916Y-119350003D01*
X215440235Y-119698869D01*
X215440236Y-119698880D01*
X215500914Y-120043002D01*
X215500916Y-120043011D01*
X215601145Y-120377800D01*
X215739555Y-120698670D01*
X215739561Y-120698683D01*
X215914289Y-121001322D01*
X216122967Y-121281625D01*
X216131148Y-121290296D01*
X217130747Y-120290697D01*
X217204588Y-120392330D01*
X217382670Y-120570412D01*
X217484300Y-120644250D01*
X216487818Y-121640733D01*
X216487819Y-121640734D01*
X216630484Y-121760445D01*
X216922461Y-121952480D01*
X217234739Y-122109314D01*
X217234745Y-122109316D01*
X217563130Y-122228838D01*
X217563133Y-122228839D01*
X217903171Y-122309429D01*
X218250276Y-122349999D01*
X218250277Y-122350000D01*
X218599723Y-122350000D01*
X218599723Y-122349999D01*
X218946827Y-122309429D01*
X218946829Y-122309429D01*
X219286866Y-122228839D01*
X219286869Y-122228838D01*
X219615254Y-122109316D01*
X219615260Y-122109314D01*
X219927538Y-121952480D01*
X220219515Y-121760445D01*
X220275794Y-121713222D01*
X220339802Y-121685209D01*
X220408794Y-121696248D01*
X220460866Y-121742834D01*
X220479500Y-121808211D01*
X220479500Y-124455933D01*
X220479235Y-124464043D01*
X220462583Y-124718104D01*
X220460465Y-124734186D01*
X220411591Y-124979888D01*
X220407393Y-124995554D01*
X220326864Y-125232786D01*
X220320657Y-125247772D01*
X220209853Y-125472460D01*
X220201743Y-125486507D01*
X220062559Y-125694811D01*
X220052685Y-125707679D01*
X219887502Y-125896033D01*
X219876033Y-125907502D01*
X219687679Y-126072685D01*
X219674811Y-126082559D01*
X219466507Y-126221743D01*
X219452460Y-126229853D01*
X219227772Y-126340657D01*
X219212786Y-126346864D01*
X218975554Y-126427393D01*
X218959888Y-126431591D01*
X218753168Y-126472711D01*
X218714185Y-126480465D01*
X218698104Y-126482583D01*
X218444063Y-126499232D01*
X218435920Y-126499497D01*
X217224466Y-126499161D01*
X217157432Y-126479458D01*
X217111691Y-126426641D01*
X217100500Y-126375161D01*
X217100500Y-123170249D01*
X217100499Y-123170247D01*
X217088868Y-123111770D01*
X217088867Y-123111769D01*
X217044552Y-123045447D01*
X216978230Y-123001132D01*
X216978229Y-123001131D01*
X216919752Y-122989500D01*
X216919748Y-122989500D01*
X214880252Y-122989500D01*
X214880247Y-122989500D01*
X214821770Y-123001131D01*
X214821769Y-123001132D01*
X214755447Y-123045447D01*
X214733102Y-123078890D01*
X214679489Y-123123695D01*
X214610164Y-123132402D01*
X214547137Y-123102247D01*
X214526898Y-123078890D01*
X214504552Y-123045447D01*
X214438230Y-123001132D01*
X214438229Y-123001131D01*
X214379752Y-122989500D01*
X214379748Y-122989500D01*
X212340252Y-122989500D01*
X212340247Y-122989500D01*
X212281770Y-123001131D01*
X212281769Y-123001132D01*
X212215447Y-123045447D01*
X212193102Y-123078890D01*
X212139489Y-123123695D01*
X212070164Y-123132402D01*
X212007137Y-123102247D01*
X211986898Y-123078890D01*
X211964552Y-123045447D01*
X211898230Y-123001132D01*
X211898229Y-123001131D01*
X211839752Y-122989500D01*
X211839748Y-122989500D01*
X211244500Y-122989500D01*
X211177461Y-122969815D01*
X211131706Y-122917011D01*
X211120500Y-122865500D01*
X211120500Y-122848739D01*
X211120263Y-122847853D01*
X211100021Y-122772311D01*
X211084760Y-122745878D01*
X211060464Y-122703795D01*
X211060458Y-122703787D01*
X209758812Y-121402141D01*
X209758804Y-121402135D01*
X209690295Y-121362582D01*
X209690290Y-121362579D01*
X209664813Y-121355752D01*
X209613862Y-121342100D01*
X209613860Y-121342100D01*
X198740701Y-121342100D01*
X198673662Y-121322415D01*
X198646988Y-121299303D01*
X198613328Y-121260457D01*
X198492253Y-121182647D01*
X198492251Y-121182646D01*
X198492249Y-121182645D01*
X198492250Y-121182645D01*
X198354163Y-121142100D01*
X198354161Y-121142100D01*
X198210239Y-121142100D01*
X198210236Y-121142100D01*
X198072149Y-121182645D01*
X197951073Y-121260456D01*
X197856823Y-121369226D01*
X197856822Y-121369228D01*
X197797034Y-121500143D01*
X197776553Y-121642600D01*
X197797034Y-121785056D01*
X197856822Y-121915971D01*
X197856823Y-121915973D01*
X197951072Y-122024743D01*
X198072147Y-122102553D01*
X198072150Y-122102554D01*
X198072149Y-122102554D01*
X198179307Y-122134017D01*
X198194075Y-122138354D01*
X198210236Y-122143099D01*
X198210238Y-122143100D01*
X198210239Y-122143100D01*
X198354162Y-122143100D01*
X198354162Y-122143099D01*
X198492253Y-122102553D01*
X198613328Y-122024743D01*
X198646988Y-121985896D01*
X198705767Y-121948123D01*
X198740701Y-121943100D01*
X199012755Y-121943100D01*
X199079794Y-121962785D01*
X199125549Y-122015589D01*
X199135493Y-122084747D01*
X199125550Y-122118611D01*
X199109984Y-122152694D01*
X199089503Y-122295150D01*
X199109984Y-122437606D01*
X199169202Y-122567273D01*
X199169773Y-122568523D01*
X199264022Y-122677293D01*
X199385097Y-122755103D01*
X199385100Y-122755104D01*
X199385099Y-122755104D01*
X199523039Y-122795606D01*
X199581817Y-122833380D01*
X199610843Y-122896935D01*
X199600900Y-122966094D01*
X199556997Y-123017684D01*
X199515448Y-123045446D01*
X199493102Y-123078890D01*
X199439489Y-123123695D01*
X199370164Y-123132402D01*
X199307137Y-123102247D01*
X199286898Y-123078890D01*
X199264552Y-123045447D01*
X199198230Y-123001132D01*
X199198229Y-123001131D01*
X199139752Y-122989500D01*
X199139748Y-122989500D01*
X197116556Y-122989500D01*
X197049517Y-122969815D01*
X197017290Y-122939811D01*
X196937190Y-122832812D01*
X196937187Y-122832809D01*
X196822093Y-122746649D01*
X196822086Y-122746645D01*
X196687379Y-122696403D01*
X196687372Y-122696401D01*
X196627844Y-122690000D01*
X195830000Y-122690000D01*
X195830000Y-124026988D01*
X195772993Y-123994075D01*
X195645826Y-123960000D01*
X195514174Y-123960000D01*
X195387007Y-123994075D01*
X195330000Y-124026988D01*
X195330000Y-122690000D01*
X194532155Y-122690000D01*
X194472627Y-122696401D01*
X194472619Y-122696403D01*
X194353333Y-122740894D01*
X194283641Y-122745878D01*
X194266667Y-122740894D01*
X194147380Y-122696403D01*
X194147372Y-122696401D01*
X194087844Y-122690000D01*
X193290000Y-122690000D01*
X193290000Y-124026988D01*
X193232993Y-123994075D01*
X193105826Y-123960000D01*
X192974174Y-123960000D01*
X192847007Y-123994075D01*
X192790000Y-124026988D01*
X192790000Y-122690000D01*
X191992155Y-122690000D01*
X191932627Y-122696401D01*
X191932620Y-122696403D01*
X191797913Y-122746645D01*
X191797906Y-122746649D01*
X191682813Y-122832808D01*
X191602712Y-122939811D01*
X191546778Y-122981682D01*
X191503445Y-122989500D01*
X190807255Y-122989500D01*
X190740216Y-122969815D01*
X190719574Y-122953181D01*
X189845915Y-122079522D01*
X189845913Y-122079520D01*
X189800250Y-122053156D01*
X189754589Y-122026793D01*
X189703657Y-122013146D01*
X189652727Y-121999500D01*
X189652726Y-121999500D01*
X187860725Y-121999500D01*
X187793686Y-121979815D01*
X187747931Y-121927011D01*
X187737987Y-121857853D01*
X187747931Y-121823989D01*
X187776950Y-121760445D01*
X187785165Y-121742457D01*
X187805647Y-121600000D01*
X187785165Y-121457543D01*
X187725377Y-121326627D01*
X187631128Y-121217857D01*
X187510053Y-121140047D01*
X187510051Y-121140046D01*
X187510049Y-121140045D01*
X187510050Y-121140045D01*
X187371963Y-121099500D01*
X187371961Y-121099500D01*
X187228039Y-121099500D01*
X187228036Y-121099500D01*
X187089949Y-121140045D01*
X186968873Y-121217856D01*
X186874623Y-121326626D01*
X186874622Y-121326628D01*
X186814834Y-121457543D01*
X186794353Y-121600000D01*
X186814834Y-121742457D01*
X186814835Y-121742458D01*
X186852069Y-121823989D01*
X186862013Y-121893147D01*
X186832988Y-121956703D01*
X186774210Y-121994477D01*
X186739275Y-121999500D01*
X183047273Y-121999500D01*
X182945410Y-122026793D01*
X182854087Y-122079520D01*
X182854084Y-122079522D01*
X182559522Y-122374084D01*
X182559518Y-122374090D01*
X182506792Y-122465412D01*
X182506793Y-122465413D01*
X182479500Y-122567273D01*
X182479500Y-122865500D01*
X182459815Y-122932539D01*
X182407011Y-122978294D01*
X182355500Y-122989500D01*
X181860247Y-122989500D01*
X181801770Y-123001131D01*
X181801769Y-123001132D01*
X181735447Y-123045447D01*
X181713102Y-123078890D01*
X181659489Y-123123695D01*
X181590164Y-123132402D01*
X181527137Y-123102247D01*
X181506898Y-123078890D01*
X181484552Y-123045447D01*
X181418230Y-123001132D01*
X181418229Y-123001131D01*
X181359752Y-122989500D01*
X181359748Y-122989500D01*
X179320252Y-122989500D01*
X179320247Y-122989500D01*
X179261770Y-123001131D01*
X179261769Y-123001132D01*
X179195447Y-123045447D01*
X179173102Y-123078890D01*
X179119489Y-123123695D01*
X179050164Y-123132402D01*
X178987137Y-123102247D01*
X178966898Y-123078890D01*
X178944552Y-123045447D01*
X178878230Y-123001132D01*
X178878229Y-123001131D01*
X178819752Y-122989500D01*
X178819748Y-122989500D01*
X176780252Y-122989500D01*
X176780247Y-122989500D01*
X176721770Y-123001131D01*
X176721769Y-123001132D01*
X176655447Y-123045447D01*
X176611132Y-123111769D01*
X176611131Y-123111770D01*
X176599500Y-123170247D01*
X176599500Y-126363853D01*
X176579815Y-126430892D01*
X176527011Y-126476647D01*
X176475466Y-126487853D01*
X168163584Y-126485546D01*
X168096550Y-126465843D01*
X168050809Y-126413026D01*
X168040885Y-126343865D01*
X168069928Y-126280317D01*
X168123761Y-126244126D01*
X168218711Y-126211895D01*
X168218712Y-126211895D01*
X168477356Y-126084346D01*
X168717141Y-125924126D01*
X168717147Y-125924121D01*
X168745608Y-125899162D01*
X168745608Y-125899161D01*
X168315698Y-125469251D01*
X168417330Y-125395412D01*
X168595412Y-125217330D01*
X168669251Y-125115698D01*
X169099161Y-125545608D01*
X169099162Y-125545608D01*
X169124121Y-125517147D01*
X169124126Y-125517141D01*
X169284346Y-125277356D01*
X169411895Y-125018712D01*
X169411899Y-125018702D01*
X169504592Y-124745635D01*
X169504597Y-124745615D01*
X169560855Y-124462784D01*
X169560859Y-124462757D01*
X169579720Y-124175007D01*
X169579720Y-124174992D01*
X169560859Y-123887242D01*
X169560855Y-123887215D01*
X169504597Y-123604384D01*
X169504592Y-123604364D01*
X169411899Y-123331297D01*
X169411895Y-123331287D01*
X169284346Y-123072643D01*
X169124124Y-122832854D01*
X169099161Y-122804390D01*
X169099160Y-122804390D01*
X168669250Y-123234300D01*
X168595412Y-123132670D01*
X168417330Y-122954588D01*
X168315698Y-122880748D01*
X168745608Y-122450838D01*
X168745608Y-122450835D01*
X168717152Y-122425881D01*
X168717146Y-122425876D01*
X168477356Y-122265653D01*
X168218712Y-122138104D01*
X168218702Y-122138100D01*
X167945635Y-122045407D01*
X167945615Y-122045402D01*
X167662784Y-121989144D01*
X167662757Y-121989140D01*
X167375007Y-121970280D01*
X167374993Y-121970280D01*
X167087242Y-121989140D01*
X167087215Y-121989144D01*
X166804384Y-122045402D01*
X166804364Y-122045407D01*
X166531297Y-122138100D01*
X166531287Y-122138104D01*
X166272643Y-122265653D01*
X166032851Y-122425878D01*
X166004390Y-122450837D01*
X166434301Y-122880748D01*
X166332670Y-122954588D01*
X166154588Y-123132670D01*
X166080748Y-123234301D01*
X165650837Y-122804390D01*
X165625878Y-122832851D01*
X165465653Y-123072643D01*
X165338104Y-123331287D01*
X165338100Y-123331297D01*
X165245407Y-123604364D01*
X165245402Y-123604384D01*
X165189144Y-123887215D01*
X165189140Y-123887242D01*
X165170280Y-124174992D01*
X165170280Y-124175007D01*
X165189140Y-124462757D01*
X165189144Y-124462784D01*
X165245402Y-124745615D01*
X165245407Y-124745635D01*
X165338100Y-125018702D01*
X165338104Y-125018712D01*
X165465653Y-125277356D01*
X165625876Y-125517146D01*
X165625881Y-125517152D01*
X165650835Y-125545608D01*
X165650838Y-125545608D01*
X166080748Y-125115698D01*
X166154588Y-125217330D01*
X166332670Y-125395412D01*
X166434300Y-125469250D01*
X166004390Y-125899160D01*
X166004390Y-125899161D01*
X166032854Y-125924124D01*
X166272643Y-126084346D01*
X166531285Y-126211894D01*
X166624948Y-126243688D01*
X166682102Y-126283877D01*
X166708456Y-126348586D01*
X166695642Y-126417271D01*
X166647728Y-126468124D01*
X166585056Y-126485108D01*
X159173022Y-126483051D01*
X159172723Y-126483031D01*
X159103125Y-126483031D01*
X159095015Y-126482765D01*
X158840977Y-126466111D01*
X158824896Y-126463994D01*
X158579185Y-126415116D01*
X158563519Y-126410918D01*
X158326286Y-126330386D01*
X158311301Y-126324179D01*
X158086616Y-126213376D01*
X158072569Y-126205266D01*
X157864265Y-126066080D01*
X157851397Y-126056206D01*
X157663043Y-125891023D01*
X157651574Y-125879554D01*
X157525332Y-125735603D01*
X157486388Y-125691196D01*
X157476517Y-125678332D01*
X157387833Y-125545608D01*
X157337333Y-125470029D01*
X157329223Y-125455982D01*
X157279281Y-125354710D01*
X157218417Y-125231293D01*
X157212211Y-125216309D01*
X157131679Y-124979074D01*
X157127483Y-124963414D01*
X157118812Y-124919826D01*
X157078605Y-124717700D01*
X157076488Y-124701619D01*
X157059832Y-124447532D01*
X157059566Y-124439421D01*
X157059566Y-122194999D01*
X157548552Y-122194999D01*
X157548553Y-122195000D01*
X159651447Y-122195000D01*
X159651447Y-122194999D01*
X158600000Y-121143553D01*
X157548552Y-122194999D01*
X157059566Y-122194999D01*
X157059566Y-122028243D01*
X157079251Y-121961204D01*
X157095885Y-121940562D01*
X158246447Y-120790000D01*
X158953553Y-120790000D01*
X160358553Y-122195000D01*
X160647828Y-122195000D01*
X160647844Y-122194999D01*
X160707372Y-122188598D01*
X160707379Y-122188596D01*
X160842086Y-122138354D01*
X160842093Y-122138350D01*
X160957187Y-122052190D01*
X160957190Y-122052187D01*
X161043350Y-121937093D01*
X161043354Y-121937086D01*
X161093596Y-121802379D01*
X161093598Y-121802372D01*
X161100000Y-121742834D01*
X161100000Y-119837172D01*
X161099999Y-119837155D01*
X161093598Y-119777627D01*
X161093596Y-119777620D01*
X161043354Y-119642913D01*
X161043350Y-119642906D01*
X160957190Y-119527812D01*
X160957187Y-119527809D01*
X160842093Y-119441649D01*
X160842086Y-119441645D01*
X160707379Y-119391403D01*
X160707372Y-119391401D01*
X160647844Y-119385000D01*
X160358552Y-119385000D01*
X158953553Y-120790000D01*
X158246447Y-120790000D01*
X157095885Y-119639438D01*
X157062400Y-119578115D01*
X157059566Y-119551757D01*
X157059566Y-119385000D01*
X157548552Y-119385000D01*
X158600000Y-120436447D01*
X159651447Y-119385000D01*
X157548552Y-119385000D01*
X157059566Y-119385000D01*
X157059566Y-116664999D01*
X157548552Y-116664999D01*
X157548553Y-116665000D01*
X159651447Y-116665000D01*
X159651447Y-116664999D01*
X158600000Y-115613553D01*
X157548552Y-116664999D01*
X157059566Y-116664999D01*
X157059566Y-116498243D01*
X157079251Y-116431204D01*
X157095885Y-116410562D01*
X158246447Y-115260000D01*
X158953553Y-115260000D01*
X160358553Y-116665000D01*
X160647828Y-116665000D01*
X160647844Y-116664999D01*
X160707372Y-116658598D01*
X160707379Y-116658596D01*
X160842086Y-116608354D01*
X160842093Y-116608350D01*
X160957187Y-116522190D01*
X160957190Y-116522187D01*
X161043350Y-116407093D01*
X161043354Y-116407086D01*
X161093596Y-116272379D01*
X161093598Y-116272372D01*
X161099999Y-116212844D01*
X161100000Y-116212827D01*
X161100000Y-114307172D01*
X161099999Y-114307155D01*
X161093598Y-114247627D01*
X161093596Y-114247620D01*
X161043354Y-114112913D01*
X161043350Y-114112906D01*
X160957190Y-113997812D01*
X160957187Y-113997809D01*
X160842093Y-113911649D01*
X160842086Y-113911645D01*
X160707379Y-113861403D01*
X160707372Y-113861401D01*
X160647844Y-113855000D01*
X160358552Y-113855000D01*
X158953553Y-115260000D01*
X158246447Y-115260000D01*
X157095885Y-114109438D01*
X157062400Y-114048115D01*
X157059566Y-114021757D01*
X157059566Y-113855000D01*
X157548552Y-113855000D01*
X158600000Y-114906447D01*
X159651447Y-113855000D01*
X157548552Y-113855000D01*
X157059566Y-113855000D01*
X157059566Y-112450000D01*
X187241027Y-112450000D01*
X187259820Y-112580715D01*
X187259821Y-112580719D01*
X187297552Y-112663336D01*
X187314681Y-112700843D01*
X187342570Y-112733028D01*
X187401163Y-112800648D01*
X187434520Y-112822085D01*
X187512259Y-112872045D01*
X187512260Y-112872045D01*
X187512261Y-112872046D01*
X187638967Y-112909249D01*
X187638969Y-112909250D01*
X187638970Y-112909250D01*
X187771031Y-112909250D01*
X187771031Y-112909249D01*
X187897741Y-112872045D01*
X188008838Y-112800647D01*
X188095319Y-112700843D01*
X188148316Y-112584796D01*
X188150178Y-112580719D01*
X188150179Y-112580715D01*
X188162836Y-112492681D01*
X188168973Y-112450000D01*
X188150179Y-112319284D01*
X188150178Y-112319280D01*
X188095319Y-112199158D01*
X188095319Y-112199157D01*
X188008838Y-112099353D01*
X188008837Y-112099352D01*
X188008836Y-112099351D01*
X187929438Y-112048325D01*
X187897741Y-112027955D01*
X187897740Y-112027954D01*
X187897739Y-112027954D01*
X187897738Y-112027953D01*
X187771032Y-111990750D01*
X187771030Y-111990750D01*
X187638970Y-111990750D01*
X187638968Y-111990750D01*
X187512261Y-112027953D01*
X187512260Y-112027954D01*
X187401163Y-112099351D01*
X187314681Y-112199157D01*
X187314680Y-112199158D01*
X187259821Y-112319280D01*
X187259820Y-112319284D01*
X187241027Y-112450000D01*
X157059566Y-112450000D01*
X157059566Y-101600000D01*
X186894353Y-101600000D01*
X186914834Y-101742456D01*
X186968313Y-101859556D01*
X186974623Y-101873373D01*
X187068872Y-101982143D01*
X187189947Y-102059953D01*
X187189950Y-102059954D01*
X187189949Y-102059954D01*
X187328036Y-102100499D01*
X187328038Y-102100500D01*
X187328039Y-102100500D01*
X187471962Y-102100500D01*
X187471962Y-102100499D01*
X187610053Y-102059953D01*
X187731128Y-101982143D01*
X187825377Y-101873373D01*
X187885165Y-101742457D01*
X187905647Y-101600000D01*
X187885165Y-101457543D01*
X187825377Y-101326627D01*
X187731128Y-101217857D01*
X187610053Y-101140047D01*
X187610051Y-101140046D01*
X187610049Y-101140045D01*
X187610050Y-101140045D01*
X187471963Y-101099500D01*
X187471961Y-101099500D01*
X187328039Y-101099500D01*
X187328036Y-101099500D01*
X187189949Y-101140045D01*
X187068873Y-101217856D01*
X186974623Y-101326626D01*
X186974622Y-101326628D01*
X186914834Y-101457543D01*
X186894353Y-101600000D01*
X157059566Y-101600000D01*
X157059566Y-98524000D01*
X157079251Y-98456961D01*
X157132055Y-98411206D01*
X157183566Y-98400000D01*
X173500000Y-98400000D01*
X186894353Y-98400000D01*
X186914834Y-98542456D01*
X186936932Y-98590843D01*
X186974623Y-98673373D01*
X187068872Y-98782143D01*
X187189947Y-98859953D01*
X187189950Y-98859954D01*
X187189949Y-98859954D01*
X187328036Y-98900499D01*
X187328038Y-98900500D01*
X187328039Y-98900500D01*
X187471962Y-98900500D01*
X187471962Y-98900499D01*
X187610053Y-98859953D01*
X187731128Y-98782143D01*
X187825377Y-98673373D01*
X187885165Y-98542457D01*
X187905647Y-98400000D01*
X187885165Y-98257543D01*
X187825377Y-98126627D01*
X187731128Y-98017857D01*
X187610053Y-97940047D01*
X187610051Y-97940046D01*
X187610049Y-97940045D01*
X187610050Y-97940045D01*
X187471963Y-97899500D01*
X187471961Y-97899500D01*
X187328039Y-97899500D01*
X187328036Y-97899500D01*
X187189949Y-97940045D01*
X187068873Y-98017856D01*
X186974623Y-98126626D01*
X186974622Y-98126628D01*
X186914834Y-98257543D01*
X186894353Y-98400000D01*
X173500000Y-98400000D01*
X173500000Y-95200000D01*
X182594353Y-95200000D01*
X182614834Y-95342456D01*
X182646980Y-95412844D01*
X182674623Y-95473373D01*
X182768872Y-95582143D01*
X182889947Y-95659953D01*
X182889950Y-95659954D01*
X182889949Y-95659954D01*
X182958293Y-95680021D01*
X183024633Y-95699500D01*
X183028036Y-95700499D01*
X183028038Y-95700500D01*
X183028039Y-95700500D01*
X183171962Y-95700500D01*
X183171962Y-95700499D01*
X183310053Y-95659953D01*
X183431128Y-95582143D01*
X183502305Y-95500000D01*
X185894353Y-95500000D01*
X185914834Y-95642456D01*
X185964743Y-95751740D01*
X185974623Y-95773373D01*
X186068872Y-95882143D01*
X186189947Y-95959953D01*
X186189950Y-95959954D01*
X186189949Y-95959954D01*
X186297107Y-95991417D01*
X186326336Y-96000000D01*
X186328036Y-96000499D01*
X186328038Y-96000500D01*
X186328039Y-96000500D01*
X186471962Y-96000500D01*
X186471962Y-96000499D01*
X186579121Y-95969035D01*
X186610050Y-95959954D01*
X186610050Y-95959953D01*
X186610053Y-95959953D01*
X186731128Y-95882143D01*
X186825377Y-95773373D01*
X186885165Y-95642457D01*
X186905647Y-95500000D01*
X186885165Y-95357543D01*
X186825377Y-95226627D01*
X186731128Y-95117857D01*
X186610053Y-95040047D01*
X186610051Y-95040046D01*
X186610049Y-95040045D01*
X186610050Y-95040045D01*
X186471963Y-94999500D01*
X186471961Y-94999500D01*
X186328039Y-94999500D01*
X186328036Y-94999500D01*
X186189949Y-95040045D01*
X186068873Y-95117856D01*
X185974623Y-95226626D01*
X185974622Y-95226628D01*
X185914834Y-95357543D01*
X185894353Y-95500000D01*
X183502305Y-95500000D01*
X183525377Y-95473373D01*
X183585165Y-95342457D01*
X183605647Y-95200000D01*
X183585165Y-95057543D01*
X183525377Y-94926627D01*
X183431128Y-94817857D01*
X183310053Y-94740047D01*
X183310051Y-94740046D01*
X183310049Y-94740045D01*
X183310050Y-94740045D01*
X183171963Y-94699500D01*
X183171961Y-94699500D01*
X183028039Y-94699500D01*
X183028036Y-94699500D01*
X182889949Y-94740045D01*
X182768873Y-94817856D01*
X182674623Y-94926626D01*
X182674622Y-94926628D01*
X182614834Y-95057543D01*
X182594353Y-95200000D01*
X173500000Y-95200000D01*
X173500000Y-94000000D01*
X173794353Y-94000000D01*
X173814834Y-94142456D01*
X173869968Y-94263181D01*
X173874623Y-94273373D01*
X173968872Y-94382143D01*
X174089947Y-94459953D01*
X174089950Y-94459954D01*
X174089949Y-94459954D01*
X174228036Y-94500499D01*
X174228038Y-94500500D01*
X174228039Y-94500500D01*
X174371962Y-94500500D01*
X174371962Y-94500499D01*
X174510053Y-94459953D01*
X174631128Y-94382143D01*
X174725377Y-94273373D01*
X174785165Y-94142457D01*
X174805647Y-94000000D01*
X174785165Y-93857543D01*
X174725377Y-93726627D01*
X174631128Y-93617857D01*
X174510053Y-93540047D01*
X174510051Y-93540046D01*
X174510049Y-93540045D01*
X174510050Y-93540045D01*
X174371963Y-93499500D01*
X174371961Y-93499500D01*
X174228039Y-93499500D01*
X174228036Y-93499500D01*
X174089949Y-93540045D01*
X173968873Y-93617856D01*
X173874623Y-93726626D01*
X173874622Y-93726628D01*
X173814834Y-93857543D01*
X173794353Y-94000000D01*
X173500000Y-94000000D01*
X173500000Y-93351600D01*
X178409153Y-93351600D01*
X178429634Y-93494056D01*
X178479343Y-93602901D01*
X178489423Y-93624973D01*
X178583672Y-93733743D01*
X178704747Y-93811553D01*
X178704750Y-93811554D01*
X178704749Y-93811554D01*
X178811907Y-93843017D01*
X178840659Y-93851460D01*
X178842836Y-93852099D01*
X178842838Y-93852100D01*
X178842839Y-93852100D01*
X178986762Y-93852100D01*
X178986762Y-93852099D01*
X179124853Y-93811553D01*
X179245928Y-93733743D01*
X179340177Y-93624973D01*
X179399965Y-93494057D01*
X179420447Y-93351600D01*
X179399965Y-93209143D01*
X179340177Y-93078227D01*
X179245928Y-92969457D01*
X179124853Y-92891647D01*
X179124851Y-92891646D01*
X179124849Y-92891645D01*
X179124850Y-92891645D01*
X178986763Y-92851100D01*
X178986761Y-92851100D01*
X178842839Y-92851100D01*
X178842836Y-92851100D01*
X178704749Y-92891645D01*
X178583673Y-92969456D01*
X178489423Y-93078226D01*
X178489422Y-93078228D01*
X178429634Y-93209143D01*
X178409153Y-93351600D01*
X173500000Y-93351600D01*
X173500000Y-92791500D01*
X183406653Y-92791500D01*
X183427134Y-92933956D01*
X183481746Y-93053537D01*
X183486923Y-93064873D01*
X183581172Y-93173643D01*
X183702247Y-93251453D01*
X183702250Y-93251454D01*
X183702249Y-93251454D01*
X183840336Y-93291999D01*
X183840338Y-93292000D01*
X183840339Y-93292000D01*
X183984262Y-93292000D01*
X183984262Y-93291999D01*
X184091421Y-93260535D01*
X184122350Y-93251454D01*
X184122350Y-93251453D01*
X184122353Y-93251453D01*
X184243428Y-93173643D01*
X184337677Y-93064873D01*
X184397465Y-92933957D01*
X184417947Y-92791500D01*
X184397465Y-92649043D01*
X184337677Y-92518127D01*
X184243428Y-92409357D01*
X184122353Y-92331547D01*
X184122351Y-92331546D01*
X184122349Y-92331545D01*
X184122350Y-92331545D01*
X183984263Y-92291000D01*
X183984261Y-92291000D01*
X183840339Y-92291000D01*
X183840336Y-92291000D01*
X183702249Y-92331545D01*
X183581173Y-92409356D01*
X183486923Y-92518126D01*
X183486922Y-92518128D01*
X183427134Y-92649043D01*
X183406653Y-92791500D01*
X173500000Y-92791500D01*
X173500000Y-89294800D01*
X174743953Y-89294800D01*
X174764434Y-89437256D01*
X174805425Y-89527011D01*
X174824223Y-89568173D01*
X174918472Y-89676943D01*
X175039547Y-89754753D01*
X175039550Y-89754754D01*
X175039549Y-89754754D01*
X175177636Y-89795299D01*
X175177638Y-89795300D01*
X175177639Y-89795300D01*
X175321562Y-89795300D01*
X175321562Y-89795299D01*
X175453128Y-89756669D01*
X175459650Y-89754754D01*
X175459650Y-89754753D01*
X175459653Y-89754753D01*
X175580728Y-89676943D01*
X175674977Y-89568173D01*
X175734765Y-89437257D01*
X175755247Y-89294800D01*
X175734765Y-89152343D01*
X175674977Y-89021427D01*
X175580728Y-88912657D01*
X175459653Y-88834847D01*
X175459651Y-88834846D01*
X175459649Y-88834845D01*
X175459650Y-88834845D01*
X175321563Y-88794300D01*
X175321561Y-88794300D01*
X175177639Y-88794300D01*
X175177636Y-88794300D01*
X175039549Y-88834845D01*
X174918473Y-88912656D01*
X174824223Y-89021426D01*
X174824222Y-89021428D01*
X174764434Y-89152343D01*
X174743953Y-89294800D01*
X173500000Y-89294800D01*
X173500000Y-87743700D01*
X186387653Y-87743700D01*
X186408134Y-87886156D01*
X186467922Y-88017071D01*
X186467923Y-88017073D01*
X186562172Y-88125843D01*
X186683247Y-88203653D01*
X186683250Y-88203654D01*
X186683249Y-88203654D01*
X186821336Y-88244199D01*
X186821338Y-88244200D01*
X186821339Y-88244200D01*
X186965262Y-88244200D01*
X186965262Y-88244199D01*
X187103353Y-88203653D01*
X187224428Y-88125843D01*
X187318677Y-88017073D01*
X187378465Y-87886157D01*
X187398947Y-87743700D01*
X187378465Y-87601243D01*
X187318677Y-87470327D01*
X187224428Y-87361557D01*
X187103353Y-87283747D01*
X187103351Y-87283746D01*
X187103349Y-87283745D01*
X187103350Y-87283745D01*
X186965263Y-87243200D01*
X186965261Y-87243200D01*
X186821339Y-87243200D01*
X186821336Y-87243200D01*
X186683249Y-87283745D01*
X186562173Y-87361556D01*
X186467923Y-87470326D01*
X186467922Y-87470328D01*
X186408134Y-87601243D01*
X186387653Y-87743700D01*
X173500000Y-87743700D01*
X173500000Y-86798600D01*
X183259753Y-86798600D01*
X183263783Y-86826627D01*
X183280234Y-86941056D01*
X183334360Y-87059573D01*
X183340023Y-87071973D01*
X183434272Y-87180743D01*
X183555347Y-87258553D01*
X183555350Y-87258554D01*
X183555349Y-87258554D01*
X183693436Y-87299099D01*
X183693438Y-87299100D01*
X183693439Y-87299100D01*
X183837362Y-87299100D01*
X183837362Y-87299099D01*
X183975453Y-87258553D01*
X184096528Y-87180743D01*
X184190777Y-87071973D01*
X184250565Y-86941057D01*
X184271047Y-86798600D01*
X184268767Y-86782745D01*
X184250565Y-86656143D01*
X184245375Y-86644778D01*
X184190777Y-86525227D01*
X184096528Y-86416457D01*
X183975453Y-86338647D01*
X183975451Y-86338646D01*
X183975449Y-86338645D01*
X183975450Y-86338645D01*
X183837363Y-86298100D01*
X183837361Y-86298100D01*
X183693439Y-86298100D01*
X183693436Y-86298100D01*
X183555349Y-86338645D01*
X183434273Y-86416456D01*
X183340023Y-86525226D01*
X183340022Y-86525228D01*
X183280234Y-86656143D01*
X183261528Y-86786255D01*
X183259753Y-86798600D01*
X173500000Y-86798600D01*
X173500000Y-79000000D01*
X157183566Y-79000000D01*
X157116527Y-78980315D01*
X157070772Y-78927511D01*
X157059566Y-78876000D01*
X157059566Y-77200572D01*
X157079251Y-77133533D01*
X157132055Y-77087778D01*
X157201213Y-77077834D01*
X157264769Y-77106859D01*
X157300985Y-77160714D01*
X157363100Y-77343702D01*
X157363104Y-77343712D01*
X157490653Y-77602356D01*
X157650876Y-77842146D01*
X157650881Y-77842152D01*
X157675835Y-77870608D01*
X157675838Y-77870608D01*
X158105748Y-77440698D01*
X158179588Y-77542330D01*
X158357670Y-77720412D01*
X158459300Y-77794250D01*
X158029390Y-78224160D01*
X158029390Y-78224161D01*
X158057854Y-78249124D01*
X158297643Y-78409346D01*
X158556287Y-78536895D01*
X158556297Y-78536899D01*
X158829364Y-78629592D01*
X158829384Y-78629597D01*
X159112215Y-78685855D01*
X159112242Y-78685859D01*
X159399993Y-78704720D01*
X159400007Y-78704720D01*
X159687757Y-78685859D01*
X159687784Y-78685855D01*
X159970615Y-78629597D01*
X159970635Y-78629592D01*
X160243702Y-78536899D01*
X160243712Y-78536895D01*
X160502356Y-78409346D01*
X160742141Y-78249126D01*
X160742147Y-78249121D01*
X160770608Y-78224162D01*
X160770608Y-78224161D01*
X160340698Y-77794251D01*
X160442330Y-77720412D01*
X160620412Y-77542330D01*
X160694251Y-77440698D01*
X161124161Y-77870608D01*
X161124162Y-77870608D01*
X161149121Y-77842147D01*
X161149126Y-77842141D01*
X161309346Y-77602356D01*
X161436895Y-77343712D01*
X161436899Y-77343702D01*
X161529592Y-77070635D01*
X161529597Y-77070615D01*
X161585855Y-76787784D01*
X161585859Y-76787757D01*
X161604720Y-76500007D01*
X161604720Y-76499992D01*
X161585859Y-76212242D01*
X161585855Y-76212215D01*
X161529597Y-75929384D01*
X161529592Y-75929364D01*
X161436899Y-75656297D01*
X161436895Y-75656287D01*
X161309346Y-75397643D01*
X161149124Y-75157854D01*
X161124161Y-75129390D01*
X161124160Y-75129390D01*
X160694250Y-75559300D01*
X160620412Y-75457670D01*
X160442330Y-75279588D01*
X160340698Y-75205748D01*
X160770608Y-74775838D01*
X160770608Y-74775835D01*
X160742152Y-74750881D01*
X160742146Y-74750876D01*
X160502356Y-74590653D01*
X160243712Y-74463104D01*
X160243702Y-74463100D01*
X160099027Y-74413990D01*
X160041872Y-74373801D01*
X160015519Y-74309092D01*
X160028333Y-74240408D01*
X160076247Y-74189555D01*
X160138857Y-74172571D01*
X168875476Y-74170762D01*
X168942518Y-74190433D01*
X168988284Y-74243227D01*
X168999500Y-74294762D01*
X168999500Y-77429752D01*
X169011131Y-77488229D01*
X169011132Y-77488230D01*
X169055447Y-77554552D01*
X169121769Y-77598867D01*
X169121770Y-77598868D01*
X169180247Y-77610499D01*
X169180250Y-77610500D01*
X169180252Y-77610500D01*
X169934167Y-77610500D01*
X170001206Y-77630185D01*
X170021848Y-77646819D01*
X170559540Y-78184511D01*
X170615489Y-78240460D01*
X170615491Y-78240461D01*
X170615495Y-78240464D01*
X170648538Y-78259541D01*
X170684011Y-78280021D01*
X170760438Y-78300500D01*
X173924167Y-78300500D01*
X173991206Y-78320185D01*
X174011848Y-78336819D01*
X175363181Y-79688152D01*
X175396666Y-79749475D01*
X175399500Y-79775833D01*
X175399500Y-82236260D01*
X175379815Y-82303299D01*
X175369213Y-82317462D01*
X175274625Y-82426622D01*
X175274622Y-82426628D01*
X175214834Y-82557543D01*
X175194353Y-82700000D01*
X175214834Y-82842456D01*
X175260504Y-82942457D01*
X175274623Y-82973373D01*
X175368872Y-83082143D01*
X175489947Y-83159953D01*
X175489950Y-83159954D01*
X175489949Y-83159954D01*
X175628036Y-83200499D01*
X175628038Y-83200500D01*
X175628039Y-83200500D01*
X175771962Y-83200500D01*
X175771962Y-83200499D01*
X175910053Y-83159953D01*
X176031128Y-83082143D01*
X176125377Y-82973373D01*
X176185165Y-82842457D01*
X176205647Y-82700000D01*
X176185165Y-82557543D01*
X176125377Y-82426627D01*
X176125375Y-82426625D01*
X176125374Y-82426622D01*
X176030787Y-82317462D01*
X176001762Y-82253906D01*
X176000500Y-82236260D01*
X176000500Y-79560437D01*
X175994579Y-79538342D01*
X175994578Y-79538337D01*
X175980023Y-79484015D01*
X175980022Y-79484013D01*
X175980022Y-79484012D01*
X175940460Y-79415489D01*
X174347152Y-77822181D01*
X174313667Y-77760858D01*
X174318651Y-77691166D01*
X174360523Y-77635233D01*
X174425987Y-77610816D01*
X174434833Y-77610500D01*
X176283444Y-77610500D01*
X176350483Y-77630185D01*
X176382710Y-77660189D01*
X176462809Y-77767187D01*
X176462812Y-77767190D01*
X176577906Y-77853350D01*
X176577913Y-77853354D01*
X176712620Y-77903596D01*
X176712627Y-77903598D01*
X176772155Y-77909999D01*
X176772172Y-77910000D01*
X177570000Y-77910000D01*
X177570000Y-76573012D01*
X177627007Y-76605925D01*
X177754174Y-76640000D01*
X177885826Y-76640000D01*
X178012993Y-76605925D01*
X178070000Y-76573012D01*
X178070000Y-77910000D01*
X178867828Y-77910000D01*
X178867844Y-77909999D01*
X178927372Y-77903598D01*
X178927379Y-77903596D01*
X179062086Y-77853354D01*
X179062093Y-77853350D01*
X179177187Y-77767190D01*
X179177190Y-77767187D01*
X179257290Y-77660189D01*
X179313223Y-77618318D01*
X179356556Y-77610500D01*
X181379750Y-77610500D01*
X181379751Y-77610499D01*
X181394568Y-77607552D01*
X181438229Y-77598868D01*
X181438229Y-77598867D01*
X181438231Y-77598867D01*
X181504552Y-77554552D01*
X181526898Y-77521108D01*
X181580510Y-77476304D01*
X181649834Y-77467597D01*
X181712862Y-77497751D01*
X181733100Y-77521106D01*
X181755448Y-77554552D01*
X181821769Y-77598867D01*
X181821770Y-77598868D01*
X181880247Y-77610499D01*
X181880250Y-77610500D01*
X181880252Y-77610500D01*
X183919750Y-77610500D01*
X183919751Y-77610499D01*
X183934568Y-77607552D01*
X183978229Y-77598868D01*
X183978229Y-77598867D01*
X183978231Y-77598867D01*
X184044552Y-77554552D01*
X184066898Y-77521108D01*
X184120510Y-77476304D01*
X184189834Y-77467597D01*
X184252862Y-77497751D01*
X184273100Y-77521106D01*
X184295448Y-77554552D01*
X184361769Y-77598867D01*
X184361770Y-77598868D01*
X184420247Y-77610499D01*
X184420250Y-77610500D01*
X184420252Y-77610500D01*
X186459750Y-77610500D01*
X186459751Y-77610499D01*
X186474568Y-77607552D01*
X186518229Y-77598868D01*
X186518229Y-77598867D01*
X186518231Y-77598867D01*
X186584552Y-77554552D01*
X186606898Y-77521108D01*
X186660510Y-77476304D01*
X186729834Y-77467597D01*
X186792862Y-77497751D01*
X186813100Y-77521106D01*
X186835448Y-77554552D01*
X186901769Y-77598867D01*
X186901770Y-77598868D01*
X186960247Y-77610499D01*
X186960250Y-77610500D01*
X186960252Y-77610500D01*
X187555500Y-77610500D01*
X187622539Y-77630185D01*
X187668294Y-77682989D01*
X187679500Y-77734500D01*
X187679500Y-77751262D01*
X187699979Y-77827689D01*
X187699980Y-77827690D01*
X187714796Y-77853354D01*
X187727576Y-77875489D01*
X187739540Y-77896211D01*
X187739542Y-77896213D01*
X190267597Y-80424268D01*
X190301082Y-80485591D01*
X190296098Y-80555283D01*
X190254226Y-80611216D01*
X190188762Y-80635633D01*
X190162275Y-80634688D01*
X190161663Y-80634600D01*
X190161661Y-80634600D01*
X190017739Y-80634600D01*
X190017736Y-80634600D01*
X189879649Y-80675145D01*
X189758573Y-80752956D01*
X189664323Y-80861726D01*
X189664322Y-80861728D01*
X189604534Y-80992643D01*
X189584053Y-81135100D01*
X189604534Y-81277556D01*
X189648861Y-81374617D01*
X189664323Y-81408473D01*
X189758572Y-81517243D01*
X189879647Y-81595053D01*
X189879650Y-81595054D01*
X189879649Y-81595054D01*
X189995962Y-81629206D01*
X190048709Y-81660502D01*
X190153181Y-81764974D01*
X190186666Y-81826297D01*
X190189500Y-81852655D01*
X190189500Y-83912726D01*
X190216793Y-84014589D01*
X190238812Y-84052725D01*
X190269520Y-84105913D01*
X190269522Y-84105915D01*
X190465540Y-84301933D01*
X190499025Y-84363256D01*
X190494041Y-84432948D01*
X190452169Y-84488881D01*
X190386705Y-84513298D01*
X190342925Y-84508591D01*
X190311964Y-84499500D01*
X190311961Y-84499500D01*
X190168039Y-84499500D01*
X190079433Y-84525516D01*
X190009564Y-84525515D01*
X189950786Y-84487740D01*
X189921762Y-84424184D01*
X189920500Y-84406538D01*
X189920500Y-84187275D01*
X189920500Y-84187273D01*
X189893207Y-84085413D01*
X189840480Y-83994087D01*
X189765913Y-83919520D01*
X189568594Y-83722201D01*
X189535109Y-83660878D01*
X189540093Y-83591186D01*
X189581965Y-83535253D01*
X189589236Y-83530204D01*
X189595848Y-83525954D01*
X189595853Y-83525953D01*
X189716928Y-83448143D01*
X189811177Y-83339373D01*
X189870965Y-83208457D01*
X189891447Y-83066000D01*
X189870965Y-82923543D01*
X189811177Y-82792627D01*
X189716928Y-82683857D01*
X189595853Y-82606047D01*
X189595851Y-82606046D01*
X189595849Y-82606045D01*
X189595850Y-82606045D01*
X189457763Y-82565500D01*
X189457761Y-82565500D01*
X189313839Y-82565500D01*
X189313836Y-82565500D01*
X189175749Y-82606045D01*
X189054673Y-82683856D01*
X188960423Y-82792626D01*
X188960422Y-82792628D01*
X188900635Y-82923541D01*
X188900634Y-82923545D01*
X188896226Y-82954204D01*
X188867199Y-83017759D01*
X188861170Y-83024234D01*
X188729523Y-83155883D01*
X188729520Y-83155887D01*
X188676791Y-83247214D01*
X188660628Y-83307541D01*
X188649500Y-83349071D01*
X188649500Y-83349073D01*
X188649500Y-83717273D01*
X188649500Y-83822727D01*
X188664023Y-83876927D01*
X188676794Y-83924591D01*
X188691728Y-83950457D01*
X188708201Y-84018357D01*
X188685349Y-84084384D01*
X188630427Y-84127574D01*
X188619278Y-84131433D01*
X188589951Y-84140044D01*
X188589950Y-84140045D01*
X188468873Y-84217856D01*
X188374623Y-84326626D01*
X188374622Y-84326628D01*
X188314834Y-84457543D01*
X188294353Y-84600000D01*
X188314834Y-84742456D01*
X188374622Y-84873371D01*
X188374623Y-84873373D01*
X188468872Y-84982143D01*
X188589947Y-85059953D01*
X188589950Y-85059954D01*
X188589949Y-85059954D01*
X188728036Y-85100499D01*
X188728038Y-85100500D01*
X188728039Y-85100500D01*
X188871961Y-85100500D01*
X188960565Y-85074484D01*
X189030435Y-85074484D01*
X189089213Y-85112258D01*
X189118238Y-85175814D01*
X189119500Y-85193461D01*
X189119500Y-85872726D01*
X189146793Y-85974589D01*
X189173156Y-86020250D01*
X189199520Y-86065913D01*
X189199522Y-86065915D01*
X189415926Y-86282319D01*
X189449411Y-86343642D01*
X189444427Y-86413334D01*
X189415926Y-86457681D01*
X189189522Y-86684084D01*
X189189520Y-86684087D01*
X189136791Y-86775414D01*
X189130580Y-86798598D01*
X189130580Y-86798600D01*
X189109500Y-86877273D01*
X189109500Y-88962726D01*
X189136793Y-89064589D01*
X189146106Y-89080719D01*
X189189520Y-89155913D01*
X189189522Y-89155915D01*
X189311426Y-89277819D01*
X189344911Y-89339142D01*
X189339927Y-89408834D01*
X189298055Y-89464767D01*
X189232591Y-89489184D01*
X189223745Y-89489500D01*
X189108036Y-89489500D01*
X188969949Y-89530045D01*
X188848873Y-89607856D01*
X188754623Y-89716626D01*
X188754622Y-89716628D01*
X188694834Y-89847543D01*
X188674353Y-89990000D01*
X188694834Y-90132457D01*
X188697333Y-90140964D01*
X188694861Y-90141689D01*
X188702877Y-90197463D01*
X188673847Y-90261017D01*
X188615066Y-90298787D01*
X188545196Y-90298782D01*
X188492459Y-90267488D01*
X187813053Y-89588082D01*
X187779568Y-89526759D01*
X187784552Y-89457067D01*
X187826424Y-89401134D01*
X187865797Y-89381424D01*
X187897741Y-89372045D01*
X188008838Y-89300647D01*
X188095319Y-89200843D01*
X188134360Y-89115354D01*
X188150178Y-89080719D01*
X188150179Y-89080715D01*
X188168973Y-88950000D01*
X188150179Y-88819284D01*
X188150178Y-88819280D01*
X188102202Y-88714229D01*
X188095319Y-88699157D01*
X188008838Y-88599353D01*
X188008837Y-88599352D01*
X188008836Y-88599351D01*
X187929438Y-88548325D01*
X187897741Y-88527955D01*
X187897740Y-88527954D01*
X187897739Y-88527954D01*
X187897738Y-88527953D01*
X187771032Y-88490750D01*
X187771030Y-88490750D01*
X187638970Y-88490750D01*
X187638968Y-88490750D01*
X187512261Y-88527953D01*
X187512260Y-88527954D01*
X187401163Y-88599351D01*
X187314681Y-88699157D01*
X187314680Y-88699158D01*
X187259821Y-88819280D01*
X187259820Y-88819284D01*
X187241027Y-88950000D01*
X187259820Y-89080715D01*
X187259821Y-89080719D01*
X187311704Y-89194324D01*
X187314681Y-89200843D01*
X187395495Y-89294107D01*
X187395660Y-89294297D01*
X187424685Y-89357853D01*
X187414742Y-89427011D01*
X187368987Y-89479815D01*
X187301947Y-89499500D01*
X186451110Y-89499500D01*
X186384071Y-89479815D01*
X186338316Y-89427011D01*
X186328372Y-89357853D01*
X186357397Y-89294297D01*
X186369905Y-89281789D01*
X186374225Y-89278045D01*
X186374225Y-89278044D01*
X186374228Y-89278043D01*
X186468477Y-89169273D01*
X186528265Y-89038357D01*
X186548747Y-88895900D01*
X186528265Y-88753443D01*
X186468477Y-88622527D01*
X186374228Y-88513757D01*
X186253153Y-88435947D01*
X186253151Y-88435946D01*
X186253149Y-88435945D01*
X186253150Y-88435945D01*
X186115063Y-88395400D01*
X186115061Y-88395400D01*
X185971139Y-88395400D01*
X185971136Y-88395400D01*
X185833049Y-88435945D01*
X185711973Y-88513756D01*
X185617723Y-88622526D01*
X185575843Y-88714229D01*
X185530087Y-88767032D01*
X185463047Y-88786716D01*
X185396008Y-88767031D01*
X185375368Y-88750397D01*
X185283250Y-88658279D01*
X185249765Y-88596956D01*
X185248193Y-88588243D01*
X185247763Y-88585253D01*
X185239265Y-88526143D01*
X185179477Y-88395227D01*
X185085228Y-88286457D01*
X184964153Y-88208647D01*
X184964151Y-88208646D01*
X184964149Y-88208645D01*
X184964150Y-88208645D01*
X184826063Y-88168100D01*
X184826061Y-88168100D01*
X184682139Y-88168100D01*
X184682136Y-88168100D01*
X184544049Y-88208645D01*
X184422973Y-88286456D01*
X184328723Y-88395226D01*
X184328722Y-88395228D01*
X184268934Y-88526143D01*
X184248453Y-88668600D01*
X184268934Y-88811056D01*
X184300953Y-88881166D01*
X184310897Y-88950325D01*
X184281872Y-89013881D01*
X184223094Y-89051655D01*
X184153224Y-89051655D01*
X184121120Y-89036994D01*
X184035150Y-88981745D01*
X183897063Y-88941200D01*
X183897061Y-88941200D01*
X183753139Y-88941200D01*
X183753136Y-88941200D01*
X183615049Y-88981745D01*
X183493973Y-89059556D01*
X183399723Y-89168326D01*
X183399722Y-89168328D01*
X183339934Y-89299243D01*
X183319453Y-89441700D01*
X183339934Y-89584156D01*
X183395539Y-89705912D01*
X183399723Y-89715073D01*
X183493972Y-89823843D01*
X183615047Y-89901653D01*
X183615050Y-89901654D01*
X183615049Y-89901654D01*
X183759380Y-89944033D01*
X183818159Y-89981807D01*
X183847184Y-90045362D01*
X183837241Y-90114521D01*
X183812934Y-90167745D01*
X183792453Y-90310200D01*
X183812934Y-90452656D01*
X183851101Y-90536228D01*
X183872723Y-90583573D01*
X183966972Y-90692343D01*
X184088047Y-90770153D01*
X184088050Y-90770154D01*
X184088049Y-90770154D01*
X184183952Y-90798313D01*
X184223380Y-90809890D01*
X184226136Y-90810699D01*
X184226138Y-90810700D01*
X184322267Y-90810700D01*
X184389306Y-90830385D01*
X184409948Y-90847019D01*
X187418240Y-93855311D01*
X187474189Y-93911260D01*
X187474191Y-93911261D01*
X187474195Y-93911264D01*
X187536566Y-93947273D01*
X187542711Y-93950821D01*
X187619138Y-93971300D01*
X187619140Y-93971300D01*
X188607660Y-93971300D01*
X188607662Y-93971300D01*
X188684089Y-93950821D01*
X188752611Y-93911260D01*
X188764592Y-93899278D01*
X188825910Y-93865795D01*
X188895602Y-93870777D01*
X188951537Y-93912647D01*
X188965066Y-93935448D01*
X188976068Y-93959540D01*
X188976723Y-93960973D01*
X189070972Y-94069743D01*
X189192047Y-94147553D01*
X189192050Y-94147554D01*
X189192049Y-94147554D01*
X189274673Y-94171814D01*
X189311901Y-94182745D01*
X189330136Y-94188099D01*
X189330138Y-94188100D01*
X189330139Y-94188100D01*
X189474062Y-94188100D01*
X189474062Y-94188099D01*
X189599613Y-94151235D01*
X189612150Y-94147554D01*
X189612150Y-94147553D01*
X189612153Y-94147553D01*
X189733228Y-94069743D01*
X189827477Y-93960973D01*
X189844675Y-93923314D01*
X189890427Y-93870513D01*
X189957466Y-93850827D01*
X190019465Y-93867439D01*
X190060311Y-93891021D01*
X190136738Y-93911500D01*
X190766067Y-93911500D01*
X190833106Y-93931185D01*
X190853748Y-93947819D01*
X191767556Y-94861627D01*
X191801041Y-94922950D01*
X191796057Y-94992642D01*
X191754185Y-95048575D01*
X191714810Y-95068285D01*
X191622649Y-95095345D01*
X191501573Y-95173156D01*
X191407323Y-95281926D01*
X191407322Y-95281928D01*
X191347534Y-95412844D01*
X191347533Y-95412847D01*
X191343354Y-95441912D01*
X191314328Y-95505467D01*
X191255549Y-95543240D01*
X191185680Y-95543238D01*
X191182556Y-95542073D01*
X191037563Y-95499500D01*
X191037561Y-95499500D01*
X190893639Y-95499500D01*
X190893636Y-95499500D01*
X190755549Y-95540045D01*
X190634473Y-95617856D01*
X190634472Y-95617856D01*
X190634472Y-95617857D01*
X190624371Y-95629514D01*
X190540223Y-95726626D01*
X190540222Y-95726628D01*
X190480434Y-95857543D01*
X190459953Y-96000000D01*
X190480434Y-96142456D01*
X190506714Y-96200000D01*
X190540223Y-96273373D01*
X190634472Y-96382143D01*
X190755547Y-96459953D01*
X190755550Y-96459954D01*
X190755549Y-96459954D01*
X190893636Y-96500499D01*
X190893638Y-96500500D01*
X190893639Y-96500500D01*
X191037561Y-96500500D01*
X191127588Y-96474066D01*
X191197458Y-96474066D01*
X191256236Y-96511840D01*
X191285261Y-96575396D01*
X191275317Y-96644555D01*
X191250204Y-96680724D01*
X190615489Y-97315440D01*
X190559541Y-97371387D01*
X190559535Y-97371395D01*
X190519982Y-97439904D01*
X190519979Y-97439909D01*
X190515985Y-97454815D01*
X190499500Y-97516338D01*
X190499500Y-101439562D01*
X190519979Y-101515989D01*
X190523087Y-101521372D01*
X190527638Y-101529256D01*
X190527641Y-101529259D01*
X190559539Y-101584510D01*
X190963181Y-101988152D01*
X190996666Y-102049475D01*
X190999500Y-102075833D01*
X190999500Y-102300666D01*
X190979815Y-102367705D01*
X190927011Y-102413460D01*
X190857853Y-102423404D01*
X190840566Y-102419643D01*
X190771964Y-102399500D01*
X190771961Y-102399500D01*
X190628039Y-102399500D01*
X190628036Y-102399500D01*
X190489949Y-102440045D01*
X190368873Y-102517856D01*
X190274623Y-102626626D01*
X190274622Y-102626628D01*
X190214834Y-102757543D01*
X190194353Y-102900000D01*
X190214834Y-103042456D01*
X190241114Y-103100000D01*
X190274623Y-103173373D01*
X190368872Y-103282143D01*
X190489947Y-103359953D01*
X190489950Y-103359954D01*
X190489949Y-103359954D01*
X190628036Y-103400499D01*
X190628038Y-103400500D01*
X190628039Y-103400500D01*
X190771961Y-103400500D01*
X190840566Y-103380356D01*
X190910434Y-103380356D01*
X190969213Y-103418130D01*
X190998238Y-103481686D01*
X190999500Y-103499333D01*
X190999500Y-107579562D01*
X191012111Y-107626626D01*
X191019979Y-107655990D01*
X191019982Y-107655995D01*
X191059535Y-107724504D01*
X191059541Y-107724512D01*
X194795353Y-111460324D01*
X194828838Y-111521647D01*
X194824715Y-111588955D01*
X194818215Y-111607531D01*
X194818212Y-111607544D01*
X194799909Y-111769996D01*
X194799909Y-111770003D01*
X194818212Y-111932455D01*
X194872210Y-112086774D01*
X194959192Y-112225204D01*
X195051307Y-112317319D01*
X195084792Y-112378642D01*
X195079808Y-112448334D01*
X195051307Y-112492681D01*
X194959192Y-112584795D01*
X194872210Y-112723225D01*
X194818212Y-112877544D01*
X194799909Y-113039996D01*
X194799909Y-113040003D01*
X194818212Y-113202455D01*
X194872210Y-113356774D01*
X194959192Y-113495204D01*
X195051307Y-113587319D01*
X195084792Y-113648642D01*
X195079808Y-113718334D01*
X195051307Y-113762681D01*
X194959192Y-113854795D01*
X194872210Y-113993225D01*
X194818212Y-114147544D01*
X194799909Y-114309996D01*
X194799909Y-114310003D01*
X194818212Y-114472455D01*
X194872210Y-114626774D01*
X194959192Y-114765204D01*
X195051307Y-114857319D01*
X195084792Y-114918642D01*
X195079808Y-114988334D01*
X195051307Y-115032681D01*
X194959192Y-115124795D01*
X194872210Y-115263225D01*
X194818212Y-115417544D01*
X194799909Y-115579996D01*
X194799909Y-115580003D01*
X194818212Y-115742455D01*
X194872210Y-115896774D01*
X194872211Y-115896775D01*
X194959192Y-116035204D01*
X195074796Y-116150808D01*
X195213225Y-116237789D01*
X195367539Y-116291786D01*
X195367543Y-116291786D01*
X195367545Y-116291787D01*
X195426341Y-116298411D01*
X195449991Y-116301076D01*
X195514405Y-116328142D01*
X195553961Y-116385736D01*
X195556100Y-116455573D01*
X195529822Y-116505498D01*
X195435525Y-116614322D01*
X195435522Y-116614328D01*
X195375734Y-116745243D01*
X195355253Y-116887700D01*
X195375734Y-117030156D01*
X195420491Y-117128158D01*
X195435523Y-117161073D01*
X195529772Y-117269843D01*
X195650847Y-117347653D01*
X195650850Y-117347654D01*
X195650849Y-117347654D01*
X195788936Y-117388199D01*
X195788938Y-117388200D01*
X195788939Y-117388200D01*
X195932862Y-117388200D01*
X195932862Y-117388199D01*
X196070953Y-117347653D01*
X196192028Y-117269843D01*
X196225688Y-117230996D01*
X196284467Y-117193223D01*
X196319401Y-117188200D01*
X197008560Y-117188200D01*
X197008562Y-117188200D01*
X197084989Y-117167721D01*
X197153511Y-117128160D01*
X197209460Y-117072211D01*
X197867160Y-116414511D01*
X197878243Y-116395313D01*
X197882929Y-116387199D01*
X197904405Y-116350000D01*
X197906721Y-116345989D01*
X197927200Y-116269562D01*
X197927200Y-114890438D01*
X197906721Y-114814011D01*
X197906717Y-114814004D01*
X197867164Y-114745495D01*
X197867158Y-114745487D01*
X197562349Y-114440678D01*
X197528864Y-114379355D01*
X197526810Y-114339115D01*
X197530091Y-114310000D01*
X197530091Y-114309996D01*
X197511787Y-114147544D01*
X197511786Y-114147542D01*
X197511786Y-114147539D01*
X197457789Y-113993225D01*
X197370808Y-113854796D01*
X197278693Y-113762681D01*
X197245208Y-113701358D01*
X197250192Y-113631666D01*
X197278693Y-113587319D01*
X197370808Y-113495204D01*
X197457789Y-113356775D01*
X197511786Y-113202461D01*
X197511787Y-113202455D01*
X197530091Y-113040003D01*
X197530091Y-113039996D01*
X197511787Y-112877544D01*
X197511786Y-112877542D01*
X197511786Y-112877539D01*
X197457789Y-112723225D01*
X197370808Y-112584796D01*
X197278693Y-112492681D01*
X197245208Y-112431358D01*
X197250192Y-112361666D01*
X197278693Y-112317319D01*
X197370808Y-112225204D01*
X197457789Y-112086775D01*
X197511786Y-111932461D01*
X197530091Y-111770000D01*
X197511786Y-111607539D01*
X197457789Y-111453225D01*
X197370808Y-111314796D01*
X197278693Y-111222681D01*
X197245208Y-111161358D01*
X197250192Y-111091666D01*
X197278693Y-111047319D01*
X197284250Y-111041762D01*
X197370808Y-110955204D01*
X197457789Y-110816775D01*
X197511786Y-110662461D01*
X197511787Y-110662455D01*
X197530091Y-110500003D01*
X197530091Y-110499996D01*
X197511787Y-110337544D01*
X197511786Y-110337542D01*
X197511786Y-110337539D01*
X197457789Y-110183225D01*
X197370808Y-110044796D01*
X197278693Y-109952681D01*
X197245208Y-109891358D01*
X197250192Y-109821666D01*
X197278693Y-109777319D01*
X197315967Y-109740045D01*
X197370808Y-109685204D01*
X197457789Y-109546775D01*
X197511786Y-109392461D01*
X197512738Y-109384011D01*
X197530091Y-109230003D01*
X197530091Y-109229996D01*
X197511787Y-109067544D01*
X197511786Y-109067542D01*
X197511786Y-109067539D01*
X197457789Y-108913225D01*
X197370808Y-108774796D01*
X197278693Y-108682681D01*
X197245208Y-108621358D01*
X197250192Y-108551666D01*
X197278693Y-108507319D01*
X197306438Y-108479574D01*
X197370808Y-108415204D01*
X197457789Y-108276775D01*
X197511786Y-108122461D01*
X197512066Y-108119979D01*
X197530091Y-107960003D01*
X197530091Y-107959996D01*
X197511787Y-107797544D01*
X197511786Y-107797542D01*
X197511786Y-107797539D01*
X197457789Y-107643225D01*
X197370808Y-107504796D01*
X197278693Y-107412681D01*
X197245208Y-107351358D01*
X197250192Y-107281666D01*
X197278693Y-107237319D01*
X197313523Y-107202489D01*
X197370808Y-107145204D01*
X197457789Y-107006775D01*
X197511786Y-106852461D01*
X197526739Y-106719749D01*
X197530091Y-106690003D01*
X197530091Y-106689996D01*
X197511787Y-106527544D01*
X197511786Y-106527540D01*
X197511786Y-106527539D01*
X197457789Y-106373225D01*
X197370808Y-106234796D01*
X197255204Y-106119192D01*
X197185664Y-106075497D01*
X197116774Y-106032210D01*
X196962455Y-105978212D01*
X196800004Y-105959909D01*
X196799996Y-105959909D01*
X196637544Y-105978212D01*
X196483225Y-106032210D01*
X196344795Y-106119192D01*
X196252681Y-106211307D01*
X196191358Y-106244792D01*
X196121666Y-106239808D01*
X196077319Y-106211307D01*
X195985204Y-106119192D01*
X195846774Y-106032210D01*
X195734422Y-105992897D01*
X195677646Y-105952175D01*
X195651898Y-105887223D01*
X195665354Y-105818661D01*
X195687692Y-105788178D01*
X197939052Y-103536819D01*
X198000375Y-103503334D01*
X198026733Y-103500500D01*
X200746062Y-103500500D01*
X200813101Y-103520185D01*
X200858856Y-103572989D01*
X200868800Y-103642147D01*
X200858856Y-103676012D01*
X200834134Y-103730143D01*
X200813653Y-103872600D01*
X200834134Y-104015056D01*
X200865900Y-104084612D01*
X200875844Y-104153771D01*
X200846819Y-104217327D01*
X200813622Y-104242713D01*
X200814121Y-104243506D01*
X200669795Y-104334192D01*
X200577681Y-104426307D01*
X200516358Y-104459792D01*
X200446666Y-104454808D01*
X200402319Y-104426307D01*
X200310204Y-104334192D01*
X200171774Y-104247210D01*
X200017455Y-104193212D01*
X199855004Y-104174909D01*
X199854996Y-104174909D01*
X199692544Y-104193212D01*
X199538225Y-104247210D01*
X199399795Y-104334192D01*
X199284192Y-104449795D01*
X199197210Y-104588225D01*
X199143212Y-104742544D01*
X199124909Y-104904996D01*
X199124909Y-104905003D01*
X199143212Y-105067455D01*
X199197210Y-105221774D01*
X199255123Y-105313941D01*
X199274123Y-105381177D01*
X199253756Y-105448013D01*
X199219021Y-105483015D01*
X199185446Y-105505449D01*
X199165125Y-105535861D01*
X199111512Y-105580666D01*
X199042187Y-105589372D01*
X198979160Y-105559216D01*
X198974343Y-105554650D01*
X198411559Y-104991866D01*
X198386447Y-104955700D01*
X198360977Y-104899927D01*
X198266728Y-104791157D01*
X198145653Y-104713347D01*
X198145651Y-104713346D01*
X198145649Y-104713345D01*
X198145650Y-104713345D01*
X198007563Y-104672800D01*
X198007561Y-104672800D01*
X197863639Y-104672800D01*
X197863636Y-104672800D01*
X197725549Y-104713345D01*
X197604473Y-104791156D01*
X197510223Y-104899926D01*
X197510222Y-104899928D01*
X197450434Y-105030843D01*
X197429953Y-105173300D01*
X197450434Y-105315756D01*
X197506812Y-105439205D01*
X197510223Y-105446673D01*
X197604472Y-105555443D01*
X197725547Y-105633253D01*
X197725550Y-105633254D01*
X197725549Y-105633254D01*
X197863636Y-105673799D01*
X197863638Y-105673800D01*
X197863639Y-105673800D01*
X197909345Y-105673800D01*
X197976384Y-105693485D01*
X197997026Y-105710119D01*
X198703479Y-106416571D01*
X198703489Y-106416582D01*
X198782388Y-106495481D01*
X198810151Y-106511509D01*
X198837915Y-106527539D01*
X198837916Y-106527540D01*
X198873707Y-106548204D01*
X198873710Y-106548206D01*
X198873712Y-106548206D01*
X198873713Y-106548207D01*
X198975573Y-106575501D01*
X198975575Y-106575501D01*
X199005500Y-106575501D01*
X199072539Y-106595186D01*
X199118294Y-106647990D01*
X199129500Y-106699501D01*
X199129500Y-106719752D01*
X199141131Y-106778229D01*
X199141132Y-106778230D01*
X199185447Y-106844552D01*
X199251769Y-106888867D01*
X199251770Y-106888868D01*
X199310247Y-106900499D01*
X199310250Y-106900500D01*
X199310252Y-106900500D01*
X200399750Y-106900500D01*
X200399751Y-106900499D01*
X200410934Y-106898275D01*
X200442242Y-106892048D01*
X200511833Y-106898275D01*
X200567011Y-106941138D01*
X200589091Y-106995471D01*
X200598002Y-107055550D01*
X200730845Y-107126556D01*
X200924067Y-107185170D01*
X201125000Y-107204959D01*
X201325932Y-107185170D01*
X201519152Y-107126557D01*
X201651995Y-107055549D01*
X201868002Y-107055549D01*
X202000847Y-107126557D01*
X202194067Y-107185170D01*
X202395000Y-107204959D01*
X202595932Y-107185170D01*
X202789152Y-107126557D01*
X202921994Y-107055550D01*
X204408002Y-107055550D01*
X204540845Y-107126556D01*
X204734067Y-107185170D01*
X204935000Y-107204959D01*
X205135932Y-107185170D01*
X205329152Y-107126557D01*
X205461996Y-107055549D01*
X204935001Y-106528553D01*
X204935000Y-106528553D01*
X204408002Y-107055550D01*
X202921994Y-107055550D01*
X202921996Y-107055549D01*
X202395001Y-106528553D01*
X202395000Y-106528553D01*
X201868002Y-107055549D01*
X201651995Y-107055549D01*
X201125001Y-106528553D01*
X201125000Y-106528553D01*
X200781819Y-106871733D01*
X200720496Y-106905218D01*
X200650804Y-106900234D01*
X200594871Y-106858362D01*
X200570454Y-106792898D01*
X200572521Y-106759859D01*
X200575317Y-106745807D01*
X200580500Y-106719748D01*
X200580500Y-106417308D01*
X200600185Y-106350269D01*
X200616819Y-106329627D01*
X200800000Y-106146446D01*
X200800000Y-106217787D01*
X200822149Y-106300445D01*
X200864936Y-106374554D01*
X200925446Y-106435064D01*
X200999555Y-106477851D01*
X201082213Y-106500000D01*
X201167787Y-106500000D01*
X201250445Y-106477851D01*
X201324554Y-106435064D01*
X201385064Y-106374554D01*
X201427851Y-106300445D01*
X201450000Y-106217787D01*
X201450000Y-106175000D01*
X201478553Y-106175000D01*
X201760000Y-106456446D01*
X201760001Y-106456446D01*
X202041446Y-106175001D01*
X202041446Y-106174999D01*
X201760001Y-105893553D01*
X201760000Y-105893553D01*
X201478553Y-106175000D01*
X201450000Y-106175000D01*
X201450000Y-106132213D01*
X201427851Y-106049555D01*
X201385064Y-105975446D01*
X201324554Y-105914936D01*
X201250445Y-105872149D01*
X201167787Y-105850000D01*
X201096446Y-105850000D01*
X201124999Y-105821447D01*
X201332360Y-105614084D01*
X201379085Y-105584724D01*
X201441775Y-105562789D01*
X201580204Y-105475808D01*
X201672319Y-105383693D01*
X201733642Y-105350208D01*
X201803334Y-105355192D01*
X201847681Y-105383693D01*
X201939796Y-105475808D01*
X202078225Y-105562789D01*
X202140911Y-105584724D01*
X202187638Y-105614084D01*
X202395000Y-105821447D01*
X202423553Y-105850000D01*
X202352213Y-105850000D01*
X202269555Y-105872149D01*
X202195446Y-105914936D01*
X202134936Y-105975446D01*
X202092149Y-106049555D01*
X202070000Y-106132213D01*
X202070000Y-106217787D01*
X202092149Y-106300445D01*
X202134936Y-106374554D01*
X202195446Y-106435064D01*
X202269555Y-106477851D01*
X202352213Y-106500000D01*
X202437787Y-106500000D01*
X202520445Y-106477851D01*
X202594554Y-106435064D01*
X202655064Y-106374554D01*
X202697851Y-106300445D01*
X202720000Y-106217787D01*
X202720000Y-106146446D01*
X202955915Y-106382361D01*
X202985275Y-106429087D01*
X203007210Y-106491773D01*
X203007212Y-106491777D01*
X203042668Y-106548204D01*
X203094192Y-106630204D01*
X203209796Y-106745808D01*
X203348225Y-106832789D01*
X203502539Y-106886786D01*
X203502542Y-106886786D01*
X203502544Y-106886787D01*
X203664996Y-106905091D01*
X203665000Y-106905091D01*
X203665004Y-106905091D01*
X203827455Y-106886787D01*
X203827456Y-106886786D01*
X203827461Y-106886786D01*
X203981775Y-106832789D01*
X204120204Y-106745808D01*
X204235808Y-106630204D01*
X204322789Y-106491775D01*
X204344724Y-106429085D01*
X204374084Y-106382360D01*
X204610000Y-106146444D01*
X204610000Y-106217787D01*
X204632149Y-106300445D01*
X204674936Y-106374554D01*
X204735446Y-106435064D01*
X204809555Y-106477851D01*
X204892213Y-106500000D01*
X204977787Y-106500000D01*
X205060445Y-106477851D01*
X205134554Y-106435064D01*
X205195064Y-106374554D01*
X205237851Y-106300445D01*
X205260000Y-106217787D01*
X205260000Y-106132213D01*
X205237851Y-106049555D01*
X205195064Y-105975446D01*
X205134554Y-105914936D01*
X205060445Y-105872149D01*
X204977787Y-105850000D01*
X204906446Y-105850000D01*
X204934999Y-105821447D01*
X205142360Y-105614084D01*
X205189085Y-105584724D01*
X205251775Y-105562789D01*
X205390204Y-105475808D01*
X205505808Y-105360204D01*
X205592789Y-105221775D01*
X205646786Y-105067461D01*
X205653824Y-105004999D01*
X205665091Y-104905003D01*
X205665091Y-104904996D01*
X205646787Y-104742544D01*
X205646786Y-104742542D01*
X205646786Y-104742539D01*
X205592789Y-104588225D01*
X205505808Y-104449796D01*
X205390204Y-104334192D01*
X205312791Y-104285550D01*
X205251774Y-104247210D01*
X205097455Y-104193212D01*
X204935004Y-104174909D01*
X204934996Y-104174909D01*
X204772544Y-104193212D01*
X204618225Y-104247210D01*
X204479795Y-104334192D01*
X204387681Y-104426307D01*
X204326358Y-104459792D01*
X204256666Y-104454808D01*
X204212319Y-104426307D01*
X204120204Y-104334192D01*
X203981774Y-104247210D01*
X203827455Y-104193212D01*
X203665004Y-104174909D01*
X203664996Y-104174909D01*
X203502544Y-104193212D01*
X203348225Y-104247210D01*
X203209795Y-104334192D01*
X203117681Y-104426307D01*
X203056358Y-104459792D01*
X202986666Y-104454808D01*
X202942319Y-104426307D01*
X202850204Y-104334192D01*
X202711774Y-104247210D01*
X202557455Y-104193212D01*
X202395004Y-104174909D01*
X202394996Y-104174909D01*
X202232544Y-104193212D01*
X202078225Y-104247210D01*
X201939795Y-104334192D01*
X201847681Y-104426307D01*
X201786358Y-104459792D01*
X201716666Y-104454808D01*
X201672319Y-104426307D01*
X201662577Y-104416565D01*
X201629092Y-104355242D01*
X201634076Y-104285550D01*
X201656543Y-104247685D01*
X201744677Y-104145973D01*
X201804465Y-104015057D01*
X201824947Y-103872600D01*
X201804465Y-103730143D01*
X201779744Y-103676012D01*
X201769800Y-103606853D01*
X201798825Y-103543297D01*
X201857603Y-103505523D01*
X201892538Y-103500500D01*
X203961026Y-103500500D01*
X204028064Y-103520184D01*
X204089949Y-103559954D01*
X204228036Y-103600499D01*
X204228038Y-103600500D01*
X204228039Y-103600500D01*
X204371962Y-103600500D01*
X204371962Y-103600499D01*
X204510053Y-103559953D01*
X204631128Y-103482143D01*
X204725377Y-103373373D01*
X204785165Y-103242457D01*
X204805647Y-103100000D01*
X204785165Y-102957543D01*
X204725377Y-102826627D01*
X204631128Y-102717857D01*
X204631126Y-102717855D01*
X204625320Y-102711155D01*
X204626401Y-102710218D01*
X204593764Y-102659435D01*
X204593764Y-102589566D01*
X204631538Y-102530787D01*
X204695093Y-102501762D01*
X204712741Y-102500500D01*
X205024167Y-102500500D01*
X205091206Y-102520185D01*
X205111848Y-102536819D01*
X206163181Y-103588152D01*
X206196666Y-103649475D01*
X206199500Y-103675833D01*
X206199500Y-106032243D01*
X206179815Y-106099282D01*
X206127011Y-106145037D01*
X206057853Y-106154981D01*
X205994297Y-106125956D01*
X205956523Y-106067178D01*
X205952097Y-106044397D01*
X205945170Y-105974067D01*
X205886556Y-105780845D01*
X205815550Y-105648002D01*
X205288553Y-106175000D01*
X205815549Y-106701996D01*
X205886557Y-106569152D01*
X205945170Y-106375932D01*
X205952097Y-106305602D01*
X205978258Y-106240815D01*
X206035292Y-106200456D01*
X206105092Y-106197339D01*
X206165497Y-106232453D01*
X206197328Y-106294651D01*
X206199500Y-106317756D01*
X206199500Y-109224167D01*
X206179815Y-109291206D01*
X206163181Y-109311848D01*
X206159541Y-109315487D01*
X206159535Y-109315495D01*
X206119982Y-109384004D01*
X206119979Y-109384009D01*
X206114729Y-109403602D01*
X206099500Y-109460438D01*
X206099500Y-113639562D01*
X206119979Y-113715989D01*
X206151215Y-113770091D01*
X206151218Y-113770096D01*
X206159539Y-113784511D01*
X206159541Y-113784513D01*
X206754911Y-114379882D01*
X206788396Y-114441205D01*
X206783412Y-114510896D01*
X206741541Y-114566830D01*
X206676076Y-114591247D01*
X206607803Y-114576395D01*
X206600191Y-114571879D01*
X206531050Y-114527445D01*
X206392963Y-114486900D01*
X206392961Y-114486900D01*
X206249039Y-114486900D01*
X206249036Y-114486900D01*
X206110949Y-114527445D01*
X205989873Y-114605256D01*
X205895623Y-114714026D01*
X205895622Y-114714028D01*
X205835834Y-114844943D01*
X205815353Y-114987400D01*
X205835834Y-115129856D01*
X205887258Y-115242456D01*
X205895623Y-115260773D01*
X205989872Y-115369543D01*
X206110947Y-115447353D01*
X206110950Y-115447354D01*
X206110949Y-115447354D01*
X206249036Y-115487899D01*
X206249038Y-115487900D01*
X206249039Y-115487900D01*
X206392962Y-115487900D01*
X206392962Y-115487899D01*
X206531053Y-115447353D01*
X206652128Y-115369543D01*
X206681789Y-115335312D01*
X206740564Y-115297539D01*
X206810434Y-115297538D01*
X206869212Y-115335312D01*
X206898238Y-115398868D01*
X206899500Y-115416516D01*
X206899500Y-117436260D01*
X206879815Y-117503299D01*
X206869213Y-117517462D01*
X206774625Y-117626622D01*
X206774622Y-117626628D01*
X206714834Y-117757543D01*
X206694353Y-117900000D01*
X206714834Y-118042456D01*
X206754627Y-118129588D01*
X206774623Y-118173373D01*
X206868872Y-118282143D01*
X206989947Y-118359953D01*
X206989950Y-118359954D01*
X206989949Y-118359954D01*
X207128036Y-118400499D01*
X207128038Y-118400500D01*
X207128039Y-118400500D01*
X207271962Y-118400500D01*
X207271962Y-118400499D01*
X207410053Y-118359953D01*
X207531128Y-118282143D01*
X207625377Y-118173373D01*
X207685165Y-118042457D01*
X207705647Y-117900000D01*
X207685165Y-117757543D01*
X207625377Y-117626627D01*
X207625375Y-117626625D01*
X207625374Y-117626622D01*
X207530787Y-117517462D01*
X207501762Y-117453906D01*
X207500500Y-117436260D01*
X207500500Y-114360439D01*
X207488929Y-114317255D01*
X207480021Y-114284011D01*
X207459011Y-114247620D01*
X207440464Y-114215495D01*
X207440458Y-114215487D01*
X206736819Y-113511848D01*
X206703334Y-113450525D01*
X206700500Y-113424167D01*
X206700500Y-110200000D01*
X211094353Y-110200000D01*
X211114834Y-110342456D01*
X211168494Y-110459953D01*
X211174623Y-110473373D01*
X211268872Y-110582143D01*
X211389947Y-110659953D01*
X211389950Y-110659954D01*
X211389949Y-110659954D01*
X211497107Y-110691417D01*
X211525280Y-110699690D01*
X211528036Y-110700499D01*
X211528038Y-110700500D01*
X211624167Y-110700500D01*
X211691206Y-110720185D01*
X211711848Y-110736819D01*
X212859540Y-111884511D01*
X212915489Y-111940460D01*
X212915491Y-111940461D01*
X212915495Y-111940464D01*
X212984004Y-111980017D01*
X212984011Y-111980021D01*
X213060438Y-112000500D01*
X213139562Y-112000500D01*
X213524167Y-112000500D01*
X213591206Y-112020185D01*
X213611848Y-112036819D01*
X214177042Y-112602013D01*
X214210527Y-112663336D01*
X214205543Y-112733028D01*
X214163671Y-112788961D01*
X214098207Y-112813378D01*
X214069964Y-112812167D01*
X213961572Y-112795000D01*
X213625000Y-112795000D01*
X213625000Y-113595000D01*
X213125000Y-113595000D01*
X213125000Y-112795000D01*
X212788429Y-112795000D01*
X212617415Y-112822085D01*
X212452742Y-112875591D01*
X212298475Y-112954195D01*
X212158397Y-113055967D01*
X212035967Y-113178397D01*
X211934195Y-113318475D01*
X211855591Y-113472744D01*
X211802085Y-113637415D01*
X211800884Y-113644999D01*
X211800885Y-113645000D01*
X212708012Y-113645000D01*
X212690795Y-113654940D01*
X212634940Y-113710795D01*
X212595444Y-113779204D01*
X212575000Y-113855504D01*
X212575000Y-113934496D01*
X212595444Y-114010796D01*
X212634940Y-114079205D01*
X212690795Y-114135060D01*
X212708012Y-114145000D01*
X211800885Y-114145000D01*
X211802085Y-114152584D01*
X211855591Y-114317255D01*
X211934195Y-114471524D01*
X212035967Y-114611602D01*
X212158397Y-114734032D01*
X212298475Y-114835804D01*
X212452742Y-114914408D01*
X212617415Y-114967914D01*
X212788429Y-114995000D01*
X213125000Y-114995000D01*
X213125000Y-114195000D01*
X213625000Y-114195000D01*
X213625000Y-114995000D01*
X213961565Y-114995000D01*
X213962009Y-114994965D01*
X213962176Y-114995000D01*
X213966444Y-114995000D01*
X213966444Y-114995896D01*
X214030387Y-115009323D01*
X214080149Y-115058370D01*
X214094487Y-115100935D01*
X214114834Y-115242456D01*
X214139990Y-115297538D01*
X214174623Y-115373373D01*
X214268872Y-115482143D01*
X214389947Y-115559953D01*
X214389950Y-115559954D01*
X214389949Y-115559954D01*
X214528036Y-115600499D01*
X214528038Y-115600500D01*
X214528039Y-115600500D01*
X214671962Y-115600500D01*
X214671962Y-115600499D01*
X214810053Y-115559953D01*
X214931128Y-115482143D01*
X215025377Y-115373373D01*
X215085165Y-115242457D01*
X215105647Y-115100000D01*
X215104339Y-115090905D01*
X215114279Y-115021749D01*
X215139390Y-114985579D01*
X215440460Y-114684511D01*
X215443052Y-114680021D01*
X215480021Y-114615989D01*
X215500500Y-114539562D01*
X215500500Y-113644999D01*
X216900884Y-113644999D01*
X216900885Y-113645000D01*
X217808012Y-113645000D01*
X217790795Y-113654940D01*
X217734940Y-113710795D01*
X217695444Y-113779204D01*
X217675000Y-113855504D01*
X217675000Y-113934496D01*
X217695444Y-114010796D01*
X217734940Y-114079205D01*
X217790795Y-114135060D01*
X217808012Y-114145000D01*
X216900885Y-114145000D01*
X216902085Y-114152584D01*
X216955591Y-114317255D01*
X217034195Y-114471524D01*
X217135967Y-114611602D01*
X217258397Y-114734032D01*
X217398475Y-114835804D01*
X217552742Y-114914408D01*
X217717415Y-114967914D01*
X217888429Y-114995000D01*
X218225000Y-114995000D01*
X218225000Y-114195000D01*
X218725000Y-114195000D01*
X218725000Y-114995000D01*
X219061571Y-114995000D01*
X219232584Y-114967914D01*
X219397257Y-114914408D01*
X219551524Y-114835804D01*
X219691602Y-114734032D01*
X219814032Y-114611602D01*
X219915804Y-114471524D01*
X219994408Y-114317255D01*
X220047914Y-114152584D01*
X220049115Y-114145000D01*
X219141988Y-114145000D01*
X219159205Y-114135060D01*
X219215060Y-114079205D01*
X219254556Y-114010796D01*
X219275000Y-113934496D01*
X219275000Y-113855504D01*
X219254556Y-113779204D01*
X219215060Y-113710795D01*
X219159205Y-113654940D01*
X219141988Y-113645000D01*
X220049115Y-113645000D01*
X220049115Y-113644999D01*
X220047914Y-113637415D01*
X219994408Y-113472744D01*
X219915804Y-113318475D01*
X219814032Y-113178397D01*
X219691602Y-113055967D01*
X219551524Y-112954195D01*
X219397257Y-112875591D01*
X219232584Y-112822085D01*
X219061571Y-112795000D01*
X218725000Y-112795000D01*
X218725000Y-113595000D01*
X218225000Y-113595000D01*
X218225000Y-112795000D01*
X217888429Y-112795000D01*
X217717415Y-112822085D01*
X217552742Y-112875591D01*
X217398475Y-112954195D01*
X217258397Y-113055967D01*
X217135967Y-113178397D01*
X217034195Y-113318475D01*
X216955591Y-113472744D01*
X216902085Y-113637415D01*
X216900884Y-113644999D01*
X215500500Y-113644999D01*
X215500500Y-113160438D01*
X215480021Y-113084011D01*
X215454613Y-113040003D01*
X215440464Y-113015495D01*
X215440458Y-113015487D01*
X213884512Y-111459541D01*
X213884507Y-111459537D01*
X213873575Y-111453226D01*
X213873573Y-111453225D01*
X213815991Y-111419980D01*
X213815990Y-111419979D01*
X213790513Y-111413152D01*
X213739562Y-111399500D01*
X213739560Y-111399500D01*
X213275833Y-111399500D01*
X213208794Y-111379815D01*
X213188152Y-111363181D01*
X212139395Y-110314424D01*
X212105910Y-110253101D01*
X212104339Y-110209094D01*
X212105647Y-110200000D01*
X212085165Y-110057543D01*
X212025377Y-109926627D01*
X211931128Y-109817857D01*
X211810053Y-109740047D01*
X211810051Y-109740046D01*
X211810049Y-109740045D01*
X211810050Y-109740045D01*
X211671963Y-109699500D01*
X211671961Y-109699500D01*
X211528039Y-109699500D01*
X211528036Y-109699500D01*
X211389949Y-109740045D01*
X211268873Y-109817856D01*
X211174623Y-109926626D01*
X211174622Y-109926628D01*
X211114834Y-110057543D01*
X211094353Y-110200000D01*
X206700500Y-110200000D01*
X206700500Y-109675833D01*
X206720185Y-109608794D01*
X206736819Y-109588152D01*
X206740460Y-109584511D01*
X206741122Y-109583365D01*
X206780021Y-109515989D01*
X206800500Y-109439562D01*
X206800500Y-103460438D01*
X206795147Y-103440460D01*
X206780022Y-103384012D01*
X206740460Y-103315489D01*
X205384511Y-101959540D01*
X205377413Y-101955442D01*
X205315991Y-101919980D01*
X205315990Y-101919979D01*
X205278960Y-101910057D01*
X205239562Y-101899500D01*
X197460438Y-101899500D01*
X197422224Y-101909739D01*
X197384009Y-101919979D01*
X197384008Y-101919980D01*
X197322587Y-101955442D01*
X197316585Y-101958907D01*
X197315487Y-101959541D01*
X196656693Y-102618334D01*
X196595370Y-102651819D01*
X196525678Y-102646835D01*
X196517503Y-102643449D01*
X196510049Y-102640045D01*
X196371963Y-102599500D01*
X196371961Y-102599500D01*
X196228039Y-102599500D01*
X196102616Y-102636326D01*
X196032747Y-102636325D01*
X195973969Y-102598550D01*
X195944945Y-102534994D01*
X195954889Y-102465835D01*
X195979998Y-102429672D01*
X196692571Y-101717100D01*
X206208553Y-101717100D01*
X206229034Y-101859556D01*
X206276343Y-101963147D01*
X206288823Y-101990473D01*
X206383072Y-102099243D01*
X206504147Y-102177053D01*
X206504150Y-102177054D01*
X206504149Y-102177054D01*
X206642236Y-102217599D01*
X206642238Y-102217600D01*
X206642239Y-102217600D01*
X206786162Y-102217600D01*
X206786162Y-102217599D01*
X206924253Y-102177053D01*
X207045328Y-102099243D01*
X207139577Y-101990473D01*
X207199365Y-101859557D01*
X207219847Y-101717100D01*
X207210199Y-101649999D01*
X210155168Y-101649999D01*
X210155168Y-101650000D01*
X210174459Y-101870499D01*
X210174461Y-101870509D01*
X210231745Y-102084300D01*
X210231749Y-102084309D01*
X210325295Y-102284919D01*
X210371103Y-102350341D01*
X210371105Y-102350342D01*
X210933871Y-101787575D01*
X210949755Y-101846853D01*
X211016898Y-101963147D01*
X211111853Y-102058102D01*
X211228147Y-102125245D01*
X211287424Y-102141128D01*
X210724656Y-102703894D01*
X210790083Y-102749706D01*
X210790085Y-102749707D01*
X210990690Y-102843250D01*
X210990699Y-102843254D01*
X211204490Y-102900538D01*
X211204500Y-102900540D01*
X211424999Y-102919832D01*
X211425001Y-102919832D01*
X211645499Y-102900540D01*
X211645509Y-102900538D01*
X211859300Y-102843254D01*
X211859309Y-102843250D01*
X212059915Y-102749706D01*
X212125342Y-102703894D01*
X211562575Y-102141127D01*
X211621853Y-102125245D01*
X211738147Y-102058102D01*
X211833102Y-101963147D01*
X211900245Y-101846853D01*
X211916128Y-101787575D01*
X212478894Y-102350342D01*
X212524706Y-102284915D01*
X212618250Y-102084309D01*
X212618254Y-102084300D01*
X212675538Y-101870509D01*
X212675540Y-101870499D01*
X212694832Y-101650000D01*
X212694832Y-101649999D01*
X212675540Y-101429500D01*
X212675538Y-101429490D01*
X212618254Y-101215699D01*
X212618250Y-101215690D01*
X212524707Y-101015085D01*
X212524706Y-101015083D01*
X212478894Y-100949657D01*
X212478894Y-100949656D01*
X211916127Y-101512423D01*
X211900245Y-101453147D01*
X211833102Y-101336853D01*
X211738147Y-101241898D01*
X211621853Y-101174755D01*
X211562575Y-101158872D01*
X212125342Y-100596105D01*
X212125341Y-100596103D01*
X212059919Y-100550295D01*
X211859309Y-100456749D01*
X211859300Y-100456745D01*
X211645509Y-100399461D01*
X211645499Y-100399459D01*
X211425001Y-100380168D01*
X211424999Y-100380168D01*
X211204500Y-100399459D01*
X211204490Y-100399461D01*
X210990699Y-100456745D01*
X210990690Y-100456749D01*
X210790084Y-100550293D01*
X210724657Y-100596104D01*
X211287424Y-101158871D01*
X211228147Y-101174755D01*
X211111853Y-101241898D01*
X211016898Y-101336853D01*
X210949755Y-101453147D01*
X210933871Y-101512424D01*
X210371104Y-100949657D01*
X210325293Y-101015084D01*
X210231749Y-101215690D01*
X210231745Y-101215699D01*
X210174461Y-101429490D01*
X210174459Y-101429500D01*
X210155168Y-101649999D01*
X207210199Y-101649999D01*
X207199365Y-101574643D01*
X207139577Y-101443727D01*
X207045328Y-101334957D01*
X206924253Y-101257147D01*
X206924251Y-101257146D01*
X206924249Y-101257145D01*
X206924250Y-101257145D01*
X206786163Y-101216600D01*
X206786161Y-101216600D01*
X206642239Y-101216600D01*
X206642236Y-101216600D01*
X206504149Y-101257145D01*
X206383073Y-101334956D01*
X206288823Y-101443726D01*
X206288822Y-101443728D01*
X206229034Y-101574643D01*
X206208553Y-101717100D01*
X196692571Y-101717100D01*
X197356852Y-101052819D01*
X197418175Y-101019334D01*
X197444533Y-101016500D01*
X203807299Y-101016500D01*
X203874338Y-101036185D01*
X203901011Y-101059296D01*
X203934672Y-101098143D01*
X204055747Y-101175953D01*
X204055750Y-101175954D01*
X204055749Y-101175954D01*
X204162907Y-101207417D01*
X204191080Y-101215690D01*
X204193836Y-101216499D01*
X204193838Y-101216500D01*
X204193839Y-101216500D01*
X204337762Y-101216500D01*
X204337762Y-101216499D01*
X204444921Y-101185035D01*
X204475850Y-101175954D01*
X204475850Y-101175953D01*
X204475853Y-101175953D01*
X204596928Y-101098143D01*
X204691177Y-100989373D01*
X204750965Y-100858457D01*
X204771447Y-100716000D01*
X204750965Y-100573543D01*
X204691177Y-100442627D01*
X204596928Y-100333857D01*
X204475853Y-100256047D01*
X204475851Y-100256046D01*
X204475849Y-100256045D01*
X204475850Y-100256045D01*
X204337763Y-100215500D01*
X204337761Y-100215500D01*
X204193839Y-100215500D01*
X204193836Y-100215500D01*
X204055749Y-100256045D01*
X203934673Y-100333856D01*
X203901012Y-100372703D01*
X203842233Y-100410477D01*
X203807299Y-100415500D01*
X197229138Y-100415500D01*
X197190924Y-100425739D01*
X197152709Y-100435979D01*
X197152708Y-100435980D01*
X197093864Y-100469953D01*
X197093864Y-100469954D01*
X197087799Y-100473456D01*
X197084185Y-100475542D01*
X192039647Y-105520081D01*
X191978324Y-105553566D01*
X191951966Y-105556400D01*
X191855836Y-105556400D01*
X191759434Y-105584706D01*
X191689565Y-105584706D01*
X191630787Y-105546931D01*
X191601762Y-105483375D01*
X191600500Y-105465729D01*
X191600500Y-103099333D01*
X191620185Y-103032294D01*
X191672989Y-102986539D01*
X191742147Y-102976595D01*
X191759431Y-102980355D01*
X191780492Y-102986539D01*
X191828038Y-103000500D01*
X191828039Y-103000500D01*
X191971962Y-103000500D01*
X191971962Y-103000499D01*
X192110053Y-102959953D01*
X192231128Y-102882143D01*
X192325377Y-102773373D01*
X192385165Y-102642457D01*
X192405647Y-102500000D01*
X192385165Y-102357543D01*
X192325377Y-102226627D01*
X192231128Y-102117857D01*
X192110053Y-102040047D01*
X192110051Y-102040046D01*
X192110049Y-102040045D01*
X192110050Y-102040045D01*
X191971963Y-101999500D01*
X191971961Y-101999500D01*
X191828039Y-101999500D01*
X191828035Y-101999500D01*
X191759434Y-102019643D01*
X191689564Y-102019643D01*
X191630786Y-101981868D01*
X191601762Y-101918312D01*
X191600500Y-101900666D01*
X191600500Y-101860437D01*
X191594579Y-101838342D01*
X191594578Y-101838337D01*
X191580023Y-101784015D01*
X191580022Y-101784013D01*
X191580022Y-101784012D01*
X191570546Y-101767600D01*
X193866353Y-101767600D01*
X193886834Y-101910056D01*
X193936882Y-102019643D01*
X193946623Y-102040973D01*
X194040872Y-102149743D01*
X194161947Y-102227553D01*
X194161950Y-102227554D01*
X194161949Y-102227554D01*
X194300036Y-102268099D01*
X194300038Y-102268100D01*
X194300039Y-102268100D01*
X194443962Y-102268100D01*
X194443962Y-102268099D01*
X194582053Y-102227553D01*
X194703128Y-102149743D01*
X194797377Y-102040973D01*
X194857165Y-101910057D01*
X194877647Y-101767600D01*
X194857165Y-101625143D01*
X194797377Y-101494227D01*
X194783150Y-101477808D01*
X194754126Y-101414252D01*
X194764070Y-101345093D01*
X194809826Y-101292290D01*
X194841925Y-101277630D01*
X194915753Y-101255953D01*
X195036828Y-101178143D01*
X195131077Y-101069373D01*
X195190865Y-100938457D01*
X195211347Y-100796000D01*
X195190865Y-100653543D01*
X195131077Y-100522627D01*
X195036828Y-100413857D01*
X194915753Y-100336047D01*
X194915751Y-100336046D01*
X194915749Y-100336045D01*
X194915750Y-100336045D01*
X194777663Y-100295500D01*
X194777661Y-100295500D01*
X194633739Y-100295500D01*
X194633736Y-100295500D01*
X194495649Y-100336045D01*
X194374573Y-100413856D01*
X194280323Y-100522626D01*
X194280322Y-100522628D01*
X194220534Y-100653543D01*
X194200053Y-100796000D01*
X194220534Y-100938456D01*
X194280322Y-101069371D01*
X194280325Y-101069377D01*
X194294549Y-101085792D01*
X194323573Y-101149348D01*
X194313629Y-101218506D01*
X194267873Y-101271309D01*
X194235770Y-101285970D01*
X194161949Y-101307645D01*
X194040873Y-101385456D01*
X193946623Y-101494226D01*
X193946622Y-101494228D01*
X193886834Y-101625143D01*
X193866353Y-101767600D01*
X191570546Y-101767600D01*
X191540460Y-101715489D01*
X191392752Y-101567781D01*
X191359267Y-101506458D01*
X191364251Y-101436766D01*
X191406123Y-101380833D01*
X191471587Y-101356416D01*
X191480433Y-101356100D01*
X191514462Y-101356100D01*
X191514462Y-101356099D01*
X191652553Y-101315553D01*
X191773628Y-101237743D01*
X191867877Y-101128973D01*
X191927665Y-100998057D01*
X191948147Y-100855600D01*
X191927665Y-100713143D01*
X191867877Y-100582227D01*
X191773628Y-100473457D01*
X191652553Y-100395647D01*
X191652551Y-100395646D01*
X191652549Y-100395645D01*
X191652550Y-100395645D01*
X191514463Y-100355100D01*
X191514461Y-100355100D01*
X191370539Y-100355100D01*
X191370536Y-100355100D01*
X191259434Y-100387722D01*
X191189564Y-100387722D01*
X191130787Y-100349947D01*
X191101762Y-100286391D01*
X191100500Y-100268745D01*
X191100500Y-98733300D01*
X192997053Y-98733300D01*
X193017534Y-98875756D01*
X193044134Y-98934000D01*
X193077323Y-99006673D01*
X193171572Y-99115443D01*
X193187035Y-99125380D01*
X193232790Y-99178181D01*
X193242735Y-99247339D01*
X193213712Y-99310896D01*
X193213710Y-99310898D01*
X193125825Y-99412322D01*
X193125822Y-99412328D01*
X193066034Y-99543243D01*
X193045553Y-99685700D01*
X193066034Y-99828156D01*
X193096150Y-99894099D01*
X193125823Y-99959073D01*
X193220072Y-100067843D01*
X193341147Y-100145653D01*
X193341150Y-100145654D01*
X193341149Y-100145654D01*
X193479236Y-100186199D01*
X193479238Y-100186200D01*
X193479239Y-100186200D01*
X193623162Y-100186200D01*
X193623162Y-100186199D01*
X193761253Y-100145653D01*
X193882328Y-100067843D01*
X193976577Y-99959073D01*
X194036365Y-99828157D01*
X194056847Y-99685700D01*
X194036365Y-99543243D01*
X193976577Y-99412327D01*
X193960350Y-99393600D01*
X203639953Y-99393600D01*
X203660434Y-99536056D01*
X203720222Y-99666971D01*
X203720223Y-99666973D01*
X203814472Y-99775743D01*
X203935547Y-99853553D01*
X203935550Y-99853554D01*
X203935549Y-99853554D01*
X204073636Y-99894099D01*
X204073638Y-99894100D01*
X204073639Y-99894100D01*
X204217562Y-99894100D01*
X204217562Y-99894099D01*
X204355653Y-99853553D01*
X204476728Y-99775743D01*
X204570977Y-99666973D01*
X204630765Y-99536057D01*
X204651247Y-99393600D01*
X204630765Y-99251143D01*
X204570977Y-99120227D01*
X204476728Y-99011457D01*
X204355653Y-98933647D01*
X204355651Y-98933646D01*
X204355649Y-98933645D01*
X204355650Y-98933645D01*
X204217563Y-98893100D01*
X204217561Y-98893100D01*
X204073639Y-98893100D01*
X204073636Y-98893100D01*
X203935549Y-98933645D01*
X203814473Y-99011456D01*
X203720223Y-99120226D01*
X203720222Y-99120228D01*
X203660434Y-99251143D01*
X203639953Y-99393600D01*
X193960350Y-99393600D01*
X193882328Y-99303557D01*
X193866864Y-99293618D01*
X193821109Y-99240817D01*
X193811164Y-99171658D01*
X193840184Y-99108106D01*
X193928077Y-99006673D01*
X193987865Y-98875757D01*
X194008347Y-98733300D01*
X193987865Y-98590843D01*
X193928077Y-98459927D01*
X193833828Y-98351157D01*
X193712753Y-98273347D01*
X193712751Y-98273346D01*
X193712749Y-98273345D01*
X193712750Y-98273345D01*
X193574663Y-98232800D01*
X193574661Y-98232800D01*
X193430739Y-98232800D01*
X193430736Y-98232800D01*
X193292649Y-98273345D01*
X193171573Y-98351156D01*
X193077323Y-98459926D01*
X193077322Y-98459928D01*
X193017534Y-98590843D01*
X192997053Y-98733300D01*
X191100500Y-98733300D01*
X191100500Y-97828600D01*
X198232453Y-97828600D01*
X198252934Y-97971056D01*
X198312722Y-98101971D01*
X198312723Y-98101973D01*
X198406972Y-98210743D01*
X198528047Y-98288553D01*
X198528050Y-98288554D01*
X198528049Y-98288554D01*
X198666136Y-98329099D01*
X198666138Y-98329100D01*
X198666139Y-98329100D01*
X198810062Y-98329100D01*
X198810062Y-98329099D01*
X198948153Y-98288553D01*
X199069228Y-98210743D01*
X199163477Y-98101973D01*
X199219775Y-97978700D01*
X202046953Y-97978700D01*
X202067434Y-98121156D01*
X202098223Y-98188573D01*
X202127223Y-98252073D01*
X202221472Y-98360843D01*
X202342547Y-98438653D01*
X202342550Y-98438654D01*
X202342549Y-98438654D01*
X202449707Y-98470117D01*
X202468034Y-98475499D01*
X202480636Y-98479199D01*
X202480638Y-98479200D01*
X202480639Y-98479200D01*
X202624562Y-98479200D01*
X202624562Y-98479199D01*
X202762653Y-98438653D01*
X202883728Y-98360843D01*
X202977977Y-98252073D01*
X203037765Y-98121157D01*
X203058247Y-97978700D01*
X203037765Y-97836243D01*
X202977977Y-97705327D01*
X202883728Y-97596557D01*
X202762653Y-97518747D01*
X202762651Y-97518746D01*
X202762649Y-97518745D01*
X202762650Y-97518745D01*
X202624563Y-97478200D01*
X202624561Y-97478200D01*
X202480639Y-97478200D01*
X202480636Y-97478200D01*
X202342549Y-97518745D01*
X202221473Y-97596556D01*
X202221472Y-97596556D01*
X202221472Y-97596557D01*
X202209724Y-97610115D01*
X202127223Y-97705326D01*
X202127222Y-97705328D01*
X202067434Y-97836243D01*
X202046953Y-97978700D01*
X199219775Y-97978700D01*
X199223265Y-97971057D01*
X199243747Y-97828600D01*
X199223265Y-97686143D01*
X199163477Y-97555227D01*
X199069228Y-97446457D01*
X198948153Y-97368647D01*
X198948151Y-97368646D01*
X198948149Y-97368645D01*
X198948150Y-97368645D01*
X198810063Y-97328100D01*
X198810061Y-97328100D01*
X198666139Y-97328100D01*
X198666136Y-97328100D01*
X198528049Y-97368645D01*
X198406973Y-97446456D01*
X198312723Y-97555226D01*
X198312722Y-97555228D01*
X198252934Y-97686143D01*
X198232453Y-97828600D01*
X191100500Y-97828600D01*
X191100500Y-97731733D01*
X191120185Y-97664694D01*
X191136819Y-97644052D01*
X191480871Y-97300000D01*
X192194353Y-97300000D01*
X192214834Y-97442456D01*
X192248576Y-97516339D01*
X192274623Y-97573373D01*
X192368872Y-97682143D01*
X192489947Y-97759953D01*
X192489950Y-97759954D01*
X192489949Y-97759954D01*
X192628036Y-97800499D01*
X192628038Y-97800500D01*
X192628039Y-97800500D01*
X192771962Y-97800500D01*
X192771962Y-97800499D01*
X192910053Y-97759953D01*
X193031128Y-97682143D01*
X193125377Y-97573373D01*
X193185165Y-97442457D01*
X193205647Y-97300000D01*
X193205646Y-97299999D01*
X193206668Y-97292897D01*
X193235693Y-97229341D01*
X193294471Y-97191566D01*
X193364340Y-97191566D01*
X193423117Y-97229338D01*
X193468872Y-97282143D01*
X193589947Y-97359953D01*
X193589950Y-97359954D01*
X193589949Y-97359954D01*
X193728036Y-97400499D01*
X193728038Y-97400500D01*
X193728039Y-97400500D01*
X193871962Y-97400500D01*
X193871962Y-97400499D01*
X194010053Y-97359953D01*
X194131128Y-97282143D01*
X194225377Y-97173373D01*
X194285165Y-97042457D01*
X194305647Y-96900000D01*
X194285165Y-96757543D01*
X194225377Y-96626627D01*
X194197366Y-96594300D01*
X198843053Y-96594300D01*
X198863534Y-96736756D01*
X198910706Y-96840047D01*
X198923323Y-96867673D01*
X199017572Y-96976443D01*
X199138647Y-97054253D01*
X199138650Y-97054254D01*
X199138649Y-97054254D01*
X199276736Y-97094799D01*
X199276738Y-97094800D01*
X199276739Y-97094800D01*
X199420662Y-97094800D01*
X199420662Y-97094799D01*
X199558753Y-97054253D01*
X199679828Y-96976443D01*
X199774077Y-96867673D01*
X199833865Y-96736757D01*
X199854347Y-96594300D01*
X199833865Y-96451843D01*
X199774077Y-96320927D01*
X199679828Y-96212157D01*
X199558753Y-96134347D01*
X199558751Y-96134346D01*
X199558749Y-96134345D01*
X199558750Y-96134345D01*
X199420663Y-96093800D01*
X199420661Y-96093800D01*
X199276739Y-96093800D01*
X199276736Y-96093800D01*
X199138649Y-96134345D01*
X199017573Y-96212156D01*
X198923323Y-96320926D01*
X198923322Y-96320928D01*
X198863534Y-96451843D01*
X198843053Y-96594300D01*
X194197366Y-96594300D01*
X194131128Y-96517857D01*
X194010053Y-96440047D01*
X194010051Y-96440046D01*
X194010049Y-96440045D01*
X194010050Y-96440045D01*
X193871963Y-96399500D01*
X193871961Y-96399500D01*
X193728039Y-96399500D01*
X193728036Y-96399500D01*
X193589949Y-96440045D01*
X193468873Y-96517856D01*
X193374623Y-96626626D01*
X193374622Y-96626628D01*
X193314834Y-96757543D01*
X193293331Y-96907103D01*
X193264306Y-96970659D01*
X193205528Y-97008433D01*
X193135658Y-97008433D01*
X193076880Y-96970658D01*
X193031129Y-96917858D01*
X193031128Y-96917857D01*
X192910053Y-96840047D01*
X192910051Y-96840046D01*
X192910049Y-96840045D01*
X192910050Y-96840045D01*
X192771963Y-96799500D01*
X192771961Y-96799500D01*
X192628039Y-96799500D01*
X192628036Y-96799500D01*
X192489949Y-96840045D01*
X192368873Y-96917856D01*
X192274623Y-97026626D01*
X192274622Y-97026628D01*
X192214834Y-97157543D01*
X192194353Y-97300000D01*
X191480871Y-97300000D01*
X192073157Y-96707714D01*
X192073160Y-96707711D01*
X192077323Y-96700500D01*
X192112721Y-96639189D01*
X192133200Y-96562762D01*
X192133200Y-96019038D01*
X192152885Y-95951999D01*
X192163487Y-95937835D01*
X192163824Y-95937444D01*
X192163828Y-95937443D01*
X192258077Y-95828673D01*
X192317865Y-95697757D01*
X192318538Y-95693070D01*
X192347558Y-95629514D01*
X192406334Y-95591735D01*
X192476203Y-95591730D01*
X192528958Y-95623029D01*
X192546389Y-95640460D01*
X192546391Y-95640461D01*
X192546395Y-95640464D01*
X192601470Y-95672261D01*
X192614911Y-95680021D01*
X192691338Y-95700500D01*
X192770462Y-95700500D01*
X194672322Y-95700500D01*
X194739361Y-95720185D01*
X194785116Y-95772989D01*
X194795060Y-95842147D01*
X194788432Y-95864718D01*
X194788833Y-95864836D01*
X194786334Y-95873342D01*
X194765853Y-96015800D01*
X194786334Y-96158256D01*
X194838665Y-96272843D01*
X194846123Y-96289173D01*
X194940372Y-96397943D01*
X195061447Y-96475753D01*
X195061450Y-96475754D01*
X195061449Y-96475754D01*
X195168607Y-96507217D01*
X195184349Y-96511840D01*
X195199536Y-96516299D01*
X195199538Y-96516300D01*
X195199539Y-96516300D01*
X195343462Y-96516300D01*
X195343462Y-96516299D01*
X195481553Y-96475753D01*
X195602628Y-96397943D01*
X195696877Y-96289173D01*
X195756665Y-96158257D01*
X195777147Y-96015800D01*
X195756665Y-95873343D01*
X195756665Y-95873342D01*
X195754167Y-95864836D01*
X195756190Y-95864241D01*
X195747941Y-95806849D01*
X195776967Y-95743295D01*
X195835747Y-95705522D01*
X195870678Y-95700500D01*
X198039560Y-95700500D01*
X198039562Y-95700500D01*
X198115989Y-95680021D01*
X198184511Y-95640460D01*
X198240460Y-95584511D01*
X198730852Y-95094119D01*
X198792175Y-95060634D01*
X198818533Y-95057800D01*
X199432028Y-95057800D01*
X199499067Y-95077485D01*
X199544822Y-95130289D01*
X199554766Y-95199447D01*
X199544823Y-95233311D01*
X199535034Y-95254744D01*
X199514553Y-95397200D01*
X199535034Y-95539656D01*
X199581982Y-95642456D01*
X199594823Y-95670573D01*
X199689072Y-95779343D01*
X199810147Y-95857153D01*
X199810150Y-95857154D01*
X199810149Y-95857154D01*
X199895256Y-95882143D01*
X199937262Y-95894477D01*
X199948236Y-95897699D01*
X199948238Y-95897700D01*
X199948239Y-95897700D01*
X200092162Y-95897700D01*
X200092162Y-95897699D01*
X200230253Y-95857153D01*
X200351328Y-95779343D01*
X200445577Y-95670573D01*
X200505365Y-95539657D01*
X200525847Y-95397200D01*
X200505365Y-95254743D01*
X200495576Y-95233310D01*
X200485634Y-95164152D01*
X200514660Y-95100597D01*
X200573438Y-95062823D01*
X200608372Y-95057800D01*
X201955667Y-95057800D01*
X202022706Y-95077485D01*
X202043348Y-95094119D01*
X204809804Y-97860575D01*
X204843289Y-97921898D01*
X204844861Y-97965902D01*
X204843553Y-97974999D01*
X204864034Y-98117456D01*
X204905000Y-98207157D01*
X204923823Y-98248373D01*
X205018072Y-98357143D01*
X205139147Y-98434953D01*
X205139150Y-98434954D01*
X205139149Y-98434954D01*
X205277236Y-98475499D01*
X205277238Y-98475500D01*
X205277239Y-98475500D01*
X205421162Y-98475500D01*
X205421162Y-98475499D01*
X205528321Y-98444035D01*
X205559250Y-98434954D01*
X205559250Y-98434953D01*
X205559253Y-98434953D01*
X205680328Y-98357143D01*
X205774577Y-98248373D01*
X205834365Y-98117457D01*
X205854847Y-97975000D01*
X205834365Y-97832543D01*
X205774577Y-97701627D01*
X205680328Y-97592857D01*
X205559253Y-97515047D01*
X205559251Y-97515046D01*
X205559249Y-97515045D01*
X205559250Y-97515045D01*
X205421163Y-97474500D01*
X205421161Y-97474500D01*
X205325033Y-97474500D01*
X205257994Y-97454815D01*
X205237352Y-97438181D01*
X205039171Y-97240000D01*
X211732843Y-97240000D01*
X211751426Y-97428681D01*
X211759354Y-97454815D01*
X211806463Y-97610115D01*
X211806464Y-97610118D01*
X211806465Y-97610119D01*
X211806466Y-97610122D01*
X211895834Y-97777318D01*
X211895838Y-97777325D01*
X212016116Y-97923883D01*
X212162674Y-98044161D01*
X212162681Y-98044165D01*
X212329877Y-98133533D01*
X212329878Y-98133533D01*
X212329885Y-98133537D01*
X212511317Y-98188573D01*
X212511316Y-98188573D01*
X212528233Y-98190239D01*
X212700000Y-98207157D01*
X212888683Y-98188573D01*
X213070115Y-98133537D01*
X213237324Y-98044162D01*
X213383883Y-97923883D01*
X213504162Y-97777324D01*
X213593537Y-97610115D01*
X213648573Y-97428683D01*
X213667157Y-97240000D01*
X213648573Y-97051317D01*
X213593537Y-96869885D01*
X213592354Y-96867671D01*
X213504165Y-96702681D01*
X213504161Y-96702674D01*
X213383883Y-96556116D01*
X213237325Y-96435838D01*
X213237318Y-96435834D01*
X213070122Y-96346466D01*
X213070119Y-96346465D01*
X213070118Y-96346464D01*
X213070115Y-96346463D01*
X212888683Y-96291427D01*
X212888681Y-96291426D01*
X212888683Y-96291426D01*
X212700000Y-96272843D01*
X212511318Y-96291426D01*
X212414070Y-96320926D01*
X212329885Y-96346463D01*
X212329882Y-96346464D01*
X212329880Y-96346465D01*
X212329877Y-96346466D01*
X212162681Y-96435834D01*
X212162674Y-96435838D01*
X212016116Y-96556116D01*
X211895838Y-96702674D01*
X211895834Y-96702681D01*
X211806466Y-96869877D01*
X211806465Y-96869880D01*
X211806464Y-96869882D01*
X211806463Y-96869885D01*
X211791911Y-96917857D01*
X211751426Y-97051318D01*
X211732843Y-97240000D01*
X205039171Y-97240000D01*
X204511352Y-96712181D01*
X204477867Y-96650858D01*
X204482851Y-96581166D01*
X204524723Y-96525233D01*
X204590187Y-96500816D01*
X204599033Y-96500500D01*
X207741499Y-96500500D01*
X207808538Y-96520185D01*
X207835211Y-96543296D01*
X207868872Y-96582143D01*
X207989947Y-96659953D01*
X207989950Y-96659954D01*
X207989949Y-96659954D01*
X208128036Y-96700499D01*
X208128038Y-96700500D01*
X208128039Y-96700500D01*
X208271962Y-96700500D01*
X208271962Y-96700499D01*
X208410053Y-96659953D01*
X208531128Y-96582143D01*
X208625377Y-96473373D01*
X208685165Y-96342457D01*
X208705647Y-96200000D01*
X208685165Y-96057543D01*
X208625377Y-95926627D01*
X208531128Y-95817857D01*
X208410053Y-95740047D01*
X208410051Y-95740046D01*
X208410049Y-95740045D01*
X208410050Y-95740045D01*
X208271963Y-95699500D01*
X208271961Y-95699500D01*
X208128039Y-95699500D01*
X208128036Y-95699500D01*
X207989949Y-95740045D01*
X207868873Y-95817856D01*
X207835212Y-95856703D01*
X207776433Y-95894477D01*
X207741499Y-95899500D01*
X204375833Y-95899500D01*
X204308794Y-95879815D01*
X204288152Y-95863181D01*
X203124970Y-94699999D01*
X211433179Y-94699999D01*
X211433179Y-94700000D01*
X211452424Y-94919976D01*
X211452426Y-94919986D01*
X211509575Y-95133270D01*
X211509580Y-95133284D01*
X211602898Y-95333405D01*
X211602901Y-95333411D01*
X211648258Y-95398187D01*
X211648259Y-95398188D01*
X212217037Y-94829409D01*
X212234075Y-94892993D01*
X212299901Y-95007007D01*
X212392993Y-95100099D01*
X212507007Y-95165925D01*
X212570590Y-95182962D01*
X212001810Y-95751740D01*
X212066590Y-95797099D01*
X212066592Y-95797100D01*
X212266715Y-95890419D01*
X212266729Y-95890424D01*
X212480013Y-95947573D01*
X212480023Y-95947575D01*
X212699999Y-95966821D01*
X212700001Y-95966821D01*
X212919976Y-95947575D01*
X212919986Y-95947573D01*
X213133270Y-95890424D01*
X213133284Y-95890419D01*
X213333407Y-95797100D01*
X213333417Y-95797094D01*
X213398188Y-95751741D01*
X212829410Y-95182962D01*
X212892993Y-95165925D01*
X213007007Y-95100099D01*
X213100099Y-95007007D01*
X213165925Y-94892993D01*
X213182962Y-94829409D01*
X213751741Y-95398188D01*
X213797094Y-95333417D01*
X213797100Y-95333407D01*
X213890419Y-95133284D01*
X213890424Y-95133270D01*
X213947573Y-94919986D01*
X213947575Y-94919976D01*
X213966821Y-94700000D01*
X213966821Y-94699999D01*
X213947575Y-94480023D01*
X213947573Y-94480013D01*
X213890424Y-94266729D01*
X213890420Y-94266720D01*
X213797096Y-94066586D01*
X213751741Y-94001811D01*
X213751740Y-94001810D01*
X213182962Y-94570589D01*
X213165925Y-94507007D01*
X213100099Y-94392993D01*
X213007007Y-94299901D01*
X212892993Y-94234075D01*
X212829410Y-94217037D01*
X213398188Y-93648259D01*
X213398187Y-93648258D01*
X213333411Y-93602901D01*
X213333405Y-93602898D01*
X213133284Y-93509580D01*
X213133270Y-93509575D01*
X212919986Y-93452426D01*
X212919976Y-93452424D01*
X212700001Y-93433179D01*
X212699999Y-93433179D01*
X212480023Y-93452424D01*
X212480013Y-93452426D01*
X212266729Y-93509575D01*
X212266720Y-93509579D01*
X212066590Y-93602901D01*
X212001811Y-93648258D01*
X212570590Y-94217037D01*
X212507007Y-94234075D01*
X212392993Y-94299901D01*
X212299901Y-94392993D01*
X212234075Y-94507007D01*
X212217037Y-94570589D01*
X211648258Y-94001811D01*
X211602901Y-94066590D01*
X211509579Y-94266720D01*
X211509575Y-94266729D01*
X211452426Y-94480013D01*
X211452424Y-94480023D01*
X211433179Y-94699999D01*
X203124970Y-94699999D01*
X202384513Y-93959542D01*
X202384511Y-93959540D01*
X202363264Y-93947273D01*
X202315991Y-93919980D01*
X202315990Y-93919979D01*
X202286887Y-93912181D01*
X202239562Y-93899500D01*
X198560438Y-93899500D01*
X198522224Y-93909739D01*
X198484009Y-93919979D01*
X198484008Y-93919980D01*
X198436736Y-93947273D01*
X198415492Y-93959538D01*
X198415485Y-93959543D01*
X198371736Y-94003292D01*
X198310413Y-94036776D01*
X198240721Y-94031791D01*
X198184788Y-93989919D01*
X198160372Y-93924455D01*
X198171262Y-93864098D01*
X198185165Y-93833657D01*
X198205647Y-93691200D01*
X198185165Y-93548743D01*
X198161729Y-93497427D01*
X198151786Y-93428271D01*
X198180810Y-93364715D01*
X198207486Y-93341601D01*
X198210048Y-93339954D01*
X198210053Y-93339953D01*
X198331128Y-93262143D01*
X198425377Y-93153373D01*
X198485165Y-93022457D01*
X198505647Y-92880000D01*
X198485165Y-92737543D01*
X198425377Y-92606627D01*
X198331128Y-92497857D01*
X198210053Y-92420047D01*
X198210051Y-92420046D01*
X198210049Y-92420045D01*
X198210050Y-92420045D01*
X198071963Y-92379500D01*
X198071961Y-92379500D01*
X197928039Y-92379500D01*
X197928036Y-92379500D01*
X197789949Y-92420045D01*
X197668873Y-92497856D01*
X197574623Y-92606626D01*
X197574622Y-92606628D01*
X197514834Y-92737543D01*
X197494353Y-92880000D01*
X197514834Y-93022455D01*
X197538269Y-93073770D01*
X197548212Y-93142929D01*
X197519186Y-93206484D01*
X197492514Y-93229596D01*
X197368874Y-93309055D01*
X197368872Y-93309056D01*
X197368872Y-93309057D01*
X197358460Y-93321073D01*
X197318213Y-93367521D01*
X197259434Y-93405295D01*
X197189565Y-93405295D01*
X197130787Y-93367520D01*
X197101762Y-93303965D01*
X197100500Y-93286318D01*
X197100500Y-92547274D01*
X197100499Y-92547270D01*
X197099555Y-92543746D01*
X197095903Y-92530115D01*
X197073207Y-92445412D01*
X197020480Y-92354087D01*
X196991793Y-92325400D01*
X198761453Y-92325400D01*
X198781934Y-92467856D01*
X198836688Y-92587748D01*
X198841723Y-92598773D01*
X198935972Y-92707543D01*
X199057047Y-92785353D01*
X199057050Y-92785354D01*
X199057049Y-92785354D01*
X199126956Y-92805880D01*
X199165696Y-92817255D01*
X199195136Y-92825899D01*
X199195138Y-92825900D01*
X199195139Y-92825900D01*
X199339062Y-92825900D01*
X199339062Y-92825899D01*
X199458272Y-92790897D01*
X199477150Y-92785354D01*
X199477150Y-92785353D01*
X199477153Y-92785353D01*
X199598228Y-92707543D01*
X199692477Y-92598773D01*
X199752265Y-92467857D01*
X199772747Y-92325400D01*
X199752265Y-92182943D01*
X199692477Y-92052027D01*
X199598228Y-91943257D01*
X199477153Y-91865447D01*
X199477151Y-91865446D01*
X199477149Y-91865445D01*
X199477150Y-91865445D01*
X199339063Y-91824900D01*
X199339061Y-91824900D01*
X199195139Y-91824900D01*
X199195136Y-91824900D01*
X199057049Y-91865445D01*
X198935973Y-91943256D01*
X198841723Y-92052026D01*
X198841722Y-92052028D01*
X198781934Y-92182943D01*
X198761453Y-92325400D01*
X196991793Y-92325400D01*
X196461593Y-91795200D01*
X200487853Y-91795200D01*
X200508334Y-91937656D01*
X200560567Y-92052028D01*
X200568123Y-92068573D01*
X200662372Y-92177343D01*
X200783447Y-92255153D01*
X200783450Y-92255154D01*
X200783449Y-92255154D01*
X200921536Y-92295699D01*
X200921538Y-92295700D01*
X200921539Y-92295700D01*
X201065462Y-92295700D01*
X201065462Y-92295699D01*
X201203553Y-92255153D01*
X201324628Y-92177343D01*
X201418877Y-92068573D01*
X201478665Y-91937657D01*
X201499147Y-91795200D01*
X201478665Y-91652743D01*
X201418877Y-91521827D01*
X201324628Y-91413057D01*
X201324625Y-91413055D01*
X201317923Y-91407247D01*
X201319141Y-91405840D01*
X201280603Y-91361363D01*
X201270662Y-91292204D01*
X201299688Y-91228649D01*
X201311401Y-91218500D01*
X205638153Y-91218500D01*
X205658634Y-91360956D01*
X205690544Y-91430827D01*
X205718423Y-91491873D01*
X205812672Y-91600643D01*
X205933747Y-91678453D01*
X205933750Y-91678454D01*
X205933749Y-91678454D01*
X206071836Y-91718999D01*
X206071838Y-91719000D01*
X206071839Y-91719000D01*
X206215762Y-91719000D01*
X206215762Y-91718999D01*
X206322921Y-91687535D01*
X206353850Y-91678454D01*
X206353850Y-91678453D01*
X206353853Y-91678453D01*
X206474928Y-91600643D01*
X206569177Y-91491873D01*
X206628965Y-91360957D01*
X206649447Y-91218500D01*
X206628965Y-91076043D01*
X206569177Y-90945127D01*
X206474928Y-90836357D01*
X206353853Y-90758547D01*
X206353851Y-90758546D01*
X206353849Y-90758545D01*
X206353850Y-90758545D01*
X206215763Y-90718000D01*
X206215761Y-90718000D01*
X206071839Y-90718000D01*
X206071836Y-90718000D01*
X205933749Y-90758545D01*
X205812673Y-90836356D01*
X205718423Y-90945126D01*
X205718422Y-90945128D01*
X205658634Y-91076043D01*
X205638153Y-91218500D01*
X201311401Y-91218500D01*
X201326355Y-91205542D01*
X201347828Y-91191743D01*
X201442077Y-91082973D01*
X201501865Y-90952057D01*
X201522347Y-90809600D01*
X201501865Y-90667143D01*
X201442077Y-90536227D01*
X201347828Y-90427457D01*
X201226753Y-90349647D01*
X201226751Y-90349646D01*
X201226749Y-90349645D01*
X201226750Y-90349645D01*
X201088663Y-90309100D01*
X201088661Y-90309100D01*
X200944739Y-90309100D01*
X200944736Y-90309100D01*
X200806649Y-90349645D01*
X200685573Y-90427456D01*
X200591323Y-90536226D01*
X200591322Y-90536228D01*
X200531534Y-90667143D01*
X200511053Y-90809600D01*
X200531534Y-90952056D01*
X200574552Y-91046250D01*
X200591323Y-91082973D01*
X200685572Y-91191743D01*
X200685574Y-91191744D01*
X200692277Y-91197553D01*
X200691057Y-91198960D01*
X200729593Y-91243431D01*
X200739538Y-91312590D01*
X200710515Y-91376146D01*
X200683840Y-91399260D01*
X200662374Y-91413055D01*
X200662372Y-91413056D01*
X200662372Y-91413057D01*
X200646974Y-91430827D01*
X200568123Y-91521826D01*
X200568122Y-91521828D01*
X200508334Y-91652743D01*
X200487853Y-91795200D01*
X196461593Y-91795200D01*
X195325868Y-90659475D01*
X195292383Y-90598152D01*
X195297367Y-90528460D01*
X195339239Y-90472527D01*
X195404703Y-90448110D01*
X195435405Y-90451411D01*
X195435560Y-90450338D01*
X195444338Y-90451600D01*
X195444339Y-90451600D01*
X195588262Y-90451600D01*
X195588262Y-90451599D01*
X195726353Y-90411053D01*
X195847428Y-90333243D01*
X195941677Y-90224473D01*
X196001465Y-90093557D01*
X196001465Y-90093553D01*
X196003965Y-90085044D01*
X196006056Y-90085658D01*
X196030025Y-90033154D01*
X196088797Y-89995370D01*
X196158667Y-89995359D01*
X196217449Y-90033123D01*
X196260272Y-90082543D01*
X196381347Y-90160353D01*
X196381350Y-90160354D01*
X196381349Y-90160354D01*
X196519436Y-90200899D01*
X196519438Y-90200900D01*
X196519439Y-90200900D01*
X196663362Y-90200900D01*
X196663362Y-90200899D01*
X196801453Y-90160353D01*
X196922528Y-90082543D01*
X197016777Y-89973773D01*
X197076565Y-89842857D01*
X197097047Y-89700400D01*
X197076565Y-89557943D01*
X197016777Y-89427027D01*
X196922528Y-89318257D01*
X196922525Y-89318255D01*
X196922525Y-89318254D01*
X196884934Y-89294097D01*
X196839178Y-89241294D01*
X196829234Y-89172135D01*
X196858258Y-89108579D01*
X196864277Y-89102114D01*
X198374355Y-87592036D01*
X198435676Y-87558553D01*
X198505368Y-87563537D01*
X198561301Y-87605409D01*
X198584772Y-87662072D01*
X198594884Y-87732406D01*
X198649469Y-87851928D01*
X198654673Y-87863323D01*
X198748922Y-87972093D01*
X198869997Y-88049903D01*
X198870000Y-88049904D01*
X198869999Y-88049904D01*
X199008086Y-88090449D01*
X199008088Y-88090450D01*
X199008089Y-88090450D01*
X199152012Y-88090450D01*
X199152012Y-88090449D01*
X199261754Y-88058227D01*
X199290100Y-88049904D01*
X199290100Y-88049903D01*
X199290103Y-88049903D01*
X199411178Y-87972093D01*
X199505427Y-87863323D01*
X199565215Y-87732407D01*
X199585697Y-87589950D01*
X199565215Y-87447493D01*
X199505427Y-87316577D01*
X199411178Y-87207807D01*
X199290103Y-87129997D01*
X199290101Y-87129996D01*
X199290099Y-87129995D01*
X199290100Y-87129995D01*
X199152013Y-87089450D01*
X199152011Y-87089450D01*
X199150227Y-87089450D01*
X199148514Y-87088947D01*
X199143234Y-87088188D01*
X199143343Y-87087428D01*
X199083188Y-87069765D01*
X199037433Y-87016961D01*
X199027489Y-86947803D01*
X199042840Y-86903450D01*
X199068107Y-86859687D01*
X199095401Y-86757827D01*
X199095401Y-86652373D01*
X199095401Y-86644778D01*
X199095400Y-86644760D01*
X199095400Y-86555332D01*
X199115085Y-86488293D01*
X199115801Y-86487336D01*
X199120268Y-86480382D01*
X199120277Y-86480373D01*
X199180065Y-86349457D01*
X199200547Y-86207000D01*
X199180065Y-86064543D01*
X199120277Y-85933627D01*
X199026028Y-85824857D01*
X198904953Y-85747047D01*
X198904951Y-85747046D01*
X198904949Y-85747045D01*
X198904950Y-85747045D01*
X198766863Y-85706500D01*
X198766861Y-85706500D01*
X198622939Y-85706500D01*
X198622936Y-85706500D01*
X198484849Y-85747045D01*
X198363773Y-85824856D01*
X198269523Y-85933626D01*
X198269522Y-85933628D01*
X198209734Y-86064543D01*
X198189253Y-86207000D01*
X198209734Y-86349454D01*
X198260002Y-86459526D01*
X198269945Y-86528684D01*
X198240920Y-86592240D01*
X198234888Y-86598718D01*
X196270426Y-88563181D01*
X196209103Y-88596666D01*
X196182745Y-88599500D01*
X196051282Y-88599500D01*
X195984243Y-88579815D01*
X195938488Y-88527011D01*
X195928544Y-88457853D01*
X195951439Y-88407713D01*
X195948982Y-88406134D01*
X195953772Y-88398678D01*
X195953777Y-88398673D01*
X196013565Y-88267757D01*
X196034047Y-88125300D01*
X196013565Y-87982843D01*
X195953777Y-87851927D01*
X195859528Y-87743157D01*
X195738453Y-87665347D01*
X195738451Y-87665346D01*
X195738449Y-87665345D01*
X195738450Y-87665345D01*
X195600363Y-87624800D01*
X195600361Y-87624800D01*
X195456439Y-87624800D01*
X195456436Y-87624800D01*
X195318349Y-87665345D01*
X195197273Y-87743156D01*
X195197272Y-87743156D01*
X195197272Y-87743157D01*
X195187247Y-87754727D01*
X195103023Y-87851926D01*
X195103022Y-87851928D01*
X195043234Y-87982843D01*
X195022753Y-88125300D01*
X195043234Y-88267756D01*
X195101449Y-88395226D01*
X195103023Y-88398673D01*
X195138873Y-88440047D01*
X195140560Y-88441993D01*
X195169585Y-88505549D01*
X195159641Y-88574708D01*
X195113886Y-88627512D01*
X195108848Y-88630582D01*
X195024086Y-88679520D01*
X194140426Y-89563181D01*
X194079103Y-89596666D01*
X194052745Y-89599500D01*
X193481844Y-89599500D01*
X193414805Y-89579815D01*
X193369050Y-89527011D01*
X193359106Y-89457853D01*
X193369050Y-89423989D01*
X193392772Y-89372044D01*
X193402265Y-89351257D01*
X193417017Y-89248652D01*
X193446042Y-89185098D01*
X193504820Y-89147323D01*
X193539755Y-89142300D01*
X193556062Y-89142300D01*
X193556062Y-89142299D01*
X193670906Y-89108579D01*
X193694150Y-89101754D01*
X193694150Y-89101753D01*
X193694153Y-89101753D01*
X193815228Y-89023943D01*
X193909477Y-88915173D01*
X193969265Y-88784257D01*
X193989747Y-88641800D01*
X193989747Y-88641799D01*
X193989747Y-88632931D01*
X193992919Y-88632931D01*
X194000620Y-88579254D01*
X194046359Y-88526436D01*
X194113392Y-88506731D01*
X194148364Y-88511754D01*
X194196549Y-88525901D01*
X194203542Y-88527955D01*
X194205736Y-88528599D01*
X194205738Y-88528600D01*
X194205739Y-88528600D01*
X194349662Y-88528600D01*
X194349662Y-88528599D01*
X194487753Y-88488053D01*
X194608828Y-88410243D01*
X194703077Y-88301473D01*
X194762865Y-88170557D01*
X194783347Y-88028100D01*
X194762865Y-87885643D01*
X194703077Y-87754727D01*
X194608828Y-87645957D01*
X194487753Y-87568147D01*
X194487751Y-87568146D01*
X194487749Y-87568145D01*
X194487750Y-87568145D01*
X194349663Y-87527600D01*
X194349661Y-87527600D01*
X194253533Y-87527600D01*
X194186494Y-87507915D01*
X194165852Y-87491281D01*
X194036819Y-87362248D01*
X194003334Y-87300925D01*
X194000500Y-87274567D01*
X194000500Y-85213369D01*
X194020185Y-85146330D01*
X194072989Y-85100575D01*
X194142147Y-85090631D01*
X194159434Y-85094392D01*
X194255448Y-85122583D01*
X194271416Y-85127272D01*
X194275936Y-85128599D01*
X194275938Y-85128600D01*
X194393454Y-85128600D01*
X194455454Y-85145212D01*
X194487511Y-85163721D01*
X194563938Y-85184200D01*
X196876599Y-85184200D01*
X196943638Y-85203885D01*
X196970311Y-85226996D01*
X197003972Y-85265843D01*
X197125047Y-85343653D01*
X197125050Y-85343654D01*
X197125049Y-85343654D01*
X197200790Y-85365893D01*
X197256133Y-85382143D01*
X197263136Y-85384199D01*
X197263138Y-85384200D01*
X197263139Y-85384200D01*
X197407062Y-85384200D01*
X197407062Y-85384199D01*
X197545153Y-85343653D01*
X197666228Y-85265843D01*
X197760477Y-85157073D01*
X197820265Y-85026157D01*
X197840747Y-84883700D01*
X197820265Y-84741243D01*
X197760477Y-84610327D01*
X197760475Y-84610325D01*
X197760474Y-84610322D01*
X197733768Y-84579502D01*
X197704743Y-84515946D01*
X197714687Y-84446788D01*
X197760442Y-84393984D01*
X197827481Y-84374300D01*
X198090977Y-84374300D01*
X198158016Y-84393985D01*
X198203771Y-84446789D01*
X198213715Y-84515947D01*
X198203771Y-84549812D01*
X198150734Y-84665943D01*
X198130253Y-84808400D01*
X198150734Y-84950856D01*
X198193917Y-85045411D01*
X198210523Y-85081773D01*
X198304772Y-85190543D01*
X198425847Y-85268353D01*
X198425850Y-85268354D01*
X198425849Y-85268354D01*
X198563936Y-85308899D01*
X198563938Y-85308900D01*
X198563939Y-85308900D01*
X198707862Y-85308900D01*
X198707862Y-85308899D01*
X198845953Y-85268353D01*
X198967028Y-85190543D01*
X199061277Y-85081773D01*
X199072965Y-85056181D01*
X199118720Y-85003377D01*
X199185759Y-84983692D01*
X199252798Y-85003377D01*
X199273440Y-85020011D01*
X204008981Y-89755552D01*
X204042466Y-89816875D01*
X204045300Y-89843233D01*
X204045300Y-90197060D01*
X204025615Y-90264099D01*
X204015013Y-90278262D01*
X203920425Y-90387422D01*
X203920422Y-90387428D01*
X203860634Y-90518343D01*
X203840153Y-90660800D01*
X203860634Y-90803256D01*
X203914236Y-90920625D01*
X203920423Y-90934173D01*
X204014672Y-91042943D01*
X204135747Y-91120753D01*
X204135750Y-91120754D01*
X204135749Y-91120754D01*
X204273836Y-91161299D01*
X204273838Y-91161300D01*
X204273839Y-91161300D01*
X204417762Y-91161300D01*
X204417762Y-91161299D01*
X204555853Y-91120753D01*
X204676928Y-91042943D01*
X204771177Y-90934173D01*
X204830965Y-90803257D01*
X204851447Y-90660800D01*
X204830965Y-90518343D01*
X204771177Y-90387427D01*
X204771175Y-90387425D01*
X204771174Y-90387422D01*
X204676587Y-90278262D01*
X204647562Y-90214706D01*
X204646300Y-90197060D01*
X204646300Y-89627839D01*
X204644738Y-89622008D01*
X204625821Y-89551411D01*
X204613487Y-89530047D01*
X204586264Y-89482895D01*
X204586258Y-89482887D01*
X204530311Y-89426940D01*
X200250642Y-85147270D01*
X208799500Y-85147270D01*
X208799500Y-85147273D01*
X208799500Y-86947273D01*
X208799500Y-87052727D01*
X208813146Y-87103657D01*
X208826793Y-87154589D01*
X208847485Y-87190428D01*
X208879520Y-87245913D01*
X208879522Y-87245915D01*
X209563181Y-87929574D01*
X209596666Y-87990897D01*
X209599500Y-88017255D01*
X209599500Y-89407273D01*
X209599500Y-89512727D01*
X209602792Y-89525012D01*
X209626793Y-89614589D01*
X209639951Y-89637378D01*
X209679520Y-89705913D01*
X210732154Y-90758547D01*
X211743907Y-91770299D01*
X211777392Y-91831622D01*
X211774887Y-91893973D01*
X211751427Y-91971314D01*
X211751426Y-91971316D01*
X211732843Y-92160000D01*
X211751426Y-92348681D01*
X211751427Y-92348683D01*
X211806463Y-92530115D01*
X211806464Y-92530116D01*
X211806466Y-92530122D01*
X211895834Y-92697318D01*
X211895838Y-92697325D01*
X212016116Y-92843883D01*
X212162674Y-92964161D01*
X212162681Y-92964165D01*
X212329877Y-93053533D01*
X212329878Y-93053533D01*
X212329885Y-93053537D01*
X212511317Y-93108573D01*
X212511316Y-93108573D01*
X212528233Y-93110239D01*
X212700000Y-93127157D01*
X212888683Y-93108573D01*
X213070115Y-93053537D01*
X213237324Y-92964162D01*
X213383883Y-92843883D01*
X213504162Y-92697324D01*
X213593537Y-92530115D01*
X213648573Y-92348683D01*
X213667157Y-92160000D01*
X213648573Y-91971317D01*
X213593537Y-91789885D01*
X213592622Y-91788173D01*
X213504165Y-91622681D01*
X213504161Y-91622674D01*
X213383883Y-91476116D01*
X213237325Y-91355838D01*
X213237318Y-91355834D01*
X213070122Y-91266466D01*
X213070119Y-91266465D01*
X213070118Y-91266464D01*
X213070115Y-91266463D01*
X212888683Y-91211427D01*
X212888681Y-91211426D01*
X212888683Y-91211426D01*
X212700000Y-91192843D01*
X212511316Y-91211426D01*
X212511314Y-91211427D01*
X212433973Y-91234887D01*
X212364106Y-91235510D01*
X212310299Y-91203907D01*
X211228087Y-90121694D01*
X211194602Y-90060371D01*
X211199586Y-89990679D01*
X211241458Y-89934746D01*
X211306922Y-89910329D01*
X211327916Y-89910609D01*
X211425000Y-89920172D01*
X211614271Y-89901530D01*
X211796269Y-89846322D01*
X211963999Y-89756669D01*
X212111015Y-89636015D01*
X212231669Y-89488999D01*
X212321322Y-89321269D01*
X212376530Y-89139271D01*
X212395172Y-88950000D01*
X212376530Y-88760729D01*
X212321322Y-88578731D01*
X212231669Y-88411001D01*
X212194976Y-88366291D01*
X212111015Y-88263984D01*
X211984410Y-88160082D01*
X211963999Y-88143331D01*
X211796269Y-88053678D01*
X211614271Y-87998470D01*
X211614269Y-87998469D01*
X211614271Y-87998469D01*
X211425000Y-87979828D01*
X211235730Y-87998469D01*
X211053731Y-88053678D01*
X210885999Y-88143332D01*
X210738984Y-88263984D01*
X210620353Y-88408536D01*
X210562607Y-88447870D01*
X210492762Y-88449741D01*
X210432994Y-88413553D01*
X210402278Y-88350797D01*
X210400500Y-88329871D01*
X210400500Y-87747276D01*
X210400499Y-87747269D01*
X210390746Y-87710871D01*
X210383820Y-87685020D01*
X210373207Y-87645412D01*
X210320480Y-87554087D01*
X209636819Y-86870426D01*
X209603334Y-86809103D01*
X209600500Y-86782745D01*
X209600500Y-85417255D01*
X209620185Y-85350216D01*
X209636819Y-85329574D01*
X210173946Y-84792447D01*
X210720480Y-84245913D01*
X210773207Y-84154588D01*
X210800500Y-84052727D01*
X210800500Y-83947273D01*
X210800500Y-83447273D01*
X210773207Y-83345413D01*
X210720480Y-83254087D01*
X210645913Y-83179520D01*
X210224629Y-82758236D01*
X210191144Y-82696913D01*
X210189572Y-82688198D01*
X210185165Y-82657546D01*
X210185164Y-82657540D01*
X210139496Y-82557543D01*
X210125377Y-82526627D01*
X210031128Y-82417857D01*
X209910053Y-82340047D01*
X209910051Y-82340046D01*
X209910049Y-82340045D01*
X209910050Y-82340045D01*
X209771963Y-82299500D01*
X209771961Y-82299500D01*
X209628039Y-82299500D01*
X209628036Y-82299500D01*
X209489949Y-82340045D01*
X209368873Y-82417856D01*
X209274623Y-82526626D01*
X209274622Y-82526628D01*
X209214834Y-82657543D01*
X209194353Y-82800000D01*
X209214834Y-82942456D01*
X209271256Y-83066000D01*
X209274623Y-83073373D01*
X209368872Y-83182143D01*
X209489947Y-83259953D01*
X209489950Y-83259954D01*
X209489949Y-83259954D01*
X209606262Y-83294106D01*
X209659009Y-83325402D01*
X209963181Y-83629574D01*
X209996666Y-83690897D01*
X209999500Y-83717255D01*
X209999500Y-83782745D01*
X209979815Y-83849784D01*
X209963181Y-83870426D01*
X208879522Y-84954084D01*
X208879520Y-84954087D01*
X208826793Y-85045411D01*
X208819003Y-85074484D01*
X208804504Y-85128599D01*
X208804503Y-85128601D01*
X208799500Y-85147270D01*
X200250642Y-85147270D01*
X198936714Y-83833342D01*
X198936709Y-83833338D01*
X198934642Y-83832144D01*
X198934642Y-83832145D01*
X198868189Y-83793779D01*
X198868190Y-83793779D01*
X198827010Y-83782745D01*
X198791762Y-83773300D01*
X198791760Y-83773300D01*
X198003121Y-83773300D01*
X197936082Y-83753615D01*
X197890327Y-83700811D01*
X197880383Y-83631653D01*
X197890326Y-83597789D01*
X197892761Y-83592457D01*
X197909065Y-83556757D01*
X197924414Y-83450000D01*
X206694353Y-83450000D01*
X206714834Y-83592456D01*
X206764319Y-83700811D01*
X206774623Y-83723373D01*
X206868872Y-83832143D01*
X206989947Y-83909953D01*
X206989950Y-83909954D01*
X206989949Y-83909954D01*
X207128036Y-83950499D01*
X207128038Y-83950500D01*
X207128039Y-83950500D01*
X207271962Y-83950500D01*
X207271962Y-83950499D01*
X207410053Y-83909953D01*
X207531128Y-83832143D01*
X207625377Y-83723373D01*
X207685165Y-83592457D01*
X207705647Y-83450000D01*
X207685165Y-83307543D01*
X207625377Y-83176627D01*
X207531128Y-83067857D01*
X207410053Y-82990047D01*
X207410051Y-82990046D01*
X207410049Y-82990045D01*
X207410050Y-82990045D01*
X207271963Y-82949500D01*
X207271961Y-82949500D01*
X207128039Y-82949500D01*
X207128036Y-82949500D01*
X206989949Y-82990045D01*
X206868873Y-83067856D01*
X206774623Y-83176626D01*
X206774622Y-83176628D01*
X206714834Y-83307543D01*
X206694353Y-83450000D01*
X197924414Y-83450000D01*
X197929547Y-83414300D01*
X197909065Y-83271843D01*
X197849277Y-83140927D01*
X197755028Y-83032157D01*
X197633953Y-82954347D01*
X197633951Y-82954346D01*
X197633949Y-82954345D01*
X197633950Y-82954345D01*
X197495863Y-82913800D01*
X197495861Y-82913800D01*
X197351939Y-82913800D01*
X197351936Y-82913800D01*
X197213849Y-82954345D01*
X197092773Y-83032156D01*
X196998523Y-83140926D01*
X196998522Y-83140928D01*
X196938734Y-83271843D01*
X196918253Y-83414300D01*
X196938734Y-83556754D01*
X196938734Y-83556755D01*
X196938735Y-83556757D01*
X196955039Y-83592457D01*
X196957474Y-83597789D01*
X196967417Y-83666948D01*
X196938392Y-83730503D01*
X196879613Y-83768277D01*
X196844679Y-83773300D01*
X195813201Y-83773300D01*
X195746162Y-83753615D01*
X195719488Y-83730503D01*
X195685828Y-83691657D01*
X195564753Y-83613847D01*
X195564751Y-83613846D01*
X195564749Y-83613845D01*
X195564750Y-83613845D01*
X195426663Y-83573300D01*
X195426661Y-83573300D01*
X195282739Y-83573300D01*
X195282736Y-83573300D01*
X195144649Y-83613845D01*
X195023573Y-83691656D01*
X194929323Y-83800426D01*
X194929322Y-83800428D01*
X194869534Y-83931343D01*
X194849053Y-84073800D01*
X194849053Y-84073802D01*
X194854993Y-84115120D01*
X194845049Y-84184278D01*
X194799293Y-84237081D01*
X194732253Y-84256765D01*
X194665216Y-84237080D01*
X194557955Y-84168147D01*
X194557950Y-84168145D01*
X194419863Y-84127600D01*
X194419861Y-84127600D01*
X194275939Y-84127600D01*
X194275935Y-84127600D01*
X194159434Y-84161807D01*
X194089564Y-84161807D01*
X194030786Y-84124032D01*
X194001762Y-84060476D01*
X194000500Y-84042830D01*
X194000500Y-82760439D01*
X193983478Y-82696913D01*
X193980021Y-82684011D01*
X193964738Y-82657540D01*
X193940464Y-82615495D01*
X193940458Y-82615487D01*
X193853470Y-82528499D01*
X193819985Y-82467176D01*
X193824969Y-82397484D01*
X193866841Y-82341551D01*
X193906211Y-82321843D01*
X194010053Y-82291353D01*
X194131128Y-82213543D01*
X194164788Y-82174696D01*
X194223567Y-82136923D01*
X194258501Y-82131900D01*
X199867960Y-82131900D01*
X199867962Y-82131900D01*
X199944389Y-82111421D01*
X200012911Y-82071860D01*
X200068860Y-82015911D01*
X200924771Y-81160000D01*
X202694353Y-81160000D01*
X202714834Y-81302456D01*
X202766458Y-81415495D01*
X202774623Y-81433373D01*
X202868872Y-81542143D01*
X202989947Y-81619953D01*
X202989950Y-81619954D01*
X202989949Y-81619954D01*
X203128036Y-81660499D01*
X203128038Y-81660500D01*
X203128039Y-81660500D01*
X203271962Y-81660500D01*
X203271962Y-81660499D01*
X203410053Y-81619953D01*
X203531128Y-81542143D01*
X203625377Y-81433373D01*
X203685165Y-81302457D01*
X203705647Y-81160000D01*
X203685165Y-81017543D01*
X203625377Y-80886627D01*
X203531128Y-80777857D01*
X203410053Y-80700047D01*
X203410051Y-80700046D01*
X203410049Y-80700045D01*
X203410050Y-80700045D01*
X203271963Y-80659500D01*
X203271961Y-80659500D01*
X203128039Y-80659500D01*
X203128036Y-80659500D01*
X202989949Y-80700045D01*
X202868873Y-80777856D01*
X202774623Y-80886626D01*
X202774622Y-80886628D01*
X202714834Y-81017543D01*
X202694353Y-81160000D01*
X200924771Y-81160000D01*
X203147952Y-78936819D01*
X203209275Y-78903334D01*
X203235633Y-78900500D01*
X207439560Y-78900500D01*
X207439562Y-78900500D01*
X207515989Y-78880021D01*
X207584511Y-78840460D01*
X207640460Y-78784511D01*
X208540460Y-77884511D01*
X208573266Y-77827689D01*
X208580021Y-77815989D01*
X208600500Y-77739562D01*
X208600500Y-77734500D01*
X208620185Y-77667461D01*
X208672989Y-77621706D01*
X208724500Y-77610500D01*
X209319750Y-77610500D01*
X209319751Y-77610499D01*
X209334568Y-77607552D01*
X209378229Y-77598868D01*
X209378229Y-77598867D01*
X209378231Y-77598867D01*
X209444552Y-77554552D01*
X209466898Y-77521108D01*
X209520510Y-77476304D01*
X209589834Y-77467597D01*
X209652862Y-77497751D01*
X209673100Y-77521106D01*
X209695448Y-77554552D01*
X209761769Y-77598867D01*
X209761770Y-77598868D01*
X209820247Y-77610499D01*
X209820250Y-77610500D01*
X209820252Y-77610500D01*
X211859750Y-77610500D01*
X211859751Y-77610499D01*
X211874568Y-77607552D01*
X211918229Y-77598868D01*
X211918229Y-77598867D01*
X211918231Y-77598867D01*
X211984552Y-77554552D01*
X212006898Y-77521108D01*
X212060510Y-77476304D01*
X212129834Y-77467597D01*
X212192862Y-77497751D01*
X212213100Y-77521106D01*
X212235448Y-77554552D01*
X212301769Y-77598867D01*
X212301770Y-77598868D01*
X212360247Y-77610499D01*
X212360250Y-77610500D01*
X212360252Y-77610500D01*
X214399750Y-77610500D01*
X214399751Y-77610499D01*
X214414568Y-77607552D01*
X214458229Y-77598868D01*
X214458229Y-77598867D01*
X214458231Y-77598867D01*
X214524552Y-77554552D01*
X214546898Y-77521108D01*
X214600510Y-77476304D01*
X214669834Y-77467597D01*
X214732862Y-77497751D01*
X214753100Y-77521106D01*
X214775448Y-77554552D01*
X214841769Y-77598867D01*
X214841770Y-77598868D01*
X214900247Y-77610499D01*
X214900250Y-77610500D01*
X214900252Y-77610500D01*
X216939750Y-77610500D01*
X216939751Y-77610499D01*
X216954568Y-77607552D01*
X216998229Y-77598868D01*
X216998229Y-77598867D01*
X216998231Y-77598867D01*
X217064552Y-77554552D01*
X217108867Y-77488231D01*
X217108867Y-77488229D01*
X217108868Y-77488229D01*
X217120499Y-77429752D01*
X217120500Y-77429750D01*
X217120500Y-74284746D01*
X217140185Y-74217707D01*
X217192989Y-74171952D01*
X217244472Y-74160746D01*
X218432181Y-74160500D01*
X218441065Y-74160819D01*
G37*
%TD.AperFunction*%
%TA.AperFunction,Conductor*%
G36*
X195830000Y-126369189D02*
G01*
X195810315Y-126436228D01*
X195757511Y-126481983D01*
X195705966Y-126493189D01*
X195453966Y-126493119D01*
X195386932Y-126473416D01*
X195341191Y-126420599D01*
X195330000Y-126369119D01*
X195330000Y-124893012D01*
X195387007Y-124925925D01*
X195514174Y-124960000D01*
X195645826Y-124960000D01*
X195772993Y-124925925D01*
X195830000Y-124893012D01*
X195830000Y-126369189D01*
G37*
%TD.AperFunction*%
%TA.AperFunction,Conductor*%
G36*
X193290000Y-126368484D02*
G01*
X193270315Y-126435523D01*
X193217511Y-126481278D01*
X193165966Y-126492484D01*
X192913966Y-126492414D01*
X192846932Y-126472711D01*
X192801191Y-126419894D01*
X192790000Y-126368414D01*
X192790000Y-124893012D01*
X192847007Y-124925925D01*
X192974174Y-124960000D01*
X193105826Y-124960000D01*
X193232993Y-124925925D01*
X193290000Y-124893012D01*
X193290000Y-126368484D01*
G37*
%TD.AperFunction*%
%TA.AperFunction,Conductor*%
G36*
X195114075Y-124267007D02*
G01*
X195080000Y-124394174D01*
X195080000Y-124525826D01*
X195114075Y-124652993D01*
X195146988Y-124710000D01*
X193473012Y-124710000D01*
X193505925Y-124652993D01*
X193540000Y-124525826D01*
X193540000Y-124394174D01*
X193505925Y-124267007D01*
X193473012Y-124210000D01*
X195146988Y-124210000D01*
X195114075Y-124267007D01*
G37*
%TD.AperFunction*%
%TA.AperFunction,Conductor*%
G36*
X220422539Y-98829685D02*
G01*
X220468294Y-98882489D01*
X220479500Y-98934000D01*
X220479500Y-99186000D01*
X220459815Y-99253039D01*
X220407011Y-99298794D01*
X220355500Y-99310000D01*
X218883012Y-99310000D01*
X218915925Y-99252993D01*
X218950000Y-99125826D01*
X218950000Y-98994174D01*
X218915925Y-98867007D01*
X218883012Y-98810000D01*
X220355500Y-98810000D01*
X220422539Y-98829685D01*
G37*
%TD.AperFunction*%
%TA.AperFunction,Conductor*%
G36*
X196952862Y-77497751D02*
G01*
X196973100Y-77521106D01*
X196995448Y-77554552D01*
X197061769Y-77598867D01*
X197061770Y-77598868D01*
X197120247Y-77610499D01*
X197120250Y-77610500D01*
X197120252Y-77610500D01*
X197715500Y-77610500D01*
X197782539Y-77630185D01*
X197828294Y-77682989D01*
X197839500Y-77734500D01*
X197839500Y-77884167D01*
X197819815Y-77951206D01*
X197803181Y-77971848D01*
X197711848Y-78063181D01*
X197650525Y-78096666D01*
X197624167Y-78099500D01*
X196260438Y-78099500D01*
X196222224Y-78109739D01*
X196184009Y-78119979D01*
X196184004Y-78119982D01*
X196115495Y-78159535D01*
X196115487Y-78159541D01*
X192859541Y-81415487D01*
X192859535Y-81415495D01*
X192819982Y-81484004D01*
X192819979Y-81484009D01*
X192799500Y-81560439D01*
X192799500Y-81806867D01*
X192779815Y-81873906D01*
X192727011Y-81919661D01*
X192657853Y-81929605D01*
X192594297Y-81900580D01*
X192587819Y-81894548D01*
X188515452Y-77822181D01*
X188481967Y-77760858D01*
X188486951Y-77691166D01*
X188528823Y-77635233D01*
X188594287Y-77610816D01*
X188603133Y-77610500D01*
X188999750Y-77610500D01*
X188999751Y-77610499D01*
X189014568Y-77607552D01*
X189058229Y-77598868D01*
X189058229Y-77598867D01*
X189058231Y-77598867D01*
X189124552Y-77554552D01*
X189146898Y-77521108D01*
X189200510Y-77476304D01*
X189269834Y-77467597D01*
X189332862Y-77497751D01*
X189353100Y-77521106D01*
X189375448Y-77554552D01*
X189441769Y-77598867D01*
X189441770Y-77598868D01*
X189500247Y-77610499D01*
X189500250Y-77610500D01*
X189500252Y-77610500D01*
X191539750Y-77610500D01*
X191539751Y-77610499D01*
X191554568Y-77607552D01*
X191598229Y-77598868D01*
X191598229Y-77598867D01*
X191598231Y-77598867D01*
X191664552Y-77554552D01*
X191686898Y-77521108D01*
X191740510Y-77476304D01*
X191809834Y-77467597D01*
X191872862Y-77497751D01*
X191893100Y-77521106D01*
X191915448Y-77554552D01*
X191981769Y-77598867D01*
X191981770Y-77598868D01*
X192040247Y-77610499D01*
X192040250Y-77610500D01*
X192040252Y-77610500D01*
X194079750Y-77610500D01*
X194079751Y-77610499D01*
X194094568Y-77607552D01*
X194138229Y-77598868D01*
X194138229Y-77598867D01*
X194138231Y-77598867D01*
X194204552Y-77554552D01*
X194226898Y-77521108D01*
X194280510Y-77476304D01*
X194349834Y-77467597D01*
X194412862Y-77497751D01*
X194433100Y-77521106D01*
X194455448Y-77554552D01*
X194521769Y-77598867D01*
X194521770Y-77598868D01*
X194580247Y-77610499D01*
X194580250Y-77610500D01*
X194580252Y-77610500D01*
X196619750Y-77610500D01*
X196619751Y-77610499D01*
X196634568Y-77607552D01*
X196678229Y-77598868D01*
X196678229Y-77598867D01*
X196678231Y-77598867D01*
X196744552Y-77554552D01*
X196766898Y-77521108D01*
X196820510Y-77476304D01*
X196889834Y-77467597D01*
X196952862Y-77497751D01*
G37*
%TD.AperFunction*%
%TA.AperFunction,Conductor*%
G36*
X178013018Y-74188553D02*
G01*
X178058784Y-74241348D01*
X178070000Y-74292883D01*
X178070000Y-75706988D01*
X178012993Y-75674075D01*
X177885826Y-75640000D01*
X177754174Y-75640000D01*
X177627007Y-75674075D01*
X177570000Y-75706988D01*
X177570000Y-74292936D01*
X177589685Y-74225897D01*
X177642489Y-74180142D01*
X177693971Y-74168936D01*
X177945978Y-74168884D01*
X178013018Y-74188553D01*
G37*
%TD.AperFunction*%
%TA.AperFunction,Conductor*%
G36*
X158248231Y-74430962D02*
G01*
X158287680Y-74488629D01*
X158289690Y-74558470D01*
X158253621Y-74618310D01*
X158238648Y-74630073D01*
X158057851Y-74750878D01*
X158029390Y-74775837D01*
X158459301Y-75205748D01*
X158357670Y-75279588D01*
X158179588Y-75457670D01*
X158105748Y-75559301D01*
X157675837Y-75129390D01*
X157650878Y-75157851D01*
X157505806Y-75374965D01*
X157452193Y-75419770D01*
X157382868Y-75428477D01*
X157319841Y-75398322D01*
X157283122Y-75338879D01*
X157284370Y-75269020D01*
X157291845Y-75250520D01*
X157330708Y-75172993D01*
X157338818Y-75159138D01*
X157475593Y-74956821D01*
X157485423Y-74944139D01*
X157647225Y-74761234D01*
X157658631Y-74749913D01*
X157842743Y-74589492D01*
X157855519Y-74579743D01*
X158058838Y-74444504D01*
X158072768Y-74436491D01*
X158115024Y-74415704D01*
X158183867Y-74403776D01*
X158248231Y-74430962D01*
G37*
%TD.AperFunction*%
%TD*%
D24*
X203200000Y-81160000D03*
X194540000Y-96460000D03*
X192600000Y-90880000D03*
X190500000Y-88900000D03*
X194600000Y-94000000D03*
X169500000Y-121500000D03*
X163600000Y-124100000D03*
X202900000Y-83400000D03*
X159200000Y-122300000D03*
X178000000Y-87700000D03*
X196600000Y-100300000D03*
X199800000Y-99700000D03*
X160300000Y-113500000D03*
X202700000Y-119300000D03*
X190000000Y-78500000D03*
X167700000Y-75600000D03*
X161500000Y-115100000D03*
X183700000Y-120100000D03*
X200400000Y-110800000D03*
X163600000Y-122300000D03*
X202500000Y-108100000D03*
X158200000Y-116900000D03*
X178800000Y-89900000D03*
X158200000Y-126100000D03*
X175600000Y-88100000D03*
X194900000Y-82700000D03*
X179100000Y-91500000D03*
X166500000Y-114600000D03*
X158200000Y-119000000D03*
X188900000Y-86200000D03*
X207800000Y-119500000D03*
X164600000Y-113500000D03*
X209100000Y-83500000D03*
X163600000Y-126100000D03*
X158200000Y-122300000D03*
X165000000Y-116200000D03*
X218700000Y-83700000D03*
X177800000Y-85400000D03*
X161500000Y-113600000D03*
X163300000Y-117800000D03*
X161400000Y-120600000D03*
X182200000Y-81900000D03*
X159200000Y-119000000D03*
X201000000Y-115800000D03*
X163800000Y-114300000D03*
X210200000Y-92200000D03*
X165830000Y-118955000D03*
X162200000Y-115900000D03*
X165700000Y-115400000D03*
X161500000Y-116700000D03*
X161400000Y-119000000D03*
X166300000Y-112000000D03*
X209000000Y-88500000D03*
X158200000Y-113500000D03*
X188200000Y-98900000D03*
X192700000Y-80900000D03*
X165900000Y-117300000D03*
X180900000Y-98100000D03*
X161400000Y-126100000D03*
X163000000Y-115100000D03*
X179000000Y-87800000D03*
X167700000Y-120600000D03*
X201700000Y-92400000D03*
X167400000Y-113800000D03*
X159200000Y-113500000D03*
X214500000Y-120600000D03*
X163600000Y-120600000D03*
X180400000Y-80600000D03*
X161400000Y-122300000D03*
X174300000Y-122600000D03*
X162500000Y-118700000D03*
X167700000Y-119000000D03*
X206700000Y-97800000D03*
X211600000Y-80000000D03*
X217800000Y-88100000D03*
X158200000Y-124100000D03*
X207200000Y-90900000D03*
X160300000Y-119000000D03*
X164100000Y-117000000D03*
X202700000Y-113300000D03*
X161400000Y-124100000D03*
X160300000Y-116900000D03*
X209300000Y-96200000D03*
X206900000Y-94500000D03*
X203600000Y-116500000D03*
X165400000Y-112700000D03*
X190600000Y-111600000D03*
X167300000Y-111400000D03*
X162300000Y-74800000D03*
X159200000Y-116900000D03*
X214300000Y-103500000D03*
X160300000Y-122300000D03*
X165800000Y-120600000D03*
X167700000Y-117300000D03*
X187400000Y-101600000D03*
X197935600Y-105173300D03*
X197100000Y-94400000D03*
X190089700Y-81135100D03*
X198694900Y-86207000D03*
X184754100Y-88668600D03*
X191076800Y-91514800D03*
X205349200Y-97975000D03*
X184298100Y-90310200D03*
X192422900Y-88001000D03*
X174300000Y-94000000D03*
X197423900Y-83414300D03*
X200020200Y-95397200D03*
X194372000Y-101767600D03*
X193551200Y-99685700D03*
X192700000Y-97300000D03*
X198738100Y-97828600D03*
X191832700Y-95555300D03*
X194500000Y-92900000D03*
X194705700Y-100796000D03*
X194277700Y-88028100D03*
X193502700Y-98733300D03*
X199595150Y-122295150D03*
X198000000Y-92880000D03*
X191800000Y-93200000D03*
X208200000Y-96200000D03*
X175700000Y-82700000D03*
X186043100Y-88895900D03*
X190240000Y-85000000D03*
X189180000Y-89990000D03*
X188800000Y-84600000D03*
X198635900Y-84808400D03*
X197700000Y-93691200D03*
X199348700Y-96594300D03*
X190700000Y-102900000D03*
X196591400Y-89700400D03*
X192493600Y-84990700D03*
X187400000Y-98400000D03*
X189402100Y-93687600D03*
X196300000Y-103100000D03*
X191900000Y-102500000D03*
X207200000Y-117900000D03*
X198282200Y-121642600D03*
X191442500Y-100855600D03*
X186893300Y-87743700D03*
X204300000Y-103100000D03*
X191713600Y-89200000D03*
X195860900Y-116887700D03*
X195271500Y-96015800D03*
X193800000Y-81831400D03*
X183825100Y-89441700D03*
X199200000Y-79300000D03*
X189669100Y-91704200D03*
X186400000Y-95500000D03*
X192917100Y-89208800D03*
X199267100Y-92325400D03*
X201319300Y-103872600D03*
X211900000Y-108400000D03*
X215240000Y-110000000D03*
X201016700Y-90809600D03*
X215500000Y-107900000D03*
X215400000Y-111000000D03*
X214700000Y-85700000D03*
X211600000Y-110200000D03*
X214600000Y-115100000D03*
X216000000Y-94400000D03*
X183765400Y-86798600D03*
X190965600Y-96000000D03*
X187504900Y-92181000D03*
X183100000Y-95200000D03*
X190578700Y-92886800D03*
X188340100Y-93047700D03*
X204145600Y-99393600D03*
X195516300Y-89951100D03*
X187300000Y-121600000D03*
X191927800Y-106056900D03*
X204265800Y-100716000D03*
X183912300Y-92791500D03*
X175249600Y-89294800D03*
X206714200Y-101717100D03*
X206321000Y-114987400D03*
X178914800Y-93351600D03*
X199080050Y-87589950D03*
X193800000Y-96900000D03*
X189385800Y-83066000D03*
X200993500Y-91795200D03*
X193484100Y-88641800D03*
X197335100Y-84883700D03*
X194347900Y-84628100D03*
X191920000Y-84150300D03*
X195528400Y-88125300D03*
X206143800Y-91218500D03*
X204345800Y-90660800D03*
X195354700Y-84073800D03*
X215404150Y-90004150D03*
X202552600Y-97978700D03*
X209700000Y-82800000D03*
X215800000Y-87100000D03*
X207200000Y-83450000D03*
D25*
X196800000Y-115580000D03*
X195530000Y-115580000D03*
X196800000Y-114310000D03*
X195530000Y-114310000D03*
X196800000Y-113040000D03*
X195530000Y-113040000D03*
X196800000Y-111770000D03*
X195530000Y-111770000D03*
X196800000Y-110500000D03*
X195530000Y-110500000D03*
X196800000Y-109230000D03*
X195530000Y-109230000D03*
X196800000Y-107960000D03*
X195530000Y-107960000D03*
X196800000Y-106690000D03*
X195530000Y-106690000D03*
X212700000Y-97240000D03*
X212700000Y-94700000D03*
X212700000Y-92160000D03*
X204935000Y-104905000D03*
X204935000Y-106175000D03*
X203665000Y-104905000D03*
X203665000Y-106175000D03*
X202395000Y-104905000D03*
X202395000Y-106175000D03*
X201125000Y-104905000D03*
X201125000Y-106175000D03*
X199855000Y-104905000D03*
X199855000Y-106175000D03*
X218450000Y-91412500D03*
X215920000Y-76140000D03*
X215920000Y-73600000D03*
X213380000Y-76140000D03*
X213380000Y-73600000D03*
X210840000Y-76140000D03*
X210840000Y-73600000D03*
X208300000Y-76140000D03*
X208300000Y-73600000D03*
X205760000Y-76140000D03*
X205760000Y-73600000D03*
X203220000Y-76140000D03*
X203220000Y-73600000D03*
X200680000Y-76140000D03*
X200680000Y-73600000D03*
X198140000Y-76140000D03*
X198140000Y-73600000D03*
X193060000Y-76140000D03*
X193060000Y-73600000D03*
X190520000Y-76140000D03*
X190520000Y-73600000D03*
X187980000Y-76140000D03*
X187980000Y-73600000D03*
X185440000Y-76140000D03*
X185440000Y-73600000D03*
X182900000Y-76140000D03*
X182900000Y-73600000D03*
X180360000Y-76140000D03*
X180360000Y-73600000D03*
X177820000Y-76140000D03*
X177820000Y-73600000D03*
X175280000Y-76140000D03*
X175280000Y-73600000D03*
X172740000Y-76140000D03*
X172740000Y-73600000D03*
X170200000Y-76140000D03*
X170200000Y-73600000D03*
X195600000Y-76140000D03*
X195600000Y-73600000D03*
X159400000Y-76500000D03*
X167375000Y-124175000D03*
X218450000Y-101600000D03*
X220990000Y-101600000D03*
X218450000Y-99060000D03*
X220990000Y-99060000D03*
X218450000Y-96520000D03*
X220990000Y-96520000D03*
X177800000Y-124460000D03*
X177800000Y-127000000D03*
X180340000Y-124460000D03*
X180340000Y-127000000D03*
X182880000Y-124460000D03*
X182880000Y-127000000D03*
X185420000Y-124460000D03*
X185420000Y-127000000D03*
X187960000Y-124460000D03*
X187960000Y-127000000D03*
X190500000Y-124460000D03*
X190500000Y-127000000D03*
X193040000Y-124460000D03*
X193040000Y-127000000D03*
X195580000Y-124460000D03*
X195580000Y-127000000D03*
X198120000Y-124460000D03*
X198120000Y-127000000D03*
X200660000Y-124460000D03*
X200660000Y-127000000D03*
X203200000Y-124460000D03*
X203200000Y-127000000D03*
X205740000Y-124460000D03*
X205740000Y-127000000D03*
X208280000Y-124460000D03*
X208280000Y-127000000D03*
X210820000Y-124460000D03*
X210820000Y-127000000D03*
X213360000Y-124460000D03*
X213360000Y-127000000D03*
X215900000Y-124460000D03*
X215900000Y-127000000D03*
D26*
X213375000Y-113895000D03*
X213375000Y-105255000D03*
X218475000Y-113895000D03*
X218475000Y-105255000D03*
D25*
X218425000Y-119350000D03*
X211425000Y-88950000D03*
X211425000Y-101650000D03*
M02*
