M48
; DRILL file {KiCad 8.0.4} date 2024-11-04T17:03:23+0900
; FORMAT={-:-/ absolute / metric / decimal}
; #@! TF.CreationDate,2024-11-04T17:03:23+09:00
; #@! TF.GenerationSoftware,Kicad,Pcbnew,8.0.4
; #@! TF.FileFunction,Plated,1,4,PTH
FMAT,2
METRIC
; #@! TA.AperFunction,Plated,PTH,ViaDrill
T1C0.300
; #@! TA.AperFunction,Plated,PTH,ComponentDrill
T2C0.600
; #@! TA.AperFunction,Plated,PTH,ComponentDrill
T3C0.650
; #@! TA.AperFunction,Plated,PTH,ComponentDrill
T4C1.000
; #@! TA.AperFunction,Plated,PTH,ComponentDrill
T5C1.020
; #@! TA.AperFunction,Plated,PTH,ComponentDrill
T6C3.200
%
G90
G05
T1
X158.2Y-113.5
X158.2Y-116.9
X158.2Y-119.0
X158.2Y-122.3
X158.2Y-124.1
X158.2Y-126.1
X159.2Y-113.5
X159.2Y-116.9
X159.2Y-119.0
X159.2Y-122.3
X160.3Y-113.5
X160.3Y-116.9
X160.3Y-119.0
X160.3Y-122.3
X161.4Y-119.0
X161.4Y-120.6
X161.4Y-122.3
X161.4Y-124.1
X161.4Y-126.1
X161.5Y-113.6
X161.5Y-115.1
X161.5Y-116.7
X162.2Y-115.9
X162.3Y-74.8
X162.5Y-118.7
X163.0Y-115.1
X163.3Y-117.8
X163.6Y-120.6
X163.6Y-122.3
X163.6Y-124.1
X163.6Y-126.1
X163.8Y-114.3
X164.1Y-117.0
X164.6Y-113.5
X165.0Y-116.2
X165.4Y-112.7
X165.7Y-115.4
X165.8Y-120.6
X165.83Y-118.955
X165.9Y-117.3
X166.3Y-112.0
X166.5Y-114.6
X167.3Y-111.4
X167.4Y-113.8
X167.7Y-75.6
X167.7Y-117.3
X167.7Y-119.0
X167.7Y-120.6
X169.5Y-121.5
X174.3Y-94.0
X174.3Y-122.6
X175.25Y-89.295
X175.6Y-88.1
X175.7Y-82.7
X177.8Y-85.4
X178.0Y-87.7
X178.8Y-89.9
X178.915Y-93.352
X179.0Y-87.8
X179.1Y-91.5
X180.4Y-80.6
X180.9Y-98.1
X182.2Y-81.9
X183.1Y-95.2
X183.7Y-120.1
X183.765Y-86.799
X183.825Y-89.442
X183.912Y-92.791
X184.298Y-90.31
X184.754Y-88.669
X186.043Y-88.896
X186.4Y-95.5
X186.893Y-87.744
X187.3Y-121.6
X187.4Y-98.4
X187.4Y-101.6
X187.505Y-92.181
X188.2Y-98.9
X188.34Y-93.048
X188.8Y-84.6
X188.9Y-86.2
X189.18Y-89.99
X189.386Y-83.066
X189.402Y-93.688
X189.669Y-91.704
X190.0Y-78.5
X190.09Y-81.135
X190.24Y-85.0
X190.5Y-88.9
X190.579Y-92.887
X190.6Y-111.6
X190.7Y-102.9
X190.966Y-96.0
X191.077Y-91.515
X191.442Y-100.856
X191.714Y-89.2
X191.8Y-93.2
X191.833Y-95.555
X191.9Y-102.5
X191.92Y-84.15
X191.928Y-106.057
X192.423Y-88.001
X192.494Y-84.991
X192.6Y-90.88
X192.7Y-80.9
X192.7Y-97.3
X192.917Y-89.209
X193.484Y-88.642
X193.503Y-98.733
X193.551Y-99.686
X193.8Y-81.831
X193.8Y-96.9
X194.278Y-88.028
X194.348Y-84.628
X194.372Y-101.768
X194.5Y-92.9
X194.54Y-96.46
X194.6Y-94.0
X194.706Y-100.796
X194.9Y-82.7
X195.272Y-96.016
X195.355Y-84.074
X195.516Y-89.951
X195.528Y-88.125
X195.861Y-116.888
X196.3Y-103.1
X196.591Y-89.7
X196.6Y-100.3
X197.1Y-94.4
X197.335Y-84.884
X197.424Y-83.414
X197.7Y-93.691
X197.936Y-105.173
X198.0Y-92.88
X198.282Y-121.643
X198.636Y-84.808
X198.695Y-86.207
X198.738Y-97.829
X199.08Y-87.59
X199.2Y-79.3
X199.267Y-92.325
X199.349Y-96.594
X199.595Y-122.295
X199.8Y-99.7
X200.02Y-95.397
X200.4Y-110.8
X200.993Y-91.795
X201.0Y-115.8
X201.017Y-90.81
X201.319Y-103.873
X201.7Y-92.4
X202.5Y-108.1
X202.553Y-97.979
X202.7Y-113.3
X202.7Y-119.3
X202.9Y-83.4
X203.2Y-81.16
X203.6Y-116.5
X204.146Y-99.394
X204.266Y-100.716
X204.3Y-103.1
X204.346Y-90.661
X205.349Y-97.975
X206.144Y-91.218
X206.321Y-114.987
X206.7Y-97.8
X206.714Y-101.717
X206.9Y-94.5
X207.2Y-83.45
X207.2Y-90.9
X207.2Y-117.9
X207.8Y-119.5
X208.2Y-96.2
X209.0Y-88.5
X209.1Y-83.5
X209.3Y-96.2
X209.7Y-82.8
X210.2Y-92.2
X211.6Y-80.0
X211.6Y-110.2
X211.9Y-108.4
X214.3Y-103.5
X214.5Y-120.6
X214.6Y-115.1
X214.7Y-85.7
X215.24Y-110.0
X215.4Y-111.0
X215.404Y-90.004
X215.5Y-107.9
X215.8Y-87.1
X216.0Y-94.4
X217.8Y-88.1
X218.7Y-83.7
T3
X195.53Y-106.69
X195.53Y-107.96
X195.53Y-109.23
X195.53Y-110.5
X195.53Y-111.77
X195.53Y-113.04
X195.53Y-114.31
X195.53Y-115.58
X196.8Y-106.69
X196.8Y-107.96
X196.8Y-109.23
X196.8Y-110.5
X196.8Y-111.77
X196.8Y-113.04
X196.8Y-114.31
X196.8Y-115.58
X199.855Y-104.905
X199.855Y-106.175
X201.125Y-104.905
X201.125Y-106.175
X202.395Y-104.905
X202.395Y-106.175
X203.665Y-104.905
X203.665Y-106.175
X204.935Y-104.905
X204.935Y-106.175
T4
X170.2Y-73.6
X170.2Y-76.14
X172.74Y-73.6
X172.74Y-76.14
X175.28Y-73.6
X175.28Y-76.14
X177.8Y-124.46
X177.8Y-127.0
X177.82Y-73.6
X177.82Y-76.14
X180.34Y-124.46
X180.34Y-127.0
X180.36Y-73.6
X180.36Y-76.14
X182.88Y-124.46
X182.88Y-127.0
X182.9Y-73.6
X182.9Y-76.14
X185.42Y-124.46
X185.42Y-127.0
X185.44Y-73.6
X185.44Y-76.14
X187.96Y-124.46
X187.96Y-127.0
X187.98Y-73.6
X187.98Y-76.14
X190.5Y-124.46
X190.5Y-127.0
X190.52Y-73.6
X190.52Y-76.14
X193.04Y-124.46
X193.04Y-127.0
X193.06Y-73.6
X193.06Y-76.14
X195.58Y-124.46
X195.58Y-127.0
X195.6Y-73.6
X195.6Y-76.14
X198.12Y-124.46
X198.12Y-127.0
X198.14Y-73.6
X198.14Y-76.14
X200.66Y-124.46
X200.66Y-127.0
X200.68Y-73.6
X200.68Y-76.14
X203.2Y-124.46
X203.2Y-127.0
X203.22Y-73.6
X203.22Y-76.14
X205.74Y-124.46
X205.74Y-127.0
X205.76Y-73.6
X205.76Y-76.14
X208.28Y-124.46
X208.28Y-127.0
X208.3Y-73.6
X208.3Y-76.14
X210.82Y-124.46
X210.82Y-127.0
X210.84Y-73.6
X210.84Y-76.14
X212.7Y-92.16
X212.7Y-94.7
X212.7Y-97.24
X213.36Y-124.46
X213.36Y-127.0
X213.38Y-73.6
X213.38Y-76.14
X215.9Y-124.46
X215.9Y-127.0
X215.92Y-73.6
X215.92Y-76.14
X218.45Y-96.52
X218.45Y-99.06
X218.45Y-101.6
X220.99Y-96.52
X220.99Y-99.06
X220.99Y-101.6
T5
X211.425Y-88.95
X211.425Y-101.65
T6
X159.4Y-76.5
X167.375Y-124.175
X218.425Y-119.35
X218.45Y-91.412
T2
G00X212.875Y-105.255
M15
G01X213.875Y-105.255
M16
G05
G00X212.875Y-113.895
M15
G01X213.875Y-113.895
M16
G05
G00X217.975Y-105.255
M15
G01X218.975Y-105.255
M16
G05
G00X217.975Y-113.895
M15
G01X218.975Y-113.895
M16
G05
M30
