%TF.GenerationSoftware,KiCad,Pcbnew,8.0.4*%
%TF.CreationDate,2024-11-04T17:03:22+09:00*%
%TF.ProjectId,balsun,62616c73-756e-42e6-9b69-6361645f7063,rev?*%
%TF.SameCoordinates,Original*%
%TF.FileFunction,Copper,L3,Inr*%
%TF.FilePolarity,Positive*%
%FSLAX46Y46*%
G04 Gerber Fmt 4.6, Leading zero omitted, Abs format (unit mm)*
G04 Created by KiCad (PCBNEW 8.0.4) date 2024-11-04 17:03:22*
%MOMM*%
%LPD*%
G01*
G04 APERTURE LIST*
%TA.AperFunction,ComponentPad*%
%ADD10R,1.050000X1.050000*%
%TD*%
%TA.AperFunction,ComponentPad*%
%ADD11C,1.050000*%
%TD*%
%TA.AperFunction,ComponentPad*%
%ADD12C,1.524000*%
%TD*%
%TA.AperFunction,ComponentPad*%
%ADD13C,5.000000*%
%TD*%
%TA.AperFunction,ComponentPad*%
%ADD14R,2.000000X2.540000*%
%TD*%
%TA.AperFunction,ComponentPad*%
%ADD15C,3.400000*%
%TD*%
%TA.AperFunction,ComponentPad*%
%ADD16R,2.540000X2.000000*%
%TD*%
%TA.AperFunction,ComponentPad*%
%ADD17O,2.200000X1.200000*%
%TD*%
%TA.AperFunction,ComponentPad*%
%ADD18C,1.530000*%
%TD*%
%TA.AperFunction,ViaPad*%
%ADD19C,0.600000*%
%TD*%
%TA.AperFunction,Conductor*%
%ADD20C,0.200000*%
%TD*%
%TA.AperFunction,Conductor*%
%ADD21C,0.400000*%
%TD*%
%ADD22C,0.300000*%
%ADD23C,0.350000*%
%ADD24O,1.600000X0.600000*%
G04 APERTURE END LIST*
D10*
%TO.N,P402*%
%TO.C,J4*%
X196800000Y-115580000D03*
D11*
%TO.N,P401*%
X195530000Y-115580000D03*
%TO.N,P215*%
X196800000Y-114310000D03*
%TO.N,P400*%
X195530000Y-114310000D03*
%TO.N,P214*%
X196800000Y-113040000D03*
%TO.N,P011*%
X195530000Y-113040000D03*
%TO.N,P411*%
X196800000Y-111770000D03*
%TO.N,P003*%
X195530000Y-111770000D03*
%TO.N,P410*%
X196800000Y-110500000D03*
%TO.N,P004*%
X195530000Y-110500000D03*
%TO.N,P409*%
X196800000Y-109230000D03*
%TO.N,P015*%
X195530000Y-109230000D03*
%TO.N,P408*%
X196800000Y-107960000D03*
%TO.N,P113*%
X195530000Y-107960000D03*
%TO.N,P206*%
X196800000Y-106690000D03*
%TO.N,P205*%
X195530000Y-106690000D03*
%TD*%
D12*
%TO.N,VEXTIN*%
%TO.C,IC3*%
X212700000Y-97240000D03*
%TO.N,GND*%
X212700000Y-94700000D03*
%TO.N,Net-(IC3-OUT)*%
X212700000Y-92160000D03*
%TD*%
D11*
%TO.N,RESET*%
%TO.C,J1*%
X204935000Y-104905000D03*
%TO.N,GND*%
X204935000Y-106175000D03*
%TO.N,P501_SCI1_TXD*%
X203665000Y-104905000D03*
%TO.N,P502_SCI1_RXD*%
X203665000Y-106175000D03*
%TO.N,unconnected-(J1-Pad6)*%
X202395000Y-104905000D03*
%TO.N,GND*%
X202395000Y-106175000D03*
%TO.N,P300_SWCLK*%
X201125000Y-104905000D03*
%TO.N,GND*%
X201125000Y-106175000D03*
%TO.N,P108_SWDIO*%
X199855000Y-104905000D03*
D10*
%TO.N,+5V*%
X199855000Y-106175000D03*
%TD*%
D13*
%TO.N,GND*%
%TO.C,H3*%
X218450000Y-91412500D03*
%TD*%
D14*
%TO.N,WISUN_TX_Serial1_D0*%
%TO.C,P1*%
X215920000Y-76140000D03*
X215920000Y-73600000D03*
%TO.N,WISUN_RX_Serial1_D1*%
X213380000Y-76140000D03*
X213380000Y-73600000D03*
%TO.N,P105_IRQ00_GPT1_A*%
X210840000Y-76140000D03*
X210840000Y-73600000D03*
%TO.N,P104_IRQ01_GPT1_B*%
X208300000Y-76140000D03*
X208300000Y-73600000D03*
%TO.N,P103_SPI0_SSL_GPT2_A_CAN0_TX*%
X205760000Y-76140000D03*
X205760000Y-73600000D03*
%TO.N,P102_SPI0_RSPCK_GPT2_B_CAN0_RX*%
X203220000Y-76140000D03*
X203220000Y-73600000D03*
%TO.N,P106_GPT0_B*%
X200680000Y-76140000D03*
X200680000Y-73600000D03*
%TO.N,P107_GPT0_A*%
X198140000Y-76140000D03*
X198140000Y-73600000D03*
%TO.N,P304_GPT7_A*%
X193060000Y-76140000D03*
X193060000Y-73600000D03*
%TO.N,P303_GPT7_B*%
X190520000Y-76140000D03*
X190520000Y-73600000D03*
%TO.N,P112_GPT3_B*%
X187980000Y-76140000D03*
X187980000Y-73600000D03*
%TO.N,P109_SCI9_TXD*%
X185440000Y-76140000D03*
X185440000Y-73600000D03*
%TO.N,P110_SCI9_RXD*%
X182900000Y-76140000D03*
X182900000Y-73600000D03*
%TO.N,P111_GPT3_A*%
X180360000Y-76140000D03*
X180360000Y-73600000D03*
%TO.N,GND*%
X177820000Y-76140000D03*
X177820000Y-73600000D03*
%TO.N,AREF*%
X175280000Y-76140000D03*
X175280000Y-73600000D03*
%TO.N,P101_AN21_SDA*%
X172740000Y-76140000D03*
X172740000Y-73600000D03*
%TO.N,P100_AN22_SCL*%
X170200000Y-76140000D03*
X170200000Y-73600000D03*
%TO.N,+5V*%
X195600000Y-76140000D03*
X195600000Y-73600000D03*
%TD*%
D15*
%TO.N,GND*%
%TO.C,H4*%
X159400000Y-76500000D03*
%TD*%
%TO.N,GND*%
%TO.C,H5*%
X167375000Y-124175000D03*
%TD*%
D16*
%TO.N,VEXTIN*%
%TO.C,H1*%
X218450000Y-101600000D03*
X220990000Y-101600000D03*
%TO.N,GND*%
X218450000Y-99060000D03*
X220990000Y-99060000D03*
%TO.N,VBAT*%
X218450000Y-96520000D03*
X220990000Y-96520000D03*
%TD*%
D14*
%TO.N,+5V*%
%TO.C,J2*%
X177800000Y-124460000D03*
X177800000Y-127000000D03*
%TO.N,MD*%
X180340000Y-124460000D03*
X180340000Y-127000000D03*
%TO.N,+5V*%
X182880000Y-124460000D03*
X182880000Y-127000000D03*
%TO.N,RESET*%
X185420000Y-124460000D03*
X185420000Y-127000000D03*
%TO.N,+3V3*%
X187960000Y-124460000D03*
X187960000Y-127000000D03*
%TO.N,+5V*%
X190500000Y-124460000D03*
X190500000Y-127000000D03*
%TO.N,GND*%
X193040000Y-124460000D03*
X193040000Y-127000000D03*
X195580000Y-124460000D03*
X195580000Y-127000000D03*
%TO.N,VUSB*%
X198120000Y-124460000D03*
X198120000Y-127000000D03*
%TO.N,unconnected-(J2-Pad10)*%
X200660000Y-124460000D03*
%TO.N,unconnected-(J2-Pad10)_1*%
X200660000Y-127000000D03*
%TO.N,P014_AN09_DAC*%
X203200000Y-124460000D03*
X203200000Y-127000000D03*
%TO.N,P000_AN00_AMP+*%
X205740000Y-124460000D03*
X205740000Y-127000000D03*
%TO.N,P001_AN01_AMP-*%
X208280000Y-124460000D03*
X208280000Y-127000000D03*
%TO.N,P002_AN02_AMPO*%
X210820000Y-124460000D03*
X210820000Y-127000000D03*
%TO.N,P101_AN21_SDA*%
X213360000Y-124460000D03*
X213360000Y-127000000D03*
%TO.N,P100_AN22_SCL*%
X215900000Y-124460000D03*
X215900000Y-127000000D03*
%TD*%
D17*
%TO.N,GND*%
%TO.C,J5*%
X213375000Y-113895000D03*
X213375000Y-105255000D03*
X218475000Y-113895000D03*
X218475000Y-105255000D03*
%TD*%
D13*
%TO.N,GND*%
%TO.C,H2*%
X218425000Y-119350000D03*
%TD*%
D18*
%TO.N,VBAT*%
%TO.C,U1*%
X211425000Y-88950000D03*
%TO.N,GND*%
X211425000Y-101650000D03*
%TD*%
D19*
%TO.N,VBAT*%
X203200000Y-81160000D03*
%TO.N,GND*%
X194540000Y-96460000D03*
%TO.N,P103_SPI0_SSL_GPT2_A_CAN0_TX*%
X192600000Y-90880000D03*
%TO.N,+5V*%
X190500000Y-88900000D03*
%TO.N,+3V3*%
X194600000Y-94000000D03*
%TO.N,GND*%
X169500000Y-121500000D03*
X163600000Y-124100000D03*
X202900000Y-83400000D03*
X159200000Y-122300000D03*
X178000000Y-87700000D03*
X196600000Y-100300000D03*
X199800000Y-99700000D03*
X160300000Y-113500000D03*
X202700000Y-119300000D03*
X190000000Y-78500000D03*
X167700000Y-75600000D03*
X161500000Y-115100000D03*
X183700000Y-120100000D03*
X200400000Y-110800000D03*
X163600000Y-122300000D03*
X202500000Y-108100000D03*
X158200000Y-116900000D03*
X178800000Y-89900000D03*
X158200000Y-126100000D03*
X175600000Y-88100000D03*
X194900000Y-82700000D03*
X179100000Y-91500000D03*
X166500000Y-114600000D03*
X158200000Y-119000000D03*
X188900000Y-86200000D03*
X207800000Y-119500000D03*
X164600000Y-113500000D03*
X209100000Y-83500000D03*
X163600000Y-126100000D03*
X158200000Y-122300000D03*
X165000000Y-116200000D03*
X218700000Y-83700000D03*
X177800000Y-85400000D03*
X161500000Y-113600000D03*
X163300000Y-117800000D03*
X161400000Y-120600000D03*
X182200000Y-81900000D03*
X159200000Y-119000000D03*
X201000000Y-115800000D03*
X163800000Y-114300000D03*
X210200000Y-92200000D03*
X165830000Y-118955000D03*
X162200000Y-115900000D03*
X165700000Y-115400000D03*
X161500000Y-116700000D03*
X161400000Y-119000000D03*
X166300000Y-112000000D03*
X209000000Y-88500000D03*
X158200000Y-113500000D03*
X188200000Y-98900000D03*
X192700000Y-80900000D03*
X165900000Y-117300000D03*
X180900000Y-98100000D03*
X161400000Y-126100000D03*
X163000000Y-115100000D03*
X179000000Y-87800000D03*
X167700000Y-120600000D03*
X201700000Y-92400000D03*
X167400000Y-113800000D03*
X159200000Y-113500000D03*
X214500000Y-120600000D03*
X163600000Y-120600000D03*
X180400000Y-80600000D03*
X161400000Y-122300000D03*
X174300000Y-122600000D03*
X162500000Y-118700000D03*
X167700000Y-119000000D03*
X206700000Y-97800000D03*
X211600000Y-80000000D03*
X217800000Y-88100000D03*
X158200000Y-124100000D03*
X207200000Y-90900000D03*
X160300000Y-119000000D03*
X164100000Y-117000000D03*
X202700000Y-113300000D03*
X161400000Y-124100000D03*
X160300000Y-116900000D03*
X209300000Y-96200000D03*
X206900000Y-94500000D03*
X203600000Y-116500000D03*
X165400000Y-112700000D03*
X190600000Y-111600000D03*
X167300000Y-111400000D03*
X162300000Y-74800000D03*
X159200000Y-116900000D03*
X214300000Y-103500000D03*
X160300000Y-122300000D03*
X165800000Y-120600000D03*
X167700000Y-117300000D03*
%TO.N,+5V*%
X187400000Y-101600000D03*
X197935600Y-105173300D03*
X197100000Y-94400000D03*
X190089700Y-81135100D03*
X198694900Y-86207000D03*
%TO.N,MD*%
X184754100Y-88668600D03*
X191076800Y-91514800D03*
%TO.N,P101_AN21_SDA*%
X205349200Y-97975000D03*
X184298100Y-90310200D03*
%TO.N,P111_GPT3_A*%
X192422900Y-88001000D03*
X174300000Y-94000000D03*
%TO.N,P304_GPT7_A*%
X197423900Y-83414300D03*
%TO.N,P409*%
X200020200Y-95397200D03*
%TO.N,P401*%
X194372000Y-101767600D03*
%TO.N,P001_AN01_AMP-*%
X193551200Y-99685700D03*
X192700000Y-97300000D03*
%TO.N,P214*%
X198738100Y-97828600D03*
%TO.N,P003*%
X191832700Y-95555300D03*
%TO.N,P206*%
X194500000Y-92900000D03*
%TO.N,P400*%
X194705700Y-100796000D03*
%TO.N,P107_GPT0_A*%
X194277700Y-88028100D03*
%TO.N,P000_AN00_AMP+*%
X193502700Y-98733300D03*
X199595150Y-122295150D03*
%TO.N,P408*%
X198000000Y-92880000D03*
%TO.N,P100_AN22_SCL*%
X191800000Y-93200000D03*
X208200000Y-96200000D03*
X175700000Y-82700000D03*
X186043100Y-88895900D03*
%TO.N,P110_SCI9_RXD*%
X190240000Y-85000000D03*
%TO.N,P106_GPT0_B*%
X189180000Y-89990000D03*
%TO.N,Net-(IC1-P200)*%
X188800000Y-84600000D03*
X198635900Y-84808400D03*
%TO.N,P410*%
X197700000Y-93691200D03*
%TO.N,P411*%
X199348700Y-96594300D03*
%TO.N,P004*%
X190700000Y-102900000D03*
%TO.N,P205*%
X196591400Y-89700400D03*
%TO.N,P109_SCI9_TXD*%
X192493600Y-84990700D03*
%TO.N,P014_AN09_DAC*%
X187400000Y-98400000D03*
X189402100Y-93687600D03*
X196300000Y-103100000D03*
X191900000Y-102500000D03*
X207200000Y-117900000D03*
%TO.N,P002_AN02_AMPO*%
X198282200Y-121642600D03*
X191442500Y-100855600D03*
%TO.N,P105_IRQ00_GPT1_A*%
X186893300Y-87743700D03*
%TO.N,P113*%
X204300000Y-103100000D03*
X191713600Y-89200000D03*
%TO.N,P215*%
X195860900Y-116887700D03*
X195271500Y-96015800D03*
%TO.N,P104_IRQ01_GPT1_B*%
X193800000Y-81831400D03*
X183825100Y-89441700D03*
%TO.N,P102_SPI0_RSPCK_GPT2_B_CAN0_RX*%
X199200000Y-79300000D03*
X189669100Y-91704200D03*
%TO.N,P015*%
X186400000Y-95500000D03*
%TO.N,P112_GPT3_B*%
X192917100Y-89208800D03*
%TO.N,USB_D_P*%
X199267100Y-92325400D03*
X201319300Y-103872600D03*
%TO.N,USB_D_N*%
X211900000Y-108400000D03*
X215240000Y-110000000D03*
X201016700Y-90809600D03*
%TO.N,VUSB*%
X215500000Y-107900000D03*
X215400000Y-111000000D03*
X214700000Y-85700000D03*
%TO.N,CC1*%
X211600000Y-110200000D03*
X214600000Y-115100000D03*
%TO.N,VBAT*%
X216000000Y-94400000D03*
%TO.N,VREFH0*%
X183765400Y-86798600D03*
X190965600Y-96000000D03*
%TO.N,P013*%
X187504900Y-92181000D03*
X183100000Y-95200000D03*
%TO.N,P501_SCI1_TXD*%
X190578700Y-92886800D03*
%TO.N,P502_SCI1_RXD*%
X188340100Y-93047700D03*
X204145600Y-99393600D03*
%TO.N,WISUN_RESETN*%
X195516300Y-89951100D03*
X187300000Y-121600000D03*
%TO.N,WISUN_RX*%
X191927800Y-106056900D03*
X204265800Y-100716000D03*
%TO.N,Net-(IC1-P500)*%
X183912300Y-92791500D03*
X175249600Y-89294800D03*
%TO.N,WISUN_TX*%
X206714200Y-101717100D03*
X206321000Y-114987400D03*
%TO.N,RESET*%
X178914800Y-93351600D03*
X199080050Y-87589950D03*
%TO.N,+3V3*%
X193800000Y-96900000D03*
X189385800Y-83066000D03*
%TO.N,P300_SWCLK*%
X200993500Y-91795200D03*
X193484100Y-88641800D03*
%TO.N,P108_SWDIO*%
X197335100Y-84883700D03*
X194347900Y-84628100D03*
X191920000Y-84150300D03*
%TO.N,WISUN_TX_Serial1*%
X195528400Y-88125300D03*
X206143800Y-91218500D03*
%TO.N,WISUN_RX_Serial1*%
X204345800Y-90660800D03*
X195354700Y-84073800D03*
%TO.N,WISUN_TX_Serial1_D0*%
X215404150Y-90004150D03*
%TO.N,WISUN_RX_Serial1_D1*%
X202552600Y-97978700D03*
%TO.N,Net-(IC3-OUT)*%
X209700000Y-82800000D03*
%TO.N,Net-(IC5-ILIM)*%
X215800000Y-87100000D03*
X207200000Y-83450000D03*
%TD*%
D20*
%TO.N,P108_SWDIO*%
X193870100Y-84150300D02*
X194347900Y-84628100D01*
X191920000Y-84150300D02*
X193870100Y-84150300D01*
%TO.N,P111_GPT3_A*%
X189338200Y-90700800D02*
X189760000Y-90279000D01*
X188356300Y-90700800D02*
X189338200Y-90700800D01*
X174900000Y-94600000D02*
X174300000Y-94000000D01*
X176000000Y-94400000D02*
X175800000Y-94600000D01*
X175800000Y-94600000D02*
X174900000Y-94600000D01*
X182000000Y-94400000D02*
X176000000Y-94400000D01*
X186903200Y-92042900D02*
X184974100Y-93972000D01*
X184974100Y-93972000D02*
X182428000Y-93972000D01*
X187255800Y-91579300D02*
X186903200Y-91931900D01*
X182428000Y-93972000D02*
X182000000Y-94400000D01*
X187477800Y-91579300D02*
X187255800Y-91579300D01*
X188356300Y-90700800D02*
X187477800Y-91579300D01*
X186903200Y-91931900D02*
X186903200Y-92042900D01*
%TO.N,RESET*%
X179043600Y-93222800D02*
X178914800Y-93351600D01*
X182685800Y-93222800D02*
X179043600Y-93222800D01*
X182854600Y-93391600D02*
X182685800Y-93222800D01*
X183661600Y-93391600D02*
X182854600Y-93391600D01*
X183663200Y-93393200D02*
X183661600Y-93391600D01*
X184873900Y-93393200D02*
X183663200Y-93393200D01*
X194476300Y-87375800D02*
X190891300Y-87375800D01*
X190891300Y-87375800D02*
X184873900Y-93393200D01*
X194625300Y-87524800D02*
X194476300Y-87375800D01*
X195278100Y-87524800D02*
X194625300Y-87524800D01*
X199013700Y-87523600D02*
X195279300Y-87523600D01*
X199080050Y-87589950D02*
X199013700Y-87523600D01*
X195279300Y-87523600D02*
X195278100Y-87524800D01*
%TO.N,P113*%
X192910000Y-90000000D02*
X193240000Y-90000000D01*
X192710000Y-89800000D02*
X192910000Y-90000000D01*
X194340000Y-90640000D02*
X196967000Y-90640000D01*
X192600000Y-89800000D02*
X192710000Y-89800000D01*
X193240000Y-90000000D02*
X193880000Y-90640000D01*
X192000000Y-89200000D02*
X192600000Y-89800000D01*
X193880000Y-90640000D02*
X194340000Y-90640000D01*
X204893500Y-99290500D02*
X204893500Y-102506500D01*
X204747500Y-99144500D02*
X204893500Y-99290500D01*
X204747500Y-96400000D02*
X204747500Y-99144500D01*
X204893500Y-102506500D02*
X204300000Y-103100000D01*
X200391800Y-92044300D02*
X204747500Y-96400000D01*
X200391800Y-91969200D02*
X200391800Y-92044300D01*
X197429000Y-90178000D02*
X198600600Y-90178000D01*
X196967000Y-90640000D02*
X197429000Y-90178000D01*
X191713600Y-89200000D02*
X192000000Y-89200000D01*
X198600600Y-90178000D02*
X200391800Y-91969200D01*
%TO.N,P111_GPT3_A*%
X189770000Y-90230000D02*
X189760000Y-90230000D01*
X191100000Y-89700000D02*
X190300000Y-89700000D01*
X191100000Y-88819450D02*
X191100000Y-89700000D01*
X191918450Y-88001000D02*
X191100000Y-88819450D01*
X189760000Y-90230000D02*
X189760000Y-90279000D01*
X192422900Y-88001000D02*
X191918450Y-88001000D01*
X190300000Y-89700000D02*
X189770000Y-90230000D01*
%TO.N,Net-(IC1-P200)*%
X197843700Y-84016200D02*
X198635900Y-84808400D01*
X197174600Y-84016200D02*
X197843700Y-84016200D01*
X189927900Y-83472100D02*
X196630500Y-83472100D01*
X196630500Y-83472100D02*
X197174600Y-84016200D01*
X188800000Y-84600000D02*
X189927900Y-83472100D01*
D21*
%TO.N,+5V*%
X182880000Y-123280000D02*
X182880000Y-124460000D01*
X182100000Y-122500000D02*
X182880000Y-123280000D01*
X178300000Y-122500000D02*
X182100000Y-122500000D01*
X177800000Y-123000000D02*
X178300000Y-122500000D01*
D20*
%TO.N,P015*%
X192700000Y-106400000D02*
X195530000Y-109230000D01*
X191700000Y-104300000D02*
X191700000Y-104900000D01*
X191300000Y-102600000D02*
X191300000Y-103900000D01*
X191700000Y-104900000D02*
X192700000Y-105900000D01*
X191295900Y-102600000D02*
X191300000Y-102600000D01*
X190700000Y-101900000D02*
X191295900Y-102495900D01*
X191300000Y-103900000D02*
X191700000Y-104300000D01*
X189300000Y-101900000D02*
X190700000Y-101900000D01*
X188000000Y-100600000D02*
X189300000Y-101900000D01*
X187400000Y-100600000D02*
X188000000Y-100600000D01*
X191295900Y-102495900D02*
X191295900Y-102600000D01*
X186700000Y-99900000D02*
X187400000Y-100600000D01*
X186400000Y-98200000D02*
X186700000Y-98500000D01*
X186700000Y-98500000D02*
X186700000Y-99900000D01*
X186400000Y-95500000D02*
X186400000Y-98200000D01*
X192700000Y-105900000D02*
X192700000Y-106400000D01*
%TO.N,P206*%
X196800000Y-106500000D02*
X196800000Y-106690000D01*
X194600000Y-103000000D02*
X194600000Y-104300000D01*
X192951000Y-101351000D02*
X194600000Y-103000000D01*
X194600000Y-104300000D02*
X196800000Y-106500000D01*
X191916200Y-100006500D02*
X192951000Y-101041300D01*
X192700000Y-95600000D02*
X191916200Y-96383800D01*
X191916200Y-96383800D02*
X191916200Y-100006500D01*
X193000000Y-94400000D02*
X193000000Y-94500000D01*
X193000000Y-94500000D02*
X192700000Y-94800000D01*
X192951000Y-101041300D02*
X192951000Y-101351000D01*
X194500000Y-92900000D02*
X193000000Y-94400000D01*
X192700000Y-94800000D02*
X192700000Y-95600000D01*
%TO.N,P410*%
X197734600Y-109565400D02*
X196800000Y-110500000D01*
X197734600Y-106278850D02*
X197734600Y-109565400D01*
X195100000Y-103644250D02*
X197734600Y-106278850D01*
X195100000Y-102600000D02*
X195100000Y-103644250D01*
X197700000Y-93691200D02*
X197843000Y-93834200D01*
X197843000Y-94768000D02*
X196000000Y-96611000D01*
X196000000Y-101700000D02*
X195100000Y-102600000D01*
X196000000Y-96611000D02*
X196000000Y-101700000D01*
X197843000Y-93834200D02*
X197843000Y-94768000D01*
D21*
%TO.N,+5V*%
X177800000Y-124460000D02*
X177800000Y-123000000D01*
D20*
%TO.N,P111_GPT3_A*%
X174300000Y-94000000D02*
X174300000Y-87200000D01*
X174300000Y-87200000D02*
X174500000Y-87000000D01*
X174500000Y-82900000D02*
X178600000Y-78800000D01*
X174300000Y-93900000D02*
X174300000Y-94000000D01*
X180360000Y-78440000D02*
X180360000Y-76140000D01*
X174500000Y-87000000D02*
X174500000Y-82900000D01*
X178600000Y-78800000D02*
X180000000Y-78800000D01*
X180000000Y-78800000D02*
X180360000Y-78440000D01*
%TO.N,P304_GPT7_A*%
X193060000Y-76140000D02*
X193060000Y-79050400D01*
X193060000Y-79050400D02*
X197423900Y-83414300D01*
%TO.N,P001_AN01_AMP-*%
X192700000Y-98834500D02*
X193551200Y-99685700D01*
X192700000Y-97300000D02*
X192700000Y-98834500D01*
%TO.N,P214*%
X199000000Y-107600000D02*
X199100000Y-107700000D01*
X199100000Y-110740000D02*
X196800000Y-113040000D01*
X199000000Y-104500000D02*
X199000000Y-107600000D01*
X199100000Y-107700000D02*
X199100000Y-110740000D01*
X198738100Y-104238100D02*
X199000000Y-104500000D01*
X198738100Y-97828600D02*
X198738100Y-104238100D01*
%TO.N,P000_AN00_AMP+*%
X199595150Y-122295150D02*
X199600000Y-122300000D01*
X199600000Y-122300000D02*
X205500000Y-122300000D01*
X205500000Y-122300000D02*
X205740000Y-122540000D01*
X205740000Y-122540000D02*
X205740000Y-124460000D01*
%TO.N,P100_AN22_SCL*%
X185354300Y-87476600D02*
X185354300Y-88207100D01*
X175700000Y-82700000D02*
X180577700Y-82700000D01*
X185354300Y-88207100D02*
X186043100Y-88895900D01*
X180577700Y-82700000D02*
X185354300Y-87476600D01*
%TO.N,P411*%
X198136500Y-104523300D02*
X198136400Y-104523300D01*
X198537300Y-104924100D02*
X198136500Y-104523300D01*
X199121600Y-96594300D02*
X199348700Y-96594300D01*
X198136400Y-104523300D02*
X198136400Y-97579500D01*
X196800000Y-111770000D02*
X198537300Y-110032700D01*
X198537300Y-110032700D02*
X198537300Y-104924100D01*
X198136400Y-97579500D02*
X199121600Y-96594300D01*
%TO.N,P004*%
X190700000Y-105790300D02*
X195409700Y-110500000D01*
X190700000Y-102900000D02*
X190700000Y-105790300D01*
X195409700Y-110500000D02*
X195530000Y-110500000D01*
%TO.N,P014_AN09_DAC*%
X191900000Y-102300000D02*
X191900000Y-102500000D01*
X187400000Y-99300000D02*
X189500000Y-101400000D01*
X191900000Y-102500000D02*
X191900000Y-102400000D01*
X187400000Y-98400000D02*
X187400000Y-99300000D01*
X191000000Y-101400000D02*
X191900000Y-102300000D01*
X189500000Y-101400000D02*
X191000000Y-101400000D01*
%TO.N,P105_IRQ00_GPT1_A*%
X201611800Y-86939900D02*
X187697100Y-86939900D01*
X187697100Y-86939900D02*
X186893300Y-87743700D01*
X210840000Y-76140000D02*
X210840000Y-77711700D01*
X210840000Y-77711700D02*
X201611800Y-86939900D01*
%TO.N,P104_IRQ01_GPT1_B*%
X183696300Y-89570500D02*
X183825100Y-89441700D01*
X186245800Y-88247700D02*
X186644800Y-88646700D01*
X183696300Y-90568200D02*
X183696300Y-89570500D01*
X184877900Y-90912000D02*
X184040100Y-90912000D01*
X186644800Y-88646700D02*
X186644800Y-89145100D01*
X186644800Y-89145100D02*
X184877900Y-90912000D01*
X193800000Y-81831400D02*
X189768600Y-81831400D01*
X186245800Y-85354200D02*
X186245800Y-88247700D01*
X189768600Y-81831400D02*
X186245800Y-85354200D01*
X184040100Y-90912000D02*
X183696300Y-90568200D01*
%TO.N,USB_D_N*%
X208200000Y-97100000D02*
X208200000Y-99977000D01*
X201909600Y-90809600D02*
X208200000Y-97100000D01*
X208200000Y-99977000D02*
X211900000Y-103677000D01*
X201016700Y-90809600D02*
X201909600Y-90809600D01*
X211900000Y-103677000D02*
X211900000Y-108400000D01*
D21*
%TO.N,VUSB*%
X197000000Y-121768300D02*
X197000000Y-120800000D01*
X198120000Y-122888300D02*
X197000000Y-121768300D01*
X198120000Y-124460000D02*
X198120000Y-122888300D01*
X198774000Y-120300000D02*
X208074000Y-111000000D01*
X208074000Y-111000000D02*
X215400000Y-111000000D01*
X197500000Y-120300000D02*
X198774000Y-120300000D01*
X197000000Y-120800000D02*
X197500000Y-120300000D01*
D20*
%TO.N,P501_SCI1_TXD*%
X190578700Y-92886800D02*
X191235100Y-92230400D01*
X201550100Y-102790100D02*
X203665000Y-104905000D01*
X191235100Y-92230400D02*
X198244100Y-92230400D01*
X198244100Y-92230400D02*
X201550100Y-95536400D01*
X201550100Y-95536400D02*
X201550100Y-102790100D01*
%TO.N,P502_SCI1_RXD*%
X190098400Y-91282500D02*
X189918400Y-91102500D01*
X188340200Y-93047700D02*
X188340100Y-93047700D01*
X199990100Y-92210600D02*
X199990100Y-92196400D01*
X199517400Y-91723700D02*
X192136600Y-91723700D01*
X199990100Y-92196400D02*
X199517400Y-91723700D01*
X192136600Y-91723700D02*
X191326000Y-90913100D01*
X190827600Y-90913100D02*
X190458200Y-91282500D01*
X190458200Y-91282500D02*
X190098400Y-91282500D01*
X189419100Y-91102500D02*
X188340200Y-92181400D01*
X188340200Y-92181400D02*
X188340200Y-93047700D01*
X204145600Y-99393600D02*
X204145600Y-96366100D01*
X189918400Y-91102500D02*
X189419100Y-91102500D01*
X204145600Y-96366100D02*
X199990100Y-92210600D01*
X191326000Y-90913100D02*
X190827600Y-90913100D01*
%TO.N,Net-(IC1-P500)*%
X180415600Y-89294800D02*
X183912300Y-92791500D01*
X175249600Y-89294800D02*
X180415600Y-89294800D01*
%TO.N,RESET*%
X185420000Y-122980000D02*
X185420000Y-124460000D01*
X205779000Y-105749000D02*
X205779000Y-108115700D01*
X205779000Y-108115700D02*
X191394700Y-122500000D01*
X191394700Y-122500000D02*
X185900000Y-122500000D01*
X204935000Y-104905000D02*
X205779000Y-105749000D01*
X185900000Y-122500000D02*
X185420000Y-122980000D01*
%TO.N,P300_SWCLK*%
X197964100Y-88765800D02*
X193608100Y-88765800D01*
X200993500Y-91795200D02*
X197964100Y-88765800D01*
X193608100Y-88765800D02*
X193484100Y-88641800D01*
%TO.N,WISUN_TX_Serial1*%
X206143800Y-91218500D02*
X204984400Y-90059100D01*
X200151900Y-90059100D02*
X198218100Y-88125300D01*
X198218100Y-88125300D02*
X195528400Y-88125300D01*
X204984400Y-90059100D02*
X200151900Y-90059100D01*
%TD*%
%TA.AperFunction,Conductor*%
%TO.N,GND*%
G36*
X218441065Y-74160819D02*
G01*
X218694498Y-74179073D01*
X218710412Y-74181263D01*
X218955966Y-74231455D01*
X218971460Y-74235685D01*
X219208470Y-74317225D01*
X219223283Y-74323422D01*
X219447750Y-74434936D01*
X219461643Y-74443001D01*
X219491615Y-74463104D01*
X219669788Y-74582609D01*
X219682530Y-74592410D01*
X219870863Y-74757770D01*
X219882229Y-74769136D01*
X220047589Y-74957469D01*
X220057390Y-74970211D01*
X220196997Y-75178354D01*
X220205066Y-75192254D01*
X220296493Y-75376289D01*
X220316572Y-75416705D01*
X220322776Y-75431535D01*
X220404312Y-75668531D01*
X220408545Y-75684038D01*
X220458735Y-75929582D01*
X220460927Y-75945507D01*
X220479180Y-76198926D01*
X220479500Y-76207834D01*
X220479500Y-88933310D01*
X220459815Y-89000349D01*
X220407011Y-89046104D01*
X220337853Y-89056048D01*
X220275796Y-89028301D01*
X220244518Y-89002056D01*
X219952538Y-88810019D01*
X219640260Y-88653185D01*
X219640254Y-88653183D01*
X219311869Y-88533661D01*
X219311866Y-88533660D01*
X218971828Y-88453070D01*
X218624723Y-88412500D01*
X218275277Y-88412500D01*
X217928172Y-88453070D01*
X217928170Y-88453070D01*
X217588133Y-88533660D01*
X217588130Y-88533661D01*
X217259745Y-88653183D01*
X217259739Y-88653185D01*
X216947461Y-88810019D01*
X216655480Y-89002057D01*
X216512819Y-89121764D01*
X216512818Y-89121765D01*
X217509301Y-90118248D01*
X217407670Y-90192088D01*
X217229588Y-90370170D01*
X217155748Y-90471801D01*
X216156148Y-89472201D01*
X216156147Y-89472202D01*
X216147976Y-89480863D01*
X216147972Y-89480868D01*
X215992875Y-89689199D01*
X215937052Y-89731218D01*
X215867374Y-89736386D01*
X215805963Y-89703064D01*
X215799699Y-89696353D01*
X215735279Y-89622008D01*
X215735278Y-89622007D01*
X215614203Y-89544197D01*
X215614201Y-89544196D01*
X215614199Y-89544195D01*
X215614200Y-89544195D01*
X215476113Y-89503650D01*
X215476111Y-89503650D01*
X215332189Y-89503650D01*
X215332186Y-89503650D01*
X215194099Y-89544195D01*
X215073023Y-89622006D01*
X214978773Y-89730776D01*
X214978772Y-89730778D01*
X214918984Y-89861693D01*
X214898503Y-90004150D01*
X214918984Y-90146606D01*
X214963286Y-90243611D01*
X214978773Y-90277523D01*
X215073022Y-90386293D01*
X215194097Y-90464103D01*
X215194100Y-90464104D01*
X215194099Y-90464104D01*
X215301257Y-90495567D01*
X215320599Y-90501247D01*
X215332186Y-90504649D01*
X215332188Y-90504650D01*
X215423673Y-90504650D01*
X215490712Y-90524335D01*
X215536467Y-90577139D01*
X215546411Y-90646297D01*
X215542464Y-90664213D01*
X215525917Y-90719483D01*
X215525914Y-90719497D01*
X215465236Y-91063619D01*
X215465235Y-91063630D01*
X215444916Y-91412496D01*
X215444916Y-91412503D01*
X215465235Y-91761369D01*
X215465236Y-91761380D01*
X215525914Y-92105502D01*
X215525916Y-92105511D01*
X215626145Y-92440300D01*
X215764555Y-92761170D01*
X215764561Y-92761183D01*
X215939289Y-93063822D01*
X216147967Y-93344125D01*
X216156148Y-93352796D01*
X217155747Y-92353197D01*
X217229588Y-92454830D01*
X217407670Y-92632912D01*
X217509300Y-92706750D01*
X216512818Y-93703233D01*
X216512819Y-93703234D01*
X216655484Y-93822945D01*
X216947461Y-94014980D01*
X217259739Y-94171814D01*
X217259745Y-94171816D01*
X217588130Y-94291338D01*
X217588133Y-94291339D01*
X217928171Y-94371929D01*
X218275276Y-94412499D01*
X218275277Y-94412500D01*
X218624723Y-94412500D01*
X218624723Y-94412499D01*
X218971827Y-94371929D01*
X218971829Y-94371929D01*
X219311866Y-94291339D01*
X219311869Y-94291338D01*
X219640254Y-94171816D01*
X219640260Y-94171814D01*
X219952538Y-94014980D01*
X220244520Y-93822941D01*
X220275793Y-93796700D01*
X220339800Y-93768686D01*
X220408793Y-93779724D01*
X220460865Y-93826310D01*
X220479500Y-93891688D01*
X220479500Y-95195500D01*
X220459815Y-95262539D01*
X220407011Y-95308294D01*
X220355500Y-95319500D01*
X217160247Y-95319500D01*
X217101770Y-95331131D01*
X217101769Y-95331132D01*
X217035447Y-95375447D01*
X216991132Y-95441769D01*
X216991131Y-95441770D01*
X216979500Y-95500247D01*
X216979500Y-97523444D01*
X216959815Y-97590483D01*
X216929811Y-97622710D01*
X216822812Y-97702809D01*
X216822809Y-97702812D01*
X216736649Y-97817906D01*
X216736645Y-97817913D01*
X216686403Y-97952620D01*
X216686401Y-97952627D01*
X216680000Y-98012155D01*
X216680000Y-98810000D01*
X218016988Y-98810000D01*
X217984075Y-98867007D01*
X217950000Y-98994174D01*
X217950000Y-99125826D01*
X217984075Y-99252993D01*
X218016988Y-99310000D01*
X216680000Y-99310000D01*
X216680000Y-100107844D01*
X216686401Y-100167372D01*
X216686403Y-100167379D01*
X216736645Y-100302086D01*
X216736649Y-100302093D01*
X216822809Y-100417187D01*
X216822812Y-100417190D01*
X216929811Y-100497290D01*
X216971682Y-100553223D01*
X216979500Y-100596556D01*
X216979500Y-102619752D01*
X216991131Y-102678229D01*
X216991132Y-102678230D01*
X217035447Y-102744552D01*
X217101769Y-102788867D01*
X217101770Y-102788868D01*
X217160247Y-102800499D01*
X217160250Y-102800500D01*
X217160252Y-102800500D01*
X219700252Y-102800500D01*
X220355500Y-102800500D01*
X220422539Y-102820185D01*
X220468294Y-102872989D01*
X220479500Y-102924500D01*
X220479500Y-116891788D01*
X220459815Y-116958827D01*
X220407011Y-117004582D01*
X220337853Y-117014526D01*
X220275795Y-116986778D01*
X220219518Y-116939557D01*
X219927538Y-116747519D01*
X219615260Y-116590685D01*
X219615254Y-116590683D01*
X219286869Y-116471161D01*
X219286866Y-116471160D01*
X218946828Y-116390570D01*
X218599723Y-116350000D01*
X218250277Y-116350000D01*
X217903172Y-116390570D01*
X217903170Y-116390570D01*
X217563133Y-116471160D01*
X217563130Y-116471161D01*
X217234745Y-116590683D01*
X217234739Y-116590685D01*
X216922461Y-116747519D01*
X216630480Y-116939557D01*
X216487819Y-117059264D01*
X216487818Y-117059265D01*
X217484301Y-118055748D01*
X217382670Y-118129588D01*
X217204588Y-118307670D01*
X217130748Y-118409301D01*
X216131148Y-117409701D01*
X216131147Y-117409702D01*
X216122976Y-117418363D01*
X216122972Y-117418368D01*
X215914289Y-117698677D01*
X215739561Y-118001316D01*
X215739555Y-118001329D01*
X215601145Y-118322199D01*
X215500916Y-118656988D01*
X215500914Y-118656997D01*
X215440236Y-119001119D01*
X215440235Y-119001130D01*
X215419916Y-119349996D01*
X215419916Y-119350003D01*
X215440235Y-119698869D01*
X215440236Y-119698880D01*
X215500914Y-120043002D01*
X215500916Y-120043011D01*
X215601145Y-120377800D01*
X215739555Y-120698670D01*
X215739561Y-120698683D01*
X215914289Y-121001322D01*
X216122967Y-121281625D01*
X216131148Y-121290296D01*
X217130747Y-120290697D01*
X217204588Y-120392330D01*
X217382670Y-120570412D01*
X217484300Y-120644250D01*
X216487818Y-121640733D01*
X216487819Y-121640734D01*
X216630484Y-121760445D01*
X216922461Y-121952480D01*
X217234739Y-122109314D01*
X217234745Y-122109316D01*
X217563130Y-122228838D01*
X217563133Y-122228839D01*
X217903171Y-122309429D01*
X218250276Y-122349999D01*
X218250277Y-122350000D01*
X218599723Y-122350000D01*
X218599723Y-122349999D01*
X218946827Y-122309429D01*
X218946829Y-122309429D01*
X219286866Y-122228839D01*
X219286869Y-122228838D01*
X219615254Y-122109316D01*
X219615260Y-122109314D01*
X219927538Y-121952480D01*
X220219515Y-121760445D01*
X220275794Y-121713222D01*
X220339802Y-121685209D01*
X220408794Y-121696248D01*
X220460866Y-121742834D01*
X220479500Y-121808211D01*
X220479500Y-124455933D01*
X220479235Y-124464043D01*
X220462583Y-124718104D01*
X220460465Y-124734186D01*
X220411591Y-124979888D01*
X220407393Y-124995554D01*
X220326864Y-125232786D01*
X220320657Y-125247772D01*
X220209853Y-125472460D01*
X220201743Y-125486507D01*
X220062559Y-125694811D01*
X220052685Y-125707679D01*
X219887502Y-125896033D01*
X219876033Y-125907502D01*
X219687679Y-126072685D01*
X219674811Y-126082559D01*
X219466507Y-126221743D01*
X219452460Y-126229853D01*
X219227772Y-126340657D01*
X219212786Y-126346864D01*
X218975554Y-126427393D01*
X218959888Y-126431591D01*
X218753168Y-126472711D01*
X218714185Y-126480465D01*
X218698104Y-126482583D01*
X218444063Y-126499232D01*
X218435920Y-126499497D01*
X217224466Y-126499161D01*
X217157432Y-126479458D01*
X217111691Y-126426641D01*
X217100500Y-126375161D01*
X217100500Y-123170249D01*
X217100499Y-123170247D01*
X217088868Y-123111770D01*
X217088867Y-123111769D01*
X217044552Y-123045447D01*
X216978230Y-123001132D01*
X216978229Y-123001131D01*
X216919752Y-122989500D01*
X216919748Y-122989500D01*
X214880252Y-122989500D01*
X214880247Y-122989500D01*
X214821770Y-123001131D01*
X214821769Y-123001132D01*
X214755447Y-123045447D01*
X214733102Y-123078890D01*
X214679489Y-123123695D01*
X214610164Y-123132402D01*
X214547137Y-123102247D01*
X214526898Y-123078890D01*
X214504552Y-123045447D01*
X214438230Y-123001132D01*
X214438229Y-123001131D01*
X214379752Y-122989500D01*
X214379748Y-122989500D01*
X212340252Y-122989500D01*
X212340247Y-122989500D01*
X212281770Y-123001131D01*
X212281769Y-123001132D01*
X212215447Y-123045447D01*
X212193102Y-123078890D01*
X212139489Y-123123695D01*
X212070164Y-123132402D01*
X212007137Y-123102247D01*
X211986898Y-123078890D01*
X211964552Y-123045447D01*
X211898230Y-123001132D01*
X211898229Y-123001131D01*
X211839752Y-122989500D01*
X211839748Y-122989500D01*
X209800252Y-122989500D01*
X209800247Y-122989500D01*
X209741770Y-123001131D01*
X209741769Y-123001132D01*
X209675447Y-123045447D01*
X209653102Y-123078890D01*
X209599489Y-123123695D01*
X209530164Y-123132402D01*
X209467137Y-123102247D01*
X209446898Y-123078890D01*
X209424552Y-123045447D01*
X209358230Y-123001132D01*
X209358229Y-123001131D01*
X209299752Y-122989500D01*
X209299748Y-122989500D01*
X207260252Y-122989500D01*
X207260247Y-122989500D01*
X207201770Y-123001131D01*
X207201769Y-123001132D01*
X207135447Y-123045447D01*
X207113102Y-123078890D01*
X207059489Y-123123695D01*
X206990164Y-123132402D01*
X206927137Y-123102247D01*
X206906898Y-123078890D01*
X206884552Y-123045447D01*
X206818230Y-123001132D01*
X206818229Y-123001131D01*
X206759752Y-122989500D01*
X206759748Y-122989500D01*
X206164500Y-122989500D01*
X206097461Y-122969815D01*
X206051706Y-122917011D01*
X206040500Y-122865500D01*
X206040500Y-122500439D01*
X206040500Y-122500438D01*
X206020021Y-122424011D01*
X206020017Y-122424004D01*
X205980464Y-122355495D01*
X205980458Y-122355487D01*
X205684510Y-122059539D01*
X205679782Y-122056810D01*
X205679779Y-122056808D01*
X205615991Y-122019980D01*
X205615990Y-122019979D01*
X205590513Y-122013152D01*
X205539562Y-121999500D01*
X205539560Y-121999500D01*
X200057853Y-121999500D01*
X199990814Y-121979815D01*
X199964140Y-121956703D01*
X199960481Y-121952480D01*
X199926278Y-121913007D01*
X199805203Y-121835197D01*
X199805201Y-121835196D01*
X199805199Y-121835195D01*
X199805200Y-121835195D01*
X199667113Y-121794650D01*
X199667111Y-121794650D01*
X199523189Y-121794650D01*
X199523186Y-121794650D01*
X199385099Y-121835195D01*
X199264023Y-121913006D01*
X199169773Y-122021776D01*
X199169772Y-122021778D01*
X199109984Y-122152693D01*
X199089503Y-122295150D01*
X199109984Y-122437606D01*
X199139431Y-122502085D01*
X199169773Y-122568523D01*
X199264022Y-122677293D01*
X199385097Y-122755103D01*
X199385100Y-122755104D01*
X199385099Y-122755104D01*
X199523039Y-122795606D01*
X199581817Y-122833380D01*
X199610843Y-122896935D01*
X199600900Y-122966094D01*
X199556997Y-123017684D01*
X199515448Y-123045446D01*
X199493102Y-123078890D01*
X199439489Y-123123695D01*
X199370164Y-123132402D01*
X199307137Y-123102247D01*
X199286898Y-123078890D01*
X199264552Y-123045447D01*
X199198230Y-123001132D01*
X199198229Y-123001131D01*
X199139752Y-122989500D01*
X199139748Y-122989500D01*
X198644500Y-122989500D01*
X198577461Y-122969815D01*
X198531706Y-122917011D01*
X198520500Y-122865500D01*
X198520500Y-122835575D01*
X198520500Y-122835573D01*
X198505615Y-122780021D01*
X198505025Y-122777819D01*
X198493208Y-122733713D01*
X198467970Y-122690001D01*
X198440480Y-122642387D01*
X198152874Y-122354781D01*
X198119389Y-122293458D01*
X198124373Y-122223766D01*
X198166245Y-122167833D01*
X198231709Y-122143416D01*
X198240555Y-122143100D01*
X198354162Y-122143100D01*
X198354162Y-122143099D01*
X198461321Y-122111635D01*
X198492250Y-122102554D01*
X198492250Y-122102553D01*
X198492253Y-122102553D01*
X198613328Y-122024743D01*
X198707577Y-121915973D01*
X198767365Y-121785057D01*
X198787847Y-121642600D01*
X198767365Y-121500143D01*
X198707577Y-121369227D01*
X198613328Y-121260457D01*
X198492253Y-121182647D01*
X198492251Y-121182646D01*
X198492249Y-121182645D01*
X198492250Y-121182645D01*
X198354163Y-121142100D01*
X198354161Y-121142100D01*
X198210239Y-121142100D01*
X198210236Y-121142100D01*
X198072149Y-121182645D01*
X197951073Y-121260456D01*
X197856823Y-121369226D01*
X197856822Y-121369228D01*
X197797034Y-121500143D01*
X197776553Y-121642600D01*
X197776553Y-121642602D01*
X197779930Y-121666092D01*
X197769986Y-121735250D01*
X197724230Y-121788053D01*
X197657190Y-121807737D01*
X197590151Y-121788052D01*
X197569511Y-121771418D01*
X197436819Y-121638726D01*
X197403334Y-121577403D01*
X197400500Y-121551045D01*
X197400500Y-121017254D01*
X197420185Y-120950215D01*
X197436819Y-120929573D01*
X197629573Y-120736819D01*
X197690896Y-120703334D01*
X197717254Y-120700500D01*
X198826725Y-120700500D01*
X198826727Y-120700500D01*
X198928588Y-120673207D01*
X199019913Y-120620480D01*
X201740393Y-117900000D01*
X206694353Y-117900000D01*
X206714834Y-118042456D01*
X206754627Y-118129588D01*
X206774623Y-118173373D01*
X206868872Y-118282143D01*
X206989947Y-118359953D01*
X206989950Y-118359954D01*
X206989949Y-118359954D01*
X207128036Y-118400499D01*
X207128038Y-118400500D01*
X207128039Y-118400500D01*
X207271962Y-118400500D01*
X207271962Y-118400499D01*
X207410053Y-118359953D01*
X207531128Y-118282143D01*
X207625377Y-118173373D01*
X207685165Y-118042457D01*
X207705647Y-117900000D01*
X207685165Y-117757543D01*
X207625377Y-117626627D01*
X207531128Y-117517857D01*
X207410053Y-117440047D01*
X207410051Y-117440046D01*
X207410049Y-117440045D01*
X207410050Y-117440045D01*
X207271963Y-117399500D01*
X207271961Y-117399500D01*
X207128039Y-117399500D01*
X207128036Y-117399500D01*
X206989949Y-117440045D01*
X206868873Y-117517856D01*
X206774623Y-117626626D01*
X206774622Y-117626628D01*
X206714834Y-117757543D01*
X206694353Y-117900000D01*
X201740393Y-117900000D01*
X204652993Y-114987400D01*
X205815353Y-114987400D01*
X205835834Y-115129856D01*
X205887258Y-115242456D01*
X205895623Y-115260773D01*
X205989872Y-115369543D01*
X206110947Y-115447353D01*
X206110950Y-115447354D01*
X206110949Y-115447354D01*
X206249036Y-115487899D01*
X206249038Y-115487900D01*
X206249039Y-115487900D01*
X206392962Y-115487900D01*
X206392962Y-115487899D01*
X206531053Y-115447353D01*
X206652128Y-115369543D01*
X206746377Y-115260773D01*
X206806165Y-115129857D01*
X206826647Y-114987400D01*
X206806165Y-114844943D01*
X206746377Y-114714027D01*
X206652128Y-114605257D01*
X206531053Y-114527447D01*
X206531051Y-114527446D01*
X206531049Y-114527445D01*
X206531050Y-114527445D01*
X206392963Y-114486900D01*
X206392961Y-114486900D01*
X206249039Y-114486900D01*
X206249036Y-114486900D01*
X206110949Y-114527445D01*
X205989873Y-114605256D01*
X205895623Y-114714026D01*
X205895622Y-114714028D01*
X205835834Y-114844943D01*
X205815353Y-114987400D01*
X204652993Y-114987400D01*
X205995394Y-113644999D01*
X211800884Y-113644999D01*
X211800885Y-113645000D01*
X212708012Y-113645000D01*
X212690795Y-113654940D01*
X212634940Y-113710795D01*
X212595444Y-113779204D01*
X212575000Y-113855504D01*
X212575000Y-113934496D01*
X212595444Y-114010796D01*
X212634940Y-114079205D01*
X212690795Y-114135060D01*
X212708012Y-114145000D01*
X211800885Y-114145000D01*
X211802085Y-114152584D01*
X211855591Y-114317255D01*
X211934195Y-114471524D01*
X212035967Y-114611602D01*
X212158397Y-114734032D01*
X212298475Y-114835804D01*
X212452742Y-114914408D01*
X212617415Y-114967914D01*
X212788429Y-114995000D01*
X213125000Y-114995000D01*
X213125000Y-114195000D01*
X213625000Y-114195000D01*
X213625000Y-114995000D01*
X213961565Y-114995000D01*
X213962009Y-114994965D01*
X213962176Y-114995000D01*
X213966444Y-114995000D01*
X213966444Y-114995896D01*
X214030387Y-115009323D01*
X214080149Y-115058370D01*
X214094487Y-115100935D01*
X214114834Y-115242456D01*
X214172874Y-115369543D01*
X214174623Y-115373373D01*
X214268872Y-115482143D01*
X214389947Y-115559953D01*
X214389950Y-115559954D01*
X214389949Y-115559954D01*
X214528036Y-115600499D01*
X214528038Y-115600500D01*
X214528039Y-115600500D01*
X214671962Y-115600500D01*
X214671962Y-115600499D01*
X214810053Y-115559953D01*
X214931128Y-115482143D01*
X215025377Y-115373373D01*
X215085165Y-115242457D01*
X215105647Y-115100000D01*
X215085165Y-114957543D01*
X215025377Y-114826627D01*
X214931128Y-114717857D01*
X214840956Y-114659907D01*
X214795203Y-114607105D01*
X214785259Y-114537947D01*
X214807681Y-114482704D01*
X214815804Y-114471523D01*
X214894408Y-114317255D01*
X214947914Y-114152584D01*
X214949115Y-114145000D01*
X214041988Y-114145000D01*
X214059205Y-114135060D01*
X214115060Y-114079205D01*
X214154556Y-114010796D01*
X214175000Y-113934496D01*
X214175000Y-113855504D01*
X214154556Y-113779204D01*
X214115060Y-113710795D01*
X214059205Y-113654940D01*
X214041988Y-113645000D01*
X214949115Y-113645000D01*
X214949115Y-113644999D01*
X216900884Y-113644999D01*
X216900885Y-113645000D01*
X217808012Y-113645000D01*
X217790795Y-113654940D01*
X217734940Y-113710795D01*
X217695444Y-113779204D01*
X217675000Y-113855504D01*
X217675000Y-113934496D01*
X217695444Y-114010796D01*
X217734940Y-114079205D01*
X217790795Y-114135060D01*
X217808012Y-114145000D01*
X216900885Y-114145000D01*
X216902085Y-114152584D01*
X216955591Y-114317255D01*
X217034195Y-114471524D01*
X217135967Y-114611602D01*
X217258397Y-114734032D01*
X217398475Y-114835804D01*
X217552742Y-114914408D01*
X217717415Y-114967914D01*
X217888429Y-114995000D01*
X218225000Y-114995000D01*
X218225000Y-114195000D01*
X218725000Y-114195000D01*
X218725000Y-114995000D01*
X219061571Y-114995000D01*
X219232584Y-114967914D01*
X219397257Y-114914408D01*
X219551524Y-114835804D01*
X219691602Y-114734032D01*
X219814032Y-114611602D01*
X219915804Y-114471524D01*
X219994408Y-114317255D01*
X220047914Y-114152584D01*
X220049115Y-114145000D01*
X219141988Y-114145000D01*
X219159205Y-114135060D01*
X219215060Y-114079205D01*
X219254556Y-114010796D01*
X219275000Y-113934496D01*
X219275000Y-113855504D01*
X219254556Y-113779204D01*
X219215060Y-113710795D01*
X219159205Y-113654940D01*
X219141988Y-113645000D01*
X220049115Y-113645000D01*
X220049115Y-113644999D01*
X220047914Y-113637415D01*
X219994408Y-113472744D01*
X219915804Y-113318475D01*
X219814032Y-113178397D01*
X219691602Y-113055967D01*
X219551524Y-112954195D01*
X219397257Y-112875591D01*
X219232584Y-112822085D01*
X219061571Y-112795000D01*
X218725000Y-112795000D01*
X218725000Y-113595000D01*
X218225000Y-113595000D01*
X218225000Y-112795000D01*
X217888429Y-112795000D01*
X217717415Y-112822085D01*
X217552742Y-112875591D01*
X217398475Y-112954195D01*
X217258397Y-113055967D01*
X217135967Y-113178397D01*
X217034195Y-113318475D01*
X216955591Y-113472744D01*
X216902085Y-113637415D01*
X216900884Y-113644999D01*
X214949115Y-113644999D01*
X214947914Y-113637415D01*
X214894408Y-113472744D01*
X214815804Y-113318475D01*
X214714032Y-113178397D01*
X214591602Y-113055967D01*
X214451524Y-112954195D01*
X214297257Y-112875591D01*
X214132584Y-112822085D01*
X213961571Y-112795000D01*
X213625000Y-112795000D01*
X213625000Y-113595000D01*
X213125000Y-113595000D01*
X213125000Y-112795000D01*
X212788429Y-112795000D01*
X212617415Y-112822085D01*
X212452742Y-112875591D01*
X212298475Y-112954195D01*
X212158397Y-113055967D01*
X212035967Y-113178397D01*
X211934195Y-113318475D01*
X211855591Y-113472744D01*
X211802085Y-113637415D01*
X211800884Y-113644999D01*
X205995394Y-113644999D01*
X208203574Y-111436819D01*
X208264897Y-111403334D01*
X208291255Y-111400500D01*
X215061026Y-111400500D01*
X215128064Y-111420184D01*
X215189949Y-111459954D01*
X215328036Y-111500499D01*
X215328038Y-111500500D01*
X215328039Y-111500500D01*
X215471962Y-111500500D01*
X215471962Y-111500499D01*
X215579121Y-111469035D01*
X215610050Y-111459954D01*
X215610050Y-111459953D01*
X215610053Y-111459953D01*
X215731128Y-111382143D01*
X215825377Y-111273373D01*
X215885165Y-111142457D01*
X215905647Y-111000000D01*
X215885165Y-110857543D01*
X215825377Y-110726627D01*
X215731128Y-110617857D01*
X215731125Y-110617855D01*
X215731123Y-110617853D01*
X215617553Y-110544866D01*
X215571798Y-110492063D01*
X215561854Y-110422904D01*
X215590878Y-110359350D01*
X215665377Y-110273373D01*
X215725165Y-110142457D01*
X215745647Y-110000000D01*
X215725165Y-109857543D01*
X215665377Y-109726627D01*
X215571128Y-109617857D01*
X215450053Y-109540047D01*
X215450051Y-109540046D01*
X215450049Y-109540045D01*
X215450050Y-109540045D01*
X215311963Y-109499500D01*
X215311961Y-109499500D01*
X215168039Y-109499500D01*
X215168036Y-109499500D01*
X215029949Y-109540045D01*
X214908873Y-109617856D01*
X214814622Y-109726627D01*
X214754834Y-109857543D01*
X214734353Y-110000000D01*
X214754834Y-110142456D01*
X214776695Y-110190324D01*
X214814623Y-110273373D01*
X214908872Y-110382143D01*
X214908873Y-110382143D01*
X214914680Y-110388845D01*
X214913598Y-110389781D01*
X214946236Y-110440565D01*
X214946236Y-110510434D01*
X214908462Y-110569213D01*
X214844907Y-110598238D01*
X214827259Y-110599500D01*
X212160725Y-110599500D01*
X212093686Y-110579815D01*
X212047931Y-110527011D01*
X212037987Y-110457853D01*
X212047931Y-110423989D01*
X212080353Y-110352993D01*
X212085165Y-110342457D01*
X212105647Y-110200000D01*
X212085165Y-110057543D01*
X212025377Y-109926627D01*
X211931128Y-109817857D01*
X211810053Y-109740047D01*
X211810051Y-109740046D01*
X211810049Y-109740045D01*
X211810050Y-109740045D01*
X211671963Y-109699500D01*
X211671961Y-109699500D01*
X211528039Y-109699500D01*
X211528036Y-109699500D01*
X211389949Y-109740045D01*
X211268873Y-109817856D01*
X211174623Y-109926626D01*
X211174622Y-109926628D01*
X211114834Y-110057543D01*
X211094353Y-110200000D01*
X211114834Y-110342457D01*
X211114835Y-110342458D01*
X211152069Y-110423989D01*
X211162013Y-110493147D01*
X211132988Y-110556703D01*
X211074210Y-110594477D01*
X211039275Y-110599500D01*
X208021273Y-110599500D01*
X207919410Y-110626793D01*
X207828087Y-110679520D01*
X207828084Y-110679522D01*
X198644426Y-119863181D01*
X198583103Y-119896666D01*
X198556745Y-119899500D01*
X197447273Y-119899500D01*
X197345412Y-119926793D01*
X197345409Y-119926794D01*
X197299750Y-119953155D01*
X197299750Y-119953156D01*
X197254087Y-119979520D01*
X197254084Y-119979522D01*
X196679522Y-120554084D01*
X196679518Y-120554090D01*
X196626792Y-120645412D01*
X196626793Y-120645413D01*
X196599500Y-120747273D01*
X196599500Y-121821026D01*
X196626793Y-121922889D01*
X196643878Y-121952480D01*
X196679520Y-122014213D01*
X196679522Y-122014215D01*
X197443126Y-122777819D01*
X197476611Y-122839142D01*
X197471627Y-122908834D01*
X197429755Y-122964767D01*
X197364291Y-122989184D01*
X197355445Y-122989500D01*
X197116556Y-122989500D01*
X197049517Y-122969815D01*
X197017290Y-122939811D01*
X196937190Y-122832812D01*
X196937187Y-122832809D01*
X196822093Y-122746649D01*
X196822086Y-122746645D01*
X196687379Y-122696403D01*
X196687372Y-122696401D01*
X196627844Y-122690000D01*
X195830000Y-122690000D01*
X195830000Y-124026988D01*
X195772993Y-123994075D01*
X195645826Y-123960000D01*
X195514174Y-123960000D01*
X195387007Y-123994075D01*
X195330000Y-124026988D01*
X195330000Y-122690000D01*
X194532155Y-122690000D01*
X194472627Y-122696401D01*
X194472619Y-122696403D01*
X194353333Y-122740894D01*
X194283641Y-122745878D01*
X194266667Y-122740894D01*
X194147380Y-122696403D01*
X194147372Y-122696401D01*
X194087844Y-122690000D01*
X193290000Y-122690000D01*
X193290000Y-124026988D01*
X193232993Y-123994075D01*
X193105826Y-123960000D01*
X192974174Y-123960000D01*
X192847007Y-123994075D01*
X192790000Y-124026988D01*
X192790000Y-122690000D01*
X191992172Y-122690000D01*
X191992153Y-122690001D01*
X191935482Y-122696094D01*
X191866723Y-122683689D01*
X191815585Y-122636079D01*
X191798306Y-122568380D01*
X191820371Y-122502085D01*
X191834540Y-122485130D01*
X206019460Y-108300211D01*
X206027869Y-108285646D01*
X206059021Y-108231689D01*
X206079500Y-108155262D01*
X206079500Y-105709438D01*
X206059021Y-105633011D01*
X206048094Y-105614084D01*
X206019464Y-105564495D01*
X206019458Y-105564487D01*
X205669645Y-105214674D01*
X205636160Y-105153351D01*
X205640285Y-105086036D01*
X205646786Y-105067461D01*
X205652585Y-105015991D01*
X205665091Y-104905003D01*
X205665091Y-104904996D01*
X205646787Y-104742544D01*
X205646786Y-104742542D01*
X205646786Y-104742539D01*
X205592789Y-104588225D01*
X205505808Y-104449796D01*
X205390204Y-104334192D01*
X205363201Y-104317225D01*
X205251774Y-104247210D01*
X205097455Y-104193212D01*
X204935004Y-104174909D01*
X204934996Y-104174909D01*
X204772544Y-104193212D01*
X204618225Y-104247210D01*
X204479795Y-104334192D01*
X204387681Y-104426307D01*
X204326358Y-104459792D01*
X204256666Y-104454808D01*
X204212319Y-104426307D01*
X204120204Y-104334192D01*
X203981774Y-104247210D01*
X203827455Y-104193212D01*
X203665004Y-104174909D01*
X203664996Y-104174909D01*
X203502544Y-104193212D01*
X203502531Y-104193215D01*
X203483955Y-104199715D01*
X203414176Y-104203274D01*
X203355324Y-104170353D01*
X201886919Y-102701948D01*
X201853434Y-102640625D01*
X201850600Y-102614267D01*
X201850600Y-98216372D01*
X201870285Y-98149333D01*
X201923089Y-98103578D01*
X201992247Y-98093634D01*
X202055803Y-98122659D01*
X202087393Y-98164859D01*
X202127223Y-98252073D01*
X202221472Y-98360843D01*
X202342547Y-98438653D01*
X202342550Y-98438654D01*
X202342549Y-98438654D01*
X202418791Y-98461040D01*
X202468034Y-98475499D01*
X202480636Y-98479199D01*
X202480638Y-98479200D01*
X202480639Y-98479200D01*
X202624562Y-98479200D01*
X202624562Y-98479199D01*
X202762653Y-98438653D01*
X202883728Y-98360843D01*
X202977977Y-98252073D01*
X203037765Y-98121157D01*
X203058247Y-97978700D01*
X203037765Y-97836243D01*
X202977977Y-97705327D01*
X202883728Y-97596557D01*
X202762653Y-97518747D01*
X202762651Y-97518746D01*
X202762649Y-97518745D01*
X202762650Y-97518745D01*
X202624563Y-97478200D01*
X202624561Y-97478200D01*
X202480639Y-97478200D01*
X202480636Y-97478200D01*
X202342549Y-97518745D01*
X202221473Y-97596556D01*
X202221472Y-97596556D01*
X202221472Y-97596557D01*
X202209724Y-97610115D01*
X202127223Y-97705326D01*
X202127222Y-97705328D01*
X202087394Y-97792539D01*
X202041639Y-97845343D01*
X201974599Y-97865027D01*
X201907560Y-97845342D01*
X201861805Y-97792538D01*
X201850600Y-97741027D01*
X201850600Y-95496839D01*
X201830120Y-95420409D01*
X201830117Y-95420404D01*
X201790564Y-95351895D01*
X201790558Y-95351887D01*
X199429258Y-92990587D01*
X199395773Y-92929264D01*
X199400757Y-92859572D01*
X199442629Y-92803639D01*
X199469587Y-92790144D01*
X199469083Y-92789039D01*
X199477147Y-92785354D01*
X199477153Y-92785353D01*
X199598228Y-92707543D01*
X199692477Y-92598773D01*
X199692479Y-92598769D01*
X199700058Y-92582174D01*
X199745812Y-92529370D01*
X199812852Y-92509685D01*
X199879891Y-92529369D01*
X199900533Y-92546004D01*
X203808781Y-96454252D01*
X203842266Y-96515575D01*
X203845100Y-96541933D01*
X203845100Y-98929860D01*
X203825415Y-98996899D01*
X203814813Y-99011062D01*
X203720225Y-99120222D01*
X203720222Y-99120228D01*
X203660434Y-99251143D01*
X203639953Y-99393600D01*
X203660434Y-99536056D01*
X203700978Y-99624833D01*
X203720223Y-99666973D01*
X203814472Y-99775743D01*
X203935547Y-99853553D01*
X203935550Y-99853554D01*
X203935549Y-99853554D01*
X204073636Y-99894099D01*
X204073638Y-99894100D01*
X204073639Y-99894100D01*
X204217562Y-99894100D01*
X204217562Y-99894099D01*
X204324721Y-99862635D01*
X204355650Y-99853554D01*
X204355651Y-99853554D01*
X204391264Y-99830667D01*
X204401961Y-99823792D01*
X204468999Y-99804108D01*
X204536039Y-99823792D01*
X204581794Y-99876596D01*
X204593000Y-99928108D01*
X204593000Y-100124799D01*
X204573315Y-100191838D01*
X204520511Y-100237593D01*
X204451353Y-100247537D01*
X204434066Y-100243776D01*
X204337764Y-100215500D01*
X204337761Y-100215500D01*
X204193839Y-100215500D01*
X204193836Y-100215500D01*
X204055749Y-100256045D01*
X203934673Y-100333856D01*
X203840423Y-100442626D01*
X203840422Y-100442628D01*
X203780634Y-100573543D01*
X203760153Y-100716000D01*
X203780634Y-100858456D01*
X203822285Y-100949657D01*
X203840423Y-100989373D01*
X203934672Y-101098143D01*
X204055747Y-101175953D01*
X204055750Y-101175954D01*
X204055749Y-101175954D01*
X204142838Y-101201525D01*
X204191080Y-101215690D01*
X204193836Y-101216499D01*
X204193838Y-101216500D01*
X204193839Y-101216500D01*
X204337761Y-101216500D01*
X204434065Y-101188223D01*
X204503935Y-101188223D01*
X204562713Y-101225997D01*
X204591738Y-101289553D01*
X204593000Y-101307200D01*
X204593000Y-102330666D01*
X204573315Y-102397705D01*
X204556681Y-102418347D01*
X204411847Y-102563181D01*
X204350524Y-102596666D01*
X204324166Y-102599500D01*
X204228036Y-102599500D01*
X204089949Y-102640045D01*
X203968873Y-102717856D01*
X203874623Y-102826626D01*
X203874622Y-102826628D01*
X203814836Y-102957540D01*
X203814834Y-102957542D01*
X203794353Y-103100000D01*
X203814834Y-103242456D01*
X203863332Y-103348649D01*
X203874623Y-103373373D01*
X203968872Y-103482143D01*
X204089947Y-103559953D01*
X204089950Y-103559954D01*
X204089949Y-103559954D01*
X204228036Y-103600499D01*
X204228038Y-103600500D01*
X204228039Y-103600500D01*
X204371962Y-103600500D01*
X204371962Y-103600499D01*
X204510053Y-103559953D01*
X204631128Y-103482143D01*
X204725377Y-103373373D01*
X204785165Y-103242457D01*
X204805647Y-103100000D01*
X204804339Y-103090905D01*
X204814279Y-103021749D01*
X204839390Y-102985579D01*
X205133960Y-102691011D01*
X205173522Y-102622488D01*
X205194000Y-102546062D01*
X205194000Y-102466938D01*
X205194000Y-101717100D01*
X206208553Y-101717100D01*
X206229034Y-101859556D01*
X206276343Y-101963147D01*
X206288823Y-101990473D01*
X206383072Y-102099243D01*
X206504147Y-102177053D01*
X206504150Y-102177054D01*
X206504149Y-102177054D01*
X206642236Y-102217599D01*
X206642238Y-102217600D01*
X206642239Y-102217600D01*
X206786162Y-102217600D01*
X206786162Y-102217599D01*
X206893321Y-102186135D01*
X206924250Y-102177054D01*
X206924250Y-102177053D01*
X206924253Y-102177053D01*
X207045328Y-102099243D01*
X207139577Y-101990473D01*
X207199365Y-101859557D01*
X207219847Y-101717100D01*
X207199365Y-101574643D01*
X207139577Y-101443727D01*
X207045328Y-101334957D01*
X206924253Y-101257147D01*
X206924251Y-101257146D01*
X206924249Y-101257145D01*
X206924250Y-101257145D01*
X206786163Y-101216600D01*
X206786161Y-101216600D01*
X206642239Y-101216600D01*
X206642236Y-101216600D01*
X206504149Y-101257145D01*
X206383073Y-101334956D01*
X206288823Y-101443726D01*
X206288822Y-101443728D01*
X206229034Y-101574643D01*
X206208553Y-101717100D01*
X205194000Y-101717100D01*
X205194000Y-99250938D01*
X205173521Y-99174511D01*
X205142181Y-99120228D01*
X205133964Y-99105995D01*
X205133958Y-99105987D01*
X205084319Y-99056348D01*
X205050834Y-98995025D01*
X205048000Y-98968667D01*
X205048000Y-98573834D01*
X205067685Y-98506795D01*
X205120489Y-98461040D01*
X205189647Y-98451096D01*
X205206933Y-98454856D01*
X205224198Y-98459926D01*
X205277238Y-98475500D01*
X205277239Y-98475500D01*
X205421162Y-98475500D01*
X205421162Y-98475499D01*
X205528321Y-98444035D01*
X205559250Y-98434954D01*
X205559250Y-98434953D01*
X205559253Y-98434953D01*
X205680328Y-98357143D01*
X205774577Y-98248373D01*
X205834365Y-98117457D01*
X205854847Y-97975000D01*
X205834365Y-97832543D01*
X205774577Y-97701627D01*
X205680328Y-97592857D01*
X205559253Y-97515047D01*
X205559251Y-97515046D01*
X205559249Y-97515045D01*
X205559250Y-97515045D01*
X205421163Y-97474500D01*
X205421161Y-97474500D01*
X205277239Y-97474500D01*
X205277235Y-97474500D01*
X205206934Y-97495142D01*
X205137064Y-97495142D01*
X205078286Y-97457367D01*
X205049262Y-97393811D01*
X205048000Y-97376165D01*
X205048000Y-96360439D01*
X205044255Y-96346463D01*
X205027521Y-96284011D01*
X205009199Y-96252276D01*
X204987964Y-96215495D01*
X204987958Y-96215487D01*
X201205258Y-92432787D01*
X201171773Y-92371464D01*
X201176757Y-92301772D01*
X201218629Y-92245839D01*
X201225884Y-92240801D01*
X201324628Y-92177343D01*
X201418877Y-92068573D01*
X201478665Y-91937657D01*
X201499147Y-91795200D01*
X201478665Y-91652743D01*
X201418877Y-91521827D01*
X201324628Y-91413057D01*
X201324625Y-91413055D01*
X201317923Y-91407247D01*
X201319141Y-91405840D01*
X201280603Y-91361363D01*
X201270662Y-91292204D01*
X201299688Y-91228649D01*
X201326355Y-91205542D01*
X201347828Y-91191743D01*
X201381488Y-91152896D01*
X201440267Y-91115123D01*
X201475201Y-91110100D01*
X201733767Y-91110100D01*
X201800806Y-91129785D01*
X201821448Y-91146419D01*
X207863181Y-97188152D01*
X207896666Y-97249475D01*
X207899500Y-97275833D01*
X207899500Y-100016562D01*
X207899507Y-100016587D01*
X207919979Y-100092990D01*
X207919982Y-100092995D01*
X207959535Y-100161504D01*
X207959541Y-100161512D01*
X211563181Y-103765152D01*
X211596666Y-103826475D01*
X211599500Y-103852833D01*
X211599500Y-107936260D01*
X211579815Y-108003299D01*
X211569213Y-108017462D01*
X211474625Y-108126622D01*
X211474622Y-108126628D01*
X211414834Y-108257543D01*
X211394353Y-108400000D01*
X211414834Y-108542456D01*
X211468147Y-108659192D01*
X211474623Y-108673373D01*
X211568872Y-108782143D01*
X211689947Y-108859953D01*
X211689950Y-108859954D01*
X211689949Y-108859954D01*
X211828036Y-108900499D01*
X211828038Y-108900500D01*
X211828039Y-108900500D01*
X211971962Y-108900500D01*
X211971962Y-108900499D01*
X212110053Y-108859953D01*
X212231128Y-108782143D01*
X212325377Y-108673373D01*
X212385165Y-108542457D01*
X212405647Y-108400000D01*
X212385165Y-108257543D01*
X212325377Y-108126627D01*
X212325375Y-108126625D01*
X212325374Y-108126622D01*
X212230787Y-108017462D01*
X212201762Y-107953906D01*
X212200500Y-107936260D01*
X212200500Y-107900000D01*
X214994353Y-107900000D01*
X215014834Y-108042456D01*
X215053275Y-108126628D01*
X215074623Y-108173373D01*
X215168872Y-108282143D01*
X215289947Y-108359953D01*
X215289950Y-108359954D01*
X215289949Y-108359954D01*
X215397107Y-108391417D01*
X215426336Y-108400000D01*
X215428036Y-108400499D01*
X215428038Y-108400500D01*
X215428039Y-108400500D01*
X215571962Y-108400500D01*
X215571962Y-108400499D01*
X215710053Y-108359953D01*
X215831128Y-108282143D01*
X215925377Y-108173373D01*
X215985165Y-108042457D01*
X216005647Y-107900000D01*
X215985165Y-107757543D01*
X215925377Y-107626627D01*
X215831128Y-107517857D01*
X215710053Y-107440047D01*
X215710051Y-107440046D01*
X215710049Y-107440045D01*
X215710050Y-107440045D01*
X215571963Y-107399500D01*
X215571961Y-107399500D01*
X215428039Y-107399500D01*
X215428036Y-107399500D01*
X215289949Y-107440045D01*
X215168873Y-107517856D01*
X215074623Y-107626626D01*
X215074622Y-107626628D01*
X215014834Y-107757543D01*
X214994353Y-107900000D01*
X212200500Y-107900000D01*
X212200500Y-106348233D01*
X212220185Y-106281194D01*
X212272989Y-106235439D01*
X212342147Y-106225495D01*
X212380796Y-106237749D01*
X212452740Y-106274407D01*
X212617415Y-106327914D01*
X212788429Y-106355000D01*
X213125000Y-106355000D01*
X213125000Y-105555000D01*
X213625000Y-105555000D01*
X213625000Y-106355000D01*
X213961571Y-106355000D01*
X214132584Y-106327914D01*
X214297257Y-106274408D01*
X214451524Y-106195804D01*
X214591602Y-106094032D01*
X214714032Y-105971602D01*
X214815804Y-105831524D01*
X214894408Y-105677255D01*
X214947914Y-105512584D01*
X214949115Y-105505000D01*
X214041988Y-105505000D01*
X214059205Y-105495060D01*
X214115060Y-105439205D01*
X214154556Y-105370796D01*
X214175000Y-105294496D01*
X214175000Y-105215504D01*
X214154556Y-105139204D01*
X214115060Y-105070795D01*
X214059205Y-105014940D01*
X214041988Y-105005000D01*
X214949115Y-105005000D01*
X214949115Y-105004999D01*
X216900884Y-105004999D01*
X216900885Y-105005000D01*
X217808012Y-105005000D01*
X217790795Y-105014940D01*
X217734940Y-105070795D01*
X217695444Y-105139204D01*
X217675000Y-105215504D01*
X217675000Y-105294496D01*
X217695444Y-105370796D01*
X217734940Y-105439205D01*
X217790795Y-105495060D01*
X217808012Y-105505000D01*
X216900885Y-105505000D01*
X216902085Y-105512584D01*
X216955591Y-105677255D01*
X217034195Y-105831524D01*
X217135967Y-105971602D01*
X217258397Y-106094032D01*
X217398475Y-106195804D01*
X217552742Y-106274408D01*
X217717415Y-106327914D01*
X217888429Y-106355000D01*
X218225000Y-106355000D01*
X218225000Y-105555000D01*
X218725000Y-105555000D01*
X218725000Y-106355000D01*
X219061571Y-106355000D01*
X219232584Y-106327914D01*
X219397257Y-106274408D01*
X219551524Y-106195804D01*
X219691602Y-106094032D01*
X219814032Y-105971602D01*
X219915804Y-105831524D01*
X219994408Y-105677255D01*
X220047914Y-105512584D01*
X220049115Y-105505000D01*
X219141988Y-105505000D01*
X219159205Y-105495060D01*
X219215060Y-105439205D01*
X219254556Y-105370796D01*
X219275000Y-105294496D01*
X219275000Y-105215504D01*
X219254556Y-105139204D01*
X219215060Y-105070795D01*
X219159205Y-105014940D01*
X219141988Y-105005000D01*
X220049115Y-105005000D01*
X220049115Y-105004999D01*
X220047914Y-104997415D01*
X219994408Y-104832744D01*
X219915804Y-104678475D01*
X219814032Y-104538397D01*
X219691602Y-104415967D01*
X219551524Y-104314195D01*
X219397257Y-104235591D01*
X219232584Y-104182085D01*
X219061571Y-104155000D01*
X218725000Y-104155000D01*
X218725000Y-104955000D01*
X218225000Y-104955000D01*
X218225000Y-104155000D01*
X217888429Y-104155000D01*
X217717415Y-104182085D01*
X217552742Y-104235591D01*
X217398475Y-104314195D01*
X217258397Y-104415967D01*
X217135967Y-104538397D01*
X217034195Y-104678475D01*
X216955591Y-104832744D01*
X216902085Y-104997415D01*
X216900884Y-105004999D01*
X214949115Y-105004999D01*
X214947914Y-104997415D01*
X214894408Y-104832744D01*
X214815804Y-104678475D01*
X214714032Y-104538397D01*
X214591602Y-104415967D01*
X214451524Y-104314195D01*
X214297257Y-104235591D01*
X214132584Y-104182085D01*
X213961571Y-104155000D01*
X213625000Y-104155000D01*
X213625000Y-104955000D01*
X213125000Y-104955000D01*
X213125000Y-104155000D01*
X212788429Y-104155000D01*
X212617415Y-104182085D01*
X212452742Y-104235592D01*
X212380795Y-104272251D01*
X212312125Y-104285147D01*
X212247385Y-104258870D01*
X212207128Y-104201764D01*
X212200500Y-104161766D01*
X212200500Y-103637439D01*
X212180020Y-103561009D01*
X212180017Y-103561004D01*
X212140464Y-103492495D01*
X212140458Y-103492487D01*
X211720876Y-103072905D01*
X211687391Y-103011582D01*
X211692375Y-102941890D01*
X211734247Y-102885957D01*
X211776465Y-102865449D01*
X211859298Y-102843255D01*
X211859309Y-102843250D01*
X212059915Y-102749706D01*
X212125342Y-102703894D01*
X211562575Y-102141128D01*
X211621853Y-102125245D01*
X211738147Y-102058102D01*
X211833102Y-101963147D01*
X211900245Y-101846853D01*
X211916128Y-101787575D01*
X212478894Y-102350342D01*
X212524706Y-102284915D01*
X212618250Y-102084309D01*
X212618254Y-102084300D01*
X212675538Y-101870509D01*
X212675540Y-101870499D01*
X212694832Y-101650000D01*
X212694832Y-101649999D01*
X212675540Y-101429500D01*
X212675538Y-101429490D01*
X212618254Y-101215699D01*
X212618250Y-101215690D01*
X212524707Y-101015085D01*
X212524706Y-101015083D01*
X212478894Y-100949657D01*
X212478894Y-100949656D01*
X211916127Y-101512423D01*
X211900245Y-101453147D01*
X211833102Y-101336853D01*
X211738147Y-101241898D01*
X211621853Y-101174755D01*
X211562575Y-101158872D01*
X212125342Y-100596105D01*
X212125341Y-100596103D01*
X212059919Y-100550295D01*
X211859309Y-100456749D01*
X211859300Y-100456745D01*
X211645509Y-100399461D01*
X211645499Y-100399459D01*
X211425001Y-100380168D01*
X211424999Y-100380168D01*
X211204500Y-100399459D01*
X211204490Y-100399461D01*
X210990699Y-100456745D01*
X210990690Y-100456749D01*
X210790084Y-100550293D01*
X210724657Y-100596104D01*
X211287424Y-101158871D01*
X211228147Y-101174755D01*
X211111853Y-101241898D01*
X211016898Y-101336853D01*
X210949755Y-101453147D01*
X210933871Y-101512424D01*
X210371104Y-100949657D01*
X210325293Y-101015084D01*
X210231749Y-101215690D01*
X210231745Y-101215699D01*
X210209550Y-101298535D01*
X210173185Y-101358196D01*
X210110338Y-101388725D01*
X210040962Y-101380430D01*
X210002094Y-101354123D01*
X208536819Y-99888848D01*
X208503334Y-99827525D01*
X208500500Y-99801167D01*
X208500500Y-97240000D01*
X211732843Y-97240000D01*
X211751426Y-97428681D01*
X211756844Y-97446540D01*
X211806463Y-97610115D01*
X211806464Y-97610118D01*
X211806465Y-97610119D01*
X211806466Y-97610122D01*
X211895834Y-97777318D01*
X211895838Y-97777325D01*
X212016116Y-97923883D01*
X212162674Y-98044161D01*
X212162681Y-98044165D01*
X212329877Y-98133533D01*
X212329878Y-98133533D01*
X212329885Y-98133537D01*
X212511317Y-98188573D01*
X212511316Y-98188573D01*
X212528233Y-98190239D01*
X212700000Y-98207157D01*
X212888683Y-98188573D01*
X213070115Y-98133537D01*
X213237324Y-98044162D01*
X213383883Y-97923883D01*
X213504162Y-97777324D01*
X213593537Y-97610115D01*
X213648573Y-97428683D01*
X213667157Y-97240000D01*
X213648573Y-97051317D01*
X213593537Y-96869885D01*
X213592354Y-96867671D01*
X213504165Y-96702681D01*
X213504161Y-96702674D01*
X213383883Y-96556116D01*
X213237325Y-96435838D01*
X213237318Y-96435834D01*
X213070122Y-96346466D01*
X213070119Y-96346465D01*
X213070118Y-96346464D01*
X213070115Y-96346463D01*
X212888683Y-96291427D01*
X212888681Y-96291426D01*
X212888683Y-96291426D01*
X212700000Y-96272843D01*
X212511318Y-96291426D01*
X212414070Y-96320926D01*
X212329885Y-96346463D01*
X212329882Y-96346464D01*
X212329880Y-96346465D01*
X212329877Y-96346466D01*
X212162681Y-96435834D01*
X212162674Y-96435838D01*
X212016116Y-96556116D01*
X211895838Y-96702674D01*
X211895834Y-96702681D01*
X211806466Y-96869877D01*
X211806465Y-96869880D01*
X211806464Y-96869882D01*
X211806463Y-96869885D01*
X211792628Y-96915495D01*
X211751426Y-97051318D01*
X211732843Y-97240000D01*
X208500500Y-97240000D01*
X208500500Y-97060439D01*
X208498843Y-97054254D01*
X208480021Y-96984011D01*
X208441828Y-96917858D01*
X208440464Y-96915495D01*
X208440458Y-96915487D01*
X208381788Y-96856817D01*
X208348303Y-96795494D01*
X208353287Y-96725802D01*
X208395159Y-96669869D01*
X208402941Y-96665289D01*
X208402593Y-96664747D01*
X208410053Y-96659953D01*
X208531128Y-96582143D01*
X208625377Y-96473373D01*
X208685165Y-96342457D01*
X208705647Y-96200000D01*
X208685165Y-96057543D01*
X208625377Y-95926627D01*
X208531128Y-95817857D01*
X208410053Y-95740047D01*
X208410051Y-95740046D01*
X208410049Y-95740045D01*
X208410050Y-95740045D01*
X208271963Y-95699500D01*
X208271961Y-95699500D01*
X208128039Y-95699500D01*
X208128036Y-95699500D01*
X207989949Y-95740045D01*
X207868873Y-95817856D01*
X207774623Y-95926626D01*
X207747541Y-95985927D01*
X207701785Y-96038730D01*
X207634746Y-96058414D01*
X207567706Y-96038729D01*
X207547066Y-96022095D01*
X206224970Y-94699999D01*
X211433179Y-94699999D01*
X211433179Y-94700000D01*
X211452424Y-94919976D01*
X211452426Y-94919986D01*
X211509575Y-95133270D01*
X211509580Y-95133284D01*
X211602898Y-95333405D01*
X211602901Y-95333411D01*
X211648258Y-95398187D01*
X211648259Y-95398188D01*
X212217037Y-94829409D01*
X212234075Y-94892993D01*
X212299901Y-95007007D01*
X212392993Y-95100099D01*
X212507007Y-95165925D01*
X212570590Y-95182962D01*
X212001810Y-95751740D01*
X212066590Y-95797099D01*
X212066592Y-95797100D01*
X212266715Y-95890419D01*
X212266729Y-95890424D01*
X212480013Y-95947573D01*
X212480023Y-95947575D01*
X212699999Y-95966821D01*
X212700001Y-95966821D01*
X212919976Y-95947575D01*
X212919986Y-95947573D01*
X213133270Y-95890424D01*
X213133284Y-95890419D01*
X213333407Y-95797100D01*
X213333417Y-95797094D01*
X213398188Y-95751741D01*
X212829410Y-95182962D01*
X212892993Y-95165925D01*
X213007007Y-95100099D01*
X213100099Y-95007007D01*
X213165925Y-94892993D01*
X213182962Y-94829409D01*
X213751741Y-95398188D01*
X213797094Y-95333417D01*
X213797100Y-95333407D01*
X213890419Y-95133284D01*
X213890424Y-95133270D01*
X213947573Y-94919986D01*
X213947575Y-94919976D01*
X213966821Y-94700000D01*
X213966821Y-94699999D01*
X213947575Y-94480023D01*
X213947573Y-94480013D01*
X213926134Y-94400000D01*
X215494353Y-94400000D01*
X215514834Y-94542456D01*
X215564875Y-94652029D01*
X215574623Y-94673373D01*
X215668872Y-94782143D01*
X215789947Y-94859953D01*
X215789950Y-94859954D01*
X215789949Y-94859954D01*
X215928036Y-94900499D01*
X215928038Y-94900500D01*
X215928039Y-94900500D01*
X216071962Y-94900500D01*
X216071962Y-94900499D01*
X216210053Y-94859953D01*
X216331128Y-94782143D01*
X216425377Y-94673373D01*
X216485165Y-94542457D01*
X216505647Y-94400000D01*
X216485165Y-94257543D01*
X216425377Y-94126627D01*
X216331128Y-94017857D01*
X216210053Y-93940047D01*
X216210051Y-93940046D01*
X216210049Y-93940045D01*
X216210050Y-93940045D01*
X216071963Y-93899500D01*
X216071961Y-93899500D01*
X215928039Y-93899500D01*
X215928036Y-93899500D01*
X215789949Y-93940045D01*
X215668873Y-94017856D01*
X215574623Y-94126626D01*
X215574622Y-94126628D01*
X215514834Y-94257543D01*
X215494353Y-94400000D01*
X213926134Y-94400000D01*
X213890424Y-94266729D01*
X213890420Y-94266720D01*
X213797096Y-94066586D01*
X213751741Y-94001811D01*
X213751740Y-94001810D01*
X213182962Y-94570589D01*
X213165925Y-94507007D01*
X213100099Y-94392993D01*
X213007007Y-94299901D01*
X212892993Y-94234075D01*
X212829410Y-94217037D01*
X213398188Y-93648259D01*
X213398187Y-93648258D01*
X213333411Y-93602901D01*
X213333405Y-93602898D01*
X213133284Y-93509580D01*
X213133270Y-93509575D01*
X212919986Y-93452426D01*
X212919976Y-93452424D01*
X212700001Y-93433179D01*
X212699999Y-93433179D01*
X212480023Y-93452424D01*
X212480013Y-93452426D01*
X212266729Y-93509575D01*
X212266720Y-93509579D01*
X212066590Y-93602901D01*
X212001811Y-93648258D01*
X212570590Y-94217037D01*
X212507007Y-94234075D01*
X212392993Y-94299901D01*
X212299901Y-94392993D01*
X212234075Y-94507007D01*
X212217037Y-94570589D01*
X211648258Y-94001811D01*
X211602901Y-94066590D01*
X211509579Y-94266720D01*
X211509575Y-94266729D01*
X211452426Y-94480013D01*
X211452424Y-94480023D01*
X211433179Y-94699999D01*
X206224970Y-94699999D01*
X203684971Y-92160000D01*
X211732843Y-92160000D01*
X211751426Y-92348681D01*
X211769772Y-92409160D01*
X211806463Y-92530115D01*
X211806464Y-92530118D01*
X211806465Y-92530119D01*
X211806466Y-92530122D01*
X211895834Y-92697318D01*
X211895838Y-92697325D01*
X212016116Y-92843883D01*
X212162674Y-92964161D01*
X212162681Y-92964165D01*
X212329877Y-93053533D01*
X212329878Y-93053533D01*
X212329885Y-93053537D01*
X212511317Y-93108573D01*
X212511316Y-93108573D01*
X212528233Y-93110239D01*
X212700000Y-93127157D01*
X212888683Y-93108573D01*
X213070115Y-93053537D01*
X213237324Y-92964162D01*
X213383883Y-92843883D01*
X213504162Y-92697324D01*
X213593537Y-92530115D01*
X213648573Y-92348683D01*
X213667157Y-92160000D01*
X213648573Y-91971317D01*
X213593537Y-91789885D01*
X213578295Y-91761369D01*
X213504165Y-91622681D01*
X213504161Y-91622674D01*
X213383883Y-91476116D01*
X213237325Y-91355838D01*
X213237318Y-91355834D01*
X213070122Y-91266466D01*
X213070119Y-91266465D01*
X213070118Y-91266464D01*
X213070115Y-91266463D01*
X212888683Y-91211427D01*
X212888681Y-91211426D01*
X212888683Y-91211426D01*
X212700000Y-91192843D01*
X212511318Y-91211426D01*
X212404194Y-91243921D01*
X212329885Y-91266463D01*
X212329882Y-91266464D01*
X212329880Y-91266465D01*
X212329877Y-91266466D01*
X212162681Y-91355834D01*
X212162674Y-91355838D01*
X212016116Y-91476116D01*
X211895838Y-91622674D01*
X211895834Y-91622681D01*
X211806466Y-91789877D01*
X211806465Y-91789880D01*
X211806464Y-91789882D01*
X211806463Y-91789885D01*
X211802111Y-91804233D01*
X211751426Y-91971318D01*
X211732843Y-92160000D01*
X203684971Y-92160000D01*
X202096252Y-90571281D01*
X202062767Y-90509958D01*
X202067751Y-90440266D01*
X202109623Y-90384333D01*
X202175087Y-90359916D01*
X202183933Y-90359600D01*
X203741602Y-90359600D01*
X203808641Y-90379285D01*
X203854396Y-90432089D01*
X203864340Y-90501247D01*
X203860663Y-90518147D01*
X203840153Y-90660800D01*
X203860634Y-90803256D01*
X203905232Y-90900910D01*
X203920423Y-90934173D01*
X204014672Y-91042943D01*
X204135747Y-91120753D01*
X204135750Y-91120754D01*
X204135749Y-91120754D01*
X204273836Y-91161299D01*
X204273838Y-91161300D01*
X204273839Y-91161300D01*
X204417762Y-91161300D01*
X204417762Y-91161299D01*
X204555853Y-91120753D01*
X204676928Y-91042943D01*
X204771177Y-90934173D01*
X204830965Y-90803257D01*
X204851447Y-90660800D01*
X204851447Y-90660799D01*
X204851447Y-90651931D01*
X204854762Y-90651931D01*
X204862400Y-90598744D01*
X204908146Y-90545932D01*
X204975182Y-90526236D01*
X205042225Y-90545909D01*
X205062884Y-90562555D01*
X205604404Y-91104075D01*
X205637889Y-91165398D01*
X205639461Y-91209402D01*
X205638153Y-91218499D01*
X205658634Y-91360956D01*
X205701964Y-91455833D01*
X205718423Y-91491873D01*
X205812672Y-91600643D01*
X205933747Y-91678453D01*
X205933750Y-91678454D01*
X205933749Y-91678454D01*
X206071836Y-91718999D01*
X206071838Y-91719000D01*
X206071839Y-91719000D01*
X206215762Y-91719000D01*
X206215762Y-91718999D01*
X206353853Y-91678453D01*
X206474928Y-91600643D01*
X206569177Y-91491873D01*
X206628965Y-91360957D01*
X206649447Y-91218500D01*
X206628965Y-91076043D01*
X206569177Y-90945127D01*
X206474928Y-90836357D01*
X206353853Y-90758547D01*
X206353851Y-90758546D01*
X206353849Y-90758545D01*
X206353850Y-90758545D01*
X206215763Y-90718000D01*
X206215761Y-90718000D01*
X206119633Y-90718000D01*
X206052594Y-90698315D01*
X206031952Y-90681681D01*
X205168912Y-89818641D01*
X205168911Y-89818640D01*
X205153426Y-89809700D01*
X205153426Y-89809699D01*
X205153424Y-89809699D01*
X205100389Y-89779079D01*
X205023962Y-89758600D01*
X205023960Y-89758600D01*
X200327733Y-89758600D01*
X200260694Y-89738915D01*
X200240052Y-89722281D01*
X199467771Y-88950000D01*
X210454828Y-88950000D01*
X210473469Y-89139269D01*
X210487238Y-89184660D01*
X210528678Y-89321269D01*
X210618331Y-89488999D01*
X210618332Y-89489000D01*
X210738984Y-89636015D01*
X210885998Y-89756667D01*
X210885999Y-89756667D01*
X210886001Y-89756669D01*
X211053731Y-89846322D01*
X211235729Y-89901530D01*
X211235728Y-89901530D01*
X211240805Y-89902030D01*
X211425000Y-89920172D01*
X211614271Y-89901530D01*
X211796269Y-89846322D01*
X211963999Y-89756669D01*
X211964001Y-89756667D01*
X211964002Y-89756667D01*
X212111015Y-89636015D01*
X212134124Y-89607857D01*
X212231669Y-89488999D01*
X212321322Y-89321269D01*
X212376530Y-89139271D01*
X212395172Y-88950000D01*
X212376530Y-88760729D01*
X212321322Y-88578731D01*
X212231669Y-88411001D01*
X212169260Y-88334956D01*
X212111015Y-88263984D01*
X211964190Y-88143488D01*
X211963999Y-88143331D01*
X211796269Y-88053678D01*
X211614271Y-87998470D01*
X211614269Y-87998469D01*
X211614271Y-87998469D01*
X211425000Y-87979828D01*
X211235730Y-87998469D01*
X211053731Y-88053678D01*
X210885999Y-88143332D01*
X210738984Y-88263984D01*
X210618332Y-88410999D01*
X210528678Y-88578731D01*
X210473469Y-88760730D01*
X210454828Y-88950000D01*
X199467771Y-88950000D01*
X198785535Y-88267764D01*
X198752050Y-88206441D01*
X198757034Y-88136749D01*
X198798906Y-88080816D01*
X198864370Y-88056399D01*
X198908151Y-88061106D01*
X199008088Y-88090450D01*
X199008089Y-88090450D01*
X199152012Y-88090450D01*
X199152012Y-88090449D01*
X199263804Y-88057625D01*
X199290100Y-88049904D01*
X199290100Y-88049903D01*
X199290103Y-88049903D01*
X199411178Y-87972093D01*
X199505427Y-87863323D01*
X199565215Y-87732407D01*
X199585697Y-87589950D01*
X199565215Y-87447493D01*
X199550791Y-87415911D01*
X199540848Y-87346754D01*
X199569872Y-87283198D01*
X199628650Y-87245423D01*
X199663586Y-87240400D01*
X201651360Y-87240400D01*
X201651362Y-87240400D01*
X201727789Y-87219921D01*
X201796311Y-87180360D01*
X201852260Y-87124411D01*
X201876671Y-87100000D01*
X215294353Y-87100000D01*
X215314834Y-87242456D01*
X215348685Y-87316577D01*
X215374623Y-87373373D01*
X215468872Y-87482143D01*
X215589947Y-87559953D01*
X215589950Y-87559954D01*
X215589949Y-87559954D01*
X215728036Y-87600499D01*
X215728038Y-87600500D01*
X215728039Y-87600500D01*
X215871962Y-87600500D01*
X215871962Y-87600499D01*
X216010053Y-87559953D01*
X216131128Y-87482143D01*
X216225377Y-87373373D01*
X216285165Y-87242457D01*
X216305647Y-87100000D01*
X216285165Y-86957543D01*
X216225377Y-86826627D01*
X216131128Y-86717857D01*
X216010053Y-86640047D01*
X216010051Y-86640046D01*
X216010049Y-86640045D01*
X216010050Y-86640045D01*
X215871963Y-86599500D01*
X215871961Y-86599500D01*
X215728039Y-86599500D01*
X215728036Y-86599500D01*
X215589949Y-86640045D01*
X215468873Y-86717856D01*
X215374623Y-86826626D01*
X215374622Y-86826628D01*
X215314834Y-86957543D01*
X215294353Y-87100000D01*
X201876671Y-87100000D01*
X203276671Y-85700000D01*
X214194353Y-85700000D01*
X214214834Y-85842456D01*
X214256471Y-85933626D01*
X214274623Y-85973373D01*
X214368872Y-86082143D01*
X214489947Y-86159953D01*
X214489950Y-86159954D01*
X214489949Y-86159954D01*
X214597107Y-86191417D01*
X214625270Y-86199687D01*
X214628036Y-86200499D01*
X214628038Y-86200500D01*
X214628039Y-86200500D01*
X214771962Y-86200500D01*
X214771962Y-86200499D01*
X214910053Y-86159953D01*
X215031128Y-86082143D01*
X215125377Y-85973373D01*
X215185165Y-85842457D01*
X215205647Y-85700000D01*
X215185165Y-85557543D01*
X215125377Y-85426627D01*
X215031128Y-85317857D01*
X214910053Y-85240047D01*
X214910051Y-85240046D01*
X214910049Y-85240045D01*
X214910050Y-85240045D01*
X214771963Y-85199500D01*
X214771961Y-85199500D01*
X214628039Y-85199500D01*
X214628036Y-85199500D01*
X214489949Y-85240045D01*
X214368873Y-85317856D01*
X214274623Y-85426626D01*
X214274622Y-85426628D01*
X214214834Y-85557543D01*
X214194353Y-85700000D01*
X203276671Y-85700000D01*
X205526671Y-83450000D01*
X206694353Y-83450000D01*
X206714834Y-83592456D01*
X206758319Y-83687673D01*
X206774623Y-83723373D01*
X206868872Y-83832143D01*
X206989947Y-83909953D01*
X206989950Y-83909954D01*
X206989949Y-83909954D01*
X207128036Y-83950499D01*
X207128038Y-83950500D01*
X207128039Y-83950500D01*
X207271962Y-83950500D01*
X207271962Y-83950499D01*
X207410053Y-83909953D01*
X207531128Y-83832143D01*
X207625377Y-83723373D01*
X207685165Y-83592457D01*
X207705647Y-83450000D01*
X207685165Y-83307543D01*
X207625377Y-83176627D01*
X207531128Y-83067857D01*
X207410053Y-82990047D01*
X207410051Y-82990046D01*
X207410049Y-82990045D01*
X207410050Y-82990045D01*
X207271963Y-82949500D01*
X207271961Y-82949500D01*
X207128039Y-82949500D01*
X207128036Y-82949500D01*
X206989949Y-82990045D01*
X206868873Y-83067856D01*
X206774623Y-83176626D01*
X206774622Y-83176628D01*
X206714834Y-83307543D01*
X206694353Y-83450000D01*
X205526671Y-83450000D01*
X206176671Y-82800000D01*
X209194353Y-82800000D01*
X209214834Y-82942456D01*
X209270912Y-83065247D01*
X209274623Y-83073373D01*
X209368872Y-83182143D01*
X209489947Y-83259953D01*
X209489950Y-83259954D01*
X209489949Y-83259954D01*
X209628036Y-83300499D01*
X209628038Y-83300500D01*
X209628039Y-83300500D01*
X209771962Y-83300500D01*
X209771962Y-83300499D01*
X209910053Y-83259953D01*
X210031128Y-83182143D01*
X210125377Y-83073373D01*
X210185165Y-82942457D01*
X210205647Y-82800000D01*
X210185165Y-82657543D01*
X210125377Y-82526627D01*
X210031128Y-82417857D01*
X209910053Y-82340047D01*
X209910051Y-82340046D01*
X209910049Y-82340045D01*
X209910050Y-82340045D01*
X209771963Y-82299500D01*
X209771961Y-82299500D01*
X209628039Y-82299500D01*
X209628036Y-82299500D01*
X209489949Y-82340045D01*
X209368873Y-82417856D01*
X209274623Y-82526626D01*
X209274622Y-82526628D01*
X209214834Y-82657543D01*
X209194353Y-82800000D01*
X206176671Y-82800000D01*
X211080460Y-77896211D01*
X211120022Y-77827688D01*
X211140500Y-77751262D01*
X211140500Y-77734500D01*
X211160185Y-77667461D01*
X211212989Y-77621706D01*
X211264500Y-77610500D01*
X211859750Y-77610500D01*
X211859751Y-77610499D01*
X211874568Y-77607552D01*
X211918229Y-77598868D01*
X211918229Y-77598867D01*
X211918231Y-77598867D01*
X211984552Y-77554552D01*
X212006898Y-77521108D01*
X212060510Y-77476304D01*
X212129834Y-77467597D01*
X212192862Y-77497751D01*
X212213100Y-77521106D01*
X212235448Y-77554552D01*
X212301769Y-77598867D01*
X212301770Y-77598868D01*
X212360247Y-77610499D01*
X212360250Y-77610500D01*
X212360252Y-77610500D01*
X214399750Y-77610500D01*
X214399751Y-77610499D01*
X214414568Y-77607552D01*
X214458229Y-77598868D01*
X214458229Y-77598867D01*
X214458231Y-77598867D01*
X214524552Y-77554552D01*
X214546898Y-77521108D01*
X214600510Y-77476304D01*
X214669834Y-77467597D01*
X214732862Y-77497751D01*
X214753100Y-77521106D01*
X214775448Y-77554552D01*
X214841769Y-77598867D01*
X214841770Y-77598868D01*
X214900247Y-77610499D01*
X214900250Y-77610500D01*
X214900252Y-77610500D01*
X216939750Y-77610500D01*
X216939751Y-77610499D01*
X216954568Y-77607552D01*
X216998229Y-77598868D01*
X216998229Y-77598867D01*
X216998231Y-77598867D01*
X217064552Y-77554552D01*
X217108867Y-77488231D01*
X217108867Y-77488229D01*
X217108868Y-77488229D01*
X217120499Y-77429752D01*
X217120500Y-77429750D01*
X217120500Y-74284746D01*
X217140185Y-74217707D01*
X217192989Y-74171952D01*
X217244472Y-74160746D01*
X218432181Y-74160500D01*
X218441065Y-74160819D01*
G37*
%TD.AperFunction*%
%TA.AperFunction,Conductor*%
G36*
X195830000Y-126369189D02*
G01*
X195810315Y-126436228D01*
X195757511Y-126481983D01*
X195705966Y-126493189D01*
X195453966Y-126493119D01*
X195386932Y-126473416D01*
X195341191Y-126420599D01*
X195330000Y-126369119D01*
X195330000Y-124893012D01*
X195387007Y-124925925D01*
X195514174Y-124960000D01*
X195645826Y-124960000D01*
X195772993Y-124925925D01*
X195830000Y-124893012D01*
X195830000Y-126369189D01*
G37*
%TD.AperFunction*%
%TA.AperFunction,Conductor*%
G36*
X193290000Y-126368484D02*
G01*
X193270315Y-126435523D01*
X193217511Y-126481278D01*
X193165966Y-126492484D01*
X192913966Y-126492414D01*
X192846932Y-126472711D01*
X192801191Y-126419894D01*
X192790000Y-126368414D01*
X192790000Y-124893012D01*
X192847007Y-124925925D01*
X192974174Y-124960000D01*
X193105826Y-124960000D01*
X193232993Y-124925925D01*
X193290000Y-124893012D01*
X193290000Y-126368484D01*
G37*
%TD.AperFunction*%
%TA.AperFunction,Conductor*%
G36*
X168942518Y-74190433D02*
G01*
X168988284Y-74243227D01*
X168999500Y-74294762D01*
X168999500Y-77429752D01*
X169011131Y-77488229D01*
X169011132Y-77488230D01*
X169055447Y-77554552D01*
X169121769Y-77598867D01*
X169121770Y-77598868D01*
X169180247Y-77610499D01*
X169180250Y-77610500D01*
X169180252Y-77610500D01*
X171219750Y-77610500D01*
X171219751Y-77610499D01*
X171234568Y-77607552D01*
X171278229Y-77598868D01*
X171278229Y-77598867D01*
X171278231Y-77598867D01*
X171344552Y-77554552D01*
X171366898Y-77521108D01*
X171420510Y-77476304D01*
X171489834Y-77467597D01*
X171552862Y-77497751D01*
X171573100Y-77521106D01*
X171595448Y-77554552D01*
X171661769Y-77598867D01*
X171661770Y-77598868D01*
X171720247Y-77610499D01*
X171720250Y-77610500D01*
X171720252Y-77610500D01*
X173759750Y-77610500D01*
X173759751Y-77610499D01*
X173774568Y-77607552D01*
X173818229Y-77598868D01*
X173818229Y-77598867D01*
X173818231Y-77598867D01*
X173884552Y-77554552D01*
X173906898Y-77521108D01*
X173960510Y-77476304D01*
X174029834Y-77467597D01*
X174092862Y-77497751D01*
X174113100Y-77521106D01*
X174135448Y-77554552D01*
X174201769Y-77598867D01*
X174201770Y-77598868D01*
X174260247Y-77610499D01*
X174260250Y-77610500D01*
X176283444Y-77610500D01*
X176350483Y-77630185D01*
X176382710Y-77660189D01*
X176462809Y-77767187D01*
X176462812Y-77767190D01*
X176577906Y-77853350D01*
X176577913Y-77853354D01*
X176712620Y-77903596D01*
X176712627Y-77903598D01*
X176772155Y-77909999D01*
X176772172Y-77910000D01*
X177570000Y-77910000D01*
X177570000Y-76573012D01*
X177627007Y-76605925D01*
X177754174Y-76640000D01*
X177885826Y-76640000D01*
X178012993Y-76605925D01*
X178070000Y-76573012D01*
X178070000Y-77910000D01*
X178867828Y-77910000D01*
X178867844Y-77909999D01*
X178927372Y-77903598D01*
X178927379Y-77903596D01*
X179062086Y-77853354D01*
X179062093Y-77853350D01*
X179177187Y-77767190D01*
X179177190Y-77767187D01*
X179257290Y-77660189D01*
X179313223Y-77618318D01*
X179356556Y-77610500D01*
X179935500Y-77610500D01*
X180002539Y-77630185D01*
X180048294Y-77682989D01*
X180059500Y-77734500D01*
X180059500Y-78264167D01*
X180039815Y-78331206D01*
X180023181Y-78351848D01*
X179911848Y-78463181D01*
X179850525Y-78496666D01*
X179824167Y-78499500D01*
X178560438Y-78499500D01*
X178484010Y-78519978D01*
X178415489Y-78559540D01*
X178415486Y-78559542D01*
X174259541Y-82715487D01*
X174259535Y-82715495D01*
X174219982Y-82784004D01*
X174219979Y-82784009D01*
X174199500Y-82860439D01*
X174199500Y-86824167D01*
X174179815Y-86891206D01*
X174163181Y-86911848D01*
X174059541Y-87015487D01*
X174059535Y-87015495D01*
X174019982Y-87084004D01*
X174019979Y-87084009D01*
X174011410Y-87115989D01*
X174000070Y-87158313D01*
X173999500Y-87160439D01*
X173999500Y-93536260D01*
X173979815Y-93603299D01*
X173969213Y-93617462D01*
X173874625Y-93726622D01*
X173874622Y-93726628D01*
X173814834Y-93857543D01*
X173794353Y-94000000D01*
X173814834Y-94142456D01*
X173869968Y-94263181D01*
X173874623Y-94273373D01*
X173968872Y-94382143D01*
X174089947Y-94459953D01*
X174089950Y-94459954D01*
X174089949Y-94459954D01*
X174197107Y-94491417D01*
X174225280Y-94499690D01*
X174228036Y-94500499D01*
X174228038Y-94500500D01*
X174324167Y-94500500D01*
X174391206Y-94520185D01*
X174411848Y-94536819D01*
X174659540Y-94784511D01*
X174715489Y-94840460D01*
X174715491Y-94840461D01*
X174715495Y-94840464D01*
X174784004Y-94880017D01*
X174784011Y-94880021D01*
X174860438Y-94900500D01*
X174860440Y-94900500D01*
X175839560Y-94900500D01*
X175839562Y-94900500D01*
X175915989Y-94880021D01*
X175984511Y-94840460D01*
X176040460Y-94784511D01*
X176088152Y-94736819D01*
X176149475Y-94703334D01*
X176175833Y-94700500D01*
X182039560Y-94700500D01*
X182039562Y-94700500D01*
X182115989Y-94680021D01*
X182184511Y-94640460D01*
X182240460Y-94584511D01*
X182516152Y-94308819D01*
X182577475Y-94275334D01*
X182603833Y-94272500D01*
X185013660Y-94272500D01*
X185013662Y-94272500D01*
X185090089Y-94252021D01*
X185158611Y-94212460D01*
X185214560Y-94156511D01*
X185683470Y-93687600D01*
X188896453Y-93687600D01*
X188916934Y-93830056D01*
X188973088Y-93953014D01*
X188976723Y-93960973D01*
X189070972Y-94069743D01*
X189192047Y-94147553D01*
X189192050Y-94147554D01*
X189192049Y-94147554D01*
X189330136Y-94188099D01*
X189330138Y-94188100D01*
X189330139Y-94188100D01*
X189474062Y-94188100D01*
X189474062Y-94188099D01*
X189612153Y-94147553D01*
X189733228Y-94069743D01*
X189827477Y-93960973D01*
X189887265Y-93830057D01*
X189907747Y-93687600D01*
X189887265Y-93545143D01*
X189827477Y-93414227D01*
X189733228Y-93305457D01*
X189612153Y-93227647D01*
X189612151Y-93227646D01*
X189612149Y-93227645D01*
X189612150Y-93227645D01*
X189474063Y-93187100D01*
X189474061Y-93187100D01*
X189330139Y-93187100D01*
X189330136Y-93187100D01*
X189192049Y-93227645D01*
X189070973Y-93305456D01*
X189070972Y-93305456D01*
X189070972Y-93305457D01*
X189057441Y-93321073D01*
X189004903Y-93381705D01*
X188952839Y-93415163D01*
X188953747Y-93417149D01*
X188943804Y-93486307D01*
X188943804Y-93486308D01*
X188916934Y-93545144D01*
X188896453Y-93687600D01*
X185683470Y-93687600D01*
X186909758Y-92461311D01*
X186971079Y-92427828D01*
X187040770Y-92432812D01*
X187091149Y-92467790D01*
X187173772Y-92563143D01*
X187294847Y-92640953D01*
X187294850Y-92640954D01*
X187294849Y-92640954D01*
X187432936Y-92681499D01*
X187432938Y-92681500D01*
X187432939Y-92681500D01*
X187576862Y-92681500D01*
X187576862Y-92681499D01*
X187714953Y-92640953D01*
X187728656Y-92632146D01*
X187795693Y-92612461D01*
X187862733Y-92632144D01*
X187908489Y-92684947D01*
X187918434Y-92754105D01*
X187908491Y-92787972D01*
X187854934Y-92905245D01*
X187834453Y-93047700D01*
X187854934Y-93190156D01*
X187909235Y-93309057D01*
X187914723Y-93321073D01*
X188008972Y-93429843D01*
X188130047Y-93507653D01*
X188130050Y-93507654D01*
X188130049Y-93507654D01*
X188268136Y-93548199D01*
X188268138Y-93548200D01*
X188268139Y-93548200D01*
X188412062Y-93548200D01*
X188412062Y-93548199D01*
X188543594Y-93509579D01*
X188550150Y-93507654D01*
X188550150Y-93507653D01*
X188550153Y-93507653D01*
X188671228Y-93429843D01*
X188737298Y-93353592D01*
X188789358Y-93320134D01*
X188788452Y-93318149D01*
X188798395Y-93248991D01*
X188825265Y-93190157D01*
X188845747Y-93047700D01*
X188825265Y-92905243D01*
X188765477Y-92774327D01*
X188698749Y-92697318D01*
X188670986Y-92665277D01*
X188641962Y-92601721D01*
X188640700Y-92584075D01*
X188640700Y-92357232D01*
X188660385Y-92290193D01*
X188677015Y-92269555D01*
X189031310Y-91915259D01*
X189092631Y-91881776D01*
X189162322Y-91886760D01*
X189218256Y-91928631D01*
X189231782Y-91951428D01*
X189243721Y-91977570D01*
X189243722Y-91977571D01*
X189243723Y-91977573D01*
X189337972Y-92086343D01*
X189459047Y-92164153D01*
X189459050Y-92164154D01*
X189459049Y-92164154D01*
X189597136Y-92204699D01*
X189597138Y-92204700D01*
X189597139Y-92204700D01*
X189741062Y-92204700D01*
X189741062Y-92204699D01*
X189879153Y-92164153D01*
X190000228Y-92086343D01*
X190094477Y-91977573D01*
X190154265Y-91846657D01*
X190174747Y-91704200D01*
X190174746Y-91704199D01*
X190176009Y-91695422D01*
X190178060Y-91695716D01*
X190194432Y-91639961D01*
X190247236Y-91594206D01*
X190298747Y-91583000D01*
X190478033Y-91583000D01*
X190545072Y-91602685D01*
X190590827Y-91655488D01*
X190639182Y-91761369D01*
X190651423Y-91788173D01*
X190745672Y-91896943D01*
X190745674Y-91896944D01*
X190745676Y-91896946D01*
X190858461Y-91969429D01*
X190904216Y-92022233D01*
X190914160Y-92091391D01*
X190885135Y-92154947D01*
X190879103Y-92161425D01*
X190690547Y-92349981D01*
X190629224Y-92383466D01*
X190602866Y-92386300D01*
X190506736Y-92386300D01*
X190368649Y-92426845D01*
X190247573Y-92504656D01*
X190153323Y-92613426D01*
X190153322Y-92613428D01*
X190093534Y-92744343D01*
X190073053Y-92886800D01*
X190093534Y-93029256D01*
X190153322Y-93160171D01*
X190153323Y-93160173D01*
X190247572Y-93268943D01*
X190368647Y-93346753D01*
X190368650Y-93346754D01*
X190368649Y-93346754D01*
X190506736Y-93387299D01*
X190506738Y-93387300D01*
X190506739Y-93387300D01*
X190650662Y-93387300D01*
X190650662Y-93387299D01*
X190768172Y-93352796D01*
X190788750Y-93346754D01*
X190788750Y-93346753D01*
X190788753Y-93346753D01*
X190909828Y-93268943D01*
X191004077Y-93160173D01*
X191063865Y-93029257D01*
X191084347Y-92886800D01*
X191083039Y-92877705D01*
X191092979Y-92808549D01*
X191118090Y-92772380D01*
X191323253Y-92567216D01*
X191384575Y-92533734D01*
X191410933Y-92530900D01*
X191493081Y-92530900D01*
X191560120Y-92550585D01*
X191605875Y-92603389D01*
X191615819Y-92672547D01*
X191586794Y-92736103D01*
X191560121Y-92759214D01*
X191524041Y-92782402D01*
X191468873Y-92817856D01*
X191374623Y-92926626D01*
X191374622Y-92926628D01*
X191314834Y-93057543D01*
X191294353Y-93200000D01*
X191314834Y-93342456D01*
X191349256Y-93417828D01*
X191374623Y-93473373D01*
X191468872Y-93582143D01*
X191589947Y-93659953D01*
X191589950Y-93659954D01*
X191589949Y-93659954D01*
X191728036Y-93700499D01*
X191728038Y-93700500D01*
X191728039Y-93700500D01*
X191871962Y-93700500D01*
X191871962Y-93700499D01*
X192010053Y-93659953D01*
X192131128Y-93582143D01*
X192225377Y-93473373D01*
X192285165Y-93342457D01*
X192305647Y-93200000D01*
X192285165Y-93057543D01*
X192225377Y-92926627D01*
X192131128Y-92817857D01*
X192039879Y-92759215D01*
X191994125Y-92706412D01*
X191984181Y-92637253D01*
X192013206Y-92573698D01*
X192071984Y-92535923D01*
X192106919Y-92530900D01*
X193925392Y-92530900D01*
X193992431Y-92550585D01*
X194038186Y-92603389D01*
X194048130Y-92672547D01*
X194038186Y-92706412D01*
X194014834Y-92757543D01*
X193994353Y-92900000D01*
X193994353Y-92900001D01*
X193995661Y-92909103D01*
X193985713Y-92978261D01*
X193960603Y-93014424D01*
X192815489Y-94159540D01*
X192759541Y-94215487D01*
X192759535Y-94215495D01*
X192719982Y-94284004D01*
X192719977Y-94284015D01*
X192702575Y-94348960D01*
X192670483Y-94404546D01*
X192515489Y-94559540D01*
X192459541Y-94615487D01*
X192459535Y-94615495D01*
X192419982Y-94684004D01*
X192419979Y-94684009D01*
X192399500Y-94760439D01*
X192399500Y-95112680D01*
X192379815Y-95179719D01*
X192327011Y-95225474D01*
X192257853Y-95235418D01*
X192194297Y-95206393D01*
X192181788Y-95193884D01*
X192163827Y-95173156D01*
X192087070Y-95123828D01*
X192042753Y-95095347D01*
X192042751Y-95095346D01*
X192042749Y-95095345D01*
X192042750Y-95095345D01*
X191904663Y-95054800D01*
X191904661Y-95054800D01*
X191760739Y-95054800D01*
X191760736Y-95054800D01*
X191622649Y-95095345D01*
X191501573Y-95173156D01*
X191407323Y-95281926D01*
X191407322Y-95281928D01*
X191347534Y-95412844D01*
X191347533Y-95412847D01*
X191343354Y-95441912D01*
X191314328Y-95505467D01*
X191255549Y-95543240D01*
X191185680Y-95543238D01*
X191182556Y-95542073D01*
X191037563Y-95499500D01*
X191037561Y-95499500D01*
X190893639Y-95499500D01*
X190893636Y-95499500D01*
X190755549Y-95540045D01*
X190634473Y-95617856D01*
X190540223Y-95726626D01*
X190540222Y-95726628D01*
X190480434Y-95857543D01*
X190459953Y-96000000D01*
X190480434Y-96142456D01*
X190527235Y-96244933D01*
X190540223Y-96273373D01*
X190634472Y-96382143D01*
X190755547Y-96459953D01*
X190755550Y-96459954D01*
X190755549Y-96459954D01*
X190893636Y-96500499D01*
X190893638Y-96500500D01*
X190893639Y-96500500D01*
X191037562Y-96500500D01*
X191037562Y-96500499D01*
X191175653Y-96459953D01*
X191296728Y-96382143D01*
X191390977Y-96273373D01*
X191390978Y-96273371D01*
X191396785Y-96266670D01*
X191399180Y-96268745D01*
X191440171Y-96233216D01*
X191509328Y-96223261D01*
X191572888Y-96252276D01*
X191610672Y-96311048D01*
X191615700Y-96346002D01*
X191615700Y-100046062D01*
X191636179Y-100122489D01*
X191646553Y-100140457D01*
X191646554Y-100140460D01*
X191646555Y-100140460D01*
X191667869Y-100177378D01*
X191684340Y-100245279D01*
X191661488Y-100311305D01*
X191606566Y-100354495D01*
X191537012Y-100361136D01*
X191525550Y-100358355D01*
X191514464Y-100355100D01*
X191514461Y-100355100D01*
X191370539Y-100355100D01*
X191370536Y-100355100D01*
X191232449Y-100395645D01*
X191111373Y-100473456D01*
X191017123Y-100582226D01*
X191017122Y-100582228D01*
X190957334Y-100713143D01*
X190945422Y-100796000D01*
X190936853Y-100855600D01*
X190950376Y-100949657D01*
X190951555Y-100957853D01*
X190941611Y-101027011D01*
X190895857Y-101079815D01*
X190828817Y-101099500D01*
X189675833Y-101099500D01*
X189608794Y-101079815D01*
X189588152Y-101063181D01*
X187736819Y-99211848D01*
X187703334Y-99150525D01*
X187700500Y-99124167D01*
X187700500Y-98863738D01*
X187720185Y-98796699D01*
X187730787Y-98782535D01*
X187731124Y-98782144D01*
X187731128Y-98782143D01*
X187825377Y-98673373D01*
X187885165Y-98542457D01*
X187905647Y-98400000D01*
X187885165Y-98257543D01*
X187825377Y-98126627D01*
X187731128Y-98017857D01*
X187610053Y-97940047D01*
X187610051Y-97940046D01*
X187610049Y-97940045D01*
X187610050Y-97940045D01*
X187471963Y-97899500D01*
X187471961Y-97899500D01*
X187328039Y-97899500D01*
X187328036Y-97899500D01*
X187189949Y-97940045D01*
X187068873Y-98017856D01*
X186974618Y-98126632D01*
X186970554Y-98132956D01*
X186917747Y-98178708D01*
X186848588Y-98188647D01*
X186785034Y-98159618D01*
X186778562Y-98153591D01*
X186736819Y-98111848D01*
X186703334Y-98050525D01*
X186700500Y-98024167D01*
X186700500Y-95963738D01*
X186720185Y-95896699D01*
X186730787Y-95882535D01*
X186731124Y-95882144D01*
X186731128Y-95882143D01*
X186825377Y-95773373D01*
X186885165Y-95642457D01*
X186905647Y-95500000D01*
X186885165Y-95357543D01*
X186825377Y-95226627D01*
X186731128Y-95117857D01*
X186610053Y-95040047D01*
X186610051Y-95040046D01*
X186610049Y-95040045D01*
X186610050Y-95040045D01*
X186471963Y-94999500D01*
X186471961Y-94999500D01*
X186328039Y-94999500D01*
X186328036Y-94999500D01*
X186189949Y-95040045D01*
X186068873Y-95117856D01*
X186068872Y-95117856D01*
X186068872Y-95117857D01*
X186063700Y-95123826D01*
X185974623Y-95226626D01*
X185974622Y-95226628D01*
X185914834Y-95357543D01*
X185894353Y-95500000D01*
X185914834Y-95642456D01*
X185953275Y-95726628D01*
X185974623Y-95773373D01*
X186068872Y-95882143D01*
X186068875Y-95882144D01*
X186069213Y-95882535D01*
X186098238Y-95946091D01*
X186099500Y-95963738D01*
X186099500Y-98239562D01*
X186104318Y-98257543D01*
X186119979Y-98315991D01*
X186119981Y-98315994D01*
X186147896Y-98364343D01*
X186147896Y-98364346D01*
X186147898Y-98364346D01*
X186159539Y-98384509D01*
X186159541Y-98384512D01*
X186363181Y-98588152D01*
X186396666Y-98649475D01*
X186399500Y-98675833D01*
X186399500Y-99939562D01*
X186404728Y-99959071D01*
X186419979Y-100015990D01*
X186420310Y-100016562D01*
X186420324Y-100016587D01*
X186459537Y-100084507D01*
X186459539Y-100084510D01*
X186459540Y-100084511D01*
X187159540Y-100784511D01*
X187215489Y-100840460D01*
X187215491Y-100840461D01*
X187215495Y-100840464D01*
X187284006Y-100880019D01*
X187287599Y-100881507D01*
X187290165Y-100883574D01*
X187291049Y-100884085D01*
X187290969Y-100884222D01*
X187342005Y-100925345D01*
X187364073Y-100991638D01*
X187346797Y-101059339D01*
X187295662Y-101106951D01*
X187275087Y-101115047D01*
X187189949Y-101140045D01*
X187068873Y-101217856D01*
X186974623Y-101326626D01*
X186974622Y-101326628D01*
X186914834Y-101457543D01*
X186894353Y-101600000D01*
X186914834Y-101742456D01*
X186965671Y-101853771D01*
X186974623Y-101873373D01*
X187068872Y-101982143D01*
X187189947Y-102059953D01*
X187189950Y-102059954D01*
X187189949Y-102059954D01*
X187328036Y-102100499D01*
X187328038Y-102100500D01*
X187328039Y-102100500D01*
X187471962Y-102100500D01*
X187471962Y-102100499D01*
X187610053Y-102059953D01*
X187731128Y-101982143D01*
X187825377Y-101873373D01*
X187885165Y-101742457D01*
X187905647Y-101600000D01*
X187885165Y-101457543D01*
X187825377Y-101326627D01*
X187731128Y-101217857D01*
X187610053Y-101140047D01*
X187610052Y-101140046D01*
X187610051Y-101140046D01*
X187604023Y-101137293D01*
X187551221Y-101091536D01*
X187531538Y-101024496D01*
X187551224Y-100957458D01*
X187604030Y-100911704D01*
X187655538Y-100900500D01*
X187824167Y-100900500D01*
X187891206Y-100920185D01*
X187911848Y-100936819D01*
X189115489Y-102140460D01*
X189174829Y-102174720D01*
X189178869Y-102177053D01*
X189184012Y-102180022D01*
X189260438Y-102200500D01*
X189339562Y-102200500D01*
X190444462Y-102200500D01*
X190511501Y-102220185D01*
X190557256Y-102272989D01*
X190567200Y-102342147D01*
X190538175Y-102405703D01*
X190495977Y-102437293D01*
X190489948Y-102440046D01*
X190368873Y-102517856D01*
X190274623Y-102626626D01*
X190274622Y-102626628D01*
X190214834Y-102757543D01*
X190194353Y-102900000D01*
X190214834Y-103042456D01*
X190274622Y-103173371D01*
X190274623Y-103173373D01*
X190368872Y-103282143D01*
X190368875Y-103282144D01*
X190369213Y-103282535D01*
X190398238Y-103346091D01*
X190399500Y-103363738D01*
X190399500Y-105829862D01*
X190404896Y-105850000D01*
X190419979Y-105906291D01*
X190424687Y-105914444D01*
X190424688Y-105914446D01*
X190459537Y-105974807D01*
X190459541Y-105974812D01*
X194776399Y-110291670D01*
X194809884Y-110352993D01*
X194811938Y-110393234D01*
X194799909Y-110499996D01*
X194799909Y-110500003D01*
X194818212Y-110662455D01*
X194872210Y-110816774D01*
X194959192Y-110955204D01*
X195051307Y-111047319D01*
X195084792Y-111108642D01*
X195079808Y-111178334D01*
X195051307Y-111222681D01*
X194959192Y-111314795D01*
X194872210Y-111453225D01*
X194818212Y-111607544D01*
X194799909Y-111769996D01*
X194799909Y-111770003D01*
X194818212Y-111932455D01*
X194872210Y-112086774D01*
X194959192Y-112225204D01*
X195051307Y-112317319D01*
X195084792Y-112378642D01*
X195079808Y-112448334D01*
X195051307Y-112492681D01*
X194959192Y-112584795D01*
X194872210Y-112723225D01*
X194818212Y-112877544D01*
X194799909Y-113039996D01*
X194799909Y-113040003D01*
X194818212Y-113202455D01*
X194872210Y-113356774D01*
X194959192Y-113495204D01*
X195051307Y-113587319D01*
X195084792Y-113648642D01*
X195079808Y-113718334D01*
X195051307Y-113762681D01*
X194959192Y-113854795D01*
X194872210Y-113993225D01*
X194818212Y-114147544D01*
X194799909Y-114309996D01*
X194799909Y-114310003D01*
X194818212Y-114472455D01*
X194872210Y-114626774D01*
X194959192Y-114765204D01*
X195051307Y-114857319D01*
X195084792Y-114918642D01*
X195079808Y-114988334D01*
X195051307Y-115032681D01*
X194959192Y-115124795D01*
X194872210Y-115263225D01*
X194818212Y-115417544D01*
X194799909Y-115579996D01*
X194799909Y-115580003D01*
X194818212Y-115742455D01*
X194872210Y-115896774D01*
X194872211Y-115896775D01*
X194959192Y-116035204D01*
X195074796Y-116150808D01*
X195213225Y-116237789D01*
X195367539Y-116291786D01*
X195367543Y-116291786D01*
X195367545Y-116291787D01*
X195426341Y-116298411D01*
X195449991Y-116301076D01*
X195514405Y-116328142D01*
X195553961Y-116385736D01*
X195556100Y-116455573D01*
X195529822Y-116505498D01*
X195435525Y-116614322D01*
X195435522Y-116614328D01*
X195375734Y-116745243D01*
X195355253Y-116887700D01*
X195375734Y-117030156D01*
X195389028Y-117059265D01*
X195435523Y-117161073D01*
X195529772Y-117269843D01*
X195650847Y-117347653D01*
X195650850Y-117347654D01*
X195650849Y-117347654D01*
X195758007Y-117379117D01*
X195788939Y-117388200D01*
X195788943Y-117388200D01*
X195797716Y-117389462D01*
X195797260Y-117392631D01*
X195849206Y-117407885D01*
X195894961Y-117460689D01*
X195904905Y-117529847D01*
X195875880Y-117593403D01*
X195869848Y-117599881D01*
X191306548Y-122163181D01*
X191245225Y-122196666D01*
X191218867Y-122199500D01*
X187712741Y-122199500D01*
X187645702Y-122179815D01*
X187599947Y-122127011D01*
X187590003Y-122057853D01*
X187619028Y-121994297D01*
X187630766Y-121982559D01*
X187631124Y-121982145D01*
X187631128Y-121982143D01*
X187725377Y-121873373D01*
X187785165Y-121742457D01*
X187805647Y-121600000D01*
X187785165Y-121457543D01*
X187725377Y-121326627D01*
X187631128Y-121217857D01*
X187510053Y-121140047D01*
X187510051Y-121140046D01*
X187510049Y-121140045D01*
X187510050Y-121140045D01*
X187371963Y-121099500D01*
X187371961Y-121099500D01*
X187228039Y-121099500D01*
X187228036Y-121099500D01*
X187089949Y-121140045D01*
X186968873Y-121217856D01*
X186874623Y-121326626D01*
X186874622Y-121326628D01*
X186814834Y-121457543D01*
X186794353Y-121600000D01*
X186814834Y-121742456D01*
X186850717Y-121821027D01*
X186874623Y-121873373D01*
X186968872Y-121982143D01*
X186968873Y-121982143D01*
X186974680Y-121988845D01*
X186973598Y-121989781D01*
X187006236Y-122040565D01*
X187006236Y-122110434D01*
X186968462Y-122169213D01*
X186904907Y-122198238D01*
X186887259Y-122199500D01*
X185860438Y-122199500D01*
X185784010Y-122219978D01*
X185715489Y-122259540D01*
X185715486Y-122259542D01*
X185179541Y-122795487D01*
X185179535Y-122795495D01*
X185139982Y-122864004D01*
X185139979Y-122864009D01*
X185139580Y-122865500D01*
X185130979Y-122897596D01*
X185094616Y-122957254D01*
X185031769Y-122987783D01*
X185011206Y-122989500D01*
X184400247Y-122989500D01*
X184341770Y-123001131D01*
X184341769Y-123001132D01*
X184275447Y-123045447D01*
X184253102Y-123078890D01*
X184199489Y-123123695D01*
X184130164Y-123132402D01*
X184067137Y-123102247D01*
X184046898Y-123078890D01*
X184024552Y-123045447D01*
X183958230Y-123001132D01*
X183958229Y-123001131D01*
X183899752Y-122989500D01*
X183899748Y-122989500D01*
X183207254Y-122989500D01*
X183140215Y-122969815D01*
X183119573Y-122953181D01*
X182734915Y-122568523D01*
X182345913Y-122179520D01*
X182283380Y-122143416D01*
X182254589Y-122126793D01*
X182193534Y-122110434D01*
X182152727Y-122099500D01*
X178352727Y-122099500D01*
X178247273Y-122099500D01*
X178145410Y-122126793D01*
X178117168Y-122143100D01*
X178054087Y-122179520D01*
X178054084Y-122179522D01*
X177479522Y-122754084D01*
X177479518Y-122754090D01*
X177426792Y-122845413D01*
X177426791Y-122845415D01*
X177412812Y-122897591D01*
X177376449Y-122957252D01*
X177313602Y-122987783D01*
X177293037Y-122989500D01*
X176780247Y-122989500D01*
X176721770Y-123001131D01*
X176721769Y-123001132D01*
X176655447Y-123045447D01*
X176611132Y-123111769D01*
X176611131Y-123111770D01*
X176599500Y-123170247D01*
X176599500Y-126363853D01*
X176579815Y-126430892D01*
X176527011Y-126476647D01*
X176475466Y-126487853D01*
X168163584Y-126485546D01*
X168096550Y-126465843D01*
X168050809Y-126413026D01*
X168040885Y-126343865D01*
X168069928Y-126280317D01*
X168123761Y-126244126D01*
X168218711Y-126211895D01*
X168218712Y-126211895D01*
X168477356Y-126084346D01*
X168717141Y-125924126D01*
X168717147Y-125924121D01*
X168745608Y-125899162D01*
X168745608Y-125899161D01*
X168315698Y-125469251D01*
X168417330Y-125395412D01*
X168595412Y-125217330D01*
X168669251Y-125115698D01*
X169099161Y-125545608D01*
X169099162Y-125545608D01*
X169124121Y-125517147D01*
X169124126Y-125517141D01*
X169284346Y-125277356D01*
X169411895Y-125018712D01*
X169411899Y-125018702D01*
X169504592Y-124745635D01*
X169504597Y-124745615D01*
X169560855Y-124462784D01*
X169560859Y-124462757D01*
X169579720Y-124175007D01*
X169579720Y-124174992D01*
X169560859Y-123887242D01*
X169560855Y-123887215D01*
X169504597Y-123604384D01*
X169504592Y-123604364D01*
X169411899Y-123331297D01*
X169411895Y-123331287D01*
X169284346Y-123072643D01*
X169124124Y-122832854D01*
X169099161Y-122804390D01*
X169099160Y-122804390D01*
X168669250Y-123234300D01*
X168595412Y-123132670D01*
X168417330Y-122954588D01*
X168315698Y-122880748D01*
X168745608Y-122450838D01*
X168745608Y-122450835D01*
X168717152Y-122425881D01*
X168717146Y-122425876D01*
X168477356Y-122265653D01*
X168218712Y-122138104D01*
X168218702Y-122138100D01*
X167945635Y-122045407D01*
X167945615Y-122045402D01*
X167662784Y-121989144D01*
X167662757Y-121989140D01*
X167375007Y-121970280D01*
X167374993Y-121970280D01*
X167087242Y-121989140D01*
X167087215Y-121989144D01*
X166804384Y-122045402D01*
X166804364Y-122045407D01*
X166531297Y-122138100D01*
X166531287Y-122138104D01*
X166272643Y-122265653D01*
X166032851Y-122425878D01*
X166004390Y-122450837D01*
X166434301Y-122880748D01*
X166332670Y-122954588D01*
X166154588Y-123132670D01*
X166080748Y-123234301D01*
X165650837Y-122804390D01*
X165625878Y-122832851D01*
X165465653Y-123072643D01*
X165338104Y-123331287D01*
X165338100Y-123331297D01*
X165245407Y-123604364D01*
X165245402Y-123604384D01*
X165189144Y-123887215D01*
X165189140Y-123887242D01*
X165170280Y-124174992D01*
X165170280Y-124175007D01*
X165189140Y-124462757D01*
X165189144Y-124462784D01*
X165245402Y-124745615D01*
X165245407Y-124745635D01*
X165338100Y-125018702D01*
X165338104Y-125018712D01*
X165465653Y-125277356D01*
X165625876Y-125517146D01*
X165625881Y-125517152D01*
X165650835Y-125545608D01*
X165650838Y-125545608D01*
X166080748Y-125115698D01*
X166154588Y-125217330D01*
X166332670Y-125395412D01*
X166434300Y-125469250D01*
X166004390Y-125899160D01*
X166004390Y-125899161D01*
X166032854Y-125924124D01*
X166272643Y-126084346D01*
X166531285Y-126211894D01*
X166624948Y-126243688D01*
X166682102Y-126283877D01*
X166708456Y-126348586D01*
X166695642Y-126417271D01*
X166647728Y-126468124D01*
X166585056Y-126485108D01*
X159173022Y-126483051D01*
X159172723Y-126483031D01*
X159103125Y-126483031D01*
X159095015Y-126482765D01*
X158840977Y-126466111D01*
X158824896Y-126463994D01*
X158579185Y-126415116D01*
X158563519Y-126410918D01*
X158326286Y-126330386D01*
X158311301Y-126324179D01*
X158086616Y-126213376D01*
X158072569Y-126205266D01*
X157864265Y-126066080D01*
X157851397Y-126056206D01*
X157663043Y-125891023D01*
X157651574Y-125879554D01*
X157525332Y-125735603D01*
X157486388Y-125691196D01*
X157476517Y-125678332D01*
X157387833Y-125545608D01*
X157337333Y-125470029D01*
X157329223Y-125455982D01*
X157279281Y-125354710D01*
X157218417Y-125231293D01*
X157212211Y-125216309D01*
X157131679Y-124979074D01*
X157127483Y-124963414D01*
X157118812Y-124919826D01*
X157078605Y-124717700D01*
X157076488Y-124701619D01*
X157059832Y-124447532D01*
X157059566Y-124439421D01*
X157059566Y-98524000D01*
X157079251Y-98456961D01*
X157132055Y-98411206D01*
X157183566Y-98400000D01*
X173500000Y-98400000D01*
X173500000Y-95200000D01*
X182594353Y-95200000D01*
X182614834Y-95342456D01*
X182650435Y-95420409D01*
X182674623Y-95473373D01*
X182768872Y-95582143D01*
X182889947Y-95659953D01*
X182889950Y-95659954D01*
X182889949Y-95659954D01*
X182978230Y-95685875D01*
X183024633Y-95699500D01*
X183028036Y-95700499D01*
X183028038Y-95700500D01*
X183028039Y-95700500D01*
X183171962Y-95700500D01*
X183171962Y-95700499D01*
X183310053Y-95659953D01*
X183431128Y-95582143D01*
X183525377Y-95473373D01*
X183585165Y-95342457D01*
X183605647Y-95200000D01*
X183585165Y-95057543D01*
X183525377Y-94926627D01*
X183431128Y-94817857D01*
X183310053Y-94740047D01*
X183310051Y-94740046D01*
X183310049Y-94740045D01*
X183310050Y-94740045D01*
X183171963Y-94699500D01*
X183171961Y-94699500D01*
X183028039Y-94699500D01*
X183028036Y-94699500D01*
X182889949Y-94740045D01*
X182768873Y-94817856D01*
X182674623Y-94926626D01*
X182674622Y-94926628D01*
X182614834Y-95057543D01*
X182594353Y-95200000D01*
X173500000Y-95200000D01*
X173500000Y-79000000D01*
X157183566Y-79000000D01*
X157116527Y-78980315D01*
X157070772Y-78927511D01*
X157059566Y-78876000D01*
X157059566Y-77200572D01*
X157079251Y-77133533D01*
X157132055Y-77087778D01*
X157201213Y-77077834D01*
X157264769Y-77106859D01*
X157300985Y-77160714D01*
X157363100Y-77343702D01*
X157363104Y-77343712D01*
X157490653Y-77602356D01*
X157650876Y-77842146D01*
X157650881Y-77842152D01*
X157675835Y-77870608D01*
X157675838Y-77870608D01*
X158105748Y-77440698D01*
X158179588Y-77542330D01*
X158357670Y-77720412D01*
X158459300Y-77794250D01*
X158029390Y-78224160D01*
X158029390Y-78224161D01*
X158057854Y-78249124D01*
X158297643Y-78409346D01*
X158556287Y-78536895D01*
X158556297Y-78536899D01*
X158829364Y-78629592D01*
X158829384Y-78629597D01*
X159112215Y-78685855D01*
X159112242Y-78685859D01*
X159399993Y-78704720D01*
X159400007Y-78704720D01*
X159687757Y-78685859D01*
X159687784Y-78685855D01*
X159970615Y-78629597D01*
X159970635Y-78629592D01*
X160243702Y-78536899D01*
X160243712Y-78536895D01*
X160502356Y-78409346D01*
X160742141Y-78249126D01*
X160742147Y-78249121D01*
X160770608Y-78224162D01*
X160770608Y-78224161D01*
X160340698Y-77794251D01*
X160442330Y-77720412D01*
X160620412Y-77542330D01*
X160694251Y-77440698D01*
X161124161Y-77870608D01*
X161124162Y-77870608D01*
X161149121Y-77842147D01*
X161149126Y-77842141D01*
X161309346Y-77602356D01*
X161436895Y-77343712D01*
X161436899Y-77343702D01*
X161529592Y-77070635D01*
X161529597Y-77070615D01*
X161585855Y-76787784D01*
X161585859Y-76787757D01*
X161604720Y-76500007D01*
X161604720Y-76499992D01*
X161585859Y-76212242D01*
X161585855Y-76212215D01*
X161529597Y-75929384D01*
X161529592Y-75929364D01*
X161436899Y-75656297D01*
X161436895Y-75656287D01*
X161309346Y-75397643D01*
X161149124Y-75157854D01*
X161124161Y-75129390D01*
X161124160Y-75129390D01*
X160694250Y-75559300D01*
X160620412Y-75457670D01*
X160442330Y-75279588D01*
X160340698Y-75205748D01*
X160770608Y-74775838D01*
X160770608Y-74775835D01*
X160742152Y-74750881D01*
X160742146Y-74750876D01*
X160502356Y-74590653D01*
X160243712Y-74463104D01*
X160243702Y-74463100D01*
X160099027Y-74413990D01*
X160041872Y-74373801D01*
X160015519Y-74309092D01*
X160028333Y-74240408D01*
X160076247Y-74189555D01*
X160138857Y-74172571D01*
X168875476Y-74170762D01*
X168942518Y-74190433D01*
G37*
%TD.AperFunction*%
%TA.AperFunction,Conductor*%
G36*
X195114075Y-124267007D02*
G01*
X195080000Y-124394174D01*
X195080000Y-124525826D01*
X195114075Y-124652993D01*
X195146988Y-124710000D01*
X193473012Y-124710000D01*
X193505925Y-124652993D01*
X193540000Y-124525826D01*
X193540000Y-124394174D01*
X193505925Y-124267007D01*
X193473012Y-124210000D01*
X195146988Y-124210000D01*
X195114075Y-124267007D01*
G37*
%TD.AperFunction*%
%TA.AperFunction,Conductor*%
G36*
X201803334Y-105355192D02*
G01*
X201847681Y-105383693D01*
X201939796Y-105475808D01*
X202078225Y-105562789D01*
X202140911Y-105584724D01*
X202187638Y-105614084D01*
X202395000Y-105821447D01*
X202423553Y-105850000D01*
X202352213Y-105850000D01*
X202269555Y-105872149D01*
X202195446Y-105914936D01*
X202134936Y-105975446D01*
X202092149Y-106049555D01*
X202070000Y-106132213D01*
X202070000Y-106217787D01*
X202092149Y-106300445D01*
X202134936Y-106374554D01*
X202195446Y-106435064D01*
X202269555Y-106477851D01*
X202352213Y-106500000D01*
X202437787Y-106500000D01*
X202520445Y-106477851D01*
X202594554Y-106435064D01*
X202655064Y-106374554D01*
X202697851Y-106300445D01*
X202720000Y-106217787D01*
X202720000Y-106146446D01*
X202955915Y-106382361D01*
X202985275Y-106429087D01*
X203007210Y-106491773D01*
X203007212Y-106491777D01*
X203065481Y-106584511D01*
X203094192Y-106630204D01*
X203209796Y-106745808D01*
X203348225Y-106832789D01*
X203502539Y-106886786D01*
X203502542Y-106886786D01*
X203502544Y-106886787D01*
X203664996Y-106905091D01*
X203665000Y-106905091D01*
X203665004Y-106905091D01*
X203827455Y-106886787D01*
X203827456Y-106886786D01*
X203827461Y-106886786D01*
X203981775Y-106832789D01*
X204120204Y-106745808D01*
X204235808Y-106630204D01*
X204322789Y-106491775D01*
X204344724Y-106429085D01*
X204374084Y-106382360D01*
X204610000Y-106146444D01*
X204610000Y-106217787D01*
X204632149Y-106300445D01*
X204674936Y-106374554D01*
X204735446Y-106435064D01*
X204809555Y-106477851D01*
X204892213Y-106500000D01*
X204963553Y-106500000D01*
X204408002Y-107055550D01*
X204540845Y-107126556D01*
X204734067Y-107185170D01*
X204935000Y-107204959D01*
X205135937Y-107185169D01*
X205318504Y-107129788D01*
X205388371Y-107129164D01*
X205447484Y-107166412D01*
X205477075Y-107229706D01*
X205478500Y-107248448D01*
X205478500Y-107939867D01*
X205458815Y-108006906D01*
X205442181Y-108027548D01*
X197737181Y-115732548D01*
X197675858Y-115766033D01*
X197606166Y-115761049D01*
X197550233Y-115719177D01*
X197525816Y-115653713D01*
X197525500Y-115644867D01*
X197525500Y-115035249D01*
X197525499Y-115035247D01*
X197513868Y-114976770D01*
X197513867Y-114976769D01*
X197469552Y-114910447D01*
X197435979Y-114888015D01*
X197391174Y-114834403D01*
X197382467Y-114765078D01*
X197399875Y-114718942D01*
X197457789Y-114626775D01*
X197511786Y-114472461D01*
X197530091Y-114310000D01*
X197514830Y-114174556D01*
X197511787Y-114147544D01*
X197511786Y-114147542D01*
X197511786Y-114147539D01*
X197457789Y-113993225D01*
X197370808Y-113854796D01*
X197278693Y-113762681D01*
X197245208Y-113701358D01*
X197250192Y-113631666D01*
X197278693Y-113587319D01*
X197370808Y-113495204D01*
X197457789Y-113356775D01*
X197511786Y-113202461D01*
X197511787Y-113202455D01*
X197530091Y-113040003D01*
X197530091Y-113039996D01*
X197511787Y-112877544D01*
X197511786Y-112877542D01*
X197511786Y-112877539D01*
X197505283Y-112858957D01*
X197501723Y-112789180D01*
X197534643Y-112730326D01*
X199340460Y-110924511D01*
X199380021Y-110855989D01*
X199400500Y-110779562D01*
X199400500Y-107660438D01*
X199380021Y-107584011D01*
X199380017Y-107584004D01*
X199340464Y-107515495D01*
X199340458Y-107515487D01*
X199336819Y-107511848D01*
X199303334Y-107450525D01*
X199300500Y-107424167D01*
X199300500Y-107024500D01*
X199320185Y-106957461D01*
X199372989Y-106911706D01*
X199424500Y-106900500D01*
X200399750Y-106900500D01*
X200399751Y-106900499D01*
X200410934Y-106898275D01*
X200442242Y-106892048D01*
X200511833Y-106898275D01*
X200567011Y-106941138D01*
X200589091Y-106995471D01*
X200598002Y-107055550D01*
X200730845Y-107126556D01*
X200924067Y-107185170D01*
X201125000Y-107204959D01*
X201325932Y-107185170D01*
X201519152Y-107126557D01*
X201651995Y-107055549D01*
X201868002Y-107055549D01*
X202000847Y-107126557D01*
X202194067Y-107185170D01*
X202395000Y-107204959D01*
X202595932Y-107185170D01*
X202789152Y-107126557D01*
X202921996Y-107055549D01*
X202395001Y-106528553D01*
X202395000Y-106528553D01*
X201868002Y-107055549D01*
X201651995Y-107055549D01*
X201125001Y-106528553D01*
X201125000Y-106528553D01*
X200781819Y-106871733D01*
X200720496Y-106905218D01*
X200650804Y-106900234D01*
X200594871Y-106858362D01*
X200570454Y-106792898D01*
X200572521Y-106759859D01*
X200575317Y-106745807D01*
X200580500Y-106719748D01*
X200580500Y-106417308D01*
X200600185Y-106350269D01*
X200616819Y-106329627D01*
X200800000Y-106146446D01*
X200800000Y-106217787D01*
X200822149Y-106300445D01*
X200864936Y-106374554D01*
X200925446Y-106435064D01*
X200999555Y-106477851D01*
X201082213Y-106500000D01*
X201167787Y-106500000D01*
X201250445Y-106477851D01*
X201324554Y-106435064D01*
X201385064Y-106374554D01*
X201427851Y-106300445D01*
X201450000Y-106217787D01*
X201450000Y-106175000D01*
X201478553Y-106175000D01*
X201760000Y-106456446D01*
X201760001Y-106456446D01*
X202041446Y-106175001D01*
X202041446Y-106174999D01*
X201760001Y-105893553D01*
X201760000Y-105893553D01*
X201478553Y-106175000D01*
X201450000Y-106175000D01*
X201450000Y-106132213D01*
X201427851Y-106049555D01*
X201385064Y-105975446D01*
X201324554Y-105914936D01*
X201250445Y-105872149D01*
X201167787Y-105850000D01*
X201096446Y-105850000D01*
X201124999Y-105821447D01*
X201332360Y-105614084D01*
X201379085Y-105584724D01*
X201441775Y-105562789D01*
X201580204Y-105475808D01*
X201672319Y-105383693D01*
X201733642Y-105350208D01*
X201803334Y-105355192D01*
G37*
%TD.AperFunction*%
%TA.AperFunction,Conductor*%
G36*
X198630316Y-93045594D02*
G01*
X198650958Y-93062229D01*
X200305371Y-94716642D01*
X200338856Y-94777965D01*
X200333872Y-94847657D01*
X200292000Y-94903590D01*
X200226536Y-94928007D01*
X200182756Y-94923300D01*
X200092163Y-94896700D01*
X200092161Y-94896700D01*
X199948239Y-94896700D01*
X199948236Y-94896700D01*
X199810149Y-94937245D01*
X199689073Y-95015056D01*
X199594823Y-95123826D01*
X199594822Y-95123828D01*
X199535034Y-95254743D01*
X199514553Y-95397200D01*
X199535034Y-95539656D01*
X199581982Y-95642456D01*
X199594823Y-95670573D01*
X199689072Y-95779343D01*
X199810147Y-95857153D01*
X199810150Y-95857154D01*
X199810149Y-95857154D01*
X199948236Y-95897699D01*
X199948238Y-95897700D01*
X199948239Y-95897700D01*
X200092162Y-95897700D01*
X200092162Y-95897699D01*
X200230253Y-95857153D01*
X200351328Y-95779343D01*
X200445577Y-95670573D01*
X200505365Y-95539657D01*
X200525847Y-95397200D01*
X200505365Y-95254743D01*
X200505365Y-95254742D01*
X200502867Y-95246236D01*
X200504953Y-95245623D01*
X200496731Y-95188466D01*
X200525750Y-95124908D01*
X200584525Y-95087129D01*
X200654395Y-95087123D01*
X200707151Y-95118422D01*
X201213281Y-95624552D01*
X201246766Y-95685875D01*
X201249600Y-95712233D01*
X201249600Y-102829662D01*
X201270079Y-102906089D01*
X201299786Y-102957543D01*
X201309639Y-102974609D01*
X201309641Y-102974612D01*
X201496730Y-103161701D01*
X201530215Y-103223024D01*
X201525231Y-103292716D01*
X201483359Y-103348649D01*
X201417895Y-103373066D01*
X201391407Y-103372121D01*
X201391261Y-103372100D01*
X201247339Y-103372100D01*
X201247336Y-103372100D01*
X201109249Y-103412645D01*
X200988173Y-103490456D01*
X200988172Y-103490456D01*
X200988172Y-103490457D01*
X200975590Y-103504977D01*
X200893923Y-103599226D01*
X200893922Y-103599228D01*
X200834134Y-103730143D01*
X200813653Y-103872600D01*
X200834134Y-104015056D01*
X200865900Y-104084612D01*
X200875844Y-104153771D01*
X200846819Y-104217327D01*
X200813622Y-104242713D01*
X200814121Y-104243506D01*
X200669795Y-104334192D01*
X200577681Y-104426307D01*
X200516358Y-104459792D01*
X200446666Y-104454808D01*
X200402319Y-104426307D01*
X200310204Y-104334192D01*
X200171774Y-104247210D01*
X200017455Y-104193212D01*
X199855004Y-104174909D01*
X199854996Y-104174909D01*
X199692544Y-104193212D01*
X199538224Y-104247210D01*
X199397159Y-104335848D01*
X199329922Y-104354848D01*
X199263087Y-104334480D01*
X199243506Y-104318535D01*
X199074919Y-104149948D01*
X199041434Y-104088625D01*
X199038600Y-104062267D01*
X199038600Y-98292338D01*
X199058285Y-98225299D01*
X199068887Y-98211135D01*
X199069224Y-98210744D01*
X199069228Y-98210743D01*
X199163477Y-98101973D01*
X199223265Y-97971057D01*
X199243747Y-97828600D01*
X199223265Y-97686143D01*
X199163477Y-97555227D01*
X199069228Y-97446457D01*
X198970496Y-97383006D01*
X198924744Y-97330205D01*
X198914800Y-97261047D01*
X198943824Y-97197491D01*
X198949843Y-97191026D01*
X199046404Y-97094465D01*
X199107725Y-97060982D01*
X199169017Y-97063171D01*
X199276736Y-97094799D01*
X199276738Y-97094800D01*
X199276739Y-97094800D01*
X199420662Y-97094800D01*
X199420662Y-97094799D01*
X199558753Y-97054253D01*
X199679828Y-96976443D01*
X199774077Y-96867673D01*
X199833865Y-96736757D01*
X199854347Y-96594300D01*
X199833865Y-96451843D01*
X199774077Y-96320927D01*
X199679828Y-96212157D01*
X199558753Y-96134347D01*
X199558751Y-96134346D01*
X199558749Y-96134345D01*
X199558750Y-96134345D01*
X199420663Y-96093800D01*
X199420661Y-96093800D01*
X199276739Y-96093800D01*
X199276736Y-96093800D01*
X199138649Y-96134345D01*
X199017573Y-96212156D01*
X198923323Y-96320926D01*
X198893379Y-96386493D01*
X198868266Y-96422661D01*
X197951889Y-97339040D01*
X197895941Y-97394987D01*
X197895935Y-97394995D01*
X197856382Y-97463504D01*
X197856379Y-97463509D01*
X197835900Y-97539939D01*
X197835900Y-104562861D01*
X197836961Y-104570919D01*
X197833547Y-104571368D01*
X197832159Y-104625446D01*
X197792887Y-104683235D01*
X197749055Y-104706444D01*
X197725547Y-104713346D01*
X197604473Y-104791156D01*
X197510223Y-104899926D01*
X197510222Y-104899928D01*
X197450434Y-105030843D01*
X197429953Y-105173300D01*
X197440059Y-105243592D01*
X197430115Y-105312750D01*
X197384360Y-105365554D01*
X197317320Y-105385238D01*
X197250281Y-105365553D01*
X197229640Y-105348919D01*
X195436819Y-103556098D01*
X195403334Y-103494775D01*
X195400500Y-103468417D01*
X195400500Y-103100000D01*
X195794353Y-103100000D01*
X195814834Y-103242456D01*
X195863332Y-103348649D01*
X195874623Y-103373373D01*
X195968872Y-103482143D01*
X196089947Y-103559953D01*
X196089950Y-103559954D01*
X196089949Y-103559954D01*
X196228036Y-103600499D01*
X196228038Y-103600500D01*
X196228039Y-103600500D01*
X196371962Y-103600500D01*
X196371962Y-103600499D01*
X196510053Y-103559953D01*
X196631128Y-103482143D01*
X196725377Y-103373373D01*
X196785165Y-103242457D01*
X196805647Y-103100000D01*
X196785165Y-102957543D01*
X196778016Y-102941890D01*
X196752472Y-102885957D01*
X196725377Y-102826627D01*
X196631128Y-102717857D01*
X196510053Y-102640047D01*
X196510051Y-102640046D01*
X196510049Y-102640045D01*
X196510050Y-102640045D01*
X196371963Y-102599500D01*
X196371961Y-102599500D01*
X196228039Y-102599500D01*
X196228036Y-102599500D01*
X196089949Y-102640045D01*
X195968873Y-102717856D01*
X195874623Y-102826626D01*
X195874622Y-102826628D01*
X195814836Y-102957540D01*
X195814834Y-102957542D01*
X195794353Y-103100000D01*
X195400500Y-103100000D01*
X195400500Y-102775833D01*
X195420185Y-102708794D01*
X195436819Y-102688152D01*
X195805858Y-102319113D01*
X196240460Y-101884511D01*
X196254867Y-101859557D01*
X196264770Y-101842405D01*
X196269172Y-101834779D01*
X196280021Y-101815989D01*
X196300500Y-101739562D01*
X196300500Y-96786833D01*
X196320185Y-96719794D01*
X196336819Y-96699152D01*
X197178818Y-95857153D01*
X198083460Y-94952511D01*
X198123022Y-94883988D01*
X198143500Y-94807562D01*
X198143500Y-94728438D01*
X198143500Y-93951863D01*
X198154706Y-93900351D01*
X198155095Y-93899500D01*
X198185165Y-93833657D01*
X198205647Y-93691200D01*
X198185165Y-93548743D01*
X198161729Y-93497427D01*
X198151786Y-93428271D01*
X198180810Y-93364715D01*
X198207486Y-93341601D01*
X198210048Y-93339954D01*
X198210053Y-93339953D01*
X198331128Y-93262143D01*
X198425377Y-93153373D01*
X198450484Y-93098396D01*
X198496237Y-93045595D01*
X198563276Y-93025910D01*
X198630316Y-93045594D01*
G37*
%TD.AperFunction*%
%TA.AperFunction,Conductor*%
G36*
X197483297Y-92550585D02*
G01*
X197529052Y-92603389D01*
X197538996Y-92672547D01*
X197529053Y-92706408D01*
X197528536Y-92707543D01*
X197514834Y-92737545D01*
X197494353Y-92880000D01*
X197514834Y-93022455D01*
X197538269Y-93073770D01*
X197548212Y-93142929D01*
X197519186Y-93206484D01*
X197492514Y-93229596D01*
X197368874Y-93309055D01*
X197368872Y-93309056D01*
X197368872Y-93309057D01*
X197360994Y-93318149D01*
X197274623Y-93417826D01*
X197274622Y-93417828D01*
X197214834Y-93548743D01*
X197194353Y-93691200D01*
X197203936Y-93757854D01*
X197193992Y-93827012D01*
X197148237Y-93879816D01*
X197081198Y-93899500D01*
X197028036Y-93899500D01*
X196889949Y-93940045D01*
X196768873Y-94017856D01*
X196674623Y-94126626D01*
X196674622Y-94126628D01*
X196614834Y-94257543D01*
X196594353Y-94400000D01*
X196614834Y-94542456D01*
X196664875Y-94652029D01*
X196674623Y-94673373D01*
X196768872Y-94782143D01*
X196889947Y-94859953D01*
X196889950Y-94859954D01*
X196889949Y-94859954D01*
X197026557Y-94900065D01*
X197085335Y-94937839D01*
X197114361Y-95001394D01*
X197104418Y-95070553D01*
X197079304Y-95106723D01*
X195974579Y-96211448D01*
X195913256Y-96244933D01*
X195843564Y-96239949D01*
X195787631Y-96198077D01*
X195763214Y-96132613D01*
X195764159Y-96106130D01*
X195777147Y-96015800D01*
X195756665Y-95873343D01*
X195696877Y-95742427D01*
X195602628Y-95633657D01*
X195481553Y-95555847D01*
X195481551Y-95555846D01*
X195481549Y-95555845D01*
X195481550Y-95555845D01*
X195343463Y-95515300D01*
X195343461Y-95515300D01*
X195199539Y-95515300D01*
X195199536Y-95515300D01*
X195061449Y-95555845D01*
X194940373Y-95633656D01*
X194846123Y-95742426D01*
X194846122Y-95742428D01*
X194786334Y-95873343D01*
X194765853Y-96015800D01*
X194786334Y-96158256D01*
X194846122Y-96289171D01*
X194846123Y-96289173D01*
X194940372Y-96397943D01*
X195061447Y-96475753D01*
X195061450Y-96475754D01*
X195061449Y-96475754D01*
X195199536Y-96516299D01*
X195199538Y-96516300D01*
X195199539Y-96516300D01*
X195343462Y-96516300D01*
X195343462Y-96516299D01*
X195481553Y-96475753D01*
X195508538Y-96458410D01*
X195575573Y-96438726D01*
X195642613Y-96458409D01*
X195688369Y-96511212D01*
X195696217Y-96563310D01*
X195699500Y-96563310D01*
X195699500Y-101524167D01*
X195679815Y-101591206D01*
X195663181Y-101611848D01*
X194859541Y-102415487D01*
X194859535Y-102415495D01*
X194819982Y-102484004D01*
X194819977Y-102484015D01*
X194809844Y-102521832D01*
X194773478Y-102581492D01*
X194710631Y-102612020D01*
X194641256Y-102603725D01*
X194602389Y-102577418D01*
X194475099Y-102450128D01*
X194441614Y-102388805D01*
X194446598Y-102319113D01*
X194488470Y-102263180D01*
X194527846Y-102243470D01*
X194582050Y-102227554D01*
X194582050Y-102227553D01*
X194582053Y-102227553D01*
X194703128Y-102149743D01*
X194797377Y-102040973D01*
X194857165Y-101910057D01*
X194877647Y-101767600D01*
X194857165Y-101625143D01*
X194797377Y-101494227D01*
X194783150Y-101477808D01*
X194754126Y-101414252D01*
X194764070Y-101345093D01*
X194809826Y-101292290D01*
X194841925Y-101277630D01*
X194915753Y-101255953D01*
X195036828Y-101178143D01*
X195131077Y-101069373D01*
X195190865Y-100938457D01*
X195211347Y-100796000D01*
X195190865Y-100653543D01*
X195131077Y-100522627D01*
X195036828Y-100413857D01*
X194915753Y-100336047D01*
X194915751Y-100336046D01*
X194915749Y-100336045D01*
X194915750Y-100336045D01*
X194777663Y-100295500D01*
X194777661Y-100295500D01*
X194633739Y-100295500D01*
X194633736Y-100295500D01*
X194495649Y-100336045D01*
X194374573Y-100413856D01*
X194280323Y-100522626D01*
X194280322Y-100522628D01*
X194220534Y-100653543D01*
X194200053Y-100796000D01*
X194220534Y-100938456D01*
X194280322Y-101069371D01*
X194280325Y-101069377D01*
X194294549Y-101085792D01*
X194323573Y-101149348D01*
X194313629Y-101218506D01*
X194267873Y-101271309D01*
X194235770Y-101285970D01*
X194161949Y-101307645D01*
X194040873Y-101385456D01*
X193946623Y-101494226D01*
X193886810Y-101625196D01*
X193841054Y-101677999D01*
X193774015Y-101697683D01*
X193706975Y-101677998D01*
X193686335Y-101661364D01*
X193287819Y-101262848D01*
X193254334Y-101201525D01*
X193251500Y-101175167D01*
X193251500Y-101001739D01*
X193251500Y-101001738D01*
X193231021Y-100925311D01*
X193223165Y-100911704D01*
X193191464Y-100856795D01*
X193191458Y-100856787D01*
X192253019Y-99918348D01*
X192219534Y-99857025D01*
X192216700Y-99830667D01*
X192216700Y-99061173D01*
X192236385Y-98994134D01*
X192289189Y-98948379D01*
X192358347Y-98938435D01*
X192421903Y-98967460D01*
X192448086Y-98999171D01*
X192452417Y-99006673D01*
X192452418Y-99006674D01*
X192452420Y-99006678D01*
X192459540Y-99019011D01*
X192459541Y-99019013D01*
X193011804Y-99571275D01*
X193045289Y-99632598D01*
X193046861Y-99676602D01*
X193045553Y-99685699D01*
X193066034Y-99828156D01*
X193125822Y-99959071D01*
X193125823Y-99959073D01*
X193220072Y-100067843D01*
X193341147Y-100145653D01*
X193341150Y-100145654D01*
X193341149Y-100145654D01*
X193479236Y-100186199D01*
X193479238Y-100186200D01*
X193479239Y-100186200D01*
X193623162Y-100186200D01*
X193623162Y-100186199D01*
X193730321Y-100154735D01*
X193761250Y-100145654D01*
X193761250Y-100145653D01*
X193761253Y-100145653D01*
X193882328Y-100067843D01*
X193976577Y-99959073D01*
X194036365Y-99828157D01*
X194056847Y-99685700D01*
X194036365Y-99543243D01*
X193976577Y-99412327D01*
X193882328Y-99303557D01*
X193866864Y-99293618D01*
X193821109Y-99240817D01*
X193811164Y-99171658D01*
X193840184Y-99108106D01*
X193928077Y-99006673D01*
X193987865Y-98875757D01*
X194008347Y-98733300D01*
X193987865Y-98590843D01*
X193928077Y-98459927D01*
X193833828Y-98351157D01*
X193712753Y-98273347D01*
X193712751Y-98273346D01*
X193712749Y-98273345D01*
X193712750Y-98273345D01*
X193574663Y-98232800D01*
X193574661Y-98232800D01*
X193430739Y-98232800D01*
X193430736Y-98232800D01*
X193292649Y-98273345D01*
X193191539Y-98338325D01*
X193124500Y-98358009D01*
X193057460Y-98338324D01*
X193011705Y-98285520D01*
X193000500Y-98234009D01*
X193000500Y-97763738D01*
X193020185Y-97696699D01*
X193030787Y-97682535D01*
X193031124Y-97682144D01*
X193031128Y-97682143D01*
X193125377Y-97573373D01*
X193185165Y-97442457D01*
X193205647Y-97300000D01*
X193205646Y-97299999D01*
X193206668Y-97292897D01*
X193235693Y-97229341D01*
X193294471Y-97191566D01*
X193364340Y-97191566D01*
X193423117Y-97229338D01*
X193468872Y-97282143D01*
X193589947Y-97359953D01*
X193589950Y-97359954D01*
X193589949Y-97359954D01*
X193668469Y-97383009D01*
X193709290Y-97394995D01*
X193728036Y-97400499D01*
X193728038Y-97400500D01*
X193728039Y-97400500D01*
X193871962Y-97400500D01*
X193871962Y-97400499D01*
X194010053Y-97359953D01*
X194131128Y-97282143D01*
X194225377Y-97173373D01*
X194285165Y-97042457D01*
X194305647Y-96900000D01*
X194285165Y-96757543D01*
X194225377Y-96626627D01*
X194131128Y-96517857D01*
X194010053Y-96440047D01*
X194010051Y-96440046D01*
X194010049Y-96440045D01*
X194010050Y-96440045D01*
X193871963Y-96399500D01*
X193871961Y-96399500D01*
X193728039Y-96399500D01*
X193728036Y-96399500D01*
X193589949Y-96440045D01*
X193468873Y-96517856D01*
X193374623Y-96626626D01*
X193374622Y-96626628D01*
X193314834Y-96757543D01*
X193293331Y-96907103D01*
X193264306Y-96970659D01*
X193205528Y-97008433D01*
X193135658Y-97008433D01*
X193076880Y-96970658D01*
X193031129Y-96917858D01*
X193031128Y-96917857D01*
X192910053Y-96840047D01*
X192910051Y-96840046D01*
X192910049Y-96840045D01*
X192910050Y-96840045D01*
X192771963Y-96799500D01*
X192771961Y-96799500D01*
X192628039Y-96799500D01*
X192628036Y-96799500D01*
X192489949Y-96840045D01*
X192407739Y-96892878D01*
X192340699Y-96912562D01*
X192273660Y-96892877D01*
X192227905Y-96840072D01*
X192216700Y-96788562D01*
X192216700Y-96559633D01*
X192236385Y-96492594D01*
X192253019Y-96471952D01*
X192592358Y-96132613D01*
X192940460Y-95784511D01*
X192980022Y-95715988D01*
X193000500Y-95639562D01*
X193000500Y-95560438D01*
X193000500Y-94975833D01*
X193020185Y-94908794D01*
X193036819Y-94888152D01*
X193117411Y-94807560D01*
X193240460Y-94684511D01*
X193243055Y-94680017D01*
X193259214Y-94652029D01*
X193259217Y-94652020D01*
X193259223Y-94652012D01*
X193280021Y-94615989D01*
X193297425Y-94551036D01*
X193329516Y-94495454D01*
X193885328Y-93939642D01*
X193946648Y-93906159D01*
X194016339Y-93911143D01*
X194072273Y-93953014D01*
X194095744Y-94009678D01*
X194114834Y-94142456D01*
X194169968Y-94263181D01*
X194174623Y-94273373D01*
X194268872Y-94382143D01*
X194389947Y-94459953D01*
X194389950Y-94459954D01*
X194389949Y-94459954D01*
X194497107Y-94491417D01*
X194525280Y-94499690D01*
X194528036Y-94500499D01*
X194528038Y-94500500D01*
X194528039Y-94500500D01*
X194671962Y-94500500D01*
X194671962Y-94500499D01*
X194810053Y-94459953D01*
X194931128Y-94382143D01*
X195025377Y-94273373D01*
X195085165Y-94142457D01*
X195105647Y-94000000D01*
X195085165Y-93857543D01*
X195025377Y-93726627D01*
X194931128Y-93617857D01*
X194866170Y-93576111D01*
X194810051Y-93540045D01*
X194809588Y-93539910D01*
X194809180Y-93539648D01*
X194801983Y-93536361D01*
X194802455Y-93535326D01*
X194750810Y-93502136D01*
X194721785Y-93438580D01*
X194731729Y-93369422D01*
X194777482Y-93316619D01*
X194831128Y-93282143D01*
X194925377Y-93173373D01*
X194985165Y-93042457D01*
X195005647Y-92900000D01*
X194985165Y-92757543D01*
X194961814Y-92706411D01*
X194951870Y-92637253D01*
X194980895Y-92573698D01*
X195039673Y-92535923D01*
X195074608Y-92530900D01*
X197416258Y-92530900D01*
X197483297Y-92550585D01*
G37*
%TD.AperFunction*%
%TA.AperFunction,Conductor*%
G36*
X220422539Y-98829685D02*
G01*
X220468294Y-98882489D01*
X220479500Y-98934000D01*
X220479500Y-99186000D01*
X220459815Y-99253039D01*
X220407011Y-99298794D01*
X220355500Y-99310000D01*
X218883012Y-99310000D01*
X218915925Y-99252993D01*
X218950000Y-99125826D01*
X218950000Y-98994174D01*
X218915925Y-98867007D01*
X218883012Y-98810000D01*
X220355500Y-98810000D01*
X220422539Y-98829685D01*
G37*
%TD.AperFunction*%
%TA.AperFunction,Conductor*%
G36*
X174805703Y-89548645D02*
G01*
X174817494Y-89562267D01*
X174818415Y-89561470D01*
X174824222Y-89568172D01*
X174824223Y-89568173D01*
X174918472Y-89676943D01*
X175039547Y-89754753D01*
X175039550Y-89754754D01*
X175039549Y-89754754D01*
X175177636Y-89795299D01*
X175177638Y-89795300D01*
X175177639Y-89795300D01*
X175321562Y-89795300D01*
X175321562Y-89795299D01*
X175440530Y-89760368D01*
X175459650Y-89754754D01*
X175459650Y-89754753D01*
X175459653Y-89754753D01*
X175580728Y-89676943D01*
X175614388Y-89638096D01*
X175673167Y-89600323D01*
X175708101Y-89595300D01*
X180239767Y-89595300D01*
X180306806Y-89614985D01*
X180327448Y-89631619D01*
X183372904Y-92677075D01*
X183406389Y-92738398D01*
X183407961Y-92782402D01*
X183406653Y-92791500D01*
X183415222Y-92851100D01*
X183428397Y-92942735D01*
X183426607Y-92942992D01*
X183426611Y-93002028D01*
X183388840Y-93060808D01*
X183325286Y-93089837D01*
X183307632Y-93091100D01*
X183030433Y-93091100D01*
X182963394Y-93071415D01*
X182942752Y-93054781D01*
X182870312Y-92982341D01*
X182870311Y-92982340D01*
X182841929Y-92965954D01*
X182841929Y-92965953D01*
X182841925Y-92965952D01*
X182816120Y-92951053D01*
X182801790Y-92942779D01*
X182801791Y-92942779D01*
X182751351Y-92929264D01*
X182725362Y-92922300D01*
X182725360Y-92922300D01*
X179208959Y-92922300D01*
X179141920Y-92902615D01*
X179124853Y-92891647D01*
X179124849Y-92891645D01*
X179124848Y-92891645D01*
X178986763Y-92851100D01*
X178986761Y-92851100D01*
X178842839Y-92851100D01*
X178842836Y-92851100D01*
X178704749Y-92891645D01*
X178583673Y-92969456D01*
X178489423Y-93078226D01*
X178489422Y-93078228D01*
X178429634Y-93209143D01*
X178409153Y-93351600D01*
X178429634Y-93494056D01*
X178479343Y-93602901D01*
X178489423Y-93624973D01*
X178583672Y-93733743D01*
X178704747Y-93811553D01*
X178704750Y-93811554D01*
X178704749Y-93811554D01*
X178780027Y-93833657D01*
X178842839Y-93852100D01*
X178842843Y-93852100D01*
X178847442Y-93852762D01*
X178910998Y-93881786D01*
X178915253Y-93888407D01*
X178964868Y-93856523D01*
X178982158Y-93852762D01*
X178986756Y-93852100D01*
X178986761Y-93852100D01*
X179124853Y-93811553D01*
X179245928Y-93733743D01*
X179340177Y-93624973D01*
X179353506Y-93595787D01*
X179399262Y-93542984D01*
X179466300Y-93523300D01*
X182152366Y-93523300D01*
X182219405Y-93542985D01*
X182265160Y-93595789D01*
X182275104Y-93664947D01*
X182246079Y-93728503D01*
X182240047Y-93734981D01*
X181911848Y-94063181D01*
X181850525Y-94096666D01*
X181824167Y-94099500D01*
X178999803Y-94099500D01*
X178932764Y-94079815D01*
X178916356Y-94060879D01*
X178911001Y-94069212D01*
X178847446Y-94098238D01*
X178829797Y-94099500D01*
X175960438Y-94099500D01*
X175884010Y-94119978D01*
X175815489Y-94159540D01*
X175815486Y-94159542D01*
X175711848Y-94263181D01*
X175650525Y-94296666D01*
X175624167Y-94299500D01*
X175075833Y-94299500D01*
X175008794Y-94279815D01*
X174988152Y-94263181D01*
X174839395Y-94114424D01*
X174805910Y-94053101D01*
X174804339Y-94009094D01*
X174805647Y-94000000D01*
X174785165Y-93857543D01*
X174725377Y-93726627D01*
X174725375Y-93726625D01*
X174725374Y-93726622D01*
X174630787Y-93617462D01*
X174601762Y-93553906D01*
X174600500Y-93536260D01*
X174600500Y-89642358D01*
X174620185Y-89575319D01*
X174672989Y-89529564D01*
X174742147Y-89519620D01*
X174805703Y-89548645D01*
G37*
%TD.AperFunction*%
%TA.AperFunction,Conductor*%
G36*
X175146730Y-82780754D02*
G01*
X175202663Y-82822626D01*
X175216190Y-82845424D01*
X175260503Y-82942456D01*
X175274623Y-82973373D01*
X175368872Y-83082143D01*
X175489947Y-83159953D01*
X175489950Y-83159954D01*
X175489949Y-83159954D01*
X175628036Y-83200499D01*
X175628038Y-83200500D01*
X175628039Y-83200500D01*
X175771962Y-83200500D01*
X175771962Y-83200499D01*
X175910053Y-83159953D01*
X176031128Y-83082143D01*
X176064788Y-83043296D01*
X176123567Y-83005523D01*
X176158501Y-83000500D01*
X180401867Y-83000500D01*
X180468906Y-83020185D01*
X180489548Y-83036819D01*
X183591093Y-86138364D01*
X183624578Y-86199687D01*
X183619594Y-86269379D01*
X183577722Y-86325312D01*
X183556515Y-86337896D01*
X183434273Y-86416456D01*
X183340023Y-86525226D01*
X183340022Y-86525228D01*
X183280234Y-86656143D01*
X183259753Y-86798600D01*
X183280234Y-86941056D01*
X183314226Y-87015487D01*
X183340023Y-87071973D01*
X183434272Y-87180743D01*
X183555347Y-87258553D01*
X183555350Y-87258554D01*
X183555349Y-87258554D01*
X183617215Y-87276719D01*
X183669561Y-87292089D01*
X183693436Y-87299099D01*
X183693438Y-87299100D01*
X183693439Y-87299100D01*
X183837362Y-87299100D01*
X183837362Y-87299099D01*
X183944521Y-87267635D01*
X183975450Y-87258554D01*
X183975450Y-87258553D01*
X183975453Y-87258553D01*
X184096528Y-87180743D01*
X184190777Y-87071973D01*
X184221276Y-87005189D01*
X184267029Y-86952387D01*
X184334068Y-86932702D01*
X184401107Y-86952386D01*
X184421750Y-86969021D01*
X185017481Y-87564752D01*
X185050966Y-87626075D01*
X185053800Y-87652433D01*
X185053800Y-88069325D01*
X185034115Y-88136364D01*
X184981311Y-88182119D01*
X184912153Y-88192063D01*
X184894866Y-88188302D01*
X184826063Y-88168100D01*
X184826061Y-88168100D01*
X184682139Y-88168100D01*
X184682136Y-88168100D01*
X184544049Y-88208645D01*
X184422973Y-88286456D01*
X184422972Y-88286456D01*
X184422972Y-88286457D01*
X184420085Y-88289789D01*
X184328723Y-88395226D01*
X184328722Y-88395228D01*
X184268934Y-88526143D01*
X184248453Y-88668600D01*
X184268934Y-88811056D01*
X184300953Y-88881166D01*
X184310897Y-88950325D01*
X184281872Y-89013881D01*
X184223094Y-89051655D01*
X184153224Y-89051655D01*
X184121120Y-89036994D01*
X184035150Y-88981745D01*
X183897063Y-88941200D01*
X183897061Y-88941200D01*
X183753139Y-88941200D01*
X183753136Y-88941200D01*
X183615049Y-88981745D01*
X183493973Y-89059556D01*
X183399723Y-89168326D01*
X183399722Y-89168328D01*
X183339934Y-89299243D01*
X183319453Y-89441700D01*
X183339934Y-89584153D01*
X183339935Y-89584157D01*
X183382668Y-89677728D01*
X183384594Y-89681944D01*
X183395800Y-89733456D01*
X183395800Y-90607762D01*
X183403970Y-90638252D01*
X183416279Y-90684190D01*
X183416280Y-90684191D01*
X183434467Y-90715692D01*
X183455840Y-90752711D01*
X183855589Y-91152460D01*
X183914929Y-91186720D01*
X183924108Y-91192020D01*
X183924112Y-91192022D01*
X184000538Y-91212500D01*
X184000540Y-91212500D01*
X184917460Y-91212500D01*
X184917462Y-91212500D01*
X184993889Y-91192021D01*
X185062411Y-91152460D01*
X185118360Y-91096511D01*
X186885260Y-89329611D01*
X186902793Y-89299243D01*
X186924821Y-89261089D01*
X186945300Y-89184662D01*
X186945300Y-88607138D01*
X186924821Y-88530711D01*
X186919073Y-88520755D01*
X186885264Y-88462195D01*
X186885258Y-88462187D01*
X186878952Y-88455881D01*
X186845467Y-88394558D01*
X186850451Y-88324866D01*
X186892323Y-88268933D01*
X186957787Y-88244516D01*
X186964808Y-88244265D01*
X186965256Y-88244200D01*
X186965261Y-88244200D01*
X187103353Y-88203653D01*
X187224428Y-88125843D01*
X187318677Y-88017073D01*
X187378465Y-87886157D01*
X187398947Y-87743700D01*
X187397639Y-87734605D01*
X187407579Y-87665449D01*
X187432692Y-87629277D01*
X187785252Y-87276719D01*
X187846575Y-87243234D01*
X187872933Y-87240400D01*
X190302367Y-87240400D01*
X190369406Y-87260085D01*
X190415161Y-87312889D01*
X190425105Y-87382047D01*
X190396080Y-87445603D01*
X190390048Y-87452081D01*
X184785748Y-93056381D01*
X184724425Y-93089866D01*
X184698067Y-93092700D01*
X184516498Y-93092700D01*
X184449459Y-93073015D01*
X184403704Y-93020211D01*
X184393760Y-92951053D01*
X184397436Y-92934152D01*
X184397463Y-92933960D01*
X184397465Y-92933957D01*
X184417947Y-92791500D01*
X184397465Y-92649043D01*
X184337677Y-92518127D01*
X184243428Y-92409357D01*
X184122353Y-92331547D01*
X184122351Y-92331546D01*
X184122349Y-92331545D01*
X184122350Y-92331545D01*
X183984263Y-92291000D01*
X183984261Y-92291000D01*
X183888133Y-92291000D01*
X183821094Y-92271315D01*
X183800452Y-92254681D01*
X180600115Y-89054343D01*
X180600114Y-89054342D01*
X180600111Y-89054340D01*
X180587903Y-89047292D01*
X180531589Y-89014779D01*
X180455162Y-88994300D01*
X180455160Y-88994300D01*
X175708101Y-88994300D01*
X175641062Y-88974615D01*
X175614388Y-88951503D01*
X175613367Y-88950325D01*
X175580728Y-88912657D01*
X175459653Y-88834847D01*
X175459651Y-88834846D01*
X175459649Y-88834845D01*
X175459650Y-88834845D01*
X175321563Y-88794300D01*
X175321561Y-88794300D01*
X175177639Y-88794300D01*
X175177636Y-88794300D01*
X175039549Y-88834845D01*
X174918473Y-88912656D01*
X174918472Y-88912656D01*
X174918472Y-88912657D01*
X174829984Y-89014779D01*
X174818415Y-89028130D01*
X174815630Y-89025716D01*
X174775959Y-89060059D01*
X174706796Y-89069971D01*
X174643254Y-89040917D01*
X174605507Y-88982121D01*
X174600500Y-88947241D01*
X174600500Y-87375833D01*
X174620185Y-87308794D01*
X174636819Y-87288152D01*
X174685456Y-87239515D01*
X174740460Y-87184511D01*
X174780022Y-87115988D01*
X174800500Y-87039562D01*
X174800500Y-86960438D01*
X174800500Y-83075832D01*
X174820185Y-83008793D01*
X174836815Y-82988155D01*
X175015716Y-82809254D01*
X175077038Y-82775770D01*
X175146730Y-82780754D01*
G37*
%TD.AperFunction*%
%TA.AperFunction,Conductor*%
G36*
X191872862Y-77497751D02*
G01*
X191893100Y-77521106D01*
X191915448Y-77554552D01*
X191981769Y-77598867D01*
X191981770Y-77598868D01*
X192040247Y-77610499D01*
X192040250Y-77610500D01*
X192040252Y-77610500D01*
X192635500Y-77610500D01*
X192702539Y-77630185D01*
X192748294Y-77682989D01*
X192759500Y-77734500D01*
X192759500Y-79089962D01*
X192762324Y-79100500D01*
X192779979Y-79166390D01*
X192779982Y-79166395D01*
X192819535Y-79234904D01*
X192819541Y-79234912D01*
X196544548Y-82959919D01*
X196578033Y-83021242D01*
X196573049Y-83090934D01*
X196531177Y-83146867D01*
X196465713Y-83171284D01*
X196456867Y-83171600D01*
X190014077Y-83171600D01*
X189947038Y-83151915D01*
X189901283Y-83099111D01*
X189891339Y-83065247D01*
X189870965Y-82923543D01*
X189866515Y-82913800D01*
X189811177Y-82792627D01*
X189716928Y-82683857D01*
X189617589Y-82620016D01*
X189571836Y-82567214D01*
X189561892Y-82498056D01*
X189590917Y-82434500D01*
X189596949Y-82428021D01*
X189684924Y-82340047D01*
X189856752Y-82168219D01*
X189918075Y-82134734D01*
X189944433Y-82131900D01*
X193341499Y-82131900D01*
X193408538Y-82151585D01*
X193435211Y-82174696D01*
X193468872Y-82213543D01*
X193589947Y-82291353D01*
X193589950Y-82291354D01*
X193589949Y-82291354D01*
X193728036Y-82331899D01*
X193728038Y-82331900D01*
X193728039Y-82331900D01*
X193871962Y-82331900D01*
X193871962Y-82331899D01*
X194010053Y-82291353D01*
X194131128Y-82213543D01*
X194225377Y-82104773D01*
X194285165Y-81973857D01*
X194305647Y-81831400D01*
X194285165Y-81688943D01*
X194225377Y-81558027D01*
X194131128Y-81449257D01*
X194010053Y-81371447D01*
X194010051Y-81371446D01*
X194010049Y-81371445D01*
X194010050Y-81371445D01*
X193871963Y-81330900D01*
X193871961Y-81330900D01*
X193728039Y-81330900D01*
X193728036Y-81330900D01*
X193589949Y-81371445D01*
X193468873Y-81449256D01*
X193435212Y-81488103D01*
X193376433Y-81525877D01*
X193341499Y-81530900D01*
X190652114Y-81530900D01*
X190585075Y-81511215D01*
X190539320Y-81458411D01*
X190529376Y-81389253D01*
X190539320Y-81355388D01*
X190574865Y-81277557D01*
X190595347Y-81135100D01*
X190574865Y-80992643D01*
X190515077Y-80861727D01*
X190420828Y-80752957D01*
X190299753Y-80675147D01*
X190299751Y-80675146D01*
X190299749Y-80675145D01*
X190299750Y-80675145D01*
X190161663Y-80634600D01*
X190161661Y-80634600D01*
X190017739Y-80634600D01*
X190017736Y-80634600D01*
X189879649Y-80675145D01*
X189758573Y-80752956D01*
X189664323Y-80861726D01*
X189664322Y-80861728D01*
X189604534Y-80992643D01*
X189584053Y-81135100D01*
X189604534Y-81277556D01*
X189666697Y-81413672D01*
X189676641Y-81482831D01*
X189647616Y-81546387D01*
X189615906Y-81572570D01*
X189584089Y-81590940D01*
X189584086Y-81590942D01*
X186005341Y-85169687D01*
X186005335Y-85169695D01*
X185965782Y-85238204D01*
X185965779Y-85238209D01*
X185945300Y-85314639D01*
X185945300Y-88073767D01*
X185925615Y-88140806D01*
X185872811Y-88186561D01*
X185803653Y-88196505D01*
X185740097Y-88167480D01*
X185733619Y-88161448D01*
X185691119Y-88118948D01*
X185657634Y-88057625D01*
X185654800Y-88031267D01*
X185654800Y-87437040D01*
X185654799Y-87437036D01*
X185647237Y-87408812D01*
X185634322Y-87360612D01*
X185594760Y-87292089D01*
X180762211Y-82459540D01*
X180762209Y-82459539D01*
X180762204Y-82459535D01*
X180693695Y-82419982D01*
X180693690Y-82419979D01*
X180668213Y-82413152D01*
X180617262Y-82399500D01*
X180617260Y-82399500D01*
X176158501Y-82399500D01*
X176091462Y-82379815D01*
X176064788Y-82356703D01*
X176031128Y-82317857D01*
X175996581Y-82295655D01*
X175910051Y-82240045D01*
X175859245Y-82225128D01*
X175800467Y-82187354D01*
X175771442Y-82123798D01*
X175781386Y-82054640D01*
X175806496Y-82018473D01*
X178688152Y-79136819D01*
X178749475Y-79103334D01*
X178775833Y-79100500D01*
X180039560Y-79100500D01*
X180039562Y-79100500D01*
X180115989Y-79080021D01*
X180184511Y-79040460D01*
X180240460Y-78984511D01*
X180600460Y-78624511D01*
X180605669Y-78615489D01*
X180640021Y-78555989D01*
X180660500Y-78479562D01*
X180660500Y-77734500D01*
X180680185Y-77667461D01*
X180732989Y-77621706D01*
X180784500Y-77610500D01*
X181379750Y-77610500D01*
X181379751Y-77610499D01*
X181394568Y-77607552D01*
X181438229Y-77598868D01*
X181438229Y-77598867D01*
X181438231Y-77598867D01*
X181504552Y-77554552D01*
X181526898Y-77521108D01*
X181580510Y-77476304D01*
X181649834Y-77467597D01*
X181712862Y-77497751D01*
X181733100Y-77521106D01*
X181755448Y-77554552D01*
X181821769Y-77598867D01*
X181821770Y-77598868D01*
X181880247Y-77610499D01*
X181880250Y-77610500D01*
X181880252Y-77610500D01*
X183919750Y-77610500D01*
X183919751Y-77610499D01*
X183934568Y-77607552D01*
X183978229Y-77598868D01*
X183978229Y-77598867D01*
X183978231Y-77598867D01*
X184044552Y-77554552D01*
X184066898Y-77521108D01*
X184120510Y-77476304D01*
X184189834Y-77467597D01*
X184252862Y-77497751D01*
X184273100Y-77521106D01*
X184295448Y-77554552D01*
X184361769Y-77598867D01*
X184361770Y-77598868D01*
X184420247Y-77610499D01*
X184420250Y-77610500D01*
X184420252Y-77610500D01*
X186459750Y-77610500D01*
X186459751Y-77610499D01*
X186474568Y-77607552D01*
X186518229Y-77598868D01*
X186518229Y-77598867D01*
X186518231Y-77598867D01*
X186584552Y-77554552D01*
X186606898Y-77521108D01*
X186660510Y-77476304D01*
X186729834Y-77467597D01*
X186792862Y-77497751D01*
X186813100Y-77521106D01*
X186835448Y-77554552D01*
X186901769Y-77598867D01*
X186901770Y-77598868D01*
X186960247Y-77610499D01*
X186960250Y-77610500D01*
X186960252Y-77610500D01*
X188999750Y-77610500D01*
X188999751Y-77610499D01*
X189014568Y-77607552D01*
X189058229Y-77598868D01*
X189058229Y-77598867D01*
X189058231Y-77598867D01*
X189124552Y-77554552D01*
X189146898Y-77521108D01*
X189200510Y-77476304D01*
X189269834Y-77467597D01*
X189332862Y-77497751D01*
X189353100Y-77521106D01*
X189375448Y-77554552D01*
X189441769Y-77598867D01*
X189441770Y-77598868D01*
X189500247Y-77610499D01*
X189500250Y-77610500D01*
X189500252Y-77610500D01*
X191539750Y-77610500D01*
X191539751Y-77610499D01*
X191554568Y-77607552D01*
X191598229Y-77598868D01*
X191598229Y-77598867D01*
X191598231Y-77598867D01*
X191664552Y-77554552D01*
X191686898Y-77521108D01*
X191740510Y-77476304D01*
X191809834Y-77467597D01*
X191872862Y-77497751D01*
G37*
%TD.AperFunction*%
%TA.AperFunction,Conductor*%
G36*
X209652862Y-77497751D02*
G01*
X209673100Y-77521106D01*
X209695448Y-77554552D01*
X209761769Y-77598867D01*
X209761770Y-77598868D01*
X209820247Y-77610499D01*
X209820250Y-77610500D01*
X209820252Y-77610500D01*
X210216867Y-77610500D01*
X210283906Y-77630185D01*
X210329661Y-77682989D01*
X210339605Y-77752147D01*
X210310580Y-77815703D01*
X210304548Y-77822181D01*
X201523648Y-86603081D01*
X201462325Y-86636566D01*
X201435967Y-86639400D01*
X199240600Y-86639400D01*
X199173561Y-86619715D01*
X199127806Y-86566911D01*
X199117862Y-86497753D01*
X199127806Y-86463889D01*
X199160734Y-86391783D01*
X199180065Y-86349457D01*
X199200547Y-86207000D01*
X199180065Y-86064543D01*
X199120277Y-85933627D01*
X199026028Y-85824857D01*
X198904953Y-85747047D01*
X198904951Y-85747046D01*
X198904949Y-85747045D01*
X198904950Y-85747045D01*
X198766863Y-85706500D01*
X198766861Y-85706500D01*
X198622939Y-85706500D01*
X198622936Y-85706500D01*
X198484849Y-85747045D01*
X198363773Y-85824856D01*
X198269523Y-85933626D01*
X198269522Y-85933628D01*
X198209734Y-86064543D01*
X198189253Y-86207000D01*
X198209734Y-86349457D01*
X198209735Y-86349458D01*
X198261994Y-86463889D01*
X198271938Y-86533047D01*
X198242913Y-86596603D01*
X198184135Y-86634377D01*
X198149200Y-86639400D01*
X187657538Y-86639400D01*
X187606586Y-86653052D01*
X187581110Y-86659879D01*
X187542062Y-86682423D01*
X187521134Y-86694507D01*
X187512585Y-86699442D01*
X187005147Y-87206881D01*
X186943824Y-87240366D01*
X186917466Y-87243200D01*
X186821335Y-87243200D01*
X186705234Y-87277290D01*
X186635364Y-87277290D01*
X186576586Y-87239515D01*
X186547562Y-87175959D01*
X186546300Y-87158313D01*
X186546300Y-85530032D01*
X186565985Y-85462993D01*
X186582614Y-85442356D01*
X188747979Y-83276990D01*
X188809300Y-83243507D01*
X188878992Y-83248491D01*
X188934925Y-83290363D01*
X188948452Y-83313161D01*
X188960423Y-83339373D01*
X189054672Y-83448143D01*
X189175747Y-83525953D01*
X189175750Y-83525954D01*
X189175748Y-83525954D01*
X189186505Y-83529112D01*
X189245285Y-83566884D01*
X189274312Y-83630438D01*
X189264371Y-83699597D01*
X189239256Y-83735771D01*
X188911847Y-84063181D01*
X188850524Y-84096666D01*
X188824166Y-84099500D01*
X188728036Y-84099500D01*
X188589949Y-84140045D01*
X188468873Y-84217856D01*
X188374623Y-84326626D01*
X188374622Y-84326628D01*
X188314834Y-84457543D01*
X188294353Y-84600000D01*
X188314834Y-84742456D01*
X188374622Y-84873371D01*
X188374623Y-84873373D01*
X188468872Y-84982143D01*
X188589947Y-85059953D01*
X188589950Y-85059954D01*
X188589949Y-85059954D01*
X188728036Y-85100499D01*
X188728038Y-85100500D01*
X188728039Y-85100500D01*
X188871962Y-85100500D01*
X188871962Y-85100499D01*
X189010053Y-85059953D01*
X189103342Y-85000000D01*
X189734353Y-85000000D01*
X189754834Y-85142456D01*
X189798564Y-85238209D01*
X189814623Y-85273373D01*
X189908872Y-85382143D01*
X190029947Y-85459953D01*
X190029950Y-85459954D01*
X190029949Y-85459954D01*
X190168036Y-85500499D01*
X190168038Y-85500500D01*
X190168039Y-85500500D01*
X190311962Y-85500500D01*
X190311962Y-85500499D01*
X190450053Y-85459953D01*
X190571128Y-85382143D01*
X190665377Y-85273373D01*
X190725165Y-85142457D01*
X190745647Y-85000000D01*
X190725165Y-84857543D01*
X190665377Y-84726627D01*
X190571128Y-84617857D01*
X190450053Y-84540047D01*
X190450051Y-84540046D01*
X190450049Y-84540045D01*
X190450050Y-84540045D01*
X190311963Y-84499500D01*
X190311961Y-84499500D01*
X190168039Y-84499500D01*
X190168036Y-84499500D01*
X190029949Y-84540045D01*
X189908873Y-84617856D01*
X189814623Y-84726626D01*
X189814622Y-84726628D01*
X189754834Y-84857543D01*
X189734353Y-85000000D01*
X189103342Y-85000000D01*
X189131128Y-84982143D01*
X189225377Y-84873373D01*
X189285165Y-84742457D01*
X189305647Y-84600000D01*
X189304339Y-84590905D01*
X189314279Y-84521749D01*
X189339392Y-84485577D01*
X190016052Y-83808919D01*
X190077375Y-83775434D01*
X190103733Y-83772600D01*
X191349320Y-83772600D01*
X191416359Y-83792285D01*
X191462114Y-83845089D01*
X191472058Y-83914247D01*
X191462114Y-83948109D01*
X191461023Y-83950500D01*
X191434834Y-84007843D01*
X191414353Y-84150300D01*
X191434834Y-84292756D01*
X191494622Y-84423671D01*
X191494623Y-84423673D01*
X191588872Y-84532443D01*
X191709947Y-84610253D01*
X191709950Y-84610254D01*
X191709949Y-84610254D01*
X191848036Y-84650799D01*
X191848038Y-84650800D01*
X191905657Y-84650800D01*
X191972696Y-84670485D01*
X192018451Y-84723289D01*
X192028395Y-84792447D01*
X192018452Y-84826308D01*
X192009420Y-84846085D01*
X192008434Y-84848245D01*
X191987953Y-84990700D01*
X192008434Y-85133156D01*
X192068222Y-85264071D01*
X192068223Y-85264073D01*
X192162472Y-85372843D01*
X192283547Y-85450653D01*
X192283550Y-85450654D01*
X192283549Y-85450654D01*
X192421636Y-85491199D01*
X192421638Y-85491200D01*
X192421639Y-85491200D01*
X192565562Y-85491200D01*
X192565562Y-85491199D01*
X192703653Y-85450653D01*
X192824728Y-85372843D01*
X192918977Y-85264073D01*
X192978765Y-85133157D01*
X192999247Y-84990700D01*
X192978765Y-84848243D01*
X192918977Y-84717327D01*
X192865838Y-84656000D01*
X192836814Y-84592447D01*
X192846758Y-84523289D01*
X192892512Y-84470485D01*
X192959552Y-84450800D01*
X193694267Y-84450800D01*
X193761306Y-84470485D01*
X193781948Y-84487119D01*
X193808504Y-84513675D01*
X193841989Y-84574998D01*
X193843561Y-84619002D01*
X193842253Y-84628099D01*
X193862734Y-84770556D01*
X193909689Y-84873371D01*
X193922523Y-84901473D01*
X194016772Y-85010243D01*
X194137847Y-85088053D01*
X194137850Y-85088054D01*
X194137849Y-85088054D01*
X194275936Y-85128599D01*
X194275938Y-85128600D01*
X194275939Y-85128600D01*
X194419862Y-85128600D01*
X194419862Y-85128599D01*
X194557953Y-85088053D01*
X194679028Y-85010243D01*
X194773277Y-84901473D01*
X194833065Y-84770557D01*
X194853547Y-84628100D01*
X194847606Y-84586779D01*
X194857549Y-84517623D01*
X194903304Y-84464819D01*
X194970344Y-84445134D01*
X195037380Y-84464817D01*
X195046200Y-84470485D01*
X195144648Y-84533754D01*
X195282736Y-84574299D01*
X195282738Y-84574300D01*
X195282739Y-84574300D01*
X195426662Y-84574300D01*
X195426662Y-84574299D01*
X195564753Y-84533753D01*
X195685828Y-84455943D01*
X195780077Y-84347173D01*
X195839865Y-84216257D01*
X195860347Y-84073800D01*
X195839865Y-83931343D01*
X195838603Y-83922565D01*
X195839922Y-83922375D01*
X195839918Y-83861673D01*
X195877689Y-83802893D01*
X195941243Y-83773863D01*
X195958898Y-83772600D01*
X196454667Y-83772600D01*
X196521706Y-83792285D01*
X196542348Y-83808919D01*
X196990089Y-84256660D01*
X197015933Y-84271581D01*
X197021955Y-84275058D01*
X197070171Y-84325625D01*
X197083393Y-84394232D01*
X197057425Y-84459097D01*
X197026996Y-84486759D01*
X197003976Y-84501553D01*
X197003974Y-84501555D01*
X196909723Y-84610326D01*
X196909722Y-84610328D01*
X196849934Y-84741243D01*
X196829453Y-84883700D01*
X196849934Y-85026156D01*
X196903048Y-85142457D01*
X196909723Y-85157073D01*
X197003972Y-85265843D01*
X197125047Y-85343653D01*
X197125050Y-85343654D01*
X197125049Y-85343654D01*
X197224460Y-85372843D01*
X197256133Y-85382143D01*
X197263136Y-85384199D01*
X197263138Y-85384200D01*
X197263139Y-85384200D01*
X197407062Y-85384200D01*
X197407062Y-85384199D01*
X197545153Y-85343653D01*
X197666228Y-85265843D01*
X197760477Y-85157073D01*
X197820265Y-85026157D01*
X197840747Y-84883700D01*
X197820265Y-84741243D01*
X197819003Y-84732465D01*
X197822680Y-84731936D01*
X197822624Y-84679665D01*
X197860335Y-84620847D01*
X197923860Y-84591753D01*
X197993029Y-84601622D01*
X198029320Y-84626791D01*
X198096504Y-84693975D01*
X198129989Y-84755298D01*
X198131561Y-84799302D01*
X198130253Y-84808399D01*
X198150734Y-84950856D01*
X198200558Y-85059953D01*
X198210523Y-85081773D01*
X198304772Y-85190543D01*
X198425847Y-85268353D01*
X198425850Y-85268354D01*
X198425849Y-85268354D01*
X198563936Y-85308899D01*
X198563938Y-85308900D01*
X198563939Y-85308900D01*
X198707862Y-85308900D01*
X198707862Y-85308899D01*
X198845953Y-85268353D01*
X198967028Y-85190543D01*
X199061277Y-85081773D01*
X199121065Y-84950857D01*
X199141547Y-84808400D01*
X199121065Y-84665943D01*
X199061277Y-84535027D01*
X198967028Y-84426257D01*
X198845953Y-84348447D01*
X198845951Y-84348446D01*
X198845949Y-84348445D01*
X198845950Y-84348445D01*
X198707863Y-84307900D01*
X198707861Y-84307900D01*
X198611733Y-84307900D01*
X198544694Y-84288215D01*
X198524052Y-84271581D01*
X198028212Y-83775741D01*
X198028211Y-83775740D01*
X197987301Y-83752121D01*
X197959689Y-83736179D01*
X197959688Y-83736178D01*
X197952650Y-83732115D01*
X197954393Y-83729095D01*
X197912464Y-83695238D01*
X197890466Y-83628922D01*
X197901597Y-83573108D01*
X197909065Y-83556757D01*
X197929547Y-83414300D01*
X197909065Y-83271843D01*
X197849277Y-83140927D01*
X197755028Y-83032157D01*
X197633953Y-82954347D01*
X197633951Y-82954346D01*
X197633949Y-82954345D01*
X197633950Y-82954345D01*
X197495863Y-82913800D01*
X197495861Y-82913800D01*
X197399733Y-82913800D01*
X197332694Y-82894115D01*
X197312052Y-82877481D01*
X195594571Y-81160000D01*
X202694353Y-81160000D01*
X202714834Y-81302456D01*
X202739008Y-81355388D01*
X202774623Y-81433373D01*
X202868872Y-81542143D01*
X202989947Y-81619953D01*
X202989950Y-81619954D01*
X202989949Y-81619954D01*
X203128036Y-81660499D01*
X203128038Y-81660500D01*
X203128039Y-81660500D01*
X203271962Y-81660500D01*
X203271962Y-81660499D01*
X203410053Y-81619953D01*
X203531128Y-81542143D01*
X203625377Y-81433373D01*
X203685165Y-81302457D01*
X203705647Y-81160000D01*
X203685165Y-81017543D01*
X203625377Y-80886627D01*
X203531128Y-80777857D01*
X203410053Y-80700047D01*
X203410051Y-80700046D01*
X203410049Y-80700045D01*
X203410050Y-80700045D01*
X203271963Y-80659500D01*
X203271961Y-80659500D01*
X203128039Y-80659500D01*
X203128036Y-80659500D01*
X202989949Y-80700045D01*
X202868873Y-80777856D01*
X202774623Y-80886626D01*
X202774622Y-80886628D01*
X202714834Y-81017543D01*
X202694353Y-81160000D01*
X195594571Y-81160000D01*
X193734571Y-79300000D01*
X198694353Y-79300000D01*
X198714834Y-79442456D01*
X198774622Y-79573371D01*
X198774623Y-79573373D01*
X198868872Y-79682143D01*
X198989947Y-79759953D01*
X198989950Y-79759954D01*
X198989949Y-79759954D01*
X199128036Y-79800499D01*
X199128038Y-79800500D01*
X199128039Y-79800500D01*
X199271962Y-79800500D01*
X199271962Y-79800499D01*
X199410053Y-79759953D01*
X199531128Y-79682143D01*
X199625377Y-79573373D01*
X199685165Y-79442457D01*
X199705647Y-79300000D01*
X199685165Y-79157543D01*
X199625377Y-79026627D01*
X199531128Y-78917857D01*
X199410053Y-78840047D01*
X199410051Y-78840046D01*
X199410049Y-78840045D01*
X199410050Y-78840045D01*
X199271963Y-78799500D01*
X199271961Y-78799500D01*
X199128039Y-78799500D01*
X199128036Y-78799500D01*
X198989949Y-78840045D01*
X198868873Y-78917856D01*
X198774623Y-79026626D01*
X198774622Y-79026628D01*
X198714834Y-79157543D01*
X198694353Y-79300000D01*
X193734571Y-79300000D01*
X193396819Y-78962248D01*
X193363334Y-78900925D01*
X193360500Y-78874567D01*
X193360500Y-77734500D01*
X193380185Y-77667461D01*
X193432989Y-77621706D01*
X193484500Y-77610500D01*
X194079750Y-77610500D01*
X194079751Y-77610499D01*
X194094568Y-77607552D01*
X194138229Y-77598868D01*
X194138229Y-77598867D01*
X194138231Y-77598867D01*
X194204552Y-77554552D01*
X194226898Y-77521108D01*
X194280510Y-77476304D01*
X194349834Y-77467597D01*
X194412862Y-77497751D01*
X194433100Y-77521106D01*
X194455448Y-77554552D01*
X194521769Y-77598867D01*
X194521770Y-77598868D01*
X194580247Y-77610499D01*
X194580250Y-77610500D01*
X194580252Y-77610500D01*
X196619750Y-77610500D01*
X196619751Y-77610499D01*
X196634568Y-77607552D01*
X196678229Y-77598868D01*
X196678229Y-77598867D01*
X196678231Y-77598867D01*
X196744552Y-77554552D01*
X196766898Y-77521108D01*
X196820510Y-77476304D01*
X196889834Y-77467597D01*
X196952862Y-77497751D01*
X196973100Y-77521106D01*
X196995448Y-77554552D01*
X197061769Y-77598867D01*
X197061770Y-77598868D01*
X197120247Y-77610499D01*
X197120250Y-77610500D01*
X197120252Y-77610500D01*
X199159750Y-77610500D01*
X199159751Y-77610499D01*
X199174568Y-77607552D01*
X199218229Y-77598868D01*
X199218229Y-77598867D01*
X199218231Y-77598867D01*
X199284552Y-77554552D01*
X199306898Y-77521108D01*
X199360510Y-77476304D01*
X199429834Y-77467597D01*
X199492862Y-77497751D01*
X199513100Y-77521106D01*
X199535448Y-77554552D01*
X199601769Y-77598867D01*
X199601770Y-77598868D01*
X199660247Y-77610499D01*
X199660250Y-77610500D01*
X199660252Y-77610500D01*
X201699750Y-77610500D01*
X201699751Y-77610499D01*
X201714568Y-77607552D01*
X201758229Y-77598868D01*
X201758229Y-77598867D01*
X201758231Y-77598867D01*
X201824552Y-77554552D01*
X201846898Y-77521108D01*
X201900510Y-77476304D01*
X201969834Y-77467597D01*
X202032862Y-77497751D01*
X202053100Y-77521106D01*
X202075448Y-77554552D01*
X202141769Y-77598867D01*
X202141770Y-77598868D01*
X202200247Y-77610499D01*
X202200250Y-77610500D01*
X202200252Y-77610500D01*
X204239750Y-77610500D01*
X204239751Y-77610499D01*
X204254568Y-77607552D01*
X204298229Y-77598868D01*
X204298229Y-77598867D01*
X204298231Y-77598867D01*
X204364552Y-77554552D01*
X204386898Y-77521108D01*
X204440510Y-77476304D01*
X204509834Y-77467597D01*
X204572862Y-77497751D01*
X204593100Y-77521106D01*
X204615448Y-77554552D01*
X204681769Y-77598867D01*
X204681770Y-77598868D01*
X204740247Y-77610499D01*
X204740250Y-77610500D01*
X204740252Y-77610500D01*
X206779750Y-77610500D01*
X206779751Y-77610499D01*
X206794568Y-77607552D01*
X206838229Y-77598868D01*
X206838229Y-77598867D01*
X206838231Y-77598867D01*
X206904552Y-77554552D01*
X206926898Y-77521108D01*
X206980510Y-77476304D01*
X207049834Y-77467597D01*
X207112862Y-77497751D01*
X207133100Y-77521106D01*
X207155448Y-77554552D01*
X207221769Y-77598867D01*
X207221770Y-77598868D01*
X207280247Y-77610499D01*
X207280250Y-77610500D01*
X207280252Y-77610500D01*
X209319750Y-77610500D01*
X209319751Y-77610499D01*
X209334568Y-77607552D01*
X209378229Y-77598868D01*
X209378229Y-77598867D01*
X209378231Y-77598867D01*
X209444552Y-77554552D01*
X209466898Y-77521108D01*
X209520510Y-77476304D01*
X209589834Y-77467597D01*
X209652862Y-77497751D01*
G37*
%TD.AperFunction*%
%TA.AperFunction,Conductor*%
G36*
X178013018Y-74188553D02*
G01*
X178058784Y-74241348D01*
X178070000Y-74292883D01*
X178070000Y-75706988D01*
X178012993Y-75674075D01*
X177885826Y-75640000D01*
X177754174Y-75640000D01*
X177627007Y-75674075D01*
X177570000Y-75706988D01*
X177570000Y-74292936D01*
X177589685Y-74225897D01*
X177642489Y-74180142D01*
X177693971Y-74168936D01*
X177945978Y-74168884D01*
X178013018Y-74188553D01*
G37*
%TD.AperFunction*%
%TA.AperFunction,Conductor*%
G36*
X158248231Y-74430962D02*
G01*
X158287680Y-74488629D01*
X158289690Y-74558470D01*
X158253621Y-74618310D01*
X158238648Y-74630073D01*
X158057851Y-74750878D01*
X158029390Y-74775837D01*
X158459301Y-75205748D01*
X158357670Y-75279588D01*
X158179588Y-75457670D01*
X158105748Y-75559301D01*
X157675837Y-75129390D01*
X157650878Y-75157851D01*
X157505806Y-75374965D01*
X157452193Y-75419770D01*
X157382868Y-75428477D01*
X157319841Y-75398322D01*
X157283122Y-75338879D01*
X157284370Y-75269020D01*
X157291845Y-75250520D01*
X157330708Y-75172993D01*
X157338818Y-75159138D01*
X157475593Y-74956821D01*
X157485423Y-74944139D01*
X157647225Y-74761234D01*
X157658631Y-74749913D01*
X157842743Y-74589492D01*
X157855519Y-74579743D01*
X158058838Y-74444504D01*
X158072768Y-74436491D01*
X158115024Y-74415704D01*
X158183867Y-74403776D01*
X158248231Y-74430962D01*
G37*
%TD.AperFunction*%
%TD*%
D22*
X203200000Y-81160000D03*
X194540000Y-96460000D03*
X192600000Y-90880000D03*
X190500000Y-88900000D03*
X194600000Y-94000000D03*
X169500000Y-121500000D03*
X163600000Y-124100000D03*
X202900000Y-83400000D03*
X159200000Y-122300000D03*
X178000000Y-87700000D03*
X196600000Y-100300000D03*
X199800000Y-99700000D03*
X160300000Y-113500000D03*
X202700000Y-119300000D03*
X190000000Y-78500000D03*
X167700000Y-75600000D03*
X161500000Y-115100000D03*
X183700000Y-120100000D03*
X200400000Y-110800000D03*
X163600000Y-122300000D03*
X202500000Y-108100000D03*
X158200000Y-116900000D03*
X178800000Y-89900000D03*
X158200000Y-126100000D03*
X175600000Y-88100000D03*
X194900000Y-82700000D03*
X179100000Y-91500000D03*
X166500000Y-114600000D03*
X158200000Y-119000000D03*
X188900000Y-86200000D03*
X207800000Y-119500000D03*
X164600000Y-113500000D03*
X209100000Y-83500000D03*
X163600000Y-126100000D03*
X158200000Y-122300000D03*
X165000000Y-116200000D03*
X218700000Y-83700000D03*
X177800000Y-85400000D03*
X161500000Y-113600000D03*
X163300000Y-117800000D03*
X161400000Y-120600000D03*
X182200000Y-81900000D03*
X159200000Y-119000000D03*
X201000000Y-115800000D03*
X163800000Y-114300000D03*
X210200000Y-92200000D03*
X165830000Y-118955000D03*
X162200000Y-115900000D03*
X165700000Y-115400000D03*
X161500000Y-116700000D03*
X161400000Y-119000000D03*
X166300000Y-112000000D03*
X209000000Y-88500000D03*
X158200000Y-113500000D03*
X188200000Y-98900000D03*
X192700000Y-80900000D03*
X165900000Y-117300000D03*
X180900000Y-98100000D03*
X161400000Y-126100000D03*
X163000000Y-115100000D03*
X179000000Y-87800000D03*
X167700000Y-120600000D03*
X201700000Y-92400000D03*
X167400000Y-113800000D03*
X159200000Y-113500000D03*
X214500000Y-120600000D03*
X163600000Y-120600000D03*
X180400000Y-80600000D03*
X161400000Y-122300000D03*
X174300000Y-122600000D03*
X162500000Y-118700000D03*
X167700000Y-119000000D03*
X206700000Y-97800000D03*
X211600000Y-80000000D03*
X217800000Y-88100000D03*
X158200000Y-124100000D03*
X207200000Y-90900000D03*
X160300000Y-119000000D03*
X164100000Y-117000000D03*
X202700000Y-113300000D03*
X161400000Y-124100000D03*
X160300000Y-116900000D03*
X209300000Y-96200000D03*
X206900000Y-94500000D03*
X203600000Y-116500000D03*
X165400000Y-112700000D03*
X190600000Y-111600000D03*
X167300000Y-111400000D03*
X162300000Y-74800000D03*
X159200000Y-116900000D03*
X214300000Y-103500000D03*
X160300000Y-122300000D03*
X165800000Y-120600000D03*
X167700000Y-117300000D03*
X187400000Y-101600000D03*
X197935600Y-105173300D03*
X197100000Y-94400000D03*
X190089700Y-81135100D03*
X198694900Y-86207000D03*
X184754100Y-88668600D03*
X191076800Y-91514800D03*
X205349200Y-97975000D03*
X184298100Y-90310200D03*
X192422900Y-88001000D03*
X174300000Y-94000000D03*
X197423900Y-83414300D03*
X200020200Y-95397200D03*
X194372000Y-101767600D03*
X193551200Y-99685700D03*
X192700000Y-97300000D03*
X198738100Y-97828600D03*
X191832700Y-95555300D03*
X194500000Y-92900000D03*
X194705700Y-100796000D03*
X194277700Y-88028100D03*
X193502700Y-98733300D03*
X199595150Y-122295150D03*
X198000000Y-92880000D03*
X191800000Y-93200000D03*
X208200000Y-96200000D03*
X175700000Y-82700000D03*
X186043100Y-88895900D03*
X190240000Y-85000000D03*
X189180000Y-89990000D03*
X188800000Y-84600000D03*
X198635900Y-84808400D03*
X197700000Y-93691200D03*
X199348700Y-96594300D03*
X190700000Y-102900000D03*
X196591400Y-89700400D03*
X192493600Y-84990700D03*
X187400000Y-98400000D03*
X189402100Y-93687600D03*
X196300000Y-103100000D03*
X191900000Y-102500000D03*
X207200000Y-117900000D03*
X198282200Y-121642600D03*
X191442500Y-100855600D03*
X186893300Y-87743700D03*
X204300000Y-103100000D03*
X191713600Y-89200000D03*
X195860900Y-116887700D03*
X195271500Y-96015800D03*
X193800000Y-81831400D03*
X183825100Y-89441700D03*
X199200000Y-79300000D03*
X189669100Y-91704200D03*
X186400000Y-95500000D03*
X192917100Y-89208800D03*
X199267100Y-92325400D03*
X201319300Y-103872600D03*
X211900000Y-108400000D03*
X215240000Y-110000000D03*
X201016700Y-90809600D03*
X215500000Y-107900000D03*
X215400000Y-111000000D03*
X214700000Y-85700000D03*
X211600000Y-110200000D03*
X214600000Y-115100000D03*
X216000000Y-94400000D03*
X183765400Y-86798600D03*
X190965600Y-96000000D03*
X187504900Y-92181000D03*
X183100000Y-95200000D03*
X190578700Y-92886800D03*
X188340100Y-93047700D03*
X204145600Y-99393600D03*
X195516300Y-89951100D03*
X187300000Y-121600000D03*
X191927800Y-106056900D03*
X204265800Y-100716000D03*
X183912300Y-92791500D03*
X175249600Y-89294800D03*
X206714200Y-101717100D03*
X206321000Y-114987400D03*
X178914800Y-93351600D03*
X199080050Y-87589950D03*
X193800000Y-96900000D03*
X189385800Y-83066000D03*
X200993500Y-91795200D03*
X193484100Y-88641800D03*
X197335100Y-84883700D03*
X194347900Y-84628100D03*
X191920000Y-84150300D03*
X195528400Y-88125300D03*
X206143800Y-91218500D03*
X204345800Y-90660800D03*
X195354700Y-84073800D03*
X215404150Y-90004150D03*
X202552600Y-97978700D03*
X209700000Y-82800000D03*
X215800000Y-87100000D03*
X207200000Y-83450000D03*
D23*
X196800000Y-115580000D03*
X195530000Y-115580000D03*
X196800000Y-114310000D03*
X195530000Y-114310000D03*
X196800000Y-113040000D03*
X195530000Y-113040000D03*
X196800000Y-111770000D03*
X195530000Y-111770000D03*
X196800000Y-110500000D03*
X195530000Y-110500000D03*
X196800000Y-109230000D03*
X195530000Y-109230000D03*
X196800000Y-107960000D03*
X195530000Y-107960000D03*
X196800000Y-106690000D03*
X195530000Y-106690000D03*
X212700000Y-97240000D03*
X212700000Y-94700000D03*
X212700000Y-92160000D03*
X204935000Y-104905000D03*
X204935000Y-106175000D03*
X203665000Y-104905000D03*
X203665000Y-106175000D03*
X202395000Y-104905000D03*
X202395000Y-106175000D03*
X201125000Y-104905000D03*
X201125000Y-106175000D03*
X199855000Y-104905000D03*
X199855000Y-106175000D03*
X218450000Y-91412500D03*
X215920000Y-76140000D03*
X215920000Y-73600000D03*
X213380000Y-76140000D03*
X213380000Y-73600000D03*
X210840000Y-76140000D03*
X210840000Y-73600000D03*
X208300000Y-76140000D03*
X208300000Y-73600000D03*
X205760000Y-76140000D03*
X205760000Y-73600000D03*
X203220000Y-76140000D03*
X203220000Y-73600000D03*
X200680000Y-76140000D03*
X200680000Y-73600000D03*
X198140000Y-76140000D03*
X198140000Y-73600000D03*
X193060000Y-76140000D03*
X193060000Y-73600000D03*
X190520000Y-76140000D03*
X190520000Y-73600000D03*
X187980000Y-76140000D03*
X187980000Y-73600000D03*
X185440000Y-76140000D03*
X185440000Y-73600000D03*
X182900000Y-76140000D03*
X182900000Y-73600000D03*
X180360000Y-76140000D03*
X180360000Y-73600000D03*
X177820000Y-76140000D03*
X177820000Y-73600000D03*
X175280000Y-76140000D03*
X175280000Y-73600000D03*
X172740000Y-76140000D03*
X172740000Y-73600000D03*
X170200000Y-76140000D03*
X170200000Y-73600000D03*
X195600000Y-76140000D03*
X195600000Y-73600000D03*
X159400000Y-76500000D03*
X167375000Y-124175000D03*
X218450000Y-101600000D03*
X220990000Y-101600000D03*
X218450000Y-99060000D03*
X220990000Y-99060000D03*
X218450000Y-96520000D03*
X220990000Y-96520000D03*
X177800000Y-124460000D03*
X177800000Y-127000000D03*
X180340000Y-124460000D03*
X180340000Y-127000000D03*
X182880000Y-124460000D03*
X182880000Y-127000000D03*
X185420000Y-124460000D03*
X185420000Y-127000000D03*
X187960000Y-124460000D03*
X187960000Y-127000000D03*
X190500000Y-124460000D03*
X190500000Y-127000000D03*
X193040000Y-124460000D03*
X193040000Y-127000000D03*
X195580000Y-124460000D03*
X195580000Y-127000000D03*
X198120000Y-124460000D03*
X198120000Y-127000000D03*
X200660000Y-124460000D03*
X200660000Y-127000000D03*
X203200000Y-124460000D03*
X203200000Y-127000000D03*
X205740000Y-124460000D03*
X205740000Y-127000000D03*
X208280000Y-124460000D03*
X208280000Y-127000000D03*
X210820000Y-124460000D03*
X210820000Y-127000000D03*
X213360000Y-124460000D03*
X213360000Y-127000000D03*
X215900000Y-124460000D03*
X215900000Y-127000000D03*
D24*
X213375000Y-113895000D03*
X213375000Y-105255000D03*
X218475000Y-113895000D03*
X218475000Y-105255000D03*
D23*
X218425000Y-119350000D03*
X211425000Y-88950000D03*
X211425000Y-101650000D03*
M02*
