%TF.GenerationSoftware,KiCad,Pcbnew,8.0.4*%
%TF.CreationDate,2024-10-23T22:06:26+09:00*%
%TF.ProjectId,balsun,62616c73-756e-42e6-9b69-6361645f7063,rev?*%
%TF.SameCoordinates,Original*%
%TF.FileFunction,Legend,Top*%
%TF.FilePolarity,Positive*%
%FSLAX46Y46*%
G04 Gerber Fmt 4.6, Leading zero omitted, Abs format (unit mm)*
G04 Created by KiCad (PCBNEW 8.0.4) date 2024-10-23 22:06:26*
%MOMM*%
%LPD*%
G01*
G04 APERTURE LIST*
%ADD10C,0.100000*%
%ADD11C,0.125000*%
%ADD12C,0.187500*%
%ADD13C,0.150000*%
%ADD14C,0.300000*%
%ADD15C,0.120000*%
%ADD16C,0.254000*%
%ADD17C,0.200000*%
%ADD18C,0.250000*%
%ADD19C,0.350000*%
%ADD20O,1.600000X0.600000*%
G04 APERTURE END LIST*
D10*
X210994360Y-92452531D02*
X211184836Y-92452531D01*
X211184836Y-92452531D02*
X211280074Y-92500150D01*
X211280074Y-92500150D02*
X211375312Y-92595388D01*
X211375312Y-92595388D02*
X211422931Y-92785864D01*
X211422931Y-92785864D02*
X211422931Y-93119197D01*
X211422931Y-93119197D02*
X211375312Y-93309673D01*
X211375312Y-93309673D02*
X211280074Y-93404912D01*
X211280074Y-93404912D02*
X211184836Y-93452531D01*
X211184836Y-93452531D02*
X210994360Y-93452531D01*
X210994360Y-93452531D02*
X210899122Y-93404912D01*
X210899122Y-93404912D02*
X210803884Y-93309673D01*
X210803884Y-93309673D02*
X210756265Y-93119197D01*
X210756265Y-93119197D02*
X210756265Y-92785864D01*
X210756265Y-92785864D02*
X210803884Y-92595388D01*
X210803884Y-92595388D02*
X210899122Y-92500150D01*
X210899122Y-92500150D02*
X210994360Y-92452531D01*
X211327693Y-94110094D02*
X211232455Y-94062475D01*
X211232455Y-94062475D02*
X211089598Y-94062475D01*
X211089598Y-94062475D02*
X210946741Y-94110094D01*
X210946741Y-94110094D02*
X210851503Y-94205332D01*
X210851503Y-94205332D02*
X210803884Y-94300570D01*
X210803884Y-94300570D02*
X210756265Y-94491046D01*
X210756265Y-94491046D02*
X210756265Y-94633903D01*
X210756265Y-94633903D02*
X210803884Y-94824379D01*
X210803884Y-94824379D02*
X210851503Y-94919617D01*
X210851503Y-94919617D02*
X210946741Y-95014856D01*
X210946741Y-95014856D02*
X211089598Y-95062475D01*
X211089598Y-95062475D02*
X211184836Y-95062475D01*
X211184836Y-95062475D02*
X211327693Y-95014856D01*
X211327693Y-95014856D02*
X211375312Y-94967236D01*
X211375312Y-94967236D02*
X211375312Y-94633903D01*
X211375312Y-94633903D02*
X211184836Y-94633903D01*
X210803884Y-96672419D02*
X210803884Y-95672419D01*
X211280074Y-96005752D02*
X211280074Y-96672419D01*
X211280074Y-96100990D02*
X211327693Y-96053371D01*
X211327693Y-96053371D02*
X211422931Y-96005752D01*
X211422931Y-96005752D02*
X211565788Y-96005752D01*
X211565788Y-96005752D02*
X211661026Y-96053371D01*
X211661026Y-96053371D02*
X211708645Y-96148609D01*
X211708645Y-96148609D02*
X211708645Y-96672419D01*
D11*
X171520331Y-81671119D02*
X171520331Y-80671119D01*
X171520331Y-80671119D02*
X171758426Y-80671119D01*
X171758426Y-80671119D02*
X171901283Y-80718738D01*
X171901283Y-80718738D02*
X171996521Y-80813976D01*
X171996521Y-80813976D02*
X172044140Y-80909214D01*
X172044140Y-80909214D02*
X172091759Y-81099690D01*
X172091759Y-81099690D02*
X172091759Y-81242547D01*
X172091759Y-81242547D02*
X172044140Y-81433023D01*
X172044140Y-81433023D02*
X171996521Y-81528261D01*
X171996521Y-81528261D02*
X171901283Y-81623500D01*
X171901283Y-81623500D02*
X171758426Y-81671119D01*
X171758426Y-81671119D02*
X171520331Y-81671119D01*
X172520331Y-81671119D02*
X172520331Y-80671119D01*
X172520331Y-80671119D02*
X173091759Y-81671119D01*
X173091759Y-81671119D02*
X173091759Y-80671119D01*
X173567950Y-81671119D02*
X173567950Y-80671119D01*
X173567950Y-80671119D02*
X173948902Y-80671119D01*
X173948902Y-80671119D02*
X174044140Y-80718738D01*
X174044140Y-80718738D02*
X174091759Y-80766357D01*
X174091759Y-80766357D02*
X174139378Y-80861595D01*
X174139378Y-80861595D02*
X174139378Y-81004452D01*
X174139378Y-81004452D02*
X174091759Y-81099690D01*
X174091759Y-81099690D02*
X174044140Y-81147309D01*
X174044140Y-81147309D02*
X173948902Y-81194928D01*
X173948902Y-81194928D02*
X173567950Y-81194928D01*
D10*
X174872419Y-78819925D02*
X174872419Y-79296115D01*
X174872419Y-79296115D02*
X175348609Y-79343734D01*
X175348609Y-79343734D02*
X175300990Y-79296115D01*
X175300990Y-79296115D02*
X175253371Y-79200877D01*
X175253371Y-79200877D02*
X175253371Y-78962782D01*
X175253371Y-78962782D02*
X175300990Y-78867544D01*
X175300990Y-78867544D02*
X175348609Y-78819925D01*
X175348609Y-78819925D02*
X175443847Y-78772306D01*
X175443847Y-78772306D02*
X175681942Y-78772306D01*
X175681942Y-78772306D02*
X175777180Y-78819925D01*
X175777180Y-78819925D02*
X175824800Y-78867544D01*
X175824800Y-78867544D02*
X175872419Y-78962782D01*
X175872419Y-78962782D02*
X175872419Y-79200877D01*
X175872419Y-79200877D02*
X175824800Y-79296115D01*
X175824800Y-79296115D02*
X175777180Y-79343734D01*
X174872419Y-78486591D02*
X175872419Y-78153258D01*
X175872419Y-78153258D02*
X174872419Y-77819925D01*
X195172419Y-79019925D02*
X195172419Y-79496115D01*
X195172419Y-79496115D02*
X195648609Y-79543734D01*
X195648609Y-79543734D02*
X195600990Y-79496115D01*
X195600990Y-79496115D02*
X195553371Y-79400877D01*
X195553371Y-79400877D02*
X195553371Y-79162782D01*
X195553371Y-79162782D02*
X195600990Y-79067544D01*
X195600990Y-79067544D02*
X195648609Y-79019925D01*
X195648609Y-79019925D02*
X195743847Y-78972306D01*
X195743847Y-78972306D02*
X195981942Y-78972306D01*
X195981942Y-78972306D02*
X196077180Y-79019925D01*
X196077180Y-79019925D02*
X196124800Y-79067544D01*
X196124800Y-79067544D02*
X196172419Y-79162782D01*
X196172419Y-79162782D02*
X196172419Y-79400877D01*
X196172419Y-79400877D02*
X196124800Y-79496115D01*
X196124800Y-79496115D02*
X196077180Y-79543734D01*
X195172419Y-78686591D02*
X196172419Y-78353258D01*
X196172419Y-78353258D02*
X195172419Y-78019925D01*
D12*
X157909069Y-111278107D02*
X158623355Y-111278107D01*
X157766212Y-111706678D02*
X158266212Y-110206678D01*
X158266212Y-110206678D02*
X158766212Y-111706678D01*
X159266211Y-110706678D02*
X159266211Y-111706678D01*
X159266211Y-110849535D02*
X159337640Y-110778107D01*
X159337640Y-110778107D02*
X159480497Y-110706678D01*
X159480497Y-110706678D02*
X159694783Y-110706678D01*
X159694783Y-110706678D02*
X159837640Y-110778107D01*
X159837640Y-110778107D02*
X159909069Y-110920964D01*
X159909069Y-110920964D02*
X159909069Y-111706678D01*
X160409069Y-110706678D02*
X160980497Y-110706678D01*
X160623354Y-110206678D02*
X160623354Y-111492392D01*
X160623354Y-111492392D02*
X160694783Y-111635250D01*
X160694783Y-111635250D02*
X160837640Y-111706678D01*
X160837640Y-111706678D02*
X160980497Y-111706678D01*
X162551926Y-110706678D02*
X163623354Y-110706678D01*
X162980497Y-110063821D02*
X162551926Y-111992392D01*
X163480497Y-111349535D02*
X162409069Y-111349535D01*
X163051926Y-111992392D02*
X163480497Y-110063821D01*
X164051926Y-110349535D02*
X164123354Y-110278107D01*
X164123354Y-110278107D02*
X164266212Y-110206678D01*
X164266212Y-110206678D02*
X164623354Y-110206678D01*
X164623354Y-110206678D02*
X164766212Y-110278107D01*
X164766212Y-110278107D02*
X164837640Y-110349535D01*
X164837640Y-110349535D02*
X164909069Y-110492392D01*
X164909069Y-110492392D02*
X164909069Y-110635250D01*
X164909069Y-110635250D02*
X164837640Y-110849535D01*
X164837640Y-110849535D02*
X163980497Y-111706678D01*
X163980497Y-111706678D02*
X164909069Y-111706678D01*
X158009069Y-99478107D02*
X158723355Y-99478107D01*
X157866212Y-99906678D02*
X158366212Y-98406678D01*
X158366212Y-98406678D02*
X158866212Y-99906678D01*
X159366211Y-98906678D02*
X159366211Y-99906678D01*
X159366211Y-99049535D02*
X159437640Y-98978107D01*
X159437640Y-98978107D02*
X159580497Y-98906678D01*
X159580497Y-98906678D02*
X159794783Y-98906678D01*
X159794783Y-98906678D02*
X159937640Y-98978107D01*
X159937640Y-98978107D02*
X160009069Y-99120964D01*
X160009069Y-99120964D02*
X160009069Y-99906678D01*
X160509069Y-98906678D02*
X161080497Y-98906678D01*
X160723354Y-98406678D02*
X160723354Y-99692392D01*
X160723354Y-99692392D02*
X160794783Y-99835250D01*
X160794783Y-99835250D02*
X160937640Y-99906678D01*
X160937640Y-99906678D02*
X161080497Y-99906678D01*
X162651926Y-98906678D02*
X163723354Y-98906678D01*
X163080497Y-98263821D02*
X162651926Y-100192392D01*
X163580497Y-99549535D02*
X162509069Y-99549535D01*
X163151926Y-100192392D02*
X163580497Y-98263821D01*
X165009069Y-99906678D02*
X164151926Y-99906678D01*
X164580497Y-99906678D02*
X164580497Y-98406678D01*
X164580497Y-98406678D02*
X164437640Y-98620964D01*
X164437640Y-98620964D02*
X164294783Y-98763821D01*
X164294783Y-98763821D02*
X164151926Y-98835250D01*
D10*
X191072419Y-79548496D02*
X191072419Y-79358020D01*
X191072419Y-79358020D02*
X191024800Y-79262782D01*
X191024800Y-79262782D02*
X190977180Y-79215163D01*
X190977180Y-79215163D02*
X190834323Y-79119925D01*
X190834323Y-79119925D02*
X190643847Y-79072306D01*
X190643847Y-79072306D02*
X190262895Y-79072306D01*
X190262895Y-79072306D02*
X190167657Y-79119925D01*
X190167657Y-79119925D02*
X190120038Y-79167544D01*
X190120038Y-79167544D02*
X190072419Y-79262782D01*
X190072419Y-79262782D02*
X190072419Y-79453258D01*
X190072419Y-79453258D02*
X190120038Y-79548496D01*
X190120038Y-79548496D02*
X190167657Y-79596115D01*
X190167657Y-79596115D02*
X190262895Y-79643734D01*
X190262895Y-79643734D02*
X190500990Y-79643734D01*
X190500990Y-79643734D02*
X190596228Y-79596115D01*
X190596228Y-79596115D02*
X190643847Y-79548496D01*
X190643847Y-79548496D02*
X190691466Y-79453258D01*
X190691466Y-79453258D02*
X190691466Y-79262782D01*
X190691466Y-79262782D02*
X190643847Y-79167544D01*
X190643847Y-79167544D02*
X190596228Y-79119925D01*
X190596228Y-79119925D02*
X190500990Y-79072306D01*
X190591466Y-122596115D02*
X190591466Y-121834211D01*
X190972419Y-122215163D02*
X190210514Y-122215163D01*
X189972419Y-120881830D02*
X189972419Y-121358020D01*
X189972419Y-121358020D02*
X190448609Y-121405639D01*
X190448609Y-121405639D02*
X190400990Y-121358020D01*
X190400990Y-121358020D02*
X190353371Y-121262782D01*
X190353371Y-121262782D02*
X190353371Y-121024687D01*
X190353371Y-121024687D02*
X190400990Y-120929449D01*
X190400990Y-120929449D02*
X190448609Y-120881830D01*
X190448609Y-120881830D02*
X190543847Y-120834211D01*
X190543847Y-120834211D02*
X190781942Y-120834211D01*
X190781942Y-120834211D02*
X190877180Y-120881830D01*
X190877180Y-120881830D02*
X190924800Y-120929449D01*
X190924800Y-120929449D02*
X190972419Y-121024687D01*
X190972419Y-121024687D02*
X190972419Y-121262782D01*
X190972419Y-121262782D02*
X190924800Y-121358020D01*
X190924800Y-121358020D02*
X190877180Y-121405639D01*
X189972419Y-120548496D02*
X190972419Y-120215163D01*
X190972419Y-120215163D02*
X189972419Y-119881830D01*
X188672419Y-79072306D02*
X188672419Y-79643734D01*
X188672419Y-79358020D02*
X187672419Y-79358020D01*
X187672419Y-79358020D02*
X187815276Y-79453258D01*
X187815276Y-79453258D02*
X187910514Y-79548496D01*
X187910514Y-79548496D02*
X187958133Y-79643734D01*
X187672419Y-78453258D02*
X187672419Y-78358020D01*
X187672419Y-78358020D02*
X187720038Y-78262782D01*
X187720038Y-78262782D02*
X187767657Y-78215163D01*
X187767657Y-78215163D02*
X187862895Y-78167544D01*
X187862895Y-78167544D02*
X188053371Y-78119925D01*
X188053371Y-78119925D02*
X188291466Y-78119925D01*
X188291466Y-78119925D02*
X188481942Y-78167544D01*
X188481942Y-78167544D02*
X188577180Y-78215163D01*
X188577180Y-78215163D02*
X188624800Y-78262782D01*
X188624800Y-78262782D02*
X188672419Y-78358020D01*
X188672419Y-78358020D02*
X188672419Y-78453258D01*
X188672419Y-78453258D02*
X188624800Y-78548496D01*
X188624800Y-78548496D02*
X188577180Y-78596115D01*
X188577180Y-78596115D02*
X188481942Y-78643734D01*
X188481942Y-78643734D02*
X188291466Y-78691353D01*
X188291466Y-78691353D02*
X188053371Y-78691353D01*
X188053371Y-78691353D02*
X187862895Y-78643734D01*
X187862895Y-78643734D02*
X187767657Y-78596115D01*
X187767657Y-78596115D02*
X187720038Y-78548496D01*
X187720038Y-78548496D02*
X187672419Y-78453258D01*
X192620038Y-121972306D02*
X192572419Y-122067544D01*
X192572419Y-122067544D02*
X192572419Y-122210401D01*
X192572419Y-122210401D02*
X192620038Y-122353258D01*
X192620038Y-122353258D02*
X192715276Y-122448496D01*
X192715276Y-122448496D02*
X192810514Y-122496115D01*
X192810514Y-122496115D02*
X193000990Y-122543734D01*
X193000990Y-122543734D02*
X193143847Y-122543734D01*
X193143847Y-122543734D02*
X193334323Y-122496115D01*
X193334323Y-122496115D02*
X193429561Y-122448496D01*
X193429561Y-122448496D02*
X193524800Y-122353258D01*
X193524800Y-122353258D02*
X193572419Y-122210401D01*
X193572419Y-122210401D02*
X193572419Y-122115163D01*
X193572419Y-122115163D02*
X193524800Y-121972306D01*
X193524800Y-121972306D02*
X193477180Y-121924687D01*
X193477180Y-121924687D02*
X193143847Y-121924687D01*
X193143847Y-121924687D02*
X193143847Y-122115163D01*
X193572419Y-121496115D02*
X192572419Y-121496115D01*
X192572419Y-121496115D02*
X193572419Y-120924687D01*
X193572419Y-120924687D02*
X192572419Y-120924687D01*
X193572419Y-120448496D02*
X192572419Y-120448496D01*
X192572419Y-120448496D02*
X192572419Y-120210401D01*
X192572419Y-120210401D02*
X192620038Y-120067544D01*
X192620038Y-120067544D02*
X192715276Y-119972306D01*
X192715276Y-119972306D02*
X192810514Y-119924687D01*
X192810514Y-119924687D02*
X193000990Y-119877068D01*
X193000990Y-119877068D02*
X193143847Y-119877068D01*
X193143847Y-119877068D02*
X193334323Y-119924687D01*
X193334323Y-119924687D02*
X193429561Y-119972306D01*
X193429561Y-119972306D02*
X193524800Y-120067544D01*
X193524800Y-120067544D02*
X193572419Y-120210401D01*
X193572419Y-120210401D02*
X193572419Y-120448496D01*
X180972419Y-79072306D02*
X180972419Y-79643734D01*
X180972419Y-79358020D02*
X179972419Y-79358020D01*
X179972419Y-79358020D02*
X180115276Y-79453258D01*
X180115276Y-79453258D02*
X180210514Y-79548496D01*
X180210514Y-79548496D02*
X180258133Y-79643734D01*
X179972419Y-78738972D02*
X179972419Y-78119925D01*
X179972419Y-78119925D02*
X180353371Y-78453258D01*
X180353371Y-78453258D02*
X180353371Y-78310401D01*
X180353371Y-78310401D02*
X180400990Y-78215163D01*
X180400990Y-78215163D02*
X180448609Y-78167544D01*
X180448609Y-78167544D02*
X180543847Y-78119925D01*
X180543847Y-78119925D02*
X180781942Y-78119925D01*
X180781942Y-78119925D02*
X180877180Y-78167544D01*
X180877180Y-78167544D02*
X180924800Y-78215163D01*
X180924800Y-78215163D02*
X180972419Y-78310401D01*
X180972419Y-78310401D02*
X180972419Y-78596115D01*
X180972419Y-78596115D02*
X180924800Y-78691353D01*
X180924800Y-78691353D02*
X180877180Y-78738972D01*
X207656265Y-121986704D02*
X208132455Y-121986704D01*
X207561027Y-122272419D02*
X207894360Y-121272419D01*
X207894360Y-121272419D02*
X208227693Y-122272419D01*
X208513408Y-121367657D02*
X208561027Y-121320038D01*
X208561027Y-121320038D02*
X208656265Y-121272419D01*
X208656265Y-121272419D02*
X208894360Y-121272419D01*
X208894360Y-121272419D02*
X208989598Y-121320038D01*
X208989598Y-121320038D02*
X209037217Y-121367657D01*
X209037217Y-121367657D02*
X209084836Y-121462895D01*
X209084836Y-121462895D02*
X209084836Y-121558133D01*
X209084836Y-121558133D02*
X209037217Y-121700990D01*
X209037217Y-121700990D02*
X208465789Y-122272419D01*
X208465789Y-122272419D02*
X209084836Y-122272419D01*
X205605752Y-79167544D02*
X206272419Y-79167544D01*
X205224800Y-79405639D02*
X205939085Y-79643734D01*
X205939085Y-79643734D02*
X205939085Y-79024687D01*
X202556265Y-121986704D02*
X203032455Y-121986704D01*
X202461027Y-122272419D02*
X202794360Y-121272419D01*
X202794360Y-121272419D02*
X203127693Y-122272419D01*
X203651503Y-121272419D02*
X203746741Y-121272419D01*
X203746741Y-121272419D02*
X203841979Y-121320038D01*
X203841979Y-121320038D02*
X203889598Y-121367657D01*
X203889598Y-121367657D02*
X203937217Y-121462895D01*
X203937217Y-121462895D02*
X203984836Y-121653371D01*
X203984836Y-121653371D02*
X203984836Y-121891466D01*
X203984836Y-121891466D02*
X203937217Y-122081942D01*
X203937217Y-122081942D02*
X203889598Y-122177180D01*
X203889598Y-122177180D02*
X203841979Y-122224800D01*
X203841979Y-122224800D02*
X203746741Y-122272419D01*
X203746741Y-122272419D02*
X203651503Y-122272419D01*
X203651503Y-122272419D02*
X203556265Y-122224800D01*
X203556265Y-122224800D02*
X203508646Y-122177180D01*
X203508646Y-122177180D02*
X203461027Y-122081942D01*
X203461027Y-122081942D02*
X203413408Y-121891466D01*
X203413408Y-121891466D02*
X203413408Y-121653371D01*
X203413408Y-121653371D02*
X203461027Y-121462895D01*
X203461027Y-121462895D02*
X203508646Y-121367657D01*
X203508646Y-121367657D02*
X203556265Y-121320038D01*
X203556265Y-121320038D02*
X203651503Y-121272419D01*
X184561027Y-100872419D02*
X185132455Y-100872419D01*
X184846741Y-101872419D02*
X184846741Y-100872419D01*
X185370551Y-101872419D02*
X185894360Y-101205752D01*
X185370551Y-101205752D02*
X185894360Y-101872419D01*
X193000990Y-79453258D02*
X192953371Y-79548496D01*
X192953371Y-79548496D02*
X192905752Y-79596115D01*
X192905752Y-79596115D02*
X192810514Y-79643734D01*
X192810514Y-79643734D02*
X192762895Y-79643734D01*
X192762895Y-79643734D02*
X192667657Y-79596115D01*
X192667657Y-79596115D02*
X192620038Y-79548496D01*
X192620038Y-79548496D02*
X192572419Y-79453258D01*
X192572419Y-79453258D02*
X192572419Y-79262782D01*
X192572419Y-79262782D02*
X192620038Y-79167544D01*
X192620038Y-79167544D02*
X192667657Y-79119925D01*
X192667657Y-79119925D02*
X192762895Y-79072306D01*
X192762895Y-79072306D02*
X192810514Y-79072306D01*
X192810514Y-79072306D02*
X192905752Y-79119925D01*
X192905752Y-79119925D02*
X192953371Y-79167544D01*
X192953371Y-79167544D02*
X193000990Y-79262782D01*
X193000990Y-79262782D02*
X193000990Y-79453258D01*
X193000990Y-79453258D02*
X193048609Y-79548496D01*
X193048609Y-79548496D02*
X193096228Y-79596115D01*
X193096228Y-79596115D02*
X193191466Y-79643734D01*
X193191466Y-79643734D02*
X193381942Y-79643734D01*
X193381942Y-79643734D02*
X193477180Y-79596115D01*
X193477180Y-79596115D02*
X193524800Y-79548496D01*
X193524800Y-79548496D02*
X193572419Y-79453258D01*
X193572419Y-79453258D02*
X193572419Y-79262782D01*
X193572419Y-79262782D02*
X193524800Y-79167544D01*
X193524800Y-79167544D02*
X193477180Y-79119925D01*
X193477180Y-79119925D02*
X193381942Y-79072306D01*
X193381942Y-79072306D02*
X193191466Y-79072306D01*
X193191466Y-79072306D02*
X193096228Y-79119925D01*
X193096228Y-79119925D02*
X193048609Y-79167544D01*
X193048609Y-79167544D02*
X193000990Y-79262782D01*
X181356265Y-102024800D02*
X181499122Y-102072419D01*
X181499122Y-102072419D02*
X181737217Y-102072419D01*
X181737217Y-102072419D02*
X181832455Y-102024800D01*
X181832455Y-102024800D02*
X181880074Y-101977180D01*
X181880074Y-101977180D02*
X181927693Y-101881942D01*
X181927693Y-101881942D02*
X181927693Y-101786704D01*
X181927693Y-101786704D02*
X181880074Y-101691466D01*
X181880074Y-101691466D02*
X181832455Y-101643847D01*
X181832455Y-101643847D02*
X181737217Y-101596228D01*
X181737217Y-101596228D02*
X181546741Y-101548609D01*
X181546741Y-101548609D02*
X181451503Y-101500990D01*
X181451503Y-101500990D02*
X181403884Y-101453371D01*
X181403884Y-101453371D02*
X181356265Y-101358133D01*
X181356265Y-101358133D02*
X181356265Y-101262895D01*
X181356265Y-101262895D02*
X181403884Y-101167657D01*
X181403884Y-101167657D02*
X181451503Y-101120038D01*
X181451503Y-101120038D02*
X181546741Y-101072419D01*
X181546741Y-101072419D02*
X181784836Y-101072419D01*
X181784836Y-101072419D02*
X181927693Y-101120038D01*
X182356265Y-101072419D02*
X182356265Y-101881942D01*
X182356265Y-101881942D02*
X182403884Y-101977180D01*
X182403884Y-101977180D02*
X182451503Y-102024800D01*
X182451503Y-102024800D02*
X182546741Y-102072419D01*
X182546741Y-102072419D02*
X182737217Y-102072419D01*
X182737217Y-102072419D02*
X182832455Y-102024800D01*
X182832455Y-102024800D02*
X182880074Y-101977180D01*
X182880074Y-101977180D02*
X182927693Y-101881942D01*
X182927693Y-101881942D02*
X182927693Y-101072419D01*
X183403884Y-102072419D02*
X183403884Y-101072419D01*
X183403884Y-101072419D02*
X183975312Y-102072419D01*
X183975312Y-102072419D02*
X183975312Y-101072419D01*
X177420038Y-80072306D02*
X177372419Y-80167544D01*
X177372419Y-80167544D02*
X177372419Y-80310401D01*
X177372419Y-80310401D02*
X177420038Y-80453258D01*
X177420038Y-80453258D02*
X177515276Y-80548496D01*
X177515276Y-80548496D02*
X177610514Y-80596115D01*
X177610514Y-80596115D02*
X177800990Y-80643734D01*
X177800990Y-80643734D02*
X177943847Y-80643734D01*
X177943847Y-80643734D02*
X178134323Y-80596115D01*
X178134323Y-80596115D02*
X178229561Y-80548496D01*
X178229561Y-80548496D02*
X178324800Y-80453258D01*
X178324800Y-80453258D02*
X178372419Y-80310401D01*
X178372419Y-80310401D02*
X178372419Y-80215163D01*
X178372419Y-80215163D02*
X178324800Y-80072306D01*
X178324800Y-80072306D02*
X178277180Y-80024687D01*
X178277180Y-80024687D02*
X177943847Y-80024687D01*
X177943847Y-80024687D02*
X177943847Y-80215163D01*
X178372419Y-79596115D02*
X177372419Y-79596115D01*
X177372419Y-79596115D02*
X178372419Y-79024687D01*
X178372419Y-79024687D02*
X177372419Y-79024687D01*
X178372419Y-78548496D02*
X177372419Y-78548496D01*
X177372419Y-78548496D02*
X177372419Y-78310401D01*
X177372419Y-78310401D02*
X177420038Y-78167544D01*
X177420038Y-78167544D02*
X177515276Y-78072306D01*
X177515276Y-78072306D02*
X177610514Y-78024687D01*
X177610514Y-78024687D02*
X177800990Y-77977068D01*
X177800990Y-77977068D02*
X177943847Y-77977068D01*
X177943847Y-77977068D02*
X178134323Y-78024687D01*
X178134323Y-78024687D02*
X178229561Y-78072306D01*
X178229561Y-78072306D02*
X178324800Y-78167544D01*
X178324800Y-78167544D02*
X178372419Y-78310401D01*
X178372419Y-78310401D02*
X178372419Y-78548496D01*
X183472419Y-79072306D02*
X183472419Y-79643734D01*
X183472419Y-79358020D02*
X182472419Y-79358020D01*
X182472419Y-79358020D02*
X182615276Y-79453258D01*
X182615276Y-79453258D02*
X182710514Y-79548496D01*
X182710514Y-79548496D02*
X182758133Y-79643734D01*
X182567657Y-78691353D02*
X182520038Y-78643734D01*
X182520038Y-78643734D02*
X182472419Y-78548496D01*
X182472419Y-78548496D02*
X182472419Y-78310401D01*
X182472419Y-78310401D02*
X182520038Y-78215163D01*
X182520038Y-78215163D02*
X182567657Y-78167544D01*
X182567657Y-78167544D02*
X182662895Y-78119925D01*
X182662895Y-78119925D02*
X182758133Y-78119925D01*
X182758133Y-78119925D02*
X182900990Y-78167544D01*
X182900990Y-78167544D02*
X183472419Y-78738972D01*
X183472419Y-78738972D02*
X183472419Y-78119925D01*
X202772419Y-79119925D02*
X202772419Y-79596115D01*
X202772419Y-79596115D02*
X203248609Y-79643734D01*
X203248609Y-79643734D02*
X203200990Y-79596115D01*
X203200990Y-79596115D02*
X203153371Y-79500877D01*
X203153371Y-79500877D02*
X203153371Y-79262782D01*
X203153371Y-79262782D02*
X203200990Y-79167544D01*
X203200990Y-79167544D02*
X203248609Y-79119925D01*
X203248609Y-79119925D02*
X203343847Y-79072306D01*
X203343847Y-79072306D02*
X203581942Y-79072306D01*
X203581942Y-79072306D02*
X203677180Y-79119925D01*
X203677180Y-79119925D02*
X203724800Y-79167544D01*
X203724800Y-79167544D02*
X203772419Y-79262782D01*
X203772419Y-79262782D02*
X203772419Y-79500877D01*
X203772419Y-79500877D02*
X203724800Y-79596115D01*
X203724800Y-79596115D02*
X203677180Y-79643734D01*
D13*
X179216666Y-95716033D02*
X178816666Y-95716033D01*
X179016666Y-95716033D02*
X179016666Y-95016033D01*
X179016666Y-95016033D02*
X178949999Y-95116033D01*
X178949999Y-95116033D02*
X178883333Y-95182700D01*
X178883333Y-95182700D02*
X178816666Y-95216033D01*
X179516666Y-95716033D02*
X179516666Y-95016033D01*
X179583333Y-95449366D02*
X179783333Y-95716033D01*
X179783333Y-95249366D02*
X179516666Y-95516033D01*
D11*
X212772712Y-121985404D02*
X213248902Y-121985404D01*
X212677474Y-122271119D02*
X213010807Y-121271119D01*
X213010807Y-121271119D02*
X213344140Y-122271119D01*
X214106045Y-121604452D02*
X214106045Y-122271119D01*
X213867950Y-121223500D02*
X213629855Y-121937785D01*
X213629855Y-121937785D02*
X214248902Y-121937785D01*
D10*
X212503884Y-100991466D02*
X213265789Y-100991466D01*
X209703884Y-89391466D02*
X210465789Y-89391466D01*
X210084836Y-89772419D02*
X210084836Y-89010514D01*
X217803884Y-76372419D02*
X217803884Y-75372419D01*
X217803884Y-75372419D02*
X218184836Y-75372419D01*
X218184836Y-75372419D02*
X218280074Y-75420038D01*
X218280074Y-75420038D02*
X218327693Y-75467657D01*
X218327693Y-75467657D02*
X218375312Y-75562895D01*
X218375312Y-75562895D02*
X218375312Y-75705752D01*
X218375312Y-75705752D02*
X218327693Y-75800990D01*
X218327693Y-75800990D02*
X218280074Y-75848609D01*
X218280074Y-75848609D02*
X218184836Y-75896228D01*
X218184836Y-75896228D02*
X217803884Y-75896228D01*
X218946741Y-76372419D02*
X218851503Y-76324800D01*
X218851503Y-76324800D02*
X218803884Y-76277180D01*
X218803884Y-76277180D02*
X218756265Y-76181942D01*
X218756265Y-76181942D02*
X218756265Y-75896228D01*
X218756265Y-75896228D02*
X218803884Y-75800990D01*
X218803884Y-75800990D02*
X218851503Y-75753371D01*
X218851503Y-75753371D02*
X218946741Y-75705752D01*
X218946741Y-75705752D02*
X219089598Y-75705752D01*
X219089598Y-75705752D02*
X219184836Y-75753371D01*
X219184836Y-75753371D02*
X219232455Y-75800990D01*
X219232455Y-75800990D02*
X219280074Y-75896228D01*
X219280074Y-75896228D02*
X219280074Y-76181942D01*
X219280074Y-76181942D02*
X219232455Y-76277180D01*
X219232455Y-76277180D02*
X219184836Y-76324800D01*
X219184836Y-76324800D02*
X219089598Y-76372419D01*
X219089598Y-76372419D02*
X218946741Y-76372419D01*
X219613408Y-75705752D02*
X219803884Y-76372419D01*
X219803884Y-76372419D02*
X219994360Y-75896228D01*
X219994360Y-75896228D02*
X220184836Y-76372419D01*
X220184836Y-76372419D02*
X220375312Y-75705752D01*
X178575312Y-101872419D02*
X178241979Y-101396228D01*
X178003884Y-101872419D02*
X178003884Y-100872419D01*
X178003884Y-100872419D02*
X178384836Y-100872419D01*
X178384836Y-100872419D02*
X178480074Y-100920038D01*
X178480074Y-100920038D02*
X178527693Y-100967657D01*
X178527693Y-100967657D02*
X178575312Y-101062895D01*
X178575312Y-101062895D02*
X178575312Y-101205752D01*
X178575312Y-101205752D02*
X178527693Y-101300990D01*
X178527693Y-101300990D02*
X178480074Y-101348609D01*
X178480074Y-101348609D02*
X178384836Y-101396228D01*
X178384836Y-101396228D02*
X178003884Y-101396228D01*
X178908646Y-101872419D02*
X179432455Y-101205752D01*
X178908646Y-101205752D02*
X179432455Y-101872419D01*
X213727693Y-78772419D02*
X213156265Y-78772419D01*
X213441979Y-78772419D02*
X213441979Y-77772419D01*
X213441979Y-77772419D02*
X213346741Y-77915276D01*
X213346741Y-77915276D02*
X213251503Y-78010514D01*
X213251503Y-78010514D02*
X213156265Y-78058133D01*
X200172419Y-79167544D02*
X200172419Y-79358020D01*
X200172419Y-79358020D02*
X200220038Y-79453258D01*
X200220038Y-79453258D02*
X200267657Y-79500877D01*
X200267657Y-79500877D02*
X200410514Y-79596115D01*
X200410514Y-79596115D02*
X200600990Y-79643734D01*
X200600990Y-79643734D02*
X200981942Y-79643734D01*
X200981942Y-79643734D02*
X201077180Y-79596115D01*
X201077180Y-79596115D02*
X201124800Y-79548496D01*
X201124800Y-79548496D02*
X201172419Y-79453258D01*
X201172419Y-79453258D02*
X201172419Y-79262782D01*
X201172419Y-79262782D02*
X201124800Y-79167544D01*
X201124800Y-79167544D02*
X201077180Y-79119925D01*
X201077180Y-79119925D02*
X200981942Y-79072306D01*
X200981942Y-79072306D02*
X200743847Y-79072306D01*
X200743847Y-79072306D02*
X200648609Y-79119925D01*
X200648609Y-79119925D02*
X200600990Y-79167544D01*
X200600990Y-79167544D02*
X200553371Y-79262782D01*
X200553371Y-79262782D02*
X200553371Y-79453258D01*
X200553371Y-79453258D02*
X200600990Y-79548496D01*
X200600990Y-79548496D02*
X200648609Y-79596115D01*
X200648609Y-79596115D02*
X200743847Y-79643734D01*
X186172419Y-79072306D02*
X186172419Y-79643734D01*
X186172419Y-79358020D02*
X185172419Y-79358020D01*
X185172419Y-79358020D02*
X185315276Y-79453258D01*
X185315276Y-79453258D02*
X185410514Y-79548496D01*
X185410514Y-79548496D02*
X185458133Y-79643734D01*
X186172419Y-78119925D02*
X186172419Y-78691353D01*
X186172419Y-78405639D02*
X185172419Y-78405639D01*
X185172419Y-78405639D02*
X185315276Y-78500877D01*
X185315276Y-78500877D02*
X185410514Y-78596115D01*
X185410514Y-78596115D02*
X185458133Y-78691353D01*
X175280074Y-101772419D02*
X174803884Y-101772419D01*
X174803884Y-101772419D02*
X174803884Y-100772419D01*
X197672419Y-79691353D02*
X197672419Y-79024687D01*
X197672419Y-79024687D02*
X198672419Y-79453258D01*
X195120038Y-121772306D02*
X195072419Y-121867544D01*
X195072419Y-121867544D02*
X195072419Y-122010401D01*
X195072419Y-122010401D02*
X195120038Y-122153258D01*
X195120038Y-122153258D02*
X195215276Y-122248496D01*
X195215276Y-122248496D02*
X195310514Y-122296115D01*
X195310514Y-122296115D02*
X195500990Y-122343734D01*
X195500990Y-122343734D02*
X195643847Y-122343734D01*
X195643847Y-122343734D02*
X195834323Y-122296115D01*
X195834323Y-122296115D02*
X195929561Y-122248496D01*
X195929561Y-122248496D02*
X196024800Y-122153258D01*
X196024800Y-122153258D02*
X196072419Y-122010401D01*
X196072419Y-122010401D02*
X196072419Y-121915163D01*
X196072419Y-121915163D02*
X196024800Y-121772306D01*
X196024800Y-121772306D02*
X195977180Y-121724687D01*
X195977180Y-121724687D02*
X195643847Y-121724687D01*
X195643847Y-121724687D02*
X195643847Y-121915163D01*
X196072419Y-121296115D02*
X195072419Y-121296115D01*
X195072419Y-121296115D02*
X196072419Y-120724687D01*
X196072419Y-120724687D02*
X195072419Y-120724687D01*
X196072419Y-120248496D02*
X195072419Y-120248496D01*
X195072419Y-120248496D02*
X195072419Y-120010401D01*
X195072419Y-120010401D02*
X195120038Y-119867544D01*
X195120038Y-119867544D02*
X195215276Y-119772306D01*
X195215276Y-119772306D02*
X195310514Y-119724687D01*
X195310514Y-119724687D02*
X195500990Y-119677068D01*
X195500990Y-119677068D02*
X195643847Y-119677068D01*
X195643847Y-119677068D02*
X195834323Y-119724687D01*
X195834323Y-119724687D02*
X195929561Y-119772306D01*
X195929561Y-119772306D02*
X196024800Y-119867544D01*
X196024800Y-119867544D02*
X196072419Y-120010401D01*
X196072419Y-120010401D02*
X196072419Y-120248496D01*
X170624800Y-80243734D02*
X170672419Y-80100877D01*
X170672419Y-80100877D02*
X170672419Y-79862782D01*
X170672419Y-79862782D02*
X170624800Y-79767544D01*
X170624800Y-79767544D02*
X170577180Y-79719925D01*
X170577180Y-79719925D02*
X170481942Y-79672306D01*
X170481942Y-79672306D02*
X170386704Y-79672306D01*
X170386704Y-79672306D02*
X170291466Y-79719925D01*
X170291466Y-79719925D02*
X170243847Y-79767544D01*
X170243847Y-79767544D02*
X170196228Y-79862782D01*
X170196228Y-79862782D02*
X170148609Y-80053258D01*
X170148609Y-80053258D02*
X170100990Y-80148496D01*
X170100990Y-80148496D02*
X170053371Y-80196115D01*
X170053371Y-80196115D02*
X169958133Y-80243734D01*
X169958133Y-80243734D02*
X169862895Y-80243734D01*
X169862895Y-80243734D02*
X169767657Y-80196115D01*
X169767657Y-80196115D02*
X169720038Y-80148496D01*
X169720038Y-80148496D02*
X169672419Y-80053258D01*
X169672419Y-80053258D02*
X169672419Y-79815163D01*
X169672419Y-79815163D02*
X169720038Y-79672306D01*
X170577180Y-78672306D02*
X170624800Y-78719925D01*
X170624800Y-78719925D02*
X170672419Y-78862782D01*
X170672419Y-78862782D02*
X170672419Y-78958020D01*
X170672419Y-78958020D02*
X170624800Y-79100877D01*
X170624800Y-79100877D02*
X170529561Y-79196115D01*
X170529561Y-79196115D02*
X170434323Y-79243734D01*
X170434323Y-79243734D02*
X170243847Y-79291353D01*
X170243847Y-79291353D02*
X170100990Y-79291353D01*
X170100990Y-79291353D02*
X169910514Y-79243734D01*
X169910514Y-79243734D02*
X169815276Y-79196115D01*
X169815276Y-79196115D02*
X169720038Y-79100877D01*
X169720038Y-79100877D02*
X169672419Y-78958020D01*
X169672419Y-78958020D02*
X169672419Y-78862782D01*
X169672419Y-78862782D02*
X169720038Y-78719925D01*
X169720038Y-78719925D02*
X169767657Y-78672306D01*
X170672419Y-77767544D02*
X170672419Y-78243734D01*
X170672419Y-78243734D02*
X169672419Y-78243734D01*
X205056265Y-121986704D02*
X205532455Y-121986704D01*
X204961027Y-122272419D02*
X205294360Y-121272419D01*
X205294360Y-121272419D02*
X205627693Y-122272419D01*
X206484836Y-122272419D02*
X205913408Y-122272419D01*
X206199122Y-122272419D02*
X206199122Y-121272419D01*
X206199122Y-121272419D02*
X206103884Y-121415276D01*
X206103884Y-121415276D02*
X206008646Y-121510514D01*
X206008646Y-121510514D02*
X205913408Y-121558133D01*
X163756265Y-96367657D02*
X163803884Y-96320038D01*
X163803884Y-96320038D02*
X163899122Y-96272419D01*
X163899122Y-96272419D02*
X164137217Y-96272419D01*
X164137217Y-96272419D02*
X164232455Y-96320038D01*
X164232455Y-96320038D02*
X164280074Y-96367657D01*
X164280074Y-96367657D02*
X164327693Y-96462895D01*
X164327693Y-96462895D02*
X164327693Y-96558133D01*
X164327693Y-96558133D02*
X164280074Y-96700990D01*
X164280074Y-96700990D02*
X163708646Y-97272419D01*
X163708646Y-97272419D02*
X164327693Y-97272419D01*
X207972419Y-79691353D02*
X207972419Y-79072306D01*
X207972419Y-79072306D02*
X208353371Y-79405639D01*
X208353371Y-79405639D02*
X208353371Y-79262782D01*
X208353371Y-79262782D02*
X208400990Y-79167544D01*
X208400990Y-79167544D02*
X208448609Y-79119925D01*
X208448609Y-79119925D02*
X208543847Y-79072306D01*
X208543847Y-79072306D02*
X208781942Y-79072306D01*
X208781942Y-79072306D02*
X208877180Y-79119925D01*
X208877180Y-79119925D02*
X208924800Y-79167544D01*
X208924800Y-79167544D02*
X208972419Y-79262782D01*
X208972419Y-79262782D02*
X208972419Y-79548496D01*
X208972419Y-79548496D02*
X208924800Y-79643734D01*
X208924800Y-79643734D02*
X208877180Y-79691353D01*
X187572419Y-122491353D02*
X187572419Y-121872306D01*
X187572419Y-121872306D02*
X187953371Y-122205639D01*
X187953371Y-122205639D02*
X187953371Y-122062782D01*
X187953371Y-122062782D02*
X188000990Y-121967544D01*
X188000990Y-121967544D02*
X188048609Y-121919925D01*
X188048609Y-121919925D02*
X188143847Y-121872306D01*
X188143847Y-121872306D02*
X188381942Y-121872306D01*
X188381942Y-121872306D02*
X188477180Y-121919925D01*
X188477180Y-121919925D02*
X188524800Y-121967544D01*
X188524800Y-121967544D02*
X188572419Y-122062782D01*
X188572419Y-122062782D02*
X188572419Y-122348496D01*
X188572419Y-122348496D02*
X188524800Y-122443734D01*
X188524800Y-122443734D02*
X188477180Y-122491353D01*
X188477180Y-121443734D02*
X188524800Y-121396115D01*
X188524800Y-121396115D02*
X188572419Y-121443734D01*
X188572419Y-121443734D02*
X188524800Y-121491353D01*
X188524800Y-121491353D02*
X188477180Y-121443734D01*
X188477180Y-121443734D02*
X188572419Y-121443734D01*
X187572419Y-121062782D02*
X187572419Y-120443735D01*
X187572419Y-120443735D02*
X187953371Y-120777068D01*
X187953371Y-120777068D02*
X187953371Y-120634211D01*
X187953371Y-120634211D02*
X188000990Y-120538973D01*
X188000990Y-120538973D02*
X188048609Y-120491354D01*
X188048609Y-120491354D02*
X188143847Y-120443735D01*
X188143847Y-120443735D02*
X188381942Y-120443735D01*
X188381942Y-120443735D02*
X188477180Y-120491354D01*
X188477180Y-120491354D02*
X188524800Y-120538973D01*
X188524800Y-120538973D02*
X188572419Y-120634211D01*
X188572419Y-120634211D02*
X188572419Y-120919925D01*
X188572419Y-120919925D02*
X188524800Y-121015163D01*
X188524800Y-121015163D02*
X188477180Y-121062782D01*
X187572419Y-120158020D02*
X188572419Y-119824687D01*
X188572419Y-119824687D02*
X187572419Y-119491354D01*
X210567657Y-79643734D02*
X210520038Y-79596115D01*
X210520038Y-79596115D02*
X210472419Y-79500877D01*
X210472419Y-79500877D02*
X210472419Y-79262782D01*
X210472419Y-79262782D02*
X210520038Y-79167544D01*
X210520038Y-79167544D02*
X210567657Y-79119925D01*
X210567657Y-79119925D02*
X210662895Y-79072306D01*
X210662895Y-79072306D02*
X210758133Y-79072306D01*
X210758133Y-79072306D02*
X210900990Y-79119925D01*
X210900990Y-79119925D02*
X211472419Y-79691353D01*
X211472419Y-79691353D02*
X211472419Y-79072306D01*
X173224800Y-80343734D02*
X173272419Y-80200877D01*
X173272419Y-80200877D02*
X173272419Y-79962782D01*
X173272419Y-79962782D02*
X173224800Y-79867544D01*
X173224800Y-79867544D02*
X173177180Y-79819925D01*
X173177180Y-79819925D02*
X173081942Y-79772306D01*
X173081942Y-79772306D02*
X172986704Y-79772306D01*
X172986704Y-79772306D02*
X172891466Y-79819925D01*
X172891466Y-79819925D02*
X172843847Y-79867544D01*
X172843847Y-79867544D02*
X172796228Y-79962782D01*
X172796228Y-79962782D02*
X172748609Y-80153258D01*
X172748609Y-80153258D02*
X172700990Y-80248496D01*
X172700990Y-80248496D02*
X172653371Y-80296115D01*
X172653371Y-80296115D02*
X172558133Y-80343734D01*
X172558133Y-80343734D02*
X172462895Y-80343734D01*
X172462895Y-80343734D02*
X172367657Y-80296115D01*
X172367657Y-80296115D02*
X172320038Y-80248496D01*
X172320038Y-80248496D02*
X172272419Y-80153258D01*
X172272419Y-80153258D02*
X172272419Y-79915163D01*
X172272419Y-79915163D02*
X172320038Y-79772306D01*
X173272419Y-79343734D02*
X172272419Y-79343734D01*
X172272419Y-79343734D02*
X172272419Y-79105639D01*
X172272419Y-79105639D02*
X172320038Y-78962782D01*
X172320038Y-78962782D02*
X172415276Y-78867544D01*
X172415276Y-78867544D02*
X172510514Y-78819925D01*
X172510514Y-78819925D02*
X172700990Y-78772306D01*
X172700990Y-78772306D02*
X172843847Y-78772306D01*
X172843847Y-78772306D02*
X173034323Y-78819925D01*
X173034323Y-78819925D02*
X173129561Y-78867544D01*
X173129561Y-78867544D02*
X173224800Y-78962782D01*
X173224800Y-78962782D02*
X173272419Y-79105639D01*
X173272419Y-79105639D02*
X173272419Y-79343734D01*
X172986704Y-78391353D02*
X172986704Y-77915163D01*
X173272419Y-78486591D02*
X172272419Y-78153258D01*
X172272419Y-78153258D02*
X173272419Y-77819925D01*
X215894360Y-77772419D02*
X215989598Y-77772419D01*
X215989598Y-77772419D02*
X216084836Y-77820038D01*
X216084836Y-77820038D02*
X216132455Y-77867657D01*
X216132455Y-77867657D02*
X216180074Y-77962895D01*
X216180074Y-77962895D02*
X216227693Y-78153371D01*
X216227693Y-78153371D02*
X216227693Y-78391466D01*
X216227693Y-78391466D02*
X216180074Y-78581942D01*
X216180074Y-78581942D02*
X216132455Y-78677180D01*
X216132455Y-78677180D02*
X216084836Y-78724800D01*
X216084836Y-78724800D02*
X215989598Y-78772419D01*
X215989598Y-78772419D02*
X215894360Y-78772419D01*
X215894360Y-78772419D02*
X215799122Y-78724800D01*
X215799122Y-78724800D02*
X215751503Y-78677180D01*
X215751503Y-78677180D02*
X215703884Y-78581942D01*
X215703884Y-78581942D02*
X215656265Y-78391466D01*
X215656265Y-78391466D02*
X215656265Y-78153371D01*
X215656265Y-78153371D02*
X215703884Y-77962895D01*
X215703884Y-77962895D02*
X215751503Y-77867657D01*
X215751503Y-77867657D02*
X215799122Y-77820038D01*
X215799122Y-77820038D02*
X215894360Y-77772419D01*
D14*
X170554510Y-122629400D02*
X171697368Y-122629400D01*
X171411653Y-122915114D02*
X171697368Y-122629400D01*
X171697368Y-122629400D02*
X171411653Y-122343685D01*
D15*
X170988470Y-85471379D02*
X170655137Y-84995188D01*
X170417042Y-85471379D02*
X170417042Y-84471379D01*
X170417042Y-84471379D02*
X170797994Y-84471379D01*
X170797994Y-84471379D02*
X170893232Y-84518998D01*
X170893232Y-84518998D02*
X170940851Y-84566617D01*
X170940851Y-84566617D02*
X170988470Y-84661855D01*
X170988470Y-84661855D02*
X170988470Y-84804712D01*
X170988470Y-84804712D02*
X170940851Y-84899950D01*
X170940851Y-84899950D02*
X170893232Y-84947569D01*
X170893232Y-84947569D02*
X170797994Y-84995188D01*
X170797994Y-84995188D02*
X170417042Y-84995188D01*
X171797994Y-85423760D02*
X171702756Y-85471379D01*
X171702756Y-85471379D02*
X171512280Y-85471379D01*
X171512280Y-85471379D02*
X171417042Y-85423760D01*
X171417042Y-85423760D02*
X171369423Y-85328521D01*
X171369423Y-85328521D02*
X171369423Y-84947569D01*
X171369423Y-84947569D02*
X171417042Y-84852331D01*
X171417042Y-84852331D02*
X171512280Y-84804712D01*
X171512280Y-84804712D02*
X171702756Y-84804712D01*
X171702756Y-84804712D02*
X171797994Y-84852331D01*
X171797994Y-84852331D02*
X171845613Y-84947569D01*
X171845613Y-84947569D02*
X171845613Y-85042807D01*
X171845613Y-85042807D02*
X171369423Y-85138045D01*
X172226566Y-85423760D02*
X172321804Y-85471379D01*
X172321804Y-85471379D02*
X172512280Y-85471379D01*
X172512280Y-85471379D02*
X172607518Y-85423760D01*
X172607518Y-85423760D02*
X172655137Y-85328521D01*
X172655137Y-85328521D02*
X172655137Y-85280902D01*
X172655137Y-85280902D02*
X172607518Y-85185664D01*
X172607518Y-85185664D02*
X172512280Y-85138045D01*
X172512280Y-85138045D02*
X172369423Y-85138045D01*
X172369423Y-85138045D02*
X172274185Y-85090426D01*
X172274185Y-85090426D02*
X172226566Y-84995188D01*
X172226566Y-84995188D02*
X172226566Y-84947569D01*
X172226566Y-84947569D02*
X172274185Y-84852331D01*
X172274185Y-84852331D02*
X172369423Y-84804712D01*
X172369423Y-84804712D02*
X172512280Y-84804712D01*
X172512280Y-84804712D02*
X172607518Y-84852331D01*
X173464661Y-85423760D02*
X173369423Y-85471379D01*
X173369423Y-85471379D02*
X173178947Y-85471379D01*
X173178947Y-85471379D02*
X173083709Y-85423760D01*
X173083709Y-85423760D02*
X173036090Y-85328521D01*
X173036090Y-85328521D02*
X173036090Y-84947569D01*
X173036090Y-84947569D02*
X173083709Y-84852331D01*
X173083709Y-84852331D02*
X173178947Y-84804712D01*
X173178947Y-84804712D02*
X173369423Y-84804712D01*
X173369423Y-84804712D02*
X173464661Y-84852331D01*
X173464661Y-84852331D02*
X173512280Y-84947569D01*
X173512280Y-84947569D02*
X173512280Y-85042807D01*
X173512280Y-85042807D02*
X173036090Y-85138045D01*
X173797995Y-84804712D02*
X174178947Y-84804712D01*
X173940852Y-84471379D02*
X173940852Y-85328521D01*
X173940852Y-85328521D02*
X173988471Y-85423760D01*
X173988471Y-85423760D02*
X174083709Y-85471379D01*
X174083709Y-85471379D02*
X174178947Y-85471379D01*
D10*
X170861634Y-126296115D02*
X170861634Y-125534211D01*
X171242587Y-125915163D02*
X170480682Y-125915163D01*
X170242587Y-124581830D02*
X170242587Y-125058020D01*
X170242587Y-125058020D02*
X170718777Y-125105639D01*
X170718777Y-125105639D02*
X170671158Y-125058020D01*
X170671158Y-125058020D02*
X170623539Y-124962782D01*
X170623539Y-124962782D02*
X170623539Y-124724687D01*
X170623539Y-124724687D02*
X170671158Y-124629449D01*
X170671158Y-124629449D02*
X170718777Y-124581830D01*
X170718777Y-124581830D02*
X170814015Y-124534211D01*
X170814015Y-124534211D02*
X171052110Y-124534211D01*
X171052110Y-124534211D02*
X171147348Y-124581830D01*
X171147348Y-124581830D02*
X171194968Y-124629449D01*
X171194968Y-124629449D02*
X171242587Y-124724687D01*
X171242587Y-124724687D02*
X171242587Y-124962782D01*
X171242587Y-124962782D02*
X171194968Y-125058020D01*
X171194968Y-125058020D02*
X171147348Y-125105639D01*
X170242587Y-124248496D02*
X171242587Y-123915163D01*
X171242587Y-123915163D02*
X170242587Y-123581830D01*
X172328721Y-125962782D02*
X172376340Y-125819925D01*
X172376340Y-125819925D02*
X172423959Y-125772306D01*
X172423959Y-125772306D02*
X172519197Y-125724687D01*
X172519197Y-125724687D02*
X172662054Y-125724687D01*
X172662054Y-125724687D02*
X172757292Y-125772306D01*
X172757292Y-125772306D02*
X172804912Y-125819925D01*
X172804912Y-125819925D02*
X172852531Y-125915163D01*
X172852531Y-125915163D02*
X172852531Y-126296115D01*
X172852531Y-126296115D02*
X171852531Y-126296115D01*
X171852531Y-126296115D02*
X171852531Y-125962782D01*
X171852531Y-125962782D02*
X171900150Y-125867544D01*
X171900150Y-125867544D02*
X171947769Y-125819925D01*
X171947769Y-125819925D02*
X172043007Y-125772306D01*
X172043007Y-125772306D02*
X172138245Y-125772306D01*
X172138245Y-125772306D02*
X172233483Y-125819925D01*
X172233483Y-125819925D02*
X172281102Y-125867544D01*
X172281102Y-125867544D02*
X172328721Y-125962782D01*
X172328721Y-125962782D02*
X172328721Y-126296115D01*
X172852531Y-125153258D02*
X172804912Y-125248496D01*
X172804912Y-125248496D02*
X172757292Y-125296115D01*
X172757292Y-125296115D02*
X172662054Y-125343734D01*
X172662054Y-125343734D02*
X172376340Y-125343734D01*
X172376340Y-125343734D02*
X172281102Y-125296115D01*
X172281102Y-125296115D02*
X172233483Y-125248496D01*
X172233483Y-125248496D02*
X172185864Y-125153258D01*
X172185864Y-125153258D02*
X172185864Y-125010401D01*
X172185864Y-125010401D02*
X172233483Y-124915163D01*
X172233483Y-124915163D02*
X172281102Y-124867544D01*
X172281102Y-124867544D02*
X172376340Y-124819925D01*
X172376340Y-124819925D02*
X172662054Y-124819925D01*
X172662054Y-124819925D02*
X172757292Y-124867544D01*
X172757292Y-124867544D02*
X172804912Y-124915163D01*
X172804912Y-124915163D02*
X172852531Y-125010401D01*
X172852531Y-125010401D02*
X172852531Y-125153258D01*
X172852531Y-124248496D02*
X172804912Y-124343734D01*
X172804912Y-124343734D02*
X172757292Y-124391353D01*
X172757292Y-124391353D02*
X172662054Y-124438972D01*
X172662054Y-124438972D02*
X172376340Y-124438972D01*
X172376340Y-124438972D02*
X172281102Y-124391353D01*
X172281102Y-124391353D02*
X172233483Y-124343734D01*
X172233483Y-124343734D02*
X172185864Y-124248496D01*
X172185864Y-124248496D02*
X172185864Y-124105639D01*
X172185864Y-124105639D02*
X172233483Y-124010401D01*
X172233483Y-124010401D02*
X172281102Y-123962782D01*
X172281102Y-123962782D02*
X172376340Y-123915163D01*
X172376340Y-123915163D02*
X172662054Y-123915163D01*
X172662054Y-123915163D02*
X172757292Y-123962782D01*
X172757292Y-123962782D02*
X172804912Y-124010401D01*
X172804912Y-124010401D02*
X172852531Y-124105639D01*
X172852531Y-124105639D02*
X172852531Y-124248496D01*
X172185864Y-123629448D02*
X172185864Y-123248496D01*
X171852531Y-123486591D02*
X172709673Y-123486591D01*
X172709673Y-123486591D02*
X172804912Y-123438972D01*
X172804912Y-123438972D02*
X172852531Y-123343734D01*
X172852531Y-123343734D02*
X172852531Y-123248496D01*
X174081522Y-126296115D02*
X174081522Y-125534211D01*
X174462475Y-125915163D02*
X173700570Y-125915163D01*
X173462475Y-124581830D02*
X173462475Y-125058020D01*
X173462475Y-125058020D02*
X173938665Y-125105639D01*
X173938665Y-125105639D02*
X173891046Y-125058020D01*
X173891046Y-125058020D02*
X173843427Y-124962782D01*
X173843427Y-124962782D02*
X173843427Y-124724687D01*
X173843427Y-124724687D02*
X173891046Y-124629449D01*
X173891046Y-124629449D02*
X173938665Y-124581830D01*
X173938665Y-124581830D02*
X174033903Y-124534211D01*
X174033903Y-124534211D02*
X174271998Y-124534211D01*
X174271998Y-124534211D02*
X174367236Y-124581830D01*
X174367236Y-124581830D02*
X174414856Y-124629449D01*
X174414856Y-124629449D02*
X174462475Y-124724687D01*
X174462475Y-124724687D02*
X174462475Y-124962782D01*
X174462475Y-124962782D02*
X174414856Y-125058020D01*
X174414856Y-125058020D02*
X174367236Y-125105639D01*
X173462475Y-124248496D02*
X174462475Y-123915163D01*
X174462475Y-123915163D02*
X173462475Y-123581830D01*
X176072419Y-125724687D02*
X175596228Y-126058020D01*
X176072419Y-126296115D02*
X175072419Y-126296115D01*
X175072419Y-126296115D02*
X175072419Y-125915163D01*
X175072419Y-125915163D02*
X175120038Y-125819925D01*
X175120038Y-125819925D02*
X175167657Y-125772306D01*
X175167657Y-125772306D02*
X175262895Y-125724687D01*
X175262895Y-125724687D02*
X175405752Y-125724687D01*
X175405752Y-125724687D02*
X175500990Y-125772306D01*
X175500990Y-125772306D02*
X175548609Y-125819925D01*
X175548609Y-125819925D02*
X175596228Y-125915163D01*
X175596228Y-125915163D02*
X175596228Y-126296115D01*
X176024800Y-124915163D02*
X176072419Y-125010401D01*
X176072419Y-125010401D02*
X176072419Y-125200877D01*
X176072419Y-125200877D02*
X176024800Y-125296115D01*
X176024800Y-125296115D02*
X175929561Y-125343734D01*
X175929561Y-125343734D02*
X175548609Y-125343734D01*
X175548609Y-125343734D02*
X175453371Y-125296115D01*
X175453371Y-125296115D02*
X175405752Y-125200877D01*
X175405752Y-125200877D02*
X175405752Y-125010401D01*
X175405752Y-125010401D02*
X175453371Y-124915163D01*
X175453371Y-124915163D02*
X175548609Y-124867544D01*
X175548609Y-124867544D02*
X175643847Y-124867544D01*
X175643847Y-124867544D02*
X175739085Y-125343734D01*
X176024800Y-124486591D02*
X176072419Y-124391353D01*
X176072419Y-124391353D02*
X176072419Y-124200877D01*
X176072419Y-124200877D02*
X176024800Y-124105639D01*
X176024800Y-124105639D02*
X175929561Y-124058020D01*
X175929561Y-124058020D02*
X175881942Y-124058020D01*
X175881942Y-124058020D02*
X175786704Y-124105639D01*
X175786704Y-124105639D02*
X175739085Y-124200877D01*
X175739085Y-124200877D02*
X175739085Y-124343734D01*
X175739085Y-124343734D02*
X175691466Y-124438972D01*
X175691466Y-124438972D02*
X175596228Y-124486591D01*
X175596228Y-124486591D02*
X175548609Y-124486591D01*
X175548609Y-124486591D02*
X175453371Y-124438972D01*
X175453371Y-124438972D02*
X175405752Y-124343734D01*
X175405752Y-124343734D02*
X175405752Y-124200877D01*
X175405752Y-124200877D02*
X175453371Y-124105639D01*
X176024800Y-123248496D02*
X176072419Y-123343734D01*
X176072419Y-123343734D02*
X176072419Y-123534210D01*
X176072419Y-123534210D02*
X176024800Y-123629448D01*
X176024800Y-123629448D02*
X175929561Y-123677067D01*
X175929561Y-123677067D02*
X175548609Y-123677067D01*
X175548609Y-123677067D02*
X175453371Y-123629448D01*
X175453371Y-123629448D02*
X175405752Y-123534210D01*
X175405752Y-123534210D02*
X175405752Y-123343734D01*
X175405752Y-123343734D02*
X175453371Y-123248496D01*
X175453371Y-123248496D02*
X175548609Y-123200877D01*
X175548609Y-123200877D02*
X175643847Y-123200877D01*
X175643847Y-123200877D02*
X175739085Y-123677067D01*
X175405752Y-122915162D02*
X175405752Y-122534210D01*
X175072419Y-122772305D02*
X175929561Y-122772305D01*
X175929561Y-122772305D02*
X176024800Y-122724686D01*
X176024800Y-122724686D02*
X176072419Y-122629448D01*
X176072419Y-122629448D02*
X176072419Y-122534210D01*
X215256265Y-121986704D02*
X215732455Y-121986704D01*
X215161027Y-122272419D02*
X215494360Y-121272419D01*
X215494360Y-121272419D02*
X215827693Y-122272419D01*
X216637217Y-121272419D02*
X216161027Y-121272419D01*
X216161027Y-121272419D02*
X216113408Y-121748609D01*
X216113408Y-121748609D02*
X216161027Y-121700990D01*
X216161027Y-121700990D02*
X216256265Y-121653371D01*
X216256265Y-121653371D02*
X216494360Y-121653371D01*
X216494360Y-121653371D02*
X216589598Y-121700990D01*
X216589598Y-121700990D02*
X216637217Y-121748609D01*
X216637217Y-121748609D02*
X216684836Y-121843847D01*
X216684836Y-121843847D02*
X216684836Y-122081942D01*
X216684836Y-122081942D02*
X216637217Y-122177180D01*
X216637217Y-122177180D02*
X216589598Y-122224800D01*
X216589598Y-122224800D02*
X216494360Y-122272419D01*
X216494360Y-122272419D02*
X216256265Y-122272419D01*
X216256265Y-122272419D02*
X216161027Y-122224800D01*
X216161027Y-122224800D02*
X216113408Y-122177180D01*
X199903884Y-122272419D02*
X199903884Y-121272419D01*
X199903884Y-121272419D02*
X200475312Y-122272419D01*
X200475312Y-122272419D02*
X200475312Y-121272419D01*
X201522931Y-122177180D02*
X201475312Y-122224800D01*
X201475312Y-122224800D02*
X201332455Y-122272419D01*
X201332455Y-122272419D02*
X201237217Y-122272419D01*
X201237217Y-122272419D02*
X201094360Y-122224800D01*
X201094360Y-122224800D02*
X200999122Y-122129561D01*
X200999122Y-122129561D02*
X200951503Y-122034323D01*
X200951503Y-122034323D02*
X200903884Y-121843847D01*
X200903884Y-121843847D02*
X200903884Y-121700990D01*
X200903884Y-121700990D02*
X200951503Y-121510514D01*
X200951503Y-121510514D02*
X200999122Y-121415276D01*
X200999122Y-121415276D02*
X201094360Y-121320038D01*
X201094360Y-121320038D02*
X201237217Y-121272419D01*
X201237217Y-121272419D02*
X201332455Y-121272419D01*
X201332455Y-121272419D02*
X201475312Y-121320038D01*
X201475312Y-121320038D02*
X201522931Y-121367657D01*
X197572419Y-122438972D02*
X198572419Y-122105639D01*
X198572419Y-122105639D02*
X197572419Y-121772306D01*
X198572419Y-121438972D02*
X197905752Y-121438972D01*
X197572419Y-121438972D02*
X197620038Y-121486591D01*
X197620038Y-121486591D02*
X197667657Y-121438972D01*
X197667657Y-121438972D02*
X197620038Y-121391353D01*
X197620038Y-121391353D02*
X197572419Y-121438972D01*
X197572419Y-121438972D02*
X197667657Y-121438972D01*
X197905752Y-120962782D02*
X198572419Y-120962782D01*
X198000990Y-120962782D02*
X197953371Y-120915163D01*
X197953371Y-120915163D02*
X197905752Y-120819925D01*
X197905752Y-120819925D02*
X197905752Y-120677068D01*
X197905752Y-120677068D02*
X197953371Y-120581830D01*
X197953371Y-120581830D02*
X198048609Y-120534211D01*
X198048609Y-120534211D02*
X198572419Y-120534211D01*
X198048609Y-120058020D02*
X198048609Y-119296116D01*
X198334323Y-119296116D02*
X198334323Y-120058020D01*
X197572419Y-118343735D02*
X197572419Y-118819925D01*
X197572419Y-118819925D02*
X198048609Y-118867544D01*
X198048609Y-118867544D02*
X198000990Y-118819925D01*
X198000990Y-118819925D02*
X197953371Y-118724687D01*
X197953371Y-118724687D02*
X197953371Y-118486592D01*
X197953371Y-118486592D02*
X198000990Y-118391354D01*
X198000990Y-118391354D02*
X198048609Y-118343735D01*
X198048609Y-118343735D02*
X198143847Y-118296116D01*
X198143847Y-118296116D02*
X198381942Y-118296116D01*
X198381942Y-118296116D02*
X198477180Y-118343735D01*
X198477180Y-118343735D02*
X198524800Y-118391354D01*
X198524800Y-118391354D02*
X198572419Y-118486592D01*
X198572419Y-118486592D02*
X198572419Y-118724687D01*
X198572419Y-118724687D02*
X198524800Y-118819925D01*
X198524800Y-118819925D02*
X198477180Y-118867544D01*
X197572419Y-118010401D02*
X198572419Y-117677068D01*
X198572419Y-117677068D02*
X197572419Y-117343735D01*
X210256265Y-121986704D02*
X210732455Y-121986704D01*
X210161027Y-122272419D02*
X210494360Y-121272419D01*
X210494360Y-121272419D02*
X210827693Y-122272419D01*
X211065789Y-121272419D02*
X211684836Y-121272419D01*
X211684836Y-121272419D02*
X211351503Y-121653371D01*
X211351503Y-121653371D02*
X211494360Y-121653371D01*
X211494360Y-121653371D02*
X211589598Y-121700990D01*
X211589598Y-121700990D02*
X211637217Y-121748609D01*
X211637217Y-121748609D02*
X211684836Y-121843847D01*
X211684836Y-121843847D02*
X211684836Y-122081942D01*
X211684836Y-122081942D02*
X211637217Y-122177180D01*
X211637217Y-122177180D02*
X211589598Y-122224800D01*
X211589598Y-122224800D02*
X211494360Y-122272419D01*
X211494360Y-122272419D02*
X211208646Y-122272419D01*
X211208646Y-122272419D02*
X211113408Y-122224800D01*
X211113408Y-122224800D02*
X211065789Y-122177180D01*
D13*
X191583333Y-112016033D02*
X191183333Y-112016033D01*
X191383333Y-112016033D02*
X191383333Y-111316033D01*
X191383333Y-111316033D02*
X191316666Y-111416033D01*
X191316666Y-111416033D02*
X191250000Y-111482700D01*
X191250000Y-111482700D02*
X191183333Y-111516033D01*
X192016667Y-111316033D02*
X192083333Y-111316033D01*
X192083333Y-111316033D02*
X192150000Y-111349366D01*
X192150000Y-111349366D02*
X192183333Y-111382700D01*
X192183333Y-111382700D02*
X192216667Y-111449366D01*
X192216667Y-111449366D02*
X192250000Y-111582700D01*
X192250000Y-111582700D02*
X192250000Y-111749366D01*
X192250000Y-111749366D02*
X192216667Y-111882700D01*
X192216667Y-111882700D02*
X192183333Y-111949366D01*
X192183333Y-111949366D02*
X192150000Y-111982700D01*
X192150000Y-111982700D02*
X192083333Y-112016033D01*
X192083333Y-112016033D02*
X192016667Y-112016033D01*
X192016667Y-112016033D02*
X191950000Y-111982700D01*
X191950000Y-111982700D02*
X191916667Y-111949366D01*
X191916667Y-111949366D02*
X191883333Y-111882700D01*
X191883333Y-111882700D02*
X191850000Y-111749366D01*
X191850000Y-111749366D02*
X191850000Y-111582700D01*
X191850000Y-111582700D02*
X191883333Y-111449366D01*
X191883333Y-111449366D02*
X191916667Y-111382700D01*
X191916667Y-111382700D02*
X191950000Y-111349366D01*
X191950000Y-111349366D02*
X192016667Y-111316033D01*
X192550000Y-112016033D02*
X192550000Y-111316033D01*
X192616667Y-111749366D02*
X192816667Y-112016033D01*
X192816667Y-111549366D02*
X192550000Y-111816033D01*
D16*
X192095270Y-115720952D02*
X192034794Y-115841904D01*
X192034794Y-115841904D02*
X191913842Y-115962857D01*
X191913842Y-115962857D02*
X191732413Y-116144285D01*
X191732413Y-116144285D02*
X191671937Y-116265238D01*
X191671937Y-116265238D02*
X191671937Y-116386190D01*
X191974318Y-116325714D02*
X191913842Y-116446666D01*
X191913842Y-116446666D02*
X191792889Y-116567619D01*
X191792889Y-116567619D02*
X191550984Y-116628095D01*
X191550984Y-116628095D02*
X191127651Y-116628095D01*
X191127651Y-116628095D02*
X190885746Y-116567619D01*
X190885746Y-116567619D02*
X190764794Y-116446666D01*
X190764794Y-116446666D02*
X190704318Y-116325714D01*
X190704318Y-116325714D02*
X190704318Y-116083809D01*
X190704318Y-116083809D02*
X190764794Y-115962857D01*
X190764794Y-115962857D02*
X190885746Y-115841904D01*
X190885746Y-115841904D02*
X191127651Y-115781428D01*
X191127651Y-115781428D02*
X191550984Y-115781428D01*
X191550984Y-115781428D02*
X191792889Y-115841904D01*
X191792889Y-115841904D02*
X191913842Y-115962857D01*
X191913842Y-115962857D02*
X191974318Y-116083809D01*
X191974318Y-116083809D02*
X191974318Y-116325714D01*
X191974318Y-114571904D02*
X191974318Y-115297619D01*
X191974318Y-114934762D02*
X190704318Y-114934762D01*
X190704318Y-114934762D02*
X190885746Y-115055714D01*
X190885746Y-115055714D02*
X191006699Y-115176666D01*
X191006699Y-115176666D02*
X191067175Y-115297619D01*
X215604318Y-109998332D02*
X216511461Y-109998332D01*
X216511461Y-109998332D02*
X216692889Y-110058809D01*
X216692889Y-110058809D02*
X216813842Y-110179761D01*
X216813842Y-110179761D02*
X216874318Y-110361190D01*
X216874318Y-110361190D02*
X216874318Y-110482142D01*
X215604318Y-108788809D02*
X215604318Y-109393571D01*
X215604318Y-109393571D02*
X216209080Y-109454047D01*
X216209080Y-109454047D02*
X216148603Y-109393571D01*
X216148603Y-109393571D02*
X216088127Y-109272618D01*
X216088127Y-109272618D02*
X216088127Y-108970237D01*
X216088127Y-108970237D02*
X216148603Y-108849285D01*
X216148603Y-108849285D02*
X216209080Y-108788809D01*
X216209080Y-108788809D02*
X216330032Y-108728332D01*
X216330032Y-108728332D02*
X216632413Y-108728332D01*
X216632413Y-108728332D02*
X216753365Y-108788809D01*
X216753365Y-108788809D02*
X216813842Y-108849285D01*
X216813842Y-108849285D02*
X216874318Y-108970237D01*
X216874318Y-108970237D02*
X216874318Y-109272618D01*
X216874318Y-109272618D02*
X216813842Y-109393571D01*
X216813842Y-109393571D02*
X216753365Y-109454047D01*
X199431667Y-105479318D02*
X199431667Y-106386461D01*
X199431667Y-106386461D02*
X199371190Y-106567889D01*
X199371190Y-106567889D02*
X199250238Y-106688842D01*
X199250238Y-106688842D02*
X199068809Y-106749318D01*
X199068809Y-106749318D02*
X198947857Y-106749318D01*
X200701667Y-106749318D02*
X199975952Y-106749318D01*
X200338809Y-106749318D02*
X200338809Y-105479318D01*
X200338809Y-105479318D02*
X200217857Y-105660746D01*
X200217857Y-105660746D02*
X200096905Y-105781699D01*
X200096905Y-105781699D02*
X199975952Y-105842175D01*
X207535237Y-86749318D02*
X207535237Y-85479318D01*
X208865714Y-86628365D02*
X208805238Y-86688842D01*
X208805238Y-86688842D02*
X208623809Y-86749318D01*
X208623809Y-86749318D02*
X208502857Y-86749318D01*
X208502857Y-86749318D02*
X208321428Y-86688842D01*
X208321428Y-86688842D02*
X208200476Y-86567889D01*
X208200476Y-86567889D02*
X208139999Y-86446937D01*
X208139999Y-86446937D02*
X208079523Y-86205032D01*
X208079523Y-86205032D02*
X208079523Y-86023603D01*
X208079523Y-86023603D02*
X208139999Y-85781699D01*
X208139999Y-85781699D02*
X208200476Y-85660746D01*
X208200476Y-85660746D02*
X208321428Y-85539794D01*
X208321428Y-85539794D02*
X208502857Y-85479318D01*
X208502857Y-85479318D02*
X208623809Y-85479318D01*
X208623809Y-85479318D02*
X208805238Y-85539794D01*
X208805238Y-85539794D02*
X208865714Y-85600270D01*
X209954285Y-85479318D02*
X209712380Y-85479318D01*
X209712380Y-85479318D02*
X209591428Y-85539794D01*
X209591428Y-85539794D02*
X209530952Y-85600270D01*
X209530952Y-85600270D02*
X209409999Y-85781699D01*
X209409999Y-85781699D02*
X209349523Y-86023603D01*
X209349523Y-86023603D02*
X209349523Y-86507413D01*
X209349523Y-86507413D02*
X209409999Y-86628365D01*
X209409999Y-86628365D02*
X209470476Y-86688842D01*
X209470476Y-86688842D02*
X209591428Y-86749318D01*
X209591428Y-86749318D02*
X209833333Y-86749318D01*
X209833333Y-86749318D02*
X209954285Y-86688842D01*
X209954285Y-86688842D02*
X210014761Y-86628365D01*
X210014761Y-86628365D02*
X210075238Y-86507413D01*
X210075238Y-86507413D02*
X210075238Y-86205032D01*
X210075238Y-86205032D02*
X210014761Y-86084080D01*
X210014761Y-86084080D02*
X209954285Y-86023603D01*
X209954285Y-86023603D02*
X209833333Y-85963127D01*
X209833333Y-85963127D02*
X209591428Y-85963127D01*
X209591428Y-85963127D02*
X209470476Y-86023603D01*
X209470476Y-86023603D02*
X209409999Y-86084080D01*
X209409999Y-86084080D02*
X209349523Y-86205032D01*
X207522237Y-83049318D02*
X207522237Y-81779318D01*
X208852714Y-82928365D02*
X208792238Y-82988842D01*
X208792238Y-82988842D02*
X208610809Y-83049318D01*
X208610809Y-83049318D02*
X208489857Y-83049318D01*
X208489857Y-83049318D02*
X208308428Y-82988842D01*
X208308428Y-82988842D02*
X208187476Y-82867889D01*
X208187476Y-82867889D02*
X208126999Y-82746937D01*
X208126999Y-82746937D02*
X208066523Y-82505032D01*
X208066523Y-82505032D02*
X208066523Y-82323603D01*
X208066523Y-82323603D02*
X208126999Y-82081699D01*
X208126999Y-82081699D02*
X208187476Y-81960746D01*
X208187476Y-81960746D02*
X208308428Y-81839794D01*
X208308428Y-81839794D02*
X208489857Y-81779318D01*
X208489857Y-81779318D02*
X208610809Y-81779318D01*
X208610809Y-81779318D02*
X208792238Y-81839794D01*
X208792238Y-81839794D02*
X208852714Y-81900270D01*
X210001761Y-81779318D02*
X209396999Y-81779318D01*
X209396999Y-81779318D02*
X209336523Y-82384080D01*
X209336523Y-82384080D02*
X209396999Y-82323603D01*
X209396999Y-82323603D02*
X209517952Y-82263127D01*
X209517952Y-82263127D02*
X209820333Y-82263127D01*
X209820333Y-82263127D02*
X209941285Y-82323603D01*
X209941285Y-82323603D02*
X210001761Y-82384080D01*
X210001761Y-82384080D02*
X210062238Y-82505032D01*
X210062238Y-82505032D02*
X210062238Y-82807413D01*
X210062238Y-82807413D02*
X210001761Y-82928365D01*
X210001761Y-82928365D02*
X209941285Y-82988842D01*
X209941285Y-82988842D02*
X209820333Y-83049318D01*
X209820333Y-83049318D02*
X209517952Y-83049318D01*
X209517952Y-83049318D02*
X209396999Y-82988842D01*
X209396999Y-82988842D02*
X209336523Y-82928365D01*
X201637318Y-83739762D02*
X200367318Y-83739762D01*
X201516365Y-82409285D02*
X201576842Y-82469761D01*
X201576842Y-82469761D02*
X201637318Y-82651190D01*
X201637318Y-82651190D02*
X201637318Y-82772142D01*
X201637318Y-82772142D02*
X201576842Y-82953571D01*
X201576842Y-82953571D02*
X201455889Y-83074523D01*
X201455889Y-83074523D02*
X201334937Y-83135000D01*
X201334937Y-83135000D02*
X201093032Y-83195476D01*
X201093032Y-83195476D02*
X200911603Y-83195476D01*
X200911603Y-83195476D02*
X200669699Y-83135000D01*
X200669699Y-83135000D02*
X200548746Y-83074523D01*
X200548746Y-83074523D02*
X200427794Y-82953571D01*
X200427794Y-82953571D02*
X200367318Y-82772142D01*
X200367318Y-82772142D02*
X200367318Y-82651190D01*
X200367318Y-82651190D02*
X200427794Y-82469761D01*
X200427794Y-82469761D02*
X200488270Y-82409285D01*
X200790651Y-81320714D02*
X201637318Y-81320714D01*
X200306842Y-81623095D02*
X201213984Y-81925476D01*
X201213984Y-81925476D02*
X201213984Y-81139285D01*
X177135237Y-111874318D02*
X177135237Y-110604318D01*
X178465714Y-111753365D02*
X178405238Y-111813842D01*
X178405238Y-111813842D02*
X178223809Y-111874318D01*
X178223809Y-111874318D02*
X178102857Y-111874318D01*
X178102857Y-111874318D02*
X177921428Y-111813842D01*
X177921428Y-111813842D02*
X177800476Y-111692889D01*
X177800476Y-111692889D02*
X177739999Y-111571937D01*
X177739999Y-111571937D02*
X177679523Y-111330032D01*
X177679523Y-111330032D02*
X177679523Y-111148603D01*
X177679523Y-111148603D02*
X177739999Y-110906699D01*
X177739999Y-110906699D02*
X177800476Y-110785746D01*
X177800476Y-110785746D02*
X177921428Y-110664794D01*
X177921428Y-110664794D02*
X178102857Y-110604318D01*
X178102857Y-110604318D02*
X178223809Y-110604318D01*
X178223809Y-110604318D02*
X178405238Y-110664794D01*
X178405238Y-110664794D02*
X178465714Y-110725270D01*
X178949523Y-110725270D02*
X179009999Y-110664794D01*
X179009999Y-110664794D02*
X179130952Y-110604318D01*
X179130952Y-110604318D02*
X179433333Y-110604318D01*
X179433333Y-110604318D02*
X179554285Y-110664794D01*
X179554285Y-110664794D02*
X179614761Y-110725270D01*
X179614761Y-110725270D02*
X179675238Y-110846222D01*
X179675238Y-110846222D02*
X179675238Y-110967175D01*
X179675238Y-110967175D02*
X179614761Y-111148603D01*
X179614761Y-111148603D02*
X178889047Y-111874318D01*
X178889047Y-111874318D02*
X179675238Y-111874318D01*
X191961651Y-91720260D02*
X192859677Y-90822234D01*
X192987966Y-92575522D02*
X192902440Y-92575522D01*
X192902440Y-92575522D02*
X192731387Y-92489996D01*
X192731387Y-92489996D02*
X192645861Y-92404470D01*
X192645861Y-92404470D02*
X192560335Y-92233417D01*
X192560335Y-92233417D02*
X192560335Y-92062365D01*
X192560335Y-92062365D02*
X192603098Y-91934075D01*
X192603098Y-91934075D02*
X192731387Y-91720260D01*
X192731387Y-91720260D02*
X192859677Y-91591970D01*
X192859677Y-91591970D02*
X193073492Y-91463681D01*
X193073492Y-91463681D02*
X193201782Y-91420918D01*
X193201782Y-91420918D02*
X193372834Y-91420918D01*
X193372834Y-91420918D02*
X193543887Y-91506444D01*
X193543887Y-91506444D02*
X193629413Y-91591970D01*
X193629413Y-91591970D02*
X193714939Y-91763023D01*
X193714939Y-91763023D02*
X193714939Y-91848549D01*
X193757702Y-93516311D02*
X193244545Y-93003153D01*
X193501124Y-93259732D02*
X194399149Y-92361707D01*
X194399149Y-92361707D02*
X194185334Y-92404470D01*
X194185334Y-92404470D02*
X194014281Y-92404470D01*
X194014281Y-92404470D02*
X193885992Y-92361707D01*
X179866667Y-93259080D02*
X179443333Y-93259080D01*
X179443333Y-93924318D02*
X179443333Y-92654318D01*
X179443333Y-92654318D02*
X180048095Y-92654318D01*
X180955238Y-93259080D02*
X181136666Y-93319556D01*
X181136666Y-93319556D02*
X181197143Y-93380032D01*
X181197143Y-93380032D02*
X181257619Y-93500984D01*
X181257619Y-93500984D02*
X181257619Y-93682413D01*
X181257619Y-93682413D02*
X181197143Y-93803365D01*
X181197143Y-93803365D02*
X181136666Y-93863842D01*
X181136666Y-93863842D02*
X181015714Y-93924318D01*
X181015714Y-93924318D02*
X180531904Y-93924318D01*
X180531904Y-93924318D02*
X180531904Y-92654318D01*
X180531904Y-92654318D02*
X180955238Y-92654318D01*
X180955238Y-92654318D02*
X181076190Y-92714794D01*
X181076190Y-92714794D02*
X181136666Y-92775270D01*
X181136666Y-92775270D02*
X181197143Y-92896222D01*
X181197143Y-92896222D02*
X181197143Y-93017175D01*
X181197143Y-93017175D02*
X181136666Y-93138127D01*
X181136666Y-93138127D02*
X181076190Y-93198603D01*
X181076190Y-93198603D02*
X180955238Y-93259080D01*
X180955238Y-93259080D02*
X180531904Y-93259080D01*
X181741428Y-92775270D02*
X181801904Y-92714794D01*
X181801904Y-92714794D02*
X181922857Y-92654318D01*
X181922857Y-92654318D02*
X182225238Y-92654318D01*
X182225238Y-92654318D02*
X182346190Y-92714794D01*
X182346190Y-92714794D02*
X182406666Y-92775270D01*
X182406666Y-92775270D02*
X182467143Y-92896222D01*
X182467143Y-92896222D02*
X182467143Y-93017175D01*
X182467143Y-93017175D02*
X182406666Y-93198603D01*
X182406666Y-93198603D02*
X181680952Y-93924318D01*
X181680952Y-93924318D02*
X182467143Y-93924318D01*
X179816667Y-85734080D02*
X179393333Y-85734080D01*
X179393333Y-86399318D02*
X179393333Y-85129318D01*
X179393333Y-85129318D02*
X179998095Y-85129318D01*
X180905238Y-85734080D02*
X181086666Y-85794556D01*
X181086666Y-85794556D02*
X181147143Y-85855032D01*
X181147143Y-85855032D02*
X181207619Y-85975984D01*
X181207619Y-85975984D02*
X181207619Y-86157413D01*
X181207619Y-86157413D02*
X181147143Y-86278365D01*
X181147143Y-86278365D02*
X181086666Y-86338842D01*
X181086666Y-86338842D02*
X180965714Y-86399318D01*
X180965714Y-86399318D02*
X180481904Y-86399318D01*
X180481904Y-86399318D02*
X180481904Y-85129318D01*
X180481904Y-85129318D02*
X180905238Y-85129318D01*
X180905238Y-85129318D02*
X181026190Y-85189794D01*
X181026190Y-85189794D02*
X181086666Y-85250270D01*
X181086666Y-85250270D02*
X181147143Y-85371222D01*
X181147143Y-85371222D02*
X181147143Y-85492175D01*
X181147143Y-85492175D02*
X181086666Y-85613127D01*
X181086666Y-85613127D02*
X181026190Y-85673603D01*
X181026190Y-85673603D02*
X180905238Y-85734080D01*
X180905238Y-85734080D02*
X180481904Y-85734080D01*
X182417143Y-86399318D02*
X181691428Y-86399318D01*
X182054285Y-86399318D02*
X182054285Y-85129318D01*
X182054285Y-85129318D02*
X181933333Y-85310746D01*
X181933333Y-85310746D02*
X181812381Y-85431699D01*
X181812381Y-85431699D02*
X181691428Y-85492175D01*
X205987618Y-112574318D02*
X205987618Y-111304318D01*
X205987618Y-111304318D02*
X206289999Y-111304318D01*
X206289999Y-111304318D02*
X206471428Y-111364794D01*
X206471428Y-111364794D02*
X206592380Y-111485746D01*
X206592380Y-111485746D02*
X206652857Y-111606699D01*
X206652857Y-111606699D02*
X206713333Y-111848603D01*
X206713333Y-111848603D02*
X206713333Y-112030032D01*
X206713333Y-112030032D02*
X206652857Y-112271937D01*
X206652857Y-112271937D02*
X206592380Y-112392889D01*
X206592380Y-112392889D02*
X206471428Y-112513842D01*
X206471428Y-112513842D02*
X206289999Y-112574318D01*
X206289999Y-112574318D02*
X205987618Y-112574318D01*
X207922857Y-112574318D02*
X207197142Y-112574318D01*
X207559999Y-112574318D02*
X207559999Y-111304318D01*
X207559999Y-111304318D02*
X207439047Y-111485746D01*
X207439047Y-111485746D02*
X207318095Y-111606699D01*
X207318095Y-111606699D02*
X207197142Y-111667175D01*
X159811461Y-91456190D02*
X159811461Y-90851428D01*
X160174318Y-91577142D02*
X158904318Y-91153809D01*
X158904318Y-91153809D02*
X160174318Y-90730475D01*
X160174318Y-90307143D02*
X158904318Y-90307143D01*
X158904318Y-90307143D02*
X160174318Y-89581428D01*
X160174318Y-89581428D02*
X158904318Y-89581428D01*
X158904318Y-89158095D02*
X158904318Y-88432381D01*
X160174318Y-88795238D02*
X158904318Y-88795238D01*
X160174318Y-87343809D02*
X160174318Y-88069524D01*
X160174318Y-87706667D02*
X158904318Y-87706667D01*
X158904318Y-87706667D02*
X159085746Y-87827619D01*
X159085746Y-87827619D02*
X159206699Y-87948571D01*
X159206699Y-87948571D02*
X159267175Y-88069524D01*
D13*
X206038095Y-89684819D02*
X205847619Y-89684819D01*
X205847619Y-89684819D02*
X205752381Y-89732438D01*
X205752381Y-89732438D02*
X205704762Y-89780057D01*
X205704762Y-89780057D02*
X205609524Y-89922914D01*
X205609524Y-89922914D02*
X205561905Y-90113390D01*
X205561905Y-90113390D02*
X205561905Y-90494342D01*
X205561905Y-90494342D02*
X205609524Y-90589580D01*
X205609524Y-90589580D02*
X205657143Y-90637200D01*
X205657143Y-90637200D02*
X205752381Y-90684819D01*
X205752381Y-90684819D02*
X205942857Y-90684819D01*
X205942857Y-90684819D02*
X206038095Y-90637200D01*
X206038095Y-90637200D02*
X206085714Y-90589580D01*
X206085714Y-90589580D02*
X206133333Y-90494342D01*
X206133333Y-90494342D02*
X206133333Y-90256247D01*
X206133333Y-90256247D02*
X206085714Y-90161009D01*
X206085714Y-90161009D02*
X206038095Y-90113390D01*
X206038095Y-90113390D02*
X205942857Y-90065771D01*
X205942857Y-90065771D02*
X205752381Y-90065771D01*
X205752381Y-90065771D02*
X205657143Y-90113390D01*
X205657143Y-90113390D02*
X205609524Y-90161009D01*
X205609524Y-90161009D02*
X205561905Y-90256247D01*
X206609524Y-90684819D02*
X206800000Y-90684819D01*
X206800000Y-90684819D02*
X206895238Y-90637200D01*
X206895238Y-90637200D02*
X206942857Y-90589580D01*
X206942857Y-90589580D02*
X207038095Y-90446723D01*
X207038095Y-90446723D02*
X207085714Y-90256247D01*
X207085714Y-90256247D02*
X207085714Y-89875295D01*
X207085714Y-89875295D02*
X207038095Y-89780057D01*
X207038095Y-89780057D02*
X206990476Y-89732438D01*
X206990476Y-89732438D02*
X206895238Y-89684819D01*
X206895238Y-89684819D02*
X206704762Y-89684819D01*
X206704762Y-89684819D02*
X206609524Y-89732438D01*
X206609524Y-89732438D02*
X206561905Y-89780057D01*
X206561905Y-89780057D02*
X206514286Y-89875295D01*
X206514286Y-89875295D02*
X206514286Y-90113390D01*
X206514286Y-90113390D02*
X206561905Y-90208628D01*
X206561905Y-90208628D02*
X206609524Y-90256247D01*
X206609524Y-90256247D02*
X206704762Y-90303866D01*
X206704762Y-90303866D02*
X206895238Y-90303866D01*
X206895238Y-90303866D02*
X206990476Y-90256247D01*
X206990476Y-90256247D02*
X207038095Y-90208628D01*
X207038095Y-90208628D02*
X207085714Y-90113390D01*
X207657143Y-90113390D02*
X207561905Y-90065771D01*
X207561905Y-90065771D02*
X207514286Y-90018152D01*
X207514286Y-90018152D02*
X207466667Y-89922914D01*
X207466667Y-89922914D02*
X207466667Y-89875295D01*
X207466667Y-89875295D02*
X207514286Y-89780057D01*
X207514286Y-89780057D02*
X207561905Y-89732438D01*
X207561905Y-89732438D02*
X207657143Y-89684819D01*
X207657143Y-89684819D02*
X207847619Y-89684819D01*
X207847619Y-89684819D02*
X207942857Y-89732438D01*
X207942857Y-89732438D02*
X207990476Y-89780057D01*
X207990476Y-89780057D02*
X208038095Y-89875295D01*
X208038095Y-89875295D02*
X208038095Y-89922914D01*
X208038095Y-89922914D02*
X207990476Y-90018152D01*
X207990476Y-90018152D02*
X207942857Y-90065771D01*
X207942857Y-90065771D02*
X207847619Y-90113390D01*
X207847619Y-90113390D02*
X207657143Y-90113390D01*
X207657143Y-90113390D02*
X207561905Y-90161009D01*
X207561905Y-90161009D02*
X207514286Y-90208628D01*
X207514286Y-90208628D02*
X207466667Y-90303866D01*
X207466667Y-90303866D02*
X207466667Y-90494342D01*
X207466667Y-90494342D02*
X207514286Y-90589580D01*
X207514286Y-90589580D02*
X207561905Y-90637200D01*
X207561905Y-90637200D02*
X207657143Y-90684819D01*
X207657143Y-90684819D02*
X207847619Y-90684819D01*
X207847619Y-90684819D02*
X207942857Y-90637200D01*
X207942857Y-90637200D02*
X207990476Y-90589580D01*
X207990476Y-90589580D02*
X208038095Y-90494342D01*
X208038095Y-90494342D02*
X208038095Y-90303866D01*
X208038095Y-90303866D02*
X207990476Y-90208628D01*
X207990476Y-90208628D02*
X207942857Y-90161009D01*
X207942857Y-90161009D02*
X207847619Y-90113390D01*
X219150000Y-84766033D02*
X218750000Y-84766033D01*
X218950000Y-84766033D02*
X218950000Y-84066033D01*
X218950000Y-84066033D02*
X218883333Y-84166033D01*
X218883333Y-84166033D02*
X218816667Y-84232700D01*
X218816667Y-84232700D02*
X218750000Y-84266033D01*
X219583334Y-84066033D02*
X219650000Y-84066033D01*
X219650000Y-84066033D02*
X219716667Y-84099366D01*
X219716667Y-84099366D02*
X219750000Y-84132700D01*
X219750000Y-84132700D02*
X219783334Y-84199366D01*
X219783334Y-84199366D02*
X219816667Y-84332700D01*
X219816667Y-84332700D02*
X219816667Y-84499366D01*
X219816667Y-84499366D02*
X219783334Y-84632700D01*
X219783334Y-84632700D02*
X219750000Y-84699366D01*
X219750000Y-84699366D02*
X219716667Y-84732700D01*
X219716667Y-84732700D02*
X219650000Y-84766033D01*
X219650000Y-84766033D02*
X219583334Y-84766033D01*
X219583334Y-84766033D02*
X219516667Y-84732700D01*
X219516667Y-84732700D02*
X219483334Y-84699366D01*
X219483334Y-84699366D02*
X219450000Y-84632700D01*
X219450000Y-84632700D02*
X219416667Y-84499366D01*
X219416667Y-84499366D02*
X219416667Y-84332700D01*
X219416667Y-84332700D02*
X219450000Y-84199366D01*
X219450000Y-84199366D02*
X219483334Y-84132700D01*
X219483334Y-84132700D02*
X219516667Y-84099366D01*
X219516667Y-84099366D02*
X219583334Y-84066033D01*
X220416667Y-84299366D02*
X220416667Y-84766033D01*
X220116667Y-84299366D02*
X220116667Y-84666033D01*
X220116667Y-84666033D02*
X220150001Y-84732700D01*
X220150001Y-84732700D02*
X220216667Y-84766033D01*
X220216667Y-84766033D02*
X220316667Y-84766033D01*
X220316667Y-84766033D02*
X220383334Y-84732700D01*
X220383334Y-84732700D02*
X220416667Y-84699366D01*
X197954819Y-84920238D02*
X197954819Y-85491666D01*
X197954819Y-85205952D02*
X196954819Y-85205952D01*
X196954819Y-85205952D02*
X197097676Y-85301190D01*
X197097676Y-85301190D02*
X197192914Y-85396428D01*
X197192914Y-85396428D02*
X197240533Y-85491666D01*
X196954819Y-84301190D02*
X196954819Y-84205952D01*
X196954819Y-84205952D02*
X197002438Y-84110714D01*
X197002438Y-84110714D02*
X197050057Y-84063095D01*
X197050057Y-84063095D02*
X197145295Y-84015476D01*
X197145295Y-84015476D02*
X197335771Y-83967857D01*
X197335771Y-83967857D02*
X197573866Y-83967857D01*
X197573866Y-83967857D02*
X197764342Y-84015476D01*
X197764342Y-84015476D02*
X197859580Y-84063095D01*
X197859580Y-84063095D02*
X197907200Y-84110714D01*
X197907200Y-84110714D02*
X197954819Y-84205952D01*
X197954819Y-84205952D02*
X197954819Y-84301190D01*
X197954819Y-84301190D02*
X197907200Y-84396428D01*
X197907200Y-84396428D02*
X197859580Y-84444047D01*
X197859580Y-84444047D02*
X197764342Y-84491666D01*
X197764342Y-84491666D02*
X197573866Y-84539285D01*
X197573866Y-84539285D02*
X197335771Y-84539285D01*
X197335771Y-84539285D02*
X197145295Y-84491666D01*
X197145295Y-84491666D02*
X197050057Y-84444047D01*
X197050057Y-84444047D02*
X197002438Y-84396428D01*
X197002438Y-84396428D02*
X196954819Y-84301190D01*
X197954819Y-83539285D02*
X196954819Y-83539285D01*
X197573866Y-83444047D02*
X197954819Y-83158333D01*
X197288152Y-83158333D02*
X197669104Y-83539285D01*
X183683333Y-85016033D02*
X183349999Y-85016033D01*
X183349999Y-85016033D02*
X183316666Y-85349366D01*
X183316666Y-85349366D02*
X183349999Y-85316033D01*
X183349999Y-85316033D02*
X183416666Y-85282700D01*
X183416666Y-85282700D02*
X183583333Y-85282700D01*
X183583333Y-85282700D02*
X183649999Y-85316033D01*
X183649999Y-85316033D02*
X183683333Y-85349366D01*
X183683333Y-85349366D02*
X183716666Y-85416033D01*
X183716666Y-85416033D02*
X183716666Y-85582700D01*
X183716666Y-85582700D02*
X183683333Y-85649366D01*
X183683333Y-85649366D02*
X183649999Y-85682700D01*
X183649999Y-85682700D02*
X183583333Y-85716033D01*
X183583333Y-85716033D02*
X183416666Y-85716033D01*
X183416666Y-85716033D02*
X183349999Y-85682700D01*
X183349999Y-85682700D02*
X183316666Y-85649366D01*
X184016666Y-85649366D02*
X184050000Y-85682700D01*
X184050000Y-85682700D02*
X184016666Y-85716033D01*
X184016666Y-85716033D02*
X183983333Y-85682700D01*
X183983333Y-85682700D02*
X184016666Y-85649366D01*
X184016666Y-85649366D02*
X184016666Y-85716033D01*
X184716666Y-85716033D02*
X184316666Y-85716033D01*
X184516666Y-85716033D02*
X184516666Y-85016033D01*
X184516666Y-85016033D02*
X184449999Y-85116033D01*
X184449999Y-85116033D02*
X184383333Y-85182700D01*
X184383333Y-85182700D02*
X184316666Y-85216033D01*
X185016666Y-85716033D02*
X185016666Y-85016033D01*
X185083333Y-85449366D02*
X185283333Y-85716033D01*
X185283333Y-85249366D02*
X185016666Y-85516033D01*
X219466761Y-81808295D02*
X219009618Y-81808295D01*
X219238190Y-81808295D02*
X219238190Y-81008295D01*
X219238190Y-81008295D02*
X219161999Y-81122580D01*
X219161999Y-81122580D02*
X219085809Y-81198771D01*
X219085809Y-81198771D02*
X219009618Y-81236866D01*
X219809619Y-81808295D02*
X219809619Y-81008295D01*
X219885809Y-81503533D02*
X220114381Y-81808295D01*
X220114381Y-81274961D02*
X219809619Y-81579723D01*
D16*
X198604318Y-116023332D02*
X199511461Y-116023332D01*
X199511461Y-116023332D02*
X199692889Y-116083809D01*
X199692889Y-116083809D02*
X199813842Y-116204761D01*
X199813842Y-116204761D02*
X199874318Y-116386190D01*
X199874318Y-116386190D02*
X199874318Y-116507142D01*
X199027651Y-114874285D02*
X199874318Y-114874285D01*
X198543842Y-115176666D02*
X199450984Y-115479047D01*
X199450984Y-115479047D02*
X199450984Y-114692856D01*
D10*
X209434980Y-98688315D02*
X209482600Y-98640696D01*
X209482600Y-98640696D02*
X209530219Y-98688315D01*
X209530219Y-98688315D02*
X209482600Y-98735934D01*
X209482600Y-98735934D02*
X209434980Y-98688315D01*
X209434980Y-98688315D02*
X209530219Y-98688315D01*
D13*
X193483333Y-118716033D02*
X193083333Y-118716033D01*
X193283333Y-118716033D02*
X193283333Y-118016033D01*
X193283333Y-118016033D02*
X193216666Y-118116033D01*
X193216666Y-118116033D02*
X193150000Y-118182700D01*
X193150000Y-118182700D02*
X193083333Y-118216033D01*
X193916667Y-118016033D02*
X193983333Y-118016033D01*
X193983333Y-118016033D02*
X194050000Y-118049366D01*
X194050000Y-118049366D02*
X194083333Y-118082700D01*
X194083333Y-118082700D02*
X194116667Y-118149366D01*
X194116667Y-118149366D02*
X194150000Y-118282700D01*
X194150000Y-118282700D02*
X194150000Y-118449366D01*
X194150000Y-118449366D02*
X194116667Y-118582700D01*
X194116667Y-118582700D02*
X194083333Y-118649366D01*
X194083333Y-118649366D02*
X194050000Y-118682700D01*
X194050000Y-118682700D02*
X193983333Y-118716033D01*
X193983333Y-118716033D02*
X193916667Y-118716033D01*
X193916667Y-118716033D02*
X193850000Y-118682700D01*
X193850000Y-118682700D02*
X193816667Y-118649366D01*
X193816667Y-118649366D02*
X193783333Y-118582700D01*
X193783333Y-118582700D02*
X193750000Y-118449366D01*
X193750000Y-118449366D02*
X193750000Y-118282700D01*
X193750000Y-118282700D02*
X193783333Y-118149366D01*
X193783333Y-118149366D02*
X193816667Y-118082700D01*
X193816667Y-118082700D02*
X193850000Y-118049366D01*
X193850000Y-118049366D02*
X193916667Y-118016033D01*
X194450000Y-118716033D02*
X194450000Y-118016033D01*
X194516667Y-118449366D02*
X194716667Y-118716033D01*
X194716667Y-118249366D02*
X194450000Y-118516033D01*
X219066666Y-85766033D02*
X218933333Y-85766033D01*
X218933333Y-85766033D02*
X218866666Y-85799366D01*
X218866666Y-85799366D02*
X218833333Y-85832700D01*
X218833333Y-85832700D02*
X218766666Y-85932700D01*
X218766666Y-85932700D02*
X218733333Y-86066033D01*
X218733333Y-86066033D02*
X218733333Y-86332700D01*
X218733333Y-86332700D02*
X218766666Y-86399366D01*
X218766666Y-86399366D02*
X218800000Y-86432700D01*
X218800000Y-86432700D02*
X218866666Y-86466033D01*
X218866666Y-86466033D02*
X219000000Y-86466033D01*
X219000000Y-86466033D02*
X219066666Y-86432700D01*
X219066666Y-86432700D02*
X219100000Y-86399366D01*
X219100000Y-86399366D02*
X219133333Y-86332700D01*
X219133333Y-86332700D02*
X219133333Y-86166033D01*
X219133333Y-86166033D02*
X219100000Y-86099366D01*
X219100000Y-86099366D02*
X219066666Y-86066033D01*
X219066666Y-86066033D02*
X219000000Y-86032700D01*
X219000000Y-86032700D02*
X218866666Y-86032700D01*
X218866666Y-86032700D02*
X218800000Y-86066033D01*
X218800000Y-86066033D02*
X218766666Y-86099366D01*
X218766666Y-86099366D02*
X218733333Y-86166033D01*
X219466667Y-86466033D02*
X219600000Y-86466033D01*
X219600000Y-86466033D02*
X219666667Y-86432700D01*
X219666667Y-86432700D02*
X219700000Y-86399366D01*
X219700000Y-86399366D02*
X219766667Y-86299366D01*
X219766667Y-86299366D02*
X219800000Y-86166033D01*
X219800000Y-86166033D02*
X219800000Y-85899366D01*
X219800000Y-85899366D02*
X219766667Y-85832700D01*
X219766667Y-85832700D02*
X219733333Y-85799366D01*
X219733333Y-85799366D02*
X219666667Y-85766033D01*
X219666667Y-85766033D02*
X219533333Y-85766033D01*
X219533333Y-85766033D02*
X219466667Y-85799366D01*
X219466667Y-85799366D02*
X219433333Y-85832700D01*
X219433333Y-85832700D02*
X219400000Y-85899366D01*
X219400000Y-85899366D02*
X219400000Y-86066033D01*
X219400000Y-86066033D02*
X219433333Y-86132700D01*
X219433333Y-86132700D02*
X219466667Y-86166033D01*
X219466667Y-86166033D02*
X219533333Y-86199366D01*
X219533333Y-86199366D02*
X219666667Y-86199366D01*
X219666667Y-86199366D02*
X219733333Y-86166033D01*
X219733333Y-86166033D02*
X219766667Y-86132700D01*
X219766667Y-86132700D02*
X219800000Y-86066033D01*
X220200000Y-86066033D02*
X220133334Y-86032700D01*
X220133334Y-86032700D02*
X220100000Y-85999366D01*
X220100000Y-85999366D02*
X220066667Y-85932700D01*
X220066667Y-85932700D02*
X220066667Y-85899366D01*
X220066667Y-85899366D02*
X220100000Y-85832700D01*
X220100000Y-85832700D02*
X220133334Y-85799366D01*
X220133334Y-85799366D02*
X220200000Y-85766033D01*
X220200000Y-85766033D02*
X220333334Y-85766033D01*
X220333334Y-85766033D02*
X220400000Y-85799366D01*
X220400000Y-85799366D02*
X220433334Y-85832700D01*
X220433334Y-85832700D02*
X220466667Y-85899366D01*
X220466667Y-85899366D02*
X220466667Y-85932700D01*
X220466667Y-85932700D02*
X220433334Y-85999366D01*
X220433334Y-85999366D02*
X220400000Y-86032700D01*
X220400000Y-86032700D02*
X220333334Y-86066033D01*
X220333334Y-86066033D02*
X220200000Y-86066033D01*
X220200000Y-86066033D02*
X220133334Y-86099366D01*
X220133334Y-86099366D02*
X220100000Y-86132700D01*
X220100000Y-86132700D02*
X220066667Y-86199366D01*
X220066667Y-86199366D02*
X220066667Y-86332700D01*
X220066667Y-86332700D02*
X220100000Y-86399366D01*
X220100000Y-86399366D02*
X220133334Y-86432700D01*
X220133334Y-86432700D02*
X220200000Y-86466033D01*
X220200000Y-86466033D02*
X220333334Y-86466033D01*
X220333334Y-86466033D02*
X220400000Y-86432700D01*
X220400000Y-86432700D02*
X220433334Y-86399366D01*
X220433334Y-86399366D02*
X220466667Y-86332700D01*
X220466667Y-86332700D02*
X220466667Y-86199366D01*
X220466667Y-86199366D02*
X220433334Y-86132700D01*
X220433334Y-86132700D02*
X220400000Y-86099366D01*
X220400000Y-86099366D02*
X220333334Y-86066033D01*
X181516666Y-95716033D02*
X181116666Y-95716033D01*
X181316666Y-95716033D02*
X181316666Y-95016033D01*
X181316666Y-95016033D02*
X181249999Y-95116033D01*
X181249999Y-95116033D02*
X181183333Y-95182700D01*
X181183333Y-95182700D02*
X181116666Y-95216033D01*
X181816666Y-95716033D02*
X181816666Y-95016033D01*
X181883333Y-95449366D02*
X182083333Y-95716033D01*
X182083333Y-95249366D02*
X181816666Y-95516033D01*
X172190476Y-90354819D02*
X171619048Y-90354819D01*
X171904762Y-90354819D02*
X171904762Y-89354819D01*
X171904762Y-89354819D02*
X171809524Y-89497676D01*
X171809524Y-89497676D02*
X171714286Y-89592914D01*
X171714286Y-89592914D02*
X171619048Y-89640533D01*
X172523810Y-89354819D02*
X173142857Y-89354819D01*
X173142857Y-89354819D02*
X172809524Y-89735771D01*
X172809524Y-89735771D02*
X172952381Y-89735771D01*
X172952381Y-89735771D02*
X173047619Y-89783390D01*
X173047619Y-89783390D02*
X173095238Y-89831009D01*
X173095238Y-89831009D02*
X173142857Y-89926247D01*
X173142857Y-89926247D02*
X173142857Y-90164342D01*
X173142857Y-90164342D02*
X173095238Y-90259580D01*
X173095238Y-90259580D02*
X173047619Y-90307200D01*
X173047619Y-90307200D02*
X172952381Y-90354819D01*
X172952381Y-90354819D02*
X172666667Y-90354819D01*
X172666667Y-90354819D02*
X172571429Y-90307200D01*
X172571429Y-90307200D02*
X172523810Y-90259580D01*
X173571429Y-90259580D02*
X173619048Y-90307200D01*
X173619048Y-90307200D02*
X173571429Y-90354819D01*
X173571429Y-90354819D02*
X173523810Y-90307200D01*
X173523810Y-90307200D02*
X173571429Y-90259580D01*
X173571429Y-90259580D02*
X173571429Y-90354819D01*
X173952381Y-89354819D02*
X174619047Y-89354819D01*
X174619047Y-89354819D02*
X174190476Y-90354819D01*
X175000000Y-90354819D02*
X175000000Y-89354819D01*
X175095238Y-89973866D02*
X175380952Y-90354819D01*
X175380952Y-89688152D02*
X175000000Y-90069104D01*
X172628571Y-91754819D02*
X172057143Y-91754819D01*
X172342857Y-91754819D02*
X172342857Y-90754819D01*
X172342857Y-90754819D02*
X172247619Y-90897676D01*
X172247619Y-90897676D02*
X172152381Y-90992914D01*
X172152381Y-90992914D02*
X172057143Y-91040533D01*
X173247619Y-90754819D02*
X173342857Y-90754819D01*
X173342857Y-90754819D02*
X173438095Y-90802438D01*
X173438095Y-90802438D02*
X173485714Y-90850057D01*
X173485714Y-90850057D02*
X173533333Y-90945295D01*
X173533333Y-90945295D02*
X173580952Y-91135771D01*
X173580952Y-91135771D02*
X173580952Y-91373866D01*
X173580952Y-91373866D02*
X173533333Y-91564342D01*
X173533333Y-91564342D02*
X173485714Y-91659580D01*
X173485714Y-91659580D02*
X173438095Y-91707200D01*
X173438095Y-91707200D02*
X173342857Y-91754819D01*
X173342857Y-91754819D02*
X173247619Y-91754819D01*
X173247619Y-91754819D02*
X173152381Y-91707200D01*
X173152381Y-91707200D02*
X173104762Y-91659580D01*
X173104762Y-91659580D02*
X173057143Y-91564342D01*
X173057143Y-91564342D02*
X173009524Y-91373866D01*
X173009524Y-91373866D02*
X173009524Y-91135771D01*
X173009524Y-91135771D02*
X173057143Y-90945295D01*
X173057143Y-90945295D02*
X173104762Y-90850057D01*
X173104762Y-90850057D02*
X173152381Y-90802438D01*
X173152381Y-90802438D02*
X173247619Y-90754819D01*
X174200000Y-90754819D02*
X174295238Y-90754819D01*
X174295238Y-90754819D02*
X174390476Y-90802438D01*
X174390476Y-90802438D02*
X174438095Y-90850057D01*
X174438095Y-90850057D02*
X174485714Y-90945295D01*
X174485714Y-90945295D02*
X174533333Y-91135771D01*
X174533333Y-91135771D02*
X174533333Y-91373866D01*
X174533333Y-91373866D02*
X174485714Y-91564342D01*
X174485714Y-91564342D02*
X174438095Y-91659580D01*
X174438095Y-91659580D02*
X174390476Y-91707200D01*
X174390476Y-91707200D02*
X174295238Y-91754819D01*
X174295238Y-91754819D02*
X174200000Y-91754819D01*
X174200000Y-91754819D02*
X174104762Y-91707200D01*
X174104762Y-91707200D02*
X174057143Y-91659580D01*
X174057143Y-91659580D02*
X174009524Y-91564342D01*
X174009524Y-91564342D02*
X173961905Y-91373866D01*
X173961905Y-91373866D02*
X173961905Y-91135771D01*
X173961905Y-91135771D02*
X174009524Y-90945295D01*
X174009524Y-90945295D02*
X174057143Y-90850057D01*
X174057143Y-90850057D02*
X174104762Y-90802438D01*
X174104762Y-90802438D02*
X174200000Y-90754819D01*
X174961905Y-91754819D02*
X174961905Y-90754819D01*
X175057143Y-91373866D02*
X175342857Y-91754819D01*
X175342857Y-91088152D02*
X174961905Y-91469104D01*
X181808333Y-120416033D02*
X181408333Y-120416033D01*
X181608333Y-120416033D02*
X181608333Y-119716033D01*
X181608333Y-119716033D02*
X181541666Y-119816033D01*
X181541666Y-119816033D02*
X181475000Y-119882700D01*
X181475000Y-119882700D02*
X181408333Y-119916033D01*
X182241667Y-119716033D02*
X182308333Y-119716033D01*
X182308333Y-119716033D02*
X182375000Y-119749366D01*
X182375000Y-119749366D02*
X182408333Y-119782700D01*
X182408333Y-119782700D02*
X182441667Y-119849366D01*
X182441667Y-119849366D02*
X182475000Y-119982700D01*
X182475000Y-119982700D02*
X182475000Y-120149366D01*
X182475000Y-120149366D02*
X182441667Y-120282700D01*
X182441667Y-120282700D02*
X182408333Y-120349366D01*
X182408333Y-120349366D02*
X182375000Y-120382700D01*
X182375000Y-120382700D02*
X182308333Y-120416033D01*
X182308333Y-120416033D02*
X182241667Y-120416033D01*
X182241667Y-120416033D02*
X182175000Y-120382700D01*
X182175000Y-120382700D02*
X182141667Y-120349366D01*
X182141667Y-120349366D02*
X182108333Y-120282700D01*
X182108333Y-120282700D02*
X182075000Y-120149366D01*
X182075000Y-120149366D02*
X182075000Y-119982700D01*
X182075000Y-119982700D02*
X182108333Y-119849366D01*
X182108333Y-119849366D02*
X182141667Y-119782700D01*
X182141667Y-119782700D02*
X182175000Y-119749366D01*
X182175000Y-119749366D02*
X182241667Y-119716033D01*
X182775000Y-120416033D02*
X182775000Y-119716033D01*
X182841667Y-120149366D02*
X183041667Y-120416033D01*
X183041667Y-119949366D02*
X182775000Y-120216033D01*
X203877381Y-98529819D02*
X203972619Y-98529819D01*
X203972619Y-98529819D02*
X204067857Y-98577438D01*
X204067857Y-98577438D02*
X204115476Y-98625057D01*
X204115476Y-98625057D02*
X204163095Y-98720295D01*
X204163095Y-98720295D02*
X204210714Y-98910771D01*
X204210714Y-98910771D02*
X204210714Y-99148866D01*
X204210714Y-99148866D02*
X204163095Y-99339342D01*
X204163095Y-99339342D02*
X204115476Y-99434580D01*
X204115476Y-99434580D02*
X204067857Y-99482200D01*
X204067857Y-99482200D02*
X203972619Y-99529819D01*
X203972619Y-99529819D02*
X203877381Y-99529819D01*
X203877381Y-99529819D02*
X203782143Y-99482200D01*
X203782143Y-99482200D02*
X203734524Y-99434580D01*
X203734524Y-99434580D02*
X203686905Y-99339342D01*
X203686905Y-99339342D02*
X203639286Y-99148866D01*
X203639286Y-99148866D02*
X203639286Y-98910771D01*
X203639286Y-98910771D02*
X203686905Y-98720295D01*
X203686905Y-98720295D02*
X203734524Y-98625057D01*
X203734524Y-98625057D02*
X203782143Y-98577438D01*
X203782143Y-98577438D02*
X203877381Y-98529819D01*
X182580952Y-90854819D02*
X182009524Y-90854819D01*
X182295238Y-90854819D02*
X182295238Y-89854819D01*
X182295238Y-89854819D02*
X182200000Y-89997676D01*
X182200000Y-89997676D02*
X182104762Y-90092914D01*
X182104762Y-90092914D02*
X182009524Y-90140533D01*
X183200000Y-89854819D02*
X183295238Y-89854819D01*
X183295238Y-89854819D02*
X183390476Y-89902438D01*
X183390476Y-89902438D02*
X183438095Y-89950057D01*
X183438095Y-89950057D02*
X183485714Y-90045295D01*
X183485714Y-90045295D02*
X183533333Y-90235771D01*
X183533333Y-90235771D02*
X183533333Y-90473866D01*
X183533333Y-90473866D02*
X183485714Y-90664342D01*
X183485714Y-90664342D02*
X183438095Y-90759580D01*
X183438095Y-90759580D02*
X183390476Y-90807200D01*
X183390476Y-90807200D02*
X183295238Y-90854819D01*
X183295238Y-90854819D02*
X183200000Y-90854819D01*
X183200000Y-90854819D02*
X183104762Y-90807200D01*
X183104762Y-90807200D02*
X183057143Y-90759580D01*
X183057143Y-90759580D02*
X183009524Y-90664342D01*
X183009524Y-90664342D02*
X182961905Y-90473866D01*
X182961905Y-90473866D02*
X182961905Y-90235771D01*
X182961905Y-90235771D02*
X183009524Y-90045295D01*
X183009524Y-90045295D02*
X183057143Y-89950057D01*
X183057143Y-89950057D02*
X183104762Y-89902438D01*
X183104762Y-89902438D02*
X183200000Y-89854819D01*
X184152381Y-89854819D02*
X184247619Y-89854819D01*
X184247619Y-89854819D02*
X184342857Y-89902438D01*
X184342857Y-89902438D02*
X184390476Y-89950057D01*
X184390476Y-89950057D02*
X184438095Y-90045295D01*
X184438095Y-90045295D02*
X184485714Y-90235771D01*
X184485714Y-90235771D02*
X184485714Y-90473866D01*
X184485714Y-90473866D02*
X184438095Y-90664342D01*
X184438095Y-90664342D02*
X184390476Y-90759580D01*
X184390476Y-90759580D02*
X184342857Y-90807200D01*
X184342857Y-90807200D02*
X184247619Y-90854819D01*
X184247619Y-90854819D02*
X184152381Y-90854819D01*
X184152381Y-90854819D02*
X184057143Y-90807200D01*
X184057143Y-90807200D02*
X184009524Y-90759580D01*
X184009524Y-90759580D02*
X183961905Y-90664342D01*
X183961905Y-90664342D02*
X183914286Y-90473866D01*
X183914286Y-90473866D02*
X183914286Y-90235771D01*
X183914286Y-90235771D02*
X183961905Y-90045295D01*
X183961905Y-90045295D02*
X184009524Y-89950057D01*
X184009524Y-89950057D02*
X184057143Y-89902438D01*
X184057143Y-89902438D02*
X184152381Y-89854819D01*
X184914286Y-90188152D02*
X184914286Y-90854819D01*
X184914286Y-90283390D02*
X184961905Y-90235771D01*
X184961905Y-90235771D02*
X185057143Y-90188152D01*
X185057143Y-90188152D02*
X185200000Y-90188152D01*
X185200000Y-90188152D02*
X185295238Y-90235771D01*
X185295238Y-90235771D02*
X185342857Y-90331009D01*
X185342857Y-90331009D02*
X185342857Y-90854819D01*
D10*
X224278094Y-76182580D02*
X224278094Y-77182580D01*
X224278094Y-77182580D02*
X223897142Y-77182580D01*
X223897142Y-77182580D02*
X223801904Y-77134961D01*
X223801904Y-77134961D02*
X223754285Y-77087342D01*
X223754285Y-77087342D02*
X223706666Y-76992104D01*
X223706666Y-76992104D02*
X223706666Y-76849247D01*
X223706666Y-76849247D02*
X223754285Y-76754009D01*
X223754285Y-76754009D02*
X223801904Y-76706390D01*
X223801904Y-76706390D02*
X223897142Y-76658771D01*
X223897142Y-76658771D02*
X224278094Y-76658771D01*
X222754285Y-76182580D02*
X223325713Y-76182580D01*
X223039999Y-76182580D02*
X223039999Y-77182580D01*
X223039999Y-77182580D02*
X223135237Y-77039723D01*
X223135237Y-77039723D02*
X223230475Y-76944485D01*
X223230475Y-76944485D02*
X223325713Y-76896866D01*
D13*
X183491666Y-82874366D02*
X183491666Y-83341033D01*
X183325000Y-82607700D02*
X183158333Y-83107700D01*
X183158333Y-83107700D02*
X183591666Y-83107700D01*
X183858333Y-83274366D02*
X183891667Y-83307700D01*
X183891667Y-83307700D02*
X183858333Y-83341033D01*
X183858333Y-83341033D02*
X183825000Y-83307700D01*
X183825000Y-83307700D02*
X183858333Y-83274366D01*
X183858333Y-83274366D02*
X183858333Y-83341033D01*
X184125000Y-82641033D02*
X184591666Y-82641033D01*
X184591666Y-82641033D02*
X184291666Y-83341033D01*
X185158333Y-82874366D02*
X185158333Y-83341033D01*
X184858333Y-82874366D02*
X184858333Y-83241033D01*
X184858333Y-83241033D02*
X184891667Y-83307700D01*
X184891667Y-83307700D02*
X184958333Y-83341033D01*
X184958333Y-83341033D02*
X185058333Y-83341033D01*
X185058333Y-83341033D02*
X185125000Y-83307700D01*
X185125000Y-83307700D02*
X185158333Y-83274366D01*
X183433333Y-88154819D02*
X182861905Y-88154819D01*
X183147619Y-88154819D02*
X183147619Y-87154819D01*
X183147619Y-87154819D02*
X183052381Y-87297676D01*
X183052381Y-87297676D02*
X182957143Y-87392914D01*
X182957143Y-87392914D02*
X182861905Y-87440533D01*
X184290476Y-87488152D02*
X184290476Y-88154819D01*
X183861905Y-87488152D02*
X183861905Y-88011961D01*
X183861905Y-88011961D02*
X183909524Y-88107200D01*
X183909524Y-88107200D02*
X184004762Y-88154819D01*
X184004762Y-88154819D02*
X184147619Y-88154819D01*
X184147619Y-88154819D02*
X184242857Y-88107200D01*
X184242857Y-88107200D02*
X184290476Y-88059580D01*
X211133333Y-98604819D02*
X210561905Y-98604819D01*
X210847619Y-98604819D02*
X210847619Y-97604819D01*
X210847619Y-97604819D02*
X210752381Y-97747676D01*
X210752381Y-97747676D02*
X210657143Y-97842914D01*
X210657143Y-97842914D02*
X210561905Y-97890533D01*
X211990476Y-97938152D02*
X211990476Y-98604819D01*
X211561905Y-97938152D02*
X211561905Y-98461961D01*
X211561905Y-98461961D02*
X211609524Y-98557200D01*
X211609524Y-98557200D02*
X211704762Y-98604819D01*
X211704762Y-98604819D02*
X211847619Y-98604819D01*
X211847619Y-98604819D02*
X211942857Y-98557200D01*
X211942857Y-98557200D02*
X211990476Y-98509580D01*
X203877381Y-100169819D02*
X203972619Y-100169819D01*
X203972619Y-100169819D02*
X204067857Y-100217438D01*
X204067857Y-100217438D02*
X204115476Y-100265057D01*
X204115476Y-100265057D02*
X204163095Y-100360295D01*
X204163095Y-100360295D02*
X204210714Y-100550771D01*
X204210714Y-100550771D02*
X204210714Y-100788866D01*
X204210714Y-100788866D02*
X204163095Y-100979342D01*
X204163095Y-100979342D02*
X204115476Y-101074580D01*
X204115476Y-101074580D02*
X204067857Y-101122200D01*
X204067857Y-101122200D02*
X203972619Y-101169819D01*
X203972619Y-101169819D02*
X203877381Y-101169819D01*
X203877381Y-101169819D02*
X203782143Y-101122200D01*
X203782143Y-101122200D02*
X203734524Y-101074580D01*
X203734524Y-101074580D02*
X203686905Y-100979342D01*
X203686905Y-100979342D02*
X203639286Y-100788866D01*
X203639286Y-100788866D02*
X203639286Y-100550771D01*
X203639286Y-100550771D02*
X203686905Y-100360295D01*
X203686905Y-100360295D02*
X203734524Y-100265057D01*
X203734524Y-100265057D02*
X203782143Y-100217438D01*
X203782143Y-100217438D02*
X203877381Y-100169819D01*
X174408333Y-119716033D02*
X174074999Y-119716033D01*
X174074999Y-119716033D02*
X174041666Y-120049366D01*
X174041666Y-120049366D02*
X174074999Y-120016033D01*
X174074999Y-120016033D02*
X174141666Y-119982700D01*
X174141666Y-119982700D02*
X174308333Y-119982700D01*
X174308333Y-119982700D02*
X174374999Y-120016033D01*
X174374999Y-120016033D02*
X174408333Y-120049366D01*
X174408333Y-120049366D02*
X174441666Y-120116033D01*
X174441666Y-120116033D02*
X174441666Y-120282700D01*
X174441666Y-120282700D02*
X174408333Y-120349366D01*
X174408333Y-120349366D02*
X174374999Y-120382700D01*
X174374999Y-120382700D02*
X174308333Y-120416033D01*
X174308333Y-120416033D02*
X174141666Y-120416033D01*
X174141666Y-120416033D02*
X174074999Y-120382700D01*
X174074999Y-120382700D02*
X174041666Y-120349366D01*
X174741666Y-120349366D02*
X174775000Y-120382700D01*
X174775000Y-120382700D02*
X174741666Y-120416033D01*
X174741666Y-120416033D02*
X174708333Y-120382700D01*
X174708333Y-120382700D02*
X174741666Y-120349366D01*
X174741666Y-120349366D02*
X174741666Y-120416033D01*
X175441666Y-120416033D02*
X175041666Y-120416033D01*
X175241666Y-120416033D02*
X175241666Y-119716033D01*
X175241666Y-119716033D02*
X175174999Y-119816033D01*
X175174999Y-119816033D02*
X175108333Y-119882700D01*
X175108333Y-119882700D02*
X175041666Y-119916033D01*
X175741666Y-120416033D02*
X175741666Y-119716033D01*
X175808333Y-120149366D02*
X176008333Y-120416033D01*
X176008333Y-119949366D02*
X175741666Y-120216033D01*
X214154819Y-87764285D02*
X214154819Y-87669047D01*
X214154819Y-87669047D02*
X214202438Y-87573809D01*
X214202438Y-87573809D02*
X214250057Y-87526190D01*
X214250057Y-87526190D02*
X214345295Y-87478571D01*
X214345295Y-87478571D02*
X214535771Y-87430952D01*
X214535771Y-87430952D02*
X214773866Y-87430952D01*
X214773866Y-87430952D02*
X214964342Y-87478571D01*
X214964342Y-87478571D02*
X215059580Y-87526190D01*
X215059580Y-87526190D02*
X215107200Y-87573809D01*
X215107200Y-87573809D02*
X215154819Y-87669047D01*
X215154819Y-87669047D02*
X215154819Y-87764285D01*
X215154819Y-87764285D02*
X215107200Y-87859523D01*
X215107200Y-87859523D02*
X215059580Y-87907142D01*
X215059580Y-87907142D02*
X214964342Y-87954761D01*
X214964342Y-87954761D02*
X214773866Y-88002380D01*
X214773866Y-88002380D02*
X214535771Y-88002380D01*
X214535771Y-88002380D02*
X214345295Y-87954761D01*
X214345295Y-87954761D02*
X214250057Y-87907142D01*
X214250057Y-87907142D02*
X214202438Y-87859523D01*
X214202438Y-87859523D02*
X214154819Y-87764285D01*
X215059580Y-87002380D02*
X215107200Y-86954761D01*
X215107200Y-86954761D02*
X215154819Y-87002380D01*
X215154819Y-87002380D02*
X215107200Y-87049999D01*
X215107200Y-87049999D02*
X215059580Y-87002380D01*
X215059580Y-87002380D02*
X215154819Y-87002380D01*
X215154819Y-86002381D02*
X215154819Y-86573809D01*
X215154819Y-86288095D02*
X214154819Y-86288095D01*
X214154819Y-86288095D02*
X214297676Y-86383333D01*
X214297676Y-86383333D02*
X214392914Y-86478571D01*
X214392914Y-86478571D02*
X214440533Y-86573809D01*
X214488152Y-85145238D02*
X215154819Y-85145238D01*
X214488152Y-85573809D02*
X215011961Y-85573809D01*
X215011961Y-85573809D02*
X215107200Y-85526190D01*
X215107200Y-85526190D02*
X215154819Y-85430952D01*
X215154819Y-85430952D02*
X215154819Y-85288095D01*
X215154819Y-85288095D02*
X215107200Y-85192857D01*
X215107200Y-85192857D02*
X215059580Y-85145238D01*
X218825000Y-82441033D02*
X218891666Y-82441033D01*
X218891666Y-82441033D02*
X218958333Y-82474366D01*
X218958333Y-82474366D02*
X218991666Y-82507700D01*
X218991666Y-82507700D02*
X219025000Y-82574366D01*
X219025000Y-82574366D02*
X219058333Y-82707700D01*
X219058333Y-82707700D02*
X219058333Y-82874366D01*
X219058333Y-82874366D02*
X219025000Y-83007700D01*
X219025000Y-83007700D02*
X218991666Y-83074366D01*
X218991666Y-83074366D02*
X218958333Y-83107700D01*
X218958333Y-83107700D02*
X218891666Y-83141033D01*
X218891666Y-83141033D02*
X218825000Y-83141033D01*
X218825000Y-83141033D02*
X218758333Y-83107700D01*
X218758333Y-83107700D02*
X218725000Y-83074366D01*
X218725000Y-83074366D02*
X218691666Y-83007700D01*
X218691666Y-83007700D02*
X218658333Y-82874366D01*
X218658333Y-82874366D02*
X218658333Y-82707700D01*
X218658333Y-82707700D02*
X218691666Y-82574366D01*
X218691666Y-82574366D02*
X218725000Y-82507700D01*
X218725000Y-82507700D02*
X218758333Y-82474366D01*
X218758333Y-82474366D02*
X218825000Y-82441033D01*
X219358333Y-83074366D02*
X219391667Y-83107700D01*
X219391667Y-83107700D02*
X219358333Y-83141033D01*
X219358333Y-83141033D02*
X219325000Y-83107700D01*
X219325000Y-83107700D02*
X219358333Y-83074366D01*
X219358333Y-83074366D02*
X219358333Y-83141033D01*
X220058333Y-83141033D02*
X219658333Y-83141033D01*
X219858333Y-83141033D02*
X219858333Y-82441033D01*
X219858333Y-82441033D02*
X219791666Y-82541033D01*
X219791666Y-82541033D02*
X219725000Y-82607700D01*
X219725000Y-82607700D02*
X219658333Y-82641033D01*
X220658333Y-82674366D02*
X220658333Y-83141033D01*
X220358333Y-82674366D02*
X220358333Y-83041033D01*
X220358333Y-83041033D02*
X220391667Y-83107700D01*
X220391667Y-83107700D02*
X220458333Y-83141033D01*
X220458333Y-83141033D02*
X220558333Y-83141033D01*
X220558333Y-83141033D02*
X220625000Y-83107700D01*
X220625000Y-83107700D02*
X220658333Y-83074366D01*
X206880952Y-95816819D02*
X206309524Y-95816819D01*
X206595238Y-95816819D02*
X206595238Y-94816819D01*
X206595238Y-94816819D02*
X206500000Y-94959676D01*
X206500000Y-94959676D02*
X206404762Y-95054914D01*
X206404762Y-95054914D02*
X206309524Y-95102533D01*
X207500000Y-94816819D02*
X207595238Y-94816819D01*
X207595238Y-94816819D02*
X207690476Y-94864438D01*
X207690476Y-94864438D02*
X207738095Y-94912057D01*
X207738095Y-94912057D02*
X207785714Y-95007295D01*
X207785714Y-95007295D02*
X207833333Y-95197771D01*
X207833333Y-95197771D02*
X207833333Y-95435866D01*
X207833333Y-95435866D02*
X207785714Y-95626342D01*
X207785714Y-95626342D02*
X207738095Y-95721580D01*
X207738095Y-95721580D02*
X207690476Y-95769200D01*
X207690476Y-95769200D02*
X207595238Y-95816819D01*
X207595238Y-95816819D02*
X207500000Y-95816819D01*
X207500000Y-95816819D02*
X207404762Y-95769200D01*
X207404762Y-95769200D02*
X207357143Y-95721580D01*
X207357143Y-95721580D02*
X207309524Y-95626342D01*
X207309524Y-95626342D02*
X207261905Y-95435866D01*
X207261905Y-95435866D02*
X207261905Y-95197771D01*
X207261905Y-95197771D02*
X207309524Y-95007295D01*
X207309524Y-95007295D02*
X207357143Y-94912057D01*
X207357143Y-94912057D02*
X207404762Y-94864438D01*
X207404762Y-94864438D02*
X207500000Y-94816819D01*
X208452381Y-94816819D02*
X208547619Y-94816819D01*
X208547619Y-94816819D02*
X208642857Y-94864438D01*
X208642857Y-94864438D02*
X208690476Y-94912057D01*
X208690476Y-94912057D02*
X208738095Y-95007295D01*
X208738095Y-95007295D02*
X208785714Y-95197771D01*
X208785714Y-95197771D02*
X208785714Y-95435866D01*
X208785714Y-95435866D02*
X208738095Y-95626342D01*
X208738095Y-95626342D02*
X208690476Y-95721580D01*
X208690476Y-95721580D02*
X208642857Y-95769200D01*
X208642857Y-95769200D02*
X208547619Y-95816819D01*
X208547619Y-95816819D02*
X208452381Y-95816819D01*
X208452381Y-95816819D02*
X208357143Y-95769200D01*
X208357143Y-95769200D02*
X208309524Y-95721580D01*
X208309524Y-95721580D02*
X208261905Y-95626342D01*
X208261905Y-95626342D02*
X208214286Y-95435866D01*
X208214286Y-95435866D02*
X208214286Y-95197771D01*
X208214286Y-95197771D02*
X208261905Y-95007295D01*
X208261905Y-95007295D02*
X208309524Y-94912057D01*
X208309524Y-94912057D02*
X208357143Y-94864438D01*
X208357143Y-94864438D02*
X208452381Y-94816819D01*
X209214286Y-95150152D02*
X209214286Y-95816819D01*
X209214286Y-95245390D02*
X209261905Y-95197771D01*
X209261905Y-95197771D02*
X209357143Y-95150152D01*
X209357143Y-95150152D02*
X209500000Y-95150152D01*
X209500000Y-95150152D02*
X209595238Y-95197771D01*
X209595238Y-95197771D02*
X209642857Y-95293009D01*
X209642857Y-95293009D02*
X209642857Y-95816819D01*
X208352381Y-98534819D02*
X208447619Y-98534819D01*
X208447619Y-98534819D02*
X208542857Y-98582438D01*
X208542857Y-98582438D02*
X208590476Y-98630057D01*
X208590476Y-98630057D02*
X208638095Y-98725295D01*
X208638095Y-98725295D02*
X208685714Y-98915771D01*
X208685714Y-98915771D02*
X208685714Y-99153866D01*
X208685714Y-99153866D02*
X208638095Y-99344342D01*
X208638095Y-99344342D02*
X208590476Y-99439580D01*
X208590476Y-99439580D02*
X208542857Y-99487200D01*
X208542857Y-99487200D02*
X208447619Y-99534819D01*
X208447619Y-99534819D02*
X208352381Y-99534819D01*
X208352381Y-99534819D02*
X208257143Y-99487200D01*
X208257143Y-99487200D02*
X208209524Y-99439580D01*
X208209524Y-99439580D02*
X208161905Y-99344342D01*
X208161905Y-99344342D02*
X208114286Y-99153866D01*
X208114286Y-99153866D02*
X208114286Y-98915771D01*
X208114286Y-98915771D02*
X208161905Y-98725295D01*
X208161905Y-98725295D02*
X208209524Y-98630057D01*
X208209524Y-98630057D02*
X208257143Y-98582438D01*
X208257143Y-98582438D02*
X208352381Y-98534819D01*
X190388047Y-105313819D02*
X189911857Y-105313819D01*
X189911857Y-105313819D02*
X189864238Y-105790009D01*
X189864238Y-105790009D02*
X189911857Y-105742390D01*
X189911857Y-105742390D02*
X190007095Y-105694771D01*
X190007095Y-105694771D02*
X190245190Y-105694771D01*
X190245190Y-105694771D02*
X190340428Y-105742390D01*
X190340428Y-105742390D02*
X190388047Y-105790009D01*
X190388047Y-105790009D02*
X190435666Y-105885247D01*
X190435666Y-105885247D02*
X190435666Y-106123342D01*
X190435666Y-106123342D02*
X190388047Y-106218580D01*
X190388047Y-106218580D02*
X190340428Y-106266200D01*
X190340428Y-106266200D02*
X190245190Y-106313819D01*
X190245190Y-106313819D02*
X190007095Y-106313819D01*
X190007095Y-106313819D02*
X189911857Y-106266200D01*
X189911857Y-106266200D02*
X189864238Y-106218580D01*
X190864238Y-106218580D02*
X190911857Y-106266200D01*
X190911857Y-106266200D02*
X190864238Y-106313819D01*
X190864238Y-106313819D02*
X190816619Y-106266200D01*
X190816619Y-106266200D02*
X190864238Y-106218580D01*
X190864238Y-106218580D02*
X190864238Y-106313819D01*
X191864237Y-106313819D02*
X191292809Y-106313819D01*
X191578523Y-106313819D02*
X191578523Y-105313819D01*
X191578523Y-105313819D02*
X191483285Y-105456676D01*
X191483285Y-105456676D02*
X191388047Y-105551914D01*
X191388047Y-105551914D02*
X191292809Y-105599533D01*
X192292809Y-106313819D02*
X192292809Y-105313819D01*
X192388047Y-105932866D02*
X192673761Y-106313819D01*
X192673761Y-105647152D02*
X192292809Y-106028104D01*
X209019047Y-117554819D02*
X208542857Y-117554819D01*
X208542857Y-117554819D02*
X208495238Y-118031009D01*
X208495238Y-118031009D02*
X208542857Y-117983390D01*
X208542857Y-117983390D02*
X208638095Y-117935771D01*
X208638095Y-117935771D02*
X208876190Y-117935771D01*
X208876190Y-117935771D02*
X208971428Y-117983390D01*
X208971428Y-117983390D02*
X209019047Y-118031009D01*
X209019047Y-118031009D02*
X209066666Y-118126247D01*
X209066666Y-118126247D02*
X209066666Y-118364342D01*
X209066666Y-118364342D02*
X209019047Y-118459580D01*
X209019047Y-118459580D02*
X208971428Y-118507200D01*
X208971428Y-118507200D02*
X208876190Y-118554819D01*
X208876190Y-118554819D02*
X208638095Y-118554819D01*
X208638095Y-118554819D02*
X208542857Y-118507200D01*
X208542857Y-118507200D02*
X208495238Y-118459580D01*
X209495238Y-118459580D02*
X209542857Y-118507200D01*
X209542857Y-118507200D02*
X209495238Y-118554819D01*
X209495238Y-118554819D02*
X209447619Y-118507200D01*
X209447619Y-118507200D02*
X209495238Y-118459580D01*
X209495238Y-118459580D02*
X209495238Y-118554819D01*
X210495237Y-118554819D02*
X209923809Y-118554819D01*
X210209523Y-118554819D02*
X210209523Y-117554819D01*
X210209523Y-117554819D02*
X210114285Y-117697676D01*
X210114285Y-117697676D02*
X210019047Y-117792914D01*
X210019047Y-117792914D02*
X209923809Y-117840533D01*
X210923809Y-118554819D02*
X210923809Y-117554819D01*
X211019047Y-118173866D02*
X211304761Y-118554819D01*
X211304761Y-117888152D02*
X210923809Y-118269104D01*
X175991666Y-95716033D02*
X175591666Y-95716033D01*
X175791666Y-95716033D02*
X175791666Y-95016033D01*
X175791666Y-95016033D02*
X175724999Y-95116033D01*
X175724999Y-95116033D02*
X175658333Y-95182700D01*
X175658333Y-95182700D02*
X175591666Y-95216033D01*
X176291666Y-95716033D02*
X176291666Y-95016033D01*
X176358333Y-95449366D02*
X176558333Y-95716033D01*
X176558333Y-95249366D02*
X176291666Y-95516033D01*
X177969047Y-83054819D02*
X177492857Y-83054819D01*
X177492857Y-83054819D02*
X177445238Y-83531009D01*
X177445238Y-83531009D02*
X177492857Y-83483390D01*
X177492857Y-83483390D02*
X177588095Y-83435771D01*
X177588095Y-83435771D02*
X177826190Y-83435771D01*
X177826190Y-83435771D02*
X177921428Y-83483390D01*
X177921428Y-83483390D02*
X177969047Y-83531009D01*
X177969047Y-83531009D02*
X178016666Y-83626247D01*
X178016666Y-83626247D02*
X178016666Y-83864342D01*
X178016666Y-83864342D02*
X177969047Y-83959580D01*
X177969047Y-83959580D02*
X177921428Y-84007200D01*
X177921428Y-84007200D02*
X177826190Y-84054819D01*
X177826190Y-84054819D02*
X177588095Y-84054819D01*
X177588095Y-84054819D02*
X177492857Y-84007200D01*
X177492857Y-84007200D02*
X177445238Y-83959580D01*
X178445238Y-83959580D02*
X178492857Y-84007200D01*
X178492857Y-84007200D02*
X178445238Y-84054819D01*
X178445238Y-84054819D02*
X178397619Y-84007200D01*
X178397619Y-84007200D02*
X178445238Y-83959580D01*
X178445238Y-83959580D02*
X178445238Y-84054819D01*
X179445237Y-84054819D02*
X178873809Y-84054819D01*
X179159523Y-84054819D02*
X179159523Y-83054819D01*
X179159523Y-83054819D02*
X179064285Y-83197676D01*
X179064285Y-83197676D02*
X178969047Y-83292914D01*
X178969047Y-83292914D02*
X178873809Y-83340533D01*
X179873809Y-84054819D02*
X179873809Y-83054819D01*
X179969047Y-83673866D02*
X180254761Y-84054819D01*
X180254761Y-83388152D02*
X179873809Y-83769104D01*
X215254819Y-81042857D02*
X215254819Y-81614285D01*
X215254819Y-81328571D02*
X214254819Y-81328571D01*
X214254819Y-81328571D02*
X214397676Y-81423809D01*
X214397676Y-81423809D02*
X214492914Y-81519047D01*
X214492914Y-81519047D02*
X214540533Y-81614285D01*
X214254819Y-80423809D02*
X214254819Y-80328571D01*
X214254819Y-80328571D02*
X214302438Y-80233333D01*
X214302438Y-80233333D02*
X214350057Y-80185714D01*
X214350057Y-80185714D02*
X214445295Y-80138095D01*
X214445295Y-80138095D02*
X214635771Y-80090476D01*
X214635771Y-80090476D02*
X214873866Y-80090476D01*
X214873866Y-80090476D02*
X215064342Y-80138095D01*
X215064342Y-80138095D02*
X215159580Y-80185714D01*
X215159580Y-80185714D02*
X215207200Y-80233333D01*
X215207200Y-80233333D02*
X215254819Y-80328571D01*
X215254819Y-80328571D02*
X215254819Y-80423809D01*
X215254819Y-80423809D02*
X215207200Y-80519047D01*
X215207200Y-80519047D02*
X215159580Y-80566666D01*
X215159580Y-80566666D02*
X215064342Y-80614285D01*
X215064342Y-80614285D02*
X214873866Y-80661904D01*
X214873866Y-80661904D02*
X214635771Y-80661904D01*
X214635771Y-80661904D02*
X214445295Y-80614285D01*
X214445295Y-80614285D02*
X214350057Y-80566666D01*
X214350057Y-80566666D02*
X214302438Y-80519047D01*
X214302438Y-80519047D02*
X214254819Y-80423809D01*
X214588152Y-79233333D02*
X215254819Y-79233333D01*
X214588152Y-79661904D02*
X215111961Y-79661904D01*
X215111961Y-79661904D02*
X215207200Y-79614285D01*
X215207200Y-79614285D02*
X215254819Y-79519047D01*
X215254819Y-79519047D02*
X215254819Y-79376190D01*
X215254819Y-79376190D02*
X215207200Y-79280952D01*
X215207200Y-79280952D02*
X215159580Y-79233333D01*
X206823809Y-96688152D02*
X206823809Y-97354819D01*
X206585714Y-96307200D02*
X206347619Y-97021485D01*
X206347619Y-97021485D02*
X206966666Y-97021485D01*
X207347619Y-97259580D02*
X207395238Y-97307200D01*
X207395238Y-97307200D02*
X207347619Y-97354819D01*
X207347619Y-97354819D02*
X207300000Y-97307200D01*
X207300000Y-97307200D02*
X207347619Y-97259580D01*
X207347619Y-97259580D02*
X207347619Y-97354819D01*
X207728571Y-96354819D02*
X208395237Y-96354819D01*
X208395237Y-96354819D02*
X207966666Y-97354819D01*
X209204761Y-96688152D02*
X209204761Y-97354819D01*
X208776190Y-96688152D02*
X208776190Y-97211961D01*
X208776190Y-97211961D02*
X208823809Y-97307200D01*
X208823809Y-97307200D02*
X208919047Y-97354819D01*
X208919047Y-97354819D02*
X209061904Y-97354819D01*
X209061904Y-97354819D02*
X209157142Y-97307200D01*
X209157142Y-97307200D02*
X209204761Y-97259580D01*
X213432142Y-90654819D02*
X212860714Y-90654819D01*
X213146428Y-90654819D02*
X213146428Y-89654819D01*
X213146428Y-89654819D02*
X213051190Y-89797676D01*
X213051190Y-89797676D02*
X212955952Y-89892914D01*
X212955952Y-89892914D02*
X212860714Y-89940533D01*
X214051190Y-89654819D02*
X214146428Y-89654819D01*
X214146428Y-89654819D02*
X214241666Y-89702438D01*
X214241666Y-89702438D02*
X214289285Y-89750057D01*
X214289285Y-89750057D02*
X214336904Y-89845295D01*
X214336904Y-89845295D02*
X214384523Y-90035771D01*
X214384523Y-90035771D02*
X214384523Y-90273866D01*
X214384523Y-90273866D02*
X214336904Y-90464342D01*
X214336904Y-90464342D02*
X214289285Y-90559580D01*
X214289285Y-90559580D02*
X214241666Y-90607200D01*
X214241666Y-90607200D02*
X214146428Y-90654819D01*
X214146428Y-90654819D02*
X214051190Y-90654819D01*
X214051190Y-90654819D02*
X213955952Y-90607200D01*
X213955952Y-90607200D02*
X213908333Y-90559580D01*
X213908333Y-90559580D02*
X213860714Y-90464342D01*
X213860714Y-90464342D02*
X213813095Y-90273866D01*
X213813095Y-90273866D02*
X213813095Y-90035771D01*
X213813095Y-90035771D02*
X213860714Y-89845295D01*
X213860714Y-89845295D02*
X213908333Y-89750057D01*
X213908333Y-89750057D02*
X213955952Y-89702438D01*
X213955952Y-89702438D02*
X214051190Y-89654819D01*
X215241666Y-89988152D02*
X215241666Y-90654819D01*
X214813095Y-89988152D02*
X214813095Y-90511961D01*
X214813095Y-90511961D02*
X214860714Y-90607200D01*
X214860714Y-90607200D02*
X214955952Y-90654819D01*
X214955952Y-90654819D02*
X215098809Y-90654819D01*
X215098809Y-90654819D02*
X215194047Y-90607200D01*
X215194047Y-90607200D02*
X215241666Y-90559580D01*
D10*
X213623884Y-101495752D02*
X214385789Y-101781466D01*
X214385789Y-101781466D02*
X213623884Y-102067180D01*
X215338169Y-101162419D02*
X214861979Y-101162419D01*
X214861979Y-101162419D02*
X214814360Y-101638609D01*
X214814360Y-101638609D02*
X214861979Y-101590990D01*
X214861979Y-101590990D02*
X214957217Y-101543371D01*
X214957217Y-101543371D02*
X215195312Y-101543371D01*
X215195312Y-101543371D02*
X215290550Y-101590990D01*
X215290550Y-101590990D02*
X215338169Y-101638609D01*
X215338169Y-101638609D02*
X215385788Y-101733847D01*
X215385788Y-101733847D02*
X215385788Y-101971942D01*
X215385788Y-101971942D02*
X215338169Y-102067180D01*
X215338169Y-102067180D02*
X215290550Y-102114800D01*
X215290550Y-102114800D02*
X215195312Y-102162419D01*
X215195312Y-102162419D02*
X214957217Y-102162419D01*
X214957217Y-102162419D02*
X214861979Y-102114800D01*
X214861979Y-102114800D02*
X214814360Y-102067180D01*
X215671503Y-101162419D02*
X216004836Y-102162419D01*
X216004836Y-102162419D02*
X216338169Y-101162419D01*
X214347693Y-98710038D02*
X214252455Y-98662419D01*
X214252455Y-98662419D02*
X214109598Y-98662419D01*
X214109598Y-98662419D02*
X213966741Y-98710038D01*
X213966741Y-98710038D02*
X213871503Y-98805276D01*
X213871503Y-98805276D02*
X213823884Y-98900514D01*
X213823884Y-98900514D02*
X213776265Y-99090990D01*
X213776265Y-99090990D02*
X213776265Y-99233847D01*
X213776265Y-99233847D02*
X213823884Y-99424323D01*
X213823884Y-99424323D02*
X213871503Y-99519561D01*
X213871503Y-99519561D02*
X213966741Y-99614800D01*
X213966741Y-99614800D02*
X214109598Y-99662419D01*
X214109598Y-99662419D02*
X214204836Y-99662419D01*
X214204836Y-99662419D02*
X214347693Y-99614800D01*
X214347693Y-99614800D02*
X214395312Y-99567180D01*
X214395312Y-99567180D02*
X214395312Y-99233847D01*
X214395312Y-99233847D02*
X214204836Y-99233847D01*
X214823884Y-99662419D02*
X214823884Y-98662419D01*
X214823884Y-98662419D02*
X215395312Y-99662419D01*
X215395312Y-99662419D02*
X215395312Y-98662419D01*
X215871503Y-99662419D02*
X215871503Y-98662419D01*
X215871503Y-98662419D02*
X216109598Y-98662419D01*
X216109598Y-98662419D02*
X216252455Y-98710038D01*
X216252455Y-98710038D02*
X216347693Y-98805276D01*
X216347693Y-98805276D02*
X216395312Y-98900514D01*
X216395312Y-98900514D02*
X216442931Y-99090990D01*
X216442931Y-99090990D02*
X216442931Y-99233847D01*
X216442931Y-99233847D02*
X216395312Y-99424323D01*
X216395312Y-99424323D02*
X216347693Y-99519561D01*
X216347693Y-99519561D02*
X216252455Y-99614800D01*
X216252455Y-99614800D02*
X216109598Y-99662419D01*
X216109598Y-99662419D02*
X215871503Y-99662419D01*
X220481466Y-106376115D02*
X220481466Y-105614211D01*
X220862419Y-105995163D02*
X220100514Y-105995163D01*
X214610789Y-96365752D02*
X213848884Y-96651466D01*
X213848884Y-96651466D02*
X214610789Y-96937180D01*
X215563169Y-96032419D02*
X215086979Y-96032419D01*
X215086979Y-96032419D02*
X215039360Y-96508609D01*
X215039360Y-96508609D02*
X215086979Y-96460990D01*
X215086979Y-96460990D02*
X215182217Y-96413371D01*
X215182217Y-96413371D02*
X215420312Y-96413371D01*
X215420312Y-96413371D02*
X215515550Y-96460990D01*
X215515550Y-96460990D02*
X215563169Y-96508609D01*
X215563169Y-96508609D02*
X215610788Y-96603847D01*
X215610788Y-96603847D02*
X215610788Y-96841942D01*
X215610788Y-96841942D02*
X215563169Y-96937180D01*
X215563169Y-96937180D02*
X215515550Y-96984800D01*
X215515550Y-96984800D02*
X215420312Y-97032419D01*
X215420312Y-97032419D02*
X215182217Y-97032419D01*
X215182217Y-97032419D02*
X215086979Y-96984800D01*
X215086979Y-96984800D02*
X215039360Y-96937180D01*
X215896503Y-96032419D02*
X216229836Y-97032419D01*
X216229836Y-97032419D02*
X216563169Y-96032419D01*
D13*
X172984047Y-92254819D02*
X172507857Y-92254819D01*
X172507857Y-92254819D02*
X172460238Y-92731009D01*
X172460238Y-92731009D02*
X172507857Y-92683390D01*
X172507857Y-92683390D02*
X172603095Y-92635771D01*
X172603095Y-92635771D02*
X172841190Y-92635771D01*
X172841190Y-92635771D02*
X172936428Y-92683390D01*
X172936428Y-92683390D02*
X172984047Y-92731009D01*
X172984047Y-92731009D02*
X173031666Y-92826247D01*
X173031666Y-92826247D02*
X173031666Y-93064342D01*
X173031666Y-93064342D02*
X172984047Y-93159580D01*
X172984047Y-93159580D02*
X172936428Y-93207200D01*
X172936428Y-93207200D02*
X172841190Y-93254819D01*
X172841190Y-93254819D02*
X172603095Y-93254819D01*
X172603095Y-93254819D02*
X172507857Y-93207200D01*
X172507857Y-93207200D02*
X172460238Y-93159580D01*
X173460238Y-93159580D02*
X173507857Y-93207200D01*
X173507857Y-93207200D02*
X173460238Y-93254819D01*
X173460238Y-93254819D02*
X173412619Y-93207200D01*
X173412619Y-93207200D02*
X173460238Y-93159580D01*
X173460238Y-93159580D02*
X173460238Y-93254819D01*
X174460237Y-93254819D02*
X173888809Y-93254819D01*
X174174523Y-93254819D02*
X174174523Y-92254819D01*
X174174523Y-92254819D02*
X174079285Y-92397676D01*
X174079285Y-92397676D02*
X173984047Y-92492914D01*
X173984047Y-92492914D02*
X173888809Y-92540533D01*
X174888809Y-93254819D02*
X174888809Y-92254819D01*
X174984047Y-92873866D02*
X175269761Y-93254819D01*
X175269761Y-92588152D02*
X174888809Y-92969104D01*
X206780952Y-92716819D02*
X206209524Y-92716819D01*
X206495238Y-92716819D02*
X206495238Y-91716819D01*
X206495238Y-91716819D02*
X206400000Y-91859676D01*
X206400000Y-91859676D02*
X206304762Y-91954914D01*
X206304762Y-91954914D02*
X206209524Y-92002533D01*
X207400000Y-91716819D02*
X207495238Y-91716819D01*
X207495238Y-91716819D02*
X207590476Y-91764438D01*
X207590476Y-91764438D02*
X207638095Y-91812057D01*
X207638095Y-91812057D02*
X207685714Y-91907295D01*
X207685714Y-91907295D02*
X207733333Y-92097771D01*
X207733333Y-92097771D02*
X207733333Y-92335866D01*
X207733333Y-92335866D02*
X207685714Y-92526342D01*
X207685714Y-92526342D02*
X207638095Y-92621580D01*
X207638095Y-92621580D02*
X207590476Y-92669200D01*
X207590476Y-92669200D02*
X207495238Y-92716819D01*
X207495238Y-92716819D02*
X207400000Y-92716819D01*
X207400000Y-92716819D02*
X207304762Y-92669200D01*
X207304762Y-92669200D02*
X207257143Y-92621580D01*
X207257143Y-92621580D02*
X207209524Y-92526342D01*
X207209524Y-92526342D02*
X207161905Y-92335866D01*
X207161905Y-92335866D02*
X207161905Y-92097771D01*
X207161905Y-92097771D02*
X207209524Y-91907295D01*
X207209524Y-91907295D02*
X207257143Y-91812057D01*
X207257143Y-91812057D02*
X207304762Y-91764438D01*
X207304762Y-91764438D02*
X207400000Y-91716819D01*
X208352381Y-91716819D02*
X208447619Y-91716819D01*
X208447619Y-91716819D02*
X208542857Y-91764438D01*
X208542857Y-91764438D02*
X208590476Y-91812057D01*
X208590476Y-91812057D02*
X208638095Y-91907295D01*
X208638095Y-91907295D02*
X208685714Y-92097771D01*
X208685714Y-92097771D02*
X208685714Y-92335866D01*
X208685714Y-92335866D02*
X208638095Y-92526342D01*
X208638095Y-92526342D02*
X208590476Y-92621580D01*
X208590476Y-92621580D02*
X208542857Y-92669200D01*
X208542857Y-92669200D02*
X208447619Y-92716819D01*
X208447619Y-92716819D02*
X208352381Y-92716819D01*
X208352381Y-92716819D02*
X208257143Y-92669200D01*
X208257143Y-92669200D02*
X208209524Y-92621580D01*
X208209524Y-92621580D02*
X208161905Y-92526342D01*
X208161905Y-92526342D02*
X208114286Y-92335866D01*
X208114286Y-92335866D02*
X208114286Y-92097771D01*
X208114286Y-92097771D02*
X208161905Y-91907295D01*
X208161905Y-91907295D02*
X208209524Y-91812057D01*
X208209524Y-91812057D02*
X208257143Y-91764438D01*
X208257143Y-91764438D02*
X208352381Y-91716819D01*
X209114286Y-92050152D02*
X209114286Y-92716819D01*
X209114286Y-92145390D02*
X209161905Y-92097771D01*
X209161905Y-92097771D02*
X209257143Y-92050152D01*
X209257143Y-92050152D02*
X209400000Y-92050152D01*
X209400000Y-92050152D02*
X209495238Y-92097771D01*
X209495238Y-92097771D02*
X209542857Y-92193009D01*
X209542857Y-92193009D02*
X209542857Y-92716819D01*
D16*
X174732380Y-87213842D02*
X174913809Y-87274318D01*
X174913809Y-87274318D02*
X175216190Y-87274318D01*
X175216190Y-87274318D02*
X175337142Y-87213842D01*
X175337142Y-87213842D02*
X175397618Y-87153365D01*
X175397618Y-87153365D02*
X175458095Y-87032413D01*
X175458095Y-87032413D02*
X175458095Y-86911461D01*
X175458095Y-86911461D02*
X175397618Y-86790508D01*
X175397618Y-86790508D02*
X175337142Y-86730032D01*
X175337142Y-86730032D02*
X175216190Y-86669556D01*
X175216190Y-86669556D02*
X174974285Y-86609080D01*
X174974285Y-86609080D02*
X174853333Y-86548603D01*
X174853333Y-86548603D02*
X174792856Y-86488127D01*
X174792856Y-86488127D02*
X174732380Y-86367175D01*
X174732380Y-86367175D02*
X174732380Y-86246222D01*
X174732380Y-86246222D02*
X174792856Y-86125270D01*
X174792856Y-86125270D02*
X174853333Y-86064794D01*
X174853333Y-86064794D02*
X174974285Y-86004318D01*
X174974285Y-86004318D02*
X175276666Y-86004318D01*
X175276666Y-86004318D02*
X175458095Y-86064794D01*
X175941904Y-86125270D02*
X176002380Y-86064794D01*
X176002380Y-86064794D02*
X176123333Y-86004318D01*
X176123333Y-86004318D02*
X176425714Y-86004318D01*
X176425714Y-86004318D02*
X176546666Y-86064794D01*
X176546666Y-86064794D02*
X176607142Y-86125270D01*
X176607142Y-86125270D02*
X176667619Y-86246222D01*
X176667619Y-86246222D02*
X176667619Y-86367175D01*
X176667619Y-86367175D02*
X176607142Y-86548603D01*
X176607142Y-86548603D02*
X175881428Y-87274318D01*
X175881428Y-87274318D02*
X176667619Y-87274318D01*
D13*
X203612819Y-88330952D02*
X203612819Y-88807142D01*
X203612819Y-88807142D02*
X204089009Y-88854761D01*
X204089009Y-88854761D02*
X204041390Y-88807142D01*
X204041390Y-88807142D02*
X203993771Y-88711904D01*
X203993771Y-88711904D02*
X203993771Y-88473809D01*
X203993771Y-88473809D02*
X204041390Y-88378571D01*
X204041390Y-88378571D02*
X204089009Y-88330952D01*
X204089009Y-88330952D02*
X204184247Y-88283333D01*
X204184247Y-88283333D02*
X204422342Y-88283333D01*
X204422342Y-88283333D02*
X204517580Y-88330952D01*
X204517580Y-88330952D02*
X204565200Y-88378571D01*
X204565200Y-88378571D02*
X204612819Y-88473809D01*
X204612819Y-88473809D02*
X204612819Y-88711904D01*
X204612819Y-88711904D02*
X204565200Y-88807142D01*
X204565200Y-88807142D02*
X204517580Y-88854761D01*
X204517580Y-87854761D02*
X204565200Y-87807142D01*
X204565200Y-87807142D02*
X204612819Y-87854761D01*
X204612819Y-87854761D02*
X204565200Y-87902380D01*
X204565200Y-87902380D02*
X204517580Y-87854761D01*
X204517580Y-87854761D02*
X204612819Y-87854761D01*
X204612819Y-86854762D02*
X204612819Y-87426190D01*
X204612819Y-87140476D02*
X203612819Y-87140476D01*
X203612819Y-87140476D02*
X203755676Y-87235714D01*
X203755676Y-87235714D02*
X203850914Y-87330952D01*
X203850914Y-87330952D02*
X203898533Y-87426190D01*
X204612819Y-86426190D02*
X203612819Y-86426190D01*
X204231866Y-86330952D02*
X204612819Y-86045238D01*
X203946152Y-86045238D02*
X204327104Y-86426190D01*
X209954819Y-107485714D02*
X209954819Y-108057142D01*
X209954819Y-107771428D02*
X208954819Y-107771428D01*
X208954819Y-107771428D02*
X209097676Y-107866666D01*
X209097676Y-107866666D02*
X209192914Y-107961904D01*
X209192914Y-107961904D02*
X209240533Y-108057142D01*
X209954819Y-107057142D02*
X208954819Y-107057142D01*
X208954819Y-107057142D02*
X209669104Y-106723809D01*
X209669104Y-106723809D02*
X208954819Y-106390476D01*
X208954819Y-106390476D02*
X209954819Y-106390476D01*
X177919047Y-80754819D02*
X177442857Y-80754819D01*
X177442857Y-80754819D02*
X177395238Y-81231009D01*
X177395238Y-81231009D02*
X177442857Y-81183390D01*
X177442857Y-81183390D02*
X177538095Y-81135771D01*
X177538095Y-81135771D02*
X177776190Y-81135771D01*
X177776190Y-81135771D02*
X177871428Y-81183390D01*
X177871428Y-81183390D02*
X177919047Y-81231009D01*
X177919047Y-81231009D02*
X177966666Y-81326247D01*
X177966666Y-81326247D02*
X177966666Y-81564342D01*
X177966666Y-81564342D02*
X177919047Y-81659580D01*
X177919047Y-81659580D02*
X177871428Y-81707200D01*
X177871428Y-81707200D02*
X177776190Y-81754819D01*
X177776190Y-81754819D02*
X177538095Y-81754819D01*
X177538095Y-81754819D02*
X177442857Y-81707200D01*
X177442857Y-81707200D02*
X177395238Y-81659580D01*
X178395238Y-81659580D02*
X178442857Y-81707200D01*
X178442857Y-81707200D02*
X178395238Y-81754819D01*
X178395238Y-81754819D02*
X178347619Y-81707200D01*
X178347619Y-81707200D02*
X178395238Y-81659580D01*
X178395238Y-81659580D02*
X178395238Y-81754819D01*
X179395237Y-81754819D02*
X178823809Y-81754819D01*
X179109523Y-81754819D02*
X179109523Y-80754819D01*
X179109523Y-80754819D02*
X179014285Y-80897676D01*
X179014285Y-80897676D02*
X178919047Y-80992914D01*
X178919047Y-80992914D02*
X178823809Y-81040533D01*
X179823809Y-81754819D02*
X179823809Y-80754819D01*
X179919047Y-81373866D02*
X180204761Y-81754819D01*
X180204761Y-81088152D02*
X179823809Y-81469104D01*
X195054819Y-82942857D02*
X195054819Y-83514285D01*
X195054819Y-83228571D02*
X194054819Y-83228571D01*
X194054819Y-83228571D02*
X194197676Y-83323809D01*
X194197676Y-83323809D02*
X194292914Y-83419047D01*
X194292914Y-83419047D02*
X194340533Y-83514285D01*
X194054819Y-82323809D02*
X194054819Y-82228571D01*
X194054819Y-82228571D02*
X194102438Y-82133333D01*
X194102438Y-82133333D02*
X194150057Y-82085714D01*
X194150057Y-82085714D02*
X194245295Y-82038095D01*
X194245295Y-82038095D02*
X194435771Y-81990476D01*
X194435771Y-81990476D02*
X194673866Y-81990476D01*
X194673866Y-81990476D02*
X194864342Y-82038095D01*
X194864342Y-82038095D02*
X194959580Y-82085714D01*
X194959580Y-82085714D02*
X195007200Y-82133333D01*
X195007200Y-82133333D02*
X195054819Y-82228571D01*
X195054819Y-82228571D02*
X195054819Y-82323809D01*
X195054819Y-82323809D02*
X195007200Y-82419047D01*
X195007200Y-82419047D02*
X194959580Y-82466666D01*
X194959580Y-82466666D02*
X194864342Y-82514285D01*
X194864342Y-82514285D02*
X194673866Y-82561904D01*
X194673866Y-82561904D02*
X194435771Y-82561904D01*
X194435771Y-82561904D02*
X194245295Y-82514285D01*
X194245295Y-82514285D02*
X194150057Y-82466666D01*
X194150057Y-82466666D02*
X194102438Y-82419047D01*
X194102438Y-82419047D02*
X194054819Y-82323809D01*
X194388152Y-81133333D02*
X195054819Y-81133333D01*
X194388152Y-81561904D02*
X194911961Y-81561904D01*
X194911961Y-81561904D02*
X195007200Y-81514285D01*
X195007200Y-81514285D02*
X195054819Y-81419047D01*
X195054819Y-81419047D02*
X195054819Y-81276190D01*
X195054819Y-81276190D02*
X195007200Y-81180952D01*
X195007200Y-81180952D02*
X194959580Y-81133333D01*
X184416666Y-95716033D02*
X184016666Y-95716033D01*
X184216666Y-95716033D02*
X184216666Y-95016033D01*
X184216666Y-95016033D02*
X184149999Y-95116033D01*
X184149999Y-95116033D02*
X184083333Y-95182700D01*
X184083333Y-95182700D02*
X184016666Y-95216033D01*
X184716666Y-95716033D02*
X184716666Y-95016033D01*
X184783333Y-95449366D02*
X184983333Y-95716033D01*
X184983333Y-95249366D02*
X184716666Y-95516033D01*
X206723809Y-93488152D02*
X206723809Y-94154819D01*
X206485714Y-93107200D02*
X206247619Y-93821485D01*
X206247619Y-93821485D02*
X206866666Y-93821485D01*
X207247619Y-94059580D02*
X207295238Y-94107200D01*
X207295238Y-94107200D02*
X207247619Y-94154819D01*
X207247619Y-94154819D02*
X207200000Y-94107200D01*
X207200000Y-94107200D02*
X207247619Y-94059580D01*
X207247619Y-94059580D02*
X207247619Y-94154819D01*
X207628571Y-93154819D02*
X208295237Y-93154819D01*
X208295237Y-93154819D02*
X207866666Y-94154819D01*
X209104761Y-93488152D02*
X209104761Y-94154819D01*
X208676190Y-93488152D02*
X208676190Y-94011961D01*
X208676190Y-94011961D02*
X208723809Y-94107200D01*
X208723809Y-94107200D02*
X208819047Y-94154819D01*
X208819047Y-94154819D02*
X208961904Y-94154819D01*
X208961904Y-94154819D02*
X209057142Y-94107200D01*
X209057142Y-94107200D02*
X209104761Y-94059580D01*
X183825000Y-81841033D02*
X183425000Y-81841033D01*
X183625000Y-81841033D02*
X183625000Y-81141033D01*
X183625000Y-81141033D02*
X183558333Y-81241033D01*
X183558333Y-81241033D02*
X183491667Y-81307700D01*
X183491667Y-81307700D02*
X183425000Y-81341033D01*
X184258334Y-81141033D02*
X184325000Y-81141033D01*
X184325000Y-81141033D02*
X184391667Y-81174366D01*
X184391667Y-81174366D02*
X184425000Y-81207700D01*
X184425000Y-81207700D02*
X184458334Y-81274366D01*
X184458334Y-81274366D02*
X184491667Y-81407700D01*
X184491667Y-81407700D02*
X184491667Y-81574366D01*
X184491667Y-81574366D02*
X184458334Y-81707700D01*
X184458334Y-81707700D02*
X184425000Y-81774366D01*
X184425000Y-81774366D02*
X184391667Y-81807700D01*
X184391667Y-81807700D02*
X184325000Y-81841033D01*
X184325000Y-81841033D02*
X184258334Y-81841033D01*
X184258334Y-81841033D02*
X184191667Y-81807700D01*
X184191667Y-81807700D02*
X184158334Y-81774366D01*
X184158334Y-81774366D02*
X184125000Y-81707700D01*
X184125000Y-81707700D02*
X184091667Y-81574366D01*
X184091667Y-81574366D02*
X184091667Y-81407700D01*
X184091667Y-81407700D02*
X184125000Y-81274366D01*
X184125000Y-81274366D02*
X184158334Y-81207700D01*
X184158334Y-81207700D02*
X184191667Y-81174366D01*
X184191667Y-81174366D02*
X184258334Y-81141033D01*
X185091667Y-81374366D02*
X185091667Y-81841033D01*
X184791667Y-81374366D02*
X184791667Y-81741033D01*
X184791667Y-81741033D02*
X184825001Y-81807700D01*
X184825001Y-81807700D02*
X184891667Y-81841033D01*
X184891667Y-81841033D02*
X184991667Y-81841033D01*
X184991667Y-81841033D02*
X185058334Y-81807700D01*
X185058334Y-81807700D02*
X185091667Y-81774366D01*
X208352381Y-100104819D02*
X208447619Y-100104819D01*
X208447619Y-100104819D02*
X208542857Y-100152438D01*
X208542857Y-100152438D02*
X208590476Y-100200057D01*
X208590476Y-100200057D02*
X208638095Y-100295295D01*
X208638095Y-100295295D02*
X208685714Y-100485771D01*
X208685714Y-100485771D02*
X208685714Y-100723866D01*
X208685714Y-100723866D02*
X208638095Y-100914342D01*
X208638095Y-100914342D02*
X208590476Y-101009580D01*
X208590476Y-101009580D02*
X208542857Y-101057200D01*
X208542857Y-101057200D02*
X208447619Y-101104819D01*
X208447619Y-101104819D02*
X208352381Y-101104819D01*
X208352381Y-101104819D02*
X208257143Y-101057200D01*
X208257143Y-101057200D02*
X208209524Y-101009580D01*
X208209524Y-101009580D02*
X208161905Y-100914342D01*
X208161905Y-100914342D02*
X208114286Y-100723866D01*
X208114286Y-100723866D02*
X208114286Y-100485771D01*
X208114286Y-100485771D02*
X208161905Y-100295295D01*
X208161905Y-100295295D02*
X208209524Y-100200057D01*
X208209524Y-100200057D02*
X208257143Y-100152438D01*
X208257143Y-100152438D02*
X208352381Y-100104819D01*
X214154819Y-84689285D02*
X214154819Y-84594047D01*
X214154819Y-84594047D02*
X214202438Y-84498809D01*
X214202438Y-84498809D02*
X214250057Y-84451190D01*
X214250057Y-84451190D02*
X214345295Y-84403571D01*
X214345295Y-84403571D02*
X214535771Y-84355952D01*
X214535771Y-84355952D02*
X214773866Y-84355952D01*
X214773866Y-84355952D02*
X214964342Y-84403571D01*
X214964342Y-84403571D02*
X215059580Y-84451190D01*
X215059580Y-84451190D02*
X215107200Y-84498809D01*
X215107200Y-84498809D02*
X215154819Y-84594047D01*
X215154819Y-84594047D02*
X215154819Y-84689285D01*
X215154819Y-84689285D02*
X215107200Y-84784523D01*
X215107200Y-84784523D02*
X215059580Y-84832142D01*
X215059580Y-84832142D02*
X214964342Y-84879761D01*
X214964342Y-84879761D02*
X214773866Y-84927380D01*
X214773866Y-84927380D02*
X214535771Y-84927380D01*
X214535771Y-84927380D02*
X214345295Y-84879761D01*
X214345295Y-84879761D02*
X214250057Y-84832142D01*
X214250057Y-84832142D02*
X214202438Y-84784523D01*
X214202438Y-84784523D02*
X214154819Y-84689285D01*
X215059580Y-83927380D02*
X215107200Y-83879761D01*
X215107200Y-83879761D02*
X215154819Y-83927380D01*
X215154819Y-83927380D02*
X215107200Y-83974999D01*
X215107200Y-83974999D02*
X215059580Y-83927380D01*
X215059580Y-83927380D02*
X215154819Y-83927380D01*
X215154819Y-82927381D02*
X215154819Y-83498809D01*
X215154819Y-83213095D02*
X214154819Y-83213095D01*
X214154819Y-83213095D02*
X214297676Y-83308333D01*
X214297676Y-83308333D02*
X214392914Y-83403571D01*
X214392914Y-83403571D02*
X214440533Y-83498809D01*
X214488152Y-82070238D02*
X215154819Y-82070238D01*
X214488152Y-82498809D02*
X215011961Y-82498809D01*
X215011961Y-82498809D02*
X215107200Y-82451190D01*
X215107200Y-82451190D02*
X215154819Y-82355952D01*
X215154819Y-82355952D02*
X215154819Y-82213095D01*
X215154819Y-82213095D02*
X215107200Y-82117857D01*
X215107200Y-82117857D02*
X215059580Y-82070238D01*
X209188152Y-104776190D02*
X209854819Y-104776190D01*
X208807200Y-105014285D02*
X209521485Y-105252380D01*
X209521485Y-105252380D02*
X209521485Y-104633333D01*
X209759580Y-104252380D02*
X209807200Y-104204761D01*
X209807200Y-104204761D02*
X209854819Y-104252380D01*
X209854819Y-104252380D02*
X209807200Y-104299999D01*
X209807200Y-104299999D02*
X209759580Y-104252380D01*
X209759580Y-104252380D02*
X209854819Y-104252380D01*
X208854819Y-103871428D02*
X208854819Y-103204762D01*
X208854819Y-103204762D02*
X209854819Y-103633333D01*
X209188152Y-102395238D02*
X209854819Y-102395238D01*
X209188152Y-102823809D02*
X209711961Y-102823809D01*
X209711961Y-102823809D02*
X209807200Y-102776190D01*
X209807200Y-102776190D02*
X209854819Y-102680952D01*
X209854819Y-102680952D02*
X209854819Y-102538095D01*
X209854819Y-102538095D02*
X209807200Y-102442857D01*
X209807200Y-102442857D02*
X209759580Y-102395238D01*
D15*
%TO.C,R15*%
X191637258Y-113422500D02*
X191162742Y-113422500D01*
X191637258Y-112377500D02*
X191162742Y-112377500D01*
D17*
%TO.C,Q1*%
X192860000Y-115250000D02*
X192860000Y-115950000D01*
X192860000Y-115950000D02*
X189940000Y-115950000D01*
X189940000Y-115950000D02*
X189940000Y-115250000D01*
X189940000Y-115250000D02*
X192860000Y-115250000D01*
X192950000Y-113900000D02*
X192950000Y-114900000D01*
%TO.C,J5*%
X214700000Y-114045000D02*
X216900000Y-114045000D01*
X220100000Y-114045000D02*
X220375000Y-114045000D01*
X220375000Y-114045000D02*
X220375000Y-105105000D01*
X212225000Y-112975000D02*
X212225000Y-106175000D01*
D10*
X211700000Y-112200000D02*
X211700000Y-112200000D01*
X211800000Y-112200000D02*
X211800000Y-112200000D01*
D17*
X214700000Y-105105000D02*
X216700000Y-105105000D01*
X220375000Y-105105000D02*
X220100000Y-105105000D01*
D10*
X211700000Y-112200000D02*
G75*
G02*
X211800000Y-112200000I50000J0D01*
G01*
X211800000Y-112200000D02*
G75*
G02*
X211700000Y-112200000I-50000J0D01*
G01*
D17*
%TO.C,J1*%
X198980000Y-106175000D02*
X198980000Y-107273000D01*
X198980000Y-107273000D02*
X205810000Y-107273000D01*
X205810000Y-107273000D02*
X205810000Y-103808000D01*
X205810000Y-103808000D02*
X199855000Y-103808000D01*
%TO.C,IC6*%
X206925000Y-84675000D02*
X210625000Y-84675000D01*
X210625000Y-84675000D02*
X210625000Y-87675000D01*
X210625000Y-87675000D02*
X206925000Y-87675000D01*
X206925000Y-87675000D02*
X206925000Y-84675000D01*
X205100000Y-84625000D02*
X206575000Y-84625000D01*
%TO.C,IC5*%
X206912000Y-80975000D02*
X210612000Y-80975000D01*
X210612000Y-80975000D02*
X210612000Y-83975000D01*
X210612000Y-83975000D02*
X206912000Y-83975000D01*
X206912000Y-83975000D02*
X206912000Y-80975000D01*
X205087000Y-80925000D02*
X206562000Y-80925000D01*
%TO.C,IC4*%
X199800000Y-81900000D02*
X199800000Y-81900000D01*
X199800000Y-82100000D02*
X199800000Y-82100000D01*
X199800000Y-81900000D02*
G75*
G02*
X199800000Y-82100000I0J-100000D01*
G01*
X199800000Y-82100000D02*
G75*
G02*
X199800000Y-81900000I0J100000D01*
G01*
D10*
%TO.C,IC2*%
X172685000Y-119700000D02*
X172685000Y-119700000D01*
X172685000Y-119800000D02*
X172685000Y-119800000D01*
D17*
X184875000Y-118800000D02*
X187875000Y-118800000D01*
X187875000Y-118800000D02*
X187875000Y-116100000D01*
X187875000Y-106900000D02*
X187875000Y-103800000D01*
X187875000Y-103800000D02*
X184875000Y-103800000D01*
X171975000Y-103800000D02*
X168875000Y-103800000D01*
X168875000Y-103800000D02*
X168875000Y-108300000D01*
X171975000Y-118800000D02*
X168875000Y-118800000D01*
X168875000Y-118800000D02*
X168875000Y-114700000D01*
X177175000Y-118800000D02*
X179575000Y-118800000D01*
D10*
X172685000Y-119800000D02*
G75*
G02*
X172685000Y-119700000I0J50000D01*
G01*
X172685000Y-119700000D02*
G75*
G02*
X172685000Y-119800000I0J-50000D01*
G01*
D17*
%TO.C,IC1*%
X193244400Y-98766893D02*
X186668307Y-92190800D01*
X186668307Y-92190800D02*
X193244400Y-85614707D01*
X193244400Y-85614707D02*
X199820493Y-92190800D01*
X199820493Y-92190800D02*
X193244400Y-98766893D01*
D18*
X194589159Y-99774520D02*
G75*
G02*
X194339159Y-99774520I-125000J0D01*
G01*
X194339159Y-99774520D02*
G75*
G02*
X194589159Y-99774520I125000J0D01*
G01*
D17*
%TO.C,FB2*%
X180925000Y-93050000D02*
X180925000Y-93650000D01*
%TO.C,FB1*%
X180875000Y-86125000D02*
X180875000Y-85525000D01*
D10*
%TO.C,D1*%
X208500000Y-110900000D02*
X208500000Y-110900000D01*
X208400000Y-110900000D02*
X208400000Y-110900000D01*
X208250000Y-112650000D02*
X208250000Y-111400000D01*
X205350000Y-112700000D02*
X205350000Y-111350000D01*
X208400000Y-110900000D02*
G75*
G02*
X208500000Y-110900000I50000J0D01*
G01*
X208500000Y-110900000D02*
G75*
G02*
X208400000Y-110900000I-50000J0D01*
G01*
%TO.C,ANT1*%
X159800000Y-97000000D02*
X159800000Y-97000000D01*
X159800000Y-96900000D02*
X159800000Y-96900000D01*
D17*
X157600000Y-94200000D02*
X157600000Y-84600000D01*
X161600000Y-84600000D02*
X161600000Y-94200000D01*
D10*
X159800000Y-96900000D02*
G75*
G02*
X159800000Y-97000000I0J-50000D01*
G01*
X159800000Y-97000000D02*
G75*
G02*
X159800000Y-96900000I0J50000D01*
G01*
D15*
%TO.C,R37*%
X206562742Y-88277500D02*
X207037258Y-88277500D01*
X206562742Y-89322500D02*
X207037258Y-89322500D01*
%TO.C,C2*%
X180809420Y-90940000D02*
X181090580Y-90940000D01*
X180809420Y-91960000D02*
X181090580Y-91960000D01*
D10*
%TO.C,L3*%
X185900000Y-98000000D02*
X185900000Y-98000000D01*
X185900000Y-98100000D02*
X185900000Y-98100000D01*
X185900000Y-98000000D02*
G75*
G02*
X185900000Y-98100000I0J-50000D01*
G01*
X185900000Y-98100000D02*
G75*
G02*
X185900000Y-98000000I0J50000D01*
G01*
D15*
%TO.C,C13*%
X216534420Y-83965000D02*
X216815580Y-83965000D01*
X216534420Y-84985000D02*
X216815580Y-84985000D01*
%TO.C,R32*%
X196977500Y-81187742D02*
X196977500Y-81662258D01*
X198022500Y-81187742D02*
X198022500Y-81662258D01*
%TO.C,R2*%
X175462742Y-81377500D02*
X175937258Y-81377500D01*
X175462742Y-82422500D02*
X175937258Y-82422500D01*
%TO.C,R25*%
X187137258Y-85736500D02*
X186662742Y-85736500D01*
X187137258Y-86781500D02*
X186662742Y-86781500D01*
%TO.C,R31*%
X216899258Y-80757500D02*
X216424742Y-80757500D01*
X216899258Y-81802500D02*
X216424742Y-81802500D01*
D17*
%TO.C,J4*%
X194432500Y-106055000D02*
X194433000Y-115580000D01*
X196800000Y-116455000D02*
X197898000Y-116455000D01*
X197897500Y-106055000D02*
X194432500Y-106055000D01*
X197898000Y-116455000D02*
X197897500Y-106055000D01*
D10*
%TO.C,L4*%
X179200000Y-97900000D02*
X179200000Y-97900000D01*
X179200000Y-98000000D02*
X179200000Y-98000000D01*
X179200000Y-97900000D02*
G75*
G02*
X179200000Y-98000000I0J-50000D01*
G01*
X179200000Y-98000000D02*
G75*
G02*
X179200000Y-97900000I0J50000D01*
G01*
D15*
%TO.C,R14*%
X191637258Y-117777500D02*
X191162742Y-117777500D01*
X191637258Y-118822500D02*
X191162742Y-118822500D01*
%TO.C,R33*%
X216937258Y-85527500D02*
X216462742Y-85527500D01*
X216937258Y-86572500D02*
X216462742Y-86572500D01*
%TO.C,R24*%
X191031742Y-109814500D02*
X191506258Y-109814500D01*
X191031742Y-110859500D02*
X191506258Y-110859500D01*
%TO.C,R28*%
X182737258Y-96077500D02*
X182262742Y-96077500D01*
X182737258Y-97122500D02*
X182262742Y-97122500D01*
%TO.C,R7*%
X176762742Y-89277500D02*
X177237258Y-89277500D01*
X176762742Y-90322500D02*
X177237258Y-90322500D01*
%TO.C,R26*%
X187137258Y-84202500D02*
X186662742Y-84202500D01*
X187137258Y-85247500D02*
X186662742Y-85247500D01*
%TO.C,R6*%
X177237258Y-90777500D02*
X176762742Y-90777500D01*
X177237258Y-91822500D02*
X176762742Y-91822500D01*
%TO.C,R10*%
X180962258Y-120777500D02*
X180487742Y-120777500D01*
X180962258Y-121822500D02*
X180487742Y-121822500D01*
D10*
%TO.C,L1*%
X175900000Y-98000000D02*
X175900000Y-98000000D01*
X175900000Y-98100000D02*
X175900000Y-98100000D01*
X175900000Y-98000000D02*
G75*
G02*
X175900000Y-98100000I0J-50000D01*
G01*
X175900000Y-98100000D02*
G75*
G02*
X175900000Y-98000000I0J50000D01*
G01*
D15*
%TO.C,R35*%
X201687742Y-98552500D02*
X202162258Y-98552500D01*
X201687742Y-99597500D02*
X202162258Y-99597500D01*
%TO.C,R21*%
X202237258Y-86877500D02*
X201762742Y-86877500D01*
X202237258Y-87922500D02*
X201762742Y-87922500D01*
%TO.C,R22*%
X191031742Y-108290500D02*
X191506258Y-108290500D01*
X191031742Y-109335500D02*
X191506258Y-109335500D01*
%TO.C,C7*%
X180784420Y-89040000D02*
X181065580Y-89040000D01*
X180784420Y-90060000D02*
X181065580Y-90060000D01*
%TO.C,C10*%
X187040580Y-82515000D02*
X186759420Y-82515000D01*
X187040580Y-83535000D02*
X186759420Y-83535000D01*
%TO.C,C1*%
X181090580Y-87140000D02*
X180809420Y-87140000D01*
X181090580Y-88160000D02*
X180809420Y-88160000D01*
%TO.C,C14*%
X211059420Y-99090000D02*
X211340580Y-99090000D01*
X211059420Y-100110000D02*
X211340580Y-100110000D01*
%TO.C,R36*%
X201687742Y-100102500D02*
X202162258Y-100102500D01*
X201687742Y-101147500D02*
X202162258Y-101147500D01*
%TO.C,R8*%
X177962258Y-120777500D02*
X177487742Y-120777500D01*
X177962258Y-121822500D02*
X177487742Y-121822500D01*
%TO.C,C17*%
X213090000Y-86359420D02*
X213090000Y-86640580D01*
X214110000Y-86359420D02*
X214110000Y-86640580D01*
%TO.C,C15*%
X216534420Y-82365000D02*
X216815580Y-82365000D01*
X216534420Y-83385000D02*
X216815580Y-83385000D01*
%TO.C,R11*%
X174962258Y-120777500D02*
X174487742Y-120777500D01*
X174962258Y-121822500D02*
X174487742Y-121822500D01*
%TO.C,R13*%
X171962258Y-120777500D02*
X171487742Y-120777500D01*
X171962258Y-121822500D02*
X171487742Y-121822500D01*
D10*
%TO.C,L2*%
X182600000Y-98000000D02*
X182600000Y-98000000D01*
X182600000Y-98100000D02*
X182600000Y-98100000D01*
X182600000Y-98000000D02*
G75*
G02*
X182600000Y-98100000I0J-50000D01*
G01*
X182600000Y-98100000D02*
G75*
G02*
X182600000Y-98000000I0J50000D01*
G01*
D15*
%TO.C,C5*%
X204459420Y-94852000D02*
X204740580Y-94852000D01*
X204459420Y-95872000D02*
X204740580Y-95872000D01*
%TO.C,R18*%
X206062742Y-98527500D02*
X206537258Y-98527500D01*
X206062742Y-99572500D02*
X206537258Y-99572500D01*
%TO.C,R30*%
X179062742Y-96077500D02*
X179537258Y-96077500D01*
X179062742Y-97122500D02*
X179537258Y-97122500D01*
%TO.C,R20*%
X191506258Y-106766500D02*
X191031742Y-106766500D01*
X191506258Y-107811500D02*
X191031742Y-107811500D01*
%TO.C,R4*%
X213237258Y-116777500D02*
X212762742Y-116777500D01*
X213237258Y-117822500D02*
X212762742Y-117822500D01*
%TO.C,R27*%
X175762742Y-96077500D02*
X176237258Y-96077500D01*
X175762742Y-97122500D02*
X176237258Y-97122500D01*
%TO.C,R1*%
X175462742Y-82977500D02*
X175937258Y-82977500D01*
X175462742Y-84022500D02*
X175937258Y-84022500D01*
%TO.C,C12*%
X213090000Y-80640580D02*
X213090000Y-80359420D01*
X214110000Y-80640580D02*
X214110000Y-80359420D01*
%TO.C,C9*%
X204459420Y-96390000D02*
X204740580Y-96390000D01*
X204459420Y-97410000D02*
X204740580Y-97410000D01*
%TO.C,C16*%
X213959420Y-88290000D02*
X214240580Y-88290000D01*
X213959420Y-89310000D02*
X214240580Y-89310000D01*
%TO.C,R16*%
X176762742Y-92277500D02*
X177237258Y-92277500D01*
X176762742Y-93322500D02*
X177237258Y-93322500D01*
%TO.C,C8*%
X204459420Y-91752000D02*
X204740580Y-91752000D01*
X204459420Y-92772000D02*
X204740580Y-92772000D01*
D17*
%TO.C,S2*%
X173950000Y-86200000D02*
X173950000Y-86200000D01*
X173950000Y-86400000D02*
X173950000Y-86400000D01*
D10*
X174625000Y-87500000D02*
X177275000Y-87500000D01*
X174650000Y-85900000D02*
X177250000Y-85900000D01*
D17*
X173950000Y-86200000D02*
G75*
G02*
X173950000Y-86400000I0J-100000D01*
G01*
X173950000Y-86400000D02*
G75*
G02*
X173950000Y-86200000I0J100000D01*
G01*
D15*
%TO.C,R19*%
X202237258Y-88477500D02*
X201762742Y-88477500D01*
X202237258Y-89522500D02*
X201762742Y-89522500D01*
D10*
%TO.C,L5*%
X219100000Y-79875000D02*
X219100000Y-79875000D01*
X219100000Y-79975000D02*
X219100000Y-79975000D01*
X219100000Y-79875000D02*
G75*
G02*
X219100000Y-79975000I0J-50000D01*
G01*
X219100000Y-79975000D02*
G75*
G02*
X219100000Y-79875000I0J50000D01*
G01*
D15*
%TO.C,R12*%
X207277500Y-106862742D02*
X207277500Y-107337258D01*
X208322500Y-106862742D02*
X208322500Y-107337258D01*
%TO.C,R3*%
X175937258Y-79877500D02*
X175462742Y-79877500D01*
X175937258Y-80922500D02*
X175462742Y-80922500D01*
%TO.C,C11*%
X195490000Y-81284420D02*
X195490000Y-81565580D01*
X196510000Y-81284420D02*
X196510000Y-81565580D01*
%TO.C,R29*%
X185362742Y-96077500D02*
X185837258Y-96077500D01*
X185362742Y-97122500D02*
X185837258Y-97122500D01*
%TO.C,C6*%
X204459420Y-93290000D02*
X204740580Y-93290000D01*
X204459420Y-94310000D02*
X204740580Y-94310000D01*
%TO.C,C4*%
X187040580Y-81015000D02*
X186759420Y-81015000D01*
X187040580Y-82035000D02*
X186759420Y-82035000D01*
%TO.C,R34*%
X206062742Y-100107500D02*
X206537258Y-100107500D01*
X206062742Y-101152500D02*
X206537258Y-101152500D01*
%TO.C,R9*%
X183962258Y-120777500D02*
X183487742Y-120777500D01*
X183962258Y-121822500D02*
X183487742Y-121822500D01*
%TO.C,R5*%
X213237258Y-118377500D02*
X212762742Y-118377500D01*
X213237258Y-119422500D02*
X212762742Y-119422500D01*
%TO.C,C18*%
X213090000Y-83640580D02*
X213090000Y-83359420D01*
X214110000Y-83640580D02*
X214110000Y-83359420D01*
%TO.C,R23*%
X201762742Y-85277500D02*
X202237258Y-85277500D01*
X201762742Y-86322500D02*
X202237258Y-86322500D01*
%TO.C,C3*%
X207290000Y-104140580D02*
X207290000Y-103859420D01*
X208310000Y-104140580D02*
X208310000Y-103859420D01*
%TD*%
D19*
X211425000Y-101650000D03*
X211425000Y-88950000D03*
D20*
X213375000Y-113895000D03*
X213375000Y-105255000D03*
X218475000Y-113895000D03*
X218475000Y-105255000D03*
D19*
X199855000Y-106175000D03*
X199855000Y-104905000D03*
X201125000Y-106175000D03*
X201125000Y-104905000D03*
X202395000Y-106175000D03*
X202395000Y-104905000D03*
X203665000Y-106175000D03*
X203665000Y-104905000D03*
X204935000Y-106175000D03*
X204935000Y-104905000D03*
X196800000Y-115580000D03*
X195530000Y-115580000D03*
X196800000Y-114310000D03*
X195530000Y-114310000D03*
X196800000Y-113040000D03*
X195530000Y-113040000D03*
X196800000Y-111770000D03*
X195530000Y-111770000D03*
X196800000Y-110500000D03*
X195530000Y-110500000D03*
X196800000Y-109230000D03*
X195530000Y-109230000D03*
X196800000Y-107960000D03*
X195530000Y-107960000D03*
X196800000Y-106690000D03*
X195530000Y-106690000D03*
X212700000Y-97240000D03*
X212700000Y-94700000D03*
X212700000Y-92160000D03*
X218450000Y-91412500D03*
X215920000Y-76140000D03*
X215920000Y-73600000D03*
X213380000Y-76140000D03*
X213380000Y-73600000D03*
X210840000Y-76140000D03*
X210840000Y-73600000D03*
X208300000Y-76140000D03*
X208300000Y-73600000D03*
X205760000Y-76140000D03*
X205760000Y-73600000D03*
X203220000Y-76140000D03*
X203220000Y-73600000D03*
X200680000Y-76140000D03*
X200680000Y-73600000D03*
X198140000Y-76140000D03*
X198140000Y-73600000D03*
X193060000Y-76140000D03*
X193060000Y-73600000D03*
X190520000Y-76140000D03*
X190520000Y-73600000D03*
X187980000Y-76140000D03*
X187980000Y-73600000D03*
X185440000Y-76140000D03*
X185440000Y-73600000D03*
X182900000Y-76140000D03*
X182900000Y-73600000D03*
X180360000Y-76140000D03*
X180360000Y-73600000D03*
X177820000Y-76140000D03*
X177820000Y-73600000D03*
X175280000Y-76140000D03*
X175280000Y-73600000D03*
X172740000Y-76140000D03*
X172740000Y-73600000D03*
X170200000Y-76140000D03*
X170200000Y-73600000D03*
X195600000Y-76140000D03*
X195600000Y-73600000D03*
X159400000Y-76500000D03*
X167375000Y-124175000D03*
X218450000Y-101600000D03*
X220990000Y-101600000D03*
X218450000Y-99060000D03*
X220990000Y-99060000D03*
X218450000Y-96520000D03*
X220990000Y-96520000D03*
X177800000Y-124460000D03*
X177800000Y-127000000D03*
X180340000Y-124460000D03*
X180340000Y-127000000D03*
X182880000Y-124460000D03*
X182880000Y-127000000D03*
X185420000Y-124460000D03*
X185420000Y-127000000D03*
X187960000Y-124460000D03*
X187960000Y-127000000D03*
X190500000Y-124460000D03*
X190500000Y-127000000D03*
X193040000Y-124460000D03*
X193040000Y-127000000D03*
X195580000Y-124460000D03*
X195580000Y-127000000D03*
X198120000Y-124460000D03*
X198120000Y-127000000D03*
X200660000Y-124460000D03*
X200660000Y-127000000D03*
X203200000Y-124460000D03*
X203200000Y-127000000D03*
X205740000Y-124460000D03*
X205740000Y-127000000D03*
X208280000Y-124460000D03*
X208280000Y-127000000D03*
X210820000Y-124460000D03*
X210820000Y-127000000D03*
X213360000Y-124460000D03*
X213360000Y-127000000D03*
X215900000Y-124460000D03*
X215900000Y-127000000D03*
X218425000Y-119350000D03*
M02*
