%TF.GenerationSoftware,KiCad,Pcbnew,8.0.4*%
%TF.CreationDate,2024-11-04T17:03:22+09:00*%
%TF.ProjectId,balsun,62616c73-756e-42e6-9b69-6361645f7063,rev?*%
%TF.SameCoordinates,Original*%
%TF.FileFunction,Soldermask,Top*%
%TF.FilePolarity,Negative*%
%FSLAX46Y46*%
G04 Gerber Fmt 4.6, Leading zero omitted, Abs format (unit mm)*
G04 Created by KiCad (PCBNEW 8.0.4) date 2024-11-04 17:03:22*
%MOMM*%
%LPD*%
G01*
G04 APERTURE LIST*
G04 Aperture macros list*
%AMRoundRect*
0 Rectangle with rounded corners*
0 $1 Rounding radius*
0 $2 $3 $4 $5 $6 $7 $8 $9 X,Y pos of 4 corners*
0 Add a 4 corners polygon primitive as box body*
4,1,4,$2,$3,$4,$5,$6,$7,$8,$9,$2,$3,0*
0 Add four circle primitives for the rounded corners*
1,1,$1+$1,$2,$3*
1,1,$1+$1,$4,$5*
1,1,$1+$1,$6,$7*
1,1,$1+$1,$8,$9*
0 Add four rect primitives between the rounded corners*
20,1,$1+$1,$2,$3,$4,$5,0*
20,1,$1+$1,$4,$5,$6,$7,0*
20,1,$1+$1,$6,$7,$8,$9,0*
20,1,$1+$1,$8,$9,$2,$3,0*%
%AMRotRect*
0 Rectangle, with rotation*
0 The origin of the aperture is its center*
0 $1 length*
0 $2 width*
0 $3 Rotation angle, in degrees counterclockwise*
0 Add horizontal line*
21,1,$1,$2,0,0,$3*%
G04 Aperture macros list end*
%ADD10C,0.100000*%
%ADD11R,0.700000X1.000000*%
%ADD12C,1.000000*%
%ADD13R,4.000000X0.760000*%
%ADD14R,4.000000X1.810000*%
%ADD15RoundRect,0.200000X-0.200000X-0.275000X0.200000X-0.275000X0.200000X0.275000X-0.200000X0.275000X0*%
%ADD16RoundRect,0.225000X-0.225000X-0.250000X0.225000X-0.250000X0.225000X0.250000X-0.225000X0.250000X0*%
%ADD17R,0.800000X0.800000*%
%ADD18RoundRect,0.200000X-0.275000X0.200000X-0.275000X-0.200000X0.275000X-0.200000X0.275000X0.200000X0*%
%ADD19RoundRect,0.200000X0.200000X0.275000X-0.200000X0.275000X-0.200000X-0.275000X0.200000X-0.275000X0*%
%ADD20R,1.050000X1.050000*%
%ADD21C,1.050000*%
%ADD22C,1.524000*%
%ADD23R,1.200000X0.800000*%
%ADD24R,0.800000X1.200000*%
%ADD25R,1.475000X0.450000*%
%ADD26R,0.650000X0.700000*%
%ADD27R,0.375000X0.350000*%
%ADD28R,2.100000X0.400000*%
%ADD29R,1.100000X1.500000*%
%ADD30C,5.000000*%
%ADD31R,2.000000X2.540000*%
%ADD32RoundRect,0.225000X0.225000X0.250000X-0.225000X0.250000X-0.225000X-0.250000X0.225000X-0.250000X0*%
%ADD33RotRect,0.300000X1.475000X225.000000*%
%ADD34RotRect,0.300000X1.475000X135.000000*%
%ADD35C,3.400000*%
%ADD36RoundRect,0.225000X-0.250000X0.225000X-0.250000X-0.225000X0.250000X-0.225000X0.250000X0.225000X0*%
%ADD37R,1.000000X0.700000*%
%ADD38R,0.600000X0.700000*%
%ADD39RoundRect,0.225000X0.250000X-0.225000X0.250000X0.225000X-0.250000X0.225000X-0.250000X-0.225000X0*%
%ADD40R,2.540000X2.000000*%
%ADD41R,0.550000X0.550000*%
%ADD42R,4.000000X1.800000*%
%ADD43R,0.650000X0.250000*%
%ADD44O,2.200000X1.200000*%
%ADD45R,0.650000X0.270000*%
%ADD46R,3.500000X1.250000*%
%ADD47C,1.530000*%
G04 APERTURE END LIST*
D10*
%TO.C,REF\u002A\u002A*%
X165900000Y-76500000D02*
G75*
G02*
X163900000Y-76500000I-1000000J0D01*
G01*
X163900000Y-76500000D02*
G75*
G02*
X165900000Y-76500000I1000000J0D01*
G01*
X219800000Y-124600000D02*
G75*
G02*
X217800000Y-124600000I-1000000J0D01*
G01*
X217800000Y-124600000D02*
G75*
G02*
X219800000Y-124600000I1000000J0D01*
G01*
%TD*%
D11*
%TO.C,Q1*%
X192350000Y-114400000D03*
X190450000Y-114400000D03*
X191400000Y-116800000D03*
%TD*%
D12*
%TO.C,REF\u002A\u002A*%
X164900000Y-76500000D03*
%TD*%
%TO.C,REF\u002A\u002A*%
X218800000Y-124600000D03*
%TD*%
D13*
%TO.C,J6*%
X158600000Y-118025000D03*
D14*
X158600000Y-115260000D03*
X158600000Y-120790000D03*
%TD*%
D15*
%TO.C,R37*%
X205975000Y-88800000D03*
X207625000Y-88800000D03*
%TD*%
D16*
%TO.C,C2*%
X180175000Y-91450000D03*
X181725000Y-91450000D03*
%TD*%
D17*
%TO.C,L3*%
X185900000Y-98875000D03*
X185900000Y-100525000D03*
%TD*%
D16*
%TO.C,C13*%
X215900000Y-84475000D03*
X217450000Y-84475000D03*
%TD*%
D18*
%TO.C,R32*%
X197500000Y-80600000D03*
X197500000Y-82250000D03*
%TD*%
D15*
%TO.C,R2*%
X174875000Y-81900000D03*
X176525000Y-81900000D03*
%TD*%
D19*
%TO.C,R25*%
X187725000Y-86259000D03*
X186075000Y-86259000D03*
%TD*%
%TO.C,R31*%
X217487000Y-81280000D03*
X215837000Y-81280000D03*
%TD*%
D20*
%TO.C,J4*%
X196800000Y-115580000D03*
D21*
X195530000Y-115580000D03*
X196800000Y-114310000D03*
X195530000Y-114310000D03*
X196800000Y-113040000D03*
X195530000Y-113040000D03*
X196800000Y-111770000D03*
X195530000Y-111770000D03*
X196800000Y-110500000D03*
X195530000Y-110500000D03*
X196800000Y-109230000D03*
X195530000Y-109230000D03*
X196800000Y-107960000D03*
X195530000Y-107960000D03*
X196800000Y-106690000D03*
X195530000Y-106690000D03*
%TD*%
D17*
%TO.C,L4*%
X179200000Y-98875000D03*
X179200000Y-100525000D03*
%TD*%
D22*
%TO.C,IC3*%
X212700000Y-97240000D03*
X212700000Y-94700000D03*
X212700000Y-92160000D03*
%TD*%
D23*
%TO.C,IC2*%
X168945000Y-114040000D03*
X168945000Y-112770000D03*
X168945000Y-111500000D03*
X168945000Y-110230000D03*
X168945000Y-108960000D03*
D24*
X172685000Y-103870000D03*
X173955000Y-103870000D03*
X175225000Y-103870000D03*
X176495000Y-103870000D03*
X177765000Y-103870000D03*
X179035000Y-103870000D03*
X180305000Y-103870000D03*
X181575000Y-103870000D03*
X182845000Y-103870000D03*
X184115000Y-103870000D03*
D23*
X187805000Y-107690000D03*
X187805000Y-108960000D03*
X187805000Y-110230000D03*
X187805000Y-111500000D03*
X187805000Y-112770000D03*
X187805000Y-114040000D03*
X187805000Y-115310000D03*
D24*
X184115000Y-118730000D03*
X182845000Y-118730000D03*
X181575000Y-118730000D03*
X180305000Y-118730000D03*
X176495000Y-118730000D03*
X175225000Y-118730000D03*
X173955000Y-118730000D03*
X172685000Y-118730000D03*
%TD*%
D19*
%TO.C,R14*%
X192225000Y-118300000D03*
X190575000Y-118300000D03*
%TD*%
D25*
%TO.C,IC5*%
X205824000Y-81500000D03*
X205824000Y-82150000D03*
X205824000Y-82800000D03*
X205824000Y-83450000D03*
X211700000Y-83450000D03*
X211700000Y-82800000D03*
X211700000Y-82150000D03*
X211700000Y-81500000D03*
%TD*%
D19*
%TO.C,R33*%
X217525000Y-86050000D03*
X215875000Y-86050000D03*
%TD*%
D26*
%TO.C,FB1*%
X180200000Y-85825000D03*
X181550000Y-85825000D03*
%TD*%
D15*
%TO.C,R24*%
X190444000Y-110337000D03*
X192094000Y-110337000D03*
%TD*%
D19*
%TO.C,R28*%
X183325000Y-96600000D03*
X181675000Y-96600000D03*
%TD*%
D15*
%TO.C,R7*%
X176175000Y-89800000D03*
X177825000Y-89800000D03*
%TD*%
D21*
%TO.C,J1*%
X204935000Y-104905000D03*
X204935000Y-106175000D03*
X203665000Y-104905000D03*
X203665000Y-106175000D03*
X202395000Y-104905000D03*
X202395000Y-106175000D03*
X201125000Y-104905000D03*
X201125000Y-106175000D03*
X199855000Y-104905000D03*
D20*
X199855000Y-106175000D03*
%TD*%
D19*
%TO.C,R26*%
X187725000Y-84725000D03*
X186075000Y-84725000D03*
%TD*%
D27*
%TO.C,IC4*%
X200362000Y-81950000D03*
X200362000Y-82500000D03*
X200362000Y-83050000D03*
X202237000Y-83050000D03*
X202237000Y-82500000D03*
X202237000Y-81950000D03*
D28*
X201300000Y-81250000D03*
X201300000Y-83750000D03*
D29*
X201300000Y-82500000D03*
%TD*%
D19*
%TO.C,R6*%
X177825000Y-91300000D03*
X176175000Y-91300000D03*
%TD*%
%TO.C,R10*%
X181550000Y-121300000D03*
X179900000Y-121300000D03*
%TD*%
D17*
%TO.C,L1*%
X175900000Y-98875000D03*
X175900000Y-100525000D03*
%TD*%
D15*
%TO.C,R35*%
X201100000Y-99075000D03*
X202750000Y-99075000D03*
%TD*%
D26*
%TO.C,FB2*%
X180250000Y-93350000D03*
X181600000Y-93350000D03*
%TD*%
D30*
%TO.C,H3*%
X218450000Y-91412500D03*
%TD*%
D19*
%TO.C,R21*%
X201175000Y-87400000D03*
X202825000Y-87400000D03*
%TD*%
D15*
%TO.C,R22*%
X190444000Y-108813000D03*
X192094000Y-108813000D03*
%TD*%
D16*
%TO.C,C7*%
X180150000Y-89550000D03*
X181700000Y-89550000D03*
%TD*%
D31*
%TO.C,P1*%
X215920000Y-76140000D03*
X215920000Y-73600000D03*
X213380000Y-76140000D03*
X213380000Y-73600000D03*
X210840000Y-76140000D03*
X210840000Y-73600000D03*
X208300000Y-76140000D03*
X208300000Y-73600000D03*
X205760000Y-76140000D03*
X205760000Y-73600000D03*
X203220000Y-76140000D03*
X203220000Y-73600000D03*
X200680000Y-76140000D03*
X200680000Y-73600000D03*
X198140000Y-76140000D03*
X198140000Y-73600000D03*
X193060000Y-76140000D03*
X193060000Y-73600000D03*
X190520000Y-76140000D03*
X190520000Y-73600000D03*
X187980000Y-76140000D03*
X187980000Y-73600000D03*
X185440000Y-76140000D03*
X185440000Y-73600000D03*
X182900000Y-76140000D03*
X182900000Y-73600000D03*
X180360000Y-76140000D03*
X180360000Y-73600000D03*
X177820000Y-76140000D03*
X177820000Y-73600000D03*
X175280000Y-76140000D03*
X175280000Y-73600000D03*
X172740000Y-76140000D03*
X172740000Y-73600000D03*
X170200000Y-76140000D03*
X170200000Y-73600000D03*
X195600000Y-76140000D03*
X195600000Y-73600000D03*
%TD*%
D32*
%TO.C,C10*%
X187675000Y-83025000D03*
X186125000Y-83025000D03*
%TD*%
D33*
%TO.C,IC1*%
X194650128Y-98899829D03*
X195003682Y-98546276D03*
X195357235Y-98192722D03*
X195710788Y-97839169D03*
X196064342Y-97485616D03*
X196417895Y-97132062D03*
X196771449Y-96778509D03*
X197125002Y-96424955D03*
X197478555Y-96071402D03*
X197832109Y-95717849D03*
X198185662Y-95364295D03*
X198539216Y-95010742D03*
X198892769Y-94657188D03*
X199246322Y-94303635D03*
X199599876Y-93950082D03*
X199953429Y-93596528D03*
D34*
X199953429Y-90785072D03*
X199599876Y-90431518D03*
X199246322Y-90077965D03*
X198892769Y-89724412D03*
X198539216Y-89370858D03*
X198185662Y-89017305D03*
X197832109Y-88663751D03*
X197478555Y-88310198D03*
X197125002Y-87956645D03*
X196771449Y-87603091D03*
X196417895Y-87249538D03*
X196064342Y-86895984D03*
X195710788Y-86542431D03*
X195357235Y-86188878D03*
X195003682Y-85835324D03*
X194650128Y-85481771D03*
D33*
X191838672Y-85481771D03*
X191485118Y-85835324D03*
X191131565Y-86188878D03*
X190778012Y-86542431D03*
X190424458Y-86895984D03*
X190070905Y-87249538D03*
X189717351Y-87603091D03*
X189363798Y-87956645D03*
X189010245Y-88310198D03*
X188656691Y-88663751D03*
X188303138Y-89017305D03*
X187949584Y-89370858D03*
X187596031Y-89724412D03*
X187242478Y-90077965D03*
X186888924Y-90431518D03*
X186535371Y-90785072D03*
D34*
X186535371Y-93596528D03*
X186888924Y-93950082D03*
X187242478Y-94303635D03*
X187596031Y-94657188D03*
X187949584Y-95010742D03*
X188303138Y-95364295D03*
X188656691Y-95717849D03*
X189010245Y-96071402D03*
X189363798Y-96424955D03*
X189717351Y-96778509D03*
X190070905Y-97132062D03*
X190424458Y-97485616D03*
X190778012Y-97839169D03*
X191131565Y-98192722D03*
X191485118Y-98546276D03*
X191838672Y-98899829D03*
%TD*%
D32*
%TO.C,C1*%
X181725000Y-87650000D03*
X180175000Y-87650000D03*
%TD*%
D19*
%TO.C,R15*%
X192225000Y-112900000D03*
X190575000Y-112900000D03*
%TD*%
D16*
%TO.C,C14*%
X210425000Y-99600000D03*
X211975000Y-99600000D03*
%TD*%
D15*
%TO.C,R36*%
X202750000Y-100625000D03*
X201100000Y-100625000D03*
%TD*%
D19*
%TO.C,R8*%
X178550000Y-121300000D03*
X176900000Y-121300000D03*
%TD*%
D35*
%TO.C,H4*%
X159400000Y-76500000D03*
%TD*%
D36*
%TO.C,C17*%
X213600000Y-85725000D03*
X213600000Y-87275000D03*
%TD*%
D37*
%TO.C,D1*%
X207550000Y-111000000D03*
D38*
X205850000Y-111000000D03*
X205850000Y-113000000D03*
X207750000Y-113000000D03*
%TD*%
D16*
%TO.C,C15*%
X215900000Y-82875000D03*
X217450000Y-82875000D03*
%TD*%
D19*
%TO.C,R11*%
X175550000Y-121300000D03*
X173900000Y-121300000D03*
%TD*%
%TO.C,R13*%
X172550000Y-121300000D03*
X170900000Y-121300000D03*
%TD*%
D17*
%TO.C,L2*%
X182600000Y-98875000D03*
X182600000Y-100525000D03*
%TD*%
D16*
%TO.C,C5*%
X203825000Y-95362000D03*
X205375000Y-95362000D03*
%TD*%
D15*
%TO.C,R18*%
X205475000Y-99050000D03*
X207125000Y-99050000D03*
%TD*%
%TO.C,R30*%
X178475000Y-96600000D03*
X180125000Y-96600000D03*
%TD*%
D19*
%TO.C,R20*%
X192094000Y-107289000D03*
X190444000Y-107289000D03*
%TD*%
%TO.C,R4*%
X213825000Y-117300000D03*
X212175000Y-117300000D03*
%TD*%
D15*
%TO.C,R27*%
X175175000Y-96600000D03*
X176825000Y-96600000D03*
%TD*%
%TO.C,R1*%
X174875000Y-83500000D03*
X176525000Y-83500000D03*
%TD*%
D35*
%TO.C,H5*%
X167375000Y-124175000D03*
%TD*%
D39*
%TO.C,C12*%
X213600000Y-81275000D03*
X213600000Y-79725000D03*
%TD*%
D16*
%TO.C,C9*%
X203825000Y-96900000D03*
X205375000Y-96900000D03*
%TD*%
%TO.C,C16*%
X213325000Y-88800000D03*
X214875000Y-88800000D03*
%TD*%
D40*
%TO.C,H1*%
X218450000Y-101600000D03*
X220990000Y-101600000D03*
X218450000Y-99060000D03*
X220990000Y-99060000D03*
X218450000Y-96520000D03*
X220990000Y-96520000D03*
%TD*%
D15*
%TO.C,R16*%
X176175000Y-92800000D03*
X177825000Y-92800000D03*
%TD*%
D16*
%TO.C,C8*%
X203825000Y-92262000D03*
X205375000Y-92262000D03*
%TD*%
D41*
%TO.C,S2*%
X177275000Y-86325000D03*
X177275000Y-87075000D03*
X174625000Y-87075000D03*
X174625000Y-86325000D03*
%TD*%
D19*
%TO.C,R19*%
X202825000Y-89000000D03*
X201175000Y-89000000D03*
%TD*%
D17*
%TO.C,L5*%
X219100000Y-79100000D03*
X219100000Y-77450000D03*
%TD*%
D18*
%TO.C,R12*%
X207800000Y-106275000D03*
X207800000Y-107925000D03*
%TD*%
D19*
%TO.C,R3*%
X176525000Y-80400000D03*
X174875000Y-80400000D03*
%TD*%
D36*
%TO.C,C11*%
X196000000Y-80650000D03*
X196000000Y-82200000D03*
%TD*%
D15*
%TO.C,R29*%
X184775000Y-96600000D03*
X186425000Y-96600000D03*
%TD*%
D31*
%TO.C,J2*%
X177800000Y-124460000D03*
X177800000Y-127000000D03*
X180340000Y-124460000D03*
X180340000Y-127000000D03*
X182880000Y-124460000D03*
X182880000Y-127000000D03*
X185420000Y-124460000D03*
X185420000Y-127000000D03*
X187960000Y-124460000D03*
X187960000Y-127000000D03*
X190500000Y-124460000D03*
X190500000Y-127000000D03*
X193040000Y-124460000D03*
X193040000Y-127000000D03*
X195580000Y-124460000D03*
X195580000Y-127000000D03*
X198120000Y-124460000D03*
X198120000Y-127000000D03*
X200660000Y-124460000D03*
X200660000Y-127000000D03*
X203200000Y-124460000D03*
X203200000Y-127000000D03*
X205740000Y-124460000D03*
X205740000Y-127000000D03*
X208280000Y-124460000D03*
X208280000Y-127000000D03*
X210820000Y-124460000D03*
X210820000Y-127000000D03*
X213360000Y-124460000D03*
X213360000Y-127000000D03*
X215900000Y-124460000D03*
X215900000Y-127000000D03*
%TD*%
D16*
%TO.C,C6*%
X203825000Y-93800000D03*
X205375000Y-93800000D03*
%TD*%
D32*
%TO.C,C4*%
X187675000Y-81525000D03*
X186125000Y-81525000D03*
%TD*%
D42*
%TO.C,ANT1*%
X159600000Y-95500000D03*
X159600000Y-83300000D03*
%TD*%
D15*
%TO.C,R34*%
X205475000Y-100630000D03*
X207125000Y-100630000D03*
%TD*%
D43*
%TO.C,J5*%
X212950000Y-112200000D03*
X212950000Y-111700000D03*
X212950000Y-111200000D03*
X212950000Y-110700000D03*
X212950000Y-110200000D03*
X212950000Y-109700000D03*
X212950000Y-109200000D03*
X212950000Y-108700000D03*
X212950000Y-108200000D03*
X212950000Y-107700000D03*
X212950000Y-107200000D03*
X212950000Y-106700000D03*
X214450000Y-106950000D03*
X214450000Y-107450000D03*
X214450000Y-107950000D03*
X214450000Y-108450000D03*
X214450000Y-108950000D03*
X214450000Y-109450000D03*
X214450000Y-109950000D03*
X214450000Y-110450000D03*
X214450000Y-110950000D03*
X214450000Y-111450000D03*
X214450000Y-111950000D03*
X214450000Y-112450000D03*
D44*
X213375000Y-113895000D03*
X213375000Y-105255000D03*
X218475000Y-113895000D03*
X218475000Y-105255000D03*
D45*
X214450000Y-112960000D03*
X214450000Y-106190000D03*
D46*
X218125000Y-110700000D03*
X218125000Y-108450000D03*
%TD*%
D19*
%TO.C,R9*%
X184550000Y-121300000D03*
X182900000Y-121300000D03*
%TD*%
%TO.C,R5*%
X213825000Y-118900000D03*
X212175000Y-118900000D03*
%TD*%
D30*
%TO.C,H2*%
X218425000Y-119350000D03*
%TD*%
D39*
%TO.C,C18*%
X213600000Y-84275000D03*
X213600000Y-82725000D03*
%TD*%
D15*
%TO.C,R23*%
X201175000Y-85800000D03*
X202825000Y-85800000D03*
%TD*%
D25*
%TO.C,IC6*%
X205837000Y-85200000D03*
X205837000Y-85850000D03*
X205837000Y-86500000D03*
X205837000Y-87150000D03*
X211713000Y-87150000D03*
X211713000Y-86500000D03*
X211713000Y-85850000D03*
X211713000Y-85200000D03*
%TD*%
D39*
%TO.C,C3*%
X207800000Y-104775000D03*
X207800000Y-103225000D03*
%TD*%
D47*
%TO.C,U1*%
X211425000Y-88950000D03*
X211425000Y-101650000D03*
%TD*%
M02*
