M48
METRIC,TZ
T1C0.300
T2C0.600
T3C0.650
T4C1.000
T5C1.020
T6C3.200
%
G90
G05
T1
X158200Y-113500
X158200Y-116900
X158200Y-119000
X158200Y-122300
X158200Y-124100
X158200Y-126100
X159200Y-113500
X159200Y-116900
X159200Y-119000
X159200Y-122300
X160300Y-113500
X160300Y-116900
X160300Y-119000
X160300Y-122300
X161400Y-119000
X161400Y-120600
X161400Y-122300
X161400Y-124100
X161400Y-126100
X161500Y-113600
X161500Y-115100
X161500Y-116700
X162200Y-115900
X162300Y-74800
X162500Y-118700
X163000Y-115100
X163300Y-117800
X163600Y-120600
X163600Y-122300
X163600Y-124100
X163600Y-126100
X163800Y-114300
X164100Y-117000
X164600Y-113500
X165000Y-116200
X165400Y-112700
X165700Y-115400
X165800Y-120600
X165830Y-118955
X165900Y-117300
X166300Y-112000
X166500Y-114600
X167300Y-111400
X167400Y-113800
X167700Y-75600
X167700Y-117300
X167700Y-119000
X167700Y-120600
X169500Y-121500
X174300Y-94000
X174300Y-122600
X175250Y-89295
X175700Y-82700
X176200Y-88100
X177800Y-85400
X178000Y-87700
X178800Y-89900
X178915Y-93352
X179000Y-87800
X179200Y-91400
X180400Y-80600
X180900Y-98100
X182200Y-81900
X183100Y-95200
X183765Y-86799
X183825Y-89442
X183912Y-92792
X184298Y-90310
X184754Y-88669
X185600Y-120900
X185800Y-95300
X186043Y-88896
X186893Y-87744
X187300Y-121800
X187400Y-98400
X187400Y-101600
X187505Y-92181
X188200Y-98900
X188340Y-93048
X188900Y-86200
X189027Y-85066
X189165Y-90023
X189386Y-83066
X189402Y-93688
X189669Y-91704
X190000Y-78500
X190090Y-81135
X190285Y-90605
X190287Y-88837
X190300Y-84900
X190579Y-92887
X190600Y-111600
X190700Y-102900
X190966Y-96000
X191077Y-91515
X191272Y-84150
X191443Y-100856
X191714Y-89250
X191800Y-93200
X191833Y-95555
X191900Y-102500
X191928Y-106057
X192423Y-88001
X192494Y-84991
X192700Y-80900
X192700Y-97300
X192917Y-89209
X193484Y-88642
X193503Y-98733
X193551Y-99686
X193800Y-81831
X193800Y-96900
X194278Y-88028
X194348Y-84628
X194372Y-101768
X194706Y-100796
X194900Y-82700
X195118Y-92872
X195272Y-96016
X195355Y-84074
X195516Y-89951
X195528Y-88125
X195861Y-116888
X196300Y-103100
X196372Y-94035
X196591Y-89700
X196600Y-100300
X197100Y-94400
X197335Y-84884
X197424Y-83414
X197714Y-90807
X197752Y-93691
X197800Y-92880
X197936Y-105173
X198282Y-121643
X198636Y-84808
X198695Y-86207
X198738Y-97829
X199200Y-79300
X199267Y-92325
X199349Y-96594
X199595Y-122295
X199647Y-88155
X199800Y-99700
X200020Y-95397
X200400Y-110800
X200994Y-91795
X201000Y-115800
X201017Y-90810
X201319Y-103873
X201700Y-92400
X202500Y-108100
X202553Y-97979
X202700Y-113300
X202700Y-119300
X202900Y-83400
X203000Y-81300
X203600Y-116500
X204146Y-99394
X204266Y-100716
X204300Y-103100
X204346Y-90661
X205349Y-97975
X206144Y-91218
X206321Y-114987
X206700Y-97800
X206714Y-101717
X206900Y-94500
X207200Y-90900
X207200Y-117900
X207600Y-83500
X207800Y-119500
X208200Y-96200
X209000Y-88500
X209300Y-96200
X210000Y-83500
X210600Y-82800
X211000Y-91600
X211600Y-80000
X211600Y-110200
X211900Y-108400
X214300Y-103500
X214500Y-120600
X214600Y-115100
X214700Y-85700
X215400Y-110000
X215400Y-111000
X215500Y-107900
X216000Y-87500
X216000Y-94400
X216187Y-89221
X217800Y-88100
X218200Y-123900
X218700Y-83700
T3
X195530Y-106690
X195530Y-107960
X195530Y-109230
X195530Y-110500
X195530Y-111770
X195530Y-113040
X195530Y-114310
X195530Y-115580
X196800Y-106690
X196800Y-107960
X196800Y-109230
X196800Y-110500
X196800Y-111770
X196800Y-113040
X196800Y-114310
X196800Y-115580
X199855Y-104905
X199855Y-106175
X201125Y-104905
X201125Y-106175
X202395Y-104905
X202395Y-106175
X203665Y-104905
X203665Y-106175
X204935Y-104905
X204935Y-106175
T4
X170200Y-73600
X170200Y-76140
X172740Y-73600
X172740Y-76140
X175280Y-73600
X175280Y-76140
X177800Y-124460
X177800Y-127000
X177820Y-73600
X177820Y-76140
X180340Y-124460
X180340Y-127000
X180360Y-73600
X180360Y-76140
X182880Y-124460
X182880Y-127000
X182900Y-73600
X182900Y-76140
X185420Y-124460
X185420Y-127000
X185440Y-73600
X185440Y-76140
X187960Y-124460
X187960Y-127000
X187980Y-73600
X187980Y-76140
X190500Y-124460
X190500Y-127000
X190520Y-73600
X190520Y-76140
X193040Y-124460
X193040Y-127000
X193060Y-73600
X193060Y-76140
X195580Y-124460
X195580Y-127000
X195600Y-73600
X195600Y-76140
X198120Y-124460
X198120Y-127000
X198140Y-73600
X198140Y-76140
X200660Y-124460
X200660Y-127000
X200680Y-73600
X200680Y-76140
X203200Y-124460
X203200Y-127000
X203220Y-73600
X203220Y-76140
X205740Y-124460
X205740Y-127000
X205760Y-73600
X205760Y-76140
X208280Y-124460
X208280Y-127000
X208300Y-73600
X208300Y-76140
X210820Y-124460
X210820Y-127000
X210840Y-73600
X210840Y-76140
X212700Y-92160
X212700Y-94700
X212700Y-97240
X213360Y-124460
X213360Y-127000
X213380Y-73600
X213380Y-76140
X215900Y-124460
X215900Y-127000
X215920Y-73600
X215920Y-76140
X218450Y-96520
X218450Y-99060
X218450Y-101600
X220990Y-96520
X220990Y-99060
X220990Y-101600
T5
X211425Y-88950
X211425Y-101650
T6
X159400Y-76500
X167375Y-124175
X218425Y-119350
X218450Y-91413
T2
G00X212875Y-105255
M15
G01X213875Y-105255
M16
G05
G00X212875Y-113895
M15
G01X213875Y-113895
M16
G05
G00X217975Y-105255
M15
G01X218975Y-105255
M16
G05
G00X217975Y-113895
M15
G01X218975Y-113895
M16
G05
M30
