%TF.GenerationSoftware,KiCad,Pcbnew,8.0.4*%
%TF.CreationDate,2024-11-04T17:03:21+09:00*%
%TF.ProjectId,balsun,62616c73-756e-42e6-9b69-6361645f7063,rev?*%
%TF.SameCoordinates,Original*%
%TF.FileFunction,Legend,Bot*%
%TF.FilePolarity,Positive*%
%FSLAX46Y46*%
G04 Gerber Fmt 4.6, Leading zero omitted, Abs format (unit mm)*
G04 Created by KiCad (PCBNEW 8.0.4) date 2024-11-04 17:03:21*
%MOMM*%
%LPD*%
G01*
G04 APERTURE LIST*
%ADD10C,0.287500*%
%ADD11C,0.254000*%
%ADD12C,0.100000*%
%ADD13C,0.350000*%
%ADD14O,1.600000X0.600000*%
G04 APERTURE END LIST*
D10*
X217363236Y-86623573D02*
X217363236Y-84323573D01*
X216377522Y-86623573D02*
X216377522Y-85418811D01*
X216377522Y-85418811D02*
X216487046Y-85199764D01*
X216487046Y-85199764D02*
X216706094Y-85090240D01*
X216706094Y-85090240D02*
X217034665Y-85090240D01*
X217034665Y-85090240D02*
X217253713Y-85199764D01*
X217253713Y-85199764D02*
X217363236Y-85309288D01*
X215610856Y-85090240D02*
X214734665Y-85090240D01*
X215282284Y-84323573D02*
X215282284Y-86295002D01*
X215282284Y-86295002D02*
X215172761Y-86514050D01*
X215172761Y-86514050D02*
X214953713Y-86623573D01*
X214953713Y-86623573D02*
X214734665Y-86623573D01*
X214296570Y-85090240D02*
X213420379Y-85090240D01*
X213967998Y-84323573D02*
X213967998Y-86295002D01*
X213967998Y-86295002D02*
X213858475Y-86514050D01*
X213858475Y-86514050D02*
X213639427Y-86623573D01*
X213639427Y-86623573D02*
X213420379Y-86623573D01*
X212653712Y-85090240D02*
X212653712Y-87390240D01*
X212653712Y-85199764D02*
X212434665Y-85090240D01*
X212434665Y-85090240D02*
X211996570Y-85090240D01*
X211996570Y-85090240D02*
X211777522Y-85199764D01*
X211777522Y-85199764D02*
X211667998Y-85309288D01*
X211667998Y-85309288D02*
X211558474Y-85528335D01*
X211558474Y-85528335D02*
X211558474Y-86185478D01*
X211558474Y-86185478D02*
X211667998Y-86404526D01*
X211667998Y-86404526D02*
X211777522Y-86514050D01*
X211777522Y-86514050D02*
X211996570Y-86623573D01*
X211996570Y-86623573D02*
X212434665Y-86623573D01*
X212434665Y-86623573D02*
X212653712Y-86514050D01*
X210682284Y-86514050D02*
X210463237Y-86623573D01*
X210463237Y-86623573D02*
X210025141Y-86623573D01*
X210025141Y-86623573D02*
X209806094Y-86514050D01*
X209806094Y-86514050D02*
X209696570Y-86295002D01*
X209696570Y-86295002D02*
X209696570Y-86185478D01*
X209696570Y-86185478D02*
X209806094Y-85966430D01*
X209806094Y-85966430D02*
X210025141Y-85856907D01*
X210025141Y-85856907D02*
X210353713Y-85856907D01*
X210353713Y-85856907D02*
X210572760Y-85747383D01*
X210572760Y-85747383D02*
X210682284Y-85528335D01*
X210682284Y-85528335D02*
X210682284Y-85418811D01*
X210682284Y-85418811D02*
X210572760Y-85199764D01*
X210572760Y-85199764D02*
X210353713Y-85090240D01*
X210353713Y-85090240D02*
X210025141Y-85090240D01*
X210025141Y-85090240D02*
X209806094Y-85199764D01*
X208710855Y-86404526D02*
X208601332Y-86514050D01*
X208601332Y-86514050D02*
X208710855Y-86623573D01*
X208710855Y-86623573D02*
X208820379Y-86514050D01*
X208820379Y-86514050D02*
X208710855Y-86404526D01*
X208710855Y-86404526D02*
X208710855Y-86623573D01*
X208710855Y-85199764D02*
X208601332Y-85309288D01*
X208601332Y-85309288D02*
X208710855Y-85418811D01*
X208710855Y-85418811D02*
X208820379Y-85309288D01*
X208820379Y-85309288D02*
X208710855Y-85199764D01*
X208710855Y-85199764D02*
X208710855Y-85418811D01*
X205972760Y-84214050D02*
X207944189Y-87171192D01*
X203563236Y-84214050D02*
X205534665Y-87171192D01*
X201810855Y-85090240D02*
X201810855Y-86952145D01*
X201810855Y-86952145D02*
X201920379Y-87171192D01*
X201920379Y-87171192D02*
X202029903Y-87280716D01*
X202029903Y-87280716D02*
X202248950Y-87390240D01*
X202248950Y-87390240D02*
X202577522Y-87390240D01*
X202577522Y-87390240D02*
X202796569Y-87280716D01*
X201810855Y-86514050D02*
X202029903Y-86623573D01*
X202029903Y-86623573D02*
X202467998Y-86623573D01*
X202467998Y-86623573D02*
X202687046Y-86514050D01*
X202687046Y-86514050D02*
X202796569Y-86404526D01*
X202796569Y-86404526D02*
X202906093Y-86185478D01*
X202906093Y-86185478D02*
X202906093Y-85528335D01*
X202906093Y-85528335D02*
X202796569Y-85309288D01*
X202796569Y-85309288D02*
X202687046Y-85199764D01*
X202687046Y-85199764D02*
X202467998Y-85090240D01*
X202467998Y-85090240D02*
X202029903Y-85090240D01*
X202029903Y-85090240D02*
X201810855Y-85199764D01*
X200715617Y-86623573D02*
X200715617Y-85090240D01*
X200715617Y-84323573D02*
X200825141Y-84433097D01*
X200825141Y-84433097D02*
X200715617Y-84542621D01*
X200715617Y-84542621D02*
X200606094Y-84433097D01*
X200606094Y-84433097D02*
X200715617Y-84323573D01*
X200715617Y-84323573D02*
X200715617Y-84542621D01*
X199948951Y-85090240D02*
X199072760Y-85090240D01*
X199620379Y-84323573D02*
X199620379Y-86295002D01*
X199620379Y-86295002D02*
X199510856Y-86514050D01*
X199510856Y-86514050D02*
X199291808Y-86623573D01*
X199291808Y-86623573D02*
X199072760Y-86623573D01*
X198306093Y-86623573D02*
X198306093Y-84323573D01*
X197320379Y-86623573D02*
X197320379Y-85418811D01*
X197320379Y-85418811D02*
X197429903Y-85199764D01*
X197429903Y-85199764D02*
X197648951Y-85090240D01*
X197648951Y-85090240D02*
X197977522Y-85090240D01*
X197977522Y-85090240D02*
X198196570Y-85199764D01*
X198196570Y-85199764D02*
X198306093Y-85309288D01*
X195239427Y-85090240D02*
X195239427Y-86623573D01*
X196225141Y-85090240D02*
X196225141Y-86295002D01*
X196225141Y-86295002D02*
X196115618Y-86514050D01*
X196115618Y-86514050D02*
X195896570Y-86623573D01*
X195896570Y-86623573D02*
X195567999Y-86623573D01*
X195567999Y-86623573D02*
X195348951Y-86514050D01*
X195348951Y-86514050D02*
X195239427Y-86404526D01*
X194144189Y-86623573D02*
X194144189Y-84323573D01*
X194144189Y-85199764D02*
X193925142Y-85090240D01*
X193925142Y-85090240D02*
X193487047Y-85090240D01*
X193487047Y-85090240D02*
X193267999Y-85199764D01*
X193267999Y-85199764D02*
X193158475Y-85309288D01*
X193158475Y-85309288D02*
X193048951Y-85528335D01*
X193048951Y-85528335D02*
X193048951Y-86185478D01*
X193048951Y-86185478D02*
X193158475Y-86404526D01*
X193158475Y-86404526D02*
X193267999Y-86514050D01*
X193267999Y-86514050D02*
X193487047Y-86623573D01*
X193487047Y-86623573D02*
X193925142Y-86623573D01*
X193925142Y-86623573D02*
X194144189Y-86514050D01*
X192063237Y-86404526D02*
X191953714Y-86514050D01*
X191953714Y-86514050D02*
X192063237Y-86623573D01*
X192063237Y-86623573D02*
X192172761Y-86514050D01*
X192172761Y-86514050D02*
X192063237Y-86404526D01*
X192063237Y-86404526D02*
X192063237Y-86623573D01*
X189982285Y-86514050D02*
X190201333Y-86623573D01*
X190201333Y-86623573D02*
X190639428Y-86623573D01*
X190639428Y-86623573D02*
X190858476Y-86514050D01*
X190858476Y-86514050D02*
X190967999Y-86404526D01*
X190967999Y-86404526D02*
X191077523Y-86185478D01*
X191077523Y-86185478D02*
X191077523Y-85528335D01*
X191077523Y-85528335D02*
X190967999Y-85309288D01*
X190967999Y-85309288D02*
X190858476Y-85199764D01*
X190858476Y-85199764D02*
X190639428Y-85090240D01*
X190639428Y-85090240D02*
X190201333Y-85090240D01*
X190201333Y-85090240D02*
X189982285Y-85199764D01*
X188667999Y-86623573D02*
X188887047Y-86514050D01*
X188887047Y-86514050D02*
X188996570Y-86404526D01*
X188996570Y-86404526D02*
X189106094Y-86185478D01*
X189106094Y-86185478D02*
X189106094Y-85528335D01*
X189106094Y-85528335D02*
X188996570Y-85309288D01*
X188996570Y-85309288D02*
X188887047Y-85199764D01*
X188887047Y-85199764D02*
X188667999Y-85090240D01*
X188667999Y-85090240D02*
X188339428Y-85090240D01*
X188339428Y-85090240D02*
X188120380Y-85199764D01*
X188120380Y-85199764D02*
X188010856Y-85309288D01*
X188010856Y-85309288D02*
X187901332Y-85528335D01*
X187901332Y-85528335D02*
X187901332Y-86185478D01*
X187901332Y-86185478D02*
X188010856Y-86404526D01*
X188010856Y-86404526D02*
X188120380Y-86514050D01*
X188120380Y-86514050D02*
X188339428Y-86623573D01*
X188339428Y-86623573D02*
X188667999Y-86623573D01*
X186915618Y-86623573D02*
X186915618Y-85090240D01*
X186915618Y-85309288D02*
X186806095Y-85199764D01*
X186806095Y-85199764D02*
X186587047Y-85090240D01*
X186587047Y-85090240D02*
X186258476Y-85090240D01*
X186258476Y-85090240D02*
X186039428Y-85199764D01*
X186039428Y-85199764D02*
X185929904Y-85418811D01*
X185929904Y-85418811D02*
X185929904Y-86623573D01*
X185929904Y-85418811D02*
X185820380Y-85199764D01*
X185820380Y-85199764D02*
X185601333Y-85090240D01*
X185601333Y-85090240D02*
X185272761Y-85090240D01*
X185272761Y-85090240D02*
X185053714Y-85199764D01*
X185053714Y-85199764D02*
X184944190Y-85418811D01*
X184944190Y-85418811D02*
X184944190Y-86623573D01*
X182206094Y-84214050D02*
X184177523Y-87171192D01*
X181439427Y-86623573D02*
X181439427Y-85090240D01*
X181439427Y-85309288D02*
X181329904Y-85199764D01*
X181329904Y-85199764D02*
X181110856Y-85090240D01*
X181110856Y-85090240D02*
X180782285Y-85090240D01*
X180782285Y-85090240D02*
X180563237Y-85199764D01*
X180563237Y-85199764D02*
X180453713Y-85418811D01*
X180453713Y-85418811D02*
X180453713Y-86623573D01*
X180453713Y-85418811D02*
X180344189Y-85199764D01*
X180344189Y-85199764D02*
X180125142Y-85090240D01*
X180125142Y-85090240D02*
X179796570Y-85090240D01*
X179796570Y-85090240D02*
X179577523Y-85199764D01*
X179577523Y-85199764D02*
X179467999Y-85418811D01*
X179467999Y-85418811D02*
X179467999Y-86623573D01*
X178591808Y-85090240D02*
X177387046Y-85090240D01*
X177387046Y-85090240D02*
X178591808Y-86623573D01*
X178591808Y-86623573D02*
X177387046Y-86623573D01*
X176510855Y-86623573D02*
X176510855Y-84323573D01*
X176291808Y-85747383D02*
X175634665Y-86623573D01*
X175634665Y-85090240D02*
X176510855Y-85966430D01*
X174758474Y-86514050D02*
X174539427Y-86623573D01*
X174539427Y-86623573D02*
X174101331Y-86623573D01*
X174101331Y-86623573D02*
X173882284Y-86514050D01*
X173882284Y-86514050D02*
X173772760Y-86295002D01*
X173772760Y-86295002D02*
X173772760Y-86185478D01*
X173772760Y-86185478D02*
X173882284Y-85966430D01*
X173882284Y-85966430D02*
X174101331Y-85856907D01*
X174101331Y-85856907D02*
X174429903Y-85856907D01*
X174429903Y-85856907D02*
X174648950Y-85747383D01*
X174648950Y-85747383D02*
X174758474Y-85528335D01*
X174758474Y-85528335D02*
X174758474Y-85418811D01*
X174758474Y-85418811D02*
X174648950Y-85199764D01*
X174648950Y-85199764D02*
X174429903Y-85090240D01*
X174429903Y-85090240D02*
X174101331Y-85090240D01*
X174101331Y-85090240D02*
X173882284Y-85199764D01*
X171144188Y-84214050D02*
X173115617Y-87171192D01*
X170377521Y-86623573D02*
X170377521Y-84323573D01*
X170377521Y-85199764D02*
X170158474Y-85090240D01*
X170158474Y-85090240D02*
X169720379Y-85090240D01*
X169720379Y-85090240D02*
X169501331Y-85199764D01*
X169501331Y-85199764D02*
X169391807Y-85309288D01*
X169391807Y-85309288D02*
X169282283Y-85528335D01*
X169282283Y-85528335D02*
X169282283Y-86185478D01*
X169282283Y-86185478D02*
X169391807Y-86404526D01*
X169391807Y-86404526D02*
X169501331Y-86514050D01*
X169501331Y-86514050D02*
X169720379Y-86623573D01*
X169720379Y-86623573D02*
X170158474Y-86623573D01*
X170158474Y-86623573D02*
X170377521Y-86514050D01*
X167310855Y-86623573D02*
X167310855Y-85418811D01*
X167310855Y-85418811D02*
X167420379Y-85199764D01*
X167420379Y-85199764D02*
X167639427Y-85090240D01*
X167639427Y-85090240D02*
X168077522Y-85090240D01*
X168077522Y-85090240D02*
X168296569Y-85199764D01*
X167310855Y-86514050D02*
X167529903Y-86623573D01*
X167529903Y-86623573D02*
X168077522Y-86623573D01*
X168077522Y-86623573D02*
X168296569Y-86514050D01*
X168296569Y-86514050D02*
X168406093Y-86295002D01*
X168406093Y-86295002D02*
X168406093Y-86075954D01*
X168406093Y-86075954D02*
X168296569Y-85856907D01*
X168296569Y-85856907D02*
X168077522Y-85747383D01*
X168077522Y-85747383D02*
X167529903Y-85747383D01*
X167529903Y-85747383D02*
X167310855Y-85637859D01*
X165887046Y-86623573D02*
X166106094Y-86514050D01*
X166106094Y-86514050D02*
X166215617Y-86295002D01*
X166215617Y-86295002D02*
X166215617Y-84323573D01*
X165120379Y-86514050D02*
X164901332Y-86623573D01*
X164901332Y-86623573D02*
X164463236Y-86623573D01*
X164463236Y-86623573D02*
X164244189Y-86514050D01*
X164244189Y-86514050D02*
X164134665Y-86295002D01*
X164134665Y-86295002D02*
X164134665Y-86185478D01*
X164134665Y-86185478D02*
X164244189Y-85966430D01*
X164244189Y-85966430D02*
X164463236Y-85856907D01*
X164463236Y-85856907D02*
X164791808Y-85856907D01*
X164791808Y-85856907D02*
X165010855Y-85747383D01*
X165010855Y-85747383D02*
X165120379Y-85528335D01*
X165120379Y-85528335D02*
X165120379Y-85418811D01*
X165120379Y-85418811D02*
X165010855Y-85199764D01*
X165010855Y-85199764D02*
X164791808Y-85090240D01*
X164791808Y-85090240D02*
X164463236Y-85090240D01*
X164463236Y-85090240D02*
X164244189Y-85199764D01*
X162163236Y-85090240D02*
X162163236Y-86623573D01*
X163148950Y-85090240D02*
X163148950Y-86295002D01*
X163148950Y-86295002D02*
X163039427Y-86514050D01*
X163039427Y-86514050D02*
X162820379Y-86623573D01*
X162820379Y-86623573D02*
X162491808Y-86623573D01*
X162491808Y-86623573D02*
X162272760Y-86514050D01*
X162272760Y-86514050D02*
X162163236Y-86404526D01*
X161067998Y-85090240D02*
X161067998Y-86623573D01*
X161067998Y-85309288D02*
X160958475Y-85199764D01*
X160958475Y-85199764D02*
X160739427Y-85090240D01*
X160739427Y-85090240D02*
X160410856Y-85090240D01*
X160410856Y-85090240D02*
X160191808Y-85199764D01*
X160191808Y-85199764D02*
X160082284Y-85418811D01*
X160082284Y-85418811D02*
X160082284Y-86623573D01*
D11*
X188667619Y-100004318D02*
X188667619Y-101032413D01*
X188667619Y-101032413D02*
X188607142Y-101153365D01*
X188607142Y-101153365D02*
X188546666Y-101213842D01*
X188546666Y-101213842D02*
X188425714Y-101274318D01*
X188425714Y-101274318D02*
X188183809Y-101274318D01*
X188183809Y-101274318D02*
X188062857Y-101213842D01*
X188062857Y-101213842D02*
X188002380Y-101153365D01*
X188002380Y-101153365D02*
X187941904Y-101032413D01*
X187941904Y-101032413D02*
X187941904Y-100004318D01*
X186671904Y-101274318D02*
X187397619Y-101274318D01*
X187034762Y-101274318D02*
X187034762Y-100004318D01*
X187034762Y-100004318D02*
X187155714Y-100185746D01*
X187155714Y-100185746D02*
X187276666Y-100306699D01*
X187276666Y-100306699D02*
X187397619Y-100367175D01*
D12*
%TO.C,U1*%
X161385000Y-119445000D02*
X161385000Y-118480000D01*
X162300000Y-119445000D02*
X161385000Y-119445000D01*
X213100000Y-81955000D02*
X214015000Y-81955000D01*
X214015000Y-81955000D02*
X214015000Y-82920000D01*
%TD*%
D13*
X196800000Y-115580000D03*
X195530000Y-115580000D03*
X196800000Y-114310000D03*
X195530000Y-114310000D03*
X196800000Y-113040000D03*
X195530000Y-113040000D03*
X196800000Y-111770000D03*
X195530000Y-111770000D03*
X196800000Y-110500000D03*
X195530000Y-110500000D03*
X196800000Y-109230000D03*
X195530000Y-109230000D03*
X196800000Y-107960000D03*
X195530000Y-107960000D03*
X196800000Y-106690000D03*
X195530000Y-106690000D03*
X212700000Y-97240000D03*
X212700000Y-94700000D03*
X212700000Y-92160000D03*
X204935000Y-104905000D03*
X204935000Y-106175000D03*
X203665000Y-104905000D03*
X203665000Y-106175000D03*
X202395000Y-104905000D03*
X202395000Y-106175000D03*
X201125000Y-104905000D03*
X201125000Y-106175000D03*
X199855000Y-104905000D03*
X199855000Y-106175000D03*
X218450000Y-91412500D03*
X215920000Y-76140000D03*
X215920000Y-73600000D03*
X213380000Y-76140000D03*
X213380000Y-73600000D03*
X210840000Y-76140000D03*
X210840000Y-73600000D03*
X208300000Y-76140000D03*
X208300000Y-73600000D03*
X205760000Y-76140000D03*
X205760000Y-73600000D03*
X203220000Y-76140000D03*
X203220000Y-73600000D03*
X200680000Y-76140000D03*
X200680000Y-73600000D03*
X198140000Y-76140000D03*
X198140000Y-73600000D03*
X193060000Y-76140000D03*
X193060000Y-73600000D03*
X190520000Y-76140000D03*
X190520000Y-73600000D03*
X187980000Y-76140000D03*
X187980000Y-73600000D03*
X185440000Y-76140000D03*
X185440000Y-73600000D03*
X182900000Y-76140000D03*
X182900000Y-73600000D03*
X180360000Y-76140000D03*
X180360000Y-73600000D03*
X177820000Y-76140000D03*
X177820000Y-73600000D03*
X175280000Y-76140000D03*
X175280000Y-73600000D03*
X172740000Y-76140000D03*
X172740000Y-73600000D03*
X170200000Y-76140000D03*
X170200000Y-73600000D03*
X195600000Y-76140000D03*
X195600000Y-73600000D03*
X159400000Y-76500000D03*
X167375000Y-124175000D03*
X218450000Y-101600000D03*
X220990000Y-101600000D03*
X218450000Y-99060000D03*
X220990000Y-99060000D03*
X218450000Y-96520000D03*
X220990000Y-96520000D03*
X177800000Y-124460000D03*
X177800000Y-127000000D03*
X180340000Y-124460000D03*
X180340000Y-127000000D03*
X182880000Y-124460000D03*
X182880000Y-127000000D03*
X185420000Y-124460000D03*
X185420000Y-127000000D03*
X187960000Y-124460000D03*
X187960000Y-127000000D03*
X190500000Y-124460000D03*
X190500000Y-127000000D03*
X193040000Y-124460000D03*
X193040000Y-127000000D03*
X195580000Y-124460000D03*
X195580000Y-127000000D03*
X198120000Y-124460000D03*
X198120000Y-127000000D03*
X200660000Y-124460000D03*
X200660000Y-127000000D03*
X203200000Y-124460000D03*
X203200000Y-127000000D03*
X205740000Y-124460000D03*
X205740000Y-127000000D03*
X208280000Y-124460000D03*
X208280000Y-127000000D03*
X210820000Y-124460000D03*
X210820000Y-127000000D03*
X213360000Y-124460000D03*
X213360000Y-127000000D03*
X215900000Y-124460000D03*
X215900000Y-127000000D03*
D14*
X213375000Y-113895000D03*
X213375000Y-105255000D03*
X218475000Y-113895000D03*
X218475000Y-105255000D03*
D13*
X218425000Y-119350000D03*
X211425000Y-88950000D03*
X211425000Y-101650000D03*
M02*
