%TF.GenerationSoftware,KiCad,Pcbnew,8.0.4*%
%TF.CreationDate,2024-11-04T17:03:21+09:00*%
%TF.ProjectId,balsun,62616c73-756e-42e6-9b69-6361645f7063,rev?*%
%TF.SameCoordinates,Original*%
%TF.FileFunction,Profile,NP*%
%FSLAX46Y46*%
G04 Gerber Fmt 4.6, Leading zero omitted, Abs format (unit mm)*
G04 Created by KiCad (PCBNEW 8.0.4) date 2024-11-04 17:03:21*
%MOMM*%
%LPD*%
G01*
G04 APERTURE LIST*
%TA.AperFunction,Profile*%
%ADD10C,0.050000*%
%TD*%
%ADD11C,0.350000*%
%ADD12O,1.600000X0.600000*%
G04 APERTURE END LIST*
D10*
X159099066Y-126983531D02*
X218440000Y-127000000D01*
X159099066Y-126983531D02*
G75*
G02*
X156559069Y-124443531I34J2540031D01*
G01*
X218440000Y-73660001D02*
G75*
G02*
X220979999Y-76200000I-18000J-2557999D01*
G01*
X220980000Y-124460000D02*
G75*
G02*
X218440000Y-127000000I-2540000J0D01*
G01*
X218440000Y-73660000D02*
X159059066Y-73672295D01*
X156559056Y-76153531D02*
G75*
G02*
X159059066Y-73672231I2507244J-26069D01*
G01*
X156559066Y-76153531D02*
X156559066Y-124440000D01*
X220980000Y-124460000D02*
X220980000Y-76200000D01*
D11*
X196800000Y-115580000D03*
X195530000Y-115580000D03*
X196800000Y-114310000D03*
X195530000Y-114310000D03*
X196800000Y-113040000D03*
X195530000Y-113040000D03*
X196800000Y-111770000D03*
X195530000Y-111770000D03*
X196800000Y-110500000D03*
X195530000Y-110500000D03*
X196800000Y-109230000D03*
X195530000Y-109230000D03*
X196800000Y-107960000D03*
X195530000Y-107960000D03*
X196800000Y-106690000D03*
X195530000Y-106690000D03*
X212700000Y-97240000D03*
X212700000Y-94700000D03*
X212700000Y-92160000D03*
X204935000Y-104905000D03*
X204935000Y-106175000D03*
X203665000Y-104905000D03*
X203665000Y-106175000D03*
X202395000Y-104905000D03*
X202395000Y-106175000D03*
X201125000Y-104905000D03*
X201125000Y-106175000D03*
X199855000Y-104905000D03*
X199855000Y-106175000D03*
X218450000Y-91412500D03*
X215920000Y-76140000D03*
X215920000Y-73600000D03*
X213380000Y-76140000D03*
X213380000Y-73600000D03*
X210840000Y-76140000D03*
X210840000Y-73600000D03*
X208300000Y-76140000D03*
X208300000Y-73600000D03*
X205760000Y-76140000D03*
X205760000Y-73600000D03*
X203220000Y-76140000D03*
X203220000Y-73600000D03*
X200680000Y-76140000D03*
X200680000Y-73600000D03*
X198140000Y-76140000D03*
X198140000Y-73600000D03*
X193060000Y-76140000D03*
X193060000Y-73600000D03*
X190520000Y-76140000D03*
X190520000Y-73600000D03*
X187980000Y-76140000D03*
X187980000Y-73600000D03*
X185440000Y-76140000D03*
X185440000Y-73600000D03*
X182900000Y-76140000D03*
X182900000Y-73600000D03*
X180360000Y-76140000D03*
X180360000Y-73600000D03*
X177820000Y-76140000D03*
X177820000Y-73600000D03*
X175280000Y-76140000D03*
X175280000Y-73600000D03*
X172740000Y-76140000D03*
X172740000Y-73600000D03*
X170200000Y-76140000D03*
X170200000Y-73600000D03*
X195600000Y-76140000D03*
X195600000Y-73600000D03*
X159400000Y-76500000D03*
X167375000Y-124175000D03*
X218450000Y-101600000D03*
X220990000Y-101600000D03*
X218450000Y-99060000D03*
X220990000Y-99060000D03*
X218450000Y-96520000D03*
X220990000Y-96520000D03*
X177800000Y-124460000D03*
X177800000Y-127000000D03*
X180340000Y-124460000D03*
X180340000Y-127000000D03*
X182880000Y-124460000D03*
X182880000Y-127000000D03*
X185420000Y-124460000D03*
X185420000Y-127000000D03*
X187960000Y-124460000D03*
X187960000Y-127000000D03*
X190500000Y-124460000D03*
X190500000Y-127000000D03*
X193040000Y-124460000D03*
X193040000Y-127000000D03*
X195580000Y-124460000D03*
X195580000Y-127000000D03*
X198120000Y-124460000D03*
X198120000Y-127000000D03*
X200660000Y-124460000D03*
X200660000Y-127000000D03*
X203200000Y-124460000D03*
X203200000Y-127000000D03*
X205740000Y-124460000D03*
X205740000Y-127000000D03*
X208280000Y-124460000D03*
X208280000Y-127000000D03*
X210820000Y-124460000D03*
X210820000Y-127000000D03*
X213360000Y-124460000D03*
X213360000Y-127000000D03*
X215900000Y-124460000D03*
X215900000Y-127000000D03*
D12*
X213375000Y-113895000D03*
X213375000Y-105255000D03*
X218475000Y-113895000D03*
X218475000Y-105255000D03*
D11*
X218425000Y-119350000D03*
X211425000Y-88950000D03*
X211425000Y-101650000D03*
M02*
