%TF.GenerationSoftware,KiCad,Pcbnew,8.0.4*%
%TF.CreationDate,2024-10-23T22:06:26+09:00*%
%TF.ProjectId,balsun,62616c73-756e-42e6-9b69-6361645f7063,rev?*%
%TF.SameCoordinates,Original*%
%TF.FileFunction,Soldermask,Bot*%
%TF.FilePolarity,Negative*%
%FSLAX46Y46*%
G04 Gerber Fmt 4.6, Leading zero omitted, Abs format (unit mm)*
G04 Created by KiCad (PCBNEW 8.0.4) date 2024-10-23 22:06:26*
%MOMM*%
%LPD*%
G01*
G04 APERTURE LIST*
%ADD10C,0.517500*%
%ADD11C,1.530000*%
%ADD12O,2.200000X1.200000*%
%ADD13R,1.050000X1.050000*%
%ADD14C,1.050000*%
%ADD15R,4.000000X1.810000*%
%ADD16C,1.524000*%
%ADD17C,5.000000*%
%ADD18R,2.000000X2.540000*%
%ADD19C,3.400000*%
%ADD20R,2.540000X2.000000*%
G04 APERTURE END LIST*
D10*
%TO.C,U1*%
X187705000Y-112450000D03*
X187705000Y-88950000D03*
D11*
X211425000Y-101650000D03*
X211425000Y-88950000D03*
%TD*%
D12*
%TO.C,J5*%
X213375000Y-113895000D03*
X213375000Y-105255000D03*
X218475000Y-113895000D03*
X218475000Y-105255000D03*
%TD*%
D13*
%TO.C,J1*%
X199855000Y-106175000D03*
D14*
X199855000Y-104905000D03*
X201125000Y-106175000D03*
X201125000Y-104905000D03*
X202395000Y-106175000D03*
X202395000Y-104905000D03*
X203665000Y-106175000D03*
X203665000Y-104905000D03*
X204935000Y-106175000D03*
X204935000Y-104905000D03*
%TD*%
D15*
%TO.C,J6*%
X158600000Y-115260000D03*
X158600000Y-120790000D03*
%TD*%
D13*
%TO.C,J4*%
X196800000Y-115580000D03*
D14*
X195530000Y-115580000D03*
X196800000Y-114310000D03*
X195530000Y-114310000D03*
X196800000Y-113040000D03*
X195530000Y-113040000D03*
X196800000Y-111770000D03*
X195530000Y-111770000D03*
X196800000Y-110500000D03*
X195530000Y-110500000D03*
X196800000Y-109230000D03*
X195530000Y-109230000D03*
X196800000Y-107960000D03*
X195530000Y-107960000D03*
X196800000Y-106690000D03*
X195530000Y-106690000D03*
%TD*%
D16*
%TO.C,IC3*%
X212700000Y-97240000D03*
X212700000Y-94700000D03*
X212700000Y-92160000D03*
%TD*%
D17*
%TO.C,H3*%
X218450000Y-91412500D03*
%TD*%
D18*
%TO.C,P1*%
X215920000Y-76140000D03*
X215920000Y-73600000D03*
X213380000Y-76140000D03*
X213380000Y-73600000D03*
X210840000Y-76140000D03*
X210840000Y-73600000D03*
X208300000Y-76140000D03*
X208300000Y-73600000D03*
X205760000Y-76140000D03*
X205760000Y-73600000D03*
X203220000Y-76140000D03*
X203220000Y-73600000D03*
X200680000Y-76140000D03*
X200680000Y-73600000D03*
X198140000Y-76140000D03*
X198140000Y-73600000D03*
X193060000Y-76140000D03*
X193060000Y-73600000D03*
X190520000Y-76140000D03*
X190520000Y-73600000D03*
X187980000Y-76140000D03*
X187980000Y-73600000D03*
X185440000Y-76140000D03*
X185440000Y-73600000D03*
X182900000Y-76140000D03*
X182900000Y-73600000D03*
X180360000Y-76140000D03*
X180360000Y-73600000D03*
X177820000Y-76140000D03*
X177820000Y-73600000D03*
X175280000Y-76140000D03*
X175280000Y-73600000D03*
X172740000Y-76140000D03*
X172740000Y-73600000D03*
X170200000Y-76140000D03*
X170200000Y-73600000D03*
X195600000Y-76140000D03*
X195600000Y-73600000D03*
%TD*%
D19*
%TO.C,H4*%
X159400000Y-76500000D03*
%TD*%
%TO.C,H5*%
X167375000Y-124175000D03*
%TD*%
D20*
%TO.C,H1*%
X218450000Y-101600000D03*
X220990000Y-101600000D03*
X218450000Y-99060000D03*
X220990000Y-99060000D03*
X218450000Y-96520000D03*
X220990000Y-96520000D03*
%TD*%
D18*
%TO.C,J2*%
X177800000Y-124460000D03*
X177800000Y-127000000D03*
X180340000Y-124460000D03*
X180340000Y-127000000D03*
X182880000Y-124460000D03*
X182880000Y-127000000D03*
X185420000Y-124460000D03*
X185420000Y-127000000D03*
X187960000Y-124460000D03*
X187960000Y-127000000D03*
X190500000Y-124460000D03*
X190500000Y-127000000D03*
X193040000Y-124460000D03*
X193040000Y-127000000D03*
X195580000Y-124460000D03*
X195580000Y-127000000D03*
X198120000Y-124460000D03*
X198120000Y-127000000D03*
X200660000Y-124460000D03*
X200660000Y-127000000D03*
X203200000Y-124460000D03*
X203200000Y-127000000D03*
X205740000Y-124460000D03*
X205740000Y-127000000D03*
X208280000Y-124460000D03*
X208280000Y-127000000D03*
X210820000Y-124460000D03*
X210820000Y-127000000D03*
X213360000Y-124460000D03*
X213360000Y-127000000D03*
X215900000Y-124460000D03*
X215900000Y-127000000D03*
%TD*%
D17*
%TO.C,H2*%
X218425000Y-119350000D03*
%TD*%
M02*
